# Blender 4.2.0
# www.blender.org
mtllib BackGround.mtl
o 平面.004
v 0.000000 0.000000 5.000000
v 0.000001 0.000000 -5.000000
v -9.999999 0.000000 5.000000
v -9.999999 0.000000 -5.000000
v -0.000000 0.000000 4.999999
v -0.000000 -6.000000 4.999999
v -9.999999 0.000000 4.999999
v -9.999999 -6.000000 4.999999
v 0.050000 -6.000000 -5.000000
v 0.050000 0.000000 -5.000000
v -0.050000 -6.000000 -5.000000
v -0.050000 0.000000 -5.000000
v 0.050000 -6.000000 -5.099999
v 0.050000 0.000000 -5.099999
v -0.050000 -6.000000 -5.099999
v -0.050000 0.000000 -5.099999
v -9.949999 -6.000000 -5.000000
v -9.949999 0.000000 -5.000000
v -10.049999 -6.000000 -5.000000
v -10.049999 0.000000 -5.000000
v -9.949999 -6.000000 -5.100000
v -9.949999 0.000000 -5.100000
v -10.049999 -6.000000 -5.100000
v -10.049999 0.000000 -5.100000
v -10.049999 -6.050000 -5.000000
v 0.050001 -6.050000 -5.000000
v -10.049999 -5.950000 -5.000000
v 0.050001 -5.950000 -5.000000
v -10.049999 -6.050000 -5.100000
v 0.050001 -6.050000 -5.099999
v -10.049999 -5.950000 -5.100000
v 0.050001 -5.950000 -5.099999
v -10.049999 -0.050000 -5.000000
v 0.050001 -0.050000 -5.000000
v -10.049999 0.050000 -5.000000
v 0.050001 0.050000 -5.000000
v -10.049999 -0.050000 -5.100000
v 0.050001 -0.050000 -5.099999
v -10.049999 0.050000 -5.100000
v 0.050001 0.050000 -5.099999
v -0.000001 0.000000 4.999999
v -0.000001 -6.000000 4.999999
v 0.000001 -0.000000 -5.000000
v 0.000001 -6.000000 -5.000000
v -9.999999 0.000000 4.999999
v -9.999999 -6.000000 4.999999
v -9.999998 -0.000000 -5.000000
v -9.999998 -6.000000 -5.000000
v -0.000000 -6.000000 4.999999
v 0.000000 -6.000000 -5.000000
v -9.999999 -6.000000 4.999999
v -9.999999 -6.000000 -5.000000
vn -0.0000 1.0000 -0.0000
vn -0.0000 -0.0000 -1.0000
vn -0.0000 -0.0000 1.0000
vn -1.0000 -0.0000 -0.0000
vn 1.0000 -0.0000 -0.0000
vn -0.0000 -1.0000 -0.0000
vt 1.000000 0.000000
vt 0.000000 1.000000
vt 0.000000 0.000000
vt 0.625000 0.000000
vt 0.375000 0.250000
vt 0.375000 0.000000
vt 0.625000 0.250000
vt 0.375000 0.500000
vt 0.625000 0.500000
vt 0.375000 0.750000
vt 0.625000 0.750000
vt 0.375000 1.000000
vt 0.125000 0.750000
vt 0.125000 0.500000
vt 0.875000 0.750000
vt 0.875000 0.500000
vt 1.000000 1.000000
vt 0.625000 1.000000
s 0
f 2/1/1 3/2/1 1/3/1
f 6/1/2 7/2/2 5/3/2
f 10/4/3 11/5/3 9/6/3
f 12/7/4 15/8/4 11/5/4
f 16/9/2 13/10/2 15/8/2
f 14/11/5 9/12/5 13/10/5
f 15/8/6 9/13/6 11/14/6
f 16/9/1 10/15/1 14/11/1
f 18/4/3 19/5/3 17/6/3
f 20/7/4 23/8/4 19/5/4
f 24/9/2 21/10/2 23/8/2
f 22/11/5 17/12/5 21/10/5
f 23/8/6 17/13/6 19/14/6
f 20/16/1 22/11/1 24/9/1
f 25/6/3 28/7/3 27/5/3
f 28/7/1 31/8/1 27/5/1
f 32/9/2 29/10/2 31/8/2
f 30/11/6 25/12/6 29/10/6
f 31/8/4 25/13/4 27/14/4
f 28/16/5 30/11/5 32/9/5
f 33/6/3 36/7/3 35/5/3
f 36/7/1 39/8/1 35/5/1
f 40/9/2 37/10/2 39/8/2
f 38/11/6 33/12/6 37/10/6
f 39/8/4 33/13/4 35/14/4
f 36/16/5 38/11/5 40/9/5
f 42/1/5 43/2/5 41/3/5
f 46/1/5 47/2/5 45/3/5
f 50/1/1 51/2/1 49/3/1
f 2/1/1 4/17/1 3/2/1
f 6/1/2 8/17/2 7/2/2
f 10/4/3 12/7/3 11/5/3
f 12/7/4 16/9/4 15/8/4
f 16/9/2 14/11/2 13/10/2
f 14/11/5 10/18/5 9/12/5
f 15/8/6 13/10/6 9/13/6
f 16/9/1 12/16/1 10/15/1
f 18/4/3 20/7/3 19/5/3
f 20/7/4 24/9/4 23/8/4
f 24/9/2 22/11/2 21/10/2
f 22/11/5 18/18/5 17/12/5
f 23/8/6 21/10/6 17/13/6
f 20/16/1 18/15/1 22/11/1
f 25/6/3 26/4/3 28/7/3
f 28/7/1 32/9/1 31/8/1
f 32/9/2 30/11/2 29/10/2
f 30/11/6 26/18/6 25/12/6
f 31/8/4 29/10/4 25/13/4
f 28/16/5 26/15/5 30/11/5
f 33/6/3 34/4/3 36/7/3
f 36/7/1 40/9/1 39/8/1
f 40/9/2 38/11/2 37/10/2
f 38/11/6 34/18/6 33/12/6
f 39/8/4 37/10/4 33/13/4
f 36/16/5 34/15/5 38/11/5
f 42/1/5 44/17/5 43/2/5
f 46/1/5 48/17/5 47/2/5
f 50/1/1 52/17/1 51/2/1
