# Blender 4.2.0
# www.blender.org
mtllib Restart.mtl
o テキスト
v -1.801170 -0.293444 -0.000000
v -1.801128 -0.302928 -0.000000
v -1.800999 -0.312810 -0.000000
v -1.800779 -0.322991 -0.000000
v -1.800466 -0.333370 -0.000000
v -1.800056 -0.343846 -0.000000
v -1.799545 -0.354319 -0.000000
v -1.798930 -0.364688 -0.000000
v -1.798207 -0.374852 -0.000000
v -1.797373 -0.384710 -0.000000
v -1.796425 -0.394162 -0.000000
v -1.795358 -0.403107 -0.000000
v -1.794170 -0.411444 -0.000000
v -1.891170 -0.411444 -0.000000
v -1.890212 -0.402782 -0.000000
v -1.889337 -0.393398 -0.000000
v -1.888545 -0.383444 -0.000000
v -1.887837 -0.373074 -0.000000
v -1.887212 -0.362440 -0.000000
v -1.886670 -0.351694 -0.000000
v -1.886212 -0.340991 -0.000000
v -1.885837 -0.330481 -0.000000
v -1.885545 -0.320319 -0.000000
v -1.885337 -0.310657 -0.000000
v -1.885211 -0.301648 -0.000000
v -1.885170 -0.293444 -0.000000
v -1.884170 0.036556 0.000000
v -1.913139 0.027162 0.000000
v -1.944253 0.016574 0.000000
v -1.977076 0.004931 0.000000
v -2.011170 -0.007629 -0.000000
v -2.046097 -0.020967 -0.000000
v -2.081420 -0.034944 -0.000000
v -2.116701 -0.049421 -0.000000
v -2.151503 -0.064259 -0.000000
v -2.185389 -0.079319 -0.000000
v -2.217920 -0.094463 -0.000000
v -2.248660 -0.109551 -0.000000
v -2.277170 -0.124444 -0.000000
v -2.311170 -0.039444 -0.000000
v -2.283232 -0.025828 -0.000000
v -2.252249 -0.011597 -0.000000
v -2.218717 0.003071 0.000000
v -2.183133 0.018000 0.000000
v -2.145993 0.033012 0.000000
v -2.107795 0.047931 0.000000
v -2.069034 0.062578 0.000000
v -2.030207 0.076778 0.000000
v -1.991811 0.090353 0.000000
v -1.954342 0.103125 0.000000
v -1.918296 0.114919 0.000000
v -1.884170 0.125556 0.000000
v -1.884170 0.288556 0.000000
v -1.884251 0.296312 0.000000
v -1.884480 0.304523 0.000000
v -1.884842 0.313103 0.000000
v -1.885318 0.321963 0.000000
v -1.885892 0.331018 0.000000
v -1.886545 0.340181 0.000000
v -1.887261 0.349364 0.000000
v -1.888022 0.358482 0.000000
v -1.888811 0.367446 0.000000
v -1.889610 0.376171 0.000000
v -1.890402 0.384570 0.000000
v -1.891170 0.392556 0.000000
v -1.793170 0.392556 0.000000
v -1.794588 0.384532 0.000000
v -1.795846 0.376033 0.000000
v -1.796951 0.367165 0.000000
v -1.797911 0.358037 0.000000
v -1.798731 0.348757 0.000000
v -1.799420 0.339431 0.000000
v -1.799984 0.330167 0.000000
v -1.800429 0.321074 0.000000
v -1.800764 0.312259 0.000000
v -1.800994 0.303829 0.000000
v -1.801127 0.295892 0.000000
v -1.801170 0.288556 0.000000
v -1.801170 0.260528 0.000000
v -1.801170 0.220167 0.000000
v -1.801170 0.170056 0.000000
v -1.801170 0.112778 0.000000
v -1.801170 0.050917 0.000000
v -1.801170 -0.012944 -0.000000
v -1.801170 -0.076222 -0.000000
v -1.801170 -0.136333 -0.000000
v -1.801170 -0.190694 -0.000000
v -1.801170 -0.236722 -0.000000
v -1.801170 -0.271833 -0.000000
v -0.566170 0.051556 0.000000
v -0.566170 -0.046444 -0.000000
v -0.574367 -0.045716 -0.000000
v -0.583411 -0.045032 -0.000000
v -0.593233 -0.044397 -0.000000
v -0.603763 -0.043815 -0.000000
v -0.614932 -0.043287 -0.000000
v -0.626670 -0.042819 -0.000000
v -0.638908 -0.042414 -0.000000
v -0.651577 -0.042074 -0.000000
v -0.664608 -0.041804 -0.000000
v -0.677929 -0.041606 -0.000000
v -0.691473 -0.041485 -0.000000
v -0.705170 -0.041444 -0.000000
v -0.730295 -0.041444 -0.000000
v -0.766670 -0.041444 -0.000000
v -0.812045 -0.041444 -0.000000
v -0.864170 -0.041444 -0.000000
v -0.920795 -0.041444 -0.000000
v -0.979670 -0.041444 -0.000000
v -1.038545 -0.041444 -0.000000
v -1.095170 -0.041444 -0.000000
v -1.147295 -0.041444 -0.000000
v -1.192670 -0.041444 -0.000000
v -1.229045 -0.041444 -0.000000
v -1.254170 -0.041444 -0.000000
v -1.265346 -0.041524 -0.000000
v -1.276332 -0.041745 -0.000000
v -1.287060 -0.042085 -0.000000
v -1.297466 -0.042518 -0.000000
v -1.307483 -0.043021 -0.000000
v -1.317045 -0.043569 -0.000000
v -1.326086 -0.044138 -0.000000
v -1.334540 -0.044704 -0.000000
v -1.342342 -0.045241 -0.000000
v -1.349424 -0.045727 -0.000000
v -1.355723 -0.046136 -0.000000
v -1.361170 -0.046444 -0.000000
v -1.361170 0.051556 0.000000
v -1.355378 0.051037 0.000000
v -1.349003 0.050491 0.000000
v -1.342045 0.049931 0.000000
v -1.334503 0.049371 0.000000
v -1.326378 0.048824 0.000000
v -1.317670 0.048306 0.000000
v -1.308378 0.047829 0.000000
v -1.298503 0.047408 0.000000
v -1.288045 0.047056 0.000000
v -1.277003 0.046787 0.000000
v -1.265378 0.046616 0.000000
v -1.253170 0.046556 0.000000
v -1.228256 0.046556 0.000000
v -1.192022 0.046556 0.000000
v -1.146732 0.046556 0.000000
v -1.094651 0.046556 0.000000
v -1.038043 0.046556 0.000000
v -0.979170 0.046556 0.000000
v -0.920297 0.046556 0.000000
v -0.863688 0.046556 0.000000
v -0.811607 0.046556 0.000000
v -0.766318 0.046556 0.000000
v -0.730084 0.046556 0.000000
v -0.705170 0.046556 0.000000
v -0.691244 0.046616 0.000000
v -0.677513 0.046787 0.000000
v -0.664045 0.047056 0.000000
v -0.650911 0.047408 0.000000
v -0.638179 0.047829 0.000000
v -0.625920 0.048306 0.000000
v -0.614202 0.048824 0.000000
v -0.603096 0.049371 0.000000
v -0.592670 0.049931 0.000000
v -0.582994 0.050491 0.000000
v -0.574138 0.051037 0.000000
v -0.000170 0.403556 0.000000
v 0.090830 0.432556 0.000000
v 0.092529 0.425883 0.000000
v 0.094589 0.418926 0.000000
v 0.096955 0.411774 0.000000
v 0.099571 0.404519 0.000000
v 0.102381 0.397249 0.000000
v 0.105330 0.390056 0.000000
v 0.108362 0.383029 0.000000
v 0.111423 0.376259 0.000000
v 0.114455 0.369837 0.000000
v 0.117404 0.363852 0.000000
v 0.120214 0.358395 0.000000
v 0.122830 0.353556 0.000000
v 0.135735 0.329636 0.000000
v 0.150983 0.303611 0.000000
v 0.168627 0.275837 0.000000
v 0.188719 0.246667 0.000000
v 0.211311 0.216455 0.000000
v 0.236455 0.185556 0.000000
v 0.264203 0.154323 0.000000
v 0.294608 0.123111 0.000000
v 0.327721 0.092274 0.000000
v 0.363594 0.062167 0.000000
v 0.402280 0.033143 0.000000
v 0.443830 0.005556 0.000000
v 0.376830 -0.046444 -0.000000
v 0.349310 -0.026774 -0.000000
v 0.322756 -0.006329 -0.000000
v 0.297174 0.014790 0.000000
v 0.272571 0.036482 0.000000
v 0.248954 0.058645 0.000000
v 0.226330 0.081181 0.000000
v 0.204706 0.103987 0.000000
v 0.184089 0.126963 0.000000
v 0.164486 0.150009 0.000000
v 0.145904 0.173023 0.000000
v 0.128350 0.195906 0.000000
v 0.111830 0.218556 0.000000
v -0.226170 0.218556 0.000000
v -0.220534 0.197541 0.000000
v -0.213665 0.175607 0.000000
v -0.205623 0.152915 0.000000
v -0.196466 0.129630 0.000000
v -0.186254 0.105914 0.000000
v -0.175045 0.081931 0.000000
v -0.162899 0.057843 0.000000
v -0.149874 0.033815 0.000000
v -0.136029 0.010009 0.000000
v -0.121425 -0.013412 -0.000000
v -0.106119 -0.036284 -0.000000
v -0.090170 -0.058444 -0.000000
v -0.072574 -0.046220 -0.000000
v -0.054818 -0.034069 -0.000000
v -0.036951 -0.022022 -0.000000
v -0.019022 -0.010111 -0.000000
v -0.001079 0.001634 0.000000
v 0.016830 0.013181 0.000000
v 0.034655 0.024498 0.000000
v 0.052349 0.035556 0.000000
v 0.069861 0.046321 0.000000
v 0.087145 0.056764 0.000000
v 0.104151 0.066853 0.000000
v 0.120830 0.076556 0.000000
v 0.174830 0.021556 0.000000
v 0.158589 0.011313 0.000000
v 0.141904 0.000611 0.000000
v 0.124830 -0.010507 -0.000000
v 0.107423 -0.022000 -0.000000
v 0.089737 -0.033826 -0.000000
v 0.071830 -0.045944 -0.000000
v 0.053756 -0.058312 -0.000000
v 0.035571 -0.070889 -0.000000
v 0.017330 -0.083632 -0.000000
v -0.000911 -0.096500 -0.000000
v -0.019096 -0.109451 -0.000000
v -0.037170 -0.122444 -0.000000
v -0.013877 -0.146570 -0.000000
v 0.011011 -0.170366 -0.000000
v 0.037502 -0.193710 -0.000000
v 0.065608 -0.216481 -0.000000
v 0.095339 -0.238558 -0.000000
v 0.126705 -0.259819 -0.000000
v 0.159717 -0.280143 -0.000000
v 0.194386 -0.299407 -0.000000
v 0.230721 -0.317491 -0.000000
v 0.268733 -0.334273 -0.000000
v 0.308432 -0.349631 -0.000000
v 0.349830 -0.363444 -0.000000
v 0.277830 -0.425444 -0.000000
v 0.236531 -0.409103 -0.000000
v 0.197108 -0.391630 -0.000000
v 0.159518 -0.373101 -0.000000
v 0.123719 -0.353592 -0.000000
v 0.089670 -0.333182 -0.000000
v 0.057330 -0.311944 -0.000000
v 0.026656 -0.289957 -0.000000
v -0.002392 -0.267296 -0.000000
v -0.029857 -0.244038 -0.000000
v -0.055781 -0.220259 -0.000000
v -0.080205 -0.196036 -0.000000
v -0.103170 -0.171444 -0.000000
v -0.113355 -0.179651 -0.000000
v -0.123397 -0.187768 -0.000000
v -0.133279 -0.195788 -0.000000
v -0.142985 -0.203704 -0.000000
v -0.152496 -0.211508 -0.000000
v -0.161795 -0.219194 -0.000000
v -0.170865 -0.226756 -0.000000
v -0.179689 -0.234185 -0.000000
v -0.188248 -0.241476 -0.000000
v -0.196527 -0.248620 -0.000000
v -0.204506 -0.255612 -0.000000
v -0.212170 -0.262444 -0.000000
v -0.271170 -0.193444 -0.000000
v -0.263007 -0.186843 -0.000000
v -0.254531 -0.180051 -0.000000
v -0.245764 -0.173085 -0.000000
v -0.236726 -0.165963 -0.000000
v -0.227437 -0.158702 -0.000000
v -0.217920 -0.151319 -0.000000
v -0.208194 -0.143833 -0.000000
v -0.198281 -0.136259 -0.000000
v -0.188201 -0.128616 -0.000000
v -0.177976 -0.120921 -0.000000
v -0.167625 -0.113191 -0.000000
v -0.157170 -0.105444 -0.000000
v -0.175708 -0.079655 -0.000000
v -0.193309 -0.053379 -0.000000
v -0.209951 -0.026757 -0.000000
v -0.225614 0.000074 0.000000
v -0.240278 0.026975 0.000000
v -0.253920 0.053806 0.000000
v -0.266521 0.080428 0.000000
v -0.278059 0.106704 0.000000
v -0.288514 0.132493 0.000000
v -0.297864 0.157658 0.000000
v -0.306090 0.182058 0.000000
v -0.313170 0.205556 0.000000
v -0.314731 0.209712 0.000000
v -0.316406 0.214139 0.000000
v -0.318186 0.218774 0.000000
v -0.320059 0.223556 0.000000
v -0.322015 0.228420 0.000000
v -0.324045 0.233306 0.000000
v -0.326137 0.238149 0.000000
v -0.328281 0.242889 0.000000
v -0.330467 0.247462 0.000000
v -0.332684 0.251806 0.000000
v -0.334922 0.255858 0.000000
v -0.337170 0.259556 0.000000
v -0.271170 0.299556 0.000000
v -0.266816 0.297888 0.000000
v -0.262253 0.296384 0.000000
v -0.257482 0.295040 0.000000
v -0.252503 0.293852 0.000000
v -0.247316 0.292817 0.000000
v -0.241920 0.291931 0.000000
v -0.236316 0.291191 0.000000
v -0.230503 0.290593 0.000000
v -0.224483 0.290134 0.000000
v -0.218253 0.289810 0.000000
v -0.211816 0.289619 0.000000
v -0.205170 0.289556 0.000000
v 0.065830 0.289556 0.000000
v 0.044830 0.325556 0.000000
v 0.042169 0.330375 0.000000
v 0.039205 0.335778 0.000000
v 0.035971 0.341681 0.000000
v 0.032497 0.348000 0.000000
v 0.028814 0.354653 0.000000
v 0.024955 0.361556 0.000000
v 0.020950 0.368625 0.000000
v 0.016830 0.375778 0.000000
v 0.012627 0.382931 0.000000
v 0.008372 0.390000 0.000000
v 0.004096 0.396903 0.000000
v 0.735830 0.287556 0.000000
v 0.786830 0.326556 0.000000
v 0.791037 0.325348 0.000000
v 0.795649 0.324227 0.000000
v 0.800658 0.323196 0.000000
v 0.806052 0.322259 0.000000
v 0.811821 0.321420 0.000000
v 0.817955 0.320681 0.000000
v 0.824443 0.320046 0.000000
v 0.831274 0.319519 0.000000
v 0.838439 0.319103 0.000000
v 0.845927 0.318801 0.000000
v 0.853728 0.318618 0.000000
v 0.861830 0.318556 0.000000
v 0.876434 0.318556 0.000000
v 0.900492 0.318556 0.000000
v 0.932127 0.318556 0.000000
v 0.969460 0.318556 0.000000
v 1.010612 0.318556 0.000000
v 1.053705 0.318556 0.000000
v 1.096861 0.318556 0.000000
v 1.138201 0.318556 0.000000
v 1.175846 0.318556 0.000000
v 1.207918 0.318556 0.000000
v 1.232539 0.318556 0.000000
v 1.247830 0.318556 0.000000
v 1.255852 0.318636 0.000000
v 1.264756 0.318861 0.000000
v 1.274299 0.319212 0.000000
v 1.284237 0.319667 0.000000
v 1.294329 0.320205 0.000000
v 1.304330 0.320806 0.000000
v 1.313998 0.321448 0.000000
v 1.323089 0.322111 0.000000
v 1.331361 0.322774 0.000000
v 1.338571 0.323417 0.000000
v 1.344475 0.324018 0.000000
v 1.348830 0.324556 0.000000
v 1.348830 0.233556 0.000000
v 1.345200 0.233864 0.000000
v 1.339960 0.234273 0.000000
v 1.333330 0.234759 0.000000
v 1.325534 0.235296 0.000000
v 1.316793 0.235862 0.000000
v 1.307330 0.236431 0.000000
v 1.297367 0.236979 0.000000
v 1.287126 0.237482 0.000000
v 1.276830 0.237915 0.000000
v 1.266701 0.238255 0.000000
v 1.256960 0.238476 0.000000
v 1.247830 0.238556 0.000000
v 1.233492 0.238556 0.000000
v 1.209288 0.238556 0.000000
v 1.177189 0.238556 0.000000
v 1.139163 0.238556 0.000000
v 1.097179 0.238556 0.000000
v 1.053205 0.238556 0.000000
v 1.009210 0.238556 0.000000
v 0.967163 0.238556 0.000000
v 0.929033 0.238556 0.000000
v 0.896788 0.238556 0.000000
v 0.872398 0.238556 0.000000
v 0.857830 0.238556 0.000000
v 0.865049 0.217120 0.000000
v 0.874085 0.194491 0.000000
v 0.884752 0.170931 0.000000
v 0.896867 0.146704 0.000000
v 0.910246 0.122074 0.000000
v 0.924705 0.097306 0.000000
v 0.940060 0.072662 0.000000
v 0.956126 0.048408 0.000000
v 0.972721 0.024806 0.000000
v 0.989659 0.002120 0.000000
v 1.006757 -0.019384 -0.000000
v 1.023830 -0.039444 -0.000000
v 1.050499 -0.068243 -0.000000
v 1.078932 -0.097000 -0.000000
v 1.109017 -0.125507 -0.000000
v 1.140645 -0.153555 -0.000000
v 1.173703 -0.180937 -0.000000
v 1.208080 -0.207444 -0.000000
v 1.243666 -0.232868 -0.000000
v 1.280349 -0.257000 -0.000000
v 1.318017 -0.279632 -0.000000
v 1.356561 -0.300555 -0.000000
v 1.395869 -0.319562 -0.000000
v 1.435830 -0.336444 -0.000000
v 1.371830 -0.403444 -0.000000
v 1.335109 -0.385821 -0.000000
v 1.298983 -0.366537 -0.000000
v 1.263502 -0.345726 -0.000000
v 1.228719 -0.323518 -0.000000
v 1.194686 -0.300047 -0.000000
v 1.161455 -0.275444 -0.000000
v 1.129078 -0.249841 -0.000000
v 1.097608 -0.223370 -0.000000
v 1.067096 -0.196163 -0.000000
v 1.037594 -0.168352 -0.000000
v 1.009155 -0.140068 -0.000000
v 0.981830 -0.111444 -0.000000
v 0.956272 -0.134705 -0.000000
v 0.930696 -0.158861 -0.000000
v 0.905252 -0.183726 -0.000000
v 0.880089 -0.209111 -0.000000
v 0.855357 -0.234830 -0.000000
v 0.831205 -0.260694 -0.000000
v 0.807782 -0.286517 -0.000000
v 0.785237 -0.312111 -0.000000
v 0.763721 -0.337288 -0.000000
v 0.743381 -0.361861 -0.000000
v 0.724367 -0.385642 -0.000000
v 0.706830 -0.408444 -0.000000
v 0.636830 -0.348444 -0.000000
v 0.654225 -0.327684 -0.000000
v 0.673737 -0.305116 -0.000000
v 0.695111 -0.281054 -0.000000
v 0.718089 -0.255815 -0.000000
v 0.742414 -0.229715 -0.000000
v 0.767830 -0.203069 -0.000000
v 0.794079 -0.176195 -0.000000
v 0.820904 -0.149407 -0.000000
v 0.848049 -0.123022 -0.000000
v 0.875256 -0.097356 -0.000000
v 0.902269 -0.072725 -0.000000
v 0.928830 -0.049444 -0.000000
v 0.911259 -0.026415 -0.000000
v 0.894094 -0.002463 -0.000000
v 0.877408 0.022212 0.000000
v 0.861274 0.047408 0.000000
v 0.845766 0.072923 0.000000
v 0.830955 0.098556 0.000000
v 0.816915 0.124105 0.000000
v 0.803719 0.149371 0.000000
v 0.791439 0.174149 0.000000
v 0.780149 0.198241 0.000000
v 0.769922 0.221443 0.000000
v 0.760830 0.243556 0.000000
v 0.759192 0.247210 0.000000
v 0.757311 0.251121 0.000000
v 0.755236 0.255212 0.000000
v 0.753015 0.259408 0.000000
v 0.750697 0.263631 0.000000
v 0.748330 0.267806 0.000000
v 0.745963 0.271855 0.000000
v 0.743645 0.275704 0.000000
v 0.741424 0.279274 0.000000
v 0.739349 0.282491 0.000000
v 0.737468 0.285277 0.000000
v 2.223830 0.369556 0.000000
v 2.314830 0.369556 0.000000
v 2.314331 0.364491 0.000000
v 2.313839 0.358875 0.000000
v 2.313361 0.352821 0.000000
v 2.312904 0.346445 0.000000
v 2.312475 0.339860 0.000000
v 2.312080 0.333181 0.000000
v 2.311727 0.326523 0.000000
v 2.311423 0.320000 0.000000
v 2.311174 0.313728 0.000000
v 2.310987 0.307820 0.000000
v 2.310870 0.302391 0.000000
v 2.310830 0.297556 0.000000
v 2.310830 0.285504 0.000000
v 2.310830 0.265389 0.000000
v 2.310830 0.238774 0.000000
v 2.310830 0.207222 0.000000
v 2.310830 0.172295 0.000000
v 2.310830 0.135556 0.000000
v 2.310830 0.098566 0.000000
v 2.310830 0.062889 0.000000
v 2.310830 0.030087 0.000000
v 2.310830 0.001722 0.000000
v 2.310830 -0.020642 -0.000000
v 2.310830 -0.035444 -0.000000
v 2.310890 -0.042975 -0.000000
v 2.311061 -0.050523 -0.000000
v 2.311330 -0.058022 -0.000000
v 2.311682 -0.065407 -0.000000
v 2.312103 -0.072612 -0.000000
v 2.312580 -0.079569 -0.000000
v 2.313098 -0.086215 -0.000000
v 2.313645 -0.092481 -0.000000
v 2.314205 -0.098304 -0.000000
v 2.314765 -0.103616 -0.000000
v 2.315311 -0.108351 -0.000000
v 2.315830 -0.112444 -0.000000
v 2.223830 -0.112444 -0.000000
v 2.224329 -0.107645 -0.000000
v 2.224821 -0.102301 -0.000000
v 2.225299 -0.096491 -0.000000
v 2.225756 -0.090296 -0.000000
v 2.226185 -0.083796 -0.000000
v 2.226580 -0.077069 -0.000000
v 2.226933 -0.070197 -0.000000
v 2.227237 -0.063259 -0.000000
v 2.227486 -0.056335 -0.000000
v 2.227673 -0.049504 -0.000000
v 2.227790 -0.042848 -0.000000
v 2.227830 -0.036444 -0.000000
v 2.227830 -0.021623 -0.000000
v 2.227830 0.000796 0.000000
v 2.227830 0.029243 0.000000
v 2.227830 0.062148 0.000000
v 2.227830 0.097942 0.000000
v 2.227830 0.135056 0.000000
v 2.227830 0.171919 0.000000
v 2.227830 0.206963 0.000000
v 2.227830 0.238618 0.000000
v 2.227830 0.265315 0.000000
v 2.227830 0.285484 0.000000
v 2.227830 0.297556 0.000000
v 2.227789 0.303651 0.000000
v 2.227673 0.309903 0.000000
v 2.227486 0.316259 0.000000
v 2.227237 0.322667 0.000000
v 2.226933 0.329075 0.000000
v 2.226580 0.335431 0.000000
v 2.226185 0.341682 0.000000
v 2.225756 0.347778 0.000000
v 2.225298 0.353665 0.000000
v 2.224820 0.359292 0.000000
v 2.224329 0.364606 0.000000
v 1.759830 0.377556 0.000000
v 1.853830 0.377556 0.000000
v 1.853101 0.371242 0.000000
v 1.852418 0.364792 0.000000
v 1.851783 0.358196 0.000000
v 1.851200 0.351445 0.000000
v 1.850673 0.344526 0.000000
v 1.850205 0.337431 0.000000
v 1.849799 0.330148 0.000000
v 1.849460 0.322667 0.000000
v 1.849189 0.314978 0.000000
v 1.848992 0.307070 0.000000
v 1.848871 0.298932 0.000000
v 1.848830 0.290556 0.000000
v 1.848830 0.280820 0.000000
v 1.848830 0.269338 0.000000
v 1.848830 0.256446 0.000000
v 1.848830 0.242482 0.000000
v 1.848830 0.227781 0.000000
v 1.848830 0.212681 0.000000
v 1.848830 0.197518 0.000000
v 1.848830 0.182630 0.000000
v 1.848830 0.168353 0.000000
v 1.848830 0.155023 0.000000
v 1.848830 0.142979 0.000000
v 1.848830 0.132556 0.000000
v 1.849107 0.087492 0.000000
v 1.850048 0.046546 0.000000
v 1.851814 0.009337 0.000000
v 1.854571 -0.024518 -0.000000
v 1.858480 -0.055401 -0.000000
v 1.863705 -0.083694 -0.000000
v 1.870409 -0.109779 -0.000000
v 1.878756 -0.134037 -0.000000
v 1.888908 -0.156850 -0.000000
v 1.901029 -0.178602 -0.000000
v 1.915282 -0.199672 -0.000000
v 1.931830 -0.220444 -0.000000
v 1.947800 -0.237327 -0.000000
v 1.964672 -0.253004 -0.000000
v 1.982392 -0.267522 -0.000000
v 2.000904 -0.280926 -0.000000
v 2.020152 -0.293260 -0.000000
v 2.040080 -0.304569 -0.000000
v 2.060633 -0.314900 -0.000000
v 2.081756 -0.324296 -0.000000
v 2.103392 -0.332804 -0.000000
v 2.125487 -0.340468 -0.000000
v 2.147985 -0.347333 -0.000000
v 2.170830 -0.353444 -0.000000
v 2.105830 -0.422444 -0.000000
v 2.087053 -0.415810 -0.000000
v 2.067367 -0.408366 -0.000000
v 2.046986 -0.400054 -0.000000
v 2.026126 -0.390815 -0.000000
v 2.005002 -0.380590 -0.000000
v 1.983830 -0.369319 -0.000000
v 1.962824 -0.356945 -0.000000
v 1.942201 -0.343407 -0.000000
v 1.922174 -0.328647 -0.000000
v 1.902960 -0.312606 -0.000000
v 1.884773 -0.295225 -0.000000
v 1.867830 -0.276444 -0.000000
v 1.850639 -0.254993 -0.000000
v 1.835052 -0.233250 -0.000000
v 1.821049 -0.210632 -0.000000
v 1.808608 -0.186555 -0.000000
v 1.797709 -0.160437 -0.000000
v 1.788330 -0.131694 -0.000000
v 1.780452 -0.099743 -0.000000
v 1.774052 -0.064000 -0.000000
v 1.769111 -0.023882 -0.000000
v 1.765608 0.021195 0.000000
v 1.763521 0.071813 0.000000
v 1.762830 0.128556 0.000000
v 1.762830 0.138962 0.000000
v 1.762830 0.150972 0.000000
v 1.762830 0.164274 0.000000
v 1.762830 0.178556 0.000000
v 1.762830 0.193504 0.000000
v 1.762830 0.208806 0.000000
v 1.762830 0.224149 0.000000
v 1.762830 0.239222 0.000000
v 1.762830 0.253712 0.000000
v 1.762830 0.267306 0.000000
v 1.762830 0.279691 0.000000
v 1.762830 0.290556 0.000000
v 1.762809 0.298932 0.000000
v 1.762747 0.307070 0.000000
v 1.762643 0.314978 0.000000
v 1.762497 0.322667 0.000000
v 1.762309 0.330148 0.000000
v 1.762080 0.337431 0.000000
v 1.761809 0.344526 0.000000
v 1.761497 0.351445 0.000000
v 1.761143 0.358196 0.000000
v 1.760747 0.364792 0.000000
v 1.760309 0.371241 0.000000
vn -0.0000 -0.0000 -1.0000
vn 1.0000 -0.0000 -0.0000
vn -1.0000 -0.0000 0.0001
vn 1.0000 -0.0000 -0.0001
vt 0.750000 0.000000
vt 0.727273 0.000000
vt 0.738636 0.000000
vt 0.715909 0.000000
vt 0.704545 0.000000
vt 0.761364 0.000000
vt 0.693182 0.000000
vt 0.772727 0.000000
vt 0.681818 0.000000
vt 0.784091 0.000000
vt 0.670455 0.000000
vt 0.795455 0.000000
vt 0.659091 0.000000
vt 0.806818 0.000000
vt 0.647727 0.000000
vt 0.818182 0.000000
vt 0.636364 0.000000
vt 0.829545 0.000000
vt 0.625000 0.000000
vt 0.840909 0.000000
vt 0.613636 0.000000
vt 0.852273 0.000000
vt 0.602273 0.000000
vt 0.863636 0.000000
vt 0.590909 0.000000
vt 0.875000 0.000000
vt 0.886364 0.000000
vt 0.579545 0.000000
vt 0.897727 0.000000
vt 0.909091 0.000000
vt 0.920455 0.000000
vt 0.568182 0.000000
vt 0.556818 0.000000
vt 0.931818 0.000000
vt 0.545455 0.000000
vt 0.534091 0.000000
vt 0.522727 0.000000
vt 0.511364 0.000000
vt 0.943182 0.000000
vt 0.295455 0.000000
vt 0.500000 0.000000
vt 0.284091 0.000000
vt 0.306818 0.000000
vt 0.488636 0.000000
vt 0.318182 0.000000
vt 0.477273 0.000000
vt 0.329545 0.000000
vt 0.340909 0.000000
vt 0.465909 0.000000
vt 0.352273 0.000000
vt 0.454545 0.000000
vt 0.954545 0.000000
vt 0.363636 0.000000
vt 0.443182 0.000000
vt 0.375000 0.000000
vt 0.386364 0.000000
vt 0.397727 0.000000
vt 0.409091 0.000000
vt 0.420455 0.000000
vt 0.431818 0.000000
vt 0.965909 0.000000
vt 0.977273 0.000000
vt 0.988636 0.000000
vt 1.000000 0.000000
vt 0.000000 0.000000
vt 0.011364 0.000000
vt 0.272727 0.000000
vt 0.261364 0.000000
vt 0.022727 0.000000
vt 0.250000 0.000000
vt 0.034091 0.000000
vt 0.238636 0.000000
vt 0.045455 0.000000
vt 0.227273 0.000000
vt 0.056818 0.000000
vt 0.215909 0.000000
vt 0.068182 0.000000
vt 0.204545 0.000000
vt 0.079545 0.000000
vt 0.193182 0.000000
vt 0.090909 0.000000
vt 0.181818 0.000000
vt 0.102273 0.000000
vt 0.170455 0.000000
vt 0.113636 0.000000
vt 0.159091 0.000000
vt 0.125000 0.000000
vt 0.147727 0.000000
vt 0.136364 0.000000
vt 0.013699 0.000000
vt 0.534247 0.000000
vt 0.506849 0.000000
vt 0.520548 0.000000
vt 0.986301 0.000000
vt 0.547945 0.000000
vt 0.972603 0.000000
vt 0.561644 0.000000
vt 0.958904 0.000000
vt 0.575342 0.000000
vt 0.945205 0.000000
vt 0.589041 0.000000
vt 0.931507 0.000000
vt 0.602740 0.000000
vt 0.917808 0.000000
vt 0.616438 0.000000
vt 0.904110 0.000000
vt 0.630137 0.000000
vt 0.890411 0.000000
vt 0.643836 0.000000
vt 0.876712 0.000000
vt 0.657534 0.000000
vt 0.863014 0.000000
vt 0.671233 0.000000
vt 0.849315 0.000000
vt 0.684932 0.000000
vt 0.835616 0.000000
vt 0.821918 0.000000
vt 0.808219 0.000000
vt 0.794521 0.000000
vt 0.780822 0.000000
vt 0.767123 0.000000
vt 0.753425 0.000000
vt 0.739726 0.000000
vt 0.726027 0.000000
vt 0.712329 0.000000
vt 0.698630 0.000000
vt 0.027397 0.000000
vt 0.041096 0.000000
vt 0.054795 0.000000
vt 0.068493 0.000000
vt 0.082192 0.000000
vt 0.095890 0.000000
vt 0.109589 0.000000
vt 0.123288 0.000000
vt 0.136986 0.000000
vt 0.150685 0.000000
vt 0.164384 0.000000
vt 0.178082 0.000000
vt 0.191781 0.000000
vt 0.205479 0.000000
vt 0.219178 0.000000
vt 0.260274 0.000000
vt 0.287671 0.000000
vt 0.328767 0.000000
vt 0.342466 0.000000
vt 0.356164 0.000000
vt 0.369863 0.000000
vt 0.383562 0.000000
vt 0.397260 0.000000
vt 0.410959 0.000000
vt 0.424658 0.000000
vt 0.438356 0.000000
vt 0.232877 0.000000
vt 0.246575 0.000000
vt 0.273973 0.000000
vt 0.301370 0.000000
vt 0.315068 0.000000
vt 0.452055 0.000000
vt 0.465753 0.000000
vt 0.479452 0.000000
vt 0.493151 0.000000
vt 0.005682 0.000000
vt 0.017045 0.000000
vt 0.028409 0.000000
vt 0.039773 0.000000
vt 0.994318 0.000000
vt 0.051136 0.000000
vt 0.982955 0.000000
vt 0.062500 0.000000
vt 0.971591 0.000000
vt 0.073864 0.000000
vt 0.960227 0.000000
vt 0.948864 0.000000
vt 0.937500 0.000000
vt 0.085227 0.000000
vt 0.857955 0.000000
vt 0.869318 0.000000
vt 0.880682 0.000000
vt 0.892045 0.000000
vt 0.903409 0.000000
vt 0.914773 0.000000
vt 0.926136 0.000000
vt 0.096591 0.000000
vt 0.846591 0.000000
vt 0.835227 0.000000
vt 0.823864 0.000000
vt 0.812500 0.000000
vt 0.801136 0.000000
vt 0.221591 0.000000
vt 0.210227 0.000000
vt 0.107955 0.000000
vt 0.789773 0.000000
vt 0.778409 0.000000
vt 0.232955 0.000000
vt 0.198864 0.000000
vt 0.767045 0.000000
vt 0.119318 0.000000
vt 0.244318 0.000000
vt 0.187500 0.000000
vt 0.755682 0.000000
vt 0.255682 0.000000
vt 0.130682 0.000000
vt 0.176136 0.000000
vt 0.357955 0.000000
vt 0.346591 0.000000
vt 0.267045 0.000000
vt 0.744318 0.000000
vt 0.335227 0.000000
vt 0.164773 0.000000
vt 0.142045 0.000000
vt 0.323864 0.000000
vt 0.369318 0.000000
vt 0.278409 0.000000
vt 0.312500 0.000000
vt 0.380682 0.000000
vt 0.732955 0.000000
vt 0.153409 0.000000
vt 0.392045 0.000000
vt 0.301136 0.000000
vt 0.289773 0.000000
vt 0.403409 0.000000
vt 0.721591 0.000000
vt 0.414773 0.000000
vt 0.426136 0.000000
vt 0.710227 0.000000
vt 0.698864 0.000000
vt 0.437500 0.000000
vt 0.687500 0.000000
vt 0.676136 0.000000
vt 0.573864 0.000000
vt 0.664773 0.000000
vt 0.448864 0.000000
vt 0.585227 0.000000
vt 0.653409 0.000000
vt 0.596591 0.000000
vt 0.607955 0.000000
vt 0.619318 0.000000
vt 0.630682 0.000000
vt 0.642045 0.000000
vt 0.562500 0.000000
vt 0.460227 0.000000
vt 0.551136 0.000000
vt 0.471591 0.000000
vt 0.539773 0.000000
vt 0.482955 0.000000
vt 0.528409 0.000000
vt 0.494318 0.000000
vt 0.505682 0.000000
vt 0.517045 0.000000
vt 0.013605 0.000000
vt 0.006803 0.000000
vt 0.020408 0.000000
vt 0.258503 0.000000
vt 0.244898 0.000000
vt 0.251701 0.000000
vt 0.027211 0.000000
vt 0.238095 0.000000
vt 0.231293 0.000000
vt 0.034014 0.000000
vt 0.224490 0.000000
vt 0.040816 0.000000
vt 0.217687 0.000000
vt 0.210884 0.000000
vt 0.047619 0.000000
vt 0.204082 0.000000
vt 0.054422 0.000000
vt 0.197279 0.000000
vt 0.061224 0.000000
vt 0.190476 0.000000
vt 0.068027 0.000000
vt 0.183673 0.000000
vt 0.074830 0.000000
vt 0.176871 0.000000
vt 0.081633 0.000000
vt 0.170068 0.000000
vt 0.088435 0.000000
vt 0.163265 0.000000
vt 0.156463 0.000000
vt 0.149660 0.000000
vt 0.142857 0.000000
vt 0.136054 0.000000
vt 0.129252 0.000000
vt 0.122449 0.000000
vt 0.115646 0.000000
vt 0.108844 0.000000
vt 0.102041 0.000000
vt 0.095238 0.000000
vt 0.265306 0.000000
vt 0.993197 0.000000
vt 0.272109 0.000000
vt 0.986395 0.000000
vt 0.278912 0.000000
vt 0.979592 0.000000
vt 0.285714 0.000000
vt 0.292517 0.000000
vt 0.972789 0.000000
vt 0.299320 0.000000
vt 0.965986 0.000000
vt 0.306122 0.000000
vt 0.312925 0.000000
vt 0.959184 0.000000
vt 0.319728 0.000000
vt 0.952381 0.000000
vt 0.326531 0.000000
vt 0.945578 0.000000
vt 0.938776 0.000000
vt 0.333333 0.000000
vt 0.931973 0.000000
vt 0.925170 0.000000
vt 0.340136 0.000000
vt 0.353741 0.000000
vt 0.360544 0.000000
vt 0.367347 0.000000
vt 0.374150 0.000000
vt 0.380952 0.000000
vt 0.387755 0.000000
vt 0.408163 0.000000
vt 0.421769 0.000000
vt 0.918367 0.000000
vt 0.346939 0.000000
vt 0.394558 0.000000
vt 0.401361 0.000000
vt 0.414966 0.000000
vt 0.428571 0.000000
vt 0.911565 0.000000
vt 0.435374 0.000000
vt 0.904762 0.000000
vt 0.442177 0.000000
vt 0.897959 0.000000
vt 0.448980 0.000000
vt 0.891156 0.000000
vt 0.455782 0.000000
vt 0.884354 0.000000
vt 0.462585 0.000000
vt 0.877551 0.000000
vt 0.469388 0.000000
vt 0.870748 0.000000
vt 0.476190 0.000000
vt 0.482993 0.000000
vt 0.863946 0.000000
vt 0.489796 0.000000
vt 0.857143 0.000000
vt 0.496599 0.000000
vt 0.850340 0.000000
vt 0.503401 0.000000
vt 0.843537 0.000000
vt 0.510204 0.000000
vt 0.836735 0.000000
vt 0.517007 0.000000
vt 0.829932 0.000000
vt 0.523810 0.000000
vt 0.673469 0.000000
vt 0.823129 0.000000
vt 0.666667 0.000000
vt 0.680272 0.000000
vt 0.816327 0.000000
vt 0.530612 0.000000
vt 0.687075 0.000000
vt 0.659864 0.000000
vt 0.809524 0.000000
vt 0.537415 0.000000
vt 0.693878 0.000000
vt 0.653061 0.000000
vt 0.802721 0.000000
vt 0.544218 0.000000
vt 0.700680 0.000000
vt 0.646259 0.000000
vt 0.795918 0.000000
vt 0.551020 0.000000
vt 0.707483 0.000000
vt 0.639456 0.000000
vt 0.789116 0.000000
vt 0.557823 0.000000
vt 0.714286 0.000000
vt 0.632653 0.000000
vt 0.782313 0.000000
vt 0.564626 0.000000
vt 0.721088 0.000000
vt 0.625850 0.000000
vt 0.571429 0.000000
vt 0.775510 0.000000
vt 0.727891 0.000000
vt 0.619048 0.000000
vt 0.578231 0.000000
vt 0.768707 0.000000
vt 0.734694 0.000000
vt 0.585034 0.000000
vt 0.612245 0.000000
vt 0.761905 0.000000
vt 0.591837 0.000000
vt 0.741497 0.000000
vt 0.605442 0.000000
vt 0.748299 0.000000
vt 0.755102 0.000000
vt 0.598639 0.000000
vt 0.444444 0.000000
vt 0.432749 0.000000
vt 0.438596 0.000000
vt 0.450292 0.000000
vt 0.994152 0.000000
vt 0.456140 0.000000
vt 0.988304 0.000000
vt 0.461988 0.000000
vt 0.982456 0.000000
vt 0.467836 0.000000
vt 0.976608 0.000000
vt 0.473684 0.000000
vt 0.970760 0.000000
vt 0.479532 0.000000
vt 0.964912 0.000000
vt 0.485380 0.000000
vt 0.959064 0.000000
vt 0.491228 0.000000
vt 0.953216 0.000000
vt 0.497076 0.000000
vt 0.947368 0.000000
vt 0.502924 0.000000
vt 0.941520 0.000000
vt 0.508772 0.000000
vt 0.935673 0.000000
vt 0.514620 0.000000
vt 0.929825 0.000000
vt 0.520468 0.000000
vt 0.923977 0.000000
vt 0.526316 0.000000
vt 0.918129 0.000000
vt 0.532164 0.000000
vt 0.912281 0.000000
vt 0.538012 0.000000
vt 0.906433 0.000000
vt 0.543860 0.000000
vt 0.900585 0.000000
vt 0.549708 0.000000
vt 0.894737 0.000000
vt 0.555556 0.000000
vt 0.888889 0.000000
vt 0.561404 0.000000
vt 0.883041 0.000000
vt 0.567251 0.000000
vt 0.877193 0.000000
vt 0.573099 0.000000
vt 0.871345 0.000000
vt 0.578947 0.000000
vt 0.865497 0.000000
vt 0.584795 0.000000
vt 0.859649 0.000000
vt 0.590643 0.000000
vt 0.853801 0.000000
vt 0.596491 0.000000
vt 0.847953 0.000000
vt 0.602339 0.000000
vt 0.842105 0.000000
vt 0.608187 0.000000
vt 0.614035 0.000000
vt 0.836257 0.000000
vt 0.619883 0.000000
vt 0.830409 0.000000
vt 0.625731 0.000000
vt 0.824561 0.000000
vt 0.631579 0.000000
vt 0.637427 0.000000
vt 0.818713 0.000000
vt 0.643275 0.000000
vt 0.812865 0.000000
vt 0.649123 0.000000
vt 0.807018 0.000000
vt 0.654971 0.000000
vt 0.801170 0.000000
vt 0.660819 0.000000
vt 0.795322 0.000000
vt 0.672515 0.000000
vt 0.789474 0.000000
vt 0.678363 0.000000
vt 0.684211 0.000000
vt 0.783626 0.000000
vt 0.690058 0.000000
vt 0.777778 0.000000
vt 0.695906 0.000000
vt 0.701754 0.000000
vt 0.771930 0.000000
vt 0.707602 0.000000
vt 0.713450 0.000000
vt 0.766082 0.000000
vt 0.719298 0.000000
vt 0.725146 0.000000
vt 0.760234 0.000000
vt 0.754386 0.000000
vt 0.748538 0.000000
vt 0.742690 0.000000
vt 0.736842 0.000000
vt 0.730994 0.000000
vt 0.011696 0.000000
vt 0.005848 0.000000
vt 0.426901 0.000000
vt 0.421053 0.000000
vt 0.017544 0.000000
vt 0.415205 0.000000
vt 0.023392 0.000000
vt 0.409357 0.000000
vt 0.029240 0.000000
vt 0.403509 0.000000
vt 0.035088 0.000000
vt 0.397661 0.000000
vt 0.040936 0.000000
vt 0.391813 0.000000
vt 0.046784 0.000000
vt 0.385965 0.000000
vt 0.052632 0.000000
vt 0.380117 0.000000
vt 0.058480 0.000000
vt 0.374269 0.000000
vt 0.064327 0.000000
vt 0.368421 0.000000
vt 0.070175 0.000000
vt 0.362573 0.000000
vt 0.076023 0.000000
vt 0.081871 0.000000
vt 0.356725 0.000000
vt 0.087719 0.000000
vt 0.350877 0.000000
vt 0.093567 0.000000
vt 0.345029 0.000000
vt 0.099415 0.000000
vt 0.339181 0.000000
vt 0.105263 0.000000
vt 0.111111 0.000000
vt 0.327485 0.000000
vt 0.116959 0.000000
vt 0.321637 0.000000
vt 0.122807 0.000000
vt 0.315789 0.000000
vt 0.128655 0.000000
vt 0.309942 0.000000
vt 0.134503 0.000000
vt 0.304094 0.000000
vt 0.140351 0.000000
vt 0.298246 0.000000
vt 0.146199 0.000000
vt 0.292398 0.000000
vt 0.152047 0.000000
vt 0.286550 0.000000
vt 0.280702 0.000000
vt 0.157895 0.000000
vt 0.274854 0.000000
vt 0.163743 0.000000
vt 0.269006 0.000000
vt 0.169591 0.000000
vt 0.263158 0.000000
vt 0.175439 0.000000
vt 0.257310 0.000000
vt 0.181287 0.000000
vt 0.251462 0.000000
vt 0.187135 0.000000
vt 0.245614 0.000000
vt 0.192982 0.000000
vt 0.239766 0.000000
vt 0.198830 0.000000
vt 0.233918 0.000000
vt 0.204678 0.000000
vt 0.228070 0.000000
vt 0.210526 0.000000
vt 0.222222 0.000000
vt 0.216374 0.000000
s 0
f 67/1/1 65/2/1 66/3/1
f 67/1/1 64/4/1 65/2/1
f 67/1/1 63/5/1 64/4/1
f 68/6/1 63/5/1 67/1/1
f 68/6/1 62/7/1 63/5/1
f 69/8/1 62/7/1 68/6/1
f 69/8/1 61/9/1 62/7/1
f 70/10/1 61/9/1 69/8/1
f 70/10/1 60/11/1 61/9/1
f 71/12/1 60/11/1 70/10/1
f 71/12/1 59/13/1 60/11/1
f 72/14/1 59/13/1 71/12/1
f 72/14/1 58/15/1 59/13/1
f 73/16/1 58/15/1 72/14/1
f 73/16/1 57/17/1 58/15/1
f 74/18/1 57/17/1 73/16/1
f 74/18/1 56/19/1 57/17/1
f 75/20/1 56/19/1 74/18/1
f 75/20/1 55/21/1 56/19/1
f 76/22/1 55/21/1 75/20/1
f 76/22/1 54/23/1 55/21/1
f 77/24/1 54/23/1 76/22/1
f 77/24/1 53/25/1 54/23/1
f 78/26/1 53/25/1 77/24/1
f 79/27/1 53/25/1 78/26/1
f 79/27/1 52/28/1 53/25/1
f 80/29/1 52/28/1 79/27/1
f 81/30/1 52/28/1 80/29/1
f 82/31/1 52/28/1 81/30/1
f 82/31/1 51/32/1 52/28/1
f 82/31/1 50/33/1 51/32/1
f 83/34/1 50/33/1 82/31/1
f 83/34/1 49/35/1 50/33/1
f 83/34/1 48/36/1 49/35/1
f 83/34/1 47/37/1 48/36/1
f 83/34/1 46/38/1 47/37/1
f 84/39/1 27/40/1 83/34/1
f 27/40/1 46/38/1 83/34/1
f 27/40/1 45/41/1 46/38/1
f 84/39/1 26/42/1 27/40/1
f 28/43/1 45/41/1 27/40/1
f 28/43/1 44/44/1 45/41/1
f 29/45/1 44/44/1 28/43/1
f 29/45/1 43/46/1 44/44/1
f 30/47/1 43/46/1 29/45/1
f 31/48/1 43/46/1 30/47/1
f 31/48/1 42/49/1 43/46/1
f 32/50/1 42/49/1 31/48/1
f 32/50/1 41/51/1 42/49/1
f 85/52/1 26/42/1 84/39/1
f 33/53/1 41/51/1 32/50/1
f 33/53/1 40/54/1 41/51/1
f 34/55/1 40/54/1 33/53/1
f 34/55/1 35/56/1 40/54/1
f 35/56/1 36/57/1 40/54/1
f 36/57/1 37/58/1 40/54/1
f 37/58/1 38/59/1 40/54/1
f 38/59/1 39/60/1 40/54/1
f 86/61/1 26/42/1 85/52/1
f 87/62/1 26/42/1 86/61/1
f 88/63/1 26/42/1 87/62/1
f 89/64/1 26/42/1 88/63/1
f 1/65/1 26/42/1 89/64/1
f 2/66/1 26/42/1 1/65/1
f 2/66/1 25/67/1 26/42/1
f 2/66/1 24/68/1 25/67/1
f 3/69/1 24/68/1 2/66/1
f 3/69/1 23/70/1 24/68/1
f 4/71/1 23/70/1 3/69/1
f 4/71/1 22/72/1 23/70/1
f 5/73/1 22/72/1 4/71/1
f 5/73/1 21/74/1 22/72/1
f 6/75/1 21/74/1 5/73/1
f 6/75/1 20/76/1 21/74/1
f 7/77/1 20/76/1 6/75/1
f 7/77/1 19/78/1 20/76/1
f 8/79/1 19/78/1 7/77/1
f 8/79/1 18/80/1 19/78/1
f 9/81/1 18/80/1 8/79/1
f 9/81/1 17/82/1 18/80/1
f 10/83/1 17/82/1 9/81/1
f 10/83/1 16/84/1 17/82/1
f 11/85/1 16/84/1 10/83/1
f 11/85/1 15/86/1 16/84/1
f 12/87/1 15/86/1 11/85/1
f 12/87/1 14/88/1 15/86/1
f 13/89/1 14/88/1 12/87/1
f 91/90/1 163/64/1 90/65/1
f 129/91/1 127/92/1 128/93/1
f 91/90/1 162/94/1 163/64/1
f 130/95/1 127/92/1 129/91/1
f 91/90/1 161/96/1 162/94/1
f 131/97/1 127/92/1 130/95/1
f 91/90/1 160/98/1 161/96/1
f 132/99/1 127/92/1 131/97/1
f 91/90/1 159/100/1 160/98/1
f 133/101/1 127/92/1 132/99/1
f 91/90/1 158/102/1 159/100/1
f 134/103/1 127/92/1 133/101/1
f 91/90/1 157/104/1 158/102/1
f 135/105/1 127/92/1 134/103/1
f 91/90/1 156/106/1 157/104/1
f 136/107/1 127/92/1 135/105/1
f 91/90/1 155/108/1 156/106/1
f 137/109/1 127/92/1 136/107/1
f 91/90/1 154/110/1 155/108/1
f 138/111/1 127/92/1 137/109/1
f 91/90/1 153/112/1 154/110/1
f 139/113/1 127/92/1 138/111/1
f 91/90/1 152/114/1 153/112/1
f 140/115/1 127/92/1 139/113/1
f 91/90/1 151/116/1 152/114/1
f 91/90/1 150/117/1 151/116/1
f 91/90/1 149/118/1 150/117/1
f 91/90/1 148/119/1 149/118/1
f 91/90/1 147/120/1 148/119/1
f 91/90/1 146/121/1 147/120/1
f 91/90/1 145/122/1 146/121/1
f 91/90/1 144/123/1 145/122/1
f 91/90/1 143/124/1 144/123/1
f 91/90/1 142/125/1 143/124/1
f 91/90/1 141/126/1 142/125/1
f 91/90/1 140/115/1 141/126/1
f 91/90/1 92/127/1 140/115/1
f 92/127/1 93/128/1 140/115/1
f 93/128/1 94/129/1 140/115/1
f 94/129/1 95/130/1 140/115/1
f 95/130/1 96/131/1 140/115/1
f 96/131/1 97/132/1 140/115/1
f 97/132/1 98/133/1 140/115/1
f 98/133/1 99/134/1 140/115/1
f 99/134/1 100/135/1 140/115/1
f 100/135/1 101/136/1 140/115/1
f 101/136/1 102/137/1 140/115/1
f 102/137/1 103/138/1 140/115/1
f 103/138/1 104/139/1 140/115/1
f 104/139/1 105/140/1 140/115/1
f 105/140/1 106/141/1 140/115/1
f 106/141/1 109/142/1 140/115/1
f 109/142/1 111/143/1 140/115/1
f 111/143/1 114/144/1 140/115/1
f 114/144/1 115/145/1 140/115/1
f 115/145/1 116/146/1 140/115/1
f 116/146/1 117/147/1 140/115/1
f 117/147/1 118/148/1 140/115/1
f 118/148/1 119/149/1 140/115/1
f 119/149/1 120/150/1 140/115/1
f 120/150/1 121/151/1 140/115/1
f 121/151/1 122/152/1 140/115/1
f 122/152/1 127/92/1 140/115/1
f 107/153/2 109/142/3 106/141/4
f 108/154/2 109/142/3 107/153/4
f 110/155/2 111/143/3 109/142/4
f 112/156/2 114/144/3 111/143/4
f 113/157/2 114/144/3 112/156/4
f 123/158/1 127/92/1 122/152/1
f 124/159/1 127/92/1 123/158/1
f 125/160/1 127/92/1 124/159/1
f 126/161/1 127/92/1 125/160/1
f 166/66/1 164/65/1 165/162/1
f 167/163/1 164/65/1 166/66/1
f 168/69/1 164/65/1 167/163/1
f 169/164/1 164/65/1 168/69/1
f 170/71/1 164/65/1 169/164/1
f 170/71/1 340/64/1 164/65/1
f 171/165/1 340/64/1 170/71/1
f 171/165/1 339/166/1 340/64/1
f 172/73/1 339/166/1 171/165/1
f 172/73/1 338/63/1 339/166/1
f 173/167/1 338/63/1 172/73/1
f 173/167/1 337/168/1 338/63/1
f 174/75/1 337/168/1 173/167/1
f 174/75/1 336/62/1 337/168/1
f 175/169/1 336/62/1 174/75/1
f 175/169/1 335/170/1 336/62/1
f 176/77/1 335/170/1 175/169/1
f 176/77/1 334/61/1 335/170/1
f 177/171/1 334/61/1 176/77/1
f 177/171/1 333/172/1 334/61/1
f 178/79/1 333/172/1 177/171/1
f 178/79/1 332/52/1 333/172/1
f 178/79/1 331/173/1 332/52/1
f 178/79/1 330/39/1 331/173/1
f 178/79/1 329/174/1 330/39/1
f 179/175/1 329/174/1 178/79/1
f 179/175/1 328/34/1 329/174/1
f 180/81/1 328/34/1 179/175/1
f 316/24/1 314/22/1 315/176/1
f 317/177/1 314/22/1 316/24/1
f 318/26/1 314/22/1 317/177/1
f 319/178/1 314/22/1 318/26/1
f 320/27/1 314/22/1 319/178/1
f 321/179/1 314/22/1 320/27/1
f 322/29/1 314/22/1 321/179/1
f 323/180/1 314/22/1 322/29/1
f 324/30/1 314/22/1 323/180/1
f 325/181/1 314/22/1 324/30/1
f 326/31/1 314/22/1 325/181/1
f 327/182/1 314/22/1 326/31/1
f 180/81/1 327/182/1 328/34/1
f 180/81/1 314/22/1 327/182/1
f 181/183/1 314/22/1 180/81/1
f 181/183/1 313/184/1 314/22/1
f 181/183/1 312/20/1 313/184/1
f 181/183/1 311/185/1 312/20/1
f 181/183/1 310/18/1 311/185/1
f 182/83/1 310/18/1 181/183/1
f 182/83/1 309/186/1 310/18/1
f 182/83/1 308/16/1 309/186/1
f 182/83/1 307/187/1 308/16/1
f 182/83/1 202/76/1 307/187/1
f 202/76/1 306/14/1 307/187/1
f 202/76/1 305/188/1 306/14/1
f 202/76/1 203/189/1 305/188/1
f 203/189/1 304/12/1 305/188/1
f 182/83/1 201/190/1 202/76/1
f 204/74/1 304/12/1 203/189/1
f 183/191/1 201/190/1 182/83/1
f 204/74/1 303/192/1 304/12/1
f 204/74/1 302/10/1 303/192/1
f 204/74/1 301/193/1 302/10/1
f 205/194/1 301/193/1 204/74/1
f 183/191/1 200/78/1 201/190/1
f 184/85/1 200/78/1 183/191/1
f 205/194/1 300/8/1 301/193/1
f 206/72/1 300/8/1 205/194/1
f 184/85/1 199/195/1 200/78/1
f 206/72/1 299/196/1 300/8/1
f 185/197/1 199/195/1 184/85/1
f 207/198/1 299/196/1 206/72/1
f 185/197/1 198/80/1 199/195/1
f 207/198/1 298/6/1 299/196/1
f 208/70/1 298/6/1 207/198/1
f 185/197/1 197/199/1 198/80/1
f 186/87/1 197/199/1 185/197/1
f 208/70/1 297/200/1 298/6/1
f 209/201/1 297/200/1 208/70/1
f 186/87/1 196/82/1 197/199/1
f 187/202/1 196/82/1 186/87/1
f 210/68/1 297/200/1 209/201/1
f 187/202/1 195/203/1 196/82/1
f 210/68/1 296/1/1 297/200/1
f 228/53/1 226/50/1 227/204/1
f 228/53/1 225/205/1 226/50/1
f 188/89/1 195/203/1 187/202/1
f 188/89/1 194/84/1 195/203/1
f 211/206/1 296/1/1 210/68/1
f 228/53/1 224/48/1 225/205/1
f 211/206/1 295/207/1 296/1/1
f 228/53/1 223/208/1 224/48/1
f 188/89/1 193/209/1 194/84/1
f 228/53/1 222/47/1 223/208/1
f 212/67/1 295/207/1 211/206/1
f 189/210/1 193/209/1 188/89/1
f 212/67/1 294/3/1 295/207/1
f 228/53/1 221/211/1 222/47/1
f 229/212/1 221/211/1 228/53/1
f 189/210/1 192/86/1 193/209/1
f 229/212/1 220/45/1 221/211/1
f 230/55/1 220/45/1 229/212/1
f 213/213/1 294/3/1 212/67/1
f 190/88/1 192/86/1 189/210/1
f 230/55/1 219/214/1 220/45/1
f 231/215/1 219/214/1 230/55/1
f 213/213/1 293/216/1 294/3/1
f 190/88/1 191/217/1 192/86/1
f 231/215/1 218/43/1 219/214/1
f 232/56/1 218/43/1 231/215/1
f 214/42/1 293/216/1 213/213/1
f 233/218/1 218/43/1 232/56/1
f 233/218/1 217/219/1 218/43/1
f 214/42/1 292/2/1 293/216/1
f 234/57/1 217/219/1 233/218/1
f 234/57/1 216/40/1 217/219/1
f 215/220/1 292/2/1 214/42/1
f 235/221/1 216/40/1 234/57/1
f 235/221/1 215/220/1 216/40/1
f 215/220/1 291/222/1 292/2/1
f 236/58/1 215/220/1 235/221/1
f 236/58/1 291/222/1 215/220/1
f 237/223/1 291/222/1 236/58/1
f 237/223/1 290/4/1 291/222/1
f 238/59/1 290/4/1 237/223/1
f 239/224/1 290/4/1 238/59/1
f 239/224/1 289/225/1 290/4/1
f 240/60/1 289/225/1 239/224/1
f 240/60/1 288/5/1 289/225/1
f 240/60/1 287/226/1 288/5/1
f 241/227/1 287/226/1 240/60/1
f 241/227/1 286/7/1 287/226/1
f 241/227/1 285/228/1 286/7/1
f 241/227/1 284/9/1 285/228/1
f 242/54/1 284/9/1 241/227/1
f 242/54/1 283/229/1 284/9/1
f 242/54/1 282/11/1 283/229/1
f 242/54/1 265/230/1 282/11/1
f 265/230/1 281/231/1 282/11/1
f 243/232/1 265/230/1 242/54/1
f 243/232/1 264/32/1 265/230/1
f 266/28/1 281/231/1 265/230/1
f 266/28/1 280/13/1 281/231/1
f 267/233/1 280/13/1 266/28/1
f 267/233/1 279/234/1 280/13/1
f 267/233/1 278/15/1 279/234/1
f 268/25/1 278/15/1 267/233/1
f 268/25/1 269/235/1 278/15/1
f 269/235/1 270/23/1 278/15/1
f 270/23/1 271/236/1 278/15/1
f 271/236/1 272/21/1 278/15/1
f 272/21/1 273/237/1 278/15/1
f 273/237/1 274/19/1 278/15/1
f 274/19/1 275/238/1 278/15/1
f 275/238/1 276/17/1 278/15/1
f 276/17/1 277/239/1 278/15/1
f 244/51/1 264/32/1 243/232/1
f 244/51/1 263/240/1 264/32/1
f 245/241/1 263/240/1 244/51/1
f 245/241/1 262/33/1 263/240/1
f 246/49/1 262/33/1 245/241/1
f 246/49/1 261/242/1 262/33/1
f 247/243/1 261/242/1 246/49/1
f 247/243/1 260/35/1 261/242/1
f 248/46/1 260/35/1 247/243/1
f 248/46/1 259/244/1 260/35/1
f 249/245/1 259/244/1 248/46/1
f 249/245/1 258/36/1 259/244/1
f 250/44/1 258/36/1 249/245/1
f 250/44/1 257/246/1 258/36/1
f 251/247/1 257/246/1 250/44/1
f 252/41/1 257/246/1 251/247/1
f 252/41/1 256/37/1 257/246/1
f 253/248/1 256/37/1 252/41/1
f 253/248/1 255/249/1 256/37/1
f 253/248/1 254/38/1 255/249/1
f 343/250/1 341/65/1 342/251/1
f 344/252/1 341/65/1 343/250/1
f 379/253/1 377/254/1 378/255/1
f 345/256/1 341/65/1 344/252/1
f 379/253/1 376/257/1 377/254/1
f 379/253/1 375/258/1 376/257/1
f 346/259/1 341/65/1 345/256/1
f 379/253/1 374/260/1 375/258/1
f 347/261/1 341/65/1 346/259/1
f 379/253/1 373/262/1 374/260/1
f 379/253/1 372/263/1 373/262/1
f 348/264/1 341/65/1 347/261/1
f 379/253/1 371/265/1 372/263/1
f 349/266/1 341/65/1 348/264/1
f 379/253/1 370/267/1 371/265/1
f 350/268/1 341/65/1 349/266/1
f 379/253/1 369/269/1 370/267/1
f 351/270/1 341/65/1 350/268/1
f 379/253/1 368/271/1 369/269/1
f 352/272/1 341/65/1 351/270/1
f 379/253/1 367/273/1 368/271/1
f 353/274/1 341/65/1 352/272/1
f 379/253/1 366/275/1 367/273/1
f 354/276/1 341/65/1 353/274/1
f 379/253/1 365/277/1 366/275/1
f 379/253/1 364/278/1 365/277/1
f 379/253/1 363/279/1 364/278/1
f 379/253/1 362/280/1 363/279/1
f 379/253/1 361/281/1 362/280/1
f 379/253/1 360/282/1 361/281/1
f 379/253/1 359/283/1 360/282/1
f 379/253/1 358/284/1 359/283/1
f 379/253/1 357/285/1 358/284/1
f 379/253/1 356/286/1 357/285/1
f 379/253/1 355/287/1 356/286/1
f 379/253/1 354/276/1 355/287/1
f 379/253/1 341/65/1 354/276/1
f 379/253/1 380/288/1 341/65/1
f 380/288/1 488/64/1 341/65/1
f 380/288/1 487/289/1 488/64/1
f 380/288/1 381/290/1 487/289/1
f 381/290/1 486/291/1 487/289/1
f 381/290/1 382/292/1 486/291/1
f 382/292/1 485/293/1 486/291/1
f 382/292/1 383/294/1 485/293/1
f 383/294/1 384/295/1 485/293/1
f 384/295/1 484/296/1 485/293/1
f 384/295/1 385/297/1 484/296/1
f 385/297/1 483/298/1 484/296/1
f 385/297/1 386/299/1 483/298/1
f 386/299/1 387/300/1 483/298/1
f 387/300/1 482/301/1 483/298/1
f 387/300/1 388/302/1 482/301/1
f 388/302/1 481/303/1 482/301/1
f 388/302/1 389/304/1 481/303/1
f 389/304/1 480/305/1 481/303/1
f 389/304/1 479/306/1 480/305/1
f 389/304/1 390/307/1 479/306/1
f 390/307/1 478/308/1 479/306/1
f 390/307/1 477/309/1 478/308/1
f 390/307/1 391/310/1 477/309/1
f 391/310/1 393/311/1 477/309/1
f 393/311/1 394/312/1 477/309/1
f 394/312/1 395/313/1 477/309/1
f 395/313/1 396/314/1 477/309/1
f 396/314/1 397/315/1 477/309/1
f 397/315/1 398/316/1 477/309/1
f 398/316/1 401/317/1 477/309/1
f 401/317/1 403/318/1 477/309/1
f 403/318/1 476/319/1 477/309/1
f 392/320/2 393/311/3 391/310/4
f 399/321/2 401/317/3 398/316/4
f 400/322/2 401/317/3 399/321/4
f 402/323/2 403/318/3 401/317/4
f 404/324/1 476/319/1 403/318/1
f 404/324/1 475/325/1 476/319/1
f 405/326/1 475/325/1 404/324/1
f 405/326/1 474/327/1 475/325/1
f 406/328/1 474/327/1 405/326/1
f 406/328/1 473/329/1 474/327/1
f 407/330/1 473/329/1 406/328/1
f 407/330/1 472/331/1 473/329/1
f 408/332/1 472/331/1 407/330/1
f 408/332/1 471/333/1 472/331/1
f 409/334/1 471/333/1 408/332/1
f 409/334/1 470/335/1 471/333/1
f 410/336/1 470/335/1 409/334/1
f 410/336/1 469/337/1 470/335/1
f 411/338/1 469/337/1 410/336/1
f 412/339/1 469/337/1 411/338/1
f 412/339/1 468/340/1 469/337/1
f 413/341/1 468/340/1 412/339/1
f 413/341/1 467/342/1 468/340/1
f 414/343/1 467/342/1 413/341/1
f 414/343/1 466/344/1 467/342/1
f 415/345/1 466/344/1 414/343/1
f 415/345/1 465/346/1 466/344/1
f 416/347/1 465/346/1 415/345/1
f 416/347/1 464/348/1 465/346/1
f 417/349/1 464/348/1 416/347/1
f 417/349/1 463/350/1 464/348/1
f 418/351/1 463/350/1 417/349/1
f 418/351/1 440/352/1 463/350/1
f 440/352/1 462/353/1 463/350/1
f 418/351/1 439/354/1 440/352/1
f 441/355/1 462/353/1 440/352/1
f 441/355/1 461/356/1 462/353/1
f 419/357/1 439/354/1 418/351/1
f 442/358/1 461/356/1 441/355/1
f 419/357/1 438/359/1 439/354/1
f 442/358/1 460/360/1 461/356/1
f 420/361/1 438/359/1 419/357/1
f 443/362/1 460/360/1 442/358/1
f 420/361/1 437/363/1 438/359/1
f 443/362/1 459/364/1 460/360/1
f 421/365/1 437/363/1 420/361/1
f 444/366/1 459/364/1 443/362/1
f 421/365/1 436/367/1 437/363/1
f 444/366/1 458/368/1 459/364/1
f 422/369/1 436/367/1 421/365/1
f 445/370/1 458/368/1 444/366/1
f 422/369/1 435/371/1 436/367/1
f 445/370/1 457/372/1 458/368/1
f 423/373/1 435/371/1 422/369/1
f 446/374/1 457/372/1 445/370/1
f 423/373/1 434/375/1 435/371/1
f 446/374/1 456/376/1 457/372/1
f 424/377/1 434/375/1 423/373/1
f 447/378/1 456/376/1 446/374/1
f 424/377/1 433/379/1 434/375/1
f 425/380/1 433/379/1 424/377/1
f 447/378/1 455/381/1 456/376/1
f 448/382/1 455/381/1 447/378/1
f 425/380/1 432/383/1 433/379/1
f 426/384/1 432/383/1 425/380/1
f 448/382/1 454/385/1 455/381/1
f 449/386/1 454/385/1 448/382/1
f 427/387/1 432/383/1 426/384/1
f 427/387/1 431/388/1 432/383/1
f 449/386/1 453/389/1 454/385/1
f 428/390/1 431/388/1 427/387/1
f 450/391/1 453/389/1 449/386/1
f 428/390/1 430/392/1 431/388/1
f 450/391/1 451/393/1 453/389/1
f 451/393/1 452/394/1 453/389/1
f 428/390/1 429/395/1 430/392/1
f 565/396/1 563/397/1 564/398/1
f 565/396/1 660/64/1 563/397/1
f 566/399/1 660/64/1 565/396/1
f 566/399/1 659/400/1 660/64/1
f 567/401/1 659/400/1 566/399/1
f 567/401/1 658/402/1 659/400/1
f 568/403/1 658/402/1 567/401/1
f 568/403/1 657/404/1 658/402/1
f 569/405/1 657/404/1 568/403/1
f 569/405/1 656/406/1 657/404/1
f 570/407/1 656/406/1 569/405/1
f 570/407/1 655/408/1 656/406/1
f 571/409/1 655/408/1 570/407/1
f 571/409/1 654/410/1 655/408/1
f 572/411/1 654/410/1 571/409/1
f 572/411/1 653/412/1 654/410/1
f 573/413/1 653/412/1 572/411/1
f 573/413/1 652/414/1 653/412/1
f 574/415/1 652/414/1 573/413/1
f 574/415/1 651/416/1 652/414/1
f 575/417/1 651/416/1 574/415/1
f 575/417/1 650/418/1 651/416/1
f 576/419/1 650/418/1 575/417/1
f 576/419/1 649/420/1 650/418/1
f 577/421/1 649/420/1 576/419/1
f 577/421/1 648/422/1 649/420/1
f 578/423/1 648/422/1 577/421/1
f 578/423/1 647/424/1 648/422/1
f 579/425/1 647/424/1 578/423/1
f 579/425/1 646/426/1 647/424/1
f 580/427/1 646/426/1 579/425/1
f 580/427/1 645/428/1 646/426/1
f 581/429/1 645/428/1 580/427/1
f 581/429/1 644/430/1 645/428/1
f 582/431/1 644/430/1 581/429/1
f 582/431/1 643/432/1 644/430/1
f 583/433/1 643/432/1 582/431/1
f 583/433/1 642/434/1 643/432/1
f 584/435/1 642/434/1 583/433/1
f 584/435/1 641/436/1 642/434/1
f 585/437/1 641/436/1 584/435/1
f 585/437/1 640/438/1 641/436/1
f 586/439/1 640/438/1 585/437/1
f 586/439/1 639/440/1 640/438/1
f 587/441/1 639/440/1 586/439/1
f 587/441/1 638/442/1 639/440/1
f 588/443/1 638/442/1 587/441/1
f 588/443/1 637/444/1 638/442/1
f 589/445/1 637/444/1 588/443/1
f 589/445/1 636/446/1 637/444/1
f 590/447/1 636/446/1 589/445/1
f 590/447/1 635/448/1 636/446/1
f 591/449/1 635/448/1 590/447/1
f 591/449/1 634/450/1 635/448/1
f 592/451/1 634/450/1 591/449/1
f 592/451/1 633/452/1 634/450/1
f 593/453/1 633/452/1 592/451/1
f 594/454/1 633/452/1 593/453/1
f 594/454/1 632/455/1 633/452/1
f 595/456/1 632/455/1 594/454/1
f 595/456/1 631/457/1 632/455/1
f 596/458/1 631/457/1 595/456/1
f 596/458/1 630/459/1 631/457/1
f 597/460/1 630/459/1 596/458/1
f 598/461/1 630/459/1 597/460/1
f 598/461/1 629/462/1 630/459/1
f 599/463/1 629/462/1 598/461/1
f 599/463/1 628/464/1 629/462/1
f 600/465/1 628/464/1 599/463/1
f 600/465/1 627/466/1 628/464/1
f 601/467/1 627/466/1 600/465/1
f 601/467/1 626/468/1 627/466/1
f 602/469/1 626/468/1 601/467/1
f 603/354/1 626/468/1 602/469/1
f 603/354/1 625/470/1 626/468/1
f 604/471/1 625/470/1 603/354/1
f 604/471/1 624/472/1 625/470/1
f 605/473/1 624/472/1 604/471/1
f 606/474/1 624/472/1 605/473/1
f 606/474/1 623/475/1 624/472/1
f 607/476/1 623/475/1 606/474/1
f 607/476/1 622/477/1 623/475/1
f 608/478/1 622/477/1 607/476/1
f 609/479/1 622/477/1 608/478/1
f 609/479/1 621/480/1 622/477/1
f 610/481/1 621/480/1 609/479/1
f 611/482/1 621/480/1 610/481/1
f 611/482/1 620/483/1 621/480/1
f 612/484/1 620/483/1 611/482/1
f 613/485/1 620/483/1 612/484/1
f 613/485/1 619/486/1 620/483/1
f 613/485/1 618/487/1 619/486/1
f 613/485/1 617/488/1 618/487/1
f 613/485/1 616/489/1 617/488/1
f 613/485/1 615/490/1 616/489/1
f 613/485/1 614/491/1 615/490/1
f 491/492/1 489/65/1 490/493/1
f 491/492/1 562/494/1 489/65/1
f 491/492/1 561/495/1 562/494/1
f 492/496/1 561/495/1 491/492/1
f 492/496/1 560/497/1 561/495/1
f 493/498/1 560/497/1 492/496/1
f 493/498/1 559/499/1 560/497/1
f 494/500/1 559/499/1 493/498/1
f 494/500/1 558/501/1 559/499/1
f 495/502/1 558/501/1 494/500/1
f 495/502/1 557/503/1 558/501/1
f 496/504/1 557/503/1 495/502/1
f 496/504/1 556/505/1 557/503/1
f 497/506/1 556/505/1 496/504/1
f 497/506/1 555/507/1 556/505/1
f 498/508/1 555/507/1 497/506/1
f 498/508/1 554/509/1 555/507/1
f 499/510/1 554/509/1 498/508/1
f 499/510/1 553/511/1 554/509/1
f 500/512/1 553/511/1 499/510/1
f 500/512/1 552/513/1 553/511/1
f 501/514/1 552/513/1 500/512/1
f 501/514/1 551/515/1 552/513/1
f 502/516/1 551/515/1 501/514/1
f 503/517/1 551/515/1 502/516/1
f 503/517/1 550/518/1 551/515/1
f 504/519/1 550/518/1 503/517/1
f 504/519/1 549/520/1 550/518/1
f 505/521/1 549/520/1 504/519/1
f 505/521/1 548/522/1 549/520/1
f 506/523/1 548/522/1 505/521/1
f 506/523/1 547/524/1 548/522/1
f 507/525/1 547/524/1 506/523/1
f 507/525/1 546/307/1 547/524/1
f 508/526/1 546/307/1 507/525/1
f 508/526/1 545/527/1 546/307/1
f 509/528/1 545/527/1 508/526/1
f 509/528/1 544/529/1 545/527/1
f 510/530/1 544/529/1 509/528/1
f 510/530/1 543/531/1 544/529/1
f 511/532/1 543/531/1 510/530/1
f 511/532/1 542/533/1 543/531/1
f 512/534/1 542/533/1 511/532/1
f 512/534/1 541/535/1 542/533/1
f 513/536/1 541/535/1 512/534/1
f 513/536/1 540/537/1 541/535/1
f 514/538/1 540/537/1 513/536/1
f 514/538/1 539/539/1 540/537/1
f 515/540/1 539/539/1 514/538/1
f 515/540/1 538/541/1 539/539/1
f 515/540/1 537/542/1 538/541/1
f 516/543/1 537/542/1 515/540/1
f 516/543/1 536/544/1 537/542/1
f 517/545/1 536/544/1 516/543/1
f 517/545/1 535/546/1 536/544/1
f 518/547/1 535/546/1 517/545/1
f 518/547/1 534/548/1 535/546/1
f 519/549/1 534/548/1 518/547/1
f 519/549/1 533/550/1 534/548/1
f 520/551/1 533/550/1 519/549/1
f 520/551/1 532/552/1 533/550/1
f 521/553/1 532/552/1 520/551/1
f 521/553/1 531/554/1 532/552/1
f 522/555/1 531/554/1 521/553/1
f 522/555/1 530/556/1 531/554/1
f 523/557/1 530/556/1 522/555/1
f 523/557/1 529/558/1 530/556/1
f 524/559/1 529/558/1 523/557/1
f 524/559/1 528/560/1 529/558/1
f 525/561/1 528/560/1 524/559/1
f 525/561/1 527/562/1 528/560/1
f 526/563/1 527/562/1 525/561/1
