# Blender 4.2.0
# www.blender.org
mtllib stage.mtl
o テキスト
v -1.130376 0.000000 -0.335444
v -1.176376 0.000000 -0.416444
v -1.200515 0.000000 -0.411140
v -1.226241 0.000000 -0.404759
v -1.253266 0.000000 -0.397351
v -1.281301 0.000000 -0.388963
v -1.310059 0.000000 -0.379645
v -1.339251 0.000000 -0.369444
v -1.368588 0.000000 -0.358411
v -1.397783 0.000000 -0.346592
v -1.426548 0.000000 -0.334038
v -1.454593 0.000000 -0.320796
v -1.481632 0.000000 -0.306915
v -1.507376 0.000000 -0.292444
v -1.546901 0.000000 -0.268233
v -1.585408 0.000000 -0.242667
v -1.622798 0.000000 -0.215851
v -1.658968 0.000000 -0.187889
v -1.693820 0.000000 -0.158885
v -1.727251 0.000000 -0.128944
v -1.759161 0.000000 -0.098170
v -1.789450 0.000000 -0.066667
v -1.818017 0.000000 -0.034538
v -1.844760 0.000000 -0.001889
v -1.869580 0.000000 0.031177
v -1.892376 0.000000 0.064556
v -1.844376 0.000000 0.147556
v -1.823073 0.000000 0.112529
v -1.799704 0.000000 0.078009
v -1.774329 0.000000 0.044087
v -1.747005 0.000000 0.010852
v -1.717793 0.000000 -0.021605
v -1.686751 0.000000 -0.053194
v -1.653938 0.000000 -0.083825
v -1.619413 0.000000 -0.113407
v -1.583235 0.000000 -0.141851
v -1.545464 0.000000 -0.169065
v -1.506157 0.000000 -0.194959
v -1.465376 0.000000 -0.219444
v -1.439649 0.000000 -0.233338
v -1.413061 0.000000 -0.246509
v -1.385751 0.000000 -0.258944
v -1.357857 0.000000 -0.270630
v -1.329519 0.000000 -0.281551
v -1.300876 0.000000 -0.291694
v -1.272066 0.000000 -0.301046
v -1.243228 0.000000 -0.309592
v -1.214501 0.000000 -0.317319
v -1.186024 0.000000 -0.324213
v -1.157936 0.000000 -0.330259
v -1.129376 0.000000 0.154556
v -1.084376 0.000000 0.086556
v -1.100544 0.000000 0.078035
v -1.118306 0.000000 0.068144
v -1.137298 0.000000 0.057134
v -1.157153 0.000000 0.045259
v -1.177509 0.000000 0.032774
v -1.198001 0.000000 0.019931
v -1.218263 0.000000 0.006983
v -1.237931 0.000000 -0.005815
v -1.256641 0.000000 -0.018210
v -1.274028 0.000000 -0.029949
v -1.289728 0.000000 -0.040778
v -1.303376 0.000000 -0.050444
v -1.348376 0.000000 0.019556
v -1.336160 0.000000 0.028113
v -1.321320 0.000000 0.038097
v -1.304313 0.000000 0.049228
v -1.285598 0.000000 0.061222
v -1.265633 0.000000 0.073800
v -1.244876 0.000000 0.086681
v -1.223785 0.000000 0.099582
v -1.202820 0.000000 0.112222
v -1.182438 0.000000 0.124321
v -1.163098 0.000000 0.135597
v -1.145257 0.000000 0.145769
v -1.707376 0.000000 0.364556
v -1.652376 0.000000 0.341556
v -1.660621 0.000000 0.329777
v -1.668839 0.000000 0.317491
v -1.677001 0.000000 0.304774
v -1.685079 0.000000 0.291704
v -1.693047 0.000000 0.278355
v -1.700876 0.000000 0.264806
v -1.708538 0.000000 0.251131
v -1.716005 0.000000 0.237408
v -1.723251 0.000000 0.223712
v -1.730246 0.000000 0.210120
v -1.736964 0.000000 0.196710
v -1.743376 0.000000 0.183556
v -1.800376 0.000000 0.209556
v -1.794192 0.000000 0.221791
v -1.787237 0.000000 0.234857
v -1.779657 0.000000 0.248540
v -1.771598 0.000000 0.262630
v -1.763206 0.000000 0.276914
v -1.754626 0.000000 0.291181
v -1.746004 0.000000 0.305218
v -1.737487 0.000000 0.318815
v -1.729219 0.000000 0.331759
v -1.721348 0.000000 0.343838
v -1.714018 0.000000 0.354841
v -1.838376 0.000000 0.412556
v -1.782376 0.000000 0.388556
v -1.790872 0.000000 0.377065
v -1.799343 0.000000 0.365130
v -1.807766 0.000000 0.352806
v -1.816116 0.000000 0.340148
v -1.824369 0.000000 0.327213
v -1.832501 0.000000 0.314056
v -1.840486 0.000000 0.300732
v -1.848301 0.000000 0.287296
v -1.855922 0.000000 0.273806
v -1.863325 0.000000 0.260315
v -1.870484 0.000000 0.246880
v -1.877376 0.000000 0.233556
v -1.934376 0.000000 0.259556
v -1.927751 0.000000 0.271561
v -1.920459 0.000000 0.284431
v -1.912626 0.000000 0.297946
v -1.904376 0.000000 0.311889
v -1.895834 0.000000 0.326040
v -1.887125 0.000000 0.340181
v -1.878376 0.000000 0.354092
v -1.869709 0.000000 0.367556
v -1.861251 0.000000 0.380353
v -1.853126 0.000000 0.392264
v -1.845459 0.000000 0.403071
v -1.280376 0.000000 0.379556
v -1.235376 0.000000 0.312556
v -1.250873 0.000000 0.303306
v -1.268107 0.000000 0.292727
v -1.286688 0.000000 0.281071
v -1.306227 0.000000 0.268593
v -1.326336 0.000000 0.255545
v -1.346626 0.000000 0.242181
v -1.366707 0.000000 0.228754
v -1.386190 0.000000 0.215519
v -1.404688 0.000000 0.202728
v -1.421811 0.000000 0.190634
v -1.437170 0.000000 0.179493
v -1.450376 0.000000 0.169556
v -1.497376 0.000000 0.238556
v -1.485200 0.000000 0.247212
v -1.470468 0.000000 0.257472
v -1.453626 0.000000 0.269024
v -1.435116 0.000000 0.281556
v -1.415385 0.000000 0.294754
v -1.394876 0.000000 0.308306
v -1.374033 0.000000 0.321899
v -1.353302 0.000000 0.335222
v -1.333126 0.000000 0.347962
v -1.313950 0.000000 0.359806
v -1.296218 0.000000 0.370441
v -0.093376 0.000000 0.051556
v -0.093376 0.000000 -0.046444
v -0.101572 0.000000 -0.045716
v -0.110616 0.000000 -0.045032
v -0.120438 0.000000 -0.044397
v -0.130968 0.000000 -0.043815
v -0.142137 0.000000 -0.043288
v -0.153876 0.000000 -0.042819
v -0.166114 0.000000 -0.042414
v -0.178783 0.000000 -0.042074
v -0.191813 0.000000 -0.041804
v -0.205135 0.000000 -0.041606
v -0.218679 0.000000 -0.041485
v -0.232376 0.000000 -0.041444
v -0.257501 0.000000 -0.041444
v -0.293876 0.000000 -0.041444
v -0.339251 0.000000 -0.041444
v -0.391376 0.000000 -0.041444
v -0.448001 0.000000 -0.041444
v -0.506876 0.000000 -0.041444
v -0.565751 0.000000 -0.041444
v -0.622376 0.000000 -0.041444
v -0.674501 0.000000 -0.041444
v -0.719876 0.000000 -0.041444
v -0.756251 0.000000 -0.041444
v -0.781376 0.000000 -0.041444
v -0.792552 0.000000 -0.041524
v -0.803538 0.000000 -0.041745
v -0.814266 0.000000 -0.042085
v -0.824672 0.000000 -0.042518
v -0.834689 0.000000 -0.043021
v -0.844251 0.000000 -0.043569
v -0.853292 0.000000 -0.044138
v -0.861746 0.000000 -0.044704
v -0.869547 0.000000 -0.045241
v -0.876630 0.000000 -0.045727
v -0.882928 0.000000 -0.046136
v -0.888376 0.000000 -0.046444
v -0.888376 0.000000 0.051556
v -0.882584 0.000000 0.051037
v -0.876209 0.000000 0.050491
v -0.869251 0.000000 0.049931
v -0.861709 0.000000 0.049370
v -0.853584 0.000000 0.048824
v -0.844876 0.000000 0.048306
v -0.835584 0.000000 0.047829
v -0.825709 0.000000 0.047408
v -0.815251 0.000000 0.047056
v -0.804209 0.000000 0.046787
v -0.792584 0.000000 0.046616
v -0.780376 0.000000 0.046556
v -0.755461 0.000000 0.046556
v -0.719227 0.000000 0.046556
v -0.673938 0.000000 0.046556
v -0.621857 0.000000 0.046556
v -0.565248 0.000000 0.046556
v -0.506376 0.000000 0.046556
v -0.447503 0.000000 0.046556
v -0.390894 0.000000 0.046556
v -0.338813 0.000000 0.046556
v -0.293524 0.000000 0.046556
v -0.257290 0.000000 0.046556
v -0.232376 0.000000 0.046556
v -0.218450 0.000000 0.046616
v -0.204718 0.000000 0.046787
v -0.191251 0.000000 0.047056
v -0.178116 0.000000 0.047408
v -0.165385 0.000000 0.047829
v -0.153126 0.000000 0.048306
v -0.141408 0.000000 0.048824
v -0.130302 0.000000 0.049370
v -0.119876 0.000000 0.049931
v -0.110200 0.000000 0.050491
v -0.101343 0.000000 0.051037
v 0.913624 0.000000 0.107556
v 0.913624 0.000000 0.024556
v 0.906604 0.000000 0.025015
v 0.899541 0.000000 0.025398
v 0.892437 0.000000 0.025712
v 0.885291 0.000000 0.025963
v 0.878104 0.000000 0.026159
v 0.870874 0.000000 0.026306
v 0.863604 0.000000 0.026411
v 0.856291 0.000000 0.026482
v 0.848937 0.000000 0.026524
v 0.841541 0.000000 0.026546
v 0.834104 0.000000 0.026555
v 0.826624 0.000000 0.026556
v 0.526624 0.000000 0.026556
v 0.527556 0.000000 0.003266
v 0.528907 0.000000 -0.019592
v 0.530765 0.000000 -0.042007
v 0.533217 0.000000 -0.063963
v 0.536350 0.000000 -0.085447
v 0.540249 0.000000 -0.106444
v 0.545003 0.000000 -0.126942
v 0.550699 0.000000 -0.146926
v 0.557421 0.000000 -0.166382
v 0.565259 0.000000 -0.185296
v 0.574298 0.000000 -0.203655
v 0.584624 0.000000 -0.221444
v 0.595046 0.000000 -0.237078
v 0.606749 0.000000 -0.252430
v 0.619640 0.000000 -0.267429
v 0.633624 0.000000 -0.282000
v 0.648609 0.000000 -0.296071
v 0.664499 0.000000 -0.309569
v 0.681203 0.000000 -0.322422
v 0.698624 0.000000 -0.334555
v 0.716671 0.000000 -0.345897
v 0.735249 0.000000 -0.356375
v 0.754265 0.000000 -0.365915
v 0.773624 0.000000 -0.374444
v 0.699624 0.000000 -0.429444
v 0.678580 0.000000 -0.417880
v 0.658018 0.000000 -0.405264
v 0.638046 0.000000 -0.391710
v 0.618773 0.000000 -0.377333
v 0.600304 0.000000 -0.362248
v 0.582749 0.000000 -0.346569
v 0.566215 0.000000 -0.330411
v 0.550810 0.000000 -0.313889
v 0.536640 0.000000 -0.297116
v 0.523814 0.000000 -0.280208
v 0.512440 0.000000 -0.263279
v 0.502624 0.000000 -0.246444
v 0.493118 0.000000 -0.227590
v 0.484573 0.000000 -0.208028
v 0.476953 0.000000 -0.187757
v 0.470217 0.000000 -0.166778
v 0.464329 0.000000 -0.145090
v 0.459249 0.000000 -0.122694
v 0.454941 0.000000 -0.099590
v 0.451365 0.000000 -0.075778
v 0.448484 0.000000 -0.051257
v 0.446259 0.000000 -0.026028
v 0.444652 0.000000 -0.000090
v 0.443624 0.000000 0.026556
v 0.171624 0.000000 0.026556
v 0.165468 0.000000 0.026535
v 0.159041 0.000000 0.026477
v 0.152406 0.000000 0.026384
v 0.145624 0.000000 0.026259
v 0.138760 0.000000 0.026107
v 0.131874 0.000000 0.025931
v 0.125031 0.000000 0.025733
v 0.118291 0.000000 0.025519
v 0.111718 0.000000 0.025290
v 0.105374 0.000000 0.025051
v 0.099322 0.000000 0.024805
v 0.093624 0.000000 0.024556
v 0.093624 0.000000 0.107556
v 0.099800 0.000000 0.106617
v 0.106277 0.000000 0.105796
v 0.112984 0.000000 0.105087
v 0.119847 0.000000 0.104482
v 0.126793 0.000000 0.103974
v 0.133749 0.000000 0.103556
v 0.140643 0.000000 0.103221
v 0.147402 0.000000 0.102963
v 0.153953 0.000000 0.102774
v 0.160222 0.000000 0.102648
v 0.166137 0.000000 0.102578
v 0.171624 0.000000 0.102556
v 0.194538 0.000000 0.102556
v 0.234518 0.000000 0.102556
v 0.288171 0.000000 0.102556
v 0.352106 0.000000 0.102556
v 0.422929 0.000000 0.102556
v 0.497249 0.000000 0.102556
v 0.571674 0.000000 0.102556
v 0.642810 0.000000 0.102556
v 0.707265 0.000000 0.102556
v 0.761648 0.000000 0.102556
v 0.802565 0.000000 0.102556
v 0.826624 0.000000 0.102556
v 0.834314 0.000000 0.102597
v 0.841888 0.000000 0.102718
v 0.849359 0.000000 0.102915
v 0.856736 0.000000 0.103185
v 0.864029 0.000000 0.103525
v 0.871249 0.000000 0.103931
v 0.878407 0.000000 0.104399
v 0.885513 0.000000 0.104926
v 0.892578 0.000000 0.105509
v 0.899611 0.000000 0.106144
v 0.906623 0.000000 0.106827
v 0.793624 0.000000 0.358556
v 0.793624 0.000000 0.275556
v 0.787212 0.000000 0.276035
v 0.780495 0.000000 0.276472
v 0.773499 0.000000 0.276868
v 0.766254 0.000000 0.277222
v 0.758786 0.000000 0.277535
v 0.751124 0.000000 0.277806
v 0.743296 0.000000 0.278035
v 0.735328 0.000000 0.278222
v 0.727249 0.000000 0.278368
v 0.719087 0.000000 0.278472
v 0.710870 0.000000 0.278535
v 0.702624 0.000000 0.278556
v 0.683752 0.000000 0.278556
v 0.656726 0.000000 0.278556
v 0.623187 0.000000 0.278556
v 0.584773 0.000000 0.278556
v 0.543122 0.000000 0.278556
v 0.499874 0.000000 0.278556
v 0.456668 0.000000 0.278556
v 0.415143 0.000000 0.278556
v 0.376937 0.000000 0.278556
v 0.343689 0.000000 0.278556
v 0.317039 0.000000 0.278556
v 0.298624 0.000000 0.278556
v 0.291256 0.000000 0.278535
v 0.283680 0.000000 0.278472
v 0.275937 0.000000 0.278368
v 0.268069 0.000000 0.278222
v 0.260117 0.000000 0.278035
v 0.252124 0.000000 0.277806
v 0.244131 0.000000 0.277535
v 0.236180 0.000000 0.277222
v 0.228312 0.000000 0.276868
v 0.220569 0.000000 0.276472
v 0.212992 0.000000 0.276035
v 0.205624 0.000000 0.275556
v 0.205624 0.000000 0.358556
v 0.213012 0.000000 0.357597
v 0.220638 0.000000 0.356722
v 0.228453 0.000000 0.355931
v 0.236402 0.000000 0.355222
v 0.244435 0.000000 0.354597
v 0.252499 0.000000 0.354056
v 0.260543 0.000000 0.353597
v 0.268513 0.000000 0.353222
v 0.276359 0.000000 0.352931
v 0.284027 0.000000 0.352722
v 0.291466 0.000000 0.352597
v 0.298624 0.000000 0.352556
v 0.317039 0.000000 0.352556
v 0.343694 0.000000 0.352556
v 0.376953 0.000000 0.352556
v 0.415180 0.000000 0.352556
v 0.456741 0.000000 0.352556
v 0.499999 0.000000 0.352556
v 0.543321 0.000000 0.352556
v 0.585069 0.000000 0.352556
v 0.623609 0.000000 0.352556
v 0.657305 0.000000 0.352556
v 0.684522 0.000000 0.352556
v 0.703624 0.000000 0.352556
v 0.711583 0.000000 0.352616
v 0.719458 0.000000 0.352792
v 0.727249 0.000000 0.353071
v 0.734958 0.000000 0.353445
v 0.742583 0.000000 0.353901
v 0.750124 0.000000 0.354431
v 0.757583 0.000000 0.355023
v 0.764958 0.000000 0.355667
v 0.772249 0.000000 0.356353
v 0.779458 0.000000 0.357070
v 0.786583 0.000000 0.357807
v 1.208624 0.000000 0.287556
v 1.259624 0.000000 0.326556
v 1.263831 0.000000 0.325348
v 1.268444 0.000000 0.324227
v 1.273453 0.000000 0.323196
v 1.278847 0.000000 0.322259
v 1.284616 0.000000 0.321420
v 1.290749 0.000000 0.320681
v 1.297237 0.000000 0.320046
v 1.304069 0.000000 0.319519
v 1.311234 0.000000 0.319103
v 1.318722 0.000000 0.318801
v 1.326522 0.000000 0.318618
v 1.334624 0.000000 0.318556
v 1.349228 0.000000 0.318556
v 1.373286 0.000000 0.318556
v 1.404921 0.000000 0.318556
v 1.442254 0.000000 0.318556
v 1.483406 0.000000 0.318556
v 1.526500 0.000000 0.318556
v 1.569655 0.000000 0.318556
v 1.610995 0.000000 0.318556
v 1.648640 0.000000 0.318556
v 1.680712 0.000000 0.318556
v 1.705333 0.000000 0.318556
v 1.720624 0.000000 0.318556
v 1.728646 0.000000 0.318636
v 1.737550 0.000000 0.318861
v 1.747093 0.000000 0.319212
v 1.757032 0.000000 0.319667
v 1.767123 0.000000 0.320205
v 1.777124 0.000000 0.320806
v 1.786792 0.000000 0.321448
v 1.795884 0.000000 0.322111
v 1.804156 0.000000 0.322774
v 1.811365 0.000000 0.323417
v 1.817269 0.000000 0.324018
v 1.821624 0.000000 0.324556
v 1.821624 0.000000 0.233556
v 1.817995 0.000000 0.233864
v 1.812754 0.000000 0.234273
v 1.806125 0.000000 0.234759
v 1.798328 0.000000 0.235296
v 1.789587 0.000000 0.235862
v 1.780125 0.000000 0.236431
v 1.770162 0.000000 0.236979
v 1.759921 0.000000 0.237482
v 1.749624 0.000000 0.237915
v 1.739495 0.000000 0.238255
v 1.729754 0.000000 0.238476
v 1.720624 0.000000 0.238556
v 1.706286 0.000000 0.238556
v 1.682083 0.000000 0.238556
v 1.649984 0.000000 0.238556
v 1.611958 0.000000 0.238556
v 1.569973 0.000000 0.238556
v 1.526000 0.000000 0.238556
v 1.482005 0.000000 0.238556
v 1.439958 0.000000 0.238556
v 1.401828 0.000000 0.238556
v 1.369583 0.000000 0.238556
v 1.345192 0.000000 0.238556
v 1.330624 0.000000 0.238556
v 1.337844 0.000000 0.217120
v 1.346879 0.000000 0.194491
v 1.357546 0.000000 0.170931
v 1.369661 0.000000 0.146704
v 1.383040 0.000000 0.122074
v 1.397499 0.000000 0.097306
v 1.412854 0.000000 0.072662
v 1.428921 0.000000 0.048408
v 1.445515 0.000000 0.024806
v 1.462453 0.000000 0.002120
v 1.479551 0.000000 -0.019384
v 1.496624 0.000000 -0.039444
v 1.523293 0.000000 -0.068243
v 1.551726 0.000000 -0.097000
v 1.581812 0.000000 -0.125507
v 1.613439 0.000000 -0.153555
v 1.646497 0.000000 -0.180937
v 1.680874 0.000000 -0.207444
v 1.716460 0.000000 -0.232868
v 1.753143 0.000000 -0.257000
v 1.790812 0.000000 -0.279632
v 1.829356 0.000000 -0.300555
v 1.868664 0.000000 -0.319562
v 1.908624 0.000000 -0.336444
v 1.844624 0.000000 -0.403444
v 1.807904 0.000000 -0.385821
v 1.771777 0.000000 -0.366537
v 1.736296 0.000000 -0.345726
v 1.701513 0.000000 -0.323518
v 1.667480 0.000000 -0.300047
v 1.634249 0.000000 -0.275444
v 1.601873 0.000000 -0.249841
v 1.570402 0.000000 -0.223370
v 1.539890 0.000000 -0.196163
v 1.510388 0.000000 -0.168352
v 1.481949 0.000000 -0.140068
v 1.454624 0.000000 -0.111444
v 1.429066 0.000000 -0.134705
v 1.403490 0.000000 -0.158861
v 1.378046 0.000000 -0.183726
v 1.352884 0.000000 -0.209111
v 1.328152 0.000000 -0.234830
v 1.303999 0.000000 -0.260694
v 1.280576 0.000000 -0.286517
v 1.258032 0.000000 -0.312111
v 1.236515 0.000000 -0.337288
v 1.216175 0.000000 -0.361861
v 1.197162 0.000000 -0.385642
v 1.179624 0.000000 -0.408444
v 1.109624 0.000000 -0.348444
v 1.127019 0.000000 -0.327685
v 1.146532 0.000000 -0.305116
v 1.167906 0.000000 -0.281054
v 1.190884 0.000000 -0.255815
v 1.215209 0.000000 -0.229715
v 1.240625 0.000000 -0.203069
v 1.266873 0.000000 -0.176195
v 1.293699 0.000000 -0.149407
v 1.320843 0.000000 -0.123022
v 1.348050 0.000000 -0.097356
v 1.375063 0.000000 -0.072725
v 1.401624 0.000000 -0.049444
v 1.384053 0.000000 -0.026415
v 1.366888 0.000000 -0.002463
v 1.350203 0.000000 0.022212
v 1.334069 0.000000 0.047408
v 1.318560 0.000000 0.072923
v 1.303749 0.000000 0.098556
v 1.289709 0.000000 0.124105
v 1.276513 0.000000 0.149370
v 1.264234 0.000000 0.174149
v 1.252944 0.000000 0.198241
v 1.242716 0.000000 0.221443
v 1.233624 0.000000 0.243556
v 1.231987 0.000000 0.247210
v 1.230106 0.000000 0.251121
v 1.228031 0.000000 0.255212
v 1.225810 0.000000 0.259408
v 1.223491 0.000000 0.263631
v 1.221124 0.000000 0.267806
v 1.218758 0.000000 0.271855
v 1.216439 0.000000 0.275704
v 1.214218 0.000000 0.279274
v 1.212143 0.000000 0.282491
v 1.210262 0.000000 0.285277
vn -0.0000 1.0000 -0.0000
vt 0.673203 0.000000
vt 0.830065 0.000000
vt 0.666667 0.000000
vt 0.823529 0.000000
vt 0.816993 0.000000
vt 0.679739 0.000000
vt 0.810458 0.000000
vt 0.686275 0.000000
vt 0.803922 0.000000
vt 0.692810 0.000000
vt 0.503268 0.000000
vt 0.660131 0.000000
vt 0.496732 0.000000
vt 0.653595 0.000000
vt 0.797386 0.000000
vt 0.699346 0.000000
vt 0.647059 0.000000
vt 0.509804 0.000000
vt 0.790850 0.000000
vt 0.705882 0.000000
vt 0.640523 0.000000
vt 0.516340 0.000000
vt 0.712418 0.000000
vt 0.784314 0.000000
vt 0.633987 0.000000
vt 0.522876 0.000000
vt 0.718954 0.000000
vt 0.777778 0.000000
vt 0.627451 0.000000
vt 0.529412 0.000000
vt 0.725490 0.000000
vt 0.771242 0.000000
vt 0.535948 0.000000
vt 0.620915 0.000000
vt 0.732026 0.000000
vt 0.764706 0.000000
vt 0.542484 0.000000
vt 0.614379 0.000000
vt 0.738562 0.000000
vt 0.758170 0.000000
vt 0.549020 0.000000
vt 0.607843 0.000000
vt 0.745098 0.000000
vt 0.751634 0.000000
vt 0.555556 0.000000
vt 0.601307 0.000000
vt 0.562092 0.000000
vt 0.594771 0.000000
vt 0.568627 0.000000
vt 0.588235 0.000000
vt 0.575163 0.000000
vt 0.581699 0.000000
vt 0.843137 0.000000
vt 1.000000 0.000000
vt 0.836601 0.000000
vt 0.993464 0.000000
vt 0.986928 0.000000
vt 0.980392 0.000000
vt 0.973856 0.000000
vt 0.967320 0.000000
vt 0.849673 0.000000
vt 0.960784 0.000000
vt 0.856209 0.000000
vt 0.954248 0.000000
vt 0.862745 0.000000
vt 0.947712 0.000000
vt 0.869281 0.000000
vt 0.941176 0.000000
vt 0.875817 0.000000
vt 0.934641 0.000000
vt 0.882353 0.000000
vt 0.928105 0.000000
vt 0.888889 0.000000
vt 0.895425 0.000000
vt 0.901961 0.000000
vt 0.908497 0.000000
vt 0.915033 0.000000
vt 0.921569 0.000000
vt 0.333333 0.000000
vt 0.490196 0.000000
vt 0.326797 0.000000
vt 0.176471 0.000000
vt 0.163399 0.000000
vt 0.169935 0.000000
vt 0.483660 0.000000
vt 0.477124 0.000000
vt 0.470588 0.000000
vt 0.183007 0.000000
vt 0.464052 0.000000
vt 0.457516 0.000000
vt 0.450980 0.000000
vt 0.339869 0.000000
vt 0.346405 0.000000
vt 0.189542 0.000000
vt 0.444444 0.000000
vt 0.352941 0.000000
vt 0.156863 0.000000
vt 0.437909 0.000000
vt 0.359477 0.000000
vt 0.431373 0.000000
vt 0.366013 0.000000
vt 0.196078 0.000000
vt 0.424837 0.000000
vt 0.372549 0.000000
vt 0.150327 0.000000
vt 0.418301 0.000000
vt 0.379085 0.000000
vt 0.385621 0.000000
vt 0.392157 0.000000
vt 0.398693 0.000000
vt 0.405229 0.000000
vt 0.411765 0.000000
vt 0.202614 0.000000
vt 0.143791 0.000000
vt 0.209150 0.000000
vt 0.137255 0.000000
vt 0.215686 0.000000
vt 0.130719 0.000000
vt 0.222222 0.000000
vt 0.124183 0.000000
vt 0.228758 0.000000
vt 0.117647 0.000000
vt 0.235294 0.000000
vt 0.111111 0.000000
vt 0.241830 0.000000
vt 0.104575 0.000000
vt 0.248366 0.000000
vt 0.098039 0.000000
vt 0.254902 0.000000
vt 0.261438 0.000000
vt 0.091503 0.000000
vt 0.267974 0.000000
vt 0.274510 0.000000
vt 0.084967 0.000000
vt 0.281046 0.000000
vt 0.287582 0.000000
vt 0.294118 0.000000
vt 0.078431 0.000000
vt 0.300654 0.000000
vt 0.071895 0.000000
vt 0.307190 0.000000
vt 0.313726 0.000000
vt 0.065359 0.000000
vt 0.320261 0.000000
vt 0.000000 0.000000
vt 0.058824 0.000000
vt 0.006536 0.000000
vt 0.052288 0.000000
vt 0.045752 0.000000
vt 0.039216 0.000000
vt 0.032680 0.000000
vt 0.026144 0.000000
vt 0.019608 0.000000
vt 0.013072 0.000000
vt 0.013699 0.000000
vt 0.534247 0.000000
vt 0.506849 0.000000
vt 0.520548 0.000000
vt 0.986301 0.000000
vt 0.547945 0.000000
vt 0.972603 0.000000
vt 0.561644 0.000000
vt 0.958904 0.000000
vt 0.575342 0.000000
vt 0.945205 0.000000
vt 0.589041 0.000000
vt 0.931507 0.000000
vt 0.602740 0.000000
vt 0.917808 0.000000
vt 0.616438 0.000000
vt 0.904110 0.000000
vt 0.630137 0.000000
vt 0.890411 0.000000
vt 0.643836 0.000000
vt 0.876712 0.000000
vt 0.657534 0.000000
vt 0.863014 0.000000
vt 0.671233 0.000000
vt 0.849315 0.000000
vt 0.684932 0.000000
vt 0.835616 0.000000
vt 0.821918 0.000000
vt 0.808219 0.000000
vt 0.794521 0.000000
vt 0.780822 0.000000
vt 0.767123 0.000000
vt 0.753425 0.000000
vt 0.739726 0.000000
vt 0.726027 0.000000
vt 0.712329 0.000000
vt 0.698630 0.000000
vt 0.027397 0.000000
vt 0.041096 0.000000
vt 0.054795 0.000000
vt 0.068493 0.000000
vt 0.082192 0.000000
vt 0.095890 0.000000
vt 0.109589 0.000000
vt 0.123288 0.000000
vt 0.136986 0.000000
vt 0.150685 0.000000
vt 0.164384 0.000000
vt 0.178082 0.000000
vt 0.219178 0.000000
vt 0.232877 0.000000
vt 0.246575 0.000000
vt 0.260274 0.000000
vt 0.287671 0.000000
vt 0.328767 0.000000
vt 0.342466 0.000000
vt 0.356164 0.000000
vt 0.369863 0.000000
vt 0.383562 0.000000
vt 0.397260 0.000000
vt 0.410959 0.000000
vt 0.424658 0.000000
vt 0.438356 0.000000
vt 0.191781 0.000000
vt 0.205479 0.000000
vt 0.273973 0.000000
vt 0.301370 0.000000
vt 0.315068 0.000000
vt 0.452055 0.000000
vt 0.465753 0.000000
vt 0.479452 0.000000
vt 0.493151 0.000000
vt 0.612903 0.000000
vt 0.607527 0.000000
vt 0.817204 0.000000
vt 0.806452 0.000000
vt 0.811828 0.000000
vt 0.994624 0.000000
vt 0.822581 0.000000
vt 0.989247 0.000000
vt 0.827957 0.000000
vt 0.983871 0.000000
vt 0.833333 0.000000
vt 0.978495 0.000000
vt 0.838710 0.000000
vt 0.973118 0.000000
vt 0.844086 0.000000
vt 0.967742 0.000000
vt 0.849462 0.000000
vt 0.962366 0.000000
vt 0.854839 0.000000
vt 0.956989 0.000000
vt 0.860215 0.000000
vt 0.951613 0.000000
vt 0.865591 0.000000
vt 0.946237 0.000000
vt 0.870968 0.000000
vt 0.940860 0.000000
vt 0.876344 0.000000
vt 0.935484 0.000000
vt 0.930108 0.000000
vt 0.924731 0.000000
vt 0.919355 0.000000
vt 0.913979 0.000000
vt 0.908602 0.000000
vt 0.903226 0.000000
vt 0.897849 0.000000
vt 0.892473 0.000000
vt 0.887097 0.000000
vt 0.881720 0.000000
vt 0.618280 0.000000
vt 0.623656 0.000000
vt 0.629032 0.000000
vt 0.634409 0.000000
vt 0.639785 0.000000
vt 0.645161 0.000000
vt 0.650538 0.000000
vt 0.655914 0.000000
vt 0.661290 0.000000
vt 0.672043 0.000000
vt 0.677419 0.000000
vt 0.682796 0.000000
vt 0.688172 0.000000
vt 0.693548 0.000000
vt 0.698925 0.000000
vt 0.704301 0.000000
vt 0.709677 0.000000
vt 0.715054 0.000000
vt 0.720430 0.000000
vt 0.725806 0.000000
vt 0.731183 0.000000
vt 0.736559 0.000000
vt 0.741935 0.000000
vt 0.747312 0.000000
vt 0.752688 0.000000
vt 0.758065 0.000000
vt 0.763441 0.000000
vt 0.768817 0.000000
vt 0.774194 0.000000
vt 0.779570 0.000000
vt 0.784946 0.000000
vt 0.790323 0.000000
vt 0.795699 0.000000
vt 0.801075 0.000000
vt 0.005376 0.000000
vt 0.602151 0.000000
vt 0.419355 0.000000
vt 0.408602 0.000000
vt 0.413978 0.000000
vt 0.596774 0.000000
vt 0.424731 0.000000
vt 0.591398 0.000000
vt 0.430108 0.000000
vt 0.586021 0.000000
vt 0.435484 0.000000
vt 0.580645 0.000000
vt 0.440860 0.000000
vt 0.575269 0.000000
vt 0.446237 0.000000
vt 0.569892 0.000000
vt 0.451613 0.000000
vt 0.564516 0.000000
vt 0.456989 0.000000
vt 0.559140 0.000000
vt 0.462366 0.000000
vt 0.553763 0.000000
vt 0.467742 0.000000
vt 0.548387 0.000000
vt 0.473118 0.000000
vt 0.543011 0.000000
vt 0.478495 0.000000
vt 0.537634 0.000000
vt 0.532258 0.000000
vt 0.526882 0.000000
vt 0.521505 0.000000
vt 0.516129 0.000000
vt 0.510753 0.000000
vt 0.505376 0.000000
vt 0.500000 0.000000
vt 0.494624 0.000000
vt 0.489247 0.000000
vt 0.483871 0.000000
vt 0.010753 0.000000
vt 0.016129 0.000000
vt 0.021505 0.000000
vt 0.026882 0.000000
vt 0.032258 0.000000
vt 0.037634 0.000000
vt 0.043011 0.000000
vt 0.048387 0.000000
vt 0.053763 0.000000
vt 0.059140 0.000000
vt 0.064516 0.000000
vt 0.069892 0.000000
vt 0.075269 0.000000
vt 0.338710 0.000000
vt 0.344086 0.000000
vt 0.349462 0.000000
vt 0.354839 0.000000
vt 0.360215 0.000000
vt 0.365591 0.000000
vt 0.370968 0.000000
vt 0.376344 0.000000
vt 0.381720 0.000000
vt 0.387097 0.000000
vt 0.392473 0.000000
vt 0.397849 0.000000
vt 0.403226 0.000000
vt 0.080645 0.000000
vt 0.086022 0.000000
vt 0.327957 0.000000
vt 0.091398 0.000000
vt 0.322581 0.000000
vt 0.096774 0.000000
vt 0.317204 0.000000
vt 0.102151 0.000000
vt 0.311828 0.000000
vt 0.107527 0.000000
vt 0.306452 0.000000
vt 0.112903 0.000000
vt 0.301075 0.000000
vt 0.118280 0.000000
vt 0.295699 0.000000
vt 0.123656 0.000000
vt 0.129032 0.000000
vt 0.290323 0.000000
vt 0.134409 0.000000
vt 0.284946 0.000000
vt 0.139785 0.000000
vt 0.279570 0.000000
vt 0.145161 0.000000
vt 0.274194 0.000000
vt 0.150538 0.000000
vt 0.268817 0.000000
vt 0.155914 0.000000
vt 0.263441 0.000000
vt 0.161290 0.000000
vt 0.258065 0.000000
vt 0.166667 0.000000
vt 0.172043 0.000000
vt 0.252688 0.000000
vt 0.177419 0.000000
vt 0.247312 0.000000
vt 0.182796 0.000000
vt 0.241935 0.000000
vt 0.188172 0.000000
vt 0.193548 0.000000
vt 0.236559 0.000000
vt 0.198925 0.000000
vt 0.231183 0.000000
vt 0.204301 0.000000
vt 0.209677 0.000000
vt 0.225806 0.000000
vt 0.220430 0.000000
vt 0.215054 0.000000
vt 0.013605 0.000000
vt 0.006803 0.000000
vt 0.020408 0.000000
vt 0.258503 0.000000
vt 0.244898 0.000000
vt 0.251701 0.000000
vt 0.027211 0.000000
vt 0.238095 0.000000
vt 0.231293 0.000000
vt 0.034014 0.000000
vt 0.224490 0.000000
vt 0.040816 0.000000
vt 0.217687 0.000000
vt 0.210884 0.000000
vt 0.047619 0.000000
vt 0.204082 0.000000
vt 0.054422 0.000000
vt 0.197279 0.000000
vt 0.061224 0.000000
vt 0.190476 0.000000
vt 0.068027 0.000000
vt 0.183673 0.000000
vt 0.074830 0.000000
vt 0.176871 0.000000
vt 0.081633 0.000000
vt 0.170068 0.000000
vt 0.088435 0.000000
vt 0.163265 0.000000
vt 0.156463 0.000000
vt 0.149660 0.000000
vt 0.142857 0.000000
vt 0.136054 0.000000
vt 0.129252 0.000000
vt 0.122449 0.000000
vt 0.115646 0.000000
vt 0.108844 0.000000
vt 0.102041 0.000000
vt 0.095238 0.000000
vt 0.265306 0.000000
vt 0.993197 0.000000
vt 0.272109 0.000000
vt 0.986395 0.000000
vt 0.278912 0.000000
vt 0.979592 0.000000
vt 0.285714 0.000000
vt 0.292517 0.000000
vt 0.972789 0.000000
vt 0.299320 0.000000
vt 0.965986 0.000000
vt 0.306122 0.000000
vt 0.312925 0.000000
vt 0.959184 0.000000
vt 0.319728 0.000000
vt 0.952381 0.000000
vt 0.326531 0.000000
vt 0.945578 0.000000
vt 0.938776 0.000000
vt 0.931973 0.000000
vt 0.925170 0.000000
vt 0.340136 0.000000
vt 0.353741 0.000000
vt 0.360544 0.000000
vt 0.367347 0.000000
vt 0.374150 0.000000
vt 0.380952 0.000000
vt 0.387755 0.000000
vt 0.401361 0.000000
vt 0.408163 0.000000
vt 0.414966 0.000000
vt 0.421769 0.000000
vt 0.918367 0.000000
vt 0.346939 0.000000
vt 0.394558 0.000000
vt 0.428571 0.000000
vt 0.911565 0.000000
vt 0.435374 0.000000
vt 0.904762 0.000000
vt 0.442177 0.000000
vt 0.897959 0.000000
vt 0.448980 0.000000
vt 0.891156 0.000000
vt 0.455782 0.000000
vt 0.884354 0.000000
vt 0.462585 0.000000
vt 0.877551 0.000000
vt 0.469388 0.000000
vt 0.870748 0.000000
vt 0.476190 0.000000
vt 0.482993 0.000000
vt 0.863946 0.000000
vt 0.489796 0.000000
vt 0.857143 0.000000
vt 0.496599 0.000000
vt 0.850340 0.000000
vt 0.503401 0.000000
vt 0.843537 0.000000
vt 0.510204 0.000000
vt 0.836735 0.000000
vt 0.517007 0.000000
vt 0.829932 0.000000
vt 0.523810 0.000000
vt 0.673469 0.000000
vt 0.823129 0.000000
vt 0.680272 0.000000
vt 0.816327 0.000000
vt 0.530612 0.000000
vt 0.687075 0.000000
vt 0.659864 0.000000
vt 0.809524 0.000000
vt 0.537415 0.000000
vt 0.693878 0.000000
vt 0.653061 0.000000
vt 0.802721 0.000000
vt 0.544218 0.000000
vt 0.700680 0.000000
vt 0.646259 0.000000
vt 0.795918 0.000000
vt 0.551020 0.000000
vt 0.707483 0.000000
vt 0.639456 0.000000
vt 0.789116 0.000000
vt 0.557823 0.000000
vt 0.714286 0.000000
vt 0.632653 0.000000
vt 0.782313 0.000000
vt 0.564626 0.000000
vt 0.721088 0.000000
vt 0.625850 0.000000
vt 0.571429 0.000000
vt 0.775510 0.000000
vt 0.727891 0.000000
vt 0.619048 0.000000
vt 0.578231 0.000000
vt 0.768707 0.000000
vt 0.734694 0.000000
vt 0.585034 0.000000
vt 0.612245 0.000000
vt 0.761905 0.000000
vt 0.591837 0.000000
vt 0.741497 0.000000
vt 0.605442 0.000000
vt 0.748299 0.000000
vt 0.755102 0.000000
vt 0.598639 0.000000
s 0
f 104/1/1 128/2/1 103/3/1
f 104/1/1 127/4/1 128/2/1
f 104/1/1 126/5/1 127/4/1
f 105/6/1 126/5/1 104/1/1
f 105/6/1 125/7/1 126/5/1
f 106/8/1 125/7/1 105/6/1
f 106/8/1 124/9/1 125/7/1
f 107/10/1 124/9/1 106/8/1
f 78/11/1 102/12/1 77/13/1
f 78/11/1 101/14/1 102/12/1
f 107/10/1 123/15/1 124/9/1
f 108/16/1 123/15/1 107/10/1
f 78/11/1 100/17/1 101/14/1
f 79/18/1 100/17/1 78/11/1
f 108/16/1 122/19/1 123/15/1
f 109/20/1 122/19/1 108/16/1
f 79/18/1 99/21/1 100/17/1
f 80/22/1 99/21/1 79/18/1
f 110/23/1 122/19/1 109/20/1
f 110/23/1 121/24/1 122/19/1
f 80/22/1 98/25/1 99/21/1
f 81/26/1 98/25/1 80/22/1
f 111/27/1 121/24/1 110/23/1
f 111/27/1 120/28/1 121/24/1
f 81/26/1 97/29/1 98/25/1
f 82/30/1 97/29/1 81/26/1
f 112/31/1 120/28/1 111/27/1
f 112/31/1 119/32/1 120/28/1
f 83/33/1 97/29/1 82/30/1
f 83/33/1 96/34/1 97/29/1
f 113/35/1 119/32/1 112/31/1
f 113/35/1 118/36/1 119/32/1
f 84/37/1 96/34/1 83/33/1
f 84/37/1 95/38/1 96/34/1
f 114/39/1 118/36/1 113/35/1
f 114/39/1 117/40/1 118/36/1
f 85/41/1 95/38/1 84/37/1
f 85/41/1 94/42/1 95/38/1
f 115/43/1 117/40/1 114/39/1
f 115/43/1 116/44/1 117/40/1
f 86/45/1 94/42/1 85/41/1
f 86/45/1 93/46/1 94/42/1
f 87/47/1 93/46/1 86/45/1
f 87/47/1 92/48/1 93/46/1
f 88/49/1 92/48/1 87/47/1
f 88/49/1 91/50/1 92/48/1
f 89/51/1 91/50/1 88/49/1
f 89/51/1 90/52/1 91/50/1
f 130/53/1 154/54/1 129/55/1
f 130/53/1 153/56/1 154/54/1
f 130/53/1 152/57/1 153/56/1
f 130/53/1 151/58/1 152/57/1
f 130/53/1 150/59/1 151/58/1
f 130/53/1 149/60/1 150/59/1
f 131/61/1 149/60/1 130/53/1
f 131/61/1 148/62/1 149/60/1
f 132/63/1 148/62/1 131/61/1
f 132/63/1 147/64/1 148/62/1
f 133/65/1 147/64/1 132/63/1
f 133/65/1 146/66/1 147/64/1
f 134/67/1 146/66/1 133/65/1
f 134/67/1 145/68/1 146/66/1
f 135/69/1 145/68/1 134/67/1
f 135/69/1 144/70/1 145/68/1
f 136/71/1 144/70/1 135/69/1
f 136/71/1 143/72/1 144/70/1
f 137/73/1 143/72/1 136/71/1
f 137/73/1 138/74/1 143/72/1
f 138/74/1 139/75/1 143/72/1
f 139/75/1 140/76/1 143/72/1
f 140/76/1 141/77/1 143/72/1
f 141/77/1 142/78/1 143/72/1
f 52/79/1 76/80/1 51/81/1
f 28/82/1 26/83/1 27/84/1
f 52/79/1 75/85/1 76/80/1
f 52/79/1 74/86/1 75/85/1
f 52/79/1 73/87/1 74/86/1
f 29/88/1 26/83/1 28/82/1
f 52/79/1 72/89/1 73/87/1
f 52/79/1 71/90/1 72/89/1
f 52/79/1 70/91/1 71/90/1
f 53/92/1 70/91/1 52/79/1
f 54/93/1 70/91/1 53/92/1
f 30/94/1 26/83/1 29/88/1
f 54/93/1 69/95/1 70/91/1
f 55/96/1 69/95/1 54/93/1
f 30/94/1 25/97/1 26/83/1
f 55/96/1 68/98/1 69/95/1
f 56/99/1 68/98/1 55/96/1
f 56/99/1 67/100/1 68/98/1
f 57/101/1 67/100/1 56/99/1
f 31/102/1 25/97/1 30/94/1
f 57/101/1 66/103/1 67/100/1
f 58/104/1 66/103/1 57/101/1
f 31/102/1 24/105/1 25/97/1
f 58/104/1 65/106/1 66/103/1
f 59/107/1 65/106/1 58/104/1
f 59/107/1 60/108/1 65/106/1
f 60/108/1 61/109/1 65/106/1
f 61/109/1 62/110/1 65/106/1
f 62/110/1 63/111/1 65/106/1
f 63/111/1 64/112/1 65/106/1
f 32/113/1 24/105/1 31/102/1
f 32/113/1 23/114/1 24/105/1
f 33/115/1 23/114/1 32/113/1
f 33/115/1 22/116/1 23/114/1
f 34/117/1 22/116/1 33/115/1
f 34/117/1 21/118/1 22/116/1
f 35/119/1 21/118/1 34/117/1
f 35/119/1 20/120/1 21/118/1
f 36/121/1 20/120/1 35/119/1
f 36/121/1 19/122/1 20/120/1
f 37/123/1 19/122/1 36/121/1
f 37/123/1 18/124/1 19/122/1
f 38/125/1 18/124/1 37/123/1
f 38/125/1 17/126/1 18/124/1
f 39/127/1 17/126/1 38/125/1
f 39/127/1 16/128/1 17/126/1
f 40/129/1 16/128/1 39/127/1
f 41/130/1 16/128/1 40/129/1
f 41/130/1 15/131/1 16/128/1
f 42/132/1 15/131/1 41/130/1
f 43/133/1 15/131/1 42/132/1
f 43/133/1 14/134/1 15/131/1
f 44/135/1 14/134/1 43/133/1
f 45/136/1 14/134/1 44/135/1
f 46/137/1 14/134/1 45/136/1
f 46/137/1 13/138/1 14/134/1
f 47/139/1 13/138/1 46/137/1
f 47/139/1 12/140/1 13/138/1
f 48/141/1 12/140/1 47/139/1
f 49/142/1 12/140/1 48/141/1
f 49/142/1 11/143/1 12/140/1
f 50/144/1 11/143/1 49/142/1
f 1/145/1 11/143/1 50/144/1
f 1/145/1 10/146/1 11/143/1
f 2/147/1 10/146/1 1/145/1
f 2/147/1 9/148/1 10/146/1
f 2/147/1 8/149/1 9/148/1
f 2/147/1 7/150/1 8/149/1
f 2/147/1 6/151/1 7/150/1
f 2/147/1 5/152/1 6/151/1
f 2/147/1 4/153/1 5/152/1
f 2/147/1 3/154/1 4/153/1
f 156/155/1 228/54/1 155/145/1
f 194/156/1 192/157/1 193/158/1
f 156/155/1 227/159/1 228/54/1
f 195/160/1 192/157/1 194/156/1
f 156/155/1 226/161/1 227/159/1
f 196/162/1 192/157/1 195/160/1
f 156/155/1 225/163/1 226/161/1
f 197/164/1 192/157/1 196/162/1
f 156/155/1 224/165/1 225/163/1
f 198/166/1 192/157/1 197/164/1
f 156/155/1 223/167/1 224/165/1
f 199/168/1 192/157/1 198/166/1
f 156/155/1 222/169/1 223/167/1
f 200/170/1 192/157/1 199/168/1
f 156/155/1 221/171/1 222/169/1
f 201/172/1 192/157/1 200/170/1
f 156/155/1 220/173/1 221/171/1
f 202/174/1 192/157/1 201/172/1
f 156/155/1 219/175/1 220/173/1
f 203/176/1 192/157/1 202/174/1
f 156/155/1 218/177/1 219/175/1
f 204/178/1 192/157/1 203/176/1
f 156/155/1 217/179/1 218/177/1
f 205/180/1 192/157/1 204/178/1
f 156/155/1 216/181/1 217/179/1
f 156/155/1 215/182/1 216/181/1
f 156/155/1 214/183/1 215/182/1
f 156/155/1 213/184/1 214/183/1
f 156/155/1 212/185/1 213/184/1
f 156/155/1 211/186/1 212/185/1
f 156/155/1 210/187/1 211/186/1
f 156/155/1 209/188/1 210/187/1
f 156/155/1 208/189/1 209/188/1
f 156/155/1 207/190/1 208/189/1
f 156/155/1 206/191/1 207/190/1
f 156/155/1 205/180/1 206/191/1
f 156/155/1 157/192/1 205/180/1
f 157/192/1 158/193/1 205/180/1
f 158/193/1 159/194/1 205/180/1
f 159/194/1 160/195/1 205/180/1
f 160/195/1 161/196/1 205/180/1
f 161/196/1 162/197/1 205/180/1
f 162/197/1 163/198/1 205/180/1
f 163/198/1 164/199/1 205/180/1
f 164/199/1 165/200/1 205/180/1
f 165/200/1 166/201/1 205/180/1
f 166/201/1 167/202/1 205/180/1
f 167/202/1 168/203/1 205/180/1
f 168/203/1 171/204/1 205/180/1
f 171/204/1 172/205/1 205/180/1
f 172/205/1 173/206/1 205/180/1
f 173/206/1 174/207/1 205/180/1
f 174/207/1 176/208/1 205/180/1
f 176/208/1 179/209/1 205/180/1
f 179/209/1 180/210/1 205/180/1
f 180/210/1 181/211/1 205/180/1
f 181/211/1 182/212/1 205/180/1
f 182/212/1 183/213/1 205/180/1
f 183/213/1 184/214/1 205/180/1
f 184/214/1 185/215/1 205/180/1
f 185/215/1 186/216/1 205/180/1
f 186/216/1 187/217/1 205/180/1
f 187/217/1 192/157/1 205/180/1
f 169/218/1 171/204/1 168/203/1
f 170/219/1 171/204/1 169/218/1
f 175/220/1 176/208/1 174/207/1
f 177/221/1 179/209/1 176/208/1
f 178/222/1 179/209/1 177/221/1
f 188/223/1 192/157/1 187/217/1
f 189/224/1 192/157/1 188/223/1
f 190/225/1 192/157/1 189/224/1
f 191/226/1 192/157/1 190/225/1
f 343/227/1 415/54/1 342/228/1
f 381/229/1 379/230/1 380/231/1
f 343/227/1 414/232/1 415/54/1
f 382/233/1 379/230/1 381/229/1
f 343/227/1 413/234/1 414/232/1
f 383/235/1 379/230/1 382/233/1
f 343/227/1 412/236/1 413/234/1
f 384/237/1 379/230/1 383/235/1
f 343/227/1 411/238/1 412/236/1
f 385/239/1 379/230/1 384/237/1
f 343/227/1 410/240/1 411/238/1
f 386/241/1 379/230/1 385/239/1
f 343/227/1 409/242/1 410/240/1
f 387/243/1 379/230/1 386/241/1
f 343/227/1 408/244/1 409/242/1
f 388/245/1 379/230/1 387/243/1
f 343/227/1 407/246/1 408/244/1
f 389/247/1 379/230/1 388/245/1
f 343/227/1 406/248/1 407/246/1
f 390/249/1 379/230/1 389/247/1
f 343/227/1 405/250/1 406/248/1
f 391/251/1 379/230/1 390/249/1
f 343/227/1 404/252/1 405/250/1
f 392/253/1 379/230/1 391/251/1
f 343/227/1 403/254/1 404/252/1
f 343/227/1 402/255/1 403/254/1
f 343/227/1 401/256/1 402/255/1
f 343/227/1 400/257/1 401/256/1
f 343/227/1 399/258/1 400/257/1
f 343/227/1 398/259/1 399/258/1
f 343/227/1 397/260/1 398/259/1
f 343/227/1 396/261/1 397/260/1
f 343/227/1 395/262/1 396/261/1
f 343/227/1 394/263/1 395/262/1
f 343/227/1 393/264/1 394/263/1
f 343/227/1 392/253/1 393/264/1
f 343/227/1 344/265/1 392/253/1
f 344/265/1 345/266/1 392/253/1
f 345/266/1 346/267/1 392/253/1
f 346/267/1 347/268/1 392/253/1
f 347/268/1 348/269/1 392/253/1
f 348/269/1 349/270/1 392/253/1
f 349/270/1 350/271/1 392/253/1
f 350/271/1 351/272/1 392/253/1
f 351/272/1 352/273/1 392/253/1
f 352/273/1 353/3/1 392/253/1
f 353/3/1 354/274/1 392/253/1
f 354/274/1 355/275/1 392/253/1
f 355/275/1 356/276/1 392/253/1
f 356/276/1 357/277/1 392/253/1
f 357/277/1 358/278/1 392/253/1
f 358/278/1 359/279/1 392/253/1
f 359/279/1 360/280/1 392/253/1
f 360/280/1 361/281/1 392/253/1
f 361/281/1 362/282/1 392/253/1
f 362/282/1 363/283/1 392/253/1
f 363/283/1 364/284/1 392/253/1
f 364/284/1 365/285/1 392/253/1
f 365/285/1 366/286/1 392/253/1
f 366/286/1 367/287/1 392/253/1
f 367/287/1 368/288/1 392/253/1
f 368/288/1 369/289/1 392/253/1
f 369/289/1 370/290/1 392/253/1
f 370/290/1 371/291/1 392/253/1
f 371/291/1 372/292/1 392/253/1
f 372/292/1 373/293/1 392/253/1
f 373/293/1 374/294/1 392/253/1
f 374/294/1 375/295/1 392/253/1
f 375/295/1 376/296/1 392/253/1
f 376/296/1 377/297/1 392/253/1
f 377/297/1 378/298/1 392/253/1
f 378/298/1 379/230/1 392/253/1
f 230/299/1 341/300/1 229/145/1
f 307/301/1 305/302/1 306/303/1
f 230/299/1 340/304/1 341/300/1
f 308/305/1 305/302/1 307/301/1
f 230/299/1 339/306/1 340/304/1
f 309/307/1 305/302/1 308/305/1
f 230/299/1 338/308/1 339/306/1
f 310/309/1 305/302/1 309/307/1
f 230/299/1 337/310/1 338/308/1
f 311/311/1 305/302/1 310/309/1
f 230/299/1 336/312/1 337/310/1
f 312/313/1 305/302/1 311/311/1
f 230/299/1 335/314/1 336/312/1
f 313/315/1 305/302/1 312/313/1
f 230/299/1 334/316/1 335/314/1
f 314/317/1 305/302/1 313/315/1
f 230/299/1 333/318/1 334/316/1
f 315/319/1 305/302/1 314/317/1
f 230/299/1 332/320/1 333/318/1
f 316/321/1 305/302/1 315/319/1
f 230/299/1 331/322/1 332/320/1
f 317/323/1 305/302/1 316/321/1
f 230/299/1 330/324/1 331/322/1
f 318/325/1 305/302/1 317/323/1
f 230/299/1 329/326/1 330/324/1
f 230/299/1 328/327/1 329/326/1
f 230/299/1 327/328/1 328/327/1
f 230/299/1 326/329/1 327/328/1
f 230/299/1 325/330/1 326/329/1
f 230/299/1 324/331/1 325/330/1
f 230/299/1 323/332/1 324/331/1
f 230/299/1 322/333/1 323/332/1
f 230/299/1 321/334/1 322/333/1
f 230/299/1 320/335/1 321/334/1
f 230/299/1 319/336/1 320/335/1
f 230/299/1 318/325/1 319/336/1
f 230/299/1 231/337/1 318/325/1
f 231/337/1 232/338/1 318/325/1
f 232/338/1 233/339/1 318/325/1
f 233/339/1 234/340/1 318/325/1
f 234/340/1 235/341/1 318/325/1
f 235/341/1 236/342/1 318/325/1
f 236/342/1 237/343/1 318/325/1
f 237/343/1 238/344/1 318/325/1
f 238/344/1 239/345/1 318/325/1
f 239/345/1 240/346/1 318/325/1
f 240/346/1 241/347/1 318/325/1
f 241/347/1 242/348/1 318/325/1
f 242/348/1 243/349/1 318/325/1
f 243/349/1 292/350/1 318/325/1
f 292/350/1 293/351/1 318/325/1
f 293/351/1 294/352/1 318/325/1
f 294/352/1 295/353/1 318/325/1
f 295/353/1 296/354/1 318/325/1
f 296/354/1 297/355/1 318/325/1
f 297/355/1 298/356/1 318/325/1
f 298/356/1 299/357/1 318/325/1
f 299/357/1 300/358/1 318/325/1
f 300/358/1 301/359/1 318/325/1
f 301/359/1 302/360/1 318/325/1
f 302/360/1 303/361/1 318/325/1
f 303/361/1 304/362/1 318/325/1
f 304/362/1 305/302/1 318/325/1
f 244/363/1 292/350/1 243/349/1
f 244/363/1 291/79/1 292/350/1
f 245/364/1 291/79/1 244/363/1
f 245/364/1 290/365/1 291/79/1
f 246/366/1 290/365/1 245/364/1
f 246/366/1 289/367/1 290/365/1
f 247/368/1 289/367/1 246/366/1
f 247/368/1 288/369/1 289/367/1
f 248/370/1 288/369/1 247/368/1
f 248/370/1 287/371/1 288/369/1
f 249/372/1 287/371/1 248/370/1
f 249/372/1 286/373/1 287/371/1
f 250/374/1 286/373/1 249/372/1
f 250/374/1 285/375/1 286/373/1
f 251/376/1 285/375/1 250/374/1
f 251/376/1 284/377/1 285/375/1
f 252/378/1 284/377/1 251/376/1
f 253/379/1 284/377/1 252/378/1
f 253/379/1 283/380/1 284/377/1
f 254/381/1 283/380/1 253/379/1
f 254/381/1 282/382/1 283/380/1
f 255/383/1 282/382/1 254/381/1
f 255/383/1 281/384/1 282/382/1
f 256/385/1 281/384/1 255/383/1
f 256/385/1 280/386/1 281/384/1
f 257/387/1 280/386/1 256/385/1
f 257/387/1 279/388/1 280/386/1
f 258/389/1 279/388/1 257/387/1
f 258/389/1 278/390/1 279/388/1
f 259/391/1 278/390/1 258/389/1
f 259/391/1 277/392/1 278/390/1
f 260/393/1 277/392/1 259/391/1
f 261/394/1 277/392/1 260/393/1
f 261/394/1 276/395/1 277/392/1
f 262/396/1 276/395/1 261/394/1
f 262/396/1 275/397/1 276/395/1
f 263/398/1 275/397/1 262/396/1
f 263/398/1 274/399/1 275/397/1
f 264/400/1 274/399/1 263/398/1
f 265/401/1 274/399/1 264/400/1
f 265/401/1 273/402/1 274/399/1
f 266/403/1 273/402/1 265/401/1
f 266/403/1 272/404/1 273/402/1
f 267/405/1 272/404/1 266/403/1
f 268/406/1 272/404/1 267/405/1
f 268/406/1 271/407/1 272/404/1
f 268/406/1 270/408/1 271/407/1
f 268/406/1 269/409/1 270/408/1
f 418/410/1 416/145/1 417/411/1
f 419/412/1 416/145/1 418/410/1
f 454/413/1 452/414/1 453/415/1
f 420/416/1 416/145/1 419/412/1
f 454/413/1 451/417/1 452/414/1
f 454/413/1 450/418/1 451/417/1
f 421/419/1 416/145/1 420/416/1
f 454/413/1 449/420/1 450/418/1
f 422/421/1 416/145/1 421/419/1
f 454/413/1 448/422/1 449/420/1
f 454/413/1 447/423/1 448/422/1
f 423/424/1 416/145/1 422/421/1
f 454/413/1 446/425/1 447/423/1
f 424/426/1 416/145/1 423/424/1
f 454/413/1 445/427/1 446/425/1
f 425/428/1 416/145/1 424/426/1
f 454/413/1 444/429/1 445/427/1
f 426/430/1 416/145/1 425/428/1
f 454/413/1 443/431/1 444/429/1
f 427/432/1 416/145/1 426/430/1
f 454/413/1 442/433/1 443/431/1
f 428/434/1 416/145/1 427/432/1
f 454/413/1 441/435/1 442/433/1
f 429/436/1 416/145/1 428/434/1
f 454/413/1 440/437/1 441/435/1
f 454/413/1 439/438/1 440/437/1
f 454/413/1 438/439/1 439/438/1
f 454/413/1 437/440/1 438/439/1
f 454/413/1 436/441/1 437/440/1
f 454/413/1 435/442/1 436/441/1
f 454/413/1 434/443/1 435/442/1
f 454/413/1 433/444/1 434/443/1
f 454/413/1 432/445/1 433/444/1
f 454/413/1 431/446/1 432/445/1
f 454/413/1 430/447/1 431/446/1
f 454/413/1 429/436/1 430/447/1
f 454/413/1 416/145/1 429/436/1
f 454/413/1 455/448/1 416/145/1
f 455/448/1 563/54/1 416/145/1
f 455/448/1 562/449/1 563/54/1
f 455/448/1 456/450/1 562/449/1
f 456/450/1 561/451/1 562/449/1
f 456/450/1 457/452/1 561/451/1
f 457/452/1 560/453/1 561/451/1
f 457/452/1 458/454/1 560/453/1
f 458/454/1 459/455/1 560/453/1
f 459/455/1 559/456/1 560/453/1
f 459/455/1 460/457/1 559/456/1
f 460/457/1 558/458/1 559/456/1
f 460/457/1 461/459/1 558/458/1
f 461/459/1 462/460/1 558/458/1
f 462/460/1 557/461/1 558/458/1
f 462/460/1 463/462/1 557/461/1
f 463/462/1 556/463/1 557/461/1
f 463/462/1 464/464/1 556/463/1
f 464/464/1 555/465/1 556/463/1
f 464/464/1 554/466/1 555/465/1
f 464/464/1 465/79/1 554/466/1
f 465/79/1 553/467/1 554/466/1
f 465/79/1 552/468/1 553/467/1
f 465/79/1 466/469/1 552/468/1
f 466/469/1 468/470/1 552/468/1
f 468/470/1 469/471/1 552/468/1
f 469/471/1 470/472/1 552/468/1
f 470/472/1 471/473/1 552/468/1
f 471/473/1 472/474/1 552/468/1
f 472/474/1 473/475/1 552/468/1
f 473/475/1 475/476/1 552/468/1
f 475/476/1 476/477/1 552/468/1
f 476/477/1 477/478/1 552/468/1
f 477/478/1 478/479/1 552/468/1
f 478/479/1 551/480/1 552/468/1
f 467/481/1 468/470/1 466/469/1
f 474/482/1 475/476/1 473/475/1
f 479/483/1 551/480/1 478/479/1
f 479/483/1 550/484/1 551/480/1
f 480/485/1 550/484/1 479/483/1
f 480/485/1 549/486/1 550/484/1
f 481/487/1 549/486/1 480/485/1
f 481/487/1 548/488/1 549/486/1
f 482/489/1 548/488/1 481/487/1
f 482/489/1 547/490/1 548/488/1
f 483/491/1 547/490/1 482/489/1
f 483/491/1 546/492/1 547/490/1
f 484/493/1 546/492/1 483/491/1
f 484/493/1 545/494/1 546/492/1
f 485/495/1 545/494/1 484/493/1
f 485/495/1 544/496/1 545/494/1
f 486/497/1 544/496/1 485/495/1
f 487/498/1 544/496/1 486/497/1
f 487/498/1 543/499/1 544/496/1
f 488/500/1 543/499/1 487/498/1
f 488/500/1 542/501/1 543/499/1
f 489/502/1 542/501/1 488/500/1
f 489/502/1 541/503/1 542/501/1
f 490/504/1 541/503/1 489/502/1
f 490/504/1 540/505/1 541/503/1
f 491/506/1 540/505/1 490/504/1
f 491/506/1 539/507/1 540/505/1
f 492/508/1 539/507/1 491/506/1
f 492/508/1 538/509/1 539/507/1
f 493/510/1 538/509/1 492/508/1
f 493/510/1 515/511/1 538/509/1
f 515/511/1 537/512/1 538/509/1
f 493/510/1 514/3/1 515/511/1
f 516/513/1 537/512/1 515/511/1
f 516/513/1 536/514/1 537/512/1
f 494/515/1 514/3/1 493/510/1
f 517/516/1 536/514/1 516/513/1
f 494/515/1 513/517/1 514/3/1
f 517/516/1 535/518/1 536/514/1
f 495/519/1 513/517/1 494/515/1
f 518/520/1 535/518/1 517/516/1
f 495/519/1 512/521/1 513/517/1
f 518/520/1 534/522/1 535/518/1
f 496/523/1 512/521/1 495/519/1
f 519/524/1 534/522/1 518/520/1
f 496/523/1 511/525/1 512/521/1
f 519/524/1 533/526/1 534/522/1
f 497/527/1 511/525/1 496/523/1
f 520/528/1 533/526/1 519/524/1
f 497/527/1 510/529/1 511/525/1
f 520/528/1 532/530/1 533/526/1
f 498/531/1 510/529/1 497/527/1
f 521/532/1 532/530/1 520/528/1
f 498/531/1 509/533/1 510/529/1
f 521/532/1 531/534/1 532/530/1
f 499/535/1 509/533/1 498/531/1
f 522/536/1 531/534/1 521/532/1
f 499/535/1 508/537/1 509/533/1
f 500/538/1 508/537/1 499/535/1
f 522/536/1 530/539/1 531/534/1
f 523/540/1 530/539/1 522/536/1
f 500/538/1 507/541/1 508/537/1
f 501/542/1 507/541/1 500/538/1
f 523/540/1 529/543/1 530/539/1
f 524/544/1 529/543/1 523/540/1
f 502/545/1 507/541/1 501/542/1
f 502/545/1 506/546/1 507/541/1
f 524/544/1 528/547/1 529/543/1
f 503/548/1 506/546/1 502/545/1
f 525/549/1 528/547/1 524/544/1
f 503/548/1 505/550/1 506/546/1
f 525/549/1 526/551/1 528/547/1
f 526/551/1 527/552/1 528/547/1
f 503/548/1 504/553/1 505/550/1
