{
	"asset":{
		"generator":"Khronos glTF Blender I/O v4.3.47",
		"version":"2.0"
	},
	"scene":0,
	"scenes":[
		{
			"name":"Scene",
			"nodes":[
				2
			]
		}
	],
	"nodes":[
		{
			"name":"\u30dc\u30fc\u30f3",
			"rotation":[
				-7.450580596923828e-09,
				-9.313225746154785e-10,
				3.725290298461914e-09,
				1
			],
			"translation":[
				0.0014623235911130905,
				-1.8928368091583252,
				0.005938678979873657
			]
		},
		{
			"mesh":0,
			"name":"\u7403.018",
			"skin":0
		},
		{
			"children":[
				1,
				0
			],
			"name":"\u30a2\u30fc\u30de\u30c1\u30e5\u30a2.001",
			"rotation":[
				0.0869080051779747,
				0.018625153228640556,
				-0.10273733735084534,
				0.9907296299934387
			],
			"translation":[
				-1.1811739206314087,
				2.4648163318634033,
				0.0059386491775512695
			]
		}
	],
	"animations":[
		{
			"channels":[
				{
					"sampler":0,
					"target":{
						"node":0,
						"path":"translation"
					}
				},
				{
					"sampler":1,
					"target":{
						"node":0,
						"path":"rotation"
					}
				},
				{
					"sampler":2,
					"target":{
						"node":0,
						"path":"scale"
					}
				},
				{
					"sampler":3,
					"target":{
						"node":2,
						"path":"translation"
					}
				},
				{
					"sampler":4,
					"target":{
						"node":2,
						"path":"rotation"
					}
				},
				{
					"sampler":5,
					"target":{
						"node":2,
						"path":"scale"
					}
				}
			],
			"name":"\u30a2\u30fc\u30de\u30c1\u30e5\u30a2.001\u30a2\u30af\u30b7\u30e7\u30f3",
			"samplers":[
				{
					"input":7,
					"interpolation":"LINEAR",
					"output":8
				},
				{
					"input":7,
					"interpolation":"LINEAR",
					"output":9
				},
				{
					"input":10,
					"interpolation":"STEP",
					"output":11
				},
				{
					"input":10,
					"interpolation":"STEP",
					"output":12
				},
				{
					"input":10,
					"interpolation":"STEP",
					"output":13
				},
				{
					"input":10,
					"interpolation":"STEP",
					"output":14
				}
			]
		},
		{
			"channels":[
				{
					"sampler":0,
					"target":{
						"node":0,
						"path":"translation"
					}
				},
				{
					"sampler":1,
					"target":{
						"node":0,
						"path":"rotation"
					}
				},
				{
					"sampler":2,
					"target":{
						"node":0,
						"path":"scale"
					}
				}
			],
			"name":"\u30a2\u30fc\u30de\u30c1\u30e5\u30a2\u30a2\u30af\u30b7\u30e7\u30f3",
			"samplers":[
				{
					"input":10,
					"interpolation":"STEP",
					"output":15
				},
				{
					"input":10,
					"interpolation":"STEP",
					"output":16
				},
				{
					"input":10,
					"interpolation":"STEP",
					"output":17
				}
			]
		}
	],
	"materials":[
		{
			"doubleSided":true,
			"name":"\u30de\u30c6\u30ea\u30a2\u30eb.001",
			"pbrMetallicRoughness":{
				"baseColorTexture":{
					"index":0
				},
				"metallicFactor":0,
				"roughnessFactor":0.5
			}
		}
	],
	"meshes":[
		{
			"name":"\u7403.018",
			"primitives":[
				{
					"attributes":{
						"POSITION":0,
						"NORMAL":1,
						"TEXCOORD_0":2,
						"JOINTS_0":3,
						"WEIGHTS_0":4
					},
					"indices":5,
					"material":0
				}
			]
		}
	],
	"textures":[
		{
			"sampler":0,
			"source":0
		}
	],
	"images":[
		{
			"mimeType":"image/png",
			"name":"goal",
			"uri":"game/goal.png"
		}
	],
	"skins":[
		{
			"inverseBindMatrices":6,
			"joints":[
				0
			],
			"name":"\u30a2\u30fc\u30de\u30c1\u30e5\u30a2.001"
		}
	],
	"accessors":[
		{
			"bufferView":0,
			"componentType":5126,
			"count":1627,
			"max":[
				-0.5505968928337097,
				2.1225202083587646,
				0.5622618794441223
			],
			"min":[
				-2.2375335693359375,
				0.44099387526512146,
				-0.9954367280006409
			],
			"type":"VEC3"
		},
		{
			"bufferView":1,
			"componentType":5126,
			"count":1627,
			"type":"VEC3"
		},
		{
			"bufferView":2,
			"componentType":5126,
			"count":1627,
			"type":"VEC2"
		},
		{
			"bufferView":3,
			"componentType":5121,
			"count":1627,
			"type":"VEC4"
		},
		{
			"bufferView":4,
			"componentType":5126,
			"count":1627,
			"type":"VEC4"
		},
		{
			"bufferView":5,
			"componentType":5123,
			"count":6996,
			"type":"SCALAR"
		},
		{
			"bufferView":6,
			"componentType":5126,
			"count":1,
			"type":"MAT4"
		},
		{
			"bufferView":7,
			"componentType":5126,
			"count":60,
			"max":[
				2.5
			],
			"min":[
				0.041666666666666664
			],
			"type":"SCALAR"
		},
		{
			"bufferView":8,
			"componentType":5126,
			"count":60,
			"type":"VEC3"
		},
		{
			"bufferView":9,
			"componentType":5126,
			"count":60,
			"type":"VEC4"
		},
		{
			"bufferView":10,
			"componentType":5126,
			"count":2,
			"max":[
				2.5
			],
			"min":[
				0.041666666666666664
			],
			"type":"SCALAR"
		},
		{
			"bufferView":11,
			"componentType":5126,
			"count":2,
			"type":"VEC3"
		},
		{
			"bufferView":12,
			"componentType":5126,
			"count":2,
			"type":"VEC3"
		},
		{
			"bufferView":13,
			"componentType":5126,
			"count":2,
			"type":"VEC4"
		},
		{
			"bufferView":14,
			"componentType":5126,
			"count":2,
			"type":"VEC3"
		},
		{
			"bufferView":15,
			"componentType":5126,
			"count":2,
			"type":"VEC3"
		},
		{
			"bufferView":16,
			"componentType":5126,
			"count":2,
			"type":"VEC4"
		},
		{
			"bufferView":17,
			"componentType":5126,
			"count":2,
			"type":"VEC3"
		}
	],
	"bufferViews":[
		{
			"buffer":0,
			"byteLength":19524,
			"byteOffset":0,
			"target":34962
		},
		{
			"buffer":0,
			"byteLength":19524,
			"byteOffset":19524,
			"target":34962
		},
		{
			"buffer":0,
			"byteLength":13016,
			"byteOffset":39048,
			"target":34962
		},
		{
			"buffer":0,
			"byteLength":6508,
			"byteOffset":52064,
			"target":34962
		},
		{
			"buffer":0,
			"byteLength":26032,
			"byteOffset":58572,
			"target":34962
		},
		{
			"buffer":0,
			"byteLength":13992,
			"byteOffset":84604,
			"target":34963
		},
		{
			"buffer":0,
			"byteLength":64,
			"byteOffset":98596
		},
		{
			"buffer":0,
			"byteLength":240,
			"byteOffset":98660
		},
		{
			"buffer":0,
			"byteLength":720,
			"byteOffset":98900
		},
		{
			"buffer":0,
			"byteLength":960,
			"byteOffset":99620
		},
		{
			"buffer":0,
			"byteLength":8,
			"byteOffset":100580
		},
		{
			"buffer":0,
			"byteLength":24,
			"byteOffset":100588
		},
		{
			"buffer":0,
			"byteLength":24,
			"byteOffset":100612
		},
		{
			"buffer":0,
			"byteLength":32,
			"byteOffset":100636
		},
		{
			"buffer":0,
			"byteLength":24,
			"byteOffset":100668
		},
		{
			"buffer":0,
			"byteLength":24,
			"byteOffset":100692
		},
		{
			"buffer":0,
			"byteLength":32,
			"byteOffset":100716
		},
		{
			"buffer":0,
			"byteLength":24,
			"byteOffset":100748
		}
	],
	"samplers":[
		{
			"magFilter":9729,
			"minFilter":9987
		}
	],
	"buffers":[
		{
			"byteLength":100772,
			"uri":"goalClearAfter2.bin"
		}
	]
}
