{
	"asset":{
		"generator":"Khronos glTF Blender I/O v4.3.47",
		"version":"2.0"
	},
	"scene":0,
	"scenes":[
		{
			"name":"Scene",
			"nodes":[
				2
			]
		}
	],
	"nodes":[
		{
			"name":"\u30dc\u30fc\u30f3",
			"translation":[
				0.0014622807502746582,
				-1.892836570739746,
				0.0059386491775512695
			]
		},
		{
			"mesh":0,
			"name":"\u7403.018",
			"skin":0
		},
		{
			"children":[
				1,
				0
			],
			"name":"\u30a2\u30fc\u30de\u30c1\u30e5\u30a2.001",
			"translation":[
				0.0014622807502746582,
				0.1100163459777832,
				0.0059386491775512695
			]
		}
	],
	"animations":[
		{
			"channels":[
				{
					"sampler":0,
					"target":{
						"node":0,
						"path":"translation"
					}
				},
				{
					"sampler":1,
					"target":{
						"node":0,
						"path":"rotation"
					}
				},
				{
					"sampler":2,
					"target":{
						"node":0,
						"path":"scale"
					}
				},
				{
					"sampler":3,
					"target":{
						"node":2,
						"path":"translation"
					}
				},
				{
					"sampler":4,
					"target":{
						"node":2,
						"path":"rotation"
					}
				},
				{
					"sampler":5,
					"target":{
						"node":2,
						"path":"scale"
					}
				}
			],
			"name":"\u30a2\u30fc\u30de\u30c1\u30e5\u30a2.001\u30a2\u30af\u30b7\u30e7\u30f3",
			"samplers":[
				{
					"input":7,
					"interpolation":"STEP",
					"output":8
				},
				{
					"input":7,
					"interpolation":"STEP",
					"output":9
				},
				{
					"input":7,
					"interpolation":"STEP",
					"output":10
				},
				{
					"input":11,
					"interpolation":"LINEAR",
					"output":12
				},
				{
					"input":11,
					"interpolation":"LINEAR",
					"output":13
				},
				{
					"input":7,
					"interpolation":"STEP",
					"output":14
				}
			]
		},
		{
			"channels":[
				{
					"sampler":0,
					"target":{
						"node":0,
						"path":"translation"
					}
				},
				{
					"sampler":1,
					"target":{
						"node":0,
						"path":"rotation"
					}
				},
				{
					"sampler":2,
					"target":{
						"node":0,
						"path":"scale"
					}
				}
			],
			"name":"\u30a2\u30fc\u30de\u30c1\u30e5\u30a2\u30a2\u30af\u30b7\u30e7\u30f3",
			"samplers":[
				{
					"input":15,
					"interpolation":"LINEAR",
					"output":16
				},
				{
					"input":15,
					"interpolation":"LINEAR",
					"output":17
				},
				{
					"input":18,
					"interpolation":"STEP",
					"output":19
				}
			]
		}
	],
	"materials":[
		{
			"doubleSided":true,
			"name":"\u30de\u30c6\u30ea\u30a2\u30eb.001",
			"pbrMetallicRoughness":{
				"baseColorTexture":{
					"index":0
				},
				"metallicFactor":0,
				"roughnessFactor":0.5
			}
		}
	],
	"meshes":[
		{
			"name":"\u7403.018",
			"primitives":[
				{
					"attributes":{
						"POSITION":0,
						"NORMAL":1,
						"TEXCOORD_0":2,
						"JOINTS_0":3,
						"WEIGHTS_0":4
					},
					"indices":5,
					"material":0
				}
			]
		}
	],
	"textures":[
		{
			"sampler":0,
			"source":0
		}
	],
	"images":[
		{
			"mimeType":"image/png",
			"name":"goal",
			"uri":"game/goal.png"
		}
	],
	"skins":[
		{
			"inverseBindMatrices":6,
			"joints":[
				0
			],
			"name":"\u30a2\u30fc\u30de\u30c1\u30e5\u30a2.001"
		}
	],
	"accessors":[
		{
			"bufferView":0,
			"componentType":5126,
			"count":1627,
			"max":[
				0.7998915314674377,
				-0.17712640762329102,
				0.7942070960998535
			],
			"min":[
				-0.7868061661720276,
				-1.8715842962265015,
				-0.782329797744751
			],
			"type":"VEC3"
		},
		{
			"bufferView":1,
			"componentType":5126,
			"count":1627,
			"type":"VEC3"
		},
		{
			"bufferView":2,
			"componentType":5126,
			"count":1627,
			"type":"VEC2"
		},
		{
			"bufferView":3,
			"componentType":5121,
			"count":1627,
			"type":"VEC4"
		},
		{
			"bufferView":4,
			"componentType":5126,
			"count":1627,
			"type":"VEC4"
		},
		{
			"bufferView":5,
			"componentType":5123,
			"count":6996,
			"type":"SCALAR"
		},
		{
			"bufferView":6,
			"componentType":5126,
			"count":1,
			"type":"MAT4"
		},
		{
			"bufferView":7,
			"componentType":5126,
			"count":2,
			"max":[
				3.3333333333333335
			],
			"min":[
				2.5
			],
			"type":"SCALAR"
		},
		{
			"bufferView":8,
			"componentType":5126,
			"count":2,
			"type":"VEC3"
		},
		{
			"bufferView":9,
			"componentType":5126,
			"count":2,
			"type":"VEC4"
		},
		{
			"bufferView":10,
			"componentType":5126,
			"count":2,
			"type":"VEC3"
		},
		{
			"bufferView":11,
			"componentType":5126,
			"count":21,
			"max":[
				3.3333333333333335
			],
			"min":[
				2.5
			],
			"type":"SCALAR"
		},
		{
			"bufferView":12,
			"componentType":5126,
			"count":21,
			"type":"VEC3"
		},
		{
			"bufferView":13,
			"componentType":5126,
			"count":21,
			"type":"VEC4"
		},
		{
			"bufferView":14,
			"componentType":5126,
			"count":2,
			"type":"VEC3"
		},
		{
			"bufferView":15,
			"componentType":5126,
			"count":80,
			"max":[
				3.3333333333333335
			],
			"min":[
				0.041666666666666664
			],
			"type":"SCALAR"
		},
		{
			"bufferView":16,
			"componentType":5126,
			"count":80,
			"type":"VEC3"
		},
		{
			"bufferView":17,
			"componentType":5126,
			"count":80,
			"type":"VEC4"
		},
		{
			"bufferView":18,
			"componentType":5126,
			"count":2,
			"max":[
				3.3333333333333335
			],
			"min":[
				0.041666666666666664
			],
			"type":"SCALAR"
		},
		{
			"bufferView":19,
			"componentType":5126,
			"count":2,
			"type":"VEC3"
		}
	],
	"bufferViews":[
		{
			"buffer":0,
			"byteLength":19524,
			"byteOffset":0,
			"target":34962
		},
		{
			"buffer":0,
			"byteLength":19524,
			"byteOffset":19524,
			"target":34962
		},
		{
			"buffer":0,
			"byteLength":13016,
			"byteOffset":39048,
			"target":34962
		},
		{
			"buffer":0,
			"byteLength":6508,
			"byteOffset":52064,
			"target":34962
		},
		{
			"buffer":0,
			"byteLength":26032,
			"byteOffset":58572,
			"target":34962
		},
		{
			"buffer":0,
			"byteLength":13992,
			"byteOffset":84604,
			"target":34963
		},
		{
			"buffer":0,
			"byteLength":64,
			"byteOffset":98596
		},
		{
			"buffer":0,
			"byteLength":8,
			"byteOffset":98660
		},
		{
			"buffer":0,
			"byteLength":24,
			"byteOffset":98668
		},
		{
			"buffer":0,
			"byteLength":32,
			"byteOffset":98692
		},
		{
			"buffer":0,
			"byteLength":24,
			"byteOffset":98724
		},
		{
			"buffer":0,
			"byteLength":84,
			"byteOffset":98748
		},
		{
			"buffer":0,
			"byteLength":252,
			"byteOffset":98832
		},
		{
			"buffer":0,
			"byteLength":336,
			"byteOffset":99084
		},
		{
			"buffer":0,
			"byteLength":24,
			"byteOffset":99420
		},
		{
			"buffer":0,
			"byteLength":320,
			"byteOffset":99444
		},
		{
			"buffer":0,
			"byteLength":960,
			"byteOffset":99764
		},
		{
			"buffer":0,
			"byteLength":1280,
			"byteOffset":100724
		},
		{
			"buffer":0,
			"byteLength":8,
			"byteOffset":102004
		},
		{
			"buffer":0,
			"byteLength":24,
			"byteOffset":102012
		}
	],
	"samplers":[
		{
			"magFilter":9729,
			"minFilter":9987
		}
	],
	"buffers":[
		{
			"byteLength":102036,
			"uri":"goalClear.bin"
		}
	]
}
