{
	"asset":{
		"generator":"Khronos glTF Blender I/O v4.3.47",
		"version":"2.0"
	},
	"scene":0,
	"scenes":[
		{
			"name":"Scene",
			"nodes":[
				14
			]
		}
	],
	"nodes":[
		{
			"name":"\u30dc\u30fc\u30f3.003",
			"rotation":[
				-0.03663153946399689,
				0.015886632725596428,
				0.5638318657875061,
				0.8249238729476929
			],
			"scale":[
				0.9999999403953552,
				1,
				0.9999998807907104
			],
			"translation":[
				-1.817474624456612e-18,
				1.1720139980316162,
				-2.0405188649874617e-10
			]
		},
		{
			"name":"\u30dc\u30fc\u30f3.004",
			"rotation":[
				-0.03698807582259178,
				-0.01560702919960022,
				-0.5588558912277222,
				0.8282924890518188
			],
			"scale":[
				0.9999999403953552,
				1.0000001192092896,
				0.9999999403953552
			],
			"translation":[
				-1.817474624456612e-18,
				1.1720139980316162,
				-2.0405188649874617e-10
			]
		},
		{
			"children":[
				0,
				1
			],
			"name":"\u30dc\u30fc\u30f3.002",
			"rotation":[
				0.07188662886619568,
				-7.997604314913254e-13,
				4.575394230155183e-11,
				0.9974128007888794
			],
			"translation":[
				6.589704571401643e-18,
				0.6670905351638794,
				-1.862645149230957e-09
			]
		},
		{
			"name":"\u30dc\u30fc\u30f3.006",
			"rotation":[
				0.005442305933684111,
				-0.00040853905375115573,
				-0.1529868245124817,
				0.9882131814956665
			],
			"scale":[
				0.9999999403953552,
				1.0000001192092896,
				1
			],
			"translation":[
				-8.847564458847046e-09,
				0.5320883989334106,
				-1.3969838619232178e-09
			]
		},
		{
			"children":[
				3
			],
			"name":"\u30dc\u30fc\u30f3.005",
			"rotation":[
				-0.006439328659325838,
				-3.050822670047637e-05,
				0.8025645017623901,
				0.5965306162834167
			],
			"scale":[
				0.9999998211860657,
				0.9999998807907104,
				1
			],
			"translation":[
				6.589704571401643e-18,
				0.6670905351638794,
				-1.862645149230957e-09
			]
		},
		{
			"name":"\u30dc\u30fc\u30f3.009",
			"rotation":[
				0.005088664125651121,
				0.00036986637860536575,
				0.14522811770439148,
				0.9893850684165955
			],
			"scale":[
				0.9999998807907104,
				1,
				0.9999999403953552
			],
			"translation":[
				8.847564458847046e-09,
				0.5615454912185669,
				-2.7939677238464355e-09
			]
		},
		{
			"children":[
				5
			],
			"name":"\u30dc\u30fc\u30f3.008",
			"rotation":[
				-0.006041015964001417,
				2.6589801564114168e-05,
				-0.7978427410125732,
				0.6028353571891785
			],
			"scale":[
				1,
				1,
				0.9999999403953552
			],
			"translation":[
				6.589704571401643e-18,
				0.6670905351638794,
				-1.862645149230957e-09
			]
		},
		{
			"children":[
				2,
				4,
				6
			],
			"name":"\u30dc\u30fc\u30f3.001",
			"rotation":[
				0.08343198150396347,
				-1.1879475181331145e-07,
				9.999130412552404e-09,
				0.9965134859085083
			],
			"scale":[
				1,
				0.9999999403953552,
				0.9999999403953552
			],
			"translation":[
				-4.440892098500626e-15,
				0.6178391575813293,
				7.450580596923828e-09
			]
		},
		{
			"name":"\u30dc\u30fc\u30f3.013",
			"rotation":[
				-0.49717485904693604,
				0.0076541053131222725,
				0.023741470649838448,
				0.8672917485237122
			],
			"scale":[
				0.9999999403953552,
				0.9999999403953552,
				1
			],
			"translation":[
				-7.744915819785092e-12,
				0.3488460183143616,
				-1.2844854069271605e-08
			]
		},
		{
			"children":[
				8
			],
			"name":"\u30dc\u30fc\u30f3.011",
			"rotation":[
				-0.5869636535644531,
				-0.31388092041015625,
				-0.6229629516601562,
				0.4109375774860382
			],
			"scale":[
				0.9999998211860657,
				0.9999998807907104,
				0.9999998807907104
			],
			"translation":[
				-7.105427357601002e-15,
				0,
				1.4901161193847656e-08
			]
		},
		{
			"name":"\u30dc\u30fc\u30f3.014",
			"rotation":[
				-0.49955108761787415,
				-0.008282932452857494,
				-0.02426469512283802,
				0.8659049272537231
			],
			"scale":[
				0.9999999403953552,
				1,
				0.9999999403953552
			],
			"translation":[
				4.54374493585874e-09,
				0.3173401355743408,
				-5.8094425270383e-08
			]
		},
		{
			"children":[
				10
			],
			"name":"\u30dc\u30fc\u30f3.012",
			"rotation":[
				-0.5813801288604736,
				0.323371946811676,
				0.6183757185935974,
				0.4183769226074219
			],
			"scale":[
				1,
				0.9999999403953552,
				1
			],
			"translation":[
				-7.105427357601002e-15,
				0,
				1.4901161193847656e-08
			]
		},
		{
			"children":[
				7,
				9,
				11
			],
			"name":"\u30dc\u30fc\u30f3",
			"rotation":[
				-0.09678269177675247,
				1.1896791107801619e-07,
				-1.1568341840018093e-08,
				0.9953055381774902
			],
			"translation":[
				0,
				-0.9280376434326172,
				0
			]
		},
		{
			"mesh":0,
			"name":"\u7403.017",
			"skin":0
		},
		{
			"children":[
				13,
				12
			],
			"name":"\u30a2\u30fc\u30de\u30c1\u30e5\u30a2"
		}
	],
	"animations":[
		{
			"channels":[
				{
					"sampler":0,
					"target":{
						"node":12,
						"path":"translation"
					}
				},
				{
					"sampler":1,
					"target":{
						"node":12,
						"path":"rotation"
					}
				},
				{
					"sampler":2,
					"target":{
						"node":12,
						"path":"scale"
					}
				},
				{
					"sampler":3,
					"target":{
						"node":7,
						"path":"translation"
					}
				},
				{
					"sampler":4,
					"target":{
						"node":7,
						"path":"rotation"
					}
				},
				{
					"sampler":5,
					"target":{
						"node":7,
						"path":"scale"
					}
				},
				{
					"sampler":6,
					"target":{
						"node":2,
						"path":"translation"
					}
				},
				{
					"sampler":7,
					"target":{
						"node":2,
						"path":"rotation"
					}
				},
				{
					"sampler":8,
					"target":{
						"node":2,
						"path":"scale"
					}
				},
				{
					"sampler":9,
					"target":{
						"node":0,
						"path":"translation"
					}
				},
				{
					"sampler":10,
					"target":{
						"node":0,
						"path":"rotation"
					}
				},
				{
					"sampler":11,
					"target":{
						"node":0,
						"path":"scale"
					}
				},
				{
					"sampler":12,
					"target":{
						"node":1,
						"path":"translation"
					}
				},
				{
					"sampler":13,
					"target":{
						"node":1,
						"path":"rotation"
					}
				},
				{
					"sampler":14,
					"target":{
						"node":1,
						"path":"scale"
					}
				},
				{
					"sampler":15,
					"target":{
						"node":4,
						"path":"translation"
					}
				},
				{
					"sampler":16,
					"target":{
						"node":4,
						"path":"rotation"
					}
				},
				{
					"sampler":17,
					"target":{
						"node":4,
						"path":"scale"
					}
				},
				{
					"sampler":18,
					"target":{
						"node":3,
						"path":"translation"
					}
				},
				{
					"sampler":19,
					"target":{
						"node":3,
						"path":"rotation"
					}
				},
				{
					"sampler":20,
					"target":{
						"node":3,
						"path":"scale"
					}
				},
				{
					"sampler":21,
					"target":{
						"node":6,
						"path":"translation"
					}
				},
				{
					"sampler":22,
					"target":{
						"node":6,
						"path":"rotation"
					}
				},
				{
					"sampler":23,
					"target":{
						"node":6,
						"path":"scale"
					}
				},
				{
					"sampler":24,
					"target":{
						"node":5,
						"path":"translation"
					}
				},
				{
					"sampler":25,
					"target":{
						"node":5,
						"path":"rotation"
					}
				},
				{
					"sampler":26,
					"target":{
						"node":5,
						"path":"scale"
					}
				},
				{
					"sampler":27,
					"target":{
						"node":9,
						"path":"translation"
					}
				},
				{
					"sampler":28,
					"target":{
						"node":9,
						"path":"rotation"
					}
				},
				{
					"sampler":29,
					"target":{
						"node":9,
						"path":"scale"
					}
				},
				{
					"sampler":30,
					"target":{
						"node":8,
						"path":"translation"
					}
				},
				{
					"sampler":31,
					"target":{
						"node":8,
						"path":"rotation"
					}
				},
				{
					"sampler":32,
					"target":{
						"node":8,
						"path":"scale"
					}
				},
				{
					"sampler":33,
					"target":{
						"node":11,
						"path":"translation"
					}
				},
				{
					"sampler":34,
					"target":{
						"node":11,
						"path":"rotation"
					}
				},
				{
					"sampler":35,
					"target":{
						"node":11,
						"path":"scale"
					}
				},
				{
					"sampler":36,
					"target":{
						"node":10,
						"path":"translation"
					}
				},
				{
					"sampler":37,
					"target":{
						"node":10,
						"path":"rotation"
					}
				},
				{
					"sampler":38,
					"target":{
						"node":10,
						"path":"scale"
					}
				},
				{
					"sampler":39,
					"target":{
						"node":14,
						"path":"translation"
					}
				},
				{
					"sampler":40,
					"target":{
						"node":14,
						"path":"rotation"
					}
				},
				{
					"sampler":41,
					"target":{
						"node":14,
						"path":"scale"
					}
				}
			],
			"name":"\u30a2\u30fc\u30de\u30c1\u30e5\u30a2\u30a2\u30af\u30b7\u30e7\u30f3",
			"samplers":[
				{
					"input":9,
					"interpolation":"LINEAR",
					"output":10
				},
				{
					"input":9,
					"interpolation":"LINEAR",
					"output":11
				},
				{
					"input":12,
					"interpolation":"LINEAR",
					"output":13
				},
				{
					"input":12,
					"interpolation":"LINEAR",
					"output":14
				},
				{
					"input":9,
					"interpolation":"LINEAR",
					"output":15
				},
				{
					"input":12,
					"interpolation":"LINEAR",
					"output":16
				},
				{
					"input":12,
					"interpolation":"LINEAR",
					"output":17
				},
				{
					"input":9,
					"interpolation":"LINEAR",
					"output":18
				},
				{
					"input":12,
					"interpolation":"LINEAR",
					"output":19
				},
				{
					"input":12,
					"interpolation":"LINEAR",
					"output":20
				},
				{
					"input":9,
					"interpolation":"LINEAR",
					"output":21
				},
				{
					"input":12,
					"interpolation":"LINEAR",
					"output":22
				},
				{
					"input":12,
					"interpolation":"LINEAR",
					"output":23
				},
				{
					"input":9,
					"interpolation":"LINEAR",
					"output":24
				},
				{
					"input":12,
					"interpolation":"LINEAR",
					"output":25
				},
				{
					"input":12,
					"interpolation":"LINEAR",
					"output":26
				},
				{
					"input":9,
					"interpolation":"LINEAR",
					"output":27
				},
				{
					"input":12,
					"interpolation":"LINEAR",
					"output":28
				},
				{
					"input":12,
					"interpolation":"LINEAR",
					"output":29
				},
				{
					"input":9,
					"interpolation":"LINEAR",
					"output":30
				},
				{
					"input":12,
					"interpolation":"LINEAR",
					"output":31
				},
				{
					"input":12,
					"interpolation":"LINEAR",
					"output":32
				},
				{
					"input":9,
					"interpolation":"LINEAR",
					"output":33
				},
				{
					"input":12,
					"interpolation":"STEP",
					"output":34
				},
				{
					"input":12,
					"interpolation":"LINEAR",
					"output":35
				},
				{
					"input":9,
					"interpolation":"LINEAR",
					"output":36
				},
				{
					"input":12,
					"interpolation":"LINEAR",
					"output":37
				},
				{
					"input":12,
					"interpolation":"LINEAR",
					"output":38
				},
				{
					"input":9,
					"interpolation":"LINEAR",
					"output":39
				},
				{
					"input":12,
					"interpolation":"LINEAR",
					"output":40
				},
				{
					"input":12,
					"interpolation":"LINEAR",
					"output":41
				},
				{
					"input":9,
					"interpolation":"LINEAR",
					"output":42
				},
				{
					"input":12,
					"interpolation":"LINEAR",
					"output":43
				},
				{
					"input":12,
					"interpolation":"LINEAR",
					"output":44
				},
				{
					"input":9,
					"interpolation":"LINEAR",
					"output":45
				},
				{
					"input":12,
					"interpolation":"STEP",
					"output":46
				},
				{
					"input":12,
					"interpolation":"LINEAR",
					"output":47
				},
				{
					"input":9,
					"interpolation":"LINEAR",
					"output":48
				},
				{
					"input":12,
					"interpolation":"STEP",
					"output":49
				},
				{
					"input":12,
					"interpolation":"STEP",
					"output":50
				},
				{
					"input":12,
					"interpolation":"STEP",
					"output":51
				},
				{
					"input":12,
					"interpolation":"STEP",
					"output":52
				}
			]
		},
		{
			"channels":[
				{
					"sampler":0,
					"target":{
						"node":13,
						"path":"translation"
					}
				},
				{
					"sampler":1,
					"target":{
						"node":13,
						"path":"rotation"
					}
				},
				{
					"sampler":2,
					"target":{
						"node":13,
						"path":"scale"
					}
				}
			],
			"name":"\u7403.017\u30a2\u30af\u30b7\u30e7\u30f3",
			"samplers":[
				{
					"input":53,
					"interpolation":"LINEAR",
					"output":54
				},
				{
					"input":53,
					"interpolation":"LINEAR",
					"output":55
				},
				{
					"input":53,
					"interpolation":"LINEAR",
					"output":56
				}
			]
		}
	],
	"materials":[
		{
			"doubleSided":true,
			"name":"\u30de\u30c6\u30ea\u30a2\u30eb",
			"pbrMetallicRoughness":{
				"baseColorTexture":{
					"index":0
				},
				"metallicFactor":0,
				"roughnessFactor":0.5
			}
		}
	],
	"meshes":[
		{
			"name":"\u7403.017",
			"primitives":[
				{
					"attributes":{
						"POSITION":0,
						"NORMAL":1,
						"TEXCOORD_0":2,
						"COLOR_0":3,
						"COLOR_1":4,
						"JOINTS_0":5,
						"WEIGHTS_0":6
					},
					"indices":7,
					"material":0
				}
			]
		}
	],
	"textures":[
		{
			"sampler":0,
			"source":0
		}
	],
	"images":[
		{
			"mimeType":"image/png",
			"name":"player",
			"uri":"game/player.png"
		}
	],
	"skins":[
		{
			"inverseBindMatrices":8,
			"joints":[
				12,
				7,
				2,
				0,
				1,
				4,
				3,
				6,
				5,
				9,
				8,
				11,
				10
			],
			"name":"\u30a2\u30fc\u30de\u30c1\u30e5\u30a2"
		}
	],
	"accessors":[
		{
			"bufferView":0,
			"componentType":5126,
			"count":3708,
			"max":[
				1.8642653226852417,
				2.152419090270996,
				1.1097006797790527
			],
			"min":[
				-1.8642653226852417,
				-1.8837155103683472,
				-0.8981235027313232
			],
			"type":"VEC3"
		},
		{
			"bufferView":1,
			"componentType":5126,
			"count":3708,
			"type":"VEC3"
		},
		{
			"bufferView":2,
			"componentType":5126,
			"count":3708,
			"type":"VEC2"
		},
		{
			"bufferView":3,
			"componentType":5121,
			"count":3708,
			"normalized":true,
			"type":"VEC4"
		},
		{
			"bufferView":4,
			"componentType":5123,
			"count":3708,
			"normalized":true,
			"type":"VEC4"
		},
		{
			"bufferView":5,
			"componentType":5121,
			"count":3708,
			"type":"VEC4"
		},
		{
			"bufferView":6,
			"componentType":5126,
			"count":3708,
			"type":"VEC4"
		},
		{
			"bufferView":7,
			"componentType":5123,
			"count":17847,
			"type":"SCALAR"
		},
		{
			"bufferView":8,
			"componentType":5126,
			"count":13,
			"type":"MAT4"
		},
		{
			"bufferView":9,
			"componentType":5126,
			"count":50,
			"max":[
				2.0833333333333335
			],
			"min":[
				0.041666666666666664
			],
			"type":"SCALAR"
		},
		{
			"bufferView":10,
			"componentType":5126,
			"count":50,
			"type":"VEC3"
		},
		{
			"bufferView":11,
			"componentType":5126,
			"count":50,
			"type":"VEC4"
		},
		{
			"bufferView":12,
			"componentType":5126,
			"count":2,
			"max":[
				2.0833333333333335
			],
			"min":[
				0.041666666666666664
			],
			"type":"SCALAR"
		},
		{
			"bufferView":13,
			"componentType":5126,
			"count":2,
			"type":"VEC3"
		},
		{
			"bufferView":14,
			"componentType":5126,
			"count":2,
			"type":"VEC3"
		},
		{
			"bufferView":15,
			"componentType":5126,
			"count":50,
			"type":"VEC4"
		},
		{
			"bufferView":16,
			"componentType":5126,
			"count":2,
			"type":"VEC3"
		},
		{
			"bufferView":17,
			"componentType":5126,
			"count":2,
			"type":"VEC3"
		},
		{
			"bufferView":18,
			"componentType":5126,
			"count":50,
			"type":"VEC4"
		},
		{
			"bufferView":19,
			"componentType":5126,
			"count":2,
			"type":"VEC3"
		},
		{
			"bufferView":20,
			"componentType":5126,
			"count":2,
			"type":"VEC3"
		},
		{
			"bufferView":21,
			"componentType":5126,
			"count":50,
			"type":"VEC4"
		},
		{
			"bufferView":22,
			"componentType":5126,
			"count":2,
			"type":"VEC3"
		},
		{
			"bufferView":23,
			"componentType":5126,
			"count":2,
			"type":"VEC3"
		},
		{
			"bufferView":24,
			"componentType":5126,
			"count":50,
			"type":"VEC4"
		},
		{
			"bufferView":25,
			"componentType":5126,
			"count":2,
			"type":"VEC3"
		},
		{
			"bufferView":26,
			"componentType":5126,
			"count":2,
			"type":"VEC3"
		},
		{
			"bufferView":27,
			"componentType":5126,
			"count":50,
			"type":"VEC4"
		},
		{
			"bufferView":28,
			"componentType":5126,
			"count":2,
			"type":"VEC3"
		},
		{
			"bufferView":29,
			"componentType":5126,
			"count":2,
			"type":"VEC3"
		},
		{
			"bufferView":30,
			"componentType":5126,
			"count":50,
			"type":"VEC4"
		},
		{
			"bufferView":31,
			"componentType":5126,
			"count":2,
			"type":"VEC3"
		},
		{
			"bufferView":32,
			"componentType":5126,
			"count":2,
			"type":"VEC3"
		},
		{
			"bufferView":33,
			"componentType":5126,
			"count":50,
			"type":"VEC4"
		},
		{
			"bufferView":34,
			"componentType":5126,
			"count":2,
			"type":"VEC3"
		},
		{
			"bufferView":35,
			"componentType":5126,
			"count":2,
			"type":"VEC3"
		},
		{
			"bufferView":36,
			"componentType":5126,
			"count":50,
			"type":"VEC4"
		},
		{
			"bufferView":37,
			"componentType":5126,
			"count":2,
			"type":"VEC3"
		},
		{
			"bufferView":38,
			"componentType":5126,
			"count":2,
			"type":"VEC3"
		},
		{
			"bufferView":39,
			"componentType":5126,
			"count":50,
			"type":"VEC4"
		},
		{
			"bufferView":40,
			"componentType":5126,
			"count":2,
			"type":"VEC3"
		},
		{
			"bufferView":41,
			"componentType":5126,
			"count":2,
			"type":"VEC3"
		},
		{
			"bufferView":42,
			"componentType":5126,
			"count":50,
			"type":"VEC4"
		},
		{
			"bufferView":43,
			"componentType":5126,
			"count":2,
			"type":"VEC3"
		},
		{
			"bufferView":44,
			"componentType":5126,
			"count":2,
			"type":"VEC3"
		},
		{
			"bufferView":45,
			"componentType":5126,
			"count":50,
			"type":"VEC4"
		},
		{
			"bufferView":46,
			"componentType":5126,
			"count":2,
			"type":"VEC3"
		},
		{
			"bufferView":47,
			"componentType":5126,
			"count":2,
			"type":"VEC3"
		},
		{
			"bufferView":48,
			"componentType":5126,
			"count":50,
			"type":"VEC4"
		},
		{
			"bufferView":49,
			"componentType":5126,
			"count":2,
			"type":"VEC3"
		},
		{
			"bufferView":50,
			"componentType":5126,
			"count":2,
			"type":"VEC3"
		},
		{
			"bufferView":51,
			"componentType":5126,
			"count":2,
			"type":"VEC4"
		},
		{
			"bufferView":52,
			"componentType":5126,
			"count":2,
			"type":"VEC3"
		},
		{
			"bufferView":53,
			"componentType":5126,
			"count":1,
			"max":[
				0.041666666666666664
			],
			"min":[
				0.041666666666666664
			],
			"type":"SCALAR"
		},
		{
			"bufferView":54,
			"componentType":5126,
			"count":1,
			"type":"VEC3"
		},
		{
			"bufferView":55,
			"componentType":5126,
			"count":1,
			"type":"VEC4"
		},
		{
			"bufferView":56,
			"componentType":5126,
			"count":1,
			"type":"VEC3"
		}
	],
	"bufferViews":[
		{
			"buffer":0,
			"byteLength":44496,
			"byteOffset":0,
			"target":34962
		},
		{
			"buffer":0,
			"byteLength":44496,
			"byteOffset":44496,
			"target":34962
		},
		{
			"buffer":0,
			"byteLength":29664,
			"byteOffset":88992,
			"target":34962
		},
		{
			"buffer":0,
			"byteLength":14832,
			"byteOffset":118656,
			"target":34962
		},
		{
			"buffer":0,
			"byteLength":29664,
			"byteOffset":133488,
			"target":34962
		},
		{
			"buffer":0,
			"byteLength":14832,
			"byteOffset":163152,
			"target":34962
		},
		{
			"buffer":0,
			"byteLength":59328,
			"byteOffset":177984,
			"target":34962
		},
		{
			"buffer":0,
			"byteLength":35694,
			"byteOffset":237312,
			"target":34963
		},
		{
			"buffer":0,
			"byteLength":832,
			"byteOffset":273008
		},
		{
			"buffer":0,
			"byteLength":200,
			"byteOffset":273840
		},
		{
			"buffer":0,
			"byteLength":600,
			"byteOffset":274040
		},
		{
			"buffer":0,
			"byteLength":800,
			"byteOffset":274640
		},
		{
			"buffer":0,
			"byteLength":8,
			"byteOffset":275440
		},
		{
			"buffer":0,
			"byteLength":24,
			"byteOffset":275448
		},
		{
			"buffer":0,
			"byteLength":24,
			"byteOffset":275472
		},
		{
			"buffer":0,
			"byteLength":800,
			"byteOffset":275496
		},
		{
			"buffer":0,
			"byteLength":24,
			"byteOffset":276296
		},
		{
			"buffer":0,
			"byteLength":24,
			"byteOffset":276320
		},
		{
			"buffer":0,
			"byteLength":800,
			"byteOffset":276344
		},
		{
			"buffer":0,
			"byteLength":24,
			"byteOffset":277144
		},
		{
			"buffer":0,
			"byteLength":24,
			"byteOffset":277168
		},
		{
			"buffer":0,
			"byteLength":800,
			"byteOffset":277192
		},
		{
			"buffer":0,
			"byteLength":24,
			"byteOffset":277992
		},
		{
			"buffer":0,
			"byteLength":24,
			"byteOffset":278016
		},
		{
			"buffer":0,
			"byteLength":800,
			"byteOffset":278040
		},
		{
			"buffer":0,
			"byteLength":24,
			"byteOffset":278840
		},
		{
			"buffer":0,
			"byteLength":24,
			"byteOffset":278864
		},
		{
			"buffer":0,
			"byteLength":800,
			"byteOffset":278888
		},
		{
			"buffer":0,
			"byteLength":24,
			"byteOffset":279688
		},
		{
			"buffer":0,
			"byteLength":24,
			"byteOffset":279712
		},
		{
			"buffer":0,
			"byteLength":800,
			"byteOffset":279736
		},
		{
			"buffer":0,
			"byteLength":24,
			"byteOffset":280536
		},
		{
			"buffer":0,
			"byteLength":24,
			"byteOffset":280560
		},
		{
			"buffer":0,
			"byteLength":800,
			"byteOffset":280584
		},
		{
			"buffer":0,
			"byteLength":24,
			"byteOffset":281384
		},
		{
			"buffer":0,
			"byteLength":24,
			"byteOffset":281408
		},
		{
			"buffer":0,
			"byteLength":800,
			"byteOffset":281432
		},
		{
			"buffer":0,
			"byteLength":24,
			"byteOffset":282232
		},
		{
			"buffer":0,
			"byteLength":24,
			"byteOffset":282256
		},
		{
			"buffer":0,
			"byteLength":800,
			"byteOffset":282280
		},
		{
			"buffer":0,
			"byteLength":24,
			"byteOffset":283080
		},
		{
			"buffer":0,
			"byteLength":24,
			"byteOffset":283104
		},
		{
			"buffer":0,
			"byteLength":800,
			"byteOffset":283128
		},
		{
			"buffer":0,
			"byteLength":24,
			"byteOffset":283928
		},
		{
			"buffer":0,
			"byteLength":24,
			"byteOffset":283952
		},
		{
			"buffer":0,
			"byteLength":800,
			"byteOffset":283976
		},
		{
			"buffer":0,
			"byteLength":24,
			"byteOffset":284776
		},
		{
			"buffer":0,
			"byteLength":24,
			"byteOffset":284800
		},
		{
			"buffer":0,
			"byteLength":800,
			"byteOffset":284824
		},
		{
			"buffer":0,
			"byteLength":24,
			"byteOffset":285624
		},
		{
			"buffer":0,
			"byteLength":24,
			"byteOffset":285648
		},
		{
			"buffer":0,
			"byteLength":32,
			"byteOffset":285672
		},
		{
			"buffer":0,
			"byteLength":24,
			"byteOffset":285704
		},
		{
			"buffer":0,
			"byteLength":4,
			"byteOffset":285728
		},
		{
			"buffer":0,
			"byteLength":12,
			"byteOffset":285732
		},
		{
			"buffer":0,
			"byteLength":16,
			"byteOffset":285744
		},
		{
			"buffer":0,
			"byteLength":12,
			"byteOffset":285760
		}
	],
	"samplers":[
		{
			"magFilter":9729,
			"minFilter":9987
		}
	],
	"buffers":[
		{
			"byteLength":285772,
			"uri":"playerGoal.bin"
		}
	]
}
