{
	"asset":{
		"generator":"Khronos glTF Blender I/O v4.3.47",
		"version":"2.0"
	},
	"scene":0,
	"scenes":[
		{
			"name":"Scene",
			"nodes":[
				14
			]
		}
	],
	"nodes":[
		{
			"name":"\u30dc\u30fc\u30f3.003",
			"rotation":[
				-0.03663153573870659,
				0.015886632725596428,
				0.5638318657875061,
				0.8249238729476929
			],
			"scale":[
				0.9999999403953552,
				1,
				0.9999998807907104
			],
			"translation":[
				2.593893313486853e-17,
				1.1720139980316162,
				-3.00063760505509e-08
			]
		},
		{
			"name":"\u30dc\u30fc\u30f3.004",
			"rotation":[
				-0.03698807582259178,
				-0.015607034787535667,
				-0.5588558912277222,
				0.8282924890518188
			],
			"scale":[
				0.9999999403953552,
				1.0000001192092896,
				0.9999999403953552
			],
			"translation":[
				2.593893313486853e-17,
				1.1720139980316162,
				-3.00063760505509e-08
			]
		},
		{
			"children":[
				0,
				1
			],
			"name":"\u30dc\u30fc\u30f3.002",
			"rotation":[
				0.07188662886619568,
				-7.996165578630365e-13,
				4.575191267508494e-11,
				0.9974128007888794
			],
			"translation":[
				3.120257619448029e-18,
				0.667090654373169,
				7.450580596923828e-09
			]
		},
		{
			"name":"\u30dc\u30fc\u30f3.006",
			"rotation":[
				0.005442305933684111,
				-0.00040853896643966436,
				-0.1529868245124817,
				0.9882131814956665
			],
			"scale":[
				0.9999999403953552,
				1.0000001192092896,
				1
			],
			"translation":[
				-2.3748725652694702e-08,
				0.5320884585380554,
				-9.313225746154785e-09
			]
		},
		{
			"children":[
				3
			],
			"name":"\u30dc\u30fc\u30f3.005",
			"rotation":[
				-0.006439328659325838,
				-3.050822670047637e-05,
				0.8025645017623901,
				0.5965306162834167
			],
			"scale":[
				0.9999998211860657,
				0.9999998807907104,
				1
			],
			"translation":[
				3.120257619448029e-18,
				0.667090654373169,
				7.450580596923828e-09
			]
		},
		{
			"name":"\u30dc\u30fc\u30f3.009",
			"rotation":[
				0.005088664125651121,
				0.0003698673390317708,
				0.14522811770439148,
				0.9893850684165955
			],
			"scale":[
				0.9999998807907104,
				1,
				0.9999999403953552
			],
			"translation":[
				1.1315569281578064e-07,
				0.5615454316139221,
				-8.847564458847046e-09
			]
		},
		{
			"children":[
				5
			],
			"name":"\u30dc\u30fc\u30f3.008",
			"rotation":[
				-0.006041015964001417,
				2.6589801564114168e-05,
				-0.7978427410125732,
				0.6028353571891785
			],
			"scale":[
				1,
				1,
				0.9999999403953552
			],
			"translation":[
				3.120257619448029e-18,
				0.667090654373169,
				7.450580596923828e-09
			]
		},
		{
			"children":[
				2,
				4,
				6
			],
			"name":"\u30dc\u30fc\u30f3.001",
			"rotation":[
				0.08343198150396347,
				-1.1879473760245673e-07,
				9.999126859838725e-09,
				0.9965134859085083
			],
			"scale":[
				1,
				0.9999999403953552,
				0.9999999403953552
			],
			"translation":[
				8.881784197001252e-15,
				0.6178391575813293,
				-3.725290298461914e-08
			]
		},
		{
			"name":"\u30dc\u30fc\u30f3.013",
			"rotation":[
				-0.4971749484539032,
				0.007654097862541676,
				0.0237414687871933,
				0.8672916889190674
			],
			"scale":[
				1,
				0.9999999403953552,
				0.9999998807907104
			],
			"translation":[
				-5.325158980440392e-09,
				0.3488459587097168,
				1.5782434914513033e-08
			]
		},
		{
			"children":[
				8
			],
			"name":"\u30dc\u30fc\u30f3.011",
			"rotation":[
				-0.5869635343551636,
				-0.313880980014801,
				-0.6229629516601562,
				0.4109375774860382
			],
			"scale":[
				0.9999999403953552,
				1,
				0.9999999403953552
			],
			"translation":[
				7.105427357601002e-15,
				0,
				-1.4901161193847656e-08
			]
		},
		{
			"name":"\u30dc\u30fc\u30f3.014",
			"rotation":[
				-0.49955108761787415,
				-0.008282927796244621,
				-0.02426469698548317,
				0.8659049272537231
			],
			"scale":[
				0.9999999403953552,
				1,
				0.9999999403953552
			],
			"translation":[
				8.18454637396826e-10,
				0.3173401653766632,
				1.5102196160299286e-09
			]
		},
		{
			"children":[
				10
			],
			"name":"\u30dc\u30fc\u30f3.012",
			"rotation":[
				-0.5813801288604736,
				0.323371946811676,
				0.6183757185935974,
				0.4183769226074219
			],
			"scale":[
				1,
				0.9999999403953552,
				1
			],
			"translation":[
				7.105427357601002e-15,
				0,
				-1.4901161193847656e-08
			]
		},
		{
			"children":[
				7,
				9,
				11
			],
			"name":"\u30dc\u30fc\u30f3",
			"rotation":[
				-0.09678269177675247,
				1.1896788265630676e-07,
				-1.1568339175482834e-08,
				0.9953055381774902
			],
			"translation":[
				0,
				0.9529486894607544,
				0
			]
		},
		{
			"mesh":0,
			"name":"\u7403",
			"skin":0
		},
		{
			"children":[
				13,
				12
			],
			"name":"\u30a2\u30fc\u30de\u30c1\u30e5\u30a2"
		}
	],
	"animations":[
		{
			"channels":[
				{
					"sampler":0,
					"target":{
						"node":12,
						"path":"translation"
					}
				},
				{
					"sampler":1,
					"target":{
						"node":12,
						"path":"rotation"
					}
				},
				{
					"sampler":2,
					"target":{
						"node":12,
						"path":"scale"
					}
				},
				{
					"sampler":3,
					"target":{
						"node":7,
						"path":"translation"
					}
				},
				{
					"sampler":4,
					"target":{
						"node":7,
						"path":"rotation"
					}
				},
				{
					"sampler":5,
					"target":{
						"node":7,
						"path":"scale"
					}
				},
				{
					"sampler":6,
					"target":{
						"node":2,
						"path":"translation"
					}
				},
				{
					"sampler":7,
					"target":{
						"node":2,
						"path":"rotation"
					}
				},
				{
					"sampler":8,
					"target":{
						"node":2,
						"path":"scale"
					}
				},
				{
					"sampler":9,
					"target":{
						"node":0,
						"path":"translation"
					}
				},
				{
					"sampler":10,
					"target":{
						"node":0,
						"path":"rotation"
					}
				},
				{
					"sampler":11,
					"target":{
						"node":0,
						"path":"scale"
					}
				},
				{
					"sampler":12,
					"target":{
						"node":1,
						"path":"translation"
					}
				},
				{
					"sampler":13,
					"target":{
						"node":1,
						"path":"rotation"
					}
				},
				{
					"sampler":14,
					"target":{
						"node":1,
						"path":"scale"
					}
				},
				{
					"sampler":15,
					"target":{
						"node":4,
						"path":"translation"
					}
				},
				{
					"sampler":16,
					"target":{
						"node":4,
						"path":"rotation"
					}
				},
				{
					"sampler":17,
					"target":{
						"node":4,
						"path":"scale"
					}
				},
				{
					"sampler":18,
					"target":{
						"node":3,
						"path":"translation"
					}
				},
				{
					"sampler":19,
					"target":{
						"node":3,
						"path":"rotation"
					}
				},
				{
					"sampler":20,
					"target":{
						"node":3,
						"path":"scale"
					}
				},
				{
					"sampler":21,
					"target":{
						"node":6,
						"path":"translation"
					}
				},
				{
					"sampler":22,
					"target":{
						"node":6,
						"path":"rotation"
					}
				},
				{
					"sampler":23,
					"target":{
						"node":6,
						"path":"scale"
					}
				},
				{
					"sampler":24,
					"target":{
						"node":5,
						"path":"translation"
					}
				},
				{
					"sampler":25,
					"target":{
						"node":5,
						"path":"rotation"
					}
				},
				{
					"sampler":26,
					"target":{
						"node":5,
						"path":"scale"
					}
				},
				{
					"sampler":27,
					"target":{
						"node":9,
						"path":"translation"
					}
				},
				{
					"sampler":28,
					"target":{
						"node":9,
						"path":"rotation"
					}
				},
				{
					"sampler":29,
					"target":{
						"node":9,
						"path":"scale"
					}
				},
				{
					"sampler":30,
					"target":{
						"node":8,
						"path":"translation"
					}
				},
				{
					"sampler":31,
					"target":{
						"node":8,
						"path":"rotation"
					}
				},
				{
					"sampler":32,
					"target":{
						"node":8,
						"path":"scale"
					}
				},
				{
					"sampler":33,
					"target":{
						"node":11,
						"path":"translation"
					}
				},
				{
					"sampler":34,
					"target":{
						"node":11,
						"path":"rotation"
					}
				},
				{
					"sampler":35,
					"target":{
						"node":11,
						"path":"scale"
					}
				},
				{
					"sampler":36,
					"target":{
						"node":10,
						"path":"translation"
					}
				},
				{
					"sampler":37,
					"target":{
						"node":10,
						"path":"rotation"
					}
				},
				{
					"sampler":38,
					"target":{
						"node":10,
						"path":"scale"
					}
				}
			],
			"name":"\u30a2\u30fc\u30de\u30c1\u30e5\u30a2\u30a2\u30af\u30b7\u30e7\u30f3.001",
			"samplers":[
				{
					"input":17,
					"interpolation":"LINEAR",
					"output":18
				},
				{
					"input":17,
					"interpolation":"LINEAR",
					"output":19
				},
				{
					"input":20,
					"interpolation":"STEP",
					"output":21
				},
				{
					"input":20,
					"interpolation":"STEP",
					"output":22
				},
				{
					"input":17,
					"interpolation":"LINEAR",
					"output":23
				},
				{
					"input":20,
					"interpolation":"STEP",
					"output":24
				},
				{
					"input":20,
					"interpolation":"STEP",
					"output":25
				},
				{
					"input":17,
					"interpolation":"LINEAR",
					"output":26
				},
				{
					"input":20,
					"interpolation":"STEP",
					"output":27
				},
				{
					"input":20,
					"interpolation":"STEP",
					"output":28
				},
				{
					"input":17,
					"interpolation":"LINEAR",
					"output":29
				},
				{
					"input":20,
					"interpolation":"STEP",
					"output":30
				},
				{
					"input":20,
					"interpolation":"STEP",
					"output":31
				},
				{
					"input":17,
					"interpolation":"LINEAR",
					"output":32
				},
				{
					"input":20,
					"interpolation":"STEP",
					"output":33
				},
				{
					"input":20,
					"interpolation":"STEP",
					"output":34
				},
				{
					"input":17,
					"interpolation":"LINEAR",
					"output":35
				},
				{
					"input":20,
					"interpolation":"STEP",
					"output":36
				},
				{
					"input":20,
					"interpolation":"STEP",
					"output":37
				},
				{
					"input":20,
					"interpolation":"STEP",
					"output":38
				},
				{
					"input":20,
					"interpolation":"STEP",
					"output":39
				},
				{
					"input":20,
					"interpolation":"STEP",
					"output":40
				},
				{
					"input":17,
					"interpolation":"LINEAR",
					"output":41
				},
				{
					"input":20,
					"interpolation":"STEP",
					"output":42
				},
				{
					"input":20,
					"interpolation":"STEP",
					"output":43
				},
				{
					"input":17,
					"interpolation":"LINEAR",
					"output":44
				},
				{
					"input":20,
					"interpolation":"STEP",
					"output":45
				},
				{
					"input":20,
					"interpolation":"STEP",
					"output":46
				},
				{
					"input":17,
					"interpolation":"LINEAR",
					"output":47
				},
				{
					"input":20,
					"interpolation":"STEP",
					"output":48
				},
				{
					"input":20,
					"interpolation":"STEP",
					"output":49
				},
				{
					"input":20,
					"interpolation":"STEP",
					"output":50
				},
				{
					"input":20,
					"interpolation":"STEP",
					"output":51
				},
				{
					"input":20,
					"interpolation":"STEP",
					"output":52
				},
				{
					"input":17,
					"interpolation":"LINEAR",
					"output":53
				},
				{
					"input":20,
					"interpolation":"STEP",
					"output":54
				},
				{
					"input":20,
					"interpolation":"STEP",
					"output":55
				},
				{
					"input":20,
					"interpolation":"STEP",
					"output":56
				},
				{
					"input":20,
					"interpolation":"STEP",
					"output":57
				}
			]
		}
	],
	"materials":[
		{
			"doubleSided":true,
			"name":"\u30de\u30c6\u30ea\u30a2\u30eb",
			"pbrMetallicRoughness":{
				"baseColorTexture":{
					"index":0
				},
				"metallicFactor":0,
				"roughnessFactor":0.5
			}
		},
		{
			"doubleSided":true,
			"name":"\u30de\u30c6\u30ea\u30a2\u30eb.001",
			"pbrMetallicRoughness":{
				"baseColorTexture":{
					"index":1
				},
				"metallicFactor":0,
				"roughnessFactor":0.5
			}
		}
	],
	"meshes":[
		{
			"name":"\u7403",
			"primitives":[
				{
					"attributes":{
						"POSITION":0,
						"NORMAL":1,
						"TEXCOORD_0":2,
						"COLOR_0":3,
						"COLOR_1":4,
						"JOINTS_0":5,
						"WEIGHTS_0":6
					},
					"indices":7,
					"material":0
				},
				{
					"attributes":{
						"POSITION":8,
						"NORMAL":9,
						"TEXCOORD_0":10,
						"COLOR_0":11,
						"COLOR_1":12,
						"JOINTS_0":13,
						"WEIGHTS_0":14
					},
					"indices":15,
					"material":1
				}
			]
		}
	],
	"textures":[
		{
			"sampler":0,
			"source":0
		},
		{
			"sampler":0,
			"source":1
		}
	],
	"images":[
		{
			"mimeType":"image/png",
			"name":"player",
			"uri":"player.png"
		},
		{
			"mimeType":"image/png",
			"name":"player.png",
			"uri":"player_png.png"
		}
	],
	"skins":[
		{
			"inverseBindMatrices":16,
			"joints":[
				12,
				7,
				2,
				0,
				1,
				4,
				3,
				6,
				5,
				9,
				8,
				11,
				10
			],
			"name":"\u30a2\u30fc\u30de\u30c1\u30e5\u30a2"
		}
	],
	"accessors":[
		{
			"bufferView":0,
			"componentType":5126,
			"count":3622,
			"max":[
				0.9586188793182373,
				4.033405303955078,
				1.1097006797790527
			],
			"min":[
				-1.8642653226852417,
				-0.002729177474975586,
				-0.8981235027313232
			],
			"type":"VEC3"
		},
		{
			"bufferView":1,
			"componentType":5126,
			"count":3622,
			"type":"VEC3"
		},
		{
			"bufferView":2,
			"componentType":5126,
			"count":3622,
			"type":"VEC2"
		},
		{
			"bufferView":3,
			"componentType":5121,
			"count":3622,
			"normalized":true,
			"type":"VEC4"
		},
		{
			"bufferView":4,
			"componentType":5123,
			"count":3622,
			"normalized":true,
			"type":"VEC4"
		},
		{
			"bufferView":5,
			"componentType":5121,
			"count":3622,
			"type":"VEC4"
		},
		{
			"bufferView":6,
			"componentType":5126,
			"count":3622,
			"type":"VEC4"
		},
		{
			"bufferView":7,
			"componentType":5123,
			"count":17523,
			"type":"SCALAR"
		},
		{
			"bufferView":8,
			"componentType":5126,
			"count":86,
			"max":[
				1.8642653226852417,
				2.3376474380493164,
				0.2674851417541504
			],
			"min":[
				0.49622035026550293,
				1.8694419860839844,
				-0.2674851417541504
			],
			"type":"VEC3"
		},
		{
			"bufferView":9,
			"componentType":5126,
			"count":86,
			"type":"VEC3"
		},
		{
			"bufferView":10,
			"componentType":5126,
			"count":86,
			"type":"VEC2"
		},
		{
			"bufferView":11,
			"componentType":5121,
			"count":86,
			"normalized":true,
			"type":"VEC4"
		},
		{
			"bufferView":12,
			"componentType":5123,
			"count":86,
			"normalized":true,
			"type":"VEC4"
		},
		{
			"bufferView":13,
			"componentType":5121,
			"count":86,
			"type":"VEC4"
		},
		{
			"bufferView":14,
			"componentType":5126,
			"count":86,
			"type":"VEC4"
		},
		{
			"bufferView":15,
			"componentType":5123,
			"count":324,
			"type":"SCALAR"
		},
		{
			"bufferView":16,
			"componentType":5126,
			"count":13,
			"type":"MAT4"
		},
		{
			"bufferView":17,
			"componentType":5126,
			"count":40,
			"max":[
				1.6666666666666667
			],
			"min":[
				0.041666666666666664
			],
			"type":"SCALAR"
		},
		{
			"bufferView":18,
			"componentType":5126,
			"count":40,
			"type":"VEC3"
		},
		{
			"bufferView":19,
			"componentType":5126,
			"count":40,
			"type":"VEC4"
		},
		{
			"bufferView":20,
			"componentType":5126,
			"count":2,
			"max":[
				1.6666666666666667
			],
			"min":[
				0.041666666666666664
			],
			"type":"SCALAR"
		},
		{
			"bufferView":21,
			"componentType":5126,
			"count":2,
			"type":"VEC3"
		},
		{
			"bufferView":22,
			"componentType":5126,
			"count":2,
			"type":"VEC3"
		},
		{
			"bufferView":23,
			"componentType":5126,
			"count":40,
			"type":"VEC4"
		},
		{
			"bufferView":24,
			"componentType":5126,
			"count":2,
			"type":"VEC3"
		},
		{
			"bufferView":25,
			"componentType":5126,
			"count":2,
			"type":"VEC3"
		},
		{
			"bufferView":26,
			"componentType":5126,
			"count":40,
			"type":"VEC4"
		},
		{
			"bufferView":27,
			"componentType":5126,
			"count":2,
			"type":"VEC3"
		},
		{
			"bufferView":28,
			"componentType":5126,
			"count":2,
			"type":"VEC3"
		},
		{
			"bufferView":29,
			"componentType":5126,
			"count":40,
			"type":"VEC4"
		},
		{
			"bufferView":30,
			"componentType":5126,
			"count":2,
			"type":"VEC3"
		},
		{
			"bufferView":31,
			"componentType":5126,
			"count":2,
			"type":"VEC3"
		},
		{
			"bufferView":32,
			"componentType":5126,
			"count":40,
			"type":"VEC4"
		},
		{
			"bufferView":33,
			"componentType":5126,
			"count":2,
			"type":"VEC3"
		},
		{
			"bufferView":34,
			"componentType":5126,
			"count":2,
			"type":"VEC3"
		},
		{
			"bufferView":35,
			"componentType":5126,
			"count":40,
			"type":"VEC4"
		},
		{
			"bufferView":36,
			"componentType":5126,
			"count":2,
			"type":"VEC3"
		},
		{
			"bufferView":37,
			"componentType":5126,
			"count":2,
			"type":"VEC3"
		},
		{
			"bufferView":38,
			"componentType":5126,
			"count":2,
			"type":"VEC4"
		},
		{
			"bufferView":39,
			"componentType":5126,
			"count":2,
			"type":"VEC3"
		},
		{
			"bufferView":40,
			"componentType":5126,
			"count":2,
			"type":"VEC3"
		},
		{
			"bufferView":41,
			"componentType":5126,
			"count":40,
			"type":"VEC4"
		},
		{
			"bufferView":42,
			"componentType":5126,
			"count":2,
			"type":"VEC3"
		},
		{
			"bufferView":43,
			"componentType":5126,
			"count":2,
			"type":"VEC3"
		},
		{
			"bufferView":44,
			"componentType":5126,
			"count":40,
			"type":"VEC4"
		},
		{
			"bufferView":45,
			"componentType":5126,
			"count":2,
			"type":"VEC3"
		},
		{
			"bufferView":46,
			"componentType":5126,
			"count":2,
			"type":"VEC3"
		},
		{
			"bufferView":47,
			"componentType":5126,
			"count":40,
			"type":"VEC4"
		},
		{
			"bufferView":48,
			"componentType":5126,
			"count":2,
			"type":"VEC3"
		},
		{
			"bufferView":49,
			"componentType":5126,
			"count":2,
			"type":"VEC3"
		},
		{
			"bufferView":50,
			"componentType":5126,
			"count":2,
			"type":"VEC4"
		},
		{
			"bufferView":51,
			"componentType":5126,
			"count":2,
			"type":"VEC3"
		},
		{
			"bufferView":52,
			"componentType":5126,
			"count":2,
			"type":"VEC3"
		},
		{
			"bufferView":53,
			"componentType":5126,
			"count":40,
			"type":"VEC4"
		},
		{
			"bufferView":54,
			"componentType":5126,
			"count":2,
			"type":"VEC3"
		},
		{
			"bufferView":55,
			"componentType":5126,
			"count":2,
			"type":"VEC3"
		},
		{
			"bufferView":56,
			"componentType":5126,
			"count":2,
			"type":"VEC4"
		},
		{
			"bufferView":57,
			"componentType":5126,
			"count":2,
			"type":"VEC3"
		}
	],
	"bufferViews":[
		{
			"buffer":0,
			"byteLength":43464,
			"byteOffset":0,
			"target":34962
		},
		{
			"buffer":0,
			"byteLength":43464,
			"byteOffset":43464,
			"target":34962
		},
		{
			"buffer":0,
			"byteLength":28976,
			"byteOffset":86928,
			"target":34962
		},
		{
			"buffer":0,
			"byteLength":14488,
			"byteOffset":115904,
			"target":34962
		},
		{
			"buffer":0,
			"byteLength":28976,
			"byteOffset":130392,
			"target":34962
		},
		{
			"buffer":0,
			"byteLength":14488,
			"byteOffset":159368,
			"target":34962
		},
		{
			"buffer":0,
			"byteLength":57952,
			"byteOffset":173856,
			"target":34962
		},
		{
			"buffer":0,
			"byteLength":35046,
			"byteOffset":231808,
			"target":34963
		},
		{
			"buffer":0,
			"byteLength":1032,
			"byteOffset":266856,
			"target":34962
		},
		{
			"buffer":0,
			"byteLength":1032,
			"byteOffset":267888,
			"target":34962
		},
		{
			"buffer":0,
			"byteLength":688,
			"byteOffset":268920,
			"target":34962
		},
		{
			"buffer":0,
			"byteLength":344,
			"byteOffset":269608,
			"target":34962
		},
		{
			"buffer":0,
			"byteLength":688,
			"byteOffset":269952,
			"target":34962
		},
		{
			"buffer":0,
			"byteLength":344,
			"byteOffset":270640,
			"target":34962
		},
		{
			"buffer":0,
			"byteLength":1376,
			"byteOffset":270984,
			"target":34962
		},
		{
			"buffer":0,
			"byteLength":648,
			"byteOffset":272360,
			"target":34963
		},
		{
			"buffer":0,
			"byteLength":832,
			"byteOffset":273008
		},
		{
			"buffer":0,
			"byteLength":160,
			"byteOffset":273840
		},
		{
			"buffer":0,
			"byteLength":480,
			"byteOffset":274000
		},
		{
			"buffer":0,
			"byteLength":640,
			"byteOffset":274480
		},
		{
			"buffer":0,
			"byteLength":8,
			"byteOffset":275120
		},
		{
			"buffer":0,
			"byteLength":24,
			"byteOffset":275128
		},
		{
			"buffer":0,
			"byteLength":24,
			"byteOffset":275152
		},
		{
			"buffer":0,
			"byteLength":640,
			"byteOffset":275176
		},
		{
			"buffer":0,
			"byteLength":24,
			"byteOffset":275816
		},
		{
			"buffer":0,
			"byteLength":24,
			"byteOffset":275840
		},
		{
			"buffer":0,
			"byteLength":640,
			"byteOffset":275864
		},
		{
			"buffer":0,
			"byteLength":24,
			"byteOffset":276504
		},
		{
			"buffer":0,
			"byteLength":24,
			"byteOffset":276528
		},
		{
			"buffer":0,
			"byteLength":640,
			"byteOffset":276552
		},
		{
			"buffer":0,
			"byteLength":24,
			"byteOffset":277192
		},
		{
			"buffer":0,
			"byteLength":24,
			"byteOffset":277216
		},
		{
			"buffer":0,
			"byteLength":640,
			"byteOffset":277240
		},
		{
			"buffer":0,
			"byteLength":24,
			"byteOffset":277880
		},
		{
			"buffer":0,
			"byteLength":24,
			"byteOffset":277904
		},
		{
			"buffer":0,
			"byteLength":640,
			"byteOffset":277928
		},
		{
			"buffer":0,
			"byteLength":24,
			"byteOffset":278568
		},
		{
			"buffer":0,
			"byteLength":24,
			"byteOffset":278592
		},
		{
			"buffer":0,
			"byteLength":32,
			"byteOffset":278616
		},
		{
			"buffer":0,
			"byteLength":24,
			"byteOffset":278648
		},
		{
			"buffer":0,
			"byteLength":24,
			"byteOffset":278672
		},
		{
			"buffer":0,
			"byteLength":640,
			"byteOffset":278696
		},
		{
			"buffer":0,
			"byteLength":24,
			"byteOffset":279336
		},
		{
			"buffer":0,
			"byteLength":24,
			"byteOffset":279360
		},
		{
			"buffer":0,
			"byteLength":640,
			"byteOffset":279384
		},
		{
			"buffer":0,
			"byteLength":24,
			"byteOffset":280024
		},
		{
			"buffer":0,
			"byteLength":24,
			"byteOffset":280048
		},
		{
			"buffer":0,
			"byteLength":640,
			"byteOffset":280072
		},
		{
			"buffer":0,
			"byteLength":24,
			"byteOffset":280712
		},
		{
			"buffer":0,
			"byteLength":24,
			"byteOffset":280736
		},
		{
			"buffer":0,
			"byteLength":32,
			"byteOffset":280760
		},
		{
			"buffer":0,
			"byteLength":24,
			"byteOffset":280792
		},
		{
			"buffer":0,
			"byteLength":24,
			"byteOffset":280816
		},
		{
			"buffer":0,
			"byteLength":640,
			"byteOffset":280840
		},
		{
			"buffer":0,
			"byteLength":24,
			"byteOffset":281480
		},
		{
			"buffer":0,
			"byteLength":24,
			"byteOffset":281504
		},
		{
			"buffer":0,
			"byteLength":32,
			"byteOffset":281528
		},
		{
			"buffer":0,
			"byteLength":24,
			"byteOffset":281560
		}
	],
	"samplers":[
		{
			"magFilter":9729,
			"minFilter":9987
		}
	],
	"buffers":[
		{
			"byteLength":281584,
			"uri":"playeWalk.bin"
		}
	]
}
