{
	"asset":{
		"generator":"Khronos glTF Blender I/O v4.2.57",
		"version":"2.0"
	},
	"scene":0,
	"scenes":[
		{
			"name":"Scene",
			"nodes":[
				14
			]
		}
	],
	"nodes":[
		{
			"name":"\u30dc\u30fc\u30f3.003",
			"rotation":[
				-0.03663158789277077,
				0.01588660292327404,
				0.5638319849967957,
				0.8249238133430481
			],
			"translation":[
				-3.090299960373244e-10,
				1.1720138788223267,
				1.8880086827266496e-08
			]
		},
		{
			"name":"\u30dc\u30fc\u30f3.004",
			"rotation":[
				-0.036988016217947006,
				-0.01560703944414854,
				-0.5588559508323669,
				0.8282924294471741
			],
			"translation":[
				1.2003035010366148e-07,
				1.1720138788223267,
				1.888010281447805e-08
			]
		},
		{
			"children":[
				0,
				1
			],
			"name":"\u30dc\u30fc\u30f3.002",
			"rotation":[
				0.07188659906387329,
				1.2590436249126924e-08,
				8.67372040858072e-09,
				0.9974128603935242
			],
			"scale":[
				1,
				0.9999998807907104,
				0.9999999403953552
			],
			"translation":[
				-3.063946869114563e-15,
				0.6670902371406555,
				3.3527612686157227e-08
			]
		},
		{
			"name":"\u30dc\u30fc\u30f3.006",
			"rotation":[
				0.005442293826490641,
				-0.00040860503213480115,
				-0.15298695862293243,
				0.9882131814956665
			],
			"scale":[
				0.9999999403953552,
				1,
				1
			],
			"translation":[
				-1.3969838619232178e-08,
				0.5320883989334106,
				-2.7939677238464355e-09
			]
		},
		{
			"children":[
				3
			],
			"name":"\u30dc\u30fc\u30f3.005",
			"rotation":[
				-0.006439338903874159,
				-3.0568131478503346e-05,
				0.8025645613670349,
				0.596530556678772
			],
			"scale":[
				0.9999998807907104,
				0.9999999403953552,
				1
			],
			"translation":[
				3.7979720701741826e-08,
				0.6670907139778137,
				4.107825191113079e-15
			]
		},
		{
			"name":"\u30dc\u30fc\u30f3.009",
			"rotation":[
				0.005088642239570618,
				0.00036985555198043585,
				0.1452283263206482,
				0.9893850684165955
			],
			"scale":[
				0.9999999403953552,
				1,
				1
			],
			"translation":[
				1.0244548320770264e-07,
				0.5615452527999878,
				-2.514570951461792e-08
			]
		},
		{
			"children":[
				5
			],
			"name":"\u30dc\u30fc\u30f3.008",
			"rotation":[
				-0.006040885578840971,
				2.6597970645525493e-05,
				-0.797842800617218,
				0.6028352975845337
			],
			"scale":[
				1,
				1,
				0.9999999403953552
			],
			"translation":[
				-2.0748702755923887e-09,
				0.6670902371406555,
				3.725290076417309e-09
			]
		},
		{
			"children":[
				2,
				4,
				6
			],
			"name":"\u30dc\u30fc\u30f3.001",
			"rotation":[
				0.08343194425106049,
				-7.334076457254923e-08,
				1.5153966970160582e-08,
				0.9965134859085083
			],
			"scale":[
				1,
				1.0000001192092896,
				1
			],
			"translation":[
				-8.398375082464935e-16,
				0.6178392767906189,
				4.470348358154297e-08
			]
		},
		{
			"name":"\u30dc\u30fc\u30f3.013",
			"rotation":[
				-0.4971748888492584,
				0.007654063403606415,
				0.02374143898487091,
				0.8672916889190674
			],
			"scale":[
				0.9999999403953552,
				1,
				1
			],
			"translation":[
				-5.139946246401905e-09,
				0.34884604811668396,
				-1.1986722370238567e-07
			]
		},
		{
			"children":[
				8
			],
			"name":"\u30dc\u30fc\u30f3.011",
			"rotation":[
				-0.5869635343551636,
				-0.31388095021247864,
				-0.622963011264801,
				0.4109375774860382
			],
			"translation":[
				-5.961464921711013e-08,
				-5.899994448554935e-08,
				1.182119913067936e-08
			]
		},
		{
			"name":"\u30dc\u30fc\u30f3.014",
			"rotation":[
				-0.4995512068271637,
				-0.00828290544450283,
				-0.02426466904580593,
				0.8659048676490784
			],
			"scale":[
				0.9999998807907104,
				0.9999999403953552,
				1
			],
			"translation":[
				2.7624338372334023e-09,
				0.3173399567604065,
				3.2779901459889516e-08
			]
		},
		{
			"children":[
				10
			],
			"name":"\u30dc\u30fc\u30f3.012",
			"rotation":[
				-0.5813801288604736,
				0.3233719766139984,
				0.6183756589889526,
				0.41837701201438904
			],
			"scale":[
				0.9999999403953552,
				0.9999999403953552,
				0.9999999403953552
			],
			"translation":[
				3.552713678800501e-15,
				0,
				1.4901161193847656e-08
			]
		},
		{
			"children":[
				7,
				9,
				11
			],
			"name":"\u30dc\u30fc\u30f3",
			"rotation":[
				-0.09678280353546143,
				1.2701592311259446e-07,
				-1.2350930056470588e-08,
				0.9953055381774902
			],
			"scale":[
				1,
				0.9999999403953552,
				0.9999999403953552
			],
			"translation":[
				0,
				0.9529486894607544,
				0
			]
		},
		{
			"mesh":0,
			"name":"\u7403",
			"skin":0
		},
		{
			"children":[
				13,
				12
			],
			"name":"\u30a2\u30fc\u30de\u30c1\u30e5\u30a2"
		}
	],
	"animations":[
		{
			"channels":[
				{
					"sampler":0,
					"target":{
						"node":12,
						"path":"translation"
					}
				},
				{
					"sampler":1,
					"target":{
						"node":12,
						"path":"rotation"
					}
				},
				{
					"sampler":2,
					"target":{
						"node":12,
						"path":"scale"
					}
				},
				{
					"sampler":3,
					"target":{
						"node":7,
						"path":"translation"
					}
				},
				{
					"sampler":4,
					"target":{
						"node":7,
						"path":"rotation"
					}
				},
				{
					"sampler":5,
					"target":{
						"node":7,
						"path":"scale"
					}
				},
				{
					"sampler":6,
					"target":{
						"node":2,
						"path":"translation"
					}
				},
				{
					"sampler":7,
					"target":{
						"node":2,
						"path":"rotation"
					}
				},
				{
					"sampler":8,
					"target":{
						"node":2,
						"path":"scale"
					}
				},
				{
					"sampler":9,
					"target":{
						"node":0,
						"path":"translation"
					}
				},
				{
					"sampler":10,
					"target":{
						"node":0,
						"path":"rotation"
					}
				},
				{
					"sampler":11,
					"target":{
						"node":0,
						"path":"scale"
					}
				},
				{
					"sampler":12,
					"target":{
						"node":1,
						"path":"translation"
					}
				},
				{
					"sampler":13,
					"target":{
						"node":1,
						"path":"rotation"
					}
				},
				{
					"sampler":14,
					"target":{
						"node":1,
						"path":"scale"
					}
				},
				{
					"sampler":15,
					"target":{
						"node":4,
						"path":"translation"
					}
				},
				{
					"sampler":16,
					"target":{
						"node":4,
						"path":"rotation"
					}
				},
				{
					"sampler":17,
					"target":{
						"node":4,
						"path":"scale"
					}
				},
				{
					"sampler":18,
					"target":{
						"node":3,
						"path":"translation"
					}
				},
				{
					"sampler":19,
					"target":{
						"node":3,
						"path":"rotation"
					}
				},
				{
					"sampler":20,
					"target":{
						"node":3,
						"path":"scale"
					}
				},
				{
					"sampler":21,
					"target":{
						"node":6,
						"path":"translation"
					}
				},
				{
					"sampler":22,
					"target":{
						"node":6,
						"path":"rotation"
					}
				},
				{
					"sampler":23,
					"target":{
						"node":6,
						"path":"scale"
					}
				},
				{
					"sampler":24,
					"target":{
						"node":5,
						"path":"translation"
					}
				},
				{
					"sampler":25,
					"target":{
						"node":5,
						"path":"rotation"
					}
				},
				{
					"sampler":26,
					"target":{
						"node":5,
						"path":"scale"
					}
				},
				{
					"sampler":27,
					"target":{
						"node":9,
						"path":"translation"
					}
				},
				{
					"sampler":28,
					"target":{
						"node":9,
						"path":"rotation"
					}
				},
				{
					"sampler":29,
					"target":{
						"node":9,
						"path":"scale"
					}
				},
				{
					"sampler":30,
					"target":{
						"node":8,
						"path":"translation"
					}
				},
				{
					"sampler":31,
					"target":{
						"node":8,
						"path":"rotation"
					}
				},
				{
					"sampler":32,
					"target":{
						"node":8,
						"path":"scale"
					}
				},
				{
					"sampler":33,
					"target":{
						"node":11,
						"path":"translation"
					}
				},
				{
					"sampler":34,
					"target":{
						"node":11,
						"path":"rotation"
					}
				},
				{
					"sampler":35,
					"target":{
						"node":11,
						"path":"scale"
					}
				},
				{
					"sampler":36,
					"target":{
						"node":10,
						"path":"translation"
					}
				},
				{
					"sampler":37,
					"target":{
						"node":10,
						"path":"rotation"
					}
				},
				{
					"sampler":38,
					"target":{
						"node":10,
						"path":"scale"
					}
				}
			],
			"name":"\u30a2\u30fc\u30de\u30c1\u30e5\u30a2\u30a2\u30af\u30b7\u30e7\u30f3.001",
			"samplers":[
				{
					"input":10,
					"interpolation":"LINEAR",
					"output":11
				},
				{
					"input":10,
					"interpolation":"LINEAR",
					"output":12
				},
				{
					"input":13,
					"interpolation":"STEP",
					"output":14
				},
				{
					"input":13,
					"interpolation":"STEP",
					"output":15
				},
				{
					"input":10,
					"interpolation":"LINEAR",
					"output":16
				},
				{
					"input":13,
					"interpolation":"STEP",
					"output":17
				},
				{
					"input":13,
					"interpolation":"STEP",
					"output":18
				},
				{
					"input":10,
					"interpolation":"LINEAR",
					"output":19
				},
				{
					"input":13,
					"interpolation":"STEP",
					"output":20
				},
				{
					"input":13,
					"interpolation":"STEP",
					"output":21
				},
				{
					"input":10,
					"interpolation":"LINEAR",
					"output":22
				},
				{
					"input":13,
					"interpolation":"STEP",
					"output":23
				},
				{
					"input":13,
					"interpolation":"STEP",
					"output":24
				},
				{
					"input":10,
					"interpolation":"LINEAR",
					"output":25
				},
				{
					"input":13,
					"interpolation":"STEP",
					"output":26
				},
				{
					"input":13,
					"interpolation":"STEP",
					"output":27
				},
				{
					"input":10,
					"interpolation":"LINEAR",
					"output":28
				},
				{
					"input":13,
					"interpolation":"STEP",
					"output":29
				},
				{
					"input":13,
					"interpolation":"STEP",
					"output":30
				},
				{
					"input":13,
					"interpolation":"STEP",
					"output":31
				},
				{
					"input":13,
					"interpolation":"STEP",
					"output":32
				},
				{
					"input":13,
					"interpolation":"STEP",
					"output":33
				},
				{
					"input":10,
					"interpolation":"LINEAR",
					"output":34
				},
				{
					"input":13,
					"interpolation":"STEP",
					"output":35
				},
				{
					"input":13,
					"interpolation":"STEP",
					"output":36
				},
				{
					"input":10,
					"interpolation":"LINEAR",
					"output":37
				},
				{
					"input":13,
					"interpolation":"STEP",
					"output":38
				},
				{
					"input":13,
					"interpolation":"STEP",
					"output":39
				},
				{
					"input":10,
					"interpolation":"LINEAR",
					"output":40
				},
				{
					"input":13,
					"interpolation":"STEP",
					"output":41
				},
				{
					"input":13,
					"interpolation":"STEP",
					"output":42
				},
				{
					"input":13,
					"interpolation":"STEP",
					"output":43
				},
				{
					"input":13,
					"interpolation":"STEP",
					"output":44
				},
				{
					"input":13,
					"interpolation":"STEP",
					"output":45
				},
				{
					"input":10,
					"interpolation":"LINEAR",
					"output":46
				},
				{
					"input":13,
					"interpolation":"STEP",
					"output":47
				},
				{
					"input":13,
					"interpolation":"STEP",
					"output":48
				},
				{
					"input":13,
					"interpolation":"STEP",
					"output":49
				},
				{
					"input":13,
					"interpolation":"STEP",
					"output":50
				}
			]
		}
	],
	"materials":[
		{
			"doubleSided":true,
			"name":"\u30de\u30c6\u30ea\u30a2\u30eb.003",
			"pbrMetallicRoughness":{
				"baseColorTexture":{
					"index":0
				},
				"metallicFactor":0,
				"roughnessFactor":0.5
			}
		}
	],
	"meshes":[
		{
			"name":"\u7403.037",
			"primitives":[
				{
					"attributes":{
						"POSITION":0,
						"NORMAL":1,
						"TEXCOORD_0":2,
						"COLOR_0":3,
						"COLOR_1":4,
						"COLOR_2":5,
						"JOINTS_0":6,
						"WEIGHTS_0":7
					},
					"indices":8,
					"material":0
				}
			]
		}
	],
	"textures":[
		{
			"sampler":0,
			"source":0
		}
	],
	"images":[
		{
			"mimeType":"image/png",
			"name":"player.png",
			"uri":"game/player.png"
		}
	],
	"skins":[
		{
			"inverseBindMatrices":9,
			"joints":[
				12,
				7,
				2,
				0,
				1,
				4,
				3,
				6,
				5,
				9,
				8,
				11,
				10
			],
			"name":"\u30a2\u30fc\u30de\u30c1\u30e5\u30a2"
		}
	],
	"accessors":[
		{
			"bufferView":0,
			"componentType":5126,
			"count":3712,
			"max":[
				1.8642652034759521,
				4.03340482711792,
				1.109700322151184
			],
			"min":[
				-1.8642655611038208,
				-0.002729177474975586,
				-0.8981235027313232
			],
			"type":"VEC3"
		},
		{
			"bufferView":1,
			"componentType":5126,
			"count":3712,
			"type":"VEC3"
		},
		{
			"bufferView":2,
			"componentType":5126,
			"count":3712,
			"type":"VEC2"
		},
		{
			"bufferView":3,
			"componentType":5121,
			"count":3712,
			"normalized":true,
			"type":"VEC4"
		},
		{
			"bufferView":4,
			"componentType":5126,
			"count":3712,
			"type":"VEC3"
		},
		{
			"bufferView":5,
			"componentType":5126,
			"count":3712,
			"type":"VEC3"
		},
		{
			"bufferView":6,
			"componentType":5121,
			"count":3712,
			"type":"VEC4"
		},
		{
			"bufferView":7,
			"componentType":5126,
			"count":3712,
			"type":"VEC4"
		},
		{
			"bufferView":8,
			"componentType":5123,
			"count":17847,
			"type":"SCALAR"
		},
		{
			"bufferView":9,
			"componentType":5126,
			"count":13,
			"type":"MAT4"
		},
		{
			"bufferView":10,
			"componentType":5126,
			"count":40,
			"max":[
				1.6666666666666667
			],
			"min":[
				0.041666666666666664
			],
			"type":"SCALAR"
		},
		{
			"bufferView":11,
			"componentType":5126,
			"count":40,
			"type":"VEC3"
		},
		{
			"bufferView":12,
			"componentType":5126,
			"count":40,
			"type":"VEC4"
		},
		{
			"bufferView":13,
			"componentType":5126,
			"count":2,
			"max":[
				1.6666666666666667
			],
			"min":[
				0.041666666666666664
			],
			"type":"SCALAR"
		},
		{
			"bufferView":14,
			"componentType":5126,
			"count":2,
			"type":"VEC3"
		},
		{
			"bufferView":15,
			"componentType":5126,
			"count":2,
			"type":"VEC3"
		},
		{
			"bufferView":16,
			"componentType":5126,
			"count":40,
			"type":"VEC4"
		},
		{
			"bufferView":17,
			"componentType":5126,
			"count":2,
			"type":"VEC3"
		},
		{
			"bufferView":18,
			"componentType":5126,
			"count":2,
			"type":"VEC3"
		},
		{
			"bufferView":19,
			"componentType":5126,
			"count":40,
			"type":"VEC4"
		},
		{
			"bufferView":20,
			"componentType":5126,
			"count":2,
			"type":"VEC3"
		},
		{
			"bufferView":21,
			"componentType":5126,
			"count":2,
			"type":"VEC3"
		},
		{
			"bufferView":22,
			"componentType":5126,
			"count":40,
			"type":"VEC4"
		},
		{
			"bufferView":23,
			"componentType":5126,
			"count":2,
			"type":"VEC3"
		},
		{
			"bufferView":24,
			"componentType":5126,
			"count":2,
			"type":"VEC3"
		},
		{
			"bufferView":25,
			"componentType":5126,
			"count":40,
			"type":"VEC4"
		},
		{
			"bufferView":26,
			"componentType":5126,
			"count":2,
			"type":"VEC3"
		},
		{
			"bufferView":27,
			"componentType":5126,
			"count":2,
			"type":"VEC3"
		},
		{
			"bufferView":28,
			"componentType":5126,
			"count":40,
			"type":"VEC4"
		},
		{
			"bufferView":29,
			"componentType":5126,
			"count":2,
			"type":"VEC3"
		},
		{
			"bufferView":30,
			"componentType":5126,
			"count":2,
			"type":"VEC3"
		},
		{
			"bufferView":31,
			"componentType":5126,
			"count":2,
			"type":"VEC4"
		},
		{
			"bufferView":32,
			"componentType":5126,
			"count":2,
			"type":"VEC3"
		},
		{
			"bufferView":33,
			"componentType":5126,
			"count":2,
			"type":"VEC3"
		},
		{
			"bufferView":34,
			"componentType":5126,
			"count":40,
			"type":"VEC4"
		},
		{
			"bufferView":35,
			"componentType":5126,
			"count":2,
			"type":"VEC3"
		},
		{
			"bufferView":36,
			"componentType":5126,
			"count":2,
			"type":"VEC3"
		},
		{
			"bufferView":37,
			"componentType":5126,
			"count":40,
			"type":"VEC4"
		},
		{
			"bufferView":38,
			"componentType":5126,
			"count":2,
			"type":"VEC3"
		},
		{
			"bufferView":39,
			"componentType":5126,
			"count":2,
			"type":"VEC3"
		},
		{
			"bufferView":40,
			"componentType":5126,
			"count":40,
			"type":"VEC4"
		},
		{
			"bufferView":41,
			"componentType":5126,
			"count":2,
			"type":"VEC3"
		},
		{
			"bufferView":42,
			"componentType":5126,
			"count":2,
			"type":"VEC3"
		},
		{
			"bufferView":43,
			"componentType":5126,
			"count":2,
			"type":"VEC4"
		},
		{
			"bufferView":44,
			"componentType":5126,
			"count":2,
			"type":"VEC3"
		},
		{
			"bufferView":45,
			"componentType":5126,
			"count":2,
			"type":"VEC3"
		},
		{
			"bufferView":46,
			"componentType":5126,
			"count":40,
			"type":"VEC4"
		},
		{
			"bufferView":47,
			"componentType":5126,
			"count":2,
			"type":"VEC3"
		},
		{
			"bufferView":48,
			"componentType":5126,
			"count":2,
			"type":"VEC3"
		},
		{
			"bufferView":49,
			"componentType":5126,
			"count":2,
			"type":"VEC4"
		},
		{
			"bufferView":50,
			"componentType":5126,
			"count":2,
			"type":"VEC3"
		}
	],
	"bufferViews":[
		{
			"buffer":0,
			"byteLength":44544,
			"byteOffset":0,
			"target":34962
		},
		{
			"buffer":0,
			"byteLength":44544,
			"byteOffset":44544,
			"target":34962
		},
		{
			"buffer":0,
			"byteLength":29696,
			"byteOffset":89088,
			"target":34962
		},
		{
			"buffer":0,
			"byteLength":14848,
			"byteOffset":118784,
			"target":34962
		},
		{
			"buffer":0,
			"byteLength":44544,
			"byteOffset":133632,
			"target":34962
		},
		{
			"buffer":0,
			"byteLength":44544,
			"byteOffset":178176,
			"target":34962
		},
		{
			"buffer":0,
			"byteLength":14848,
			"byteOffset":222720,
			"target":34962
		},
		{
			"buffer":0,
			"byteLength":59392,
			"byteOffset":237568,
			"target":34962
		},
		{
			"buffer":0,
			"byteLength":35694,
			"byteOffset":296960,
			"target":34963
		},
		{
			"buffer":0,
			"byteLength":832,
			"byteOffset":332656
		},
		{
			"buffer":0,
			"byteLength":160,
			"byteOffset":333488
		},
		{
			"buffer":0,
			"byteLength":480,
			"byteOffset":333648
		},
		{
			"buffer":0,
			"byteLength":640,
			"byteOffset":334128
		},
		{
			"buffer":0,
			"byteLength":8,
			"byteOffset":334768
		},
		{
			"buffer":0,
			"byteLength":24,
			"byteOffset":334776
		},
		{
			"buffer":0,
			"byteLength":24,
			"byteOffset":334800
		},
		{
			"buffer":0,
			"byteLength":640,
			"byteOffset":334824
		},
		{
			"buffer":0,
			"byteLength":24,
			"byteOffset":335464
		},
		{
			"buffer":0,
			"byteLength":24,
			"byteOffset":335488
		},
		{
			"buffer":0,
			"byteLength":640,
			"byteOffset":335512
		},
		{
			"buffer":0,
			"byteLength":24,
			"byteOffset":336152
		},
		{
			"buffer":0,
			"byteLength":24,
			"byteOffset":336176
		},
		{
			"buffer":0,
			"byteLength":640,
			"byteOffset":336200
		},
		{
			"buffer":0,
			"byteLength":24,
			"byteOffset":336840
		},
		{
			"buffer":0,
			"byteLength":24,
			"byteOffset":336864
		},
		{
			"buffer":0,
			"byteLength":640,
			"byteOffset":336888
		},
		{
			"buffer":0,
			"byteLength":24,
			"byteOffset":337528
		},
		{
			"buffer":0,
			"byteLength":24,
			"byteOffset":337552
		},
		{
			"buffer":0,
			"byteLength":640,
			"byteOffset":337576
		},
		{
			"buffer":0,
			"byteLength":24,
			"byteOffset":338216
		},
		{
			"buffer":0,
			"byteLength":24,
			"byteOffset":338240
		},
		{
			"buffer":0,
			"byteLength":32,
			"byteOffset":338264
		},
		{
			"buffer":0,
			"byteLength":24,
			"byteOffset":338296
		},
		{
			"buffer":0,
			"byteLength":24,
			"byteOffset":338320
		},
		{
			"buffer":0,
			"byteLength":640,
			"byteOffset":338344
		},
		{
			"buffer":0,
			"byteLength":24,
			"byteOffset":338984
		},
		{
			"buffer":0,
			"byteLength":24,
			"byteOffset":339008
		},
		{
			"buffer":0,
			"byteLength":640,
			"byteOffset":339032
		},
		{
			"buffer":0,
			"byteLength":24,
			"byteOffset":339672
		},
		{
			"buffer":0,
			"byteLength":24,
			"byteOffset":339696
		},
		{
			"buffer":0,
			"byteLength":640,
			"byteOffset":339720
		},
		{
			"buffer":0,
			"byteLength":24,
			"byteOffset":340360
		},
		{
			"buffer":0,
			"byteLength":24,
			"byteOffset":340384
		},
		{
			"buffer":0,
			"byteLength":32,
			"byteOffset":340408
		},
		{
			"buffer":0,
			"byteLength":24,
			"byteOffset":340440
		},
		{
			"buffer":0,
			"byteLength":24,
			"byteOffset":340464
		},
		{
			"buffer":0,
			"byteLength":640,
			"byteOffset":340488
		},
		{
			"buffer":0,
			"byteLength":24,
			"byteOffset":341128
		},
		{
			"buffer":0,
			"byteLength":24,
			"byteOffset":341152
		},
		{
			"buffer":0,
			"byteLength":32,
			"byteOffset":341176
		},
		{
			"buffer":0,
			"byteLength":24,
			"byteOffset":341208
		}
	],
	"samplers":[
		{
			"magFilter":9729,
			"minFilter":9987
		}
	],
	"buffers":[
		{
			"byteLength":341232,
			"uri":"playerWalk.bin"
		}
	]
}
