{
	"asset":{
		"generator":"Khronos glTF Blender I/O v4.3.47",
		"version":"2.0"
	},
	"scene":0,
	"scenes":[
		{
			"name":"Scene",
			"nodes":[
				14
			]
		}
	],
	"nodes":[
		{
			"name":"\u30dc\u30fc\u30f3.003",
			"rotation":[
				-0.03663153946399689,
				0.015886636450886726,
				0.5638318657875061,
				0.8249238729476929
			],
			"scale":[
				0.9999999403953552,
				1,
				0.9999998807907104
			],
			"translation":[
				2.0733497120600902e-18,
				1.1720141172409058,
				-1.5105213080346402e-08
			]
		},
		{
			"name":"\u30dc\u30fc\u30f3.004",
			"rotation":[
				-0.03698805347084999,
				-0.015606999397277832,
				-0.5588558912277222,
				0.8282924890518188
			],
			"scale":[
				1,
				1.0000001192092896,
				0.9999999403953552
			],
			"translation":[
				2.0733497120600902e-18,
				1.1720141172409058,
				-1.5105213080346402e-08
			]
		},
		{
			"children":[
				0,
				1
			],
			"name":"\u30dc\u30fc\u30f3.002",
			"rotation":[
				0.07188662886619568,
				-7.957264404681585e-13,
				4.575496578840266e-11,
				0.9974128007888794
			],
			"translation":[
				-1.0988770182966852e-17,
				0.6670905351638794,
				6.984919309616089e-09
			]
		},
		{
			"name":"\u30dc\u30fc\u30f3.006",
			"rotation":[
				0.005442300345748663,
				-0.00040854932740330696,
				-0.1529868245124817,
				0.9882131814956665
			],
			"scale":[
				0.9999999403953552,
				1.0000001192092896,
				1
			],
			"translation":[
				-1.1641532182693481e-08,
				0.5320883989334106,
				0
			]
		},
		{
			"children":[
				3
			],
			"name":"\u30dc\u30fc\u30f3.005",
			"rotation":[
				-0.006439317017793655,
				-3.0515189791913144e-05,
				0.8025645017623901,
				0.5965306162834167
			],
			"scale":[
				0.9999998211860657,
				0.9999998807907104,
				1
			],
			"translation":[
				-1.0988770182966852e-17,
				0.6670905351638794,
				6.984919309616089e-09
			]
		},
		{
			"name":"\u30dc\u30fc\u30f3.009",
			"rotation":[
				0.005088659003376961,
				0.00036976204137317836,
				0.14522814750671387,
				0.9893850684165955
			],
			"scale":[
				0.9999999403953552,
				1.0000001192092896,
				1
			],
			"translation":[
				-9.313225746154785e-10,
				0.5615454912185669,
				0
			]
		},
		{
			"children":[
				5
			],
			"name":"\u30dc\u30fc\u30f3.008",
			"rotation":[
				-0.006040957290679216,
				2.6634159439709038e-05,
				-0.7978427410125732,
				0.6028353571891785
			],
			"scale":[
				1,
				1,
				0.9999999403953552
			],
			"translation":[
				-1.0988770182966852e-17,
				0.6670905351638794,
				6.984919309616089e-09
			]
		},
		{
			"children":[
				2,
				4,
				6
			],
			"name":"\u30dc\u30fc\u30f3.001",
			"rotation":[
				0.08343198150396347,
				-1.1879480155130295e-07,
				9.999130412552404e-09,
				0.9965134859085083
			],
			"scale":[
				1,
				0.9999999403953552,
				0.9999999403953552
			],
			"translation":[
				3.1340648917629844e-15,
				0.6178392171859741,
				-1.4901161193847656e-08
			]
		},
		{
			"name":"\u30dc\u30fc\u30f3.013",
			"rotation":[
				-0.4971749484539032,
				0.007654146291315556,
				0.023741470649838448,
				0.8672916293144226
			],
			"scale":[
				0.9999999403953552,
				1.0000001192092896,
				1
			],
			"translation":[
				-3.5977674173182095e-09,
				0.34884586930274963,
				-4.3234695823457514e-08
			]
		},
		{
			"children":[
				8
			],
			"name":"\u30dc\u30fc\u30f3.011",
			"rotation":[
				-0.5869635343551636,
				-0.3138810098171234,
				-0.6229628920555115,
				0.4109376072883606
			],
			"scale":[
				0.9999999403953552,
				1.0000001192092896,
				1.0000001192092896
			],
			"translation":[
				-1.7763568394002505e-15,
				0,
				0
			]
		},
		{
			"name":"\u30dc\u30fc\u30f3.014",
			"rotation":[
				-0.4995511472225189,
				-0.008282964117825031,
				-0.02426472119987011,
				0.8659049272537231
			],
			"scale":[
				0.9999999403953552,
				1,
				0.9999999403953552
			],
			"translation":[
				-2.8106157401452947e-09,
				0.3173401951789856,
				-5.768254496274494e-08
			]
		},
		{
			"children":[
				10
			],
			"name":"\u30dc\u30fc\u30f3.012",
			"rotation":[
				-0.5813801884651184,
				0.3233719766139984,
				0.6183757185935974,
				0.4183769226074219
			],
			"scale":[
				0.9999999403953552,
				0.9999999403953552,
				0.9999999403953552
			],
			"translation":[
				-1.7763568394002505e-15,
				0,
				0
			]
		},
		{
			"children":[
				7,
				9,
				11
			],
			"name":"\u30dc\u30fc\u30f3",
			"rotation":[
				-0.09678269177675247,
				1.1896795371058033e-07,
				-1.1568344504553352e-08,
				0.9953055381774902
			],
			"translation":[
				0,
				-1.049904227256775,
				0
			]
		},
		{
			"mesh":0,
			"name":"\u7403",
			"skin":0
		},
		{
			"children":[
				13,
				12
			],
			"name":"\u30a2\u30fc\u30de\u30c1\u30e5\u30a2"
		}
	],
	"animations":[
		{
			"channels":[
				{
					"sampler":0,
					"target":{
						"node":12,
						"path":"translation"
					}
				},
				{
					"sampler":1,
					"target":{
						"node":12,
						"path":"rotation"
					}
				},
				{
					"sampler":2,
					"target":{
						"node":12,
						"path":"scale"
					}
				},
				{
					"sampler":3,
					"target":{
						"node":7,
						"path":"translation"
					}
				},
				{
					"sampler":4,
					"target":{
						"node":7,
						"path":"rotation"
					}
				},
				{
					"sampler":5,
					"target":{
						"node":7,
						"path":"scale"
					}
				},
				{
					"sampler":6,
					"target":{
						"node":2,
						"path":"translation"
					}
				},
				{
					"sampler":7,
					"target":{
						"node":2,
						"path":"rotation"
					}
				},
				{
					"sampler":8,
					"target":{
						"node":2,
						"path":"scale"
					}
				},
				{
					"sampler":9,
					"target":{
						"node":0,
						"path":"translation"
					}
				},
				{
					"sampler":10,
					"target":{
						"node":0,
						"path":"rotation"
					}
				},
				{
					"sampler":11,
					"target":{
						"node":0,
						"path":"scale"
					}
				},
				{
					"sampler":12,
					"target":{
						"node":1,
						"path":"translation"
					}
				},
				{
					"sampler":13,
					"target":{
						"node":1,
						"path":"rotation"
					}
				},
				{
					"sampler":14,
					"target":{
						"node":1,
						"path":"scale"
					}
				},
				{
					"sampler":15,
					"target":{
						"node":4,
						"path":"translation"
					}
				},
				{
					"sampler":16,
					"target":{
						"node":4,
						"path":"rotation"
					}
				},
				{
					"sampler":17,
					"target":{
						"node":4,
						"path":"scale"
					}
				},
				{
					"sampler":18,
					"target":{
						"node":3,
						"path":"translation"
					}
				},
				{
					"sampler":19,
					"target":{
						"node":3,
						"path":"rotation"
					}
				},
				{
					"sampler":20,
					"target":{
						"node":3,
						"path":"scale"
					}
				},
				{
					"sampler":21,
					"target":{
						"node":6,
						"path":"translation"
					}
				},
				{
					"sampler":22,
					"target":{
						"node":6,
						"path":"rotation"
					}
				},
				{
					"sampler":23,
					"target":{
						"node":6,
						"path":"scale"
					}
				},
				{
					"sampler":24,
					"target":{
						"node":5,
						"path":"translation"
					}
				},
				{
					"sampler":25,
					"target":{
						"node":5,
						"path":"rotation"
					}
				},
				{
					"sampler":26,
					"target":{
						"node":5,
						"path":"scale"
					}
				},
				{
					"sampler":27,
					"target":{
						"node":9,
						"path":"translation"
					}
				},
				{
					"sampler":28,
					"target":{
						"node":9,
						"path":"rotation"
					}
				},
				{
					"sampler":29,
					"target":{
						"node":9,
						"path":"scale"
					}
				},
				{
					"sampler":30,
					"target":{
						"node":8,
						"path":"translation"
					}
				},
				{
					"sampler":31,
					"target":{
						"node":8,
						"path":"rotation"
					}
				},
				{
					"sampler":32,
					"target":{
						"node":8,
						"path":"scale"
					}
				},
				{
					"sampler":33,
					"target":{
						"node":11,
						"path":"translation"
					}
				},
				{
					"sampler":34,
					"target":{
						"node":11,
						"path":"rotation"
					}
				},
				{
					"sampler":35,
					"target":{
						"node":11,
						"path":"scale"
					}
				},
				{
					"sampler":36,
					"target":{
						"node":10,
						"path":"translation"
					}
				},
				{
					"sampler":37,
					"target":{
						"node":10,
						"path":"rotation"
					}
				},
				{
					"sampler":38,
					"target":{
						"node":10,
						"path":"scale"
					}
				}
			],
			"name":"\u30a2\u30fc\u30de\u30c1\u30e5\u30a2\u30a2\u30af\u30b7\u30e7\u30f3",
			"samplers":[
				{
					"input":9,
					"interpolation":"STEP",
					"output":10
				},
				{
					"input":9,
					"interpolation":"STEP",
					"output":11
				},
				{
					"input":9,
					"interpolation":"STEP",
					"output":12
				},
				{
					"input":9,
					"interpolation":"STEP",
					"output":13
				},
				{
					"input":14,
					"interpolation":"LINEAR",
					"output":15
				},
				{
					"input":9,
					"interpolation":"STEP",
					"output":16
				},
				{
					"input":9,
					"interpolation":"STEP",
					"output":17
				},
				{
					"input":14,
					"interpolation":"LINEAR",
					"output":18
				},
				{
					"input":9,
					"interpolation":"STEP",
					"output":19
				},
				{
					"input":9,
					"interpolation":"STEP",
					"output":20
				},
				{
					"input":14,
					"interpolation":"LINEAR",
					"output":21
				},
				{
					"input":9,
					"interpolation":"STEP",
					"output":22
				},
				{
					"input":9,
					"interpolation":"STEP",
					"output":23
				},
				{
					"input":14,
					"interpolation":"LINEAR",
					"output":24
				},
				{
					"input":9,
					"interpolation":"STEP",
					"output":25
				},
				{
					"input":9,
					"interpolation":"STEP",
					"output":26
				},
				{
					"input":9,
					"interpolation":"STEP",
					"output":27
				},
				{
					"input":9,
					"interpolation":"STEP",
					"output":28
				},
				{
					"input":9,
					"interpolation":"STEP",
					"output":29
				},
				{
					"input":14,
					"interpolation":"LINEAR",
					"output":30
				},
				{
					"input":9,
					"interpolation":"STEP",
					"output":31
				},
				{
					"input":9,
					"interpolation":"STEP",
					"output":32
				},
				{
					"input":9,
					"interpolation":"STEP",
					"output":33
				},
				{
					"input":9,
					"interpolation":"STEP",
					"output":34
				},
				{
					"input":9,
					"interpolation":"STEP",
					"output":35
				},
				{
					"input":14,
					"interpolation":"LINEAR",
					"output":36
				},
				{
					"input":9,
					"interpolation":"STEP",
					"output":37
				},
				{
					"input":9,
					"interpolation":"STEP",
					"output":38
				},
				{
					"input":9,
					"interpolation":"STEP",
					"output":39
				},
				{
					"input":9,
					"interpolation":"STEP",
					"output":40
				},
				{
					"input":9,
					"interpolation":"STEP",
					"output":41
				},
				{
					"input":14,
					"interpolation":"LINEAR",
					"output":42
				},
				{
					"input":9,
					"interpolation":"STEP",
					"output":43
				},
				{
					"input":9,
					"interpolation":"STEP",
					"output":44
				},
				{
					"input":9,
					"interpolation":"STEP",
					"output":45
				},
				{
					"input":9,
					"interpolation":"STEP",
					"output":46
				},
				{
					"input":9,
					"interpolation":"STEP",
					"output":47
				},
				{
					"input":14,
					"interpolation":"LINEAR",
					"output":48
				},
				{
					"input":9,
					"interpolation":"STEP",
					"output":49
				}
			]
		}
	],
	"materials":[
		{
			"doubleSided":true,
			"name":"\u30de\u30c6\u30ea\u30a2\u30eb",
			"pbrMetallicRoughness":{
				"baseColorTexture":{
					"index":0
				},
				"metallicFactor":0,
				"roughnessFactor":0.5
			}
		}
	],
	"meshes":[
		{
			"name":"\u7403",
			"primitives":[
				{
					"attributes":{
						"POSITION":0,
						"NORMAL":1,
						"TEXCOORD_0":2,
						"COLOR_0":3,
						"COLOR_1":4,
						"JOINTS_0":5,
						"WEIGHTS_0":6
					},
					"indices":7,
					"material":0
				}
			]
		}
	],
	"textures":[
		{
			"sampler":0,
			"source":0
		}
	],
	"images":[
		{
			"mimeType":"image/png",
			"name":"player",
			"uri":"game/player.png"
		}
	],
	"skins":[
		{
			"inverseBindMatrices":8,
			"joints":[
				12,
				7,
				2,
				0,
				1,
				4,
				3,
				6,
				5,
				9,
				8,
				11,
				10
			],
			"name":"\u30a2\u30fc\u30de\u30c1\u30e5\u30a2"
		}
	],
	"accessors":[
		{
			"bufferView":0,
			"componentType":5126,
			"count":3708,
			"max":[
				1.8642653226852417,
				2.030552387237549,
				1.1097006797790527
			],
			"min":[
				-1.8642653226852417,
				-2.005582094192505,
				-0.8981235027313232
			],
			"type":"VEC3"
		},
		{
			"bufferView":1,
			"componentType":5126,
			"count":3708,
			"type":"VEC3"
		},
		{
			"bufferView":2,
			"componentType":5126,
			"count":3708,
			"type":"VEC2"
		},
		{
			"bufferView":3,
			"componentType":5121,
			"count":3708,
			"normalized":true,
			"type":"VEC4"
		},
		{
			"bufferView":4,
			"componentType":5123,
			"count":3708,
			"normalized":true,
			"type":"VEC4"
		},
		{
			"bufferView":5,
			"componentType":5121,
			"count":3708,
			"type":"VEC4"
		},
		{
			"bufferView":6,
			"componentType":5126,
			"count":3708,
			"type":"VEC4"
		},
		{
			"bufferView":7,
			"componentType":5123,
			"count":17847,
			"type":"SCALAR"
		},
		{
			"bufferView":8,
			"componentType":5126,
			"count":13,
			"type":"MAT4"
		},
		{
			"bufferView":9,
			"componentType":5126,
			"count":2,
			"max":[
				2.5
			],
			"min":[
				0.041666666666666664
			],
			"type":"SCALAR"
		},
		{
			"bufferView":10,
			"componentType":5126,
			"count":2,
			"type":"VEC3"
		},
		{
			"bufferView":11,
			"componentType":5126,
			"count":2,
			"type":"VEC4"
		},
		{
			"bufferView":12,
			"componentType":5126,
			"count":2,
			"type":"VEC3"
		},
		{
			"bufferView":13,
			"componentType":5126,
			"count":2,
			"type":"VEC3"
		},
		{
			"bufferView":14,
			"componentType":5126,
			"count":60,
			"max":[
				2.5
			],
			"min":[
				0.041666666666666664
			],
			"type":"SCALAR"
		},
		{
			"bufferView":15,
			"componentType":5126,
			"count":60,
			"type":"VEC4"
		},
		{
			"bufferView":16,
			"componentType":5126,
			"count":2,
			"type":"VEC3"
		},
		{
			"bufferView":17,
			"componentType":5126,
			"count":2,
			"type":"VEC3"
		},
		{
			"bufferView":18,
			"componentType":5126,
			"count":60,
			"type":"VEC4"
		},
		{
			"bufferView":19,
			"componentType":5126,
			"count":2,
			"type":"VEC3"
		},
		{
			"bufferView":20,
			"componentType":5126,
			"count":2,
			"type":"VEC3"
		},
		{
			"bufferView":21,
			"componentType":5126,
			"count":60,
			"type":"VEC4"
		},
		{
			"bufferView":22,
			"componentType":5126,
			"count":2,
			"type":"VEC3"
		},
		{
			"bufferView":23,
			"componentType":5126,
			"count":2,
			"type":"VEC3"
		},
		{
			"bufferView":24,
			"componentType":5126,
			"count":60,
			"type":"VEC4"
		},
		{
			"bufferView":25,
			"componentType":5126,
			"count":2,
			"type":"VEC3"
		},
		{
			"bufferView":26,
			"componentType":5126,
			"count":2,
			"type":"VEC3"
		},
		{
			"bufferView":27,
			"componentType":5126,
			"count":2,
			"type":"VEC4"
		},
		{
			"bufferView":28,
			"componentType":5126,
			"count":2,
			"type":"VEC3"
		},
		{
			"bufferView":29,
			"componentType":5126,
			"count":2,
			"type":"VEC3"
		},
		{
			"bufferView":30,
			"componentType":5126,
			"count":60,
			"type":"VEC4"
		},
		{
			"bufferView":31,
			"componentType":5126,
			"count":2,
			"type":"VEC3"
		},
		{
			"bufferView":32,
			"componentType":5126,
			"count":2,
			"type":"VEC3"
		},
		{
			"bufferView":33,
			"componentType":5126,
			"count":2,
			"type":"VEC4"
		},
		{
			"bufferView":34,
			"componentType":5126,
			"count":2,
			"type":"VEC3"
		},
		{
			"bufferView":35,
			"componentType":5126,
			"count":2,
			"type":"VEC3"
		},
		{
			"bufferView":36,
			"componentType":5126,
			"count":60,
			"type":"VEC4"
		},
		{
			"bufferView":37,
			"componentType":5126,
			"count":2,
			"type":"VEC3"
		},
		{
			"bufferView":38,
			"componentType":5126,
			"count":2,
			"type":"VEC3"
		},
		{
			"bufferView":39,
			"componentType":5126,
			"count":2,
			"type":"VEC4"
		},
		{
			"bufferView":40,
			"componentType":5126,
			"count":2,
			"type":"VEC3"
		},
		{
			"bufferView":41,
			"componentType":5126,
			"count":2,
			"type":"VEC3"
		},
		{
			"bufferView":42,
			"componentType":5126,
			"count":60,
			"type":"VEC4"
		},
		{
			"bufferView":43,
			"componentType":5126,
			"count":2,
			"type":"VEC3"
		},
		{
			"bufferView":44,
			"componentType":5126,
			"count":2,
			"type":"VEC3"
		},
		{
			"bufferView":45,
			"componentType":5126,
			"count":2,
			"type":"VEC4"
		},
		{
			"bufferView":46,
			"componentType":5126,
			"count":2,
			"type":"VEC3"
		},
		{
			"bufferView":47,
			"componentType":5126,
			"count":2,
			"type":"VEC3"
		},
		{
			"bufferView":48,
			"componentType":5126,
			"count":60,
			"type":"VEC4"
		},
		{
			"bufferView":49,
			"componentType":5126,
			"count":2,
			"type":"VEC3"
		}
	],
	"bufferViews":[
		{
			"buffer":0,
			"byteLength":44496,
			"byteOffset":0,
			"target":34962
		},
		{
			"buffer":0,
			"byteLength":44496,
			"byteOffset":44496,
			"target":34962
		},
		{
			"buffer":0,
			"byteLength":29664,
			"byteOffset":88992,
			"target":34962
		},
		{
			"buffer":0,
			"byteLength":14832,
			"byteOffset":118656,
			"target":34962
		},
		{
			"buffer":0,
			"byteLength":29664,
			"byteOffset":133488,
			"target":34962
		},
		{
			"buffer":0,
			"byteLength":14832,
			"byteOffset":163152,
			"target":34962
		},
		{
			"buffer":0,
			"byteLength":59328,
			"byteOffset":177984,
			"target":34962
		},
		{
			"buffer":0,
			"byteLength":35694,
			"byteOffset":237312,
			"target":34963
		},
		{
			"buffer":0,
			"byteLength":832,
			"byteOffset":273008
		},
		{
			"buffer":0,
			"byteLength":8,
			"byteOffset":273840
		},
		{
			"buffer":0,
			"byteLength":24,
			"byteOffset":273848
		},
		{
			"buffer":0,
			"byteLength":32,
			"byteOffset":273872
		},
		{
			"buffer":0,
			"byteLength":24,
			"byteOffset":273904
		},
		{
			"buffer":0,
			"byteLength":24,
			"byteOffset":273928
		},
		{
			"buffer":0,
			"byteLength":240,
			"byteOffset":273952
		},
		{
			"buffer":0,
			"byteLength":960,
			"byteOffset":274192
		},
		{
			"buffer":0,
			"byteLength":24,
			"byteOffset":275152
		},
		{
			"buffer":0,
			"byteLength":24,
			"byteOffset":275176
		},
		{
			"buffer":0,
			"byteLength":960,
			"byteOffset":275200
		},
		{
			"buffer":0,
			"byteLength":24,
			"byteOffset":276160
		},
		{
			"buffer":0,
			"byteLength":24,
			"byteOffset":276184
		},
		{
			"buffer":0,
			"byteLength":960,
			"byteOffset":276208
		},
		{
			"buffer":0,
			"byteLength":24,
			"byteOffset":277168
		},
		{
			"buffer":0,
			"byteLength":24,
			"byteOffset":277192
		},
		{
			"buffer":0,
			"byteLength":960,
			"byteOffset":277216
		},
		{
			"buffer":0,
			"byteLength":24,
			"byteOffset":278176
		},
		{
			"buffer":0,
			"byteLength":24,
			"byteOffset":278200
		},
		{
			"buffer":0,
			"byteLength":32,
			"byteOffset":278224
		},
		{
			"buffer":0,
			"byteLength":24,
			"byteOffset":278256
		},
		{
			"buffer":0,
			"byteLength":24,
			"byteOffset":278280
		},
		{
			"buffer":0,
			"byteLength":960,
			"byteOffset":278304
		},
		{
			"buffer":0,
			"byteLength":24,
			"byteOffset":279264
		},
		{
			"buffer":0,
			"byteLength":24,
			"byteOffset":279288
		},
		{
			"buffer":0,
			"byteLength":32,
			"byteOffset":279312
		},
		{
			"buffer":0,
			"byteLength":24,
			"byteOffset":279344
		},
		{
			"buffer":0,
			"byteLength":24,
			"byteOffset":279368
		},
		{
			"buffer":0,
			"byteLength":960,
			"byteOffset":279392
		},
		{
			"buffer":0,
			"byteLength":24,
			"byteOffset":280352
		},
		{
			"buffer":0,
			"byteLength":24,
			"byteOffset":280376
		},
		{
			"buffer":0,
			"byteLength":32,
			"byteOffset":280400
		},
		{
			"buffer":0,
			"byteLength":24,
			"byteOffset":280432
		},
		{
			"buffer":0,
			"byteLength":24,
			"byteOffset":280456
		},
		{
			"buffer":0,
			"byteLength":960,
			"byteOffset":280480
		},
		{
			"buffer":0,
			"byteLength":24,
			"byteOffset":281440
		},
		{
			"buffer":0,
			"byteLength":24,
			"byteOffset":281464
		},
		{
			"buffer":0,
			"byteLength":32,
			"byteOffset":281488
		},
		{
			"buffer":0,
			"byteLength":24,
			"byteOffset":281520
		},
		{
			"buffer":0,
			"byteLength":24,
			"byteOffset":281544
		},
		{
			"buffer":0,
			"byteLength":960,
			"byteOffset":281568
		},
		{
			"buffer":0,
			"byteLength":24,
			"byteOffset":282528
		}
	],
	"samplers":[
		{
			"magFilter":9729,
			"minFilter":9987
		}
	],
	"buffers":[
		{
			"byteLength":282552,
			"uri":"playerClearAfter2.bin"
		}
	]
}
