{
	"asset":{
		"generator":"Khronos glTF Blender I/O v4.2.57",
		"version":"2.0"
	},
	"scene":0,
	"scenes":[
		{
			"name":"Scene",
			"nodes":[
				14
			]
		}
	],
	"nodes":[
		{
			"name":"\u30dc\u30fc\u30f3.003",
			"rotation":[
				-0.036631617695093155,
				0.015886640176177025,
				0.5638318657875061,
				0.8249238729476929
			],
			"scale":[
				1,
				1.0000001192092896,
				0.9999999403953552
			],
			"translation":[
				-5.993963014816472e-08,
				1.172013521194458,
				1.908420266261146e-08
			]
		},
		{
			"name":"\u30dc\u30fc\u30f3.004",
			"rotation":[
				-0.03698808699846268,
				-0.015607153996825218,
				-0.5588558912277222,
				0.8282924294471741
			],
			"translation":[
				-5.909250688773682e-08,
				1.1720139980316162,
				-2.572131485578666e-08
			]
		},
		{
			"children":[
				0,
				1
			],
			"name":"\u30dc\u30fc\u30f3.002",
			"rotation":[
				0.07188659906387329,
				3.6981024464921575e-08,
				7.3977197700969555e-09,
				0.9974128007888794
			],
			"translation":[
				-1.2459600544226582e-15,
				0.6670903563499451,
				3.725290298461914e-09
			]
		},
		{
			"name":"\u30dc\u30fc\u30f3.006",
			"rotation":[
				0.005442317109555006,
				-0.00040881786844693124,
				-0.1529868245124817,
				0.9882131814956665
			],
			"scale":[
				0.9999998807907104,
				1,
				0.9999999403953552
			],
			"translation":[
				-1.0849907994270325e-07,
				0.5320883393287659,
				-1.3969838619232178e-09
			]
		},
		{
			"children":[
				3
			],
			"name":"\u30dc\u30fc\u30f3.005",
			"rotation":[
				-0.006439474876970053,
				-3.0444254662143067e-05,
				0.8025645613670349,
				0.596530556678772
			],
			"scale":[
				0.9999999403953552,
				0.9999999403953552,
				1
			],
			"translation":[
				-6.956580644867927e-09,
				0.6670905947685242,
				-7.450580596923828e-09
			]
		},
		{
			"name":"\u30dc\u30fc\u30f3.009",
			"rotation":[
				0.005088679492473602,
				0.00036996067501604557,
				0.14522820711135864,
				0.9893850684165955
			],
			"scale":[
				0.9999999403953552,
				1.0000001192092896,
				0.9999999403953552
			],
			"translation":[
				6.28642737865448e-08,
				0.5615454912185669,
				1.5366822481155396e-08
			]
		},
		{
			"children":[
				5
			],
			"name":"\u30dc\u30fc\u30f3.008",
			"rotation":[
				-0.0060410569421947,
				2.6494959456613287e-05,
				-0.7978427410125732,
				0.6028353571891785
			],
			"translation":[
				-2.191286929686953e-09,
				0.6670904755592346,
				3.725290076417309e-09
			]
		},
		{
			"children":[
				2,
				4,
				6
			],
			"name":"\u30dc\u30fc\u30f3.001",
			"rotation":[
				0.08343194425106049,
				-1.0029960861857035e-07,
				1.3889908778708104e-08,
				0.9965134859085083
			],
			"translation":[
				1.882516749229053e-15,
				0.617838978767395,
				-1.4901161193847656e-08
			]
		},
		{
			"name":"\u30dc\u30fc\u30f3.013",
			"rotation":[
				-0.49717482924461365,
				0.0076542566530406475,
				0.023741381242871284,
				0.8672917485237122
			],
			"scale":[
				0.9999998807907104,
				1,
				1.0000001192092896
			],
			"translation":[
				-4.205807258017558e-09,
				0.34884607791900635,
				-1.0697828400907383e-07
			]
		},
		{
			"children":[
				8
			],
			"name":"\u30dc\u30fc\u30f3.011",
			"rotation":[
				-0.5869635939598083,
				-0.31388092041015625,
				-0.6229629516601562,
				0.41093751788139343
			],
			"scale":[
				1.0000001192092896,
				1,
				0.9999999403953552
			],
			"translation":[
				-2.975470358990151e-08,
				5.541813674625473e-09,
				2.9627482689420503e-08
			]
		},
		{
			"name":"\u30dc\u30fc\u30f3.014",
			"rotation":[
				-0.499550998210907,
				-0.008283008821308613,
				-0.024264583364129066,
				0.8659050464630127
			],
			"scale":[
				0.9999999403953552,
				0.9999999403953552,
				1
			],
			"translation":[
				6.75673739181093e-09,
				0.3173401355743408,
				-1.7418101094790472e-07
			]
		},
		{
			"children":[
				10
			],
			"name":"\u30dc\u30fc\u30f3.012",
			"rotation":[
				-0.5813801884651184,
				0.32337188720703125,
				0.6183757185935974,
				0.4183769226074219
			],
			"scale":[
				0.9999998211860657,
				0.9999998807907104,
				0.9999998807907104
			],
			"translation":[
				-2.986020319895033e-08,
				3.225037126242114e-09,
				2.152211919792535e-08
			]
		},
		{
			"children":[
				7,
				9,
				11
			],
			"name":"\u30dc\u30fc\u30f3",
			"rotation":[
				-0.09678275138139725,
				1.3293916367729253e-07,
				-1.2926897774434565e-08,
				0.9953055381774902
			],
			"translation":[
				0,
				0.054607391357421875,
				0
			]
		},
		{
			"mesh":0,
			"name":"\u7403",
			"skin":0
		},
		{
			"children":[
				13,
				12
			],
			"name":"\u30a2\u30fc\u30de\u30c1\u30e5\u30a2"
		}
	],
	"animations":[
		{
			"channels":[
				{
					"sampler":0,
					"target":{
						"node":12,
						"path":"translation"
					}
				},
				{
					"sampler":1,
					"target":{
						"node":12,
						"path":"rotation"
					}
				},
				{
					"sampler":2,
					"target":{
						"node":12,
						"path":"scale"
					}
				},
				{
					"sampler":3,
					"target":{
						"node":7,
						"path":"translation"
					}
				},
				{
					"sampler":4,
					"target":{
						"node":7,
						"path":"rotation"
					}
				},
				{
					"sampler":5,
					"target":{
						"node":7,
						"path":"scale"
					}
				},
				{
					"sampler":6,
					"target":{
						"node":2,
						"path":"translation"
					}
				},
				{
					"sampler":7,
					"target":{
						"node":2,
						"path":"rotation"
					}
				},
				{
					"sampler":8,
					"target":{
						"node":2,
						"path":"scale"
					}
				},
				{
					"sampler":9,
					"target":{
						"node":0,
						"path":"translation"
					}
				},
				{
					"sampler":10,
					"target":{
						"node":0,
						"path":"rotation"
					}
				},
				{
					"sampler":11,
					"target":{
						"node":0,
						"path":"scale"
					}
				},
				{
					"sampler":12,
					"target":{
						"node":1,
						"path":"translation"
					}
				},
				{
					"sampler":13,
					"target":{
						"node":1,
						"path":"rotation"
					}
				},
				{
					"sampler":14,
					"target":{
						"node":1,
						"path":"scale"
					}
				},
				{
					"sampler":15,
					"target":{
						"node":4,
						"path":"translation"
					}
				},
				{
					"sampler":16,
					"target":{
						"node":4,
						"path":"rotation"
					}
				},
				{
					"sampler":17,
					"target":{
						"node":4,
						"path":"scale"
					}
				},
				{
					"sampler":18,
					"target":{
						"node":3,
						"path":"translation"
					}
				},
				{
					"sampler":19,
					"target":{
						"node":3,
						"path":"rotation"
					}
				},
				{
					"sampler":20,
					"target":{
						"node":3,
						"path":"scale"
					}
				},
				{
					"sampler":21,
					"target":{
						"node":6,
						"path":"translation"
					}
				},
				{
					"sampler":22,
					"target":{
						"node":6,
						"path":"rotation"
					}
				},
				{
					"sampler":23,
					"target":{
						"node":6,
						"path":"scale"
					}
				},
				{
					"sampler":24,
					"target":{
						"node":5,
						"path":"translation"
					}
				},
				{
					"sampler":25,
					"target":{
						"node":5,
						"path":"rotation"
					}
				},
				{
					"sampler":26,
					"target":{
						"node":5,
						"path":"scale"
					}
				},
				{
					"sampler":27,
					"target":{
						"node":9,
						"path":"translation"
					}
				},
				{
					"sampler":28,
					"target":{
						"node":9,
						"path":"rotation"
					}
				},
				{
					"sampler":29,
					"target":{
						"node":9,
						"path":"scale"
					}
				},
				{
					"sampler":30,
					"target":{
						"node":8,
						"path":"translation"
					}
				},
				{
					"sampler":31,
					"target":{
						"node":8,
						"path":"rotation"
					}
				},
				{
					"sampler":32,
					"target":{
						"node":8,
						"path":"scale"
					}
				},
				{
					"sampler":33,
					"target":{
						"node":11,
						"path":"translation"
					}
				},
				{
					"sampler":34,
					"target":{
						"node":11,
						"path":"rotation"
					}
				},
				{
					"sampler":35,
					"target":{
						"node":11,
						"path":"scale"
					}
				},
				{
					"sampler":36,
					"target":{
						"node":10,
						"path":"translation"
					}
				},
				{
					"sampler":37,
					"target":{
						"node":10,
						"path":"rotation"
					}
				},
				{
					"sampler":38,
					"target":{
						"node":10,
						"path":"scale"
					}
				}
			],
			"name":"\u30a2\u30fc\u30de\u30c1\u30e5\u30a2\u30a2\u30af\u30b7\u30e7\u30f3",
			"samplers":[
				{
					"input":9,
					"interpolation":"LINEAR",
					"output":10
				},
				{
					"input":9,
					"interpolation":"LINEAR",
					"output":11
				},
				{
					"input":12,
					"interpolation":"STEP",
					"output":13
				},
				{
					"input":12,
					"interpolation":"STEP",
					"output":14
				},
				{
					"input":9,
					"interpolation":"LINEAR",
					"output":15
				},
				{
					"input":12,
					"interpolation":"STEP",
					"output":16
				},
				{
					"input":12,
					"interpolation":"STEP",
					"output":17
				},
				{
					"input":9,
					"interpolation":"LINEAR",
					"output":18
				},
				{
					"input":12,
					"interpolation":"STEP",
					"output":19
				},
				{
					"input":12,
					"interpolation":"STEP",
					"output":20
				},
				{
					"input":12,
					"interpolation":"STEP",
					"output":21
				},
				{
					"input":12,
					"interpolation":"STEP",
					"output":22
				},
				{
					"input":12,
					"interpolation":"STEP",
					"output":23
				},
				{
					"input":12,
					"interpolation":"STEP",
					"output":24
				},
				{
					"input":12,
					"interpolation":"STEP",
					"output":25
				},
				{
					"input":12,
					"interpolation":"STEP",
					"output":26
				},
				{
					"input":9,
					"interpolation":"LINEAR",
					"output":27
				},
				{
					"input":12,
					"interpolation":"STEP",
					"output":28
				},
				{
					"input":12,
					"interpolation":"STEP",
					"output":29
				},
				{
					"input":9,
					"interpolation":"LINEAR",
					"output":30
				},
				{
					"input":12,
					"interpolation":"STEP",
					"output":31
				},
				{
					"input":12,
					"interpolation":"STEP",
					"output":32
				},
				{
					"input":9,
					"interpolation":"LINEAR",
					"output":33
				},
				{
					"input":12,
					"interpolation":"STEP",
					"output":34
				},
				{
					"input":12,
					"interpolation":"STEP",
					"output":35
				},
				{
					"input":9,
					"interpolation":"LINEAR",
					"output":36
				},
				{
					"input":12,
					"interpolation":"STEP",
					"output":37
				},
				{
					"input":12,
					"interpolation":"STEP",
					"output":38
				},
				{
					"input":9,
					"interpolation":"LINEAR",
					"output":39
				},
				{
					"input":12,
					"interpolation":"STEP",
					"output":40
				},
				{
					"input":12,
					"interpolation":"STEP",
					"output":41
				},
				{
					"input":9,
					"interpolation":"LINEAR",
					"output":42
				},
				{
					"input":12,
					"interpolation":"STEP",
					"output":43
				},
				{
					"input":12,
					"interpolation":"STEP",
					"output":44
				},
				{
					"input":9,
					"interpolation":"LINEAR",
					"output":45
				},
				{
					"input":12,
					"interpolation":"STEP",
					"output":46
				},
				{
					"input":12,
					"interpolation":"STEP",
					"output":47
				},
				{
					"input":9,
					"interpolation":"LINEAR",
					"output":48
				},
				{
					"input":12,
					"interpolation":"STEP",
					"output":49
				}
			]
		}
	],
	"materials":[
		{
			"doubleSided":true,
			"name":"\u30de\u30c6\u30ea\u30a2\u30eb",
			"pbrMetallicRoughness":{
				"metallicFactor":0,
				"roughnessFactor":0.5
			}
		}
	],
	"meshes":[
		{
			"name":"\u7403",
			"primitives":[
				{
					"attributes":{
						"POSITION":0,
						"NORMAL":1,
						"TEXCOORD_0":2,
						"COLOR_0":3,
						"COLOR_1":4,
						"JOINTS_0":5,
						"WEIGHTS_0":6
					},
					"indices":7,
					"material":0
				}
			]
		}
	],
	"skins":[
		{
			"inverseBindMatrices":8,
			"joints":[
				12,
				7,
				2,
				0,
				1,
				4,
				3,
				6,
				5,
				9,
				8,
				11,
				10
			],
			"name":"\u30a2\u30fc\u30de\u30c1\u30e5\u30a2"
		}
	],
	"accessors":[
		{
			"bufferView":0,
			"componentType":5126,
			"count":3708,
			"max":[
				1.8642653226852417,
				3.135063886642456,
				1.1097004413604736
			],
			"min":[
				-1.8642655611038208,
				-0.9010708332061768,
				-0.8981233835220337
			],
			"type":"VEC3"
		},
		{
			"bufferView":1,
			"componentType":5126,
			"count":3708,
			"type":"VEC3"
		},
		{
			"bufferView":2,
			"componentType":5126,
			"count":3708,
			"type":"VEC2"
		},
		{
			"bufferView":3,
			"componentType":5126,
			"count":3708,
			"type":"VEC3"
		},
		{
			"bufferView":4,
			"componentType":5126,
			"count":3708,
			"type":"VEC3"
		},
		{
			"bufferView":5,
			"componentType":5121,
			"count":3708,
			"type":"VEC4"
		},
		{
			"bufferView":6,
			"componentType":5126,
			"count":3708,
			"type":"VEC4"
		},
		{
			"bufferView":7,
			"componentType":5123,
			"count":17847,
			"type":"SCALAR"
		},
		{
			"bufferView":8,
			"componentType":5126,
			"count":13,
			"type":"MAT4"
		},
		{
			"bufferView":9,
			"componentType":5126,
			"count":40,
			"max":[
				1.625
			],
			"min":[
				0
			],
			"type":"SCALAR"
		},
		{
			"bufferView":10,
			"componentType":5126,
			"count":40,
			"type":"VEC3"
		},
		{
			"bufferView":11,
			"componentType":5126,
			"count":40,
			"type":"VEC4"
		},
		{
			"bufferView":12,
			"componentType":5126,
			"count":2,
			"max":[
				1.625
			],
			"min":[
				0
			],
			"type":"SCALAR"
		},
		{
			"bufferView":13,
			"componentType":5126,
			"count":2,
			"type":"VEC3"
		},
		{
			"bufferView":14,
			"componentType":5126,
			"count":2,
			"type":"VEC3"
		},
		{
			"bufferView":15,
			"componentType":5126,
			"count":40,
			"type":"VEC4"
		},
		{
			"bufferView":16,
			"componentType":5126,
			"count":2,
			"type":"VEC3"
		},
		{
			"bufferView":17,
			"componentType":5126,
			"count":2,
			"type":"VEC3"
		},
		{
			"bufferView":18,
			"componentType":5126,
			"count":40,
			"type":"VEC4"
		},
		{
			"bufferView":19,
			"componentType":5126,
			"count":2,
			"type":"VEC3"
		},
		{
			"bufferView":20,
			"componentType":5126,
			"count":2,
			"type":"VEC3"
		},
		{
			"bufferView":21,
			"componentType":5126,
			"count":2,
			"type":"VEC4"
		},
		{
			"bufferView":22,
			"componentType":5126,
			"count":2,
			"type":"VEC3"
		},
		{
			"bufferView":23,
			"componentType":5126,
			"count":2,
			"type":"VEC3"
		},
		{
			"bufferView":24,
			"componentType":5126,
			"count":2,
			"type":"VEC4"
		},
		{
			"bufferView":25,
			"componentType":5126,
			"count":2,
			"type":"VEC3"
		},
		{
			"bufferView":26,
			"componentType":5126,
			"count":2,
			"type":"VEC3"
		},
		{
			"bufferView":27,
			"componentType":5126,
			"count":40,
			"type":"VEC4"
		},
		{
			"bufferView":28,
			"componentType":5126,
			"count":2,
			"type":"VEC3"
		},
		{
			"bufferView":29,
			"componentType":5126,
			"count":2,
			"type":"VEC3"
		},
		{
			"bufferView":30,
			"componentType":5126,
			"count":40,
			"type":"VEC4"
		},
		{
			"bufferView":31,
			"componentType":5126,
			"count":2,
			"type":"VEC3"
		},
		{
			"bufferView":32,
			"componentType":5126,
			"count":2,
			"type":"VEC3"
		},
		{
			"bufferView":33,
			"componentType":5126,
			"count":40,
			"type":"VEC4"
		},
		{
			"bufferView":34,
			"componentType":5126,
			"count":2,
			"type":"VEC3"
		},
		{
			"bufferView":35,
			"componentType":5126,
			"count":2,
			"type":"VEC3"
		},
		{
			"bufferView":36,
			"componentType":5126,
			"count":40,
			"type":"VEC4"
		},
		{
			"bufferView":37,
			"componentType":5126,
			"count":2,
			"type":"VEC3"
		},
		{
			"bufferView":38,
			"componentType":5126,
			"count":2,
			"type":"VEC3"
		},
		{
			"bufferView":39,
			"componentType":5126,
			"count":40,
			"type":"VEC4"
		},
		{
			"bufferView":40,
			"componentType":5126,
			"count":2,
			"type":"VEC3"
		},
		{
			"bufferView":41,
			"componentType":5126,
			"count":2,
			"type":"VEC3"
		},
		{
			"bufferView":42,
			"componentType":5126,
			"count":40,
			"type":"VEC4"
		},
		{
			"bufferView":43,
			"componentType":5126,
			"count":2,
			"type":"VEC3"
		},
		{
			"bufferView":44,
			"componentType":5126,
			"count":2,
			"type":"VEC3"
		},
		{
			"bufferView":45,
			"componentType":5126,
			"count":40,
			"type":"VEC4"
		},
		{
			"bufferView":46,
			"componentType":5126,
			"count":2,
			"type":"VEC3"
		},
		{
			"bufferView":47,
			"componentType":5126,
			"count":2,
			"type":"VEC3"
		},
		{
			"bufferView":48,
			"componentType":5126,
			"count":40,
			"type":"VEC4"
		},
		{
			"bufferView":49,
			"componentType":5126,
			"count":2,
			"type":"VEC3"
		}
	],
	"bufferViews":[
		{
			"buffer":0,
			"byteLength":44496,
			"byteOffset":0,
			"target":34962
		},
		{
			"buffer":0,
			"byteLength":44496,
			"byteOffset":44496,
			"target":34962
		},
		{
			"buffer":0,
			"byteLength":29664,
			"byteOffset":88992,
			"target":34962
		},
		{
			"buffer":0,
			"byteLength":44496,
			"byteOffset":118656,
			"target":34962
		},
		{
			"buffer":0,
			"byteLength":44496,
			"byteOffset":163152,
			"target":34962
		},
		{
			"buffer":0,
			"byteLength":14832,
			"byteOffset":207648,
			"target":34962
		},
		{
			"buffer":0,
			"byteLength":59328,
			"byteOffset":222480,
			"target":34962
		},
		{
			"buffer":0,
			"byteLength":35694,
			"byteOffset":281808,
			"target":34963
		},
		{
			"buffer":0,
			"byteLength":832,
			"byteOffset":317504
		},
		{
			"buffer":0,
			"byteLength":160,
			"byteOffset":318336
		},
		{
			"buffer":0,
			"byteLength":480,
			"byteOffset":318496
		},
		{
			"buffer":0,
			"byteLength":640,
			"byteOffset":318976
		},
		{
			"buffer":0,
			"byteLength":8,
			"byteOffset":319616
		},
		{
			"buffer":0,
			"byteLength":24,
			"byteOffset":319624
		},
		{
			"buffer":0,
			"byteLength":24,
			"byteOffset":319648
		},
		{
			"buffer":0,
			"byteLength":640,
			"byteOffset":319672
		},
		{
			"buffer":0,
			"byteLength":24,
			"byteOffset":320312
		},
		{
			"buffer":0,
			"byteLength":24,
			"byteOffset":320336
		},
		{
			"buffer":0,
			"byteLength":640,
			"byteOffset":320360
		},
		{
			"buffer":0,
			"byteLength":24,
			"byteOffset":321000
		},
		{
			"buffer":0,
			"byteLength":24,
			"byteOffset":321024
		},
		{
			"buffer":0,
			"byteLength":32,
			"byteOffset":321048
		},
		{
			"buffer":0,
			"byteLength":24,
			"byteOffset":321080
		},
		{
			"buffer":0,
			"byteLength":24,
			"byteOffset":321104
		},
		{
			"buffer":0,
			"byteLength":32,
			"byteOffset":321128
		},
		{
			"buffer":0,
			"byteLength":24,
			"byteOffset":321160
		},
		{
			"buffer":0,
			"byteLength":24,
			"byteOffset":321184
		},
		{
			"buffer":0,
			"byteLength":640,
			"byteOffset":321208
		},
		{
			"buffer":0,
			"byteLength":24,
			"byteOffset":321848
		},
		{
			"buffer":0,
			"byteLength":24,
			"byteOffset":321872
		},
		{
			"buffer":0,
			"byteLength":640,
			"byteOffset":321896
		},
		{
			"buffer":0,
			"byteLength":24,
			"byteOffset":322536
		},
		{
			"buffer":0,
			"byteLength":24,
			"byteOffset":322560
		},
		{
			"buffer":0,
			"byteLength":640,
			"byteOffset":322584
		},
		{
			"buffer":0,
			"byteLength":24,
			"byteOffset":323224
		},
		{
			"buffer":0,
			"byteLength":24,
			"byteOffset":323248
		},
		{
			"buffer":0,
			"byteLength":640,
			"byteOffset":323272
		},
		{
			"buffer":0,
			"byteLength":24,
			"byteOffset":323912
		},
		{
			"buffer":0,
			"byteLength":24,
			"byteOffset":323936
		},
		{
			"buffer":0,
			"byteLength":640,
			"byteOffset":323960
		},
		{
			"buffer":0,
			"byteLength":24,
			"byteOffset":324600
		},
		{
			"buffer":0,
			"byteLength":24,
			"byteOffset":324624
		},
		{
			"buffer":0,
			"byteLength":640,
			"byteOffset":324648
		},
		{
			"buffer":0,
			"byteLength":24,
			"byteOffset":325288
		},
		{
			"buffer":0,
			"byteLength":24,
			"byteOffset":325312
		},
		{
			"buffer":0,
			"byteLength":640,
			"byteOffset":325336
		},
		{
			"buffer":0,
			"byteLength":24,
			"byteOffset":325976
		},
		{
			"buffer":0,
			"byteLength":24,
			"byteOffset":326000
		},
		{
			"buffer":0,
			"byteLength":640,
			"byteOffset":326024
		},
		{
			"buffer":0,
			"byteLength":24,
			"byteOffset":326664
		}
	],
	"buffers":[
		{
			"byteLength":326688,
			"uri":"playerJump.bin"
		}
	]
}
