# Blender 4.3.2
# www.blender.org
mtllib A.mtl
o テキスト.001
v -0.103405 0.269034 -1.252218
v -0.078115 0.269034 -1.167217
v 0.103128 0.269034 -1.167217
v 0.128067 0.269034 -1.252218
v 0.290694 0.269034 -1.252218
v 0.097157 0.269034 -0.737290
v -0.076359 0.269034 -0.737290
v -0.269896 0.269034 -1.252218
v 0.068706 0.269034 -1.055871
v -0.044747 0.269034 -1.055871
v 0.012155 0.269034 -0.870764
v -0.103405 0.156211 -1.252218
v -0.078115 0.156211 -1.167217
v 0.103128 0.156211 -1.167217
v 0.128067 0.156211 -1.252218
v 0.290694 0.156211 -1.252218
v 0.097157 0.156211 -0.737290
v -0.076359 0.156211 -0.737290
v -0.269896 0.156211 -1.252218
v 0.068706 0.156211 -1.055871
v -0.044747 0.156211 -1.055871
v 0.012155 0.156211 -0.870764
v -0.103405 0.156211 -1.252218
v -0.103405 0.269034 -1.252218
v -0.078115 0.156211 -1.167217
v -0.078115 0.269034 -1.167217
v 0.103128 0.156211 -1.167217
v 0.103128 0.269034 -1.167217
v 0.128067 0.156211 -1.252218
v 0.128067 0.269034 -1.252218
v 0.290694 0.156211 -1.252218
v 0.290694 0.269034 -1.252218
v 0.097157 0.156211 -0.737290
v 0.097157 0.269034 -0.737290
v -0.076359 0.156211 -0.737290
v -0.076359 0.269034 -0.737290
v -0.269896 0.156211 -1.252218
v -0.269896 0.269034 -1.252218
v 0.068706 0.156211 -1.055871
v 0.068706 0.269034 -1.055871
v -0.044747 0.156211 -1.055871
v -0.044747 0.269034 -1.055871
v 0.012155 0.156211 -0.870764
v 0.012155 0.269034 -0.870764
v 0.000000 0.192961 -0.695284
v 0.000000 0.143736 -0.539549
v 0.000000 0.079421 -0.455265
v 0.000000 0.044613 -0.444419
v -0.021484 0.219601 -0.900879
v -0.042142 0.209448 -0.797024
v -0.061180 0.192961 -0.701310
v -0.077868 0.170773 -0.617417
v -0.091563 0.143736 -0.548567
v -0.101739 0.112890 -0.497407
v -0.108006 0.079421 -0.465903
v -0.110122 0.044613 -0.455265
v -0.042142 0.219601 -0.907145
v -0.082664 0.209448 -0.809316
v -0.120009 0.192961 -0.719156
v -0.152743 0.170773 -0.640130
v -0.179607 0.143736 -0.575275
v -0.199568 0.112890 -0.527083
v -0.211861 0.079421 -0.497407
v -0.216011 0.044613 -0.487387
v -0.061180 0.219601 -0.917322
v -0.120009 0.209448 -0.829277
v -0.174227 0.192961 -0.748136
v -0.221749 0.170773 -0.677014
v -0.260749 0.143736 -0.618646
v -0.289729 0.112890 -0.575275
v -0.307574 0.079421 -0.548567
v -0.313600 0.044613 -0.539549
v -0.077868 0.219601 -0.931017
v -0.152743 0.209448 -0.856141
v -0.221749 0.192961 -0.787136
v -0.282232 0.170773 -0.726652
v -0.331870 0.143736 -0.677014
v -0.368754 0.112890 -0.640130
v -0.391468 0.079421 -0.617417
v -0.399137 0.044613 -0.609747
v -0.091563 0.219601 -0.947704
v -0.179607 0.209448 -0.888875
v -0.260749 0.192961 -0.834658
v -0.331870 0.170773 -0.787136
v -0.390238 0.143736 -0.748136
v -0.433609 0.112890 -0.719156
v -0.460317 0.079421 -0.701310
v -0.469335 0.044613 -0.695284
v 0.000000 0.223029 -1.008884
v -0.101739 0.219601 -0.966743
v -0.199568 0.209448 -0.926220
v -0.289729 0.192961 -0.888875
v -0.368754 0.170773 -0.856141
v -0.433609 0.143736 -0.829278
v -0.481801 0.112890 -0.809316
v -0.511477 0.079421 -0.797024
v -0.521497 0.044613 -0.792873
v -0.108006 0.219601 -0.987401
v -0.211861 0.209448 -0.966743
v -0.307574 0.192961 -0.947704
v -0.391468 0.170773 -0.931017
v -0.460317 0.143736 -0.917322
v -0.511477 0.112890 -0.907145
v -0.542981 0.079421 -0.900879
v -0.553619 0.044613 -0.898763
v -0.110122 0.219601 -1.008884
v -0.216011 0.209448 -1.008884
v -0.313600 0.192961 -1.008884
v -0.399137 0.170773 -1.008884
v -0.469335 0.143736 -1.008884
v -0.521498 0.112890 -1.008884
v -0.553619 0.079421 -1.008884
v -0.564465 0.044613 -1.008884
v -0.108006 0.219601 -1.030368
v -0.211861 0.209448 -1.051026
v -0.307574 0.192961 -1.070065
v -0.391468 0.170773 -1.086752
v -0.460317 0.143736 -1.100447
v -0.511477 0.112890 -1.110623
v -0.542981 0.079421 -1.116890
v -0.553619 0.044613 -1.119006
v -0.101739 0.219601 -1.051026
v -0.199568 0.209448 -1.091548
v -0.289728 0.192961 -1.128894
v -0.368754 0.170773 -1.161627
v -0.433609 0.143736 -1.188491
v -0.481801 0.112890 -1.208453
v -0.511477 0.079421 -1.220745
v -0.521497 0.044613 -1.224896
v -0.091563 0.219601 -1.070065
v -0.179607 0.209448 -1.128894
v -0.260749 0.192961 -1.183111
v -0.331870 0.170773 -1.230633
v -0.390238 0.143736 -1.269633
v -0.433609 0.112890 -1.298613
v -0.460317 0.079421 -1.316458
v -0.469335 0.044613 -1.322484
v -0.077868 0.219601 -1.086752
v -0.152743 0.209448 -1.161627
v -0.221749 0.192961 -1.230633
v -0.282232 0.170773 -1.291117
v -0.331870 0.143736 -1.340755
v -0.368754 0.112890 -1.377639
v -0.391468 0.079421 -1.400352
v -0.399137 0.044613 -1.408021
v -0.061180 0.219601 -1.100447
v -0.120009 0.209448 -1.188491
v -0.174227 0.192961 -1.269633
v -0.221749 0.170773 -1.340755
v -0.260749 0.143736 -1.399122
v -0.289729 0.112890 -1.442494
v -0.307574 0.079421 -1.469202
v -0.313600 0.044613 -1.478220
v -0.042142 0.219601 -1.110623
v -0.082664 0.209448 -1.208453
v -0.120009 0.192961 -1.298613
v -0.152743 0.170773 -1.377639
v -0.179607 0.143736 -1.442494
v -0.199568 0.112890 -1.490685
v -0.211861 0.079421 -1.520361
v -0.216011 0.044613 -1.530382
v -0.021484 0.219601 -1.116890
v -0.042142 0.209448 -1.220745
v -0.061180 0.192961 -1.316458
v -0.077868 0.170773 -1.400352
v -0.091563 0.143736 -1.469201
v -0.101739 0.112890 -1.520361
v -0.108006 0.079421 -1.551865
v -0.110121 0.044613 -1.562503
v 0.000000 0.219601 -1.119006
v 0.000000 0.209448 -1.224896
v 0.000000 0.192961 -1.322484
v 0.000000 0.170773 -1.408021
v 0.000000 0.143736 -1.478220
v -0.000000 0.112890 -1.530382
v 0.000000 0.079421 -1.562503
v 0.000000 0.044613 -1.573349
v 0.021484 0.219601 -1.116890
v 0.042142 0.209448 -1.220745
v 0.061180 0.192961 -1.316458
v 0.077868 0.170773 -1.400352
v 0.091563 0.143736 -1.469201
v 0.101739 0.112890 -1.520361
v 0.108006 0.079421 -1.551865
v 0.110122 0.044613 -1.562503
v 0.042142 0.219601 -1.110623
v 0.082664 0.209448 -1.208453
v 0.120009 0.192961 -1.298613
v 0.152743 0.170773 -1.377639
v 0.179607 0.143736 -1.442493
v 0.199568 0.112890 -1.490685
v 0.211861 0.079421 -1.520361
v 0.216011 0.044613 -1.530381
v 0.061180 0.219601 -1.100447
v 0.120009 0.209448 -1.188491
v 0.174227 0.192961 -1.269633
v 0.221749 0.170773 -1.340755
v 0.260749 0.143736 -1.399122
v 0.289728 0.112890 -1.442494
v 0.307574 0.079421 -1.469201
v 0.313600 0.044613 -1.478219
v 0.077868 0.219601 -1.086752
v 0.152743 0.209448 -1.161627
v 0.221749 0.192961 -1.230633
v 0.282232 0.170773 -1.291117
v 0.331870 0.143736 -1.340754
v 0.368754 0.112890 -1.377639
v 0.391468 0.079421 -1.400352
v 0.399137 0.044613 -1.408021
v 0.091563 0.219601 -1.070065
v 0.179607 0.209448 -1.128894
v 0.260749 0.192961 -1.183111
v 0.331870 0.170773 -1.230633
v 0.390238 0.143736 -1.269633
v 0.433609 0.112890 -1.298613
v 0.460317 0.079421 -1.316458
v 0.469335 0.044613 -1.322484
v 0.101739 0.219601 -1.051026
v 0.199568 0.209448 -1.091548
v 0.289728 0.192961 -1.128894
v 0.368754 0.170773 -1.161627
v 0.433609 0.143736 -1.188491
v 0.481801 0.112890 -1.208453
v 0.511477 0.079421 -1.220745
v 0.521497 0.044613 -1.224895
v 0.108006 0.219601 -1.030368
v 0.211861 0.209448 -1.051026
v 0.307574 0.192961 -1.070065
v 0.391468 0.170773 -1.086752
v 0.460317 0.143736 -1.100447
v 0.511477 0.112890 -1.110623
v 0.542981 0.079421 -1.116890
v 0.553618 0.044613 -1.119006
v 0.110122 0.219601 -1.008884
v 0.216011 0.209448 -1.008884
v 0.313600 0.192961 -1.008884
v 0.399137 0.170773 -1.008884
v 0.469335 0.143736 -1.008884
v 0.521497 0.112890 -1.008884
v 0.553619 0.079421 -1.008884
v 0.564464 0.044613 -1.008884
v 0.108006 0.219601 -0.987401
v 0.211861 0.209448 -0.966743
v 0.307574 0.192961 -0.947704
v 0.391468 0.170773 -0.931017
v 0.460317 0.143736 -0.917321
v 0.511477 0.112890 -0.907145
v 0.542981 0.079421 -0.900879
v 0.553618 0.044613 -0.898763
v 0.101739 0.219601 -0.966743
v 0.199568 0.209448 -0.926220
v 0.289728 0.192961 -0.888875
v 0.368754 0.170773 -0.856141
v 0.433609 0.143736 -0.829277
v 0.481801 0.112890 -0.809316
v 0.511477 0.079421 -0.797024
v 0.521497 0.044613 -0.792873
v 0.091563 0.219601 -0.947704
v 0.179607 0.209448 -0.888875
v 0.260748 0.192961 -0.834658
v 0.331870 0.170773 -0.787136
v 0.390238 0.143736 -0.748136
v 0.433609 0.112890 -0.719156
v 0.460317 0.079421 -0.701310
v 0.469335 0.044613 -0.695284
v 0.077868 0.219601 -0.931017
v 0.152743 0.209448 -0.856141
v 0.221748 0.192961 -0.787136
v 0.282232 0.170773 -0.726652
v 0.331870 0.143736 -0.677014
v 0.368754 0.112890 -0.640130
v 0.391467 0.079421 -0.617417
v 0.399136 0.044613 -0.609748
v 0.061180 0.219601 -0.917322
v 0.120009 0.209448 -0.829278
v 0.174226 0.192961 -0.748136
v 0.221749 0.170773 -0.677014
v 0.260749 0.143736 -0.618646
v 0.289728 0.112890 -0.575275
v 0.307574 0.079421 -0.548567
v 0.313599 0.044613 -0.539549
v 0.042142 0.219601 -0.907145
v 0.082664 0.209448 -0.809316
v 0.120009 0.192961 -0.719156
v 0.152743 0.170773 -0.640130
v 0.179607 0.143736 -0.575275
v 0.199568 0.112890 -0.527084
v 0.211861 0.079421 -0.497407
v 0.216011 0.044613 -0.487387
v 0.021484 0.219601 -0.900879
v 0.042142 0.209448 -0.797024
v 0.061180 0.192961 -0.701310
v 0.077868 0.170773 -0.617417
v 0.091563 0.143736 -0.548567
v 0.101739 0.112890 -0.497407
v 0.108005 0.079421 -0.465903
v 0.110121 0.044613 -0.455266
v -0.000000 0.219601 -0.898763
v -0.000000 0.209448 -0.792873
v -0.000000 0.170773 -0.609747
v -0.000000 0.112890 -0.487387
v 0.000000 0.027799 -0.443078
v 0.000000 0.088769 -0.443078
v -0.110549 0.027799 -0.453966
v -0.110549 0.088769 -0.453966
v -0.216850 0.027799 -0.486212
v -0.216850 0.088769 -0.486212
v -0.314818 0.027799 -0.538577
v -0.314818 0.088769 -0.538577
v -0.400687 0.027799 -0.609048
v -0.400687 0.088769 -0.609048
v -0.471158 0.027799 -0.694917
v -0.471158 0.088769 -0.694917
v -0.523523 0.027799 -0.792885
v -0.523523 0.088769 -0.792885
v -0.555769 0.027799 -0.899186
v -0.555769 0.088769 -0.899186
v -0.566657 0.027799 -1.009735
v -0.566657 0.088769 -1.009735
v -0.555769 0.027799 -1.120285
v -0.555769 0.088769 -1.120285
v -0.523523 0.027799 -1.226586
v -0.523523 0.088769 -1.226586
v -0.471158 0.027799 -1.324553
v -0.471158 0.088769 -1.324553
v -0.400687 0.027799 -1.410423
v -0.400687 0.088769 -1.410423
v -0.314818 0.027799 -1.480894
v -0.314818 0.088769 -1.480894
v -0.216850 0.027799 -1.533258
v -0.216850 0.088769 -1.533258
v -0.110549 0.027799 -1.565504
v -0.110549 0.088769 -1.565504
v 0.000000 0.027799 -1.576393
v 0.000000 0.088769 -1.576393
v 0.110549 0.027799 -1.565504
v 0.110549 0.088769 -1.565504
v 0.216850 0.027799 -1.533258
v 0.216850 0.088769 -1.533258
v 0.314818 0.027799 -1.480894
v 0.314818 0.088769 -1.480894
v 0.400687 0.027799 -1.410423
v 0.400687 0.088769 -1.410423
v 0.471158 0.027799 -1.324553
v 0.471158 0.088769 -1.324553
v 0.523523 0.027799 -1.226586
v 0.523523 0.088769 -1.226586
v 0.555769 0.027799 -1.120285
v 0.555769 0.088769 -1.120285
v 0.566657 0.027799 -1.009735
v 0.566657 0.088769 -1.009735
v 0.555769 0.027799 -0.899186
v 0.555769 0.088769 -0.899186
v 0.523523 0.027799 -0.792885
v 0.523523 0.088769 -0.792885
v 0.471158 0.027799 -0.694917
v 0.471158 0.088769 -0.694917
v 0.400687 0.027799 -0.609048
v 0.400687 0.088769 -0.609048
v 0.314818 0.027799 -0.538577
v 0.314818 0.088769 -0.538577
v 0.216850 0.027799 -0.486212
v 0.216850 0.088769 -0.486212
v 0.110549 0.027799 -0.453966
v 0.110549 0.088769 -0.453966
vn -0.0000 1.0000 -0.0000
vn -0.0000 -1.0000 -0.0000
vn 0.5979 -0.0000 -0.8016
vn 0.5978 -0.0000 -0.8016
vn -0.5994 -0.0000 -0.8005
vn 0.8221 -0.0000 -0.5693
vn 0.5693 -0.0000 0.8221
vn -0.5693 -0.0000 0.8221
vn -0.8221 -0.0000 -0.5693
vn 0.8043 -0.0000 0.5942
vn -0.8038 -0.0000 0.5949
vn -0.0009 -0.0000 -1.0000
vn -0.0031 0.9995 0.0311
vn -0.0094 0.9954 0.0954
vn -0.0164 0.9859 0.1666
vn -0.0247 0.9677 0.2510
vn -0.0354 0.9326 0.3592
vn -0.0501 0.8597 0.5084
vn -0.0709 0.6907 0.7197
vn -0.0936 0.2962 0.9505
vn -0.2773 0.2962 0.9140
vn -0.0091 0.9995 0.0299
vn -0.0278 0.9954 0.0918
vn -0.0486 0.9859 0.1602
vn -0.0732 0.9677 0.2414
vn -0.1048 0.9326 0.3454
vn -0.1483 0.8597 0.4888
vn -0.2099 0.6907 0.6920
vn -0.1189 0.9677 0.2224
vn -0.1701 0.9326 0.3183
vn -0.2408 0.8597 0.4505
vn -0.3409 0.6907 0.6378
vn -0.4502 0.2962 0.8424
vn -0.0147 0.9995 0.0276
vn -0.0452 0.9954 0.0846
vn -0.0789 0.9859 0.1476
vn -0.6059 0.2962 0.7383
vn -0.0198 0.9995 0.0242
vn -0.0608 0.9954 0.0741
vn -0.1062 0.9859 0.1294
vn -0.1600 0.9677 0.1950
vn -0.2290 0.9326 0.2790
vn -0.3241 0.8597 0.3949
vn -0.4588 0.6907 0.5590
vn -0.2790 0.9326 0.2290
vn -0.3949 0.8597 0.3241
vn -0.5590 0.6907 0.4588
vn -0.7383 0.2962 0.6059
vn -0.0242 0.9995 0.0198
vn -0.0741 0.9954 0.0608
vn -0.1294 0.9859 0.1062
vn -0.1950 0.9677 0.1600
vn -0.0276 0.9995 0.0147
vn -0.0846 0.9954 0.0452
vn -0.1476 0.9859 0.0789
vn -0.2224 0.9677 0.1189
vn -0.3183 0.9326 0.1701
vn -0.4505 0.8597 0.2408
vn -0.6378 0.6907 0.3409
vn -0.8423 0.2962 0.4502
vn -0.3454 0.9326 0.1048
vn -0.4888 0.8597 0.1483
vn -0.6920 0.6907 0.2099
vn -0.9140 0.2962 0.2773
vn -0.0299 0.9995 0.0091
vn -0.0918 0.9954 0.0278
vn -0.1602 0.9859 0.0486
vn -0.2414 0.9677 0.0732
vn -0.0954 0.9954 0.0094
vn -0.1666 0.9859 0.0164
vn -0.2510 0.9677 0.0247
vn -0.3592 0.9326 0.0354
vn -0.5084 0.8597 0.0501
vn -0.7197 0.6907 0.0709
vn -0.9505 0.2962 0.0936
vn -0.0311 0.9995 0.0031
vn -0.5084 0.8597 -0.0501
vn -0.7197 0.6907 -0.0709
vn -0.9505 0.2962 -0.0936
vn -0.0311 0.9995 -0.0031
vn -0.0954 0.9954 -0.0094
vn -0.1666 0.9859 -0.0164
vn -0.2510 0.9677 -0.0247
vn -0.3592 0.9326 -0.0354
vn -0.1602 0.9859 -0.0486
vn -0.2414 0.9677 -0.0732
vn -0.3454 0.9326 -0.1048
vn -0.4888 0.8597 -0.1483
vn -0.6920 0.6907 -0.2099
vn -0.9140 0.2962 -0.2773
vn -0.0299 0.9995 -0.0091
vn -0.0918 0.9954 -0.0278
vn -0.6378 0.6907 -0.3409
vn -0.8423 0.2962 -0.4502
vn -0.0276 0.9995 -0.0147
vn -0.0846 0.9954 -0.0452
vn -0.1476 0.9859 -0.0789
vn -0.2224 0.9677 -0.1189
vn -0.3183 0.9326 -0.1701
vn -0.4505 0.8597 -0.2408
vn -0.1294 0.9859 -0.1062
vn -0.1950 0.9677 -0.1600
vn -0.2790 0.9326 -0.2290
vn -0.3949 0.8597 -0.3241
vn -0.5590 0.6907 -0.4588
vn -0.7383 0.2962 -0.6059
vn -0.0242 0.9995 -0.0198
vn -0.0741 0.9954 -0.0608
vn -0.4588 0.6907 -0.5590
vn -0.6059 0.2962 -0.7383
vn -0.0198 0.9995 -0.0242
vn -0.0608 0.9954 -0.0741
vn -0.1062 0.9859 -0.1294
vn -0.1600 0.9677 -0.1950
vn -0.2290 0.9326 -0.2790
vn -0.3241 0.8597 -0.3949
vn -0.1189 0.9677 -0.2224
vn -0.1701 0.9326 -0.3183
vn -0.2408 0.8597 -0.4505
vn -0.3409 0.6907 -0.6378
vn -0.4502 0.2962 -0.8424
vn -0.0147 0.9995 -0.0276
vn -0.0452 0.9954 -0.0846
vn -0.0789 0.9859 -0.1476
vn -0.2773 0.2962 -0.9140
vn -0.0091 0.9995 -0.0299
vn -0.0278 0.9954 -0.0918
vn -0.0486 0.9859 -0.1602
vn -0.0732 0.9677 -0.2414
vn -0.1048 0.9326 -0.3454
vn -0.1483 0.8597 -0.4888
vn -0.2099 0.6907 -0.6920
vn -0.0247 0.9677 -0.2510
vn -0.0354 0.9326 -0.3592
vn -0.0501 0.8597 -0.5084
vn -0.0709 0.6907 -0.7197
vn -0.0936 0.2962 -0.9505
vn -0.0031 0.9995 -0.0311
vn -0.0094 0.9954 -0.0954
vn -0.0164 0.9859 -0.1666
vn 0.0936 0.2962 -0.9505
vn 0.0031 0.9995 -0.0311
vn 0.0094 0.9954 -0.0954
vn 0.0164 0.9859 -0.1666
vn 0.0247 0.9677 -0.2510
vn 0.0354 0.9326 -0.3592
vn 0.0501 0.8597 -0.5084
vn 0.0709 0.6907 -0.7197
vn 0.1048 0.9326 -0.3454
vn 0.1483 0.8597 -0.4888
vn 0.2099 0.6907 -0.6920
vn 0.2773 0.2962 -0.9140
vn 0.0091 0.9995 -0.0299
vn 0.0278 0.9954 -0.0918
vn 0.0486 0.9859 -0.1602
vn 0.0732 0.9677 -0.2414
vn 0.0452 0.9954 -0.0846
vn 0.0789 0.9859 -0.1476
vn 0.1189 0.9677 -0.2224
vn 0.1701 0.9326 -0.3183
vn 0.2408 0.8597 -0.4505
vn 0.3409 0.6907 -0.6378
vn 0.4502 0.2962 -0.8424
vn 0.0147 0.9995 -0.0276
vn 0.3241 0.8597 -0.3949
vn 0.4588 0.6907 -0.5590
vn 0.6059 0.2962 -0.7383
vn 0.0198 0.9995 -0.0242
vn 0.0608 0.9954 -0.0741
vn 0.1062 0.9859 -0.1294
vn 0.1600 0.9677 -0.1950
vn 0.2290 0.9326 -0.2790
vn 0.0741 0.9954 -0.0608
vn 0.1294 0.9859 -0.1062
vn 0.1950 0.9677 -0.1600
vn 0.2790 0.9326 -0.2290
vn 0.3949 0.8597 -0.3241
vn 0.5590 0.6907 -0.4588
vn 0.7383 0.2962 -0.6059
vn 0.0242 0.9995 -0.0198
vn 0.4505 0.8597 -0.2408
vn 0.6378 0.6907 -0.3409
vn 0.8424 0.2962 -0.4502
vn 0.0276 0.9995 -0.0147
vn 0.0846 0.9954 -0.0452
vn 0.1476 0.9859 -0.0789
vn 0.2224 0.9677 -0.1189
vn 0.3183 0.9326 -0.1701
vn 0.1602 0.9859 -0.0486
vn 0.2414 0.9677 -0.0732
vn 0.3454 0.9326 -0.1048
vn 0.4888 0.8597 -0.1483
vn 0.6920 0.6907 -0.2099
vn 0.9140 0.2962 -0.2773
vn 0.0299 0.9995 -0.0091
vn 0.0918 0.9954 -0.0278
vn 0.7197 0.6907 -0.0709
vn 0.9505 0.2962 -0.0936
vn 0.0311 0.9995 -0.0031
vn 0.0954 0.9954 -0.0094
vn 0.1666 0.9859 -0.0164
vn 0.2510 0.9677 -0.0247
vn 0.3592 0.9326 -0.0354
vn 0.5084 0.8597 -0.0501
vn 0.1666 0.9859 0.0164
vn 0.2510 0.9677 0.0247
vn 0.3592 0.9326 0.0354
vn 0.5084 0.8597 0.0501
vn 0.7197 0.6907 0.0709
vn 0.9505 0.2962 0.0936
vn 0.0311 0.9995 0.0031
vn 0.0954 0.9954 0.0094
vn 0.6920 0.6907 0.2099
vn 0.9140 0.2962 0.2773
vn 0.0299 0.9995 0.0091
vn 0.0918 0.9954 0.0278
vn 0.1602 0.9859 0.0486
vn 0.2414 0.9677 0.0732
vn 0.3454 0.9326 0.1048
vn 0.4888 0.8597 0.1483
vn 0.2224 0.9677 0.1189
vn 0.3183 0.9326 0.1701
vn 0.4505 0.8597 0.2408
vn 0.6378 0.6907 0.3409
vn 0.8424 0.2962 0.4502
vn 0.0276 0.9995 0.0147
vn 0.0846 0.9954 0.0452
vn 0.1476 0.9859 0.0789
vn 0.7383 0.2962 0.6059
vn 0.0242 0.9995 0.0198
vn 0.0741 0.9954 0.0608
vn 0.1294 0.9859 0.1062
vn 0.1950 0.9677 0.1600
vn 0.2790 0.9326 0.2290
vn 0.3949 0.8597 0.3241
vn 0.5590 0.6907 0.4588
vn 0.2290 0.9326 0.2790
vn 0.3241 0.8597 0.3949
vn 0.4588 0.6907 0.5590
vn 0.6059 0.2962 0.7383
vn 0.0198 0.9995 0.0242
vn 0.0608 0.9954 0.0741
vn 0.1062 0.9859 0.1294
vn 0.1600 0.9677 0.1950
vn 0.0147 0.9995 0.0276
vn 0.0452 0.9954 0.0846
vn 0.0789 0.9859 0.1476
vn 0.1189 0.9677 0.2224
vn 0.1701 0.9326 0.3183
vn 0.2408 0.8597 0.4505
vn 0.3409 0.6907 0.6378
vn 0.4502 0.2962 0.8424
vn 0.1048 0.9326 0.3454
vn 0.1483 0.8597 0.4888
vn 0.2099 0.6907 0.6920
vn 0.2773 0.2962 0.9140
vn 0.0091 0.9995 0.0299
vn 0.0278 0.9954 0.0918
vn 0.0486 0.9859 0.1602
vn 0.0732 0.9677 0.2414
vn 0.0094 0.9954 0.0954
vn 0.0164 0.9859 0.1666
vn 0.0247 0.9677 0.2510
vn 0.0354 0.9326 0.3592
vn 0.0501 0.8597 0.5084
vn 0.0709 0.6907 0.7197
vn 0.0936 0.2962 0.9505
vn 0.0031 0.9995 0.0311
vn -0.0980 -0.0000 0.9952
vn -0.2903 -0.0000 0.9569
vn -0.4714 -0.0000 0.8819
vn -0.6344 -0.0000 0.7730
vn -0.7730 -0.0000 0.6344
vn -0.8819 -0.0000 0.4714
vn -0.9569 -0.0000 0.2903
vn -0.9952 -0.0000 0.0980
vn -0.9952 -0.0000 -0.0980
vn -0.9569 -0.0000 -0.2903
vn -0.8819 -0.0000 -0.4714
vn -0.7730 -0.0000 -0.6344
vn -0.6344 -0.0000 -0.7730
vn -0.4714 -0.0000 -0.8819
vn -0.2903 -0.0000 -0.9569
vn -0.0980 -0.0000 -0.9952
vn 0.0980 -0.0000 -0.9952
vn 0.2903 -0.0000 -0.9569
vn 0.4714 -0.0000 -0.8819
vn 0.6344 -0.0000 -0.7730
vn 0.7730 -0.0000 -0.6344
vn 0.8819 -0.0000 -0.4714
vn 0.9569 -0.0000 -0.2903
vn 0.9952 -0.0000 -0.0980
vn 0.9952 -0.0000 0.0980
vn 0.9569 -0.0000 0.2903
vn 0.8819 -0.0000 0.4714
vn 0.7730 -0.0000 0.6344
vn 0.6344 -0.0000 0.7730
vn 0.4714 -0.0000 0.8819
vn 0.2903 -0.0000 0.9569
vn 0.0980 -0.0000 0.9952
vn -0.4502 0.2962 0.8423
vn -0.8424 0.2962 0.4502
vn 0.8423 0.2962 -0.4502
vt 0.610726 0.861366
vt 0.983251 0.595822
vt 0.983251 0.721352
vt 0.886689 0.659857
vt 0.610726 0.455807
vt 0.752773 0.700769
vt 0.752773 0.618692
vt 0.672220 0.725672
vt 0.672220 0.594551
vt 0.610726 0.743714
vt 0.610726 0.576255
vt 0.610726 0.016749
vt 0.983251 0.156764
vt 0.983250 0.282294
vt 0.886689 0.218259
vt 0.610726 0.422309
vt 0.752773 0.177347
vt 0.752773 0.259424
vt 0.672220 0.152444
vt 0.672220 0.283565
vt 0.610726 0.134402
vt 0.610726 0.301861
vt 0.497950 0.291916
vt 0.481389 0.194250
vt 0.574674 0.227532
vt 0.439532 0.386622
vt 0.422141 0.204382
vt 0.440661 0.433869
vt 0.348059 0.370629
vt 0.324605 0.586410
vt 0.375062 0.413342
vt 0.016749 0.233938
vt 0.304417 0.464030
vt 0.090620 0.016749
vt 0.136861 0.218538
vt 0.577227 0.016749
vt 0.186865 0.102614
vt 0.492598 0.105658
vt 0.250910 0.699807
vt 0.079480 0.755414
vt 0.016749 0.619909
vt 0.016749 0.918462
vt 0.085168 0.754397
vt 0.082589 0.761935
vt 0.284409 0.812529
vt 0.284409 0.619909
vt 0.308486 0.812529
vt 0.341985 0.619909
s 0
usemtl マテリアル.001
f 5/1/1 7/2/1 6/3/1
f 5/1/1 11/4/1 7/2/1
f 11/4/1 8/5/1 7/2/1
f 5/1/1 9/6/1 11/4/1
f 10/7/1 8/5/1 11/4/1
f 5/1/1 10/7/1 9/6/1
f 5/1/1 3/8/1 10/7/1
f 3/8/1 2/9/1 10/7/1
f 2/9/1 8/5/1 10/7/1
f 5/1/1 4/10/1 3/8/1
f 1/11/1 8/5/1 2/9/1
f 16/12/2 17/13/2 18/14/2
f 16/12/2 18/14/2 22/15/2
f 22/15/2 18/14/2 19/16/2
f 16/12/2 22/15/2 20/17/2
f 21/18/2 22/15/2 19/16/2
f 16/12/2 20/17/2 21/18/2
f 16/12/2 21/18/2 14/19/2
f 14/19/2 21/18/2 13/20/2
f 13/20/2 21/18/2 19/16/2
f 16/12/2 14/19/2 15/21/2
f 12/22/2 13/20/2 19/16/2
s 1
f 26/23/3 23/24/3 24/25/4
f 28/26/5 25/27/4 26/23/3
f 30/28/5 27/29/5 28/26/5
f 32/30/6 29/31/5 30/28/5
f 34/32/7 31/33/6 32/30/6
f 36/34/8 33/35/7 34/32/7
f 38/36/9 35/37/8 36/34/8
f 24/25/4 37/38/9 38/36/9
f 42/39/10 39/40/11 40/41/11
f 44/42/12 41/43/10 42/39/10
f 40/41/11 43/44/12 44/42/12
s 0
f 298/45/13 89/46/13 49/47/13
f 299/47/14 49/47/14 50/45/14
f 299/47/15 51/47/15 45/47/15
f 300/47/16 51/47/16 52/47/16
f 300/47/17 53/47/17 46/47/17
f 301/47/18 53/47/18 54/45/18
f 47/47/19 54/45/19 55/45/19
f 47/47/20 56/47/20 48/45/20
f 55/45/21 64/45/21 56/47/21
f 49/47/22 89/46/22 57/45/22
f 49/47/23 58/47/23 50/45/23
f 51/47/24 58/47/24 59/47/24
f 51/47/25 60/45/25 52/47/25
f 53/47/26 60/45/26 61/47/26
f 53/47/27 62/47/27 54/45/27
f 55/45/28 62/47/28 63/47/28
f 59/47/29 68/45/29 60/45/29
f 60/45/30 69/47/30 61/47/30
f 61/47/31 70/47/31 62/47/31
f 63/47/32 70/47/32 71/47/32
f 64/45/33 71/47/33 72/45/33
f 57/45/34 89/46/34 65/45/34
f 58/47/35 65/45/35 66/47/35
f 58/47/36 67/47/36 59/47/36
f 72/45/37 79/47/37 80/45/37
f 65/45/38 89/46/38 73/45/38
f 65/45/39 74/47/39 66/47/39
f 66/47/40 75/45/40 67/47/40
f 67/47/41 76/47/41 68/45/41
f 69/47/42 76/47/42 77/47/42
f 69/47/43 78/45/43 70/47/43
f 71/47/44 78/45/44 79/47/44
f 76/47/45 85/47/45 77/47/45
f 77/47/46 86/47/46 78/45/46
f 79/47/47 86/47/47 87/47/47
f 80/45/48 87/47/48 88/47/48
f 73/45/49 89/46/49 81/45/49
f 73/45/50 82/47/50 74/47/50
f 75/45/51 82/47/51 83/47/51
f 75/45/52 84/45/52 76/47/52
f 81/45/53 89/46/53 90/45/53
f 81/45/54 91/45/54 82/47/54
f 82/47/55 92/47/55 83/47/55
f 83/47/56 93/47/56 84/45/56
f 85/47/57 93/47/57 94/47/57
f 85/47/58 95/47/58 86/47/58
f 87/47/59 95/47/59 96/45/59
f 88/47/60 96/45/60 97/45/60
f 94/47/61 101/47/61 102/45/61
f 94/47/62 103/47/62 95/47/62
f 96/45/63 103/47/63 104/47/63
f 97/45/64 104/47/64 105/47/64
f 90/45/65 89/46/65 98/45/65
f 91/45/66 98/45/66 99/47/66
f 92/47/67 99/47/67 100/47/67
f 92/47/68 101/47/68 93/47/68
f 98/45/69 107/47/69 99/47/69
f 99/47/70 108/45/70 100/47/70
f 100/47/71 109/47/71 101/47/71
f 101/47/72 110/47/72 102/45/72
f 102/45/73 111/47/73 103/47/73
f 104/47/74 111/47/74 112/47/74
f 105/47/75 112/47/75 113/45/75
f 98/45/76 89/46/76 106/45/76
f 110/47/77 119/47/77 111/47/77
f 112/47/78 119/47/78 120/47/78
f 113/45/79 120/47/79 121/47/79
f 106/45/80 89/46/80 114/47/80
f 107/47/81 114/47/81 115/45/81
f 108/45/82 115/45/82 116/47/82
f 108/45/83 117/45/83 109/47/83
f 110/47/84 117/45/84 118/47/84
f 115/45/85 124/47/85 116/47/85
f 116/47/86 125/47/86 117/45/86
f 118/47/87 125/47/87 126/47/87
f 118/47/88 127/47/88 119/47/88
f 120/47/89 127/47/89 128/47/89
f 121/47/90 128/47/90 129/45/90
f 114/47/91 89/46/91 122/45/91
f 115/45/92 122/45/92 123/47/92
f 128/47/93 135/47/93 136/47/93
f 129/45/94 136/47/94 137/47/94
f 122/45/95 89/46/95 130/45/95
f 123/47/96 130/45/96 131/47/96
f 123/47/97 132/47/97 124/47/97
f 124/47/98 133/47/98 125/47/98
f 126/47/99 133/47/99 134/47/99
f 126/47/100 135/47/100 127/47/100
f 131/47/101 140/47/101 132/47/101
f 132/47/102 141/47/102 133/47/102
f 134/47/103 141/47/103 142/47/103
f 134/47/104 143/47/104 135/47/104
f 136/47/105 143/47/105 144/47/105
f 137/47/106 144/47/106 145/45/106
f 130/45/107 89/46/107 138/47/107
f 131/47/108 138/47/108 139/45/108
f 144/47/109 151/47/109 152/47/109
f 145/45/110 152/47/110 153/45/110
f 138/47/111 89/46/111 146/45/111
f 139/45/112 146/45/112 147/47/112
f 140/47/113 147/47/113 148/45/113
f 140/47/114 149/47/114 141/47/114
f 142/47/115 149/47/115 150/47/115
f 142/47/116 151/47/116 143/47/116
f 148/45/117 157/47/117 149/47/117
f 150/47/118 157/47/118 158/45/118
f 150/47/119 159/47/119 151/47/119
f 152/47/120 159/47/120 160/47/120
f 153/45/121 160/47/121 161/45/121
f 146/45/122 89/46/122 154/45/122
f 146/45/123 155/45/123 147/47/123
f 147/47/124 156/47/124 148/45/124
f 161/45/125 168/47/125 169/47/125
f 154/45/126 89/46/126 162/47/126
f 155/45/127 162/47/127 163/47/127
f 156/47/128 163/47/128 164/45/128
f 156/47/129 165/45/129 157/47/129
f 158/45/130 165/45/130 166/47/130
f 158/45/131 167/47/131 159/47/131
f 160/47/132 167/47/132 168/47/132
f 164/45/133 173/47/133 165/45/133
f 165/45/134 174/47/134 166/47/134
f 166/47/135 175/47/135 167/47/135
f 168/47/136 175/47/136 176/47/136
f 169/47/137 176/47/137 177/45/137
f 162/47/138 89/46/138 170/45/138
f 162/47/139 171/47/139 163/47/139
f 163/47/140 172/47/140 164/45/140
f 177/45/141 184/47/141 185/45/141
f 170/45/142 89/46/142 178/47/142
f 171/47/143 178/47/143 179/47/143
f 172/47/144 179/47/144 180/45/144
f 172/47/145 181/47/145 173/47/145
f 174/47/146 181/47/146 182/47/146
f 174/47/147 183/47/147 175/47/147
f 176/47/148 183/47/148 184/47/148
f 182/47/149 189/47/149 190/47/149
f 182/47/150 191/47/150 183/47/150
f 184/47/151 191/47/151 192/47/151
f 185/45/152 192/47/152 193/45/152
f 178/47/153 89/46/153 186/45/153
f 178/47/154 187/45/154 179/47/154
f 179/47/155 188/47/155 180/45/155
f 180/45/156 189/47/156 181/47/156
f 187/45/157 194/45/157 195/47/157
f 188/47/158 195/47/158 196/47/158
f 188/47/159 197/45/159 189/47/159
f 190/47/160 197/45/160 198/47/160
f 190/47/161 199/47/161 191/47/161
f 192/47/162 199/47/162 200/47/162
f 193/45/163 200/47/163 201/47/163
f 186/45/164 89/46/164 194/45/164
f 198/47/165 207/47/165 199/47/165
f 200/47/166 207/47/166 208/47/166
f 201/47/167 208/47/167 209/45/167
f 194/45/168 89/46/168 202/45/168
f 195/47/169 202/45/169 203/47/169
f 195/47/170 204/47/170 196/47/170
f 196/47/171 205/47/171 197/45/171
f 198/47/172 205/47/172 206/47/172
f 203/47/173 210/45/173 211/47/173
f 203/47/174 212/47/174 204/47/174
f 204/47/175 213/47/175 205/47/175
f 206/47/176 213/47/176 214/47/176
f 206/47/177 215/47/177 207/47/177
f 208/47/178 215/47/178 216/47/178
f 209/45/179 216/47/179 217/45/179
f 202/45/180 89/46/180 210/45/180
f 214/47/181 223/47/181 215/47/181
f 216/47/182 223/47/182 224/47/182
f 217/45/183 224/47/183 225/45/183
f 210/45/184 89/46/184 218/45/184
f 210/45/185 219/47/185 211/47/185
f 211/47/186 220/47/186 212/47/186
f 212/47/187 221/47/187 213/47/187
f 214/47/188 221/47/188 222/47/188
f 220/47/189 227/47/189 228/47/189
f 220/47/190 229/47/190 221/47/190
f 222/47/191 229/47/191 230/47/191
f 222/47/192 231/47/192 223/47/192
f 224/47/193 231/47/193 232/47/193
f 225/45/194 232/47/194 233/47/194
f 218/45/195 89/46/195 226/45/195
f 219/47/196 226/45/196 227/47/196
f 232/47/197 239/47/197 240/47/197
f 233/47/198 240/47/198 241/45/198
f 226/45/199 89/46/199 234/45/199
f 226/45/200 235/45/200 227/47/200
f 228/47/201 235/45/201 236/47/201
f 228/47/202 237/47/202 229/47/202
f 230/47/203 237/47/203 238/47/203
f 230/47/204 239/47/204 231/47/204
f 236/47/205 243/47/205 244/47/205
f 236/47/206 245/47/206 237/47/206
f 238/47/207 245/47/207 246/47/207
f 238/47/208 247/47/208 239/47/208
f 240/47/209 247/47/209 248/47/209
f 241/45/210 248/47/210 249/45/210
f 234/45/211 89/46/211 242/45/211
f 234/45/212 243/47/212 235/45/212
f 248/47/213 255/47/213 256/47/213
f 249/45/214 256/47/214 257/45/214
f 242/45/215 89/46/215 250/47/215
f 243/47/216 250/47/216 251/47/216
f 244/47/217 251/47/217 252/45/217
f 244/47/218 253/47/218 245/47/218
f 246/47/219 253/47/219 254/47/219
f 246/47/220 255/47/220 247/47/220
f 252/45/221 261/47/221 253/47/221
f 254/47/222 261/47/222 262/47/222
f 254/47/223 263/47/223 255/47/223
f 256/47/224 263/47/224 264/47/224
f 257/45/225 264/47/225 265/47/225
f 250/47/226 89/46/226 258/45/226
f 250/47/227 259/45/227 251/47/227
f 252/45/228 259/45/228 260/47/228
f 265/47/229 272/47/229 273/45/229
f 258/45/230 89/46/230 266/45/230
f 259/45/231 266/45/231 267/47/231
f 260/47/232 267/47/232 268/47/232
f 260/47/233 269/47/233 261/47/233
f 262/47/234 269/47/234 270/47/234
f 262/47/235 271/47/235 263/47/235
f 264/47/236 271/47/236 272/47/236
f 270/47/237 277/47/237 278/47/237
f 270/47/238 279/47/238 271/47/238
f 272/47/239 279/47/239 280/47/239
f 273/45/240 280/47/240 281/45/240
f 266/45/241 89/46/241 274/45/241
f 266/45/242 275/47/242 267/47/242
f 268/47/243 275/47/243 276/47/243
f 268/47/244 277/47/244 269/47/244
f 274/45/245 89/46/245 282/45/245
f 274/45/246 283/47/246 275/47/246
f 276/47/247 283/47/247 284/45/247
f 276/47/248 285/47/248 277/47/248
f 278/47/249 285/47/249 286/47/249
f 278/47/250 287/47/250 279/47/250
f 280/47/251 287/47/251 288/47/251
f 281/45/252 288/47/252 289/45/252
f 286/47/253 293/47/253 294/45/253
f 286/47/254 295/47/254 287/47/254
f 288/47/255 295/47/255 296/47/255
f 289/45/256 296/47/256 297/47/256
f 282/45/257 89/46/257 290/45/257
f 282/45/258 291/47/258 283/47/258
f 284/45/259 291/47/259 292/47/259
f 284/45/260 293/47/260 285/47/260
f 290/45/261 299/47/261 291/47/261
f 292/47/262 299/47/262 45/47/262
f 293/47/263 45/47/263 300/47/263
f 294/45/264 300/47/264 46/47/264
f 295/47/265 46/47/265 301/47/265
f 296/47/266 301/47/266 47/47/266
f 297/47/267 47/47/267 48/45/267
f 290/45/268 89/46/268 298/45/268
f 169/47/2 233/47/2 297/47/2
f 303/48/269 304/48/269 302/48/269
f 305/48/270 306/48/270 304/48/270
f 307/48/271 308/48/271 306/48/271
f 309/48/272 310/48/272 308/48/272
f 311/48/273 312/48/273 310/48/273
f 313/48/274 314/48/274 312/48/274
f 315/48/275 316/48/275 314/48/275
f 317/48/276 318/48/276 316/48/276
f 319/48/277 320/48/277 318/48/277
f 321/48/278 322/48/278 320/48/278
f 323/48/279 324/48/279 322/48/279
f 325/48/280 326/48/280 324/48/280
f 327/48/281 328/48/281 326/48/281
f 329/48/282 330/48/282 328/48/282
f 331/48/283 332/48/283 330/48/283
f 333/48/284 334/48/284 332/48/284
f 335/48/285 336/48/285 334/48/285
f 337/48/286 338/48/286 336/48/286
f 339/48/287 340/48/287 338/48/287
f 341/48/288 342/48/288 340/48/288
f 343/48/289 344/48/289 342/48/289
f 345/48/290 346/48/290 344/48/290
f 347/48/291 348/48/291 346/48/291
f 349/48/292 350/48/292 348/48/292
f 351/48/293 352/48/293 350/48/293
f 353/48/294 354/48/294 352/48/294
f 355/48/295 356/48/295 354/48/295
f 357/48/296 358/48/296 356/48/296
f 359/48/297 360/48/297 358/48/297
f 361/48/298 362/48/298 360/48/298
f 323/48/1 315/48/1 307/48/1
f 363/48/299 364/48/299 362/48/299
f 365/48/300 302/48/300 364/48/300
f 332/48/2 348/48/2 364/48/2
s 1
f 26/23/3 25/27/4 23/24/3
f 28/26/5 27/29/5 25/27/4
f 30/28/5 29/31/5 27/29/5
f 32/30/6 31/33/6 29/31/5
f 34/32/7 33/35/7 31/33/6
f 36/34/8 35/37/8 33/35/7
f 38/36/9 37/38/9 35/37/8
f 24/25/4 23/24/3 37/38/9
f 42/39/10 41/43/10 39/40/11
f 44/42/12 43/44/12 41/43/10
f 40/41/11 39/40/11 43/44/12
s 0
f 299/47/14 298/45/14 49/47/14
f 299/47/15 50/45/15 51/47/15
f 300/47/16 45/47/16 51/47/16
f 300/47/17 52/47/17 53/47/17
f 301/47/18 46/47/18 53/47/18
f 47/47/19 301/47/19 54/45/19
f 47/47/20 55/45/20 56/47/20
f 55/45/21 63/47/21 64/45/21
f 49/47/23 57/45/23 58/47/23
f 51/47/24 50/45/24 58/47/24
f 51/47/25 59/47/25 60/45/25
f 53/47/26 52/47/26 60/45/26
f 53/47/27 61/47/27 62/47/27
f 55/45/28 54/45/28 62/47/28
f 59/47/29 67/47/29 68/45/29
f 60/45/30 68/45/30 69/47/30
f 61/47/31 69/47/31 70/47/31
f 63/47/32 62/47/32 70/47/32
f 64/45/301 63/47/301 71/47/301
f 58/47/35 57/45/35 65/45/35
f 58/47/36 66/47/36 67/47/36
f 72/45/37 71/47/37 79/47/37
f 65/45/39 73/45/39 74/47/39
f 66/47/40 74/47/40 75/45/40
f 67/47/41 75/45/41 76/47/41
f 69/47/42 68/45/42 76/47/42
f 69/47/43 77/47/43 78/45/43
f 71/47/44 70/47/44 78/45/44
f 76/47/45 84/45/45 85/47/45
f 77/47/46 85/47/46 86/47/46
f 79/47/47 78/45/47 86/47/47
f 80/45/48 79/47/48 87/47/48
f 73/45/50 81/45/50 82/47/50
f 75/45/51 74/47/51 82/47/51
f 75/45/52 83/47/52 84/45/52
f 81/45/54 90/45/54 91/45/54
f 82/47/55 91/45/55 92/47/55
f 83/47/56 92/47/56 93/47/56
f 85/47/57 84/45/57 93/47/57
f 85/47/58 94/47/58 95/47/58
f 87/47/59 86/47/59 95/47/59
f 88/47/302 87/47/302 96/45/302
f 94/47/61 93/47/61 101/47/61
f 94/47/62 102/45/62 103/47/62
f 96/45/63 95/47/63 103/47/63
f 97/45/64 96/45/64 104/47/64
f 91/45/66 90/45/66 98/45/66
f 92/47/67 91/45/67 99/47/67
f 92/47/68 100/47/68 101/47/68
f 98/45/69 106/45/69 107/47/69
f 99/47/70 107/47/70 108/45/70
f 100/47/71 108/45/71 109/47/71
f 101/47/72 109/47/72 110/47/72
f 102/45/73 110/47/73 111/47/73
f 104/47/74 103/47/74 111/47/74
f 105/47/75 104/47/75 112/47/75
f 110/47/77 118/47/77 119/47/77
f 112/47/78 111/47/78 119/47/78
f 113/45/79 112/47/79 120/47/79
f 107/47/81 106/45/81 114/47/81
f 108/45/82 107/47/82 115/45/82
f 108/45/83 116/47/83 117/45/83
f 110/47/84 109/47/84 117/45/84
f 115/45/85 123/47/85 124/47/85
f 116/47/86 124/47/86 125/47/86
f 118/47/87 117/45/87 125/47/87
f 118/47/88 126/47/88 127/47/88
f 120/47/89 119/47/89 127/47/89
f 121/47/90 120/47/90 128/47/90
f 115/45/92 114/47/92 122/45/92
f 128/47/93 127/47/93 135/47/93
f 129/45/94 128/47/94 136/47/94
f 123/47/96 122/45/96 130/45/96
f 123/47/97 131/47/97 132/47/97
f 124/47/98 132/47/98 133/47/98
f 126/47/99 125/47/99 133/47/99
f 126/47/100 134/47/100 135/47/100
f 131/47/101 139/45/101 140/47/101
f 132/47/102 140/47/102 141/47/102
f 134/47/103 133/47/103 141/47/103
f 134/47/104 142/47/104 143/47/104
f 136/47/105 135/47/105 143/47/105
f 137/47/106 136/47/106 144/47/106
f 131/47/108 130/45/108 138/47/108
f 144/47/109 143/47/109 151/47/109
f 145/45/110 144/47/110 152/47/110
f 139/45/112 138/47/112 146/45/112
f 140/47/113 139/45/113 147/47/113
f 140/47/114 148/45/114 149/47/114
f 142/47/115 141/47/115 149/47/115
f 142/47/116 150/47/116 151/47/116
f 148/45/117 156/47/117 157/47/117
f 150/47/118 149/47/118 157/47/118
f 150/47/119 158/45/119 159/47/119
f 152/47/120 151/47/120 159/47/120
f 153/45/121 152/47/121 160/47/121
f 146/45/123 154/45/123 155/45/123
f 147/47/124 155/45/124 156/47/124
f 161/45/125 160/47/125 168/47/125
f 155/45/127 154/45/127 162/47/127
f 156/47/128 155/45/128 163/47/128
f 156/47/129 164/45/129 165/45/129
f 158/45/130 157/47/130 165/45/130
f 158/45/131 166/47/131 167/47/131
f 160/47/132 159/47/132 167/47/132
f 164/45/133 172/47/133 173/47/133
f 165/45/134 173/47/134 174/47/134
f 166/47/135 174/47/135 175/47/135
f 168/47/136 167/47/136 175/47/136
f 169/47/137 168/47/137 176/47/137
f 162/47/139 170/45/139 171/47/139
f 163/47/140 171/47/140 172/47/140
f 177/45/141 176/47/141 184/47/141
f 171/47/143 170/45/143 178/47/143
f 172/47/144 171/47/144 179/47/144
f 172/47/145 180/45/145 181/47/145
f 174/47/146 173/47/146 181/47/146
f 174/47/147 182/47/147 183/47/147
f 176/47/148 175/47/148 183/47/148
f 182/47/149 181/47/149 189/47/149
f 182/47/150 190/47/150 191/47/150
f 184/47/151 183/47/151 191/47/151
f 185/45/152 184/47/152 192/47/152
f 178/47/154 186/45/154 187/45/154
f 179/47/155 187/45/155 188/47/155
f 180/45/156 188/47/156 189/47/156
f 187/45/157 186/45/157 194/45/157
f 188/47/158 187/45/158 195/47/158
f 188/47/159 196/47/159 197/45/159
f 190/47/160 189/47/160 197/45/160
f 190/47/161 198/47/161 199/47/161
f 192/47/162 191/47/162 199/47/162
f 193/45/163 192/47/163 200/47/163
f 198/47/165 206/47/165 207/47/165
f 200/47/166 199/47/166 207/47/166
f 201/47/167 200/47/167 208/47/167
f 195/47/169 194/45/169 202/45/169
f 195/47/170 203/47/170 204/47/170
f 196/47/171 204/47/171 205/47/171
f 198/47/172 197/45/172 205/47/172
f 203/47/173 202/45/173 210/45/173
f 203/47/174 211/47/174 212/47/174
f 204/47/175 212/47/175 213/47/175
f 206/47/176 205/47/176 213/47/176
f 206/47/177 214/47/177 215/47/177
f 208/47/178 207/47/178 215/47/178
f 209/45/179 208/47/179 216/47/179
f 214/47/181 222/47/181 223/47/181
f 216/47/182 215/47/182 223/47/182
f 217/45/303 216/47/303 224/47/303
f 210/45/185 218/45/185 219/47/185
f 211/47/186 219/47/186 220/47/186
f 212/47/187 220/47/187 221/47/187
f 214/47/188 213/47/188 221/47/188
f 220/47/189 219/47/189 227/47/189
f 220/47/190 228/47/190 229/47/190
f 222/47/191 221/47/191 229/47/191
f 222/47/192 230/47/192 231/47/192
f 224/47/193 223/47/193 231/47/193
f 225/45/194 224/47/194 232/47/194
f 219/47/196 218/45/196 226/45/196
f 232/47/197 231/47/197 239/47/197
f 233/47/198 232/47/198 240/47/198
f 226/45/200 234/45/200 235/45/200
f 228/47/201 227/47/201 235/45/201
f 228/47/202 236/47/202 237/47/202
f 230/47/203 229/47/203 237/47/203
f 230/47/204 238/47/204 239/47/204
f 236/47/205 235/45/205 243/47/205
f 236/47/206 244/47/206 245/47/206
f 238/47/207 237/47/207 245/47/207
f 238/47/208 246/47/208 247/47/208
f 240/47/209 239/47/209 247/47/209
f 241/45/210 240/47/210 248/47/210
f 234/45/212 242/45/212 243/47/212
f 248/47/213 247/47/213 255/47/213
f 249/45/214 248/47/214 256/47/214
f 243/47/216 242/45/216 250/47/216
f 244/47/217 243/47/217 251/47/217
f 244/47/218 252/45/218 253/47/218
f 246/47/219 245/47/219 253/47/219
f 246/47/220 254/47/220 255/47/220
f 252/45/221 260/47/221 261/47/221
f 254/47/222 253/47/222 261/47/222
f 254/47/223 262/47/223 263/47/223
f 256/47/224 255/47/224 263/47/224
f 257/45/225 256/47/225 264/47/225
f 250/47/227 258/45/227 259/45/227
f 252/45/228 251/47/228 259/45/228
f 265/47/229 264/47/229 272/47/229
f 259/45/231 258/45/231 266/45/231
f 260/47/232 259/45/232 267/47/232
f 260/47/233 268/47/233 269/47/233
f 262/47/234 261/47/234 269/47/234
f 262/47/235 270/47/235 271/47/235
f 264/47/236 263/47/236 271/47/236
f 270/47/237 269/47/237 277/47/237
f 270/47/238 278/47/238 279/47/238
f 272/47/239 271/47/239 279/47/239
f 273/45/240 272/47/240 280/47/240
f 266/45/242 274/45/242 275/47/242
f 268/47/243 267/47/243 275/47/243
f 268/47/244 276/47/244 277/47/244
f 274/45/246 282/45/246 283/47/246
f 276/47/247 275/47/247 283/47/247
f 276/47/248 284/45/248 285/47/248
f 278/47/249 277/47/249 285/47/249
f 278/47/250 286/47/250 287/47/250
f 280/47/251 279/47/251 287/47/251
f 281/45/252 280/47/252 288/47/252
f 286/47/253 285/47/253 293/47/253
f 286/47/254 294/45/254 295/47/254
f 288/47/255 287/47/255 295/47/255
f 289/45/256 288/47/256 296/47/256
f 282/45/258 290/45/258 291/47/258
f 284/45/259 283/47/259 291/47/259
f 284/45/260 292/47/260 293/47/260
f 290/45/261 298/45/261 299/47/261
f 292/47/262 291/47/262 299/47/262
f 293/47/263 292/47/263 45/47/263
f 294/45/264 293/47/264 300/47/264
f 295/47/265 294/45/265 46/47/265
f 296/47/266 295/47/266 301/47/266
f 297/47/267 296/47/267 47/47/267
f 297/47/2 48/45/2 56/47/2
f 56/47/2 64/45/2 297/47/2
f 64/45/2 72/45/2 297/47/2
f 72/45/2 80/45/2 88/47/2
f 88/47/2 97/45/2 105/47/2
f 105/47/2 113/45/2 121/47/2
f 121/47/2 129/45/2 137/47/2
f 137/47/2 145/45/2 169/47/2
f 145/45/2 153/45/2 169/47/2
f 153/45/2 161/45/2 169/47/2
f 169/47/2 177/45/2 185/45/2
f 185/45/2 193/45/2 169/47/2
f 193/45/2 201/47/2 169/47/2
f 201/47/2 209/45/2 217/45/2
f 217/45/2 225/45/2 201/47/2
f 225/45/2 233/47/2 201/47/2
f 233/47/2 241/45/2 249/45/2
f 249/45/2 257/45/2 233/47/2
f 257/45/2 265/47/2 233/47/2
f 265/47/2 273/45/2 297/47/2
f 273/45/2 281/45/2 297/47/2
f 281/45/2 289/45/2 297/47/2
f 72/45/2 88/47/2 297/47/2
f 88/47/2 105/47/2 297/47/2
f 105/47/2 121/47/2 169/47/2
f 121/47/2 137/47/2 169/47/2
f 169/47/2 201/47/2 233/47/2
f 233/47/2 265/47/2 297/47/2
f 297/47/2 105/47/2 169/47/2
f 303/48/269 305/48/269 304/48/269
f 305/48/270 307/48/270 306/48/270
f 307/48/271 309/48/271 308/48/271
f 309/48/272 311/48/272 310/48/272
f 311/48/273 313/48/273 312/48/273
f 313/48/274 315/48/274 314/48/274
f 315/48/275 317/48/275 316/48/275
f 317/48/276 319/48/276 318/48/276
f 319/48/277 321/48/277 320/48/277
f 321/48/278 323/48/278 322/48/278
f 323/48/279 325/48/279 324/48/279
f 325/48/280 327/48/280 326/48/280
f 327/48/281 329/48/281 328/48/281
f 329/48/282 331/48/282 330/48/282
f 331/48/283 333/48/283 332/48/283
f 333/48/284 335/48/284 334/48/284
f 335/48/285 337/48/285 336/48/285
f 337/48/286 339/48/286 338/48/286
f 339/48/287 341/48/287 340/48/287
f 341/48/288 343/48/288 342/48/288
f 343/48/289 345/48/289 344/48/289
f 345/48/290 347/48/290 346/48/290
f 347/48/291 349/48/291 348/48/291
f 349/48/292 351/48/292 350/48/292
f 351/48/293 353/48/293 352/48/293
f 353/48/294 355/48/294 354/48/294
f 355/48/295 357/48/295 356/48/295
f 357/48/296 359/48/296 358/48/296
f 359/48/297 361/48/297 360/48/297
f 361/48/298 363/48/298 362/48/298
f 307/48/1 305/48/1 303/48/1
f 303/48/1 365/48/1 363/48/1
f 363/48/1 361/48/1 355/48/1
f 361/48/1 359/48/1 355/48/1
f 359/48/1 357/48/1 355/48/1
f 355/48/1 353/48/1 351/48/1
f 351/48/1 349/48/1 355/48/1
f 349/48/1 347/48/1 355/48/1
f 347/48/1 345/48/1 343/48/1
f 343/48/1 341/48/1 347/48/1
f 341/48/1 339/48/1 347/48/1
f 339/48/1 337/48/1 331/48/1
f 337/48/1 335/48/1 331/48/1
f 335/48/1 333/48/1 331/48/1
f 331/48/1 329/48/1 323/48/1
f 329/48/1 327/48/1 323/48/1
f 327/48/1 325/48/1 323/48/1
f 323/48/1 321/48/1 315/48/1
f 321/48/1 319/48/1 315/48/1
f 319/48/1 317/48/1 315/48/1
f 315/48/1 313/48/1 307/48/1
f 313/48/1 311/48/1 307/48/1
f 311/48/1 309/48/1 307/48/1
f 307/48/1 303/48/1 363/48/1
f 307/48/1 363/48/1 339/48/1
f 363/48/1 355/48/1 339/48/1
f 355/48/1 347/48/1 339/48/1
f 339/48/1 331/48/1 307/48/1
f 331/48/1 323/48/1 307/48/1
f 363/48/299 365/48/299 364/48/299
f 365/48/300 303/48/300 302/48/300
f 364/48/2 302/48/2 304/48/2
f 304/48/2 306/48/2 308/48/2
f 308/48/2 310/48/2 312/48/2
f 312/48/2 314/48/2 316/48/2
f 316/48/2 318/48/2 320/48/2
f 320/48/2 322/48/2 324/48/2
f 324/48/2 326/48/2 328/48/2
f 328/48/2 330/48/2 332/48/2
f 332/48/2 334/48/2 336/48/2
f 336/48/2 338/48/2 340/48/2
f 340/48/2 342/48/2 344/48/2
f 344/48/2 346/48/2 348/48/2
f 348/48/2 350/48/2 352/48/2
f 352/48/2 354/48/2 356/48/2
f 356/48/2 358/48/2 360/48/2
f 360/48/2 362/48/2 364/48/2
f 364/48/2 304/48/2 308/48/2
f 308/48/2 312/48/2 316/48/2
f 316/48/2 320/48/2 324/48/2
f 324/48/2 328/48/2 332/48/2
f 332/48/2 336/48/2 340/48/2
f 340/48/2 344/48/2 348/48/2
f 348/48/2 352/48/2 356/48/2
f 356/48/2 360/48/2 364/48/2
f 364/48/2 308/48/2 316/48/2
f 316/48/2 324/48/2 332/48/2
f 332/48/2 340/48/2 348/48/2
f 348/48/2 356/48/2 364/48/2
f 364/48/2 316/48/2 332/48/2
