# Blender 4.3.2
# www.blender.org
mtllib blackBlock.mtl
o Cube
v -1.000000 1.000000 1.000000
v 0.703420 0.845332 0.845332
v -1.000000 -1.000000 1.000000
v 0.703420 -0.845332 0.845332
v -1.000000 1.000000 -1.000000
v 0.703420 0.845332 -0.845332
v -1.000000 -1.000000 -1.000000
v 0.703420 -0.845332 -0.845332
v 1.000000 1.000000 1.000000
v -0.703420 0.845332 0.845332
v 1.000000 -1.000000 1.000000
v -0.703420 -0.845332 0.845332
v 1.000000 1.000000 -1.000000
v -0.703420 0.845332 -0.845332
v 1.000000 -1.000000 -1.000000
v -0.703420 -0.845332 -0.845332
v -1.000000 -0.845332 0.845332
v -1.000000 0.845332 -0.845332
v -1.000000 0.845332 0.845332
v -1.000000 -0.845332 -0.845332
v 0.845332 -0.845332 1.000000
v -0.845332 0.845332 1.000000
v 0.845332 0.845332 1.000000
v -0.845332 -0.845332 1.000000
v -0.703420 0.845332 0.845332
v -0.703420 -0.845332 0.845332
v -0.845332 0.845332 0.845332
v -0.845332 -0.845332 0.845332
v 1.000000 -0.845332 -0.845332
v 1.000000 0.845332 0.845332
v 1.000000 0.845332 -0.845332
v 1.000000 -0.845332 0.845332
v 0.703420 0.845332 0.845332
v 0.845332 0.845332 0.845332
v 0.845332 -0.845332 0.845332
v 0.703420 -0.845332 0.845332
v 0.845332 0.845332 -1.000000
v -0.845332 0.845332 -1.000000
v -0.845332 -0.845332 -1.000000
v 0.845332 -0.845332 -1.000000
v -0.845332 -0.845332 -0.845332
v -0.703420 -0.845332 -0.845332
v -0.703420 0.845332 -0.845332
v -0.845332 0.845332 -0.845332
v 0.845332 -0.845332 -0.845332
v 0.703420 -0.845332 -0.845332
v 0.703420 0.845332 -0.845332
v 0.845332 0.845332 -0.845332
v 0.845332 1.000000 -0.845332
v -0.845332 1.000000 0.845332
v 0.845332 1.000000 0.845332
v -0.845332 1.000000 -0.845332
v -0.845332 0.845332 0.845332
v -0.703420 0.845332 -0.845332
v -0.703420 0.845332 0.845332
v -0.845332 0.845332 -0.845332
v -0.703420 0.845332 -0.845332
v -0.703420 0.845332 0.845332
v -0.703420 0.703420 -0.703420
v -0.703420 0.703420 0.703420
v 0.703420 0.845332 0.845332
v 0.703420 0.703420 0.703420
v 0.845332 0.845332 0.845332
v 0.703420 0.845332 -0.845332
v 0.703420 0.845332 0.845332
v 0.845332 0.845332 -0.845332
v 0.703420 0.845332 -0.845332
v 0.703420 0.703420 -0.703420
v 0.845332 -1.000000 0.845332
v -0.845332 -1.000000 0.845332
v -0.845332 -1.000000 -0.845332
v 0.845332 -1.000000 -0.845332
v -0.703420 -0.845332 -0.845332
v -0.703420 -0.845332 0.845332
v -0.703420 -0.845332 -0.845332
v -0.703420 -0.845332 0.845332
v -0.703420 -0.703420 -0.703420
v -0.703420 -0.703420 0.703420
v -0.845332 -0.845332 -0.845332
v -0.845332 -0.845332 0.845332
v 0.703420 -0.703420 0.703420
v 0.703420 -0.845332 0.845332
v 0.845332 -0.845332 -0.845332
v 0.703420 -0.845332 -0.845332
v 0.703420 -0.845332 0.845332
v 0.845332 -0.845332 0.845332
v 0.703420 -0.845332 -0.845332
v 0.703420 -0.703420 -0.703420
vn -0.0000 1.0000 -0.0000
vn -0.0000 -0.0000 -1.0000
vn 1.0000 -0.0000 -0.0000
vn -0.0000 -1.0000 -0.0000
vn -1.0000 -0.0000 -0.0000
vn -0.0000 -0.0000 1.0000
vn -0.0000 -0.3195 0.9476
vn -0.0000 0.1662 0.9861
vn -0.0000 -0.1662 -0.9861
vn -0.0000 0.3195 -0.9476
vt 0.569328 0.569328
vt 0.401255 0.555241
vt 0.555241 0.555241
vt 0.387168 0.387168
vt 0.555241 0.401255
vt 0.401255 0.401255
vt 0.373081 0.583415
vt 0.387168 0.569328
vt 0.387168 0.751487
vt 0.205009 0.751487
vt 0.219096 0.583415
vt 0.219096 0.737400
vt 0.373081 0.190922
vt 0.387168 0.205009
vt 0.219096 0.190922
vt 0.219096 0.036937
vt 0.205009 0.022850
vt 0.373081 0.036937
vt 0.022850 0.387168
vt 0.205009 0.387168
vt 0.036937 0.401255
vt 0.022850 0.569328
vt 0.190922 0.555241
vt 0.205009 0.569328
vt 0.373081 0.401255
vt 0.219096 0.401255
vt 0.219096 0.555241
vt 0.373081 0.373081
vt 0.219096 0.373081
vt 0.219096 0.219096
vt 0.205009 0.205009
vt 0.373081 0.219096
vt 0.847117 0.675722
vt 0.847117 0.563427
vt 0.827800 0.675722
vt 0.652068 0.630023
vt 0.652068 0.517728
vt 0.632751 0.630023
vt 0.660726 0.675722
vt 0.892817 0.517728
vt 0.022850 0.797186
vt 0.150984 0.925321
vt 0.150984 0.797186
vt 0.892817 0.405433
vt 0.892817 0.405433
vt 0.615027 0.675722
vt 0.615027 0.675722
vt 0.847117 0.517728
vt 0.847117 0.405433
vt 0.827800 0.517728
vt 0.929858 0.517728
vt 0.929858 0.405433
vt 0.910541 0.517728
vt 0.764377 0.630023
vt 0.745060 0.639448
vt 0.745060 0.732891
vt 0.324818 0.925321
vt 0.196684 0.797186
vt 0.196684 0.925321
vt 0.957833 0.675722
vt 0.977150 0.563427
vt 0.957833 0.563427
vt 0.745060 0.508302
vt 0.764377 0.517728
vt 0.745060 0.414859
vt 0.745060 0.517728
vt 0.745060 0.630023
vt 0.782101 0.974393
vt 0.894396 0.974393
vt 0.782101 0.955076
vt 0.764377 0.825058
vt 0.745060 0.825058
vt 0.745060 0.937352
vt 0.894396 0.788017
vt 0.782101 0.788017
vt 0.894396 0.807334
vt 0.782101 0.937352
vt 0.894396 0.825058
vt 0.782101 0.825058
vt 0.938211 0.150984
vt 0.810076 0.022850
vt 0.810076 0.150984
vt 0.894396 0.937352
vt 0.894396 0.937352
vt 0.931437 0.937352
vt 0.931437 0.825058
vt 0.912120 0.937352
vt 0.764377 0.022850
vt 0.745060 0.032276
vt 0.745060 0.125719
vt 0.912134 0.563427
vt 0.892817 0.675722
vt 0.912134 0.675722
vt 0.745060 0.350308
vt 0.764377 0.359734
vt 0.745060 0.256865
vt 0.764377 0.247439
vt 0.745060 0.135144
vt 0.745060 0.247439
vt 0.938211 0.196684
vt 0.810076 0.324818
vt 0.938211 0.324818
vt 0.634344 0.359734
vt 0.615027 0.369160
vt 0.615027 0.462603
vt 0.634344 0.135144
vt 0.615027 0.022850
vt 0.615027 0.135144
vt 0.498652 0.797186
vt 0.370517 0.925321
vt 0.498652 0.925321
vt 0.615027 0.247439
vt 0.615027 0.359734
vt 0.634344 0.247439
vt 0.615027 0.144570
vt 0.615027 0.238013
vt 0.672486 0.797186
vt 0.544351 0.925321
vt 0.672486 0.925321
vt 0.699361 0.369159
vt 0.680044 0.359733
vt 0.699361 0.462602
vt 0.680044 0.022850
vt 0.699361 0.135144
vt 0.699361 0.022850
vt 0.699361 0.247439
vt 0.680044 0.247439
vt 0.680044 0.135144
vt 0.699361 0.238013
vt 0.699361 0.144570
vt 0.569328 0.387168
vt 0.373081 0.737400
vt 0.387168 0.022850
vt 0.036937 0.555241
vt 0.190922 0.401255
vt 0.373081 0.555241
vt 0.810076 0.675722
vt 0.810076 0.563427
vt 0.827800 0.563427
vt 0.615027 0.630023
vt 0.615027 0.517728
vt 0.632751 0.517728
vt 0.022850 0.925321
vt 0.810076 0.517728
vt 0.810076 0.405433
vt 0.827800 0.405433
vt 0.910541 0.405433
vt 0.745060 0.742317
vt 0.764377 0.742317
vt 0.324818 0.797186
vt 0.977150 0.675722
vt 0.745060 0.508302
vt 0.764377 0.405433
vt 0.745060 0.405433
vt 0.894396 0.955076
vt 0.764377 0.937352
vt 0.782101 0.807334
vt 0.938211 0.022850
vt 0.912120 0.825058
vt 0.764377 0.135144
vt 0.745060 0.022850
vt 0.745060 0.125719
vt 0.892817 0.563427
vt 0.745060 0.359734
vt 0.810076 0.196684
vt 0.615027 0.472028
vt 0.634344 0.472028
vt 0.615027 0.369160
vt 0.615027 0.462603
vt 0.634344 0.022850
vt 0.370517 0.797186
vt 0.615027 0.144570
vt 0.615027 0.238013
vt 0.544351 0.797186
vt 0.699361 0.359733
vt 0.680044 0.472028
vt 0.699361 0.472028
vt 0.699361 0.369159
vt 0.699361 0.238013
vt 0.699361 0.144570
s 0
usemtl マテリアル
f 13/1/1 52/2/1 49/3/1
f 1/4/1 51/5/1 50/6/1
f 38/7/2 5/8/2 13/9/2
f 15/10/2 39/11/2 40/12/2
f 30/13/3 9/14/3 32/15/3
f 29/16/3 15/17/3 31/18/3
f 11/19/4 3/20/4 69/21/4
f 15/22/4 71/23/4 7/24/4
f 19/25/5 1/4/5 5/8/5
f 7/24/5 17/26/5 20/27/5
f 22/28/6 1/4/6 24/29/6
f 21/30/6 11/31/6 23/32/6
f 19/33/4 18/34/4 53/35/4
f 18/36/6 20/37/6 44/38/6
f 42/39/5 75/39/5 73/39/5
f 26/40/5 76/40/5 12/40/5
f 60/41/5 77/42/5 78/43/5
f 10/44/5 58/44/5 25/45/5
f 43/46/5 54/47/5 14/46/5
f 20/48/1 17/49/1 79/50/1
f 17/51/2 19/52/2 28/53/2
f 22/54/4 25/55/4 33/56/4
f 62/57/6 78/58/6 81/59/6
f 23/60/5 35/61/5 21/62/5
f 26/63/1 24/64/1 36/65/1
f 22/54/3 28/66/3 27/67/3
f 31/68/4 30/69/4 66/70/4
f 45/71/6 29/72/6 31/73/6
f 32/74/1 29/75/1 86/76/1
f 47/77/3 64/77/3 67/77/3
f 4/78/3 82/78/3 36/78/3
f 46/79/3 84/79/3 8/79/3
f 62/80/3 88/81/3 68/82/3
f 33/83/3 65/83/3 2/84/3
f 30/85/2 32/86/2 34/87/2
f 37/88/4 47/89/4 43/90/4
f 40/91/5 48/92/5 37/93/5
f 46/94/1 40/95/1 42/96/1
f 39/97/3 44/98/3 41/99/3
f 59/100/2 88/101/2 77/102/2
f 52/103/6 54/104/6 64/105/6
f 51/106/5 66/107/5 63/108/5
f 60/109/1 68/110/1 59/111/1
f 52/103/3 53/112/3 56/113/3
f 50/114/2 65/115/2 55/116/2
f 81/117/4 77/118/4 88/119/4
f 75/120/6 71/121/6 84/122/6
f 72/123/5 86/124/5 83/125/5
f 71/121/3 80/126/3 70/127/3
f 69/128/2 76/129/2 85/130/2
f 49/3/1 51/5/1 9/131/1
f 13/1/1 5/8/1 52/2/1
f 49/3/1 9/131/1 13/1/1
f 50/6/1 52/2/1 5/8/1
f 1/4/1 9/131/1 51/5/1
f 50/6/1 5/8/1 1/4/1
f 38/7/2 39/11/2 7/24/2
f 13/9/2 15/10/2 40/12/2
f 13/9/2 40/12/2 37/132/2
f 38/7/2 7/24/2 5/8/2
f 13/9/2 37/132/2 38/7/2
f 15/10/2 7/24/2 39/11/2
f 30/13/3 31/18/3 13/133/3
f 9/14/3 11/31/3 32/15/3
f 30/13/3 13/133/3 9/14/3
f 29/16/3 32/15/3 11/31/3
f 15/17/3 13/133/3 31/18/3
f 29/16/3 11/31/3 15/17/3
f 69/21/4 72/134/4 15/22/4
f 3/20/4 7/24/4 71/23/4
f 3/20/4 71/23/4 70/135/4
f 69/21/4 15/22/4 11/19/4
f 3/20/4 70/135/4 69/21/4
f 15/22/4 72/134/4 71/23/4
f 19/25/5 17/26/5 3/20/5
f 5/8/5 7/24/5 20/27/5
f 5/8/5 20/27/5 18/136/5
f 19/25/5 3/20/5 1/4/5
f 5/8/5 18/136/5 19/25/5
f 7/24/5 3/20/5 17/26/5
f 22/28/6 23/32/6 9/14/6
f 1/4/6 3/20/6 24/29/6
f 22/28/6 9/14/6 1/4/6
f 21/30/6 24/29/6 3/20/6
f 11/31/6 9/14/6 23/32/6
f 21/30/6 3/20/6 11/31/6
f 55/137/4 10/137/4 53/35/4
f 10/137/4 19/33/4 53/35/4
f 18/34/4 14/138/4 56/139/4
f 14/138/4 54/138/4 56/139/4
f 18/34/4 56/139/4 53/35/4
f 43/140/6 14/140/6 44/38/6
f 14/140/7 18/36/7 44/38/7
f 20/37/8 16/141/8 41/142/8
f 16/141/6 42/141/6 41/142/6
f 20/37/6 41/142/6 44/38/6
f 42/39/5 16/39/5 75/39/5
f 26/40/5 74/40/5 76/40/5
f 60/41/5 59/143/5 77/42/5
f 10/44/5 55/44/5 58/44/5
f 43/46/5 57/47/5 54/47/5
f 79/50/1 75/144/1 16/144/1
f 17/49/1 12/145/1 80/146/1
f 12/145/1 76/145/1 80/146/1
f 79/50/1 16/144/1 20/48/1
f 17/49/1 80/146/1 79/50/1
f 28/53/2 26/40/2 12/40/2
f 19/52/9 10/44/9 27/147/9
f 10/44/2 25/45/2 27/147/2
f 28/53/2 12/40/2 17/51/2
f 19/52/2 27/147/2 28/53/2
f 34/148/4 23/149/4 33/56/4
f 23/149/4 22/54/4 33/56/4
f 22/54/4 27/67/4 25/55/4
f 25/55/4 58/55/4 61/56/4
f 25/55/4 61/56/4 33/56/4
f 62/57/6 60/150/6 78/58/6
f 23/60/5 34/151/5 35/61/5
f 82/65/1 74/152/1 26/63/1
f 26/63/1 28/66/1 24/64/1
f 24/64/1 21/153/1 36/65/1
f 21/153/1 35/154/1 36/65/1
f 36/65/1 82/65/1 26/63/1
f 22/54/3 24/64/3 28/66/3
f 64/77/4 6/77/4 66/70/4
f 6/77/4 31/68/4 66/70/4
f 30/69/4 2/84/4 63/155/4
f 2/84/4 65/83/4 63/155/4
f 30/69/4 63/155/4 66/70/4
f 45/71/6 46/79/6 8/79/6
f 31/73/7 6/77/7 48/156/7
f 6/77/6 47/77/6 48/156/6
f 45/71/6 8/79/6 29/72/6
f 31/73/6 48/156/6 45/71/6
f 86/76/1 85/78/1 4/78/1
f 29/75/1 8/79/1 83/157/1
f 8/79/1 84/79/1 83/157/1
f 86/76/1 4/78/1 32/74/1
f 29/75/1 83/157/1 86/76/1
f 47/77/3 6/77/3 64/77/3
f 4/78/3 85/78/3 82/78/3
f 46/79/3 87/79/3 84/79/3
f 62/80/3 81/158/3 88/81/3
f 33/83/3 61/83/3 65/83/3
f 34/87/2 33/83/2 2/84/2
f 32/86/10 4/78/10 35/159/10
f 4/78/2 36/78/2 35/159/2
f 34/87/2 2/84/2 30/85/2
f 32/86/2 35/159/2 34/87/2
f 44/98/4 38/160/4 43/90/4
f 38/160/4 37/88/4 43/90/4
f 37/88/4 48/161/4 47/89/4
f 47/89/4 67/89/4 57/162/4
f 47/89/4 57/162/4 43/90/4
f 40/91/5 45/163/5 48/92/5
f 73/96/1 87/94/1 46/94/1
f 46/94/1 45/164/1 40/95/1
f 40/95/1 39/97/1 42/96/1
f 39/97/1 41/99/1 42/96/1
f 42/96/1 73/96/1 46/94/1
f 39/97/3 38/160/3 44/98/3
f 59/100/2 68/165/2 88/101/2
f 66/166/6 49/167/6 64/105/6
f 49/167/6 52/103/6 64/105/6
f 52/103/6 56/113/6 54/104/6
f 54/104/6 57/168/6 67/169/6
f 54/104/6 67/169/6 64/105/6
f 51/106/5 49/170/5 66/107/5
f 60/109/1 62/171/1 68/110/1
f 52/103/3 50/114/3 53/112/3
f 55/116/2 53/112/2 50/114/2
f 50/114/2 51/106/2 65/115/2
f 51/106/2 63/108/2 65/115/2
f 65/115/2 61/172/2 58/173/2
f 65/115/2 58/173/2 55/116/2
f 81/117/4 78/174/4 77/118/4
f 75/120/6 79/175/6 71/121/6
f 71/121/6 72/176/6 84/122/6
f 72/176/6 83/177/6 84/122/6
f 84/122/6 87/122/6 73/178/6
f 84/122/6 73/178/6 75/120/6
f 72/123/5 69/128/5 86/124/5
f 71/121/3 79/175/3 80/126/3
f 85/130/2 86/124/2 69/128/2
f 69/128/2 70/127/2 76/129/2
f 70/127/2 80/126/2 76/129/2
f 76/129/2 74/179/2 82/180/2
f 76/129/2 82/180/2 85/130/2
