# Blender 4.3.2
# www.blender.org
mtllib book.mtl
o 立方体.001
v 2.369439 -0.344278 -2.839466
v 2.369439 0.344278 -2.839466
v 2.369439 -0.344278 2.839466
v 2.369439 0.344278 2.839466
v 1.941892 -0.344278 -2.839466
v 1.941892 0.344278 -2.839466
v 1.941892 -0.344278 2.839466
v 1.941892 0.344278 2.839466
v 2.017316 -0.290773 -2.819696
v 2.017316 0.290773 -2.819696
v 2.017316 -0.290773 2.819696
v 2.017316 0.290773 2.819696
v -2.017316 -0.290773 -2.819696
v -2.017316 0.290773 -2.819696
v -2.017316 -0.290773 2.819696
v -2.017316 0.290773 2.819696
v 2.017316 -0.171244 -2.819696
v 2.017316 -0.102747 -2.819696
v 2.017316 -0.034249 -2.819696
v 2.017316 0.034249 -2.819696
v 2.017316 0.102747 -2.819696
v 2.017316 0.171244 -2.819696
v 2.017316 0.171244 2.819696
v 2.017316 0.102747 2.819696
v 2.017316 0.034249 2.819696
v 2.017316 -0.034249 2.819696
v 2.017316 -0.102747 2.819696
v 2.017316 -0.171244 2.819696
v -2.017316 0.171244 2.819696
v -2.017316 -0.171244 2.819696
v -2.017316 0.171244 -2.819696
v -2.017316 -0.171244 -2.819696
v 2.017316 -0.171244 -2.694548
v 2.017316 -0.093890 -2.694548
v 2.017316 -0.043105 -2.694548
v 2.017316 0.044859 -2.694548
v 2.017316 0.092137 -2.694548
v 2.017316 0.171244 -2.694548
v 2.017316 0.171244 2.694548
v 2.017316 0.102747 2.694548
v 2.017316 0.034249 2.694548
v 2.017316 -0.034249 2.694548
v 2.017316 -0.102747 2.694548
v 2.017316 -0.171244 2.694548
v -1.920395 0.171244 2.731203
v -1.899334 0.102747 2.693007
v -1.899334 0.034249 2.693007
v -1.899334 -0.034249 2.693007
v -1.899334 -0.102747 2.693007
v -1.920395 -0.171244 2.731203
v -1.920395 0.171244 -2.731203
v -1.889887 0.092137 -2.713487
v -1.889887 0.044859 -2.713487
v -1.889887 -0.043105 -2.713487
v -1.889887 -0.093890 -2.713487
v -1.920395 -0.171244 -2.731203
v 2.017316 -0.290773 2.014068
v 2.017316 -0.290773 1.208441
v 2.017316 -0.290773 0.402814
v 2.017316 -0.290773 -0.402814
v 2.017316 -0.290773 -1.208441
v 2.017316 -0.290773 -2.014068
v 2.017316 0.290773 -2.014068
v 2.017316 0.290773 -1.208441
v 2.017316 0.290773 -0.402814
v 2.017316 0.290773 0.402814
v 2.017316 0.290773 1.208441
v 2.017316 0.290773 2.014068
v -2.017316 -0.290773 -2.014068
v -2.017316 -0.290773 -1.208441
v -2.017316 -0.290773 -0.402814
v -2.017316 -0.290773 0.402814
v -2.017316 -0.290773 1.208441
v -2.017316 -0.290773 2.014068
v -2.017316 0.290773 2.014068
v -2.017316 0.290773 1.208441
v -2.017316 0.290773 0.402814
v -2.017316 0.290773 -0.402814
v -2.017316 0.290773 -1.208441
v -2.017316 0.290773 -2.014068
v -2.017316 -0.171244 2.014068
v -2.017316 -0.171244 1.208441
v -2.017316 -0.171244 0.402814
v -2.017316 -0.171244 -0.402814
v -2.017316 -0.171244 -1.208441
v -2.017316 -0.171244 -2.014068
v -2.017316 0.171244 2.014068
v -2.017316 0.171244 1.208441
v -2.017316 0.171244 0.402814
v -2.017316 0.171244 -0.402814
v -2.017316 0.171244 -1.208441
v -2.017316 0.171244 -2.014068
v 2.017316 -0.171244 -2.014068
v 2.017316 -0.171244 -1.208441
v 2.017316 -0.171244 -0.402814
v 2.017316 -0.171244 0.402814
v 2.017316 -0.171244 1.208441
v 2.017316 -0.171244 2.014068
v 2.017316 -0.102747 -2.014068
v 2.017316 -0.102747 -1.208441
v 2.017316 -0.102747 -0.402814
v 2.017316 -0.102747 0.402814
v 2.017316 -0.102747 1.208441
v 2.017316 -0.102747 2.014068
v 2.017316 -0.034249 -2.014068
v 2.017316 -0.034249 -1.208441
v 2.017316 -0.034249 -0.402814
v 2.017316 -0.034249 0.402814
v 2.017316 -0.034249 1.208441
v 2.017316 -0.034249 2.014068
v 2.017316 0.034249 -2.014068
v 2.017316 0.034249 -1.208441
v 2.017316 0.034249 -0.402814
v 2.017316 0.034249 0.402814
v 2.017316 0.034249 1.208441
v 2.017316 0.034249 2.014068
v 2.017316 0.102747 -2.014068
v 2.017316 0.102747 -1.208441
v 2.017316 0.102747 -0.402814
v 2.017316 0.102747 0.402814
v 2.017316 0.102747 1.208441
v 2.017316 0.102747 2.014068
v 2.017316 0.171244 -2.014068
v 2.017316 0.171244 -1.208441
v 2.017316 0.171244 -0.402814
v 2.017316 0.171244 0.402814
v 2.017316 0.171244 1.208441
v 2.017316 0.171244 2.014068
v -1.920395 -0.171244 1.950859
v -1.920395 -0.171244 1.170516
v -1.920395 -0.171244 0.390172
v -1.920395 -0.171244 -0.390172
v -1.920395 -0.171244 -1.170516
v -1.920395 -0.171244 -1.950859
v -1.892996 -0.101481 1.950859
v -1.877762 -0.100216 1.170516
v -1.877762 -0.098951 0.390172
v -1.877762 -0.097686 -0.390172
v -1.877762 -0.096421 -1.170516
v -1.892996 -0.095156 -1.950859
v -1.892996 -0.035514 1.950859
v -1.877762 -0.036779 1.170516
v -1.864812 -0.038044 0.390172
v -1.864812 -0.039310 -0.390172
v -1.877762 -0.040575 -1.170516
v -1.892996 -0.041840 -1.950859
v -1.892996 0.035765 1.950859
v -1.877762 0.037280 1.170516
v -1.864812 0.038796 0.390172
v -1.864812 0.040312 -0.390172
v -1.877762 0.041827 -1.170516
v -1.892996 0.043343 -1.950859
v -1.892996 0.101231 1.950859
v -1.877762 0.099715 1.170516
v -1.877762 0.098200 0.390172
v -1.877762 0.096684 -0.390172
v -1.877762 0.095168 -1.170516
v -1.892996 0.093652 -1.950859
v -1.920395 0.171244 1.950859
v -1.920395 0.171244 1.170516
v -1.920395 0.171244 0.390172
v -1.920395 0.171244 -0.390172
v -1.920395 0.171244 -1.170516
v -1.920395 0.171244 -1.950859
v -1.440940 -0.290773 2.819696
v -0.864564 -0.290773 2.819696
v -0.288188 -0.290773 2.819696
v 0.288188 -0.290773 2.819696
v 0.864564 -0.290773 2.819696
v 1.440940 -0.290773 2.819696
v 1.440940 0.290773 2.819696
v 0.864564 0.290773 2.819696
v 0.288188 0.290773 2.819696
v -0.288188 0.290773 2.819696
v -0.864564 0.290773 2.819696
v -1.440940 0.290773 2.819696
v 1.440940 -0.290773 -2.819696
v 0.864564 -0.290773 -2.819696
v 0.288188 -0.290773 -2.819696
v -0.288188 -0.290773 -2.819696
v -0.864564 -0.290773 -2.819696
v -1.440940 -0.290773 -2.819696
v -1.440940 0.290773 -2.819696
v -0.864564 0.290773 -2.819696
v -0.288188 0.290773 -2.819696
v 0.288188 0.290773 -2.819696
v 0.864564 0.290773 -2.819696
v 1.440940 0.290773 -2.819696
v -1.440940 -0.171244 -2.819696
v -0.864564 -0.171244 -2.819696
v -0.288188 -0.171244 -2.819696
v 0.288188 -0.171244 -2.819696
v 0.864564 -0.171244 -2.819696
v 1.440940 -0.171244 -2.819696
v -1.440940 0.171244 -2.819696
v -0.864564 0.171244 -2.819696
v -0.288188 0.171244 -2.819696
v 0.288188 0.171244 -2.819696
v 0.864564 0.171244 -2.819696
v 1.440940 0.171244 -2.819696
v 1.440940 -0.171244 2.819696
v 0.864564 -0.171244 2.819696
v 0.288188 -0.171244 2.819696
v -0.288188 -0.171244 2.819696
v -0.864564 -0.171244 2.819696
v -1.440940 -0.171244 2.819696
v 1.440940 0.171244 2.819696
v 0.864564 0.171244 2.819696
v 0.288188 0.171244 2.819696
v -0.288188 0.171244 2.819696
v -0.864564 0.171244 2.819696
v -1.440940 0.171244 2.819696
v -1.357866 -0.171244 -2.725966
v -0.795335 -0.171244 -2.720730
v -0.232805 -0.171244 -2.715494
v 0.329725 -0.171244 -2.710257
v 0.892256 -0.171244 -2.705021
v 1.454786 -0.171244 -2.699785
v -1.357866 -0.093890 -2.709853
v -0.795335 -0.093890 -2.681031
v -0.232805 -0.093890 -2.675795
v 0.329725 -0.093890 -2.670558
v 0.892256 -0.093890 -2.665322
v 1.454786 -0.093890 -2.683671
v -1.357866 -0.043105 -2.709853
v -0.795335 -0.043105 -2.681031
v -0.232805 -0.043105 -2.660378
v 0.329725 -0.043105 -2.655142
v 0.892256 -0.043105 -2.665322
v 1.454786 -0.043105 -2.683671
v -1.357866 0.044859 -2.709853
v -0.795335 0.044859 -2.681031
v -0.232805 0.044859 -2.660378
v 0.329725 0.044859 -2.655142
v 0.892256 0.044859 -2.665322
v 1.454786 0.044859 -2.683671
v -1.357866 0.092137 -2.709853
v -0.795335 0.092137 -2.681031
v -0.232805 0.092137 -2.675795
v 0.329725 0.092137 -2.670558
v 0.892256 0.092137 -2.665322
v 1.454786 0.092137 -2.683671
v -1.357866 0.171244 -2.725966
v -0.795335 0.171244 -2.720730
v -0.232805 0.171244 -2.715494
v 0.329725 0.171244 -2.710257
v 0.892256 0.171244 -2.705021
v 1.454786 0.171244 -2.699785
v 1.454786 -0.171244 2.699785
v 0.892256 -0.171244 2.705021
v 0.329725 -0.171244 2.710257
v -0.232805 -0.171244 2.715494
v -0.795335 -0.171244 2.720730
v -1.357866 -0.171244 2.725966
v 1.454786 -0.102747 2.680483
v 0.892256 -0.102747 2.650496
v 0.329725 -0.102747 2.655732
v -0.232805 -0.102747 2.660968
v -0.795335 -0.102747 2.666205
v -1.357866 -0.102747 2.706665
v 1.454786 -0.034249 2.680483
v 0.892256 -0.034249 2.650496
v 0.329725 -0.034249 2.640820
v -0.232805 -0.034249 2.646056
v -0.795335 -0.034249 2.666205
v -1.357866 -0.034249 2.706665
v 1.454786 0.034249 2.680483
v 0.892256 0.034249 2.650496
v 0.329725 0.034249 2.640820
v -0.232805 0.034249 2.646056
v -0.795335 0.034249 2.666205
v -1.357866 0.034249 2.706665
v 1.454786 0.102747 2.680483
v 0.892256 0.102747 2.650496
v 0.329725 0.102747 2.655732
v -0.232805 0.102747 2.660968
v -0.795335 0.102747 2.666205
v -1.357866 0.102747 2.706665
v 1.454786 0.171244 2.699785
v 0.892256 0.171244 2.705021
v 0.329725 0.171244 2.710257
v -0.232805 0.171244 2.715494
v -0.795335 0.171244 2.720730
v -1.357866 0.171244 2.725966
vn 1.0000 -0.0000 -0.0000
vn -0.0000 -0.0000 1.0000
vn -1.0000 -0.0000 -0.0000
vn -0.0000 -0.0000 -1.0000
vn -0.0000 -1.0000 -0.0000
vn -0.0000 1.0000 -0.0000
vn 0.0093 -0.0000 -1.0000
vn -0.0193 -0.0000 -0.9998
vn -0.0189 -0.1996 -0.9797
vn -0.9303 0.3669 -0.0000
vn -1.0000 -0.0000 -0.0041
vn -0.9429 -0.3330 -0.0032
vn 0.0081 0.4851 0.8744
vn -0.0252 -0.0000 0.9997
vn -0.0243 -0.2711 0.9622
vn -0.9312 -0.3644 -0.0072
vn -0.8589 -0.5119 -0.0158
vn -0.8637 -0.5041 0.0010
vn -0.8681 -0.4964 0.0010
vn -0.8724 -0.4889 0.0009
vn -0.8722 -0.4888 0.0180
vn -1.0000 -0.0000 -0.0085
vn -0.9998 -0.0000 -0.0195
vn -0.9769 -0.2130 -0.0166
vn -0.9771 -0.2130 -0.0004
vn -0.9745 -0.2239 0.0157
vn -0.9998 -0.0000 0.0195
vn -0.9999 -0.0000 -0.0166
vn -0.9999 -0.0000 0.0166
vn -0.9781 0.2080 0.0003
vn -0.9558 0.2939 -0.0000
vn -0.9308 0.3656 -0.0000
vn -0.8574 0.5146 -0.0000
vn -0.8614 0.5080 -0.0000
vn -0.8652 0.5015 -0.0000
vn -0.9409 0.3388 -0.0000
vn -0.0241 -0.2712 0.9622
vn -0.0417 -0.6223 0.7817
vn 0.0073 -0.6228 0.7824
vn 0.0562 -0.6218 0.7812
vn -0.0250 -0.0000 0.9997
vn -0.0532 -0.0000 0.9986
vn -0.0168 -0.2127 0.9770
vn 0.0091 -0.2127 0.9771
vn 0.0350 -0.2126 0.9765
vn 0.0717 -0.0000 0.9974
vn -0.0172 -0.0000 0.9999
vn 0.0093 -0.0000 1.0000
vn 0.0358 -0.0000 0.9994
vn 0.0091 0.2127 0.9771
vn 0.0090 0.2712 0.9625
vn 0.0073 0.6228 0.7824
vn 0.0067 -0.1996 -0.9799
vn 0.0457 -0.4481 -0.8928
vn 0.0083 -0.4485 -0.8937
vn -0.0291 -0.4483 -0.8934
vn 0.0068 -0.0000 -1.0000
vn 0.0512 -0.0000 -0.9987
vn 0.0349 -0.3098 -0.9502
vn 0.0089 -0.3100 -0.9507
vn -0.0172 -0.3100 -0.9506
vn -0.0326 -0.0000 -0.9995
vn 0.0367 -0.0000 -0.9993
vn -0.0181 -0.0000 -0.9998
vn 0.0089 0.2905 -0.9568
vn 0.0091 0.2198 -0.9755
vn 0.0091 0.2039 -0.9789
vn 0.0083 0.4566 -0.8896
vn -0.0189 0.2039 -0.9788
vn -0.9409 0.3388 -0.0033
vn -0.9330 -0.3598 -0.0000
vn -0.0243 0.2711 0.9622
vn 0.0081 -0.4851 0.8744
vn -0.9558 -0.2939 -0.0000
vn -0.9312 -0.3644 -0.0000
vn -0.8590 -0.5120 -0.0000
vn -0.8637 -0.5041 -0.0000
vn -0.8681 -0.4964 -0.0000
vn -0.9429 -0.3330 -0.0000
vn -0.9746 -0.2239 0.0004
vn -0.9780 0.2079 -0.0166
vn -0.9763 0.2166 -0.0004
vn -0.9761 0.2165 0.0158
vn -0.9308 0.3656 -0.0073
vn -0.8573 0.5146 -0.0159
vn -0.8614 0.5080 0.0008
vn -0.8652 0.5015 0.0008
vn -0.8689 0.4951 0.0008
vn -0.8687 0.4950 0.0178
vn 0.0090 -0.2712 0.9625
vn -0.0168 0.2127 0.9770
vn 0.0350 0.2126 0.9765
vn -0.0241 0.2712 0.9622
vn -0.0417 0.6223 0.7817
vn 0.0562 0.6218 0.7812
vn 0.0091 -0.2152 -0.9765
vn 0.0091 -0.1996 -0.9798
vn 0.0351 0.2903 -0.9563
vn -0.0173 0.2904 -0.9567
vn 0.0067 0.2039 -0.9790
vn 0.0455 0.4561 -0.8888
vn -0.0290 0.4564 -0.8893
vt 0.704265 0.011667
vt 0.597535 0.118397
vt 0.597535 0.011667
vt 0.704265 0.118397
vt 0.597535 0.225126
vt 0.704265 0.225126
vt 0.597535 0.331856
vt 0.704265 0.331856
vt 0.597535 0.438586
vt 0.490805 0.331856
vt 0.490805 0.225126
vt 0.810994 0.225126
vt 0.465166 0.205698
vt 0.432816 0.238048
vt 0.432816 0.205698
vt 0.432816 0.917397
vt 0.432816 0.885047
vt 0.271066 0.238048
vt 0.271066 0.270398
vt 0.432816 0.658597
vt 0.432816 0.690947
vt 0.400466 0.011598
vt 0.432816 0.011598
vt 0.368116 0.011598
vt 0.432816 0.432148
vt 0.432816 0.464498
vt 0.432816 0.432148
vt 0.303416 0.238048
vt 0.271066 0.238048
vt 0.368116 0.011598
vt 0.335766 0.011598
vt 0.335766 0.238048
vt 0.303416 0.011598
vt 0.271066 0.723297
vt 0.271066 0.690947
vt 0.271067 0.723297
vt 0.368116 0.238048
vt 0.271066 0.011598
vt 0.400466 0.238048
vt 0.271066 0.496847
vt 0.271066 0.464498
vt 0.271067 0.496847
vt 0.271066 0.205698
vt 0.238717 0.238048
vt 0.238717 0.205698
vt 0.303416 0.205698
vt 0.335766 0.205698
vt 0.368116 0.205698
vt 0.400466 0.205698
vt 0.271067 0.885047
vt 0.303416 0.917397
vt 0.271066 0.917397
vt 0.335766 0.885047
vt 0.303416 0.885047
vt 0.368116 0.885047
vt 0.335766 0.917397
vt 0.400466 0.885047
vt 0.368116 0.917397
vt 0.400466 0.917397
vt 0.271066 0.658597
vt 0.303416 0.690947
vt 0.335766 0.658597
vt 0.303416 0.658597
vt 0.368116 0.658597
vt 0.335766 0.690947
vt 0.400466 0.690947
vt 0.368116 0.690947
vt 0.400466 0.658597
vt 0.271066 0.432147
vt 0.303416 0.464498
vt 0.335766 0.432148
vt 0.303416 0.432148
vt 0.368116 0.432148
vt 0.335766 0.464498
vt 0.400466 0.432148
vt 0.368116 0.464498
vt 0.400466 0.464498
vt 0.400466 0.238048
vt 0.432816 0.496847
vt 0.400467 0.496848
vt 0.432816 0.529197
vt 0.400466 0.529197
vt 0.432816 0.561547
vt 0.400467 0.561547
vt 0.432816 0.593897
vt 0.400466 0.593897
vt 0.432816 0.626247
vt 0.400466 0.626247
vt 0.368116 0.496847
vt 0.368116 0.529198
vt 0.368116 0.561547
vt 0.368116 0.593897
vt 0.368116 0.626247
vt 0.335767 0.496847
vt 0.335766 0.529197
vt 0.335766 0.561547
vt 0.335766 0.593897
vt 0.335766 0.626247
vt 0.303416 0.496847
vt 0.303416 0.529197
vt 0.303416 0.561547
vt 0.303416 0.593897
vt 0.303416 0.626247
vt 0.271067 0.529197
vt 0.271067 0.561547
vt 0.271067 0.593897
vt 0.271066 0.626247
vt 0.400466 0.043948
vt 0.432816 0.043948
vt 0.400466 0.076298
vt 0.432816 0.076298
vt 0.400466 0.108648
vt 0.432816 0.108648
vt 0.400466 0.140998
vt 0.432816 0.140998
vt 0.400466 0.173348
vt 0.432816 0.173348
vt 0.368116 0.043948
vt 0.368116 0.076298
vt 0.368116 0.108648
vt 0.368116 0.140998
vt 0.368116 0.173348
vt 0.335766 0.043948
vt 0.335766 0.076298
vt 0.335766 0.108648
vt 0.335766 0.140998
vt 0.335766 0.173348
vt 0.303416 0.043948
vt 0.303416 0.076298
vt 0.303416 0.108648
vt 0.303416 0.140998
vt 0.303416 0.173348
vt 0.271066 0.043948
vt 0.271066 0.076298
vt 0.271066 0.108648
vt 0.271066 0.140998
vt 0.271066 0.173348
vt 0.238717 0.043948
vt 0.238717 0.011598
vt 0.238717 0.076298
vt 0.238717 0.108648
vt 0.238717 0.140998
vt 0.238717 0.173348
vt 0.271067 0.658597
vt 0.271066 0.690947
vt 0.271067 0.626247
vt 0.271066 0.561547
vt 0.432816 0.529197
vt 0.432816 0.593897
vt 0.432816 0.626247
vt 0.238717 0.529197
vt 0.238717 0.496847
vt 0.465166 0.011598
vt 0.465166 0.043948
vt 0.465166 0.076298
vt 0.465166 0.108648
vt 0.465166 0.140998
vt 0.465166 0.173348
vt 0.012267 0.496847
vt 0.044617 0.464498
vt 0.076967 0.464498
vt 0.432816 0.270398
vt 0.400466 0.270398
vt 0.432816 0.302748
vt 0.400466 0.302748
vt 0.400466 0.335098
vt 0.432816 0.335098
vt 0.400466 0.367448
vt 0.432816 0.367448
vt 0.400466 0.399798
vt 0.432816 0.399798
vt 0.368116 0.270398
vt 0.368116 0.302748
vt 0.368116 0.335098
vt 0.368116 0.367448
vt 0.368116 0.399798
vt 0.335766 0.270398
vt 0.335766 0.302748
vt 0.335766 0.335098
vt 0.335767 0.367448
vt 0.335766 0.399798
vt 0.303416 0.270398
vt 0.303416 0.302748
vt 0.303416 0.335098
vt 0.303416 0.367448
vt 0.303416 0.399798
vt 0.271066 0.302748
vt 0.271067 0.335098
vt 0.271066 0.367448
vt 0.271067 0.399798
vt 0.432816 0.723297
vt 0.400466 0.723297
vt 0.432816 0.755647
vt 0.400466 0.755647
vt 0.432816 0.787997
vt 0.400466 0.787997
vt 0.432816 0.820347
vt 0.400466 0.820347
vt 0.432816 0.852697
vt 0.400466 0.852697
vt 0.368116 0.723297
vt 0.368116 0.755647
vt 0.368116 0.787997
vt 0.368116 0.820347
vt 0.368116 0.852697
vt 0.335766 0.723297
vt 0.335766 0.755647
vt 0.335766 0.787997
vt 0.335766 0.820347
vt 0.335766 0.852697
vt 0.303416 0.723297
vt 0.303416 0.755647
vt 0.303416 0.787997
vt 0.303416 0.820347
vt 0.303416 0.852697
vt 0.271067 0.755647
vt 0.271067 0.787997
vt 0.271066 0.820347
vt 0.271066 0.852697
vt 0.271067 0.917397
vt 0.271066 0.852697
vt 0.271066 0.755647
vt 0.465166 0.496847
vt 0.497516 0.464498
vt 0.529866 0.464498
vt 0.432816 0.238048
vt 0.432816 0.302748
vt 0.271067 0.432148
vt 0.271066 0.464498
vt 0.271066 0.399798
vt 0.271066 0.335098
vt 0.271066 0.302748
vt 0.432816 0.723297
vt 0.432816 0.852697
vt 0.238717 0.755647
vt 0.238717 0.723297
vt 0.238717 0.302748
vt 0.238717 0.270398
vt 0.465166 0.723297
vt 0.465166 0.270398
vt 0.704265 0.438586
vt 0.810994 0.331856
vt 0.465166 0.238048
vt 0.238717 0.690947
vt 0.238717 0.658597
vt 0.238717 0.626247
vt 0.238717 0.593897
vt 0.238717 0.561547
vt 0.238717 0.464498
vt 0.206367 0.690947
vt 0.174017 0.690947
vt 0.141667 0.690947
vt 0.109317 0.690947
vt 0.012267 0.593897
vt 0.076967 0.690947
vt 0.012267 0.626247
vt 0.141667 0.464498
vt 0.044617 0.690947
vt 0.012267 0.690947
vt 0.012267 0.658597
vt 0.012267 0.561547
vt 0.206367 0.464498
vt 0.174017 0.464498
vt 0.012267 0.529197
vt 0.109317 0.464498
vt 0.012267 0.464498
vt 0.691616 0.658597
vt 0.691616 0.690947
vt 0.659266 0.690947
vt 0.626916 0.690947
vt 0.691616 0.626247
vt 0.594566 0.690947
vt 0.691616 0.593897
vt 0.562216 0.690947
vt 0.691616 0.561547
vt 0.465166 0.593897
vt 0.529866 0.690947
vt 0.465166 0.626247
vt 0.691616 0.529197
vt 0.594566 0.464498
vt 0.497516 0.690947
vt 0.465166 0.690947
vt 0.465166 0.658597
vt 0.465166 0.561547
vt 0.659266 0.464498
vt 0.691616 0.464498
vt 0.691616 0.496847
vt 0.626916 0.464498
vt 0.465166 0.529197
vt 0.562216 0.464498
vt 0.465166 0.464498
vt 0.238717 0.917397
vt 0.238717 0.885047
vt 0.238717 0.852697
vt 0.238717 0.820347
vt 0.238717 0.787997
vt 0.238717 0.432148
vt 0.238717 0.399798
vt 0.238717 0.367448
vt 0.238717 0.335098
vt 0.465166 0.885047
vt 0.465166 0.917397
vt 0.465166 0.852697
vt 0.465166 0.820347
vt 0.465166 0.787997
vt 0.465166 0.755647
vt 0.465166 0.432148
vt 0.465166 0.399798
vt 0.465166 0.367448
vt 0.465166 0.335098
vt 0.465166 0.302748
s 0
usemtl マテリアル
f 2/1/1 3/2/1 1/3/1
f 4/4/2 7/5/2 3/2/2
f 8/6/3 5/7/3 7/5/3
f 6/8/4 1/9/4 5/7/4
f 7/5/5 1/10/5 3/11/5
f 4/12/6 6/8/6 8/6/6
f 68/13/1 23/14/1 128/15/1
f 22/16/5 248/17/5 200/17/5
f 28/18/6 249/19/6 201/19/6
f 92/20/5 51/21/5 164/20/5
f 21/22/3 38/23/3 22/23/3
f 21/22/3 36/24/3 37/22/3
f 212/25/5 45/26/5 284/27/5
f 27/28/3 44/29/3 28/18/3
f 20/30/3 35/31/3 36/24/3
f 26/32/3 43/28/3 27/28/3
f 18/33/3 35/31/3 19/31/3
f 189/34/6 56/35/6 213/36/6
f 25/37/3 42/32/3 26/32/3
f 18/33/3 33/38/3 34/33/3
f 24/39/3 41/37/3 25/37/3
f 81/40/6 50/41/6 129/42/6
f 98/43/1 11/44/1 57/45/1
f 104/46/1 28/18/1 98/43/1
f 110/47/1 27/28/1 104/46/1
f 116/48/1 26/32/1 110/47/1
f 122/49/1 25/37/1 116/48/1
f 128/15/1 24/39/1 122/49/1
f 218/50/7 34/51/7 33/52/7
f 230/53/8 34/51/8 224/54/8
f 236/55/8 35/56/8 230/53/8
f 242/57/8 36/58/8 236/55/8
f 248/17/9 37/59/9 242/57/9
f 134/60/10 55/61/10 56/35/10
f 146/62/11 55/61/11 140/63/11
f 152/64/11 54/65/11 146/62/11
f 152/64/11 52/66/11 53/67/11
f 164/20/12 52/66/12 158/68/12
f 254/69/13 49/70/13 50/41/13
f 266/71/14 49/70/14 260/72/14
f 272/73/14 48/74/14 266/71/14
f 278/75/14 47/76/14 272/73/14
f 284/27/15 46/77/15 278/75/15
f 23/14/3 40/78/3 24/39/3
f 46/77/16 159/79/16 153/80/16
f 153/80/17 160/81/17 154/82/17
f 154/82/18 161/83/18 155/84/18
f 155/84/19 162/85/19 156/86/19
f 156/86/20 163/87/20 157/88/20
f 163/87/21 158/68/21 157/88/21
f 46/77/22 147/89/22 47/76/22
f 153/80/23 148/90/23 147/89/23
f 148/90/24 155/84/24 149/91/24
f 155/84/25 150/92/25 149/91/25
f 156/86/26 151/93/26 150/92/26
f 157/88/27 152/64/27 151/93/27
f 47/76/22 141/94/22 48/74/22
f 147/89/23 142/95/23 141/94/23
f 148/90/28 143/96/28 142/95/28
f 149/91/3 144/97/3 143/96/3
f 150/92/29 145/98/29 144/97/29
f 151/93/27 146/62/27 145/98/27
f 49/70/22 141/94/22 135/99/22
f 141/94/23 136/100/23 135/99/23
f 142/95/3 137/101/3 136/100/3
f 143/96/30 138/102/30 137/101/30
f 138/102/3 145/98/3 139/103/3
f 145/98/27 140/63/27 139/103/27
f 49/70/31 129/42/31 50/41/31
f 135/99/32 130/104/32 129/42/32
f 136/100/33 131/105/33 130/104/33
f 137/101/34 132/106/34 131/105/34
f 138/102/35 133/107/35 132/106/35
f 133/107/36 140/63/36 134/60/36
f 22/23/1 117/108/1 21/22/1
f 123/109/1 118/110/1 117/108/1
f 124/111/1 119/112/1 118/110/1
f 125/113/1 120/114/1 119/112/1
f 126/115/1 121/116/1 120/114/1
f 127/117/1 122/49/1 121/116/1
f 21/22/1 111/118/1 20/30/1
f 117/108/1 112/119/1 111/118/1
f 118/110/1 113/120/1 112/119/1
f 119/112/1 114/121/1 113/120/1
f 120/114/1 115/122/1 114/121/1
f 121/116/1 116/48/1 115/122/1
f 20/30/1 105/123/1 19/31/1
f 111/118/1 106/124/1 105/123/1
f 112/119/1 107/125/1 106/124/1
f 113/120/1 108/126/1 107/125/1
f 114/121/1 109/127/1 108/126/1
f 115/122/1 110/47/1 109/127/1
f 19/31/1 99/128/1 18/33/1
f 105/123/1 100/129/1 99/128/1
f 106/124/1 101/130/1 100/129/1
f 107/125/1 102/131/1 101/130/1
f 108/126/1 103/132/1 102/131/1
f 109/127/1 104/46/1 103/132/1
f 18/33/1 93/133/1 17/38/1
f 99/128/1 94/134/1 93/133/1
f 100/129/1 95/135/1 94/134/1
f 101/130/1 96/136/1 95/135/1
f 102/131/1 97/137/1 96/136/1
f 103/132/1 98/43/1 97/137/1
f 17/38/1 62/138/1 9/139/1
f 93/133/1 61/140/1 62/138/1
f 94/134/1 60/141/1 61/140/1
f 95/135/1 59/142/1 60/141/1
f 96/136/1 58/143/1 59/142/1
f 97/137/1 57/45/1 58/143/1
f 86/144/6 56/35/6 32/145/6
f 85/146/6 134/60/6 86/144/6
f 84/106/6 133/107/6 85/146/6
f 83/147/6 132/106/6 84/106/6
f 83/147/6 130/104/6 131/105/6
f 82/104/6 129/42/6 130/104/6
f 87/79/5 45/26/5 29/26/5
f 88/148/5 159/79/5 87/79/5
f 89/83/5 160/81/5 88/148/5
f 90/149/5 161/83/5 89/83/5
f 90/149/5 163/87/5 162/85/5
f 91/150/5 164/20/5 163/87/5
f 73/151/3 74/152/3 81/40/3
f 10/153/1 123/109/1 22/23/1
f 63/154/1 124/111/1 123/109/1
f 64/155/1 125/113/1 124/111/1
f 65/156/1 126/115/1 125/113/1
f 66/157/1 127/117/1 126/115/1
f 67/158/1 128/15/1 127/117/1
f 57/159/5 170/160/5 169/161/5
f 40/78/37 279/162/37 273/163/37
f 273/163/38 280/164/38 274/165/38
f 280/164/39 275/166/39 274/165/39
f 281/167/39 276/168/39 275/166/39
f 282/169/39 277/170/39 276/168/39
f 283/171/40 278/75/40 277/170/40
f 40/78/41 267/172/41 41/37/41
f 273/163/42 268/173/42 267/172/42
f 268/173/43 275/166/43 269/174/43
f 275/166/44 270/175/44 269/174/44
f 276/168/45 271/176/45 270/175/45
f 277/170/46 272/73/46 271/176/46
f 41/37/41 261/177/41 42/32/41
f 267/172/42 262/178/42 261/177/42
f 268/173/47 263/179/47 262/178/47
f 269/174/48 264/180/48 263/179/48
f 270/175/49 265/181/49 264/180/49
f 271/176/46 266/71/46 265/181/46
f 42/32/41 255/182/41 43/28/41
f 261/177/42 256/183/42 255/182/42
f 262/178/48 257/184/48 256/183/48
f 257/184/50 264/180/50 258/185/50
f 258/185/48 265/181/48 259/186/48
f 265/181/46 260/72/46 259/186/46
f 43/28/48 249/19/48 44/29/48
f 255/182/51 250/187/51 249/19/51
f 250/187/52 257/184/52 251/188/52
f 251/188/52 258/185/52 252/189/52
f 252/189/52 259/186/52 253/190/52
f 253/190/51 260/72/51 254/69/51
f 52/66/53 243/191/53 237/192/53
f 237/192/54 244/193/54 238/194/54
f 238/194/55 245/195/55 239/196/55
f 239/196/55 246/197/55 240/198/55
f 240/198/55 247/199/55 241/200/55
f 247/199/56 242/57/56 241/200/56
f 52/66/57 231/201/57 53/67/57
f 237/192/58 232/202/58 231/201/58
f 232/202/59 239/196/59 233/203/59
f 233/203/60 240/198/60 234/204/60
f 240/198/61 235/205/61 234/204/61
f 241/200/62 236/55/62 235/205/62
f 53/67/57 225/206/57 54/65/57
f 231/201/58 226/207/58 225/206/58
f 232/202/63 227/208/63 226/207/63
f 233/203/7 228/209/7 227/208/7
f 234/204/64 229/210/64 228/209/64
f 235/205/62 230/53/62 229/210/62
f 55/61/57 225/206/57 219/211/57
f 219/211/58 226/207/58 220/212/58
f 226/207/7 221/213/7 220/212/7
f 227/208/65 222/214/65 221/213/65
f 222/214/7 229/210/7 223/215/7
f 223/215/62 230/53/62 224/54/62
f 55/61/66 213/36/66 56/35/66
f 219/211/67 214/216/67 213/36/67
f 220/212/68 215/217/68 214/216/68
f 221/213/68 216/218/68 215/217/68
f 222/214/68 217/219/68 216/218/68
f 217/219/67 224/54/67 218/50/67
f 17/220/6 218/50/6 33/52/6
f 194/50/6 217/219/6 218/50/6
f 193/221/6 216/218/6 217/219/6
f 192/218/6 215/217/6 216/218/6
f 191/217/6 214/216/6 215/217/6
f 190/222/6 213/36/6 214/216/6
f 75/223/6 176/224/6 175/225/6
f 23/14/5 279/162/5 39/226/5
f 207/162/5 280/164/5 279/162/5
f 208/227/5 281/167/5 280/164/5
f 209/167/5 282/169/5 281/167/5
f 210/169/5 283/171/5 282/169/5
f 211/171/5 284/27/5 283/171/5
f 206/228/6 50/41/6 30/229/6
f 205/230/6 254/69/6 206/228/6
f 204/189/6 253/190/6 205/230/6
f 203/231/6 252/189/6 204/189/6
f 202/232/6 251/188/6 203/231/6
f 201/19/6 250/187/6 202/232/6
f 195/233/5 51/21/5 31/21/5
f 196/193/5 243/191/5 195/233/5
f 197/195/5 244/193/5 196/193/5
f 198/197/5 245/195/5 197/195/5
f 199/234/5 246/197/5 198/197/5
f 200/17/5 247/199/5 199/234/5
f 181/235/4 182/236/4 189/34/4
f 169/237/2 170/238/2 201/19/2
f 196/193/4 195/233/4 183/239/4
f 88/148/3 87/79/3 75/223/3
f 208/227/2 207/162/2 171/240/2
f 2/1/1 4/4/1 3/2/1
f 4/4/2 8/6/2 7/5/2
f 8/6/3 6/8/3 5/7/3
f 6/8/4 2/241/4 1/9/4
f 7/5/5 5/7/5 1/10/5
f 4/12/6 2/242/6 6/8/6
f 68/13/1 12/243/1 23/14/1
f 22/16/5 38/16/5 248/17/5
f 28/18/6 44/29/6 249/19/6
f 92/20/5 31/21/5 51/21/5
f 21/22/3 37/22/3 38/23/3
f 21/22/3 20/30/3 36/24/3
f 212/25/5 29/26/5 45/26/5
f 27/28/3 43/28/3 44/29/3
f 20/30/3 19/31/3 35/31/3
f 26/32/3 42/32/3 43/28/3
f 18/33/3 34/33/3 35/31/3
f 189/34/6 32/145/6 56/35/6
f 25/37/3 41/37/3 42/32/3
f 18/33/3 17/38/3 33/38/3
f 24/39/3 40/78/3 41/37/3
f 81/40/6 30/229/6 50/41/6
f 98/43/1 28/18/1 11/44/1
f 104/46/1 27/28/1 28/18/1
f 110/47/1 26/32/1 27/28/1
f 116/48/1 25/37/1 26/32/1
f 122/49/1 24/39/1 25/37/1
f 128/15/1 23/14/1 24/39/1
f 218/50/69 224/54/69 34/51/69
f 230/53/8 35/56/8 34/51/8
f 236/55/8 36/58/8 35/56/8
f 242/57/8 37/59/8 36/58/8
f 248/17/7 38/16/7 37/59/7
f 134/60/70 140/63/70 55/61/70
f 146/62/11 54/65/11 55/61/11
f 152/64/11 53/67/11 54/65/11
f 152/64/11 158/68/11 52/66/11
f 164/20/71 51/21/71 52/66/71
f 254/69/72 260/72/72 49/70/72
f 266/71/14 48/74/14 49/70/14
f 272/73/14 47/76/14 48/74/14
f 278/75/14 46/77/14 47/76/14
f 284/27/73 45/26/73 46/77/73
f 23/14/3 39/226/3 40/78/3
f 46/77/74 45/26/74 159/79/74
f 153/80/75 159/79/75 160/81/75
f 154/82/76 160/81/76 161/83/76
f 155/84/77 161/83/77 162/85/77
f 156/86/78 162/85/78 163/87/78
f 163/87/79 164/20/79 158/68/79
f 46/77/22 153/80/22 147/89/22
f 153/80/23 154/82/23 148/90/23
f 148/90/3 154/82/3 155/84/3
f 155/84/80 156/86/80 150/92/80
f 156/86/3 157/88/3 151/93/3
f 157/88/27 158/68/27 152/64/27
f 47/76/22 147/89/22 141/94/22
f 147/89/23 148/90/23 142/95/23
f 148/90/28 149/91/28 143/96/28
f 149/91/3 150/92/3 144/97/3
f 150/92/29 151/93/29 145/98/29
f 151/93/27 152/64/27 146/62/27
f 49/70/22 48/74/22 141/94/22
f 141/94/23 142/95/23 136/100/23
f 142/95/81 143/96/81 137/101/81
f 143/96/82 144/97/82 138/102/82
f 138/102/83 144/97/83 145/98/83
f 145/98/27 146/62/27 140/63/27
f 49/70/84 135/99/84 129/42/84
f 135/99/85 136/100/85 130/104/85
f 136/100/86 137/101/86 131/105/86
f 137/101/87 138/102/87 132/106/87
f 138/102/88 139/103/88 133/107/88
f 133/107/89 139/103/89 140/63/89
f 22/23/1 123/109/1 117/108/1
f 123/109/1 124/111/1 118/110/1
f 124/111/1 125/113/1 119/112/1
f 125/113/1 126/115/1 120/114/1
f 126/115/1 127/117/1 121/116/1
f 127/117/1 128/15/1 122/49/1
f 21/22/1 117/108/1 111/118/1
f 117/108/1 118/110/1 112/119/1
f 118/110/1 119/112/1 113/120/1
f 119/112/1 120/114/1 114/121/1
f 120/114/1 121/116/1 115/122/1
f 121/116/1 122/49/1 116/48/1
f 20/30/1 111/118/1 105/123/1
f 111/118/1 112/119/1 106/124/1
f 112/119/1 113/120/1 107/125/1
f 113/120/1 114/121/1 108/126/1
f 114/121/1 115/122/1 109/127/1
f 115/122/1 116/48/1 110/47/1
f 19/31/1 105/123/1 99/128/1
f 105/123/1 106/124/1 100/129/1
f 106/124/1 107/125/1 101/130/1
f 107/125/1 108/126/1 102/131/1
f 108/126/1 109/127/1 103/132/1
f 109/127/1 110/47/1 104/46/1
f 18/33/1 99/128/1 93/133/1
f 99/128/1 100/129/1 94/134/1
f 100/129/1 101/130/1 95/135/1
f 101/130/1 102/131/1 96/136/1
f 102/131/1 103/132/1 97/137/1
f 103/132/1 104/46/1 98/43/1
f 17/38/1 93/133/1 62/138/1
f 93/133/1 94/134/1 61/140/1
f 94/134/1 95/135/1 60/141/1
f 95/135/1 96/136/1 59/142/1
f 96/136/1 97/137/1 58/143/1
f 97/137/1 98/43/1 57/45/1
f 86/144/6 134/60/6 56/35/6
f 85/146/6 133/107/6 134/60/6
f 84/106/6 132/106/6 133/107/6
f 83/147/6 131/105/6 132/106/6
f 83/147/6 82/104/6 130/104/6
f 82/104/6 81/40/6 129/42/6
f 87/79/5 159/79/5 45/26/5
f 88/148/5 160/81/5 159/79/5
f 89/83/5 161/83/5 160/81/5
f 90/149/5 162/85/5 161/83/5
f 90/149/5 91/150/5 163/87/5
f 91/150/5 92/20/5 164/20/5
f 86/144/3 32/145/3 13/244/3
f 86/144/3 13/244/3 69/245/3
f 85/146/3 86/144/3 69/245/3
f 85/146/3 69/245/3 70/246/3
f 84/106/3 85/146/3 70/246/3
f 84/106/3 70/246/3 71/247/3
f 83/147/3 84/106/3 71/247/3
f 83/147/3 71/247/3 72/248/3
f 82/104/3 83/147/3 72/248/3
f 82/104/3 72/248/3 73/151/3
f 15/249/3 30/229/3 81/40/3
f 81/40/3 82/104/3 73/151/3
f 74/152/3 15/249/3 81/40/3
f 10/153/1 63/154/1 123/109/1
f 63/154/1 64/155/1 124/111/1
f 64/155/1 65/156/1 125/113/1
f 65/156/1 66/157/1 126/115/1
f 66/157/1 67/158/1 127/117/1
f 67/158/1 68/13/1 128/15/1
f 69/245/5 13/244/5 182/250/5
f 69/245/5 182/250/5 181/251/5
f 70/246/5 69/245/5 181/251/5
f 70/246/5 181/251/5 180/252/5
f 71/247/5 70/246/5 180/252/5
f 71/247/5 180/252/5 179/253/5
f 72/248/5 71/247/5 60/254/5
f 71/247/5 179/253/5 60/254/5
f 179/253/5 178/255/5 61/256/5
f 60/254/5 179/253/5 61/256/5
f 73/151/5 72/248/5 167/257/5
f 177/258/5 9/259/5 62/260/5
f 72/248/5 60/254/5 59/261/5
f 178/255/5 177/258/5 62/260/5
f 165/262/5 15/249/5 74/152/5
f 74/152/5 73/151/5 166/263/5
f 166/263/5 73/151/5 167/257/5
f 62/260/5 61/256/5 178/255/5
f 165/262/5 74/152/5 166/263/5
f 72/248/5 59/261/5 167/257/5
f 59/261/5 58/264/5 168/265/5
f 168/265/5 167/257/5 59/261/5
f 58/264/5 57/159/5 169/161/5
f 57/159/5 11/266/5 170/160/5
f 169/161/5 168/265/5 58/264/5
f 40/78/48 39/226/48 279/162/48
f 273/163/90 279/162/90 280/164/90
f 280/164/39 281/167/39 275/166/39
f 281/167/39 282/169/39 276/168/39
f 282/169/39 283/171/39 277/170/39
f 283/171/90 284/27/90 278/75/90
f 40/78/41 273/163/41 267/172/41
f 273/163/42 274/165/42 268/173/42
f 268/173/48 274/165/48 275/166/48
f 275/166/44 276/168/44 270/175/44
f 276/168/48 277/170/48 271/176/48
f 277/170/46 278/75/46 272/73/46
f 41/37/41 267/172/41 261/177/41
f 267/172/42 268/173/42 262/178/42
f 268/173/47 269/174/47 263/179/47
f 269/174/48 270/175/48 264/180/48
f 270/175/49 271/176/49 265/181/49
f 271/176/46 272/73/46 266/71/46
f 42/32/41 261/177/41 255/182/41
f 261/177/42 262/178/42 256/183/42
f 262/178/91 263/179/91 257/184/91
f 257/184/50 263/179/50 264/180/50
f 258/185/92 264/180/92 265/181/92
f 265/181/46 266/71/46 260/72/46
f 43/28/93 255/182/93 249/19/93
f 255/182/94 256/183/94 250/187/94
f 250/187/52 256/183/52 257/184/52
f 251/188/52 257/184/52 258/185/52
f 252/189/52 258/185/52 259/186/52
f 253/190/95 259/186/95 260/72/95
f 52/66/96 51/21/96 243/191/96
f 237/192/97 243/191/97 244/193/97
f 238/194/55 244/193/55 245/195/55
f 239/196/55 245/195/55 246/197/55
f 240/198/55 246/197/55 247/199/55
f 247/199/97 248/17/97 242/57/97
f 52/66/57 237/192/57 231/201/57
f 237/192/58 238/194/58 232/202/58
f 232/202/7 238/194/7 239/196/7
f 233/203/60 239/196/60 240/198/60
f 240/198/7 241/200/7 235/205/7
f 241/200/62 242/57/62 236/55/62
f 53/67/57 231/201/57 225/206/57
f 231/201/58 232/202/58 226/207/58
f 232/202/63 233/203/63 227/208/63
f 233/203/7 234/204/7 228/209/7
f 234/204/64 235/205/64 229/210/64
f 235/205/62 236/55/62 230/53/62
f 55/61/57 54/65/57 225/206/57
f 219/211/58 225/206/58 226/207/58
f 226/207/98 227/208/98 221/213/98
f 227/208/65 228/209/65 222/214/65
f 222/214/99 228/209/99 229/210/99
f 223/215/62 229/210/62 230/53/62
f 55/61/100 219/211/100 213/36/100
f 219/211/101 220/212/101 214/216/101
f 220/212/68 221/213/68 215/217/68
f 221/213/68 222/214/68 216/218/68
f 222/214/68 223/215/68 217/219/68
f 217/219/102 223/215/102 224/54/102
f 17/220/6 194/50/6 218/50/6
f 194/50/6 193/221/6 217/219/6
f 193/221/6 192/218/6 216/218/6
f 192/218/6 191/217/6 215/217/6
f 191/217/6 190/222/6 214/216/6
f 190/222/6 189/34/6 213/36/6
f 63/267/6 10/268/6 188/269/6
f 63/267/6 188/269/6 187/270/6
f 64/271/6 63/267/6 187/270/6
f 64/271/6 187/270/6 186/272/6
f 65/273/6 64/271/6 186/272/6
f 65/273/6 186/272/6 185/274/6
f 66/275/6 65/273/6 78/276/6
f 65/273/6 185/274/6 78/276/6
f 185/274/6 184/277/6 79/278/6
f 78/276/6 185/274/6 79/278/6
f 67/279/6 66/275/6 173/280/6
f 183/281/6 14/282/6 80/283/6
f 66/275/6 78/276/6 77/284/6
f 184/277/6 183/281/6 80/283/6
f 171/285/6 12/286/6 68/287/6
f 68/287/6 67/279/6 172/288/6
f 172/288/6 67/279/6 173/280/6
f 80/283/6 79/278/6 184/277/6
f 171/285/6 68/287/6 172/288/6
f 66/275/6 77/284/6 173/280/6
f 77/284/6 76/289/6 174/290/6
f 174/290/6 173/280/6 77/284/6
f 76/289/6 75/223/6 175/225/6
f 75/223/6 16/291/6 176/224/6
f 175/225/6 174/290/6 76/289/6
f 23/14/5 207/162/5 279/162/5
f 207/162/5 208/227/5 280/164/5
f 208/227/5 209/167/5 281/167/5
f 209/167/5 210/169/5 282/169/5
f 210/169/5 211/171/5 283/171/5
f 211/171/5 212/25/5 284/27/5
f 206/228/6 254/69/6 50/41/6
f 205/230/6 253/190/6 254/69/6
f 204/189/6 252/189/6 253/190/6
f 203/231/6 251/188/6 252/189/6
f 202/232/6 250/187/6 251/188/6
f 201/19/6 249/19/6 250/187/6
f 195/233/5 243/191/5 51/21/5
f 196/193/5 244/193/5 243/191/5
f 197/195/5 245/195/5 244/193/5
f 198/197/5 246/197/5 245/195/5
f 199/234/5 247/199/5 246/197/5
f 200/17/5 248/17/5 247/199/5
f 194/50/4 17/220/4 9/292/4
f 194/50/4 9/292/4 177/293/4
f 193/221/4 194/50/4 177/293/4
f 193/221/4 177/293/4 178/294/4
f 192/218/4 193/221/4 178/294/4
f 192/218/4 178/294/4 179/295/4
f 191/217/4 192/218/4 179/295/4
f 191/217/4 179/295/4 180/296/4
f 190/222/4 191/217/4 180/296/4
f 190/222/4 180/296/4 181/235/4
f 13/244/4 32/145/4 189/34/4
f 189/34/4 190/222/4 181/235/4
f 182/236/4 13/244/4 189/34/4
f 206/228/2 30/229/2 15/249/2
f 206/228/2 15/249/2 165/297/2
f 205/230/2 206/228/2 165/297/2
f 205/230/2 165/297/2 166/298/2
f 204/189/2 205/230/2 166/298/2
f 204/189/2 166/298/2 167/299/2
f 203/231/2 204/189/2 167/299/2
f 203/231/2 167/299/2 168/300/2
f 202/232/2 203/231/2 168/300/2
f 202/232/2 168/300/2 169/237/2
f 11/44/2 28/18/2 201/19/2
f 201/19/2 202/232/2 169/237/2
f 170/238/2 11/44/2 201/19/2
f 188/301/4 10/302/4 22/16/4
f 188/301/4 22/16/4 200/17/4
f 187/303/4 188/301/4 200/17/4
f 187/303/4 200/17/4 199/234/4
f 186/304/4 187/303/4 199/234/4
f 186/304/4 199/234/4 198/197/4
f 185/305/4 186/304/4 198/197/4
f 185/305/4 198/197/4 197/195/4
f 184/306/4 185/305/4 197/195/4
f 184/306/4 197/195/4 196/193/4
f 31/21/4 14/282/4 183/239/4
f 183/239/4 184/306/4 196/193/4
f 195/233/4 31/21/4 183/239/4
f 80/283/3 14/282/3 31/21/3
f 80/283/3 31/21/3 92/20/3
f 79/278/3 80/283/3 92/20/3
f 79/278/3 92/20/3 91/150/3
f 78/276/3 79/278/3 91/150/3
f 78/276/3 91/150/3 90/149/3
f 77/284/3 78/276/3 90/149/3
f 77/284/3 90/149/3 89/83/3
f 76/289/3 77/284/3 89/83/3
f 76/289/3 89/83/3 88/148/3
f 29/26/3 16/291/3 75/223/3
f 75/223/3 76/289/3 88/148/3
f 87/79/3 29/26/3 75/223/3
f 176/307/2 16/291/2 29/26/2
f 176/307/2 29/26/2 212/25/2
f 175/308/2 176/307/2 212/25/2
f 175/308/2 212/25/2 211/171/2
f 174/309/2 175/308/2 211/171/2
f 174/309/2 211/171/2 210/169/2
f 173/310/2 174/309/2 210/169/2
f 173/310/2 210/169/2 209/167/2
f 172/311/2 173/310/2 209/167/2
f 172/311/2 209/167/2 208/227/2
f 23/14/2 12/243/2 171/240/2
f 171/240/2 172/311/2 208/227/2
f 207/162/2 23/14/2 171/240/2
