# Blender 4.3.2
# www.blender.org
mtllib coin.mtl
o 円柱
v 0.000000 1.082702 0.196207
v 0.000000 1.082702 -0.196207
v -0.176664 1.061898 0.196207
v -0.176664 1.061898 -0.196207
v -0.346539 1.000286 0.196207
v -0.346539 1.000286 -0.196207
v -0.503097 0.900234 0.196207
v -0.503097 0.900234 -0.196207
v -0.640321 0.765586 0.196207
v -0.640321 0.765586 -0.196207
v -0.752938 0.601517 0.196207
v -0.752938 0.601517 -0.196207
v -0.836620 0.414332 0.196207
v -0.836620 0.414332 -0.196207
v -0.888151 0.211225 0.196207
v -0.888151 0.211225 -0.196207
v -0.905550 0.000000 0.196207
v -0.905550 -0.000000 -0.196207
v -0.888151 -0.211225 0.196207
v -0.888151 -0.211225 -0.196207
v -0.836620 -0.414332 0.196207
v -0.836620 -0.414332 -0.196207
v -0.752938 -0.601517 0.196207
v -0.752938 -0.601517 -0.196207
v -0.640321 -0.765586 0.196207
v -0.640321 -0.765586 -0.196207
v -0.503097 -0.900234 0.196207
v -0.503097 -0.900234 -0.196207
v -0.346539 -1.000286 0.196207
v -0.346539 -1.000286 -0.196207
v -0.176664 -1.061898 0.196207
v -0.176664 -1.061898 -0.196207
v 0.000000 -1.082702 0.196207
v 0.000000 -1.082702 -0.196207
v 0.176664 -1.061898 0.196207
v 0.176664 -1.061898 -0.196207
v 0.346539 -1.000286 0.196207
v 0.346539 -1.000286 -0.196207
v 0.503097 -0.900234 0.196207
v 0.503097 -0.900234 -0.196207
v 0.640321 -0.765586 0.196207
v 0.640321 -0.765586 -0.196207
v 0.752938 -0.601517 0.196207
v 0.752938 -0.601517 -0.196207
v 0.836620 -0.414332 0.196207
v 0.836620 -0.414332 -0.196207
v 0.888151 -0.211225 0.196207
v 0.888151 -0.211225 -0.196207
v 0.905550 0.000000 0.196207
v 0.905550 -0.000000 -0.196207
v 0.888151 0.211225 0.196207
v 0.888151 0.211225 -0.196207
v 0.836620 0.414332 0.196207
v 0.836620 0.414332 -0.196207
v 0.752938 0.601517 0.196207
v 0.752938 0.601517 -0.196207
v 0.640321 0.765586 0.196207
v 0.640321 0.765586 -0.196207
v 0.503097 0.900234 0.196207
v 0.503097 0.900234 -0.196207
v 0.346539 1.000286 0.196207
v 0.346539 1.000286 -0.196207
v 0.176664 1.061898 0.196207
v 0.176664 1.061898 -0.196207
v 0.000000 1.177104 0.196207
v -0.195090 1.154487 0.196207
v -0.195090 1.154487 -0.196207
v 0.000000 1.177104 -0.196207
v -0.382683 1.087503 0.196207
v -0.382683 1.087503 -0.196207
v -0.555570 0.978727 0.196207
v -0.555570 0.978727 -0.196207
v -0.707107 0.832339 0.196207
v -0.707107 0.832339 -0.196207
v -0.831470 0.653964 0.196207
v -0.831470 0.653964 -0.196207
v -0.923880 0.450458 0.196207
v -0.923880 0.450458 -0.196207
v -0.980785 0.229642 0.196207
v -0.980785 0.229642 -0.196207
v -1.000000 0.000000 0.196207
v -1.000000 -0.000000 -0.196207
v -0.980785 -0.229642 0.196207
v -0.980785 -0.229642 -0.196207
v -0.923880 -0.450458 0.196207
v -0.923880 -0.450458 -0.196207
v -0.831470 -0.653964 0.196207
v -0.831470 -0.653964 -0.196207
v -0.707107 -0.832339 0.196207
v -0.707107 -0.832339 -0.196207
v -0.555570 -0.978727 0.196207
v -0.555570 -0.978727 -0.196207
v -0.382683 -1.087503 0.196207
v -0.382683 -1.087503 -0.196207
v -0.195090 -1.154487 0.196207
v -0.195090 -1.154487 -0.196207
v 0.000000 -1.177104 0.196207
v 0.000000 -1.177104 -0.196207
v 0.195090 -1.154487 0.196207
v 0.195090 -1.154487 -0.196207
v 0.382683 -1.087503 0.196207
v 0.382683 -1.087503 -0.196207
v 0.555570 -0.978727 0.196207
v 0.555570 -0.978727 -0.196207
v 0.707107 -0.832339 0.196207
v 0.707107 -0.832339 -0.196207
v 0.831470 -0.653964 0.196207
v 0.831470 -0.653964 -0.196207
v 0.923880 -0.450458 0.196207
v 0.923880 -0.450458 -0.196207
v 0.980785 -0.229642 0.196207
v 0.980785 -0.229642 -0.196207
v 1.000000 0.000000 0.196207
v 1.000000 -0.000000 -0.196207
v 0.980785 0.229642 0.196207
v 0.980785 0.229642 -0.196207
v 0.923880 0.450458 0.196207
v 0.923880 0.450458 -0.196207
v 0.831470 0.653964 0.196207
v 0.831470 0.653964 -0.196207
v 0.707107 0.832339 0.196207
v 0.707107 0.832339 -0.196207
v 0.555570 0.978727 0.196207
v 0.555570 0.978727 -0.196207
v 0.382683 1.087503 0.196207
v 0.382683 1.087503 -0.196207
v 0.195090 1.154487 0.196207
v 0.195090 1.154487 -0.196207
v -0.000000 1.082702 0.117216
v -0.176664 1.061898 0.117216
v -0.176664 1.061898 -0.117216
v -0.000000 1.082702 -0.117216
v -0.346539 1.000286 0.117216
v -0.346539 1.000286 -0.117216
v -0.503097 0.900234 0.117216
v -0.503097 0.900234 -0.117216
v -0.640321 0.765586 0.117216
v -0.640321 0.765586 -0.117216
v -0.752938 0.601517 0.117216
v -0.752938 0.601517 -0.117216
v -0.836620 0.414332 0.117216
v -0.836620 0.414332 -0.117216
v -0.888151 0.211225 0.117216
v -0.888151 0.211225 -0.117216
v -0.905550 0.000000 0.117216
v -0.905551 -0.000000 -0.117216
v -0.888151 -0.211225 0.117216
v -0.888151 -0.211225 -0.117216
v -0.836620 -0.414332 0.117216
v -0.836620 -0.414332 -0.117216
v -0.752938 -0.601517 0.117216
v -0.752938 -0.601517 -0.117216
v -0.640321 -0.765586 0.117216
v -0.640321 -0.765586 -0.117216
v -0.503097 -0.900234 0.117216
v -0.503097 -0.900234 -0.117216
v -0.346539 -1.000286 0.117216
v -0.346539 -1.000286 -0.117216
v -0.176664 -1.061898 0.117216
v -0.176664 -1.061898 -0.117216
v -0.000000 -1.082702 0.117216
v -0.000000 -1.082702 -0.117216
v 0.176664 -1.061898 0.117216
v 0.176664 -1.061898 -0.117216
v 0.346539 -1.000286 0.117216
v 0.346539 -1.000286 -0.117216
v 0.503097 -0.900234 0.117216
v 0.503097 -0.900234 -0.117216
v 0.640321 -0.765586 0.117216
v 0.640321 -0.765586 -0.117216
v 0.752938 -0.601517 0.117216
v 0.752938 -0.601517 -0.117216
v 0.836620 -0.414332 0.117216
v 0.836619 -0.414332 -0.117216
v 0.888151 -0.211225 0.117216
v 0.888151 -0.211225 -0.117216
v 0.905550 0.000000 0.117216
v 0.905550 -0.000000 -0.117216
v 0.888151 0.211225 0.117216
v 0.888151 0.211225 -0.117216
v 0.836620 0.414332 0.117216
v 0.836619 0.414332 -0.117216
v 0.752938 0.601517 0.117216
v 0.752938 0.601517 -0.117216
v 0.640321 0.765586 0.117216
v 0.640321 0.765586 -0.117216
v 0.503097 0.900234 0.117216
v 0.503097 0.900234 -0.117216
v 0.346539 1.000286 0.117216
v 0.346539 1.000286 -0.117216
v 0.176664 1.061898 0.117216
v 0.176664 1.061898 -0.117216
vn -0.1152 0.9933 -0.0000
vn -0.3363 0.9418 -0.0000
vn -0.5325 0.8464 -0.0000
vn -0.6948 0.7192 -0.0000
vn -0.8203 0.5719 -0.0000
vn -0.9105 0.4135 -0.0000
vn -0.9684 0.2496 -0.0000
vn -0.9965 0.0834 -0.0000
vn -0.9965 -0.0834 -0.0000
vn -0.9684 -0.2496 -0.0000
vn -0.9105 -0.4135 -0.0000
vn -0.8203 -0.5719 -0.0000
vn -0.6948 -0.7192 -0.0000
vn -0.5325 -0.8464 -0.0000
vn -0.3363 -0.9418 -0.0000
vn -0.1152 -0.9933 -0.0000
vn 0.1152 -0.9933 -0.0000
vn 0.3363 -0.9418 -0.0000
vn 0.5325 -0.8464 -0.0000
vn 0.6948 -0.7192 -0.0000
vn 0.8203 -0.5719 -0.0000
vn 0.9105 -0.4135 -0.0000
vn 0.9684 -0.2496 -0.0000
vn 0.9965 -0.0834 -0.0000
vn 0.9965 0.0834 -0.0000
vn 0.9684 0.2496 -0.0000
vn 0.9105 0.4135 -0.0000
vn 0.8203 0.5719 -0.0000
vn 0.6948 0.7192 -0.0000
vn 0.5325 0.8464 -0.0000
vn 0.5385 0.8426 -0.0000
vn 0.3363 0.9418 -0.0000
vn 0.1152 0.9933 -0.0000
vn -0.9129 -0.4081 -0.0000
vn -0.0000 -0.0000 1.0000
vn -0.0000 -0.0000 -1.0000
vn 0.1170 -0.9931 -0.0000
vn -0.8245 -0.5659 -0.0000
vn 0.3410 0.9401 -0.0000
vn 0.3410 -0.9401 -0.0000
vn -0.7004 -0.7138 -0.0000
vn 0.1170 0.9931 -0.0000
vn 0.5385 -0.8426 -0.0000
vn -0.5385 -0.8426 -0.0000
vn -0.1170 0.9931 -0.0000
vn 0.7004 -0.7138 -0.0000
vn -0.3410 -0.9401 -0.0000
vn -0.3410 0.9401 -0.0000
vn 0.8245 -0.5659 -0.0000
vn -0.1170 -0.9931 -0.0000
vn -0.5385 0.8426 -0.0000
vn 0.9129 -0.4081 -0.0000
vn -0.7004 0.7138 -0.0000
vn 0.9693 -0.2459 -0.0000
vn -0.8245 0.5659 -0.0000
vn 0.9966 -0.0821 -0.0000
vn -0.9129 0.4081 -0.0000
vn 0.9966 0.0821 -0.0000
vn -0.9693 0.2459 -0.0000
vn 0.9693 0.2459 -0.0000
vn -0.9966 0.0821 -0.0000
vn 0.9129 0.4081 -0.0000
vn -0.9966 -0.0821 -0.0000
vn 0.8245 0.5659 -0.0000
vn -0.9693 -0.2459 -0.0000
vn 0.7004 0.7138 -0.0000
vt 0.912930 0.842864
vt 0.847975 0.875373
vt 0.847975 0.842864
vt 0.912930 0.875373
vt 0.847975 0.907479
vt 0.912930 0.907479
vt 0.847975 0.937950
vt 0.912930 0.937950
vt 0.847975 0.965614
vt 0.861384 0.022535
vt 0.797163 0.053369
vt 0.797163 0.022535
vt 0.861384 0.053369
vt 0.797163 0.087852
vt 0.861384 0.087852
vt 0.797163 0.124657
vt 0.861384 0.124657
vt 0.797163 0.162371
vt 0.861384 0.162371
vt 0.797163 0.199543
vt 0.861384 0.199543
vt 0.797163 0.234747
vt 0.861384 0.234747
vt 0.797163 0.266628
vt 0.861384 0.266628
vt 0.797163 0.293961
vt 0.972688 0.022535
vt 0.906454 0.045153
vt 0.906454 0.022535
vt 0.972688 0.045153
vt 0.906454 0.072069
vt 0.972688 0.072069
vt 0.906454 0.102250
vt 0.972688 0.102250
vt 0.906454 0.134535
vt 0.972688 0.134535
vt 0.906454 0.167685
vt 0.972688 0.167685
vt 0.906454 0.200424
vt 0.972688 0.200424
vt 0.906454 0.231495
vt 0.972688 0.231495
vt 0.906454 0.259704
vt 0.679956 0.736572
vt 0.744800 0.708974
vt 0.744800 0.736572
vt 0.679956 0.708974
vt 0.744800 0.676784
vt 0.679956 0.641240
vt 0.744800 0.641240
vt 0.679956 0.603707
vt 0.744800 0.603707
vt 0.679956 0.565628
vt 0.744800 0.565628
vt 0.679956 0.528467
vt 0.744800 0.528467
vt 0.744800 0.493650
vt 0.679956 0.493650
vt 0.744800 0.462517
vt 0.679956 0.462517
vt 0.744800 0.436264
vt 0.912930 0.755207
vt 0.847975 0.781604
vt 0.847975 0.755207
vt 0.679956 0.972483
vt 0.693050 0.948575
vt 0.693050 0.972483
vt 0.912930 0.781604
vt 0.847975 0.811202
vt 0.912930 0.811202
vt 0.919302 0.664246
vt 0.906173 0.634447
vt 0.919302 0.634447
vt 0.523205 0.037318
vt 0.552815 0.023521
vt 0.551143 0.038261
vt 0.164944 0.037318
vt 0.133453 0.028633
vt 0.163707 0.022535
vt 0.583069 0.031552
vt 0.578552 0.045683
vt 0.137552 0.042891
vt 0.104955 0.041581
vt 0.611567 0.046321
vt 0.604379 0.059300
vt 0.111757 0.054765
vt 0.079306 0.060880
vt 0.637216 0.067259
vt 0.627632 0.078587
vt 0.088552 0.072484
vt 0.057495 0.085789
vt 0.659027 0.093562
vt 0.647417 0.102804
vt 0.068828 0.095367
vt 0.040357 0.115351
vt 0.676165 0.124219
vt 0.662974 0.131020
vt 0.053342 0.122535
vt 0.028553 0.148430
vt 0.687969 0.158052
vt 0.673705 0.162150
vt 0.042691 0.152944
vt 0.022535 0.183755
vt 0.693987 0.193762
vt 0.679197 0.194999
vt 0.037282 0.185425
vt 0.022535 0.219967
vt 0.679240 0.228304
vt 0.693987 0.229974
vt 0.042818 0.251579
vt 0.037325 0.218730
vt 0.673832 0.260785
vt 0.687969 0.265299
vt 0.053549 0.282709
vt 0.028553 0.255676
vt 0.663180 0.291194
vt 0.676165 0.298378
vt 0.069106 0.310925
vt 0.040357 0.289510
vt 0.647694 0.318362
vt 0.659027 0.327940
vt 0.088891 0.335142
vt 0.057495 0.320167
vt 0.627970 0.341245
vt 0.637216 0.352849
vt 0.112144 0.354429
vt 0.079307 0.346470
vt 0.604765 0.358964
vt 0.611568 0.372148
vt 0.137971 0.368045
vt 0.104955 0.367408
vt 0.578970 0.370838
vt 0.583069 0.385096
vt 0.165380 0.375468
vt 0.133454 0.382177
vt 0.551578 0.376411
vt 0.552815 0.391194
vt 0.193317 0.376411
vt 0.163708 0.390208
vt 0.521968 0.390208
vt 0.523641 0.375468
vt 0.224808 0.385096
vt 0.194554 0.391194
vt 0.491715 0.382177
vt 0.496232 0.368045
vt 0.220709 0.370838
vt 0.253307 0.372148
vt 0.463216 0.367408
vt 0.470405 0.354429
vt 0.246504 0.358964
vt 0.278955 0.352849
vt 0.437568 0.346470
vt 0.447152 0.335142
vt 0.269709 0.341245
vt 0.300767 0.327940
vt 0.415756 0.320167
vt 0.427367 0.310925
vt 0.289434 0.318362
vt 0.317904 0.298378
vt 0.398619 0.289510
vt 0.411810 0.282709
vt 0.304919 0.291194
vt 0.329708 0.265299
vt 0.386814 0.255676
vt 0.401079 0.251578
vt 0.315570 0.260785
vt 0.335726 0.229974
vt 0.380796 0.219967
vt 0.395587 0.218730
vt 0.320979 0.228304
vt 0.335726 0.193761
vt 0.395544 0.185425
vt 0.380796 0.183755
vt 0.315443 0.162150
vt 0.320936 0.194999
vt 0.400952 0.152944
vt 0.386814 0.148430
vt 0.304713 0.131020
vt 0.329708 0.158052
vt 0.411603 0.122535
vt 0.398618 0.115351
vt 0.289156 0.102804
vt 0.317904 0.124219
vt 0.427089 0.095367
vt 0.415756 0.085789
vt 0.269371 0.078587
vt 0.300766 0.093562
vt 0.446813 0.072484
vt 0.437568 0.060880
vt 0.246118 0.059300
vt 0.278954 0.067259
vt 0.470019 0.054765
vt 0.463216 0.041580
vt 0.220290 0.045683
vt 0.253306 0.046320
vt 0.495813 0.042891
vt 0.491714 0.028633
vt 0.192881 0.038261
vt 0.224808 0.031552
vt 0.521968 0.022535
vt 0.194554 0.023521
vt 0.073950 0.477667
vt 0.097178 0.458350
vt 0.274514 0.494189
vt 0.583471 0.740325
vt 0.560243 0.758015
vt 0.425889 0.753306
vt 0.971093 0.864129
vt 0.958000 0.834643
vt 0.971093 0.834643
vt 0.861103 0.482155
vt 0.847975 0.511954
vt 0.847975 0.482155
vt 0.738120 0.781642
vt 0.751213 0.805550
vt 0.738120 0.805550
vt 0.964372 0.545185
vt 0.977465 0.515699
vt 0.977465 0.545185
vt 0.919302 0.689803
vt 0.906173 0.664246
vt 0.679956 0.921753
vt 0.679956 0.948575
vt 0.971093 0.893261
vt 0.958000 0.864129
vt 0.861103 0.456598
vt 0.847975 0.456598
vt 0.751213 0.832372
vt 0.738120 0.832372
vt 0.964372 0.574318
vt 0.977465 0.574318
vt 0.919302 0.710137
vt 0.906173 0.689803
vt 0.679956 0.893047
vt 0.693050 0.921753
vt 0.971093 0.920922
vt 0.958000 0.893261
vt 0.861103 0.436264
vt 0.847975 0.436264
vt 0.751213 0.861078
vt 0.738120 0.861078
vt 0.964372 0.601978
vt 0.977465 0.601978
vt 0.971093 0.779115
vt 0.958000 0.755207
vt 0.971093 0.755207
vt 0.679956 0.863561
vt 0.693050 0.893047
vt 0.958000 0.946047
vt 0.958000 0.920922
vt 0.964372 0.460171
vt 0.977465 0.436264
vt 0.977465 0.460171
vt 0.751213 0.890563
vt 0.738120 0.890563
vt 0.964372 0.627103
vt 0.977465 0.627103
vt 0.971093 0.805937
vt 0.958000 0.779115
vt 0.679956 0.834428
vt 0.693050 0.863561
vt 0.739057 0.272987
vt 0.752093 0.298363
vt 0.739057 0.298363
vt 0.964372 0.486994
vt 0.977465 0.486994
vt 0.751213 0.919696
vt 0.738120 0.919696
vt 0.789869 0.461640
vt 0.802905 0.436264
vt 0.802905 0.461640
vt 0.958000 0.805937
vt 0.679956 0.806768
vt 0.693050 0.834428
vt 0.752093 0.243399
vt 0.752093 0.272987
vt 0.964372 0.515699
vt 0.751213 0.947357
vt 0.738120 0.947357
vt 0.789869 0.491228
vt 0.802905 0.491228
vt 0.679956 0.781642
vt 0.693050 0.806768
vt 0.739057 0.210737
vt 0.739057 0.243399
vt 0.751213 0.972482
vt 0.738120 0.972482
vt 0.789869 0.523890
vt 0.802905 0.523890
vt 0.919302 0.465041
vt 0.906173 0.436264
vt 0.919302 0.436264
vt 0.739057 0.176256
vt 0.752093 0.210737
vt 0.861103 0.710137
vt 0.847975 0.681360
vt 0.861103 0.681360
vt 0.802905 0.558370
vt 0.789869 0.558370
vt 0.919302 0.497232
vt 0.906173 0.465041
vt 0.739057 0.141282
vt 0.752093 0.176256
vt 0.847975 0.649169
vt 0.861103 0.649169
vt 0.802905 0.593345
vt 0.789869 0.593345
vt 0.906173 0.531600
vt 0.906173 0.497232
vt 0.739057 0.107157
vt 0.752093 0.141282
vt 0.847975 0.614800
vt 0.861103 0.614800
vt 0.802905 0.627470
vt 0.789869 0.627470
vt 0.919302 0.531600
vt 0.906173 0.566825
vt 0.752093 0.075194
vt 0.752093 0.107157
vt 0.861103 0.579576
vt 0.847975 0.579576
vt 0.802905 0.659433
vt 0.789869 0.659433
vt 0.919302 0.566825
vt 0.906173 0.601552
vt 0.739057 0.046620
vt 0.739057 0.075194
vt 0.861103 0.544849
vt 0.847975 0.544849
vt 0.802905 0.688007
vt 0.789869 0.688007
vt 0.919302 0.601552
vt 0.752093 0.022535
vt 0.752093 0.046620
vt 0.861103 0.511954
vt 0.802905 0.712092
vt 0.789869 0.712092
vt 0.912930 0.965614
vt 0.861384 0.293961
vt 0.972688 0.259704
vt 0.679956 0.676784
vt 0.679956 0.436264
vt 0.122988 0.444700
vt 0.150387 0.437243
vt 0.231532 0.453642
vt 0.178323 0.436264
vt 0.205723 0.441801
vt 0.254761 0.471331
vt 0.290035 0.521337
vt 0.300726 0.551732
vt 0.054196 0.501909
vt 0.306176 0.584206
vt 0.027985 0.561290
vt 0.306176 0.617511
vt 0.022535 0.594146
vt 0.300726 0.650367
vt 0.022535 0.627450
vt 0.290035 0.681511
vt 0.027985 0.659924
vt 0.274514 0.709747
vt 0.254761 0.733989
vt 0.038676 0.690320
vt 0.231532 0.753306
vt 0.054196 0.717468
vt 0.205723 0.766956
vt 0.073950 0.740325
vt 0.178323 0.774414
vt 0.122988 0.769855
vt 0.150387 0.775393
vt 0.097178 0.758015
vt 0.038676 0.530145
vt 0.534434 0.769855
vt 0.507034 0.775393
vt 0.479098 0.774414
vt 0.451699 0.766956
vt 0.402661 0.733989
vt 0.603225 0.717467
vt 0.382907 0.709747
vt 0.618746 0.690319
vt 0.367386 0.681511
vt 0.356696 0.650367
vt 0.629436 0.659924
vt 0.351246 0.617511
vt 0.634887 0.594146
vt 0.351246 0.584206
vt 0.629436 0.561290
vt 0.356696 0.551732
vt 0.367387 0.521337
vt 0.618746 0.530145
vt 0.382907 0.494189
vt 0.583471 0.477667
vt 0.402661 0.471331
vt 0.560243 0.458350
vt 0.425889 0.453642
vt 0.451699 0.441801
vt 0.534434 0.444700
vt 0.479098 0.436264
vt 0.507034 0.437243
vt 0.603225 0.501909
vt 0.634886 0.627450
vt 0.751213 0.781642
vt 0.906173 0.710137
vt 0.971093 0.946047
vt 0.964372 0.436264
vt 0.789869 0.436264
vt 0.693050 0.781642
vt 0.847975 0.710137
vt 0.739057 0.022535
s 0
usemtl マテリアル
f 68/1/1 66/2/1 65/3/1
f 67/4/2 69/5/2 66/2/2
f 70/6/3 71/7/3 69/5/3
f 72/8/4 73/9/4 71/7/4
f 74/10/5 75/11/5 73/12/5
f 76/13/6 77/14/6 75/11/6
f 78/15/7 79/16/7 77/14/7
f 80/17/8 81/18/8 79/16/8
f 82/19/9 83/20/9 81/18/9
f 84/21/10 85/22/10 83/20/10
f 86/23/11 87/24/11 85/22/11
f 88/25/12 89/26/12 87/24/12
f 90/27/13 91/28/13 89/29/13
f 92/30/14 93/31/14 91/28/14
f 94/32/15 95/33/15 93/31/15
f 96/34/16 97/35/16 95/33/16
f 98/36/17 99/37/17 97/35/17
f 100/38/18 101/39/18 99/37/18
f 102/40/19 103/41/19 101/39/19
f 104/42/20 105/43/20 103/41/20
f 106/44/21 107/45/21 105/46/21
f 108/47/22 109/48/22 107/45/22
f 109/48/23 112/49/23 111/50/23
f 111/50/24 114/51/24 113/52/24
f 113/52/25 116/53/25 115/54/25
f 115/54/26 118/55/26 117/56/26
f 118/55/27 119/57/27 117/56/27
f 120/58/28 121/59/28 119/57/28
f 122/60/29 123/61/29 121/59/29
f 124/62/30 125/63/30 123/64/30
f 27/65/31 157/66/31 155/67/31
f 126/68/32 127/69/32 125/63/32
f 128/70/33 65/3/33 127/69/33
f 55/71/34 181/72/34 53/73/34
f 1/74/35 66/75/35 3/76/35
f 2/77/36 67/78/36 68/79/36
f 3/76/35 69/80/35 5/81/35
f 4/82/36 70/83/36 67/78/36
f 5/81/35 71/84/35 7/85/35
f 6/86/36 72/87/36 70/83/36
f 7/85/35 73/88/35 9/89/35
f 8/90/36 74/91/36 72/87/36
f 9/89/35 75/92/35 11/93/35
f 10/94/36 76/95/36 74/91/36
f 11/93/35 77/96/35 13/97/35
f 12/98/36 78/99/36 76/95/36
f 13/97/35 79/100/35 15/101/35
f 14/102/36 80/103/36 78/99/36
f 15/101/35 81/104/35 17/105/35
f 16/106/36 82/107/36 80/103/36
f 19/108/35 81/104/35 83/109/35
f 20/110/36 82/107/36 18/111/36
f 21/112/35 83/109/35 85/113/35
f 22/114/36 84/115/36 20/110/36
f 23/116/35 85/113/35 87/117/35
f 24/118/36 86/119/36 22/114/36
f 25/120/35 87/117/35 89/121/35
f 26/122/36 88/123/36 24/118/36
f 27/124/35 89/121/35 91/125/35
f 28/126/36 90/127/36 26/122/36
f 29/128/35 91/125/35 93/129/35
f 30/130/36 92/131/36 28/126/36
f 31/132/35 93/129/35 95/133/35
f 32/134/36 94/135/36 30/130/36
f 33/136/35 95/133/35 97/137/35
f 34/138/36 96/139/36 32/134/36
f 33/136/35 99/140/35 35/141/35
f 34/138/36 100/142/36 98/143/36
f 35/141/35 101/144/35 37/145/35
f 36/146/36 102/147/36 100/142/36
f 37/145/35 103/148/35 39/149/35
f 38/150/36 104/151/36 102/147/36
f 39/149/35 105/152/35 41/153/35
f 40/154/36 106/155/36 104/151/36
f 41/153/35 107/156/35 43/157/35
f 42/158/36 108/159/36 106/155/36
f 43/157/35 109/160/35 45/161/35
f 44/162/36 110/163/36 108/159/36
f 45/161/35 111/164/35 47/165/35
f 46/166/36 112/167/36 110/163/36
f 47/165/35 113/168/35 49/169/35
f 48/170/36 114/171/36 112/167/36
f 51/172/35 113/168/35 115/173/35
f 52/174/36 114/171/36 50/175/36
f 53/176/35 115/173/35 117/177/35
f 54/178/36 116/179/36 52/174/36
f 55/180/35 117/177/35 119/181/35
f 56/182/36 118/183/36 54/178/36
f 57/184/35 119/181/35 121/185/35
f 58/186/36 120/187/36 56/182/36
f 59/188/35 121/185/35 123/189/35
f 60/190/36 122/191/36 58/186/36
f 61/192/35 123/189/35 125/193/35
f 62/194/36 124/195/36 60/190/36
f 63/196/35 125/193/35 127/197/35
f 64/198/36 126/199/36 62/194/36
f 1/74/35 127/197/35 65/200/35
f 2/77/36 128/201/36 64/198/36
f 138/202/36 136/203/36 186/204/36
f 187/205/35 189/206/35 135/207/35
f 3/208/37 129/209/37 1/210/37
f 56/211/34 182/212/34 184/213/34
f 28/214/31 158/215/31 30/216/31
f 4/217/37 132/218/37 131/219/37
f 57/220/38 183/221/38 55/71/38
f 31/222/39 157/66/39 29/223/39
f 5/224/40 130/225/40 3/208/40
f 58/226/38 184/213/38 186/227/38
f 30/216/39 160/228/39 32/229/39
f 6/230/40 131/219/40 134/231/40
f 59/232/41 185/233/41 57/220/41
f 33/234/42 159/235/42 31/222/42
f 7/236/43 133/237/43 5/224/43
f 60/238/41 186/227/41 188/239/41
f 32/229/42 162/240/42 34/241/42
f 8/242/43 134/231/43 136/243/43
f 61/244/44 187/245/44 59/246/44
f 35/247/45 161/248/45 33/234/45
f 7/236/46 137/249/46 135/250/46
f 62/251/44 188/252/44 190/253/44
f 34/241/45 164/254/45 36/255/45
f 10/256/46 136/243/46 138/257/46
f 63/258/47 189/259/47 61/244/47
f 37/260/48 163/261/48 35/247/48
f 11/262/49 137/263/49 9/264/49
f 64/265/47 190/253/47 192/266/47
f 36/255/48 166/267/48 38/268/48
f 12/269/49 138/270/49 140/271/49
f 1/210/50 191/272/50 63/258/50
f 39/273/51 165/274/51 37/260/51
f 11/262/52 141/275/52 139/276/52
f 2/277/50 192/266/50 132/218/50
f 38/268/51 168/278/51 40/279/51
f 14/280/52 140/271/52 142/281/52
f 41/282/53 167/283/53 39/273/53
f 15/284/54 141/275/54 13/285/54
f 40/279/53 170/286/53 42/287/53
f 16/288/54 142/281/54 144/289/54
f 43/290/55 169/291/55 41/292/55
f 17/293/56 143/294/56 15/284/56
f 42/295/55 172/296/55 44/297/55
f 16/288/56 146/298/56 18/299/56
f 45/300/57 171/301/57 43/290/57
f 19/302/58 145/303/58 17/293/58
f 44/297/57 174/304/57 46/305/57
f 18/299/58 148/306/58 20/307/58
f 45/300/59 175/308/59 173/309/59
f 21/310/60 147/311/60 19/302/60
f 46/305/59 176/312/59 48/313/59
f 20/307/60 150/314/60 22/315/60
f 47/316/61 177/317/61 175/308/61
f 21/310/62 151/318/62 149/319/62
f 50/320/61 176/312/61 178/321/61
f 22/315/62 152/322/62 24/323/62
f 49/324/63 179/325/63 177/317/63
f 25/326/64 151/318/64 23/327/64
f 52/328/63 178/321/63 180/329/63
f 24/323/64 154/330/64 26/331/64
f 51/332/65 181/72/65 179/325/65
f 25/326/66 155/333/66 153/334/66
f 54/335/65 180/329/65 182/212/65
f 26/331/66 156/336/66 28/337/66
f 68/1/1 67/4/1 66/2/1
f 67/4/2 70/6/2 69/5/2
f 70/6/3 72/8/3 71/7/3
f 72/8/4 74/338/4 73/9/4
f 74/10/5 76/13/5 75/11/5
f 76/13/6 78/15/6 77/14/6
f 78/15/7 80/17/7 79/16/7
f 80/17/8 82/19/8 81/18/8
f 82/19/9 84/21/9 83/20/9
f 84/21/10 86/23/10 85/22/10
f 86/23/11 88/25/11 87/24/11
f 88/25/12 90/339/12 89/26/12
f 90/27/13 92/30/13 91/28/13
f 92/30/14 94/32/14 93/31/14
f 94/32/15 96/34/15 95/33/15
f 96/34/16 98/36/16 97/35/16
f 98/36/17 100/38/17 99/37/17
f 100/38/18 102/40/18 101/39/18
f 102/40/19 104/42/19 103/41/19
f 104/42/20 106/340/20 105/43/20
f 106/44/21 108/47/21 107/45/21
f 108/47/22 110/341/22 109/48/22
f 109/48/23 110/341/23 112/49/23
f 111/50/24 112/49/24 114/51/24
f 113/52/25 114/51/25 116/53/25
f 115/54/26 116/53/26 118/55/26
f 118/55/27 120/58/27 119/57/27
f 120/58/28 122/60/28 121/59/28
f 122/60/29 124/342/29 123/61/29
f 124/62/30 126/68/30 125/63/30
f 27/65/31 29/223/31 157/66/31
f 126/68/32 128/70/32 127/69/32
f 128/70/33 68/1/33 65/3/33
f 55/71/34 183/221/34 181/72/34
f 1/74/35 65/200/35 66/75/35
f 2/77/36 4/82/36 67/78/36
f 3/76/35 66/75/35 69/80/35
f 4/82/36 6/86/36 70/83/36
f 5/81/35 69/80/35 71/84/35
f 6/86/36 8/90/36 72/87/36
f 7/85/35 71/84/35 73/88/35
f 8/90/36 10/94/36 74/91/36
f 9/89/35 73/88/35 75/92/35
f 10/94/36 12/98/36 76/95/36
f 11/93/35 75/92/35 77/96/35
f 12/98/36 14/102/36 78/99/36
f 13/97/35 77/96/35 79/100/35
f 14/102/36 16/106/36 80/103/36
f 15/101/35 79/100/35 81/104/35
f 16/106/36 18/111/36 82/107/36
f 19/108/35 17/105/35 81/104/35
f 20/110/36 84/115/36 82/107/36
f 21/112/35 19/108/35 83/109/35
f 22/114/36 86/119/36 84/115/36
f 23/116/35 21/112/35 85/113/35
f 24/118/36 88/123/36 86/119/36
f 25/120/35 23/116/35 87/117/35
f 26/122/36 90/127/36 88/123/36
f 27/124/35 25/120/35 89/121/35
f 28/126/36 92/131/36 90/127/36
f 29/128/35 27/124/35 91/125/35
f 30/130/36 94/135/36 92/131/36
f 31/132/35 29/128/35 93/129/35
f 32/134/36 96/139/36 94/135/36
f 33/136/35 31/132/35 95/133/35
f 34/138/36 98/143/36 96/139/36
f 33/136/35 97/137/35 99/140/35
f 34/138/36 36/146/36 100/142/36
f 35/141/35 99/140/35 101/144/35
f 36/146/36 38/150/36 102/147/36
f 37/145/35 101/144/35 103/148/35
f 38/150/36 40/154/36 104/151/36
f 39/149/35 103/148/35 105/152/35
f 40/154/36 42/158/36 106/155/36
f 41/153/35 105/152/35 107/156/35
f 42/158/36 44/162/36 108/159/36
f 43/157/35 107/156/35 109/160/35
f 44/162/36 46/166/36 110/163/36
f 45/161/35 109/160/35 111/164/35
f 46/166/36 48/170/36 112/167/36
f 47/165/35 111/164/35 113/168/35
f 48/170/36 50/175/36 114/171/36
f 51/172/35 49/169/35 113/168/35
f 52/174/36 116/179/36 114/171/36
f 53/176/35 51/172/35 115/173/35
f 54/178/36 118/183/36 116/179/36
f 55/180/35 53/176/35 117/177/35
f 56/182/36 120/187/36 118/183/36
f 57/184/35 55/180/35 119/181/35
f 58/186/36 122/191/36 120/187/36
f 59/188/35 57/184/35 121/185/35
f 60/190/36 124/195/36 122/191/36
f 61/192/35 59/188/35 123/189/35
f 62/194/36 126/199/36 124/195/36
f 63/196/35 61/192/35 125/193/35
f 64/198/36 128/201/36 126/199/36
f 1/74/35 63/196/35 127/197/35
f 2/77/36 68/79/36 128/201/36
f 134/343/36 131/344/36 190/345/36
f 131/344/36 132/346/36 192/347/36
f 190/345/36 131/344/36 192/347/36
f 190/345/36 188/348/36 134/343/36
f 188/348/36 186/204/36 136/203/36
f 134/343/36 188/348/36 136/203/36
f 186/204/36 184/349/36 138/202/36
f 184/349/36 182/350/36 140/351/36
f 138/202/36 184/349/36 140/351/36
f 182/350/36 180/352/36 144/353/36
f 180/352/36 178/354/36 146/355/36
f 178/354/36 176/356/36 148/357/36
f 176/356/36 174/358/36 150/359/36
f 174/358/36 172/360/36 150/359/36
f 172/360/36 170/361/36 152/362/36
f 150/359/36 172/360/36 152/362/36
f 170/361/36 168/363/36 154/364/36
f 168/363/36 166/365/36 156/366/36
f 154/364/36 168/363/36 156/366/36
f 166/365/36 164/367/36 160/368/36
f 164/367/36 162/369/36 160/368/36
f 160/368/36 158/370/36 166/365/36
f 158/370/36 156/366/36 166/365/36
f 154/364/36 152/362/36 170/361/36
f 150/359/36 148/357/36 176/356/36
f 148/357/36 146/355/36 178/354/36
f 146/355/36 144/353/36 180/352/36
f 144/353/36 142/371/36 182/350/36
f 142/371/36 140/351/36 182/350/36
f 191/372/35 129/373/35 130/374/35
f 130/374/35 133/375/35 191/372/35
f 133/375/35 135/207/35 189/206/35
f 191/372/35 133/375/35 189/206/35
f 135/207/35 137/376/35 185/377/35
f 137/376/35 139/378/35 183/379/35
f 139/378/35 141/380/35 183/379/35
f 141/380/35 143/381/35 181/382/35
f 183/379/35 141/380/35 181/382/35
f 143/381/35 145/383/35 177/384/35
f 145/383/35 147/385/35 175/386/35
f 147/385/35 149/387/35 175/386/35
f 149/387/35 151/388/35 173/389/35
f 175/386/35 149/387/35 173/389/35
f 151/388/35 153/390/35 169/391/35
f 153/390/35 155/392/35 167/393/35
f 155/392/35 157/394/35 167/393/35
f 157/394/35 159/395/35 165/396/35
f 167/393/35 157/394/35 165/396/35
f 159/395/35 161/397/35 163/398/35
f 163/398/35 165/396/35 159/395/35
f 167/393/35 169/391/35 153/390/35
f 169/391/35 171/399/35 151/388/35
f 171/399/35 173/389/35 151/388/35
f 175/386/35 177/384/35 145/383/35
f 177/384/35 179/400/35 143/381/35
f 179/400/35 181/382/35 143/381/35
f 183/379/35 185/377/35 137/376/35
f 185/377/35 187/205/35 135/207/35
f 3/208/37 130/225/37 129/209/37
f 56/211/34 54/335/34 182/212/34
f 28/214/31 156/401/31 158/215/31
f 4/217/37 2/277/37 132/218/37
f 57/220/38 185/233/38 183/221/38
f 31/222/39 159/235/39 157/66/39
f 5/224/40 133/237/40 130/225/40
f 58/226/38 56/211/38 184/213/38
f 30/216/39 158/215/39 160/228/39
f 6/230/40 4/217/40 131/219/40
f 59/232/41 187/402/41 185/233/41
f 33/234/42 161/248/42 159/235/42
f 7/236/43 135/250/43 133/237/43
f 60/238/41 58/226/41 186/227/41
f 32/229/42 160/228/42 162/240/42
f 8/242/43 6/230/43 134/231/43
f 61/244/44 189/259/44 187/245/44
f 35/247/45 163/261/45 161/248/45
f 7/236/46 9/403/46 137/249/46
f 62/251/44 60/404/44 188/252/44
f 34/241/45 162/240/45 164/254/45
f 10/256/46 8/242/46 136/243/46
f 63/258/47 191/272/47 189/259/47
f 37/260/48 165/274/48 163/261/48
f 11/262/49 139/276/49 137/263/49
f 64/265/47 62/251/47 190/253/47
f 36/255/48 164/254/48 166/267/48
f 12/269/49 10/405/49 138/270/49
f 1/210/50 129/209/50 191/272/50
f 39/273/51 167/283/51 165/274/51
f 11/262/52 13/285/52 141/275/52
f 2/277/50 64/265/50 192/266/50
f 38/268/51 166/267/51 168/278/51
f 14/280/52 12/269/52 140/271/52
f 41/282/53 169/406/53 167/283/53
f 15/284/54 143/294/54 141/275/54
f 40/279/53 168/278/53 170/286/53
f 16/288/54 14/280/54 142/281/54
f 43/290/55 171/301/55 169/291/55
f 17/293/56 145/303/56 143/294/56
f 42/295/55 170/407/55 172/296/55
f 16/288/56 144/289/56 146/298/56
f 45/300/57 173/309/57 171/301/57
f 19/302/58 147/311/58 145/303/58
f 44/297/57 172/296/57 174/304/57
f 18/299/58 146/298/58 148/306/58
f 45/300/59 47/316/59 175/308/59
f 21/310/60 149/319/60 147/311/60
f 46/305/59 174/304/59 176/312/59
f 20/307/60 148/306/60 150/314/60
f 47/316/61 49/324/61 177/317/61
f 21/310/62 23/327/62 151/318/62
f 50/320/61 48/313/61 176/312/61
f 22/315/62 150/314/62 152/322/62
f 49/324/63 51/332/63 179/325/63
f 25/326/64 153/334/64 151/318/64
f 52/328/63 50/320/63 178/321/63
f 24/323/64 152/322/64 154/330/64
f 51/332/65 53/73/65 181/72/65
f 25/326/66 27/408/66 155/333/66
f 54/335/65 52/328/65 180/329/65
f 26/331/66 154/330/66 156/336/66
