# Blender 4.3.2
# www.blender.org
mtllib coinFlame.mtl
o 円柱
v 0.000000 1.082702 0.196207
v 0.000000 1.082702 -0.196207
v -0.176664 1.061898 0.196207
v -0.176664 1.061898 -0.196207
v -0.503097 0.900234 0.196207
v -0.503097 0.900234 -0.196207
v -0.640321 0.765586 0.196207
v -0.640321 0.765586 -0.196207
v -0.752938 0.601517 0.196207
v -0.752938 0.601517 -0.196207
v -0.888151 0.211225 0.196207
v -0.888151 0.211225 -0.196207
v -0.905550 0.000000 0.196207
v -0.905550 -0.000000 -0.196207
v -0.888151 -0.211225 0.196207
v -0.888151 -0.211225 -0.196207
v -0.752938 -0.601517 0.196207
v -0.752938 -0.601517 -0.196207
v -0.640321 -0.765586 0.196207
v -0.640321 -0.765586 -0.196207
v -0.503097 -0.900234 0.196207
v -0.503097 -0.900234 -0.196207
v -0.176664 -1.061898 0.196207
v -0.176664 -1.061898 -0.196207
v 0.000000 -1.082702 0.196207
v 0.000000 -1.082702 -0.196207
v 0.176664 -1.061898 0.196207
v 0.176664 -1.061898 -0.196207
v 0.503097 -0.900234 0.196207
v 0.503097 -0.900234 -0.196207
v 0.640321 -0.765586 0.196207
v 0.640321 -0.765586 -0.196207
v 0.752938 -0.601517 0.196207
v 0.752938 -0.601517 -0.196207
v 0.888151 -0.211225 0.196207
v 0.888151 -0.211225 -0.196207
v 0.905550 0.000000 0.196207
v 0.905550 -0.000000 -0.196207
v 0.888151 0.211225 0.196207
v 0.888151 0.211225 -0.196207
v 0.752938 0.601517 0.196207
v 0.752938 0.601517 -0.196207
v 0.640321 0.765586 0.196207
v 0.640321 0.765586 -0.196207
v 0.503097 0.900234 0.196207
v 0.503097 0.900234 -0.196207
v 0.176664 1.061898 0.196207
v 0.176664 1.061898 -0.196207
v 0.000000 1.177104 0.196207
v -0.195090 1.154487 0.196207
v -0.195090 1.154487 -0.196207
v 0.000000 1.177104 -0.196207
v -0.555570 0.978727 0.196207
v -0.555570 0.978727 -0.196207
v -0.707107 0.832339 0.196207
v -0.707107 0.832339 -0.196207
v -0.831470 0.653964 0.196207
v -0.831470 0.653964 -0.196207
v -0.980785 0.229642 0.196207
v -0.980785 0.229642 -0.196207
v -1.000000 0.000000 0.196207
v -1.000000 -0.000000 -0.196207
v -0.980785 -0.229642 0.196207
v -0.980785 -0.229642 -0.196207
v -0.831470 -0.653964 0.196207
v -0.831470 -0.653964 -0.196207
v -0.707107 -0.832339 0.196207
v -0.707107 -0.832339 -0.196207
v -0.555570 -0.978727 0.196207
v -0.555570 -0.978727 -0.196207
v -0.195090 -1.154487 0.196207
v -0.195090 -1.154487 -0.196207
v 0.000000 -1.177104 0.196207
v 0.000000 -1.177104 -0.196207
v 0.195090 -1.154487 0.196207
v 0.195090 -1.154487 -0.196207
v 0.555570 -0.978727 0.196207
v 0.555570 -0.978727 -0.196207
v 0.707107 -0.832339 0.196207
v 0.707107 -0.832339 -0.196207
v 0.831470 -0.653964 0.196207
v 0.831470 -0.653964 -0.196207
v 0.980785 -0.229642 0.196207
v 0.980785 -0.229642 -0.196207
v 1.000000 0.000000 0.196207
v 1.000000 -0.000000 -0.196207
v 0.980785 0.229642 0.196207
v 0.980785 0.229642 -0.196207
v 0.831470 0.653964 0.196207
v 0.831470 0.653964 -0.196207
v 0.707107 0.832339 0.196207
v 0.707107 0.832339 -0.196207
v 0.555570 0.978727 0.196207
v 0.555570 0.978727 -0.196207
v 0.195090 1.154487 0.196207
v 0.195090 1.154487 -0.196207
v -0.000000 1.082702 0.117216
v -0.176664 1.061898 0.117216
v -0.176664 1.061898 -0.117216
v -0.000000 1.082702 -0.117216
v -0.503097 0.900234 0.117216
v -0.503097 0.900234 -0.117216
v -0.640321 0.765586 0.117216
v -0.640321 0.765586 -0.117216
v -0.752938 0.601517 0.117216
v -0.752938 0.601517 -0.117216
v -0.888151 0.211225 0.117216
v -0.888151 0.211225 -0.117216
v -0.905550 0.000000 0.117216
v -0.905551 -0.000000 -0.117216
v -0.888151 -0.211225 0.117216
v -0.888151 -0.211225 -0.117216
v -0.752938 -0.601517 0.117216
v -0.752938 -0.601517 -0.117216
v -0.640321 -0.765586 0.117216
v -0.640321 -0.765586 -0.117216
v -0.503097 -0.900234 0.117216
v -0.503097 -0.900234 -0.117216
v -0.176664 -1.061898 0.117216
v -0.176664 -1.061898 -0.117216
v -0.000000 -1.082702 0.117216
v -0.000000 -1.082702 -0.117216
v 0.176664 -1.061898 0.117216
v 0.176664 -1.061898 -0.117216
v 0.503097 -0.900234 0.117216
v 0.503097 -0.900234 -0.117216
v 0.640321 -0.765586 0.117216
v 0.640321 -0.765586 -0.117216
v 0.752938 -0.601517 0.117216
v 0.752938 -0.601517 -0.117216
v 0.888151 -0.211225 0.117216
v 0.888151 -0.211225 -0.117216
v 0.905550 0.000000 0.117216
v 0.905550 -0.000000 -0.117216
v 0.888151 0.211225 0.117216
v 0.888151 0.211225 -0.117216
v 0.752938 0.601517 0.117216
v 0.752938 0.601517 -0.117216
v 0.640321 0.765586 0.117216
v 0.640321 0.765586 -0.117216
v 0.503097 0.900234 0.117216
v 0.503097 0.900234 -0.117216
v 0.176664 1.061898 0.117216
v 0.176664 1.061898 -0.117216
vn -0.1152 0.9933 -0.0000
vn -0.6948 0.7192 -0.0000
vn -0.8203 0.5719 -0.0000
vn -0.9965 0.0834 -0.0000
vn -0.9965 -0.0834 -0.0000
vn -0.8203 -0.5719 -0.0000
vn -0.6948 -0.7192 -0.0000
vn -0.1152 -0.9933 -0.0000
vn 0.1152 -0.9933 -0.0000
vn 0.6948 -0.7192 -0.0000
vn 0.8203 -0.5719 -0.0000
vn 0.9965 -0.0834 -0.0000
vn 0.9965 0.0834 -0.0000
vn 0.8203 0.5719 -0.0000
vn 0.6948 0.7192 -0.0000
vn 0.1152 0.9933 -0.0000
vn -0.0000 -0.0000 1.0000
vn -0.0000 -0.0000 -1.0000
vn 0.1170 -0.9931 -0.0000
vn -0.8245 -0.5659 -0.0000
vn -0.7004 -0.7138 -0.0000
vn 0.1170 0.9931 -0.0000
vn -0.1170 0.9931 -0.0000
vn 0.7004 -0.7138 -0.0000
vn 0.8245 -0.5659 -0.0000
vn -0.1170 -0.9931 -0.0000
vn -0.7004 0.7138 -0.0000
vn -0.8245 0.5659 -0.0000
vn 0.9966 -0.0821 -0.0000
vn 0.9966 0.0821 -0.0000
vn -0.9966 0.0821 -0.0000
vn -0.9966 -0.0821 -0.0000
vn 0.8245 0.5659 -0.0000
vn 0.7004 0.7138 -0.0000
vt 0.886576 0.108198
vt 0.978576 0.291552
vt 0.884857 0.287716
vt 0.978348 0.687913
vt 0.879001 0.503672
vt 0.978287 0.500123
vt 0.877650 0.684856
vt 0.775496 0.500888
vt 0.266970 0.105770
vt 0.377011 0.289947
vt 0.268756 0.292854
vt 0.377011 0.107691
vt 0.485266 0.292854
vt 0.732654 0.688798
vt 0.630672 0.504788
vt 0.732603 0.501346
vt 0.629244 0.685994
vt 0.529895 0.501862
vt 0.207026 0.689701
vt 0.115130 0.506345
vt 0.207026 0.502012
vt 0.113317 0.685855
vt 0.021421 0.502500
vt 0.469729 0.688050
vt 0.370380 0.503919
vt 0.469604 0.500363
vt 0.368951 0.685124
vt 0.266970 0.501114
vt 0.529895 0.291453
vt 0.639178 0.106703
vt 0.639943 0.288880
vt 0.747363 0.103118
vt 0.750138 0.290467
vt 0.224053 0.292377
vt 0.122214 0.108376
vt 0.224127 0.104994
vt 0.120785 0.289598
vt 0.021421 0.105398
vt 0.792980 0.104430
vt 0.792980 0.292054
vt 0.885102 0.333304
vt 0.972915 0.336265
vt 0.886271 0.062595
vt 0.978579 0.103847
vt 0.968277 0.455041
vt 0.874971 0.458713
vt 0.968090 0.733509
vt 0.777652 0.456177
vt 0.874055 0.729758
vt 0.775651 0.688536
vt 0.275354 0.337892
vt 0.377011 0.334502
vt 0.273336 0.059700
vt 0.478668 0.337892
vt 0.480686 0.059700
vt 0.377011 0.062552
vt 0.634316 0.459806
vt 0.633265 0.730921
vt 0.730496 0.733465
vt 0.540064 0.456244
vt 0.540029 0.734596
vt 0.114891 0.460754
vt 0.113556 0.731447
vt 0.201366 0.734410
vt 0.027082 0.457791
vt 0.021421 0.690188
vt 0.459595 0.455316
vt 0.366358 0.458992
vt 0.459559 0.733668
vt 0.269128 0.456447
vt 0.365308 0.730106
vt 0.267021 0.688566
vt 0.536562 0.337519
vt 0.640114 0.333997
vt 0.537266 0.058980
vt 0.530803 0.104125
vt 0.743904 0.336659
vt 0.740457 0.058121
vt 0.639009 0.062191
vt 0.125880 0.063397
vt 0.124860 0.334528
vt 0.221885 0.336977
vt 0.031621 0.059779
vt 0.031402 0.338241
vt 0.798619 0.059769
vt 0.884678 0.372057
vt 0.973187 0.059731
vt 0.885853 0.023813
vt 0.972126 0.021421
vt 0.221417 0.023820
vt 0.222066 0.060850
vt 0.221173 0.374254
vt 0.125459 0.373003
vt 0.126425 0.024942
vt 0.200812 0.420736
vt 0.201619 0.457940
vt 0.032767 0.376325
vt 0.113131 0.770201
vt 0.115316 0.421999
vt 0.875035 0.420215
vt 0.967114 0.417889
vt 0.027636 0.771465
vt 0.026828 0.734261
vt 0.966790 0.770970
vt 0.873867 0.768264
vt 0.777867 0.732748
vt 0.778682 0.769857
vt 0.799193 0.373320
vt 0.798386 0.336120
vt 0.799559 0.022266
vt 0.458429 0.418194
vt 0.364787 0.768562
vt 0.366423 0.420526
vt 0.276503 0.375352
vt 0.269786 0.769747
vt 0.269112 0.732715
vt 0.377011 0.024021
vt 0.377011 0.372267
vt 0.479717 0.021421
vt 0.640014 0.372650
vt 0.537628 0.375046
vt 0.538339 0.021421
vt 0.639114 0.024301
vt 0.743011 0.375046
vt 0.729837 0.420165
vt 0.730512 0.457197
vt 0.739203 0.021436
vt 0.633200 0.769387
vt 0.541486 0.417889
vt 0.634837 0.421350
vt 0.541194 0.771718
vt 0.487053 0.105770
vt 0.530019 0.689549
vt 0.021421 0.293117
vt 0.971658 0.374889
vt 0.033067 0.021421
vt 0.200109 0.773033
vt 0.028339 0.419168
vt 0.778576 0.417889
vt 0.458137 0.772023
vt 0.270053 0.418194
vt 0.274305 0.021421
vt 0.477519 0.375352
vt 0.729571 0.771718
s 0
usemtl マテリアル.001
f 52/1/1 50/2/1 49/3/1
f 54/4/2 55/5/2 53/6/2
f 56/7/3 57/8/3 55/5/3
f 60/9/4 61/10/4 59/11/4
f 62/12/5 63/13/5 61/10/5
f 66/14/6 67/15/6 65/16/6
f 68/17/7 69/18/7 67/15/7
f 72/19/8 73/20/8 71/21/8
f 74/22/9 75/23/9 73/20/9
f 78/24/10 79/25/10 77/26/10
f 80/27/11 81/28/11 79/25/11
f 83/29/12 86/30/12 85/31/12
f 85/31/13 88/32/13 87/33/13
f 90/34/14 91/35/14 89/36/14
f 92/37/15 93/38/15 91/35/15
f 96/39/16 49/3/16 95/40/16
f 1/41/17 50/2/17 3/42/17
f 2/43/18 51/44/18 52/1/18
f 5/45/17 55/5/17 7/46/17
f 6/47/18 56/7/18 54/4/18
f 7/46/17 57/8/17 9/48/17
f 8/49/18 58/50/18 56/7/18
f 11/51/17 61/10/17 13/52/17
f 12/53/18 62/12/18 60/9/18
f 15/54/17 61/10/17 63/13/17
f 16/55/18 62/12/18 14/56/18
f 19/57/17 65/16/17 67/15/17
f 20/58/18 66/14/18 18/59/18
f 21/60/17 67/15/17 69/18/17
f 22/61/18 68/17/18 20/58/18
f 25/62/17 71/21/17 73/20/17
f 26/63/18 72/19/18 24/64/18
f 25/62/17 75/23/17 27/65/17
f 26/63/18 76/66/18 74/22/18
f 29/67/17 79/25/17 31/68/17
f 30/69/18 80/27/18 78/24/18
f 31/68/17 81/28/17 33/70/17
f 32/71/18 82/72/18 80/27/18
f 35/73/17 85/31/17 37/74/17
f 36/75/18 86/30/18 84/76/18
f 39/77/17 85/31/17 87/33/17
f 40/78/18 86/30/18 38/79/18
f 43/80/17 89/36/17 91/35/17
f 44/81/18 90/34/18 42/82/18
f 45/83/17 91/35/17 93/38/17
f 46/84/18 92/37/18 44/81/18
f 1/41/17 95/40/17 49/3/17
f 2/43/18 96/39/18 48/85/18
f 3/42/19 97/86/19 1/41/19
f 4/87/19 100/88/19 99/89/19
f 43/80/20 137/90/20 41/91/20
f 44/81/20 138/92/20 140/93/20
f 45/83/21 139/94/21 43/80/21
f 25/62/22 119/95/22 23/96/22
f 46/84/21 140/93/21 142/97/21
f 24/64/22 122/98/22 26/63/22
f 27/65/23 121/99/23 25/62/23
f 5/45/24 103/100/24 101/101/24
f 26/63/23 124/102/23 28/103/23
f 8/49/24 102/104/24 104/105/24
f 9/48/25 103/100/25 7/46/25
f 10/106/25 104/105/25 106/107/25
f 1/41/26 143/108/26 47/109/26
f 2/43/26 144/110/26 100/88/26
f 31/68/27 125/111/27 29/67/27
f 30/69/27 128/112/27 32/71/27
f 33/70/28 127/113/28 31/68/28
f 13/52/29 107/114/29 11/51/29
f 32/71/28 130/115/28 34/116/28
f 12/53/29 110/117/29 14/56/29
f 15/54/30 109/118/30 13/52/30
f 14/56/30 112/119/30 16/55/30
f 35/73/31 133/120/31 131/121/31
f 38/79/31 132/122/31 134/123/31
f 37/74/32 135/124/32 133/120/32
f 19/57/33 113/125/33 17/126/33
f 40/78/32 134/123/32 136/127/32
f 18/59/33 116/128/33 20/58/33
f 19/57/34 117/129/34 115/130/34
f 20/58/34 118/131/34 22/61/34
f 52/1/1 51/44/1 50/2/1
f 54/4/2 56/7/2 55/5/2
f 56/7/3 58/50/3 57/8/3
f 60/9/4 62/12/4 61/10/4
f 62/12/5 64/132/5 63/13/5
f 66/14/6 68/17/6 67/15/6
f 68/17/7 70/133/7 69/18/7
f 72/19/8 74/22/8 73/20/8
f 74/22/9 76/66/9 75/23/9
f 78/24/10 80/27/10 79/25/10
f 80/27/11 82/72/11 81/28/11
f 83/29/12 84/76/12 86/30/12
f 85/31/13 86/30/13 88/32/13
f 90/34/14 92/37/14 91/35/14
f 92/37/15 94/134/15 93/38/15
f 96/39/16 52/1/16 49/3/16
f 1/41/17 49/3/17 50/2/17
f 2/43/18 4/87/18 51/44/18
f 5/45/17 53/6/17 55/5/17
f 6/47/18 8/49/18 56/7/18
f 7/46/17 55/5/17 57/8/17
f 8/49/18 10/106/18 58/50/18
f 11/51/17 59/11/17 61/10/17
f 12/53/18 14/56/18 62/12/18
f 15/54/17 13/52/17 61/10/17
f 16/55/18 64/132/18 62/12/18
f 19/57/17 17/126/17 65/16/17
f 20/58/18 68/17/18 66/14/18
f 21/60/17 19/57/17 67/15/17
f 22/61/18 70/133/18 68/17/18
f 25/62/17 23/96/17 71/21/17
f 26/63/18 74/22/18 72/19/18
f 25/62/17 73/20/17 75/23/17
f 26/63/18 28/103/18 76/66/18
f 29/67/17 77/26/17 79/25/17
f 30/69/18 32/71/18 80/27/18
f 31/68/17 79/25/17 81/28/17
f 32/71/18 34/116/18 82/72/18
f 35/73/17 83/29/17 85/31/17
f 36/75/18 38/79/18 86/30/18
f 39/77/17 37/74/17 85/31/17
f 40/78/18 88/32/18 86/30/18
f 43/80/17 41/91/17 89/36/17
f 44/81/18 92/37/18 90/34/18
f 45/83/17 43/80/17 91/35/17
f 46/84/18 94/134/18 92/37/18
f 1/41/17 47/109/17 95/40/17
f 2/43/18 52/1/18 96/39/18
f 3/42/19 98/135/19 97/86/19
f 4/87/19 2/43/19 100/88/19
f 43/80/20 139/94/20 137/90/20
f 44/81/20 42/82/20 138/92/20
f 45/83/21 141/136/21 139/94/21
f 25/62/22 121/99/22 119/95/22
f 46/84/21 44/81/21 140/93/21
f 24/64/22 120/137/22 122/98/22
f 27/65/23 123/138/23 121/99/23
f 5/45/24 7/46/24 103/100/24
f 26/63/23 122/98/23 124/102/23
f 8/49/24 6/47/24 102/104/24
f 9/48/25 105/139/25 103/100/25
f 10/106/25 8/49/25 104/105/25
f 1/41/26 97/86/26 143/108/26
f 2/43/26 48/85/26 144/110/26
f 31/68/27 127/113/27 125/111/27
f 30/69/27 126/140/27 128/112/27
f 33/70/28 129/141/28 127/113/28
f 13/52/29 109/118/29 107/114/29
f 32/71/28 128/112/28 130/115/28
f 12/53/29 108/142/29 110/117/29
f 15/54/30 111/143/30 109/118/30
f 14/56/30 110/117/30 112/119/30
f 35/73/31 37/74/31 133/120/31
f 38/79/31 36/75/31 132/122/31
f 37/74/32 39/77/32 135/124/32
f 19/57/33 115/130/33 113/125/33
f 40/78/32 38/79/32 134/123/32
f 18/59/33 114/144/33 116/128/33
f 19/57/34 21/60/34 117/129/34
f 20/58/34 116/128/34 118/131/34
