# Blender 4.2.0
# www.blender.org
mtllib door.mtl
o 立方体
v 0.514151 -0.495694 -0.181191
v 0.514151 2.581013 -0.181191
v 0.514151 -0.495694 0.181191
v 0.514151 2.581013 0.181191
v -0.514151 -0.495694 -0.181191
v -0.514151 2.581013 -0.181191
v -0.514151 -0.495694 0.181191
v -0.514151 2.581013 0.181191
v 1.000000 -1.018159 -0.181191
v 1.000000 3.018159 -0.181191
v 1.000000 3.018159 0.181191
v 1.000000 -1.018159 0.181191
v -1.000000 -1.018159 0.181191
v -1.000000 3.018159 0.181191
v -1.000000 3.018159 -0.181191
v -1.000000 -1.018159 -0.181191
v 1.000000 1.000000 -0.181191
v 1.000000 1.000000 0.181191
v -1.000000 1.000000 0.181191
v -1.000000 1.000000 -0.181191
v -0.514151 0.817792 0.095572
v 0.514151 0.817792 0.095572
v 0.514151 0.817792 -0.095572
v -0.514151 0.817792 -0.095572
v 0.514151 0.370585 -0.181191
v 0.514151 0.817792 -0.181191
v -0.514151 2.581013 -0.095572
v 0.514151 0.817792 0.181191
v 0.514151 0.370585 0.181191
v -0.514151 2.581013 0.095572
v -0.514151 0.370585 0.181191
v -0.514151 0.817792 0.181191
v 0.514151 2.581013 0.095572
v -0.514151 0.817792 -0.181191
v -0.514151 0.370585 -0.181191
v 0.514151 2.581013 -0.095572
v -0.514151 -0.495694 0.105085
v 0.514151 -0.495694 0.105085
v 0.514151 -0.495694 -0.105085
v -0.514151 -0.495694 -0.105085
v 0.514151 0.370585 -0.105085
v -0.514151 0.370585 -0.105085
v -0.514151 0.370585 0.105085
v 0.514151 0.370585 0.105085
v 0.775402 -0.927520 -0.181191
v 0.841024 -0.998017 -0.181191
v 0.775345 2.787148 -0.181191
v 0.841024 2.848173 -0.181191
v 0.775345 2.787148 0.181191
v 0.841024 2.848173 0.181191
v 0.775402 -0.927520 0.181191
v 0.841024 -0.998017 0.181191
v -0.775402 -0.927520 0.181191
v -0.841024 -0.998017 0.181191
v -0.841024 2.848173 0.181191
v -0.775345 2.787148 0.181191
v -0.775345 2.787148 -0.181191
v -0.841024 2.848173 -0.181191
v -0.775402 -0.927520 -0.181191
v -0.841024 -0.998017 -0.181191
v 0.775473 1.000000 -0.181191
v 0.840897 1.000000 -0.181191
v 0.775473 1.000000 0.181191
v 0.840897 1.000000 0.181191
v -0.840897 1.000000 0.181191
v -0.775473 1.000000 0.181191
v -0.775473 1.000000 -0.181191
v -0.840897 1.000000 -0.181191
v 0.775473 1.000000 -0.093986
v 0.775345 2.787148 -0.093986
v 0.841024 2.848173 -0.093986
v 0.840897 1.000000 -0.093986
v 0.775473 1.000000 0.093986
v 0.775402 -0.927520 0.093986
v 0.841024 -0.998017 0.093986
v 0.840897 1.000000 0.093986
v -0.775402 -0.927520 0.093986
v -0.841024 -0.998017 0.093986
v 0.775345 2.787148 0.093986
v 0.841024 2.848173 0.093986
v -0.841024 2.848173 0.093986
v -0.775345 2.787148 0.093986
v -0.840897 1.000000 0.093986
v -0.775473 1.000000 0.093986
v -0.775473 1.000000 -0.093986
v -0.775402 -0.927520 -0.093986
v -0.841024 -0.998017 -0.093986
v -0.840897 1.000000 -0.093986
v 0.775402 -0.927520 -0.093986
v 0.841024 -0.998017 -0.093986
v -0.775345 2.787148 -0.093986
v -0.841024 2.848173 -0.093986
v 0.724906 0.717921 -0.228532
v 0.724906 1.219797 -0.228532
v 0.724906 0.717921 -0.132432
v 0.724906 1.219797 -0.132432
v 0.628806 0.717921 -0.228532
v 0.628806 1.219797 -0.228532
v 0.628806 0.717921 -0.132432
v 0.628806 1.219797 -0.132432
v 0.690254 0.910367 -0.300213
v 0.690254 0.977430 -0.300213
v 0.690254 0.910367 -0.204113
v 0.690254 0.977430 -0.204113
v 0.271710 0.910367 -0.300213
v 0.271710 0.977430 -0.300213
v 0.271710 0.910367 -0.204113
v 0.271710 0.977430 -0.204113
vn 1.0000 -0.0000 -0.0000
vn -1.0000 -0.0000 -0.0000
vn -0.0000 -1.0000 -0.0000
vn -0.0000 1.0000 -0.0000
vn -0.0000 -0.0000 -1.0000
vn -0.0000 -0.0000 1.0000
vn -1.0000 -0.0001 -0.0000
vn 1.0000 -0.0001 -0.0000
vn 1.0000 0.0001 -0.0000
vn -1.0000 0.0001 -0.0000
vt 0.255113 0.989773
vt 0.377557 0.744887
vt 0.377556 0.989773
vt 0.370016 0.060404
vt 0.302611 0.060404
vt 0.255113 0.500000
vt 0.377557 0.255113
vt 0.377557 0.500000
vt 0.385097 0.204936
vt 0.452502 0.204936
vt 0.500000 0.500000
vt 0.744887 0.255113
vt 0.744887 0.500000
vt 0.010227 0.500000
vt 0.255113 0.255113
vt 0.370016 0.204936
vt 0.376134 0.228658
vt 0.274579 0.235648
vt 0.385097 0.550177
vt 0.370016 0.550177
vt 0.376133 0.526455
vt 0.473837 0.718425
vt 0.376133 0.718431
vt 0.385097 0.694710
vt 0.302611 0.694710
vt 0.370016 0.694710
vt 0.255113 0.744887
vt 0.274579 0.725421
vt 0.385097 0.060404
vt 0.376134 0.036682
vt 0.281281 0.526467
vt 0.302611 0.550177
vt 0.452502 0.550177
vt 0.302611 0.204936
vt 0.480534 0.519466
vt 0.500000 0.744887
vt 0.480534 0.725421
vt 0.274579 0.519466
vt 0.377557 0.010227
vt 0.500000 0.010227
vt 0.480534 0.029692
vt 0.452502 0.060404
vt 0.500000 0.255113
vt 0.480534 0.235648
vt 0.255113 0.010227
vt 0.274579 0.029692
vt 0.452502 0.694710
vt 0.500000 0.989773
vt 0.281281 0.036693
vt 0.377557 0.029708
vt 0.281281 0.718420
vt 0.377557 0.235632
vt 0.473837 0.036688
vt 0.377557 0.725406
vt 0.281281 0.228646
vt 0.473837 0.526462
vt 0.377557 0.519481
vt 0.473837 0.228652
vt 0.813104 0.136459
vt 0.789222 0.160341
vt 0.789222 0.136459
vt 0.813104 0.160341
vt 0.789222 0.184223
vt 0.813104 0.184223
vt 0.789222 0.208105
vt 0.813104 0.208105
vt 0.789222 0.231987
vt 0.765340 0.208105
vt 0.765340 0.184223
vt 0.836986 0.184223
vt 0.791785 0.116006
vt 0.818230 0.089561
vt 0.818229 0.116006
vt 0.791785 0.089561
vt 0.818230 0.063116
vt 0.791785 0.063116
vt 0.818229 0.036671
vt 0.791785 0.036671
vt 0.818230 0.010227
vt 0.844674 0.036671
vt 0.844674 0.063116
vt 0.765340 0.063116
vt 0.010227 0.255113
vt 0.813104 0.231987
vt 0.836986 0.208105
vt 0.791785 0.010227
vt 0.765340 0.036671
s 0
usemtl マテリアル
f 10/1/1 18/2/1 17/3/1
f 26/4/2 36/5/2 2/5/2
f 14/6/2 20/7/2 19/8/2
f 35/9/1 40/10/1 5/10/1
f 13/11/3 9/12/3 12/13/3
f 11/14/4 15/15/4 14/6/4
f 34/16/5 35/9/5 67/17/5
f 20/7/5 15/15/5 58/18/5
f 31/19/6 32/20/6 66/21/6
f 51/22/6 63/23/6 29/24/6
f 33/25/6 21/20/6 22/26/6
f 18/2/6 11/27/6 50/28/6
f 25/29/5 26/4/5 61/30/5
f 4/25/6 56/31/6 8/32/6
f 7/33/1 43/19/1 31/19/1
f 6/34/1 24/16/1 34/16/1
f 54/35/6 12/36/6 52/37/6
f 50/28/6 14/6/6 55/38/6
f 17/39/5 9/40/5 46/41/5
f 1/42/2 41/29/2 25/29/2
f 46/41/5 16/43/5 60/44/5
f 58/18/5 10/45/5 48/46/5
f 7/33/6 51/22/6 3/47/6
f 28/26/4 21/20/4 32/20/4
f 2/5/3 27/34/3 6/34/3
f 4/25/2 22/26/2 28/26/2
f 27/34/5 23/4/5 24/16/5
f 8/32/3 33/25/3 4/25/3
f 44/24/6 37/33/6 38/47/6
f 29/24/2 38/47/2 3/47/2
f 19/8/2 16/43/2 13/11/2
f 19/8/6 13/11/6 54/35/6
f 17/3/1 12/36/1 9/48/1
f 42/9/5 39/42/5 40/10/5
f 34/16/4 23/4/4 26/4/4
f 32/20/1 30/32/1 8/32/1
f 5/10/4 39/42/4 1/42/4
f 26/4/5 35/9/5 34/16/5
f 32/20/6 29/24/6 28/26/6
f 6/34/5 47/49/5 2/5/5
f 3/47/4 37/33/4 7/33/4
f 31/19/3 44/24/3 29/24/3
f 25/29/3 42/9/3 35/9/3
f 46/41/7 72/50/7 62/50/7
f 49/51/4 82/31/4 56/31/4
f 68/52/8 87/44/8 60/44/8
f 61/30/1 89/53/1 45/53/1
f 58/18/9 88/52/9 68/52/9
f 73/23/6 76/54/6 79/51/6
f 51/22/1 73/23/1 63/23/1
f 57/55/4 70/49/4 47/49/4
f 85/17/5 88/52/5 91/55/5
f 81/38/6 79/51/6 80/28/6
f 75/37/6 77/56/6 78/35/6
f 83/57/6 77/56/6 84/21/6
f 1/42/5 59/58/5 5/10/5
f 55/38/3 80/28/3 50/28/3
f 87/44/5 89/53/5 90/41/5
f 71/46/5 91/55/5 92/18/5
f 69/30/5 72/50/5 89/53/5
f 64/54/7 75/37/7 52/37/7
f 63/23/9 79/51/9 49/51/9
f 60/44/4 90/41/4 46/41/4
f 47/49/9 69/30/9 61/30/9
f 54/35/8 83/57/8 65/57/8
f 50/28/10 76/54/10 64/54/10
f 52/37/4 78/35/4 54/35/4
f 45/53/3 86/58/3 59/58/3
f 66/21/2 77/56/2 53/56/2
f 65/57/9 81/38/9 55/38/9
f 53/56/3 74/22/3 51/22/3
f 62/50/10 71/46/10 48/46/10
f 56/31/10 84/21/10 66/21/10
f 48/46/3 92/18/3 58/18/3
f 59/58/2 85/17/2 67/17/2
f 67/17/10 91/55/10 57/55/10
f 94/59/1 95/60/1 93/61/1
f 96/62/6 99/63/6 95/60/6
f 100/64/2 97/65/2 99/63/2
f 98/66/5 93/67/5 97/65/5
f 99/63/3 93/68/3 95/69/3
f 96/70/4 98/66/4 100/64/4
f 102/71/1 103/72/1 101/73/1
f 104/74/6 107/75/6 103/72/6
f 108/76/2 105/77/2 107/75/2
f 106/78/5 101/79/5 105/77/5
f 107/75/3 101/80/3 103/81/3
f 104/82/4 106/78/4 108/76/4
f 10/1/1 11/27/1 18/2/1
f 26/4/2 23/4/2 36/5/2
f 14/6/2 15/15/2 20/7/2
f 35/9/1 42/9/1 40/10/1
f 13/11/3 16/43/3 9/12/3
f 11/14/4 10/83/4 15/15/4
f 35/9/5 5/10/5 59/58/5
f 59/58/5 67/17/5 35/9/5
f 67/17/5 57/55/5 6/34/5
f 34/16/5 67/17/5 6/34/5
f 58/18/5 68/52/5 20/7/5
f 68/52/5 60/44/5 20/7/5
f 60/44/5 16/43/5 20/7/5
f 32/20/6 8/32/6 66/21/6
f 8/32/6 56/31/6 66/21/6
f 66/21/6 53/56/6 31/19/6
f 53/56/6 7/33/6 31/19/6
f 49/51/6 4/25/6 63/23/6
f 4/25/6 28/26/6 63/23/6
f 29/24/6 3/47/6 51/22/6
f 28/26/6 29/24/6 63/23/6
f 33/25/6 30/32/6 21/20/6
f 50/28/6 64/54/6 18/2/6
f 64/54/6 52/37/6 18/2/6
f 52/37/6 12/36/6 18/2/6
f 45/53/5 1/42/5 25/29/5
f 26/4/5 2/5/5 61/30/5
f 2/5/5 47/49/5 61/30/5
f 45/53/5 25/29/5 61/30/5
f 4/25/6 49/51/6 56/31/6
f 7/33/1 37/33/1 43/19/1
f 6/34/1 27/34/1 24/16/1
f 54/35/6 13/11/6 12/36/6
f 50/28/6 11/27/6 14/6/6
f 46/41/5 62/50/5 17/39/5
f 62/50/5 48/46/5 17/39/5
f 48/46/5 10/45/5 17/39/5
f 1/42/2 39/42/2 41/29/2
f 46/41/5 9/40/5 16/43/5
f 58/18/5 15/15/5 10/45/5
f 7/33/6 53/56/6 51/22/6
f 28/26/4 22/26/4 21/20/4
f 2/5/3 36/5/3 27/34/3
f 4/25/2 33/25/2 22/26/2
f 27/34/5 36/5/5 23/4/5
f 8/32/3 30/32/3 33/25/3
f 44/24/6 43/19/6 37/33/6
f 29/24/2 44/24/2 38/47/2
f 19/8/2 20/7/2 16/43/2
f 54/35/6 65/57/6 19/8/6
f 65/57/6 55/38/6 19/8/6
f 55/38/6 14/6/6 19/8/6
f 17/3/1 18/2/1 12/36/1
f 42/9/5 41/29/5 39/42/5
f 34/16/4 24/16/4 23/4/4
f 32/20/1 21/20/1 30/32/1
f 5/10/4 40/10/4 39/42/4
f 26/4/5 25/29/5 35/9/5
f 32/20/6 31/19/6 29/24/6
f 6/34/5 57/55/5 47/49/5
f 3/47/4 38/47/4 37/33/4
f 31/19/3 43/19/3 44/24/3
f 25/29/3 41/29/3 42/9/3
f 46/41/7 90/41/7 72/50/7
f 49/51/4 79/51/4 82/31/4
f 68/52/8 88/52/8 87/44/8
f 61/30/1 69/30/1 89/53/1
f 58/18/9 92/18/9 88/52/9
f 73/23/6 74/22/6 76/54/6
f 74/22/6 75/37/6 76/54/6
f 76/54/6 80/28/6 79/51/6
f 51/22/1 74/22/1 73/23/1
f 57/55/4 91/55/4 70/49/4
f 85/17/5 86/58/5 88/52/5
f 86/58/5 87/44/5 88/52/5
f 88/52/5 92/18/5 91/55/5
f 81/38/6 82/31/6 79/51/6
f 75/37/6 74/22/6 77/56/6
f 83/57/6 78/35/6 77/56/6
f 84/21/6 82/31/6 83/57/6
f 82/31/6 81/38/6 83/57/6
f 1/42/5 45/53/5 59/58/5
f 55/38/3 81/38/3 80/28/3
f 87/44/5 86/58/5 89/53/5
f 71/46/5 70/49/5 91/55/5
f 69/30/5 70/49/5 72/50/5
f 70/49/5 71/46/5 72/50/5
f 72/50/5 90/41/5 89/53/5
f 64/54/7 76/54/7 75/37/7
f 63/23/9 73/23/9 79/51/9
f 60/44/4 87/44/4 90/41/4
f 47/49/9 70/49/9 69/30/9
f 54/35/8 78/35/8 83/57/8
f 50/28/10 80/28/10 76/54/10
f 52/37/4 75/37/4 78/35/4
f 45/53/3 89/53/3 86/58/3
f 66/21/2 84/21/2 77/56/2
f 65/57/9 83/57/9 81/38/9
f 53/56/3 77/56/3 74/22/3
f 62/50/10 72/50/10 71/46/10
f 56/31/10 82/31/10 84/21/10
f 48/46/3 71/46/3 92/18/3
f 59/58/2 86/58/2 85/17/2
f 67/17/10 85/17/10 91/55/10
f 94/59/1 96/62/1 95/60/1
f 96/62/6 100/64/6 99/63/6
f 100/64/2 98/66/2 97/65/2
f 98/66/5 94/84/5 93/67/5
f 99/63/3 97/65/3 93/68/3
f 96/70/4 94/85/4 98/66/4
f 102/71/1 104/74/1 103/72/1
f 104/74/6 108/76/6 107/75/6
f 108/76/2 106/78/2 105/77/2
f 106/78/5 102/86/5 101/79/5
f 107/75/3 105/77/3 101/80/3
f 104/82/4 102/87/4 106/78/4
