# Blender 4.3.2
# www.blender.org
mtllib gravityBlockDown.mtl
o Cube
v -1.000000 -1.000000 -1.000000
v 0.703420 -0.845332 -0.845332
v -1.000000 1.000000 -1.000000
v 0.703420 0.845332 -0.845332
v -1.000000 -1.000000 1.000000
v 0.703420 -0.845332 0.845332
v -1.000000 1.000000 1.000000
v 0.703420 0.845332 0.845332
v 1.000000 -1.000000 -1.000000
v -0.703420 -0.845332 -0.845332
v 1.000000 1.000000 -1.000000
v -0.703420 0.845332 -0.845332
v 1.000000 -1.000000 1.000000
v -0.703420 -0.845332 0.845332
v 1.000000 1.000000 1.000000
v -0.703420 0.845332 0.845332
v -1.000000 0.845332 -0.845332
v -1.000000 -0.845332 0.845332
v -1.000000 -0.845332 -0.845332
v -1.000000 0.845332 0.845332
v 0.845332 0.845332 -1.000000
v -0.845332 -0.845332 -1.000000
v 0.845332 -0.845332 -1.000000
v -0.845332 0.845332 -1.000000
v -0.703420 -0.845332 -0.845332
v -0.703420 0.845332 -0.845332
v -0.845332 -0.845332 -0.845332
v -0.845332 0.845332 -0.845332
v 1.000000 0.845332 0.845332
v 1.000000 -0.845332 -0.845332
v 1.000000 -0.845332 0.845332
v 1.000000 0.845332 -0.845332
v 0.703420 -0.845332 -0.845332
v 0.845332 -0.845332 -0.845332
v 0.845332 0.845332 -0.845332
v 0.703420 0.845332 -0.845332
v 0.845332 -0.845332 1.000000
v -0.845332 -0.845332 1.000000
v -0.845332 0.845332 1.000000
v 0.845332 0.845332 1.000000
v -0.845332 0.845332 0.845332
v -0.703420 0.845332 0.845332
v -0.703420 -0.845332 0.845332
v -0.845332 -0.845332 0.845332
v 0.845332 0.845332 0.845332
v 0.703420 0.845332 0.845332
v 0.703420 -0.845332 0.845332
v 0.845332 -0.845332 0.845332
v 0.845332 -1.000000 0.845332
v -0.845332 -1.000000 -0.845332
v 0.845332 -1.000000 -0.845332
v -0.845332 -1.000000 0.845332
v -0.845332 -0.845332 -0.845332
v -0.703420 -0.845332 0.845332
v -0.703420 -0.845332 -0.845332
v -0.845332 -0.845332 0.845332
v -0.703420 -0.845332 0.845332
v -0.703420 -0.845332 -0.845332
v -0.703420 -0.703420 0.703420
v -0.703420 -0.703420 -0.703420
v 0.703420 -0.845332 -0.845332
v 0.703420 -0.703420 -0.703420
v 0.845332 -0.845332 -0.845332
v 0.703420 -0.845332 0.845332
v 0.703420 -0.845332 -0.845332
v 0.845332 -0.845332 0.845332
v 0.703420 -0.845332 0.845332
v 0.703420 -0.703420 0.703420
v 0.845332 1.000000 -0.845332
v -0.845332 1.000000 -0.845332
v -0.845332 1.000000 0.845332
v 0.845332 1.000000 0.845332
v -0.703420 0.845332 0.845332
v -0.703420 0.845332 -0.845332
v -0.703420 0.845332 0.845332
v -0.703420 0.845332 -0.845332
v -0.703420 0.703420 0.703420
v -0.703420 0.703420 -0.703420
v -0.845332 0.845332 0.845332
v -0.845332 0.845332 -0.845332
v 0.703420 0.703420 -0.703420
v 0.703420 0.845332 -0.845332
v 0.845332 0.845332 0.845332
v 0.703420 0.845332 0.845332
v 0.703420 0.845332 -0.845332
v 0.845332 0.845332 -0.845332
v 0.703420 0.845332 0.845332
v 0.703420 0.703420 0.703420
v 0.159882 0.459094 -0.695393
v 0.159882 -0.183449 -0.695393
v 0.159882 0.459094 -0.754053
v 0.159882 -0.183449 -0.754053
v -0.159882 0.459094 -0.695393
v -0.159882 -0.183449 -0.695393
v -0.159882 0.459094 -0.754053
v -0.159882 -0.183449 -0.754053
v 0.360393 -0.164951 -0.690588
v 0.001637 -0.523706 -0.690588
v 0.360393 -0.164951 -0.758858
v 0.001637 -0.523706 -0.758858
v -0.357118 -0.164951 -0.690588
v -0.357118 -0.164951 -0.758858
v 0.159882 0.459094 0.754053
v 0.159882 -0.183449 0.754053
v 0.159882 0.459094 0.695393
v 0.159882 -0.183449 0.695393
v -0.159882 0.459094 0.754053
v -0.159882 -0.183449 0.754053
v -0.159882 0.459094 0.695393
v -0.159882 -0.183449 0.695393
v 0.360393 -0.164950 0.758858
v 0.001637 -0.523706 0.758858
v 0.360393 -0.164950 0.690588
v 0.001637 -0.523706 0.690588
v -0.357118 -0.164950 0.758858
v -0.357118 -0.164950 0.690588
v -0.754053 0.463470 0.159881
v -0.754053 -0.179074 0.159882
v -0.695393 0.463470 0.159881
v -0.695393 -0.179074 0.159882
v -0.754053 0.463470 -0.159882
v -0.754053 -0.179074 -0.159882
v -0.695393 0.463470 -0.159882
v -0.695393 -0.179074 -0.159882
v -0.758858 -0.160575 0.360393
v -0.758858 -0.519331 0.001637
v -0.690588 -0.160575 0.360393
v -0.690588 -0.519331 0.001637
v -0.758858 -0.160575 -0.357118
v -0.690588 -0.160575 -0.357118
v 0.695393 0.463470 0.159881
v 0.695393 -0.179074 0.159882
v 0.754053 0.463470 0.159881
v 0.754053 -0.179074 0.159882
v 0.695393 0.463470 -0.159882
v 0.695393 -0.179074 -0.159882
v 0.754053 0.463470 -0.159882
v 0.754053 -0.179074 -0.159882
v 0.690588 -0.160575 0.360393
v 0.690588 -0.519331 0.001637
v 0.758858 -0.160575 0.360393
v 0.758858 -0.519331 0.001637
v 0.690588 -0.160575 -0.357118
v 0.758858 -0.160575 -0.357118
vn -0.0000 -1.0000 -0.0000
vn -0.0000 -0.0000 1.0000
vn 1.0000 -0.0000 -0.0000
vn -0.0000 1.0000 -0.0000
vn -1.0000 -0.0000 -0.0000
vn -0.0000 -0.0000 -1.0000
vn -0.0000 -0.3195 -0.9476
vn -0.0000 0.3195 -0.9476
vn -0.0000 -0.3195 0.9476
vn -0.0000 -0.1662 -0.9861
vn -0.0000 0.1662 0.9861
vn 0.7071 -0.7071 -0.0000
vn -0.7071 -0.7071 -0.0000
vn -0.0000 -0.7071 0.7071
vn -0.0000 -0.7071 -0.7071
vt 0.462513 0.027945
vt 0.452751 0.144410
vt 0.452751 0.037707
vt 0.336287 0.154171
vt 0.346049 0.037707
vt 0.346049 0.144409
vt 0.037707 0.144409
vt 0.027945 0.154171
vt 0.027945 0.027945
vt 0.154171 0.027945
vt 0.144409 0.144409
vt 0.144409 0.037707
vt 0.219823 0.452752
vt 0.210062 0.462513
vt 0.219823 0.346049
vt 0.326526 0.346049
vt 0.336287 0.336287
vt 0.326526 0.452752
vt 0.280397 0.027945
vt 0.280397 0.154171
vt 0.270635 0.037707
vt 0.163933 0.144409
vt 0.154171 0.154171
vt 0.037707 0.270635
vt 0.027945 0.280397
vt 0.144409 0.270635
vt 0.144409 0.163933
vt 0.144409 0.346049
vt 0.154171 0.336287
vt 0.144409 0.452751
vt 0.037707 0.452751
vt 0.027945 0.462513
vt 0.037707 0.346049
vt 0.392178 0.442990
vt 0.392178 0.336287
vt 0.401940 0.442990
vt 0.336287 0.210062
vt 0.442990 0.210062
vt 0.336287 0.219823
vt 0.940034 0.796741
vt 0.940034 0.852632
vt 0.027945 0.680997
vt 0.116735 0.769787
vt 0.027945 0.769787
vt 0.940034 0.908522
vt 0.027945 0.970358
vt 0.518404 0.027945
vt 0.625106 0.027945
vt 0.518404 0.037707
vt 0.625106 0.419707
vt 0.518404 0.419707
vt 0.625106 0.409945
vt 0.787700 0.027945
vt 0.778743 0.037707
vt 0.689954 0.037707
vt 0.261415 0.769787
vt 0.172626 0.680997
vt 0.261415 0.680997
vt 0.421859 0.518404
vt 0.431620 0.625106
vt 0.421859 0.625106
vt 0.093598 0.527360
vt 0.103359 0.518404
vt 0.093598 0.616150
vt 0.300316 0.518404
vt 0.290554 0.625106
vt 0.290554 0.518404
vt 0.518404 0.102554
vt 0.625106 0.102554
vt 0.518404 0.112316
vt 0.625106 0.260728
vt 0.625106 0.270489
vt 0.518404 0.270489
vt 0.625106 0.345098
vt 0.518404 0.345098
vt 0.625106 0.335337
vt 0.083836 0.970358
vt 0.139727 0.970358
vt 0.195617 0.970358
vt 0.317306 0.769787
vt 0.406096 0.680997
vt 0.406096 0.769787
vt 0.251508 0.970358
vt 0.518404 0.177163
vt 0.625106 0.177163
vt 0.518404 0.186924
vt 0.487511 0.518404
vt 0.497272 0.527360
vt 0.497272 0.616150
vt 0.562925 0.625106
vt 0.553163 0.518404
vt 0.562925 0.518404
vt 0.778743 0.093598
vt 0.787700 0.103359
vt 0.689954 0.093598
vt 0.356207 0.625106
vt 0.365968 0.518404
vt 0.365968 0.625106
vt 0.550776 0.769787
vt 0.461986 0.680997
vt 0.550776 0.680997
vt 0.680997 0.169011
vt 0.689954 0.159250
vt 0.778743 0.159250
vt 0.787700 0.365968
vt 0.680997 0.356207
vt 0.787700 0.356207
vt 0.695457 0.680997
vt 0.606667 0.769787
vt 0.606667 0.680997
vt 0.787700 0.431620
vt 0.680997 0.421859
vt 0.787700 0.421859
vt 0.159250 0.625106
vt 0.169011 0.527360
vt 0.169011 0.616150
vt 0.116735 0.914467
vt 0.027945 0.825678
vt 0.116735 0.825678
vt 0.027945 0.527360
vt 0.037707 0.518404
vt 0.027945 0.616150
vt 0.680997 0.290554
vt 0.787700 0.300316
vt 0.680997 0.300316
vt 0.787700 0.224902
vt 0.680997 0.234664
vt 0.680997 0.224902
vt 0.234664 0.518404
vt 0.224902 0.616150
vt 0.224902 0.527360
vt 0.336287 0.027945
vt 0.462513 0.154171
vt 0.037707 0.037707
vt 0.336287 0.462513
vt 0.210062 0.336287
vt 0.163933 0.037707
vt 0.270635 0.144409
vt 0.154171 0.280397
vt 0.037707 0.163933
vt 0.027945 0.336287
vt 0.154171 0.462513
vt 0.410896 0.442990
vt 0.410896 0.442990
vt 0.410896 0.336287
vt 0.401940 0.336287
vt 0.336287 0.228780
vt 0.442990 0.228780
vt 0.442990 0.219823
vt 0.442990 0.228780
vt 0.116735 0.680997
vt 0.518404 0.046663
vt 0.625106 0.046663
vt 0.625106 0.037707
vt 0.625106 0.400989
vt 0.518404 0.400989
vt 0.518404 0.409945
vt 0.680997 0.037707
vt 0.680997 0.027945
vt 0.787700 0.037707
vt 0.172626 0.769787
vt 0.431620 0.518404
vt 0.093598 0.518404
vt 0.103359 0.625106
vt 0.093598 0.625106
vt 0.300316 0.625106
vt 0.518404 0.121272
vt 0.625106 0.121272
vt 0.625106 0.112316
vt 0.625106 0.121272
vt 0.625106 0.251771
vt 0.518404 0.251771
vt 0.518404 0.260728
vt 0.625106 0.326380
vt 0.518404 0.326380
vt 0.518404 0.335337
vt 0.317306 0.680997
vt 0.518404 0.195881
vt 0.625106 0.195881
vt 0.625106 0.186924
vt 0.497272 0.625106
vt 0.487511 0.625106
vt 0.497272 0.518404
vt 0.553163 0.625106
vt 0.787700 0.093598
vt 0.680997 0.103359
vt 0.680997 0.093598
vt 0.356207 0.518404
vt 0.461986 0.769787
vt 0.787700 0.159250
vt 0.787700 0.169011
vt 0.680997 0.159250
vt 0.680997 0.365968
vt 0.695457 0.769787
vt 0.680997 0.431620
vt 0.169011 0.625106
vt 0.159250 0.518404
vt 0.169011 0.518404
vt 0.027945 0.914467
vt 0.027945 0.518404
vt 0.037707 0.625107
vt 0.027945 0.625107
vt 0.027945 0.616150
vt 0.027945 0.527360
vt 0.787700 0.290554
vt 0.787700 0.234664
vt 0.224902 0.518404
vt 0.234664 0.625106
vt 0.224902 0.625106
vt 0.224902 0.616150
vt 0.843590 0.753085
vt 0.884143 0.749383
vt 0.884143 0.753085
vt 0.843590 0.276342
vt 0.884143 0.256161
vt 0.884143 0.276342
vt 0.843590 0.335935
vt 0.884143 0.332233
vt 0.884143 0.335935
vt 0.756839 0.825678
vt 0.777020 0.866230
vt 0.756839 0.866230
vt 0.863772 0.896887
vt 0.843590 0.900589
vt 0.843590 0.896887
vt 0.960215 0.379591
vt 0.940034 0.383293
vt 0.940034 0.379591
vt 0.618815 0.543280
vt 0.623549 0.568157
vt 0.618815 0.568157
vt 0.623549 0.543280
vt 0.618815 0.518404
vt 0.623549 0.518404
vt 0.623549 0.617910
vt 0.972055 0.235789
vt 0.940034 0.203768
vt 0.972055 0.203768
vt 0.251159 0.870962
vt 0.251159 0.825678
vt 0.273801 0.848320
vt 0.843590 0.395528
vt 0.884143 0.391826
vt 0.884143 0.395528
vt 0.843590 0.048127
vt 0.884143 0.027945
vt 0.884143 0.048127
vt 0.843590 0.514713
vt 0.884143 0.511011
vt 0.884143 0.514713
vt 0.843590 0.124198
vt 0.884143 0.104017
vt 0.884143 0.124198
vt 0.960215 0.439184
vt 0.940034 0.442886
vt 0.940034 0.439184
vt 0.960215 0.617963
vt 0.940034 0.621665
vt 0.940034 0.617963
vt 0.705874 0.492245
vt 0.730750 0.487511
vt 0.730750 0.492245
vt 0.705874 0.487511
vt 0.680997 0.492245
vt 0.680997 0.487511
vt 0.780503 0.487511
vt 0.940034 0.323700
vt 0.972055 0.291680
vt 0.972055 0.323700
vt 0.329691 0.870962
vt 0.329691 0.825678
vt 0.352333 0.848320
vt 0.843590 0.455121
vt 0.884143 0.451419
vt 0.884143 0.455121
vt 0.680767 0.825678
vt 0.700948 0.866230
vt 0.680767 0.866230
vt 0.843590 0.574306
vt 0.884143 0.570604
vt 0.884143 0.574306
vt 0.528623 0.825678
vt 0.548804 0.866230
vt 0.528623 0.866230
vt 0.960215 0.498777
vt 0.940034 0.502479
vt 0.940034 0.498777
vt 0.940034 0.740850
vt 0.960215 0.737148
vt 0.960215 0.740850
vt 0.707923 0.548136
vt 0.680997 0.553260
vt 0.680997 0.548136
vt 0.707923 0.553260
vt 0.734849 0.548136
vt 0.734849 0.553260
vt 0.472732 0.870962
vt 0.468423 0.825678
vt 0.472732 0.825678
vt 0.172626 0.870962
vt 0.172626 0.825678
vt 0.195268 0.848320
vt 0.972055 0.115857
vt 0.940034 0.147877
vt 0.940034 0.115857
vt 0.843590 0.693492
vt 0.884143 0.689790
vt 0.884143 0.693492
vt 0.604695 0.825678
vt 0.624876 0.866230
vt 0.604695 0.866230
vt 0.843590 0.633899
vt 0.884143 0.630197
vt 0.884143 0.633899
vt 0.843590 0.200270
vt 0.884143 0.180089
vt 0.884143 0.200270
vt 0.960215 0.677555
vt 0.940034 0.681257
vt 0.940034 0.677555
vt 0.940034 0.562072
vt 0.960215 0.558370
vt 0.960215 0.562072
vt 0.707923 0.609150
vt 0.680997 0.614274
vt 0.680997 0.609150
vt 0.707923 0.614274
vt 0.734849 0.609150
vt 0.734849 0.614274
vt 0.412533 0.870962
vt 0.408224 0.825678
vt 0.412533 0.825678
vt 0.875611 0.808976
vt 0.843590 0.840996
vt 0.843590 0.808976
vt 0.972055 0.027945
vt 0.940034 0.059966
vt 0.940034 0.027945
vt 0.843590 0.749383
vt 0.843590 0.256161
vt 0.843590 0.332233
vt 0.777020 0.825678
vt 0.863772 0.900589
vt 0.960215 0.383293
vt 0.618815 0.617910
vt 0.843590 0.391826
vt 0.843590 0.027945
vt 0.843590 0.511011
vt 0.843590 0.104017
vt 0.960215 0.442886
vt 0.960215 0.621665
vt 0.780503 0.492245
vt 0.843590 0.451419
vt 0.700948 0.825678
vt 0.843590 0.570604
vt 0.548804 0.825678
vt 0.960215 0.502479
vt 0.940034 0.737148
vt 0.468423 0.870962
vt 0.843590 0.689790
vt 0.624876 0.825678
vt 0.843590 0.630197
vt 0.843590 0.180089
vt 0.960215 0.681257
vt 0.940034 0.558370
vt 0.408224 0.870962
s 0
usemtl マテリアル
f 13/1/1 52/2/1 49/3/1
f 1/4/1 51/5/1 50/6/1
f 38/7/2 5/8/2 13/9/2
f 15/10/2 39/11/2 40/12/2
f 30/13/3 9/14/3 32/15/3
f 29/16/3 15/17/3 31/18/3
f 11/19/4 3/20/4 69/21/4
f 15/10/4 71/22/4 7/23/4
f 19/24/5 1/25/5 5/8/5
f 7/23/5 17/26/5 20/27/5
f 22/28/6 1/29/6 24/30/6
f 21/31/6 11/32/6 23/33/6
f 19/34/4 18/35/4 53/36/4
f 18/37/6 20/38/6 44/39/6
f 42/40/5 75/40/5 73/40/5
f 26/41/5 76/41/5 12/41/5
f 60/42/5 77/43/5 78/44/5
f 10/45/5 58/45/5 25/45/5
f 43/46/5 54/46/5 14/46/5
f 20/47/1 17/48/1 79/49/1
f 17/50/2 19/51/2 28/52/2
f 22/53/4 25/54/4 33/55/4
f 62/56/6 78/57/6 81/58/6
f 23/59/5 35/60/5 21/61/5
f 26/62/1 24/63/1 36/64/1
f 22/65/3 28/66/3 27/67/3
f 31/68/4 30/69/4 66/70/4
f 45/71/6 29/72/6 31/73/6
f 32/74/1 29/75/1 86/76/1
f 47/77/3 64/77/3 67/77/3
f 4/78/3 82/78/3 36/78/3
f 46/79/3 84/79/3 8/79/3
f 62/80/3 88/81/3 68/82/3
f 33/83/3 65/83/3 2/83/3
f 30/84/2 32/85/2 34/86/2
f 37/87/4 47/88/4 43/89/4
f 40/90/5 48/91/5 37/92/5
f 46/93/1 40/94/1 42/95/1
f 39/96/3 44/97/3 41/98/3
f 59/99/2 88/100/2 77/101/2
f 52/102/6 54/103/6 64/104/6
f 51/105/5 66/106/5 63/107/5
f 60/108/1 68/109/1 59/110/1
f 52/111/3 53/112/3 56/113/3
f 50/114/2 65/115/2 55/116/2
f 81/117/4 77/118/4 88/119/4
f 75/120/6 71/121/6 84/122/6
f 72/123/5 86/124/5 83/125/5
f 71/126/3 80/127/3 70/128/3
f 69/129/2 76/130/2 85/131/2
f 49/3/1 51/5/1 9/132/1
f 13/1/1 5/133/1 52/2/1
f 49/3/1 9/132/1 13/1/1
f 50/6/1 52/2/1 5/133/1
f 1/4/1 9/132/1 51/5/1
f 50/6/1 5/133/1 1/4/1
f 38/7/2 39/11/2 7/23/2
f 13/9/2 15/10/2 40/12/2
f 13/9/2 40/12/2 37/134/2
f 38/7/2 7/23/2 5/8/2
f 13/9/2 37/134/2 38/7/2
f 15/10/2 7/23/2 39/11/2
f 30/13/3 31/18/3 13/135/3
f 9/14/3 11/136/3 32/15/3
f 30/13/3 13/135/3 9/14/3
f 29/16/3 32/15/3 11/136/3
f 15/17/3 13/135/3 31/18/3
f 29/16/3 11/136/3 15/17/3
f 69/21/4 72/137/4 15/10/4
f 3/20/4 7/23/4 71/22/4
f 3/20/4 71/22/4 70/138/4
f 69/21/4 15/10/4 11/19/4
f 3/20/4 70/138/4 69/21/4
f 15/10/4 72/137/4 71/22/4
f 19/24/5 17/26/5 3/139/5
f 5/8/5 7/23/5 20/27/5
f 5/8/5 20/27/5 18/140/5
f 19/24/5 3/139/5 1/25/5
f 5/8/5 18/140/5 19/24/5
f 7/23/5 3/139/5 17/26/5
f 22/28/6 23/33/6 9/141/6
f 1/29/6 3/142/6 24/30/6
f 22/28/6 9/141/6 1/29/6
f 21/31/6 24/30/6 3/142/6
f 11/32/6 9/141/6 23/33/6
f 21/31/6 3/142/6 11/32/6
f 55/143/4 10/144/4 53/36/4
f 10/144/4 19/34/4 53/36/4
f 18/35/4 14/145/4 56/146/4
f 14/145/4 54/145/4 56/146/4
f 18/35/4 56/146/4 53/36/4
f 43/147/6 14/147/6 44/39/6
f 14/147/7 18/37/7 44/39/7
f 20/38/8 16/148/8 41/149/8
f 16/148/6 42/150/6 41/149/6
f 20/38/6 41/149/6 44/39/6
f 42/40/5 16/40/5 75/40/5
f 26/41/5 74/41/5 76/41/5
f 60/42/5 59/151/5 77/43/5
f 10/45/5 55/45/5 58/45/5
f 43/46/5 57/46/5 54/46/5
f 79/49/1 75/152/1 16/152/1
f 17/48/1 12/153/1 80/154/1
f 12/153/1 76/153/1 80/154/1
f 79/49/1 16/152/1 20/47/1
f 17/48/1 80/154/1 79/49/1
f 28/52/2 26/155/2 12/155/2
f 19/51/9 10/156/9 27/157/9
f 10/156/2 25/156/2 27/157/2
f 28/52/2 12/155/2 17/50/2
f 19/51/2 27/157/2 28/52/2
f 34/158/4 23/159/4 33/55/4
f 23/159/4 22/53/4 33/55/4
f 22/53/4 27/160/4 25/54/4
f 25/54/4 58/54/4 61/55/4
f 25/54/4 61/55/4 33/55/4
f 62/56/6 60/161/6 78/57/6
f 23/59/5 34/162/5 35/60/5
f 82/64/1 74/62/1 26/62/1
f 26/62/1 28/163/1 24/63/1
f 24/63/1 21/164/1 36/64/1
f 21/164/1 35/165/1 36/64/1
f 36/64/1 82/64/1 26/62/1
f 22/65/3 24/166/3 28/66/3
f 64/167/4 6/167/4 66/70/4
f 6/167/4 31/68/4 66/70/4
f 30/69/4 2/168/4 63/169/4
f 2/168/4 65/170/4 63/169/4
f 30/69/4 63/169/4 66/70/4
f 45/71/6 46/171/6 8/171/6
f 31/73/10 6/172/10 48/173/10
f 6/172/6 47/172/6 48/173/6
f 45/71/6 8/171/6 29/72/6
f 31/73/6 48/173/6 45/71/6
f 86/76/1 85/174/1 4/174/1
f 29/75/1 8/175/1 83/176/1
f 8/175/1 84/175/1 83/176/1
f 86/76/1 4/174/1 32/74/1
f 29/75/1 83/176/1 86/76/1
f 47/77/3 6/77/3 64/77/3
f 4/78/3 85/78/3 82/78/3
f 46/79/3 87/79/3 84/79/3
f 62/80/3 81/177/3 88/81/3
f 33/83/3 61/83/3 65/83/3
f 34/86/2 33/178/2 2/178/2
f 32/85/11 4/179/11 35/180/11
f 4/179/2 36/179/2 35/180/2
f 34/86/2 2/178/2 30/84/2
f 32/85/2 35/180/2 34/86/2
f 44/181/4 38/182/4 43/89/4
f 38/182/4 37/87/4 43/89/4
f 37/87/4 48/183/4 47/88/4
f 47/88/4 67/88/4 57/89/4
f 47/88/4 57/89/4 43/89/4
f 40/90/5 45/184/5 48/91/5
f 73/95/1 87/93/1 46/93/1
f 46/93/1 45/185/1 40/94/1
f 40/94/1 39/186/1 42/95/1
f 39/186/1 41/187/1 42/95/1
f 42/95/1 73/95/1 46/93/1
f 39/96/3 38/188/3 44/97/3
f 59/99/2 68/189/2 88/100/2
f 66/190/6 49/191/6 64/104/6
f 49/191/6 52/102/6 64/104/6
f 52/102/6 56/192/6 54/103/6
f 54/103/6 57/103/6 67/104/6
f 54/103/6 67/104/6 64/104/6
f 51/105/5 49/193/5 66/106/5
f 60/108/1 62/194/1 68/109/1
f 52/111/3 50/195/3 53/112/3
f 55/116/2 53/196/2 50/114/2
f 50/114/2 51/197/2 65/115/2
f 51/197/2 63/198/2 65/115/2
f 65/115/2 61/115/2 58/116/2
f 65/115/2 58/116/2 55/116/2
f 81/117/4 78/199/4 77/118/4
f 75/120/6 79/200/6 71/121/6
f 71/121/6 72/201/6 84/122/6
f 72/201/6 83/202/6 84/122/6
f 84/122/6 87/203/6 73/204/6
f 84/122/6 73/204/6 75/120/6
f 72/123/5 69/205/5 86/124/5
f 71/126/3 79/206/3 80/127/3
f 85/131/2 86/207/2 69/129/2
f 69/129/2 70/208/2 76/130/2
f 70/208/2 80/209/2 76/130/2
f 76/130/2 74/210/2 82/131/2
f 76/130/2 82/131/2 85/131/2
f 90/211/3 91/212/3 89/213/3
f 92/214/6 95/215/6 91/216/6
f 96/217/5 93/218/5 95/219/5
f 94/220/2 89/221/2 93/222/2
f 95/223/4 89/224/4 91/225/4
f 92/226/1 94/227/1 96/228/1
f 98/229/12 99/230/12 97/231/12
f 100/232/13 101/233/13 102/234/13
f 102/235/4 97/231/4 99/230/4
f 102/236/6 99/237/6 100/238/6
f 97/239/2 101/240/2 98/241/2
f 104/242/3 105/243/3 103/244/3
f 106/245/6 109/246/6 105/247/6
f 110/248/5 107/249/5 109/250/5
f 108/251/2 103/252/2 107/253/2
f 109/254/4 103/255/4 105/256/4
f 106/257/1 108/258/1 110/259/1
f 112/260/12 113/261/12 111/262/12
f 114/263/13 115/264/13 116/265/13
f 116/266/4 111/262/4 113/261/4
f 116/267/6 113/268/6 114/269/6
f 111/270/2 115/271/2 112/272/2
f 118/273/2 119/274/2 117/275/2
f 120/276/3 123/277/3 119/278/3
f 124/279/6 121/280/6 123/281/6
f 122/282/5 117/283/5 121/284/5
f 123/285/4 117/286/4 119/287/4
f 120/288/1 122/289/1 124/290/1
f 126/291/14 127/292/14 125/293/14
f 128/294/15 129/295/15 130/296/15
f 130/297/4 125/298/4 127/299/4
f 130/300/3 127/301/3 128/302/3
f 125/303/5 129/304/5 126/305/5
f 132/306/2 133/307/2 131/308/2
f 134/309/3 137/310/3 133/311/3
f 138/312/6 135/313/6 137/314/6
f 136/315/5 131/316/5 135/317/5
f 137/318/4 131/319/4 133/320/4
f 134/321/1 136/322/1 138/323/1
f 140/324/14 141/325/14 139/326/14
f 142/327/15 143/328/15 144/329/15
f 144/330/4 139/331/4 141/332/4
f 144/333/3 141/334/3 142/335/3
f 139/336/5 143/337/5 140/338/5
f 90/211/3 92/339/3 91/212/3
f 92/214/6 96/340/6 95/215/6
f 96/217/5 94/341/5 93/218/5
f 94/220/2 90/342/2 89/221/2
f 95/223/4 93/343/4 89/224/4
f 92/226/1 90/344/1 94/227/1
f 98/229/12 100/232/12 99/230/12
f 100/232/13 98/229/13 101/233/13
f 102/235/4 101/345/4 97/231/4
f 104/242/3 106/346/3 105/243/3
f 106/245/6 110/347/6 109/246/6
f 110/248/5 108/348/5 107/249/5
f 108/251/2 104/349/2 103/252/2
f 109/254/4 107/350/4 103/255/4
f 106/257/1 104/351/1 108/258/1
f 112/260/12 114/263/12 113/261/12
f 114/263/13 112/260/13 115/264/13
f 116/266/4 115/352/4 111/262/4
f 118/273/2 120/353/2 119/274/2
f 120/276/3 124/354/3 123/277/3
f 124/279/6 122/355/6 121/280/6
f 122/282/5 118/356/5 117/283/5
f 123/285/4 121/357/4 117/286/4
f 120/288/1 118/358/1 122/289/1
f 126/291/14 128/294/14 127/292/14
f 128/294/15 126/291/15 129/295/15
f 130/297/4 129/359/4 125/298/4
f 132/306/2 134/360/2 133/307/2
f 134/309/3 138/361/3 137/310/3
f 138/312/6 136/362/6 135/313/6
f 136/315/5 132/363/5 131/316/5
f 137/318/4 135/364/4 131/319/4
f 134/321/1 132/365/1 136/322/1
f 140/324/14 142/327/14 141/325/14
f 142/327/15 140/324/15 143/328/15
f 144/330/4 143/366/4 139/331/4
