# Blender 4.1.1
# www.blender.org
mtllib L.mtl
o 球.001
v 0.000000 0.159518 1.532732
v 0.000000 0.121390 1.653359
v 0.000000 0.071574 1.718642
v 0.000000 0.044613 1.727043
v -0.016640 0.180153 1.373486
v -0.032641 0.172289 1.453929
v -0.047388 0.159518 1.528065
v -0.060314 0.142332 1.593046
v -0.070921 0.121390 1.646374
v -0.078803 0.097498 1.686001
v -0.083657 0.071574 1.710403
v -0.085296 0.044613 1.718642
v -0.032641 0.180153 1.368632
v -0.064029 0.172289 1.444408
v -0.092955 0.159518 1.514242
v -0.118309 0.142332 1.575453
v -0.139117 0.121390 1.625687
v -0.154579 0.097498 1.663015
v -0.164100 0.071574 1.686001
v -0.167315 0.044613 1.693762
v -0.047388 0.180153 1.360750
v -0.092955 0.172289 1.428946
v -0.134950 0.159518 1.491796
v -0.171758 0.142332 1.546884
v -0.201967 0.121390 1.592093
v -0.224413 0.097498 1.625687
v -0.238236 0.071574 1.646374
v -0.242903 0.044613 1.653359
v -0.060314 0.180153 1.350143
v -0.118309 0.172289 1.408138
v -0.171758 0.159518 1.461587
v -0.218607 0.142332 1.508436
v -0.257055 0.121390 1.546884
v -0.285624 0.097498 1.575453
v -0.303217 0.071574 1.593046
v -0.309157 0.044613 1.598986
v -0.070921 0.180153 1.337217
v -0.139117 0.172289 1.382784
v -0.201967 0.159518 1.424779
v -0.257055 0.142332 1.461587
v -0.302264 0.121390 1.491796
v -0.335858 0.097498 1.514242
v -0.356545 0.071574 1.528065
v -0.363530 0.044613 1.532732
v 0.000000 0.182808 1.289829
v -0.078803 0.180153 1.322470
v -0.154579 0.172289 1.353858
v -0.224413 0.159518 1.382784
v -0.285624 0.142332 1.408138
v -0.335858 0.121390 1.428946
v -0.373186 0.097498 1.444408
v -0.396172 0.071574 1.453929
v -0.403933 0.044613 1.457144
v -0.083657 0.180153 1.306469
v -0.164100 0.172289 1.322470
v -0.238236 0.159518 1.337217
v -0.303217 0.142332 1.350143
v -0.356545 0.121390 1.360750
v -0.396172 0.097498 1.368632
v -0.420574 0.071574 1.373486
v -0.428813 0.044613 1.375125
v -0.085296 0.180153 1.289829
v -0.167315 0.172289 1.289829
v -0.242903 0.159518 1.289829
v -0.309157 0.142332 1.289829
v -0.363530 0.121390 1.289829
v -0.403933 0.097498 1.289829
v -0.428813 0.071574 1.289829
v -0.437214 0.044613 1.289829
v -0.083657 0.180153 1.273189
v -0.164100 0.172289 1.257188
v -0.238236 0.159518 1.242441
v -0.303217 0.142332 1.229515
v -0.356545 0.121390 1.218908
v -0.396172 0.097498 1.211026
v -0.420574 0.071574 1.206172
v -0.428813 0.044613 1.204533
v -0.078803 0.180153 1.257188
v -0.154579 0.172289 1.225801
v -0.224413 0.159518 1.196874
v -0.285624 0.142332 1.171520
v -0.335858 0.121390 1.150712
v -0.373186 0.097498 1.135251
v -0.396172 0.071574 1.125729
v -0.403933 0.044613 1.122514
v -0.070921 0.180153 1.242441
v -0.139117 0.172289 1.196874
v -0.201967 0.159518 1.154879
v -0.257055 0.142332 1.118071
v -0.302264 0.121390 1.087862
v -0.335858 0.097498 1.065416
v -0.356545 0.071574 1.051593
v -0.363530 0.044613 1.046926
v -0.060314 0.180153 1.229515
v -0.118309 0.172289 1.171520
v -0.171758 0.159518 1.118071
v -0.218607 0.142332 1.071222
v -0.257055 0.121390 1.032774
v -0.285624 0.097498 1.004205
v -0.303217 0.071574 0.986612
v -0.309157 0.044613 0.980672
v -0.047388 0.180153 1.218908
v -0.092955 0.172289 1.150712
v -0.134950 0.159518 1.087862
v -0.171758 0.142332 1.032774
v -0.201966 0.121390 0.987565
v -0.224413 0.097498 0.953971
v -0.238236 0.071574 0.933284
v -0.242903 0.044613 0.926299
v -0.032641 0.180153 1.211026
v -0.064028 0.172289 1.135251
v -0.092955 0.159518 1.065416
v -0.118309 0.142332 1.004205
v -0.139117 0.121390 0.953971
v -0.154579 0.097498 0.916644
v -0.164100 0.071574 0.893657
v -0.167314 0.044613 0.885896
v -0.016640 0.180153 1.206172
v -0.032641 0.172289 1.125729
v -0.047388 0.159518 1.051593
v -0.060314 0.142332 0.986612
v -0.070921 0.121390 0.933284
v -0.078803 0.097498 0.893657
v -0.083657 0.071574 0.869255
v -0.085296 0.044613 0.861016
v 0.000000 0.180153 1.204533
v 0.000000 0.172289 1.122514
v 0.000000 0.159518 1.046926
v 0.000000 0.142332 0.980672
v 0.000000 0.121390 0.926299
v 0.000000 0.097498 0.885896
v 0.000000 0.071574 0.861016
v 0.000000 0.044613 0.852615
v 0.016640 0.180153 1.206172
v 0.032641 0.172289 1.125729
v 0.047388 0.159518 1.051593
v 0.060314 0.142332 0.986612
v 0.070921 0.121390 0.933284
v 0.078803 0.097498 0.893657
v 0.083657 0.071574 0.869256
v 0.085296 0.044613 0.861016
v 0.032641 0.180153 1.211026
v 0.064029 0.172289 1.135251
v 0.092955 0.159518 1.065416
v 0.118309 0.142332 1.004205
v 0.139117 0.121390 0.953971
v 0.154578 0.097498 0.916644
v 0.164100 0.071574 0.893657
v 0.167315 0.044613 0.885896
v 0.047388 0.180153 1.218908
v 0.092955 0.172289 1.150712
v 0.134950 0.159518 1.087863
v 0.171758 0.142332 1.032774
v 0.201967 0.121390 0.987565
v 0.224413 0.097498 0.953971
v 0.238236 0.071574 0.933284
v 0.242903 0.044613 0.926299
v 0.060314 0.180153 1.229516
v 0.118309 0.172289 1.171520
v 0.171758 0.159518 1.118071
v 0.218607 0.142332 1.071222
v 0.257055 0.121390 1.032774
v 0.285624 0.097498 1.004205
v 0.303217 0.071574 0.986612
v 0.309157 0.044613 0.980672
v 0.070921 0.180153 1.242441
v 0.139117 0.172289 1.196874
v 0.201966 0.159518 1.154879
v 0.257055 0.142332 1.118071
v 0.302264 0.121390 1.087863
v 0.335858 0.097498 1.065416
v 0.356545 0.071574 1.051593
v 0.363530 0.044613 1.046926
v 0.078803 0.180153 1.257188
v 0.154578 0.172289 1.225801
v 0.224413 0.159518 1.196874
v 0.285624 0.142332 1.171520
v 0.335858 0.121390 1.150712
v 0.373185 0.097498 1.135251
v 0.396172 0.071574 1.125729
v 0.403933 0.044613 1.122515
v 0.083657 0.180153 1.273189
v 0.164100 0.172289 1.257188
v 0.238236 0.159518 1.242441
v 0.303217 0.142332 1.229515
v 0.356545 0.121390 1.218908
v 0.396172 0.097498 1.211026
v 0.420574 0.071574 1.206172
v 0.428813 0.044613 1.204533
v 0.085296 0.180153 1.289829
v 0.167315 0.172289 1.289829
v 0.242903 0.159518 1.289829
v 0.309157 0.142332 1.289829
v 0.363530 0.121390 1.289829
v 0.403933 0.097498 1.289829
v 0.428813 0.071574 1.289829
v 0.437214 0.044613 1.289829
v 0.083657 0.180153 1.306469
v 0.164100 0.172289 1.322470
v 0.238236 0.159518 1.337217
v 0.303217 0.142332 1.350143
v 0.356545 0.121390 1.360750
v 0.396172 0.097498 1.368632
v 0.420573 0.071574 1.373486
v 0.428813 0.044613 1.375125
v 0.078803 0.180153 1.322470
v 0.154578 0.172289 1.353858
v 0.224413 0.159518 1.382784
v 0.285624 0.142332 1.408138
v 0.335858 0.121390 1.428946
v 0.373185 0.097498 1.444407
v 0.396171 0.071574 1.453929
v 0.403933 0.044613 1.457144
v 0.070921 0.180153 1.337217
v 0.139117 0.172289 1.382784
v 0.201966 0.159518 1.424779
v 0.257055 0.142332 1.461587
v 0.302264 0.121390 1.491796
v 0.335858 0.097498 1.514242
v 0.356545 0.071574 1.528065
v 0.363530 0.044613 1.532732
v 0.060313 0.180153 1.350142
v 0.118309 0.172289 1.408138
v 0.171758 0.159518 1.461587
v 0.218607 0.142332 1.508436
v 0.257054 0.121390 1.546884
v 0.285624 0.097498 1.575453
v 0.303216 0.071574 1.593046
v 0.309157 0.044613 1.598986
v 0.047388 0.180153 1.360750
v 0.092955 0.172289 1.428946
v 0.134950 0.159518 1.491795
v 0.171758 0.142332 1.546884
v 0.201966 0.121390 1.592093
v 0.224413 0.097498 1.625687
v 0.238236 0.071574 1.646374
v 0.242903 0.044613 1.653359
v 0.032641 0.180153 1.368632
v 0.064028 0.172289 1.444407
v 0.092955 0.159518 1.514242
v 0.118309 0.142332 1.575453
v 0.139117 0.121390 1.625687
v 0.154578 0.097498 1.663014
v 0.164099 0.071574 1.686001
v 0.167314 0.044613 1.693762
v 0.016640 0.180153 1.373486
v 0.032641 0.172289 1.453929
v 0.047388 0.159518 1.528065
v 0.060314 0.142332 1.593046
v 0.070921 0.121390 1.646374
v 0.078803 0.097498 1.686001
v 0.083657 0.071574 1.710402
v 0.085296 0.044613 1.718642
v 0.000000 0.180153 1.375125
v 0.000000 0.172289 1.457144
v 0.000000 0.142332 1.598986
v 0.000000 0.097498 1.693762
v 0.130221 0.228898 1.110458
v 0.130221 0.228898 1.486998
v 0.013869 0.228898 1.486998
v 0.013869 0.228898 1.203180
v -0.167723 0.228898 1.203180
v -0.167723 0.228898 1.110458
v 0.130221 0.129343 1.110458
v 0.130221 0.129343 1.486998
v 0.013869 0.129343 1.486998
v 0.013869 0.129343 1.203180
v -0.167723 0.129343 1.203180
v -0.167723 0.129343 1.110458
v 0.130221 0.129343 1.110458
v 0.130221 0.228898 1.110458
v 0.130221 0.129343 1.486998
v 0.130221 0.228898 1.486998
v 0.013869 0.129343 1.486998
v 0.013869 0.228898 1.486998
v 0.013869 0.129343 1.203180
v 0.013869 0.228898 1.203180
v -0.167723 0.129343 1.203180
v -0.167723 0.228898 1.203180
v -0.167723 0.129343 1.110458
v -0.167723 0.228898 1.110458
vn -0.0000 0.9979 0.0653
vn -0.0000 1.0000 -0.0000
vn -0.0127 0.9979 0.0641
vn -0.0000 0.9911 0.1333
vn -0.0260 0.9911 0.1307
vn -0.0000 0.9774 0.2116
vn -0.0413 0.9774 0.2075
vn -0.0000 0.9511 0.3090
vn -0.0603 0.9511 0.3030
vn -0.0858 0.8980 0.4314
vn -0.0000 0.8980 0.4399
vn -0.0000 0.7797 0.6261
vn -0.1221 0.7797 0.6141
vn -0.1687 0.5023 0.8481
vn -0.0000 0.5024 0.8647
vn -0.1603 -0.5698 0.8060
vn -0.0000 -0.5698 0.8218
vn -0.3145 -0.5698 0.7592
vn -0.0250 0.9979 0.0603
vn -0.0510 0.9911 0.1232
vn -0.0810 0.9774 0.1955
vn -0.1182 0.9511 0.2854
vn -0.1683 0.8980 0.4064
vn -0.2396 0.7797 0.5785
vn -0.3309 0.5023 0.7989
vn -0.1716 0.9511 0.2569
vn -0.2444 0.8980 0.3658
vn -0.3479 0.7797 0.5206
vn -0.4804 0.5023 0.7189
vn -0.4566 -0.5698 0.6833
vn -0.0363 0.9979 0.0543
vn -0.0741 0.9911 0.1108
vn -0.1176 0.9774 0.1760
vn -0.6114 0.5023 0.6114
vn -0.5811 -0.5698 0.5811
vn -0.0462 0.9979 0.0462
vn -0.0943 0.9911 0.0943
vn -0.1496 0.9774 0.1496
vn -0.2185 0.9511 0.2185
vn -0.3111 0.8980 0.3111
vn -0.4427 0.7797 0.4427
vn -0.3658 0.8980 0.2444
vn -0.5206 0.7797 0.3479
vn -0.7189 0.5023 0.4804
vn -0.6833 -0.5698 0.4566
vn -0.0543 0.9979 0.0363
vn -0.1108 0.9911 0.0741
vn -0.1760 0.9774 0.1176
vn -0.2569 0.9511 0.1716
vn -0.0603 0.9979 0.0250
vn -0.1232 0.9911 0.0510
vn -0.1955 0.9774 0.0810
vn -0.2854 0.9511 0.1182
vn -0.4064 0.8980 0.1683
vn -0.5785 0.7797 0.2396
vn -0.7989 0.5023 0.3309
vn -0.7592 -0.5698 0.3145
vn -0.3030 0.9511 0.0603
vn -0.4314 0.8980 0.0858
vn -0.6141 0.7797 0.1221
vn -0.8481 0.5023 0.1687
vn -0.8060 -0.5698 0.1603
vn -0.0641 0.9979 0.0127
vn -0.1307 0.9911 0.0260
vn -0.2075 0.9774 0.0413
vn -0.1333 0.9911 -0.0000
vn -0.2116 0.9774 -0.0000
vn -0.3090 0.9511 -0.0000
vn -0.4399 0.8980 -0.0000
vn -0.6261 0.7797 -0.0000
vn -0.8647 0.5023 -0.0000
vn -0.8218 -0.5698 -0.0000
vn -0.0653 0.9979 -0.0000
vn -0.6141 0.7797 -0.1221
vn -0.8481 0.5023 -0.1687
vn -0.8060 -0.5698 -0.1603
vn -0.0641 0.9979 -0.0127
vn -0.1307 0.9911 -0.0260
vn -0.2075 0.9774 -0.0413
vn -0.3030 0.9511 -0.0603
vn -0.4314 0.8980 -0.0858
vn -0.1232 0.9911 -0.0510
vn -0.1955 0.9774 -0.0810
vn -0.2854 0.9511 -0.1182
vn -0.4064 0.8980 -0.1683
vn -0.5785 0.7797 -0.2396
vn -0.7989 0.5023 -0.3309
vn -0.7592 -0.5698 -0.3145
vn -0.0603 0.9979 -0.0250
vn -0.5206 0.7797 -0.3479
vn -0.7189 0.5023 -0.4804
vn -0.6833 -0.5698 -0.4566
vn -0.0543 0.9979 -0.0363
vn -0.1108 0.9911 -0.0741
vn -0.1760 0.9774 -0.1176
vn -0.2569 0.9511 -0.1716
vn -0.3658 0.8980 -0.2444
vn -0.1496 0.9774 -0.1496
vn -0.2185 0.9511 -0.2185
vn -0.3111 0.8980 -0.3111
vn -0.4427 0.7797 -0.4427
vn -0.6114 0.5023 -0.6114
vn -0.5811 -0.5698 -0.5811
vn -0.0462 0.9979 -0.0462
vn -0.0943 0.9911 -0.0943
vn -0.3479 0.7797 -0.5206
vn -0.4804 0.5023 -0.7189
vn -0.4566 -0.5698 -0.6833
vn -0.0363 0.9979 -0.0543
vn -0.0741 0.9911 -0.1108
vn -0.1176 0.9774 -0.1759
vn -0.1717 0.9511 -0.2569
vn -0.2444 0.8980 -0.3658
vn -0.1182 0.9511 -0.2854
vn -0.1683 0.8980 -0.4064
vn -0.2396 0.7797 -0.5785
vn -0.3309 0.5023 -0.7989
vn -0.3145 -0.5698 -0.7592
vn -0.0250 0.9979 -0.0603
vn -0.0510 0.9911 -0.1232
vn -0.0810 0.9774 -0.1955
vn -0.1687 0.5023 -0.8481
vn -0.1603 -0.5698 -0.8060
vn -0.0127 0.9979 -0.0641
vn -0.0260 0.9911 -0.1307
vn -0.0413 0.9774 -0.2075
vn -0.0603 0.9511 -0.3030
vn -0.0858 0.8980 -0.4315
vn -0.1221 0.7797 -0.6141
vn -0.0000 0.9511 -0.3090
vn -0.0000 0.8980 -0.4399
vn -0.0000 0.7797 -0.6261
vn -0.0000 0.5023 -0.8647
vn -0.0000 -0.5698 -0.8218
vn -0.0000 0.9979 -0.0653
vn -0.0000 0.9911 -0.1333
vn -0.0000 0.9774 -0.2116
vn 0.1687 0.5023 -0.8481
vn 0.1603 -0.5698 -0.8060
vn 0.0127 0.9979 -0.0641
vn 0.0260 0.9911 -0.1307
vn 0.0413 0.9774 -0.2075
vn 0.0603 0.9511 -0.3030
vn 0.0858 0.8980 -0.4315
vn 0.1222 0.7797 -0.6141
vn 0.1182 0.9511 -0.2854
vn 0.1683 0.8980 -0.4064
vn 0.2396 0.7797 -0.5785
vn 0.3309 0.5023 -0.7988
vn 0.3145 -0.5698 -0.7592
vn 0.0250 0.9979 -0.0603
vn 0.0510 0.9911 -0.1232
vn 0.0810 0.9774 -0.1955
vn 0.0363 0.9979 -0.0543
vn 0.0741 0.9911 -0.1108
vn 0.1176 0.9774 -0.1759
vn 0.1716 0.9511 -0.2569
vn 0.2444 0.8980 -0.3658
vn 0.3479 0.7797 -0.5206
vn 0.4804 0.5023 -0.7189
vn 0.4566 -0.5698 -0.6833
vn 0.4427 0.7797 -0.4427
vn 0.6114 0.5023 -0.6114
vn 0.5811 -0.5698 -0.5811
vn 0.0462 0.9979 -0.0462
vn 0.0943 0.9911 -0.0943
vn 0.1496 0.9774 -0.1496
vn 0.2185 0.9511 -0.2185
vn 0.3111 0.8980 -0.3111
vn 0.1108 0.9911 -0.0741
vn 0.1759 0.9774 -0.1176
vn 0.2569 0.9511 -0.1716
vn 0.3658 0.8980 -0.2444
vn 0.5206 0.7797 -0.3478
vn 0.7189 0.5023 -0.4804
vn 0.6833 -0.5698 -0.4566
vn 0.0543 0.9979 -0.0363
vn 0.5785 0.7797 -0.2396
vn 0.7988 0.5023 -0.3309
vn 0.7592 -0.5698 -0.3145
vn 0.0603 0.9979 -0.0250
vn 0.1232 0.9911 -0.0510
vn 0.1955 0.9774 -0.0810
vn 0.2854 0.9511 -0.1182
vn 0.4064 0.8980 -0.1683
vn 0.1307 0.9911 -0.0260
vn 0.2075 0.9774 -0.0413
vn 0.3030 0.9511 -0.0603
vn 0.4315 0.8980 -0.0858
vn 0.6141 0.7797 -0.1221
vn 0.8481 0.5023 -0.1687
vn 0.8060 -0.5697 -0.1603
vn 0.0641 0.9979 -0.0127
vn 0.6261 0.7797 -0.0000
vn 0.8647 0.5023 -0.0000
vn 0.8218 -0.5698 -0.0000
vn 0.0653 0.9979 -0.0000
vn 0.1333 0.9911 -0.0000
vn 0.2116 0.9774 -0.0000
vn 0.3090 0.9511 -0.0000
vn 0.4399 0.8980 -0.0000
vn 0.1307 0.9911 0.0260
vn 0.2075 0.9774 0.0413
vn 0.3030 0.9511 0.0603
vn 0.4315 0.8980 0.0858
vn 0.6141 0.7797 0.1222
vn 0.8481 0.5023 0.1687
vn 0.8060 -0.5698 0.1603
vn 0.0641 0.9979 0.0127
vn 0.5785 0.7797 0.2396
vn 0.7988 0.5024 0.3309
vn 0.7592 -0.5698 0.3145
vn 0.0603 0.9979 0.0250
vn 0.1232 0.9911 0.0510
vn 0.1955 0.9774 0.0810
vn 0.2854 0.9511 0.1182
vn 0.4064 0.8980 0.1683
vn 0.2569 0.9511 0.1716
vn 0.3658 0.8980 0.2444
vn 0.5206 0.7797 0.3479
vn 0.7189 0.5023 0.4804
vn 0.6833 -0.5698 0.4566
vn 0.0543 0.9979 0.0363
vn 0.1108 0.9911 0.0741
vn 0.1759 0.9774 0.1176
vn 0.6114 0.5023 0.6114
vn 0.5811 -0.5698 0.5811
vn 0.0462 0.9979 0.0462
vn 0.0943 0.9911 0.0943
vn 0.1496 0.9774 0.1496
vn 0.2185 0.9511 0.2185
vn 0.3111 0.8980 0.3111
vn 0.4427 0.7797 0.4427
vn 0.1717 0.9511 0.2569
vn 0.2444 0.8980 0.3658
vn 0.3479 0.7797 0.5206
vn 0.4804 0.5023 0.7189
vn 0.4566 -0.5698 0.6833
vn 0.0363 0.9979 0.0543
vn 0.0741 0.9911 0.1108
vn 0.1176 0.9774 0.1760
vn 0.0250 0.9979 0.0603
vn 0.0510 0.9911 0.1232
vn 0.0810 0.9774 0.1955
vn 0.1182 0.9511 0.2854
vn 0.1683 0.8980 0.4064
vn 0.2396 0.7797 0.5785
vn 0.3309 0.5023 0.7989
vn 0.3145 -0.5698 0.7592
vn 0.0603 0.9511 0.3030
vn 0.0858 0.8980 0.4315
vn 0.1221 0.7797 0.6141
vn 0.1687 0.5023 0.8481
vn 0.1603 -0.5698 0.8060
vn 0.0127 0.9979 0.0641
vn 0.0260 0.9911 0.1307
vn 0.0413 0.9774 0.2075
vn -0.0000 -1.0000 -0.0000
vn 0.7071 -0.0000 0.7071
vn 0.7071 -0.0000 -0.7071
vn -0.7071 -0.0000 0.7071
vn -0.7071 -0.0000 -0.7071
vt 0.404560 0.237884
vt 0.460118 0.251774
vt 0.404560 0.265664
vt 0.349001 0.237885
vt 0.349001 0.265664
vt 0.293443 0.237884
vt 0.293443 0.265664
vt 0.237884 0.237884
vt 0.237884 0.265664
vt 0.182326 0.265664
vt 0.182326 0.237884
vt 0.126768 0.237884
vt 0.126768 0.265664
vt 0.071209 0.265664
vt 0.071209 0.237884
vt 0.015650 0.265664
vt 0.015650 0.237884
vt 0.015650 0.293443
vt 0.460118 0.279553
vt 0.404560 0.293443
vt 0.349001 0.293443
vt 0.293443 0.293443
vt 0.237884 0.293443
vt 0.182326 0.293443
vt 0.126767 0.293443
vt 0.071209 0.293443
vt 0.237884 0.321222
vt 0.182326 0.321222
vt 0.126768 0.321222
vt 0.071209 0.321222
vt 0.015650 0.321222
vt 0.460118 0.307333
vt 0.404560 0.321222
vt 0.349001 0.321222
vt 0.293443 0.321222
vt 0.071209 0.349001
vt 0.015650 0.349001
vt 0.460118 0.335112
vt 0.404560 0.349001
vt 0.349001 0.349001
vt 0.293443 0.349001
vt 0.237884 0.349001
vt 0.182326 0.349001
vt 0.126768 0.349001
vt 0.182326 0.376781
vt 0.126768 0.376781
vt 0.071209 0.376781
vt 0.015650 0.376781
vt 0.460118 0.362891
vt 0.404560 0.376781
vt 0.349001 0.376781
vt 0.293443 0.376781
vt 0.237884 0.376781
vt 0.460118 0.390670
vt 0.404560 0.404560
vt 0.349001 0.404560
vt 0.293443 0.404560
vt 0.237884 0.404560
vt 0.182326 0.404560
vt 0.126768 0.404560
vt 0.071209 0.404560
vt 0.015650 0.404560
vt 0.237884 0.432339
vt 0.182326 0.432339
vt 0.126768 0.432339
vt 0.071209 0.432339
vt 0.015650 0.432339
vt 0.460118 0.418450
vt 0.404560 0.432339
vt 0.349001 0.432339
vt 0.293443 0.432339
vt 0.349001 0.460118
vt 0.293443 0.460118
vt 0.237884 0.460118
vt 0.182326 0.460118
vt 0.126768 0.460118
vt 0.071209 0.460118
vt 0.015650 0.460118
vt 0.460118 0.446229
vt 0.404560 0.460118
vt 0.126768 0.487898
vt 0.071209 0.487898
vt 0.015650 0.487898
vt 0.460118 0.474008
vt 0.404560 0.487898
vt 0.349001 0.487898
vt 0.293443 0.487898
vt 0.237884 0.487898
vt 0.182326 0.487898
vt 0.349001 0.515677
vt 0.293443 0.515677
vt 0.237884 0.515677
vt 0.182326 0.515677
vt 0.126768 0.515677
vt 0.071209 0.515677
vt 0.015650 0.515677
vt 0.460118 0.501787
vt 0.404560 0.515677
vt 0.126768 0.543456
vt 0.071209 0.543456
vt 0.015650 0.543456
vt 0.460118 0.529567
vt 0.404560 0.543456
vt 0.349001 0.543456
vt 0.293443 0.543456
vt 0.237884 0.543456
vt 0.182326 0.543456
vt 0.293443 0.571235
vt 0.237884 0.571235
vt 0.182326 0.571235
vt 0.126768 0.571235
vt 0.071209 0.571235
vt 0.015650 0.571235
vt 0.460118 0.557346
vt 0.404560 0.571235
vt 0.349001 0.571235
vt 0.126768 0.599015
vt 0.071209 0.599015
vt 0.015650 0.599015
vt 0.460118 0.585125
vt 0.404560 0.599015
vt 0.349001 0.599015
vt 0.293443 0.599015
vt 0.237884 0.599015
vt 0.182326 0.599015
vt 0.237884 0.626794
vt 0.182326 0.626794
vt 0.126768 0.626794
vt 0.071209 0.626794
vt 0.015650 0.626794
vt 0.460118 0.612904
vt 0.404560 0.626794
vt 0.349001 0.626794
vt 0.293443 0.626794
vt 0.071209 0.654573
vt 0.015650 0.654573
vt 0.460118 0.640683
vt 0.404560 0.654573
vt 0.349001 0.654573
vt 0.293443 0.654573
vt 0.237884 0.654573
vt 0.182326 0.654573
vt 0.126768 0.654573
vt 0.237884 0.682352
vt 0.182326 0.682352
vt 0.126768 0.682352
vt 0.071209 0.682352
vt 0.015650 0.682352
vt 0.460118 0.668463
vt 0.404560 0.682352
vt 0.349001 0.682352
vt 0.293443 0.682352
vt 0.071209 0.710132
vt 0.015650 0.710132
vt 0.460118 0.696242
vt 0.404560 0.710132
vt 0.349001 0.710132
vt 0.293443 0.710132
vt 0.237884 0.710132
vt 0.182326 0.710132
vt 0.126768 0.710132
vt 0.237884 0.737911
vt 0.182326 0.737911
vt 0.126768 0.737911
vt 0.071209 0.737911
vt 0.015650 0.737911
vt 0.460118 0.724021
vt 0.404560 0.737911
vt 0.349001 0.737911
vt 0.293443 0.737911
vt 0.404560 0.765690
vt 0.349001 0.765690
vt 0.293443 0.765690
vt 0.237885 0.765690
vt 0.182326 0.765690
vt 0.126768 0.765690
vt 0.071209 0.765690
vt 0.015650 0.765690
vt 0.460118 0.751800
vt 0.126768 0.793469
vt 0.071209 0.793469
vt 0.015650 0.793469
vt 0.460118 0.779580
vt 0.404560 0.793469
vt 0.349001 0.793469
vt 0.293443 0.793469
vt 0.237885 0.793469
vt 0.182326 0.793469
vt 0.349001 0.821249
vt 0.293443 0.821249
vt 0.237885 0.821249
vt 0.182326 0.821249
vt 0.126768 0.821249
vt 0.071209 0.821249
vt 0.015650 0.821249
vt 0.460118 0.807359
vt 0.404560 0.821249
vt 0.126768 0.849028
vt 0.071209 0.849028
vt 0.015650 0.849028
vt 0.460118 0.835138
vt 0.404560 0.849028
vt 0.349001 0.849028
vt 0.293443 0.849028
vt 0.237885 0.849028
vt 0.182326 0.849028
vt 0.349001 0.876807
vt 0.293443 0.876807
vt 0.237885 0.876807
vt 0.182326 0.876807
vt 0.126768 0.876807
vt 0.071209 0.876807
vt 0.015651 0.876807
vt 0.460118 0.862917
vt 0.404560 0.876807
vt 0.126768 0.904586
vt 0.071209 0.904586
vt 0.015651 0.904586
vt 0.460118 0.890697
vt 0.404560 0.904586
vt 0.349001 0.904586
vt 0.293443 0.904586
vt 0.237885 0.904586
vt 0.182326 0.904586
vt 0.293443 0.015651
vt 0.349001 0.043430
vt 0.293443 0.043430
vt 0.237884 0.043430
vt 0.237884 0.015651
vt 0.182326 0.015651
vt 0.182326 0.043430
vt 0.126768 0.043430
vt 0.126768 0.015651
vt 0.071209 0.015651
vt 0.071209 0.043430
vt 0.015650 0.015651
vt 0.015650 0.043430
vt 0.404560 0.015650
vt 0.460118 0.029540
vt 0.404560 0.043430
vt 0.349001 0.015650
vt 0.126768 0.071209
vt 0.071209 0.071209
vt 0.015650 0.071209
vt 0.460118 0.057319
vt 0.404560 0.071209
vt 0.349001 0.071209
vt 0.293443 0.071209
vt 0.237884 0.071209
vt 0.182326 0.071209
vt 0.237884 0.098988
vt 0.182326 0.098988
vt 0.126768 0.098988
vt 0.071209 0.098988
vt 0.015650 0.098988
vt 0.460118 0.085099
vt 0.404560 0.098988
vt 0.349001 0.098988
vt 0.293443 0.098988
vt 0.071209 0.126768
vt 0.015650 0.126768
vt 0.460118 0.112878
vt 0.404560 0.126767
vt 0.349001 0.126767
vt 0.293443 0.126768
vt 0.237884 0.126767
vt 0.182326 0.126768
vt 0.126768 0.126767
vt 0.237884 0.154547
vt 0.182326 0.154547
vt 0.126768 0.154547
vt 0.071209 0.154547
vt 0.015650 0.154547
vt 0.460118 0.140657
vt 0.404560 0.154547
vt 0.349001 0.154547
vt 0.293443 0.154547
vt 0.460118 0.168436
vt 0.404560 0.182326
vt 0.349001 0.182326
vt 0.293443 0.182326
vt 0.237884 0.182326
vt 0.182326 0.182326
vt 0.126768 0.182326
vt 0.071209 0.182326
vt 0.015650 0.182326
vt 0.237884 0.210105
vt 0.182326 0.210105
vt 0.126768 0.210105
vt 0.071209 0.210105
vt 0.015650 0.210105
vt 0.460118 0.196216
vt 0.404560 0.210105
vt 0.349001 0.210105
vt 0.293443 0.210105
vt 0.460118 0.223995
vt 0.722234 0.892705
vt 0.632097 0.601003
vt 0.722234 0.601003
vt 0.632097 0.820874
vt 0.491419 0.820874
vt 0.491420 0.892705
vt 0.984349 0.601003
vt 0.984349 0.892705
vt 0.894212 0.892705
vt 0.894212 0.672834
vt 0.753535 0.672834
vt 0.753535 0.601003
vt 0.607767 0.015651
vt 0.586645 0.321422
vt 0.491419 0.347924
vt 0.806052 0.049822
vt 0.662714 0.130096
vt 0.775982 0.332737
vt 0.729878 0.156112
vt 0.806052 0.472262
vt 0.680441 0.332006
vt 0.699392 0.569702
vt 0.724591 0.429079
vt 0.676160 0.454939
s 1
usemtl マテリアル
f 254/1/1 45/2/2 5/3/3
f 255/4/4 5/3/3 6/5/5
f 1/6/6 6/5/5 7/7/7
f 256/8/8 7/7/7 8/9/9
f 256/8/8 9/10/10 2/11/11
f 257/12/12 9/10/10 10/13/13
f 257/12/12 11/14/14 3/15/15
f 3/15/15 12/16/16 4/17/17
f 11/14/14 20/18/18 12/16/16
f 5/3/3 45/19/2 13/20/19
f 6/5/5 13/20/19 14/21/20
f 7/7/7 14/21/20 15/22/21
f 8/9/9 15/22/21 16/23/22
f 9/10/10 16/23/22 17/24/23
f 9/10/10 18/25/24 10/13/13
f 11/14/14 18/25/24 19/26/25
f 15/22/21 24/27/26 16/23/22
f 16/23/22 25/28/27 17/24/23
f 17/24/23 26/29/28 18/25/24
f 19/26/25 26/29/28 27/30/29
f 20/18/18 27/30/29 28/31/30
f 13/20/19 45/32/2 21/33/31
f 13/20/19 22/34/32 14/21/20
f 14/21/20 23/35/33 15/22/21
f 28/31/30 35/36/34 36/37/35
f 21/33/31 45/38/2 29/39/36
f 22/34/32 29/39/36 30/40/37
f 23/35/33 30/40/37 31/41/38
f 23/35/33 32/42/39 24/27/26
f 24/27/26 33/43/40 25/28/27
f 26/29/28 33/43/40 34/44/41
f 27/30/29 34/44/41 35/36/34
f 32/42/39 41/45/42 33/43/40
f 33/43/40 42/46/43 34/44/41
f 35/36/34 42/46/43 43/47/44
f 36/37/35 43/47/44 44/48/45
f 29/39/36 45/49/2 37/50/46
f 30/40/37 37/50/46 38/51/47
f 31/41/38 38/51/47 39/52/48
f 31/41/38 40/53/49 32/42/39
f 37/50/46 45/54/2 46/55/50
f 37/50/46 47/56/51 38/51/47
f 39/52/48 47/56/51 48/57/52
f 40/53/49 48/57/52 49/58/53
f 40/53/49 50/59/54 41/45/42
f 41/45/42 51/60/55 42/46/43
f 43/47/44 51/60/55 52/61/56
f 44/48/45 52/61/56 53/62/57
f 50/59/54 57/63/58 58/64/59
f 50/59/54 59/65/60 51/60/55
f 52/61/56 59/65/60 60/66/61
f 53/62/57 60/66/61 61/67/62
f 46/55/50 45/68/2 54/69/63
f 46/55/50 55/70/64 47/56/51
f 47/56/51 56/71/65 48/57/52
f 49/58/53 56/71/65 57/63/58
f 54/69/63 63/72/66 55/70/64
f 55/70/64 64/73/67 56/71/65
f 56/71/65 65/74/68 57/63/58
f 58/64/59 65/74/68 66/75/69
f 59/65/60 66/75/69 67/76/70
f 60/66/61 67/76/70 68/77/71
f 61/67/62 68/77/71 69/78/72
f 54/69/63 45/79/2 62/80/73
f 66/75/69 75/81/74 67/76/70
f 67/76/70 76/82/75 68/77/71
f 69/78/72 76/82/75 77/83/76
f 62/80/73 45/84/2 70/85/77
f 62/80/73 71/86/78 63/72/66
f 64/73/67 71/86/78 72/87/79
f 64/73/67 73/88/80 65/74/68
f 66/75/69 73/88/80 74/89/81
f 72/87/79 79/90/82 80/91/83
f 72/87/79 81/92/84 73/88/80
f 74/89/81 81/92/84 82/93/85
f 74/89/81 83/94/86 75/81/74
f 76/82/75 83/94/86 84/95/87
f 77/83/76 84/95/87 85/96/88
f 70/85/77 45/97/2 78/98/89
f 71/86/78 78/98/89 79/90/82
f 84/95/87 91/99/90 92/100/91
f 85/96/88 92/100/91 93/101/92
f 78/98/89 45/102/2 86/103/93
f 79/90/82 86/103/93 87/104/94
f 79/90/82 88/105/95 80/91/83
f 80/91/83 89/106/96 81/92/84
f 82/93/85 89/106/96 90/107/97
f 82/93/85 91/99/90 83/94/86
f 87/104/94 96/108/98 88/105/95
f 89/106/96 96/108/98 97/109/99
f 90/107/97 97/109/99 98/110/100
f 90/107/97 99/111/101 91/99/90
f 92/100/91 99/111/101 100/112/102
f 93/101/92 100/112/102 101/113/103
f 86/103/93 45/114/2 94/115/104
f 86/103/93 95/116/105 87/104/94
f 100/112/102 107/117/106 108/118/107
f 101/113/103 108/118/107 109/119/108
f 94/115/104 45/120/2 102/121/109
f 94/115/104 103/122/110 95/116/105
f 96/108/98 103/122/110 104/123/111
f 96/108/98 105/124/112 97/109/99
f 98/110/100 105/124/112 106/125/113
f 98/110/100 107/117/106 99/111/101
f 104/123/111 113/126/114 105/124/112
f 106/125/113 113/126/114 114/127/115
f 106/125/113 115/128/116 107/117/106
f 108/118/107 115/128/116 116/129/117
f 109/119/108 116/129/117 117/130/118
f 102/121/109 45/131/2 110/132/119
f 102/121/109 111/133/120 103/122/110
f 103/122/110 112/134/121 104/123/111
f 117/130/118 124/135/122 125/136/123
f 110/132/119 45/137/2 118/138/124
f 111/133/120 118/138/124 119/139/125
f 112/134/121 119/139/125 120/140/126
f 113/126/114 120/140/126 121/141/127
f 114/127/115 121/141/127 122/142/128
f 114/127/115 123/143/129 115/128/116
f 116/129/117 123/143/129 124/135/122
f 120/140/126 129/144/130 121/141/127
f 122/142/128 129/144/130 130/145/131
f 122/142/128 131/146/132 123/143/129
f 124/135/122 131/146/132 132/147/133
f 125/136/123 132/147/133 133/148/134
f 118/138/124 45/149/2 126/150/135
f 118/138/124 127/151/136 119/139/125
f 119/139/125 128/152/137 120/140/126
f 133/148/134 140/153/138 141/154/139
f 126/150/135 45/155/2 134/156/140
f 127/151/136 134/156/140 135/157/141
f 128/152/137 135/157/141 136/158/142
f 128/152/137 137/159/143 129/144/130
f 130/145/131 137/159/143 138/160/144
f 130/145/131 139/161/145 131/146/132
f 132/147/133 139/161/145 140/153/138
f 138/160/144 145/162/146 146/163/147
f 138/160/144 147/164/148 139/161/145
f 140/153/138 147/164/148 148/165/149
f 141/154/139 148/165/149 149/166/150
f 134/156/140 45/167/2 142/168/151
f 134/156/140 143/169/152 135/157/141
f 135/157/141 144/170/153 136/158/142
f 136/158/142 145/162/146 137/159/143
f 143/169/152 150/171/154 151/172/155
f 143/169/152 152/173/156 144/170/153
f 144/170/153 153/174/157 145/162/146
f 146/163/147 153/174/157 154/175/158
f 146/163/147 155/176/159 147/164/148
f 148/165/149 155/176/159 156/177/160
f 149/166/150 156/177/160 157/178/161
f 142/168/151 45/179/2 150/171/154
f 154/175/158 163/180/162 155/176/159
f 156/177/160 163/180/162 164/181/163
f 157/178/161 164/181/163 165/182/164
f 150/171/154 45/183/2 158/184/165
f 150/171/154 159/185/166 151/172/155
f 152/173/156 159/185/166 160/186/167
f 152/173/156 161/187/168 153/174/157
f 154/175/158 161/187/168 162/188/169
f 158/184/165 167/189/170 159/185/166
f 160/186/167 167/189/170 168/190/171
f 160/186/167 169/191/172 161/187/168
f 162/188/169 169/191/172 170/192/173
f 162/188/169 171/193/174 163/180/162
f 164/181/163 171/193/174 172/194/175
f 165/182/164 172/194/175 173/195/176
f 158/184/165 45/196/2 166/197/177
f 170/192/173 179/198/178 171/193/174
f 172/194/175 179/198/178 180/199/179
f 173/195/176 180/199/179 181/200/180
f 166/197/177 45/201/2 174/202/181
f 166/197/177 175/203/182 167/189/170
f 168/190/171 175/203/182 176/204/183
f 168/190/171 177/205/184 169/191/172
f 170/192/173 177/205/184 178/206/185
f 176/204/183 183/207/186 184/208/187
f 176/204/183 185/209/188 177/205/184
f 178/206/185 185/209/188 186/210/189
f 178/206/185 187/211/190 179/198/178
f 180/199/179 187/211/190 188/212/191
f 181/200/180 188/212/191 189/213/192
f 174/202/181 45/214/2 182/215/193
f 174/202/181 183/207/186 175/203/182
f 188/212/191 195/216/194 196/217/195
f 189/213/192 196/217/195 197/218/196
f 182/215/193 45/219/2 190/220/197
f 182/215/193 191/221/198 183/207/186
f 184/208/187 191/221/198 192/222/199
f 184/208/187 193/223/200 185/209/188
f 186/210/189 193/223/200 194/224/201
f 186/210/189 195/216/194 187/211/190
f 192/225/199 199/226/202 200/227/203
f 192/225/199 201/228/204 193/229/200
f 194/230/201 201/228/204 202/231/205
f 194/230/201 203/232/206 195/233/194
f 196/234/195 203/232/206 204/235/207
f 197/236/196 204/235/207 205/237/208
f 190/238/197 45/239/2 198/240/209
f 190/238/197 199/226/202 191/241/198
f 204/235/207 211/242/210 212/243/211
f 205/237/208 212/243/211 213/244/212
f 198/240/209 45/245/2 206/246/213
f 199/226/202 206/246/213 207/247/214
f 200/227/203 207/247/214 208/248/215
f 200/227/203 209/249/216 201/228/204
f 202/231/205 209/249/216 210/250/217
f 202/231/205 211/242/210 203/232/206
f 208/248/215 217/251/218 209/249/216
f 210/250/217 217/251/218 218/252/219
f 210/250/217 219/253/220 211/242/210
f 212/243/211 219/253/220 220/254/221
f 213/244/212 220/254/221 221/255/222
f 206/246/213 45/256/2 214/257/223
f 207/247/214 214/257/223 215/258/224
f 208/248/215 215/258/224 216/259/225
f 221/255/222 228/260/226 229/261/227
f 214/257/223 45/262/2 222/263/228
f 214/257/223 223/264/229 215/258/224
f 216/259/225 223/264/229 224/265/230
f 216/259/225 225/266/231 217/251/218
f 218/252/219 225/266/231 226/267/232
f 218/252/219 227/268/233 219/253/220
f 220/254/221 227/268/233 228/260/226
f 226/267/232 233/269/234 234/270/235
f 226/267/232 235/271/236 227/268/233
f 228/260/226 235/271/236 236/272/237
f 229/261/227 236/272/237 237/273/238
f 222/263/228 45/274/2 230/275/239
f 223/264/229 230/275/239 231/276/240
f 223/264/229 232/277/241 224/265/230
f 224/265/230 233/269/234 225/266/231
f 230/275/239 45/278/2 238/279/242
f 230/275/239 239/280/243 231/276/240
f 231/276/240 240/281/244 232/277/241
f 232/277/241 241/282/245 233/269/234
f 234/270/235 241/282/245 242/283/246
f 234/270/235 243/284/247 235/271/236
f 236/272/237 243/284/247 244/285/248
f 237/273/238 244/285/248 245/286/249
f 242/283/246 249/287/250 250/288/251
f 242/283/246 251/289/252 243/284/247
f 244/285/248 251/289/252 252/290/253
f 245/286/249 252/290/253 253/291/254
f 238/279/242 45/292/2 246/293/255
f 238/279/242 247/294/256 239/280/243
f 240/281/244 247/294/256 248/295/257
f 240/281/244 249/287/250 241/282/245
f 247/294/256 254/1/1 255/4/4
f 248/295/257 255/4/4 1/6/6
f 249/287/250 1/6/6 256/8/8
f 250/288/251 256/8/8 2/11/11
f 251/289/252 2/11/11 257/12/12
f 252/290/253 257/12/12 3/15/15
f 253/291/254 3/15/15 4/17/17
f 246/293/255 45/296/2 254/1/1
f 125/136/123 189/213/192 253/291/254
f 258/297/2 260/298/2 259/299/2
f 258/297/2 261/300/2 260/298/2
f 258/297/2 262/301/2 261/300/2
f 258/297/2 263/302/2 262/301/2
f 264/303/258 265/304/258 266/305/258
f 264/303/258 266/305/258 267/306/258
f 264/303/258 267/306/258 268/307/258
f 264/303/258 268/307/258 269/308/258
f 273/309/259 270/310/260 271/311/260
f 275/312/261 272/313/259 273/309/259
f 277/314/261 274/315/261 275/312/261
f 279/316/261 276/317/261 277/314/261
f 281/318/262 278/319/261 279/316/261
f 271/311/260 280/320/262 281/318/262
f 255/4/4 254/1/1 5/3/3
f 1/6/6 255/4/4 6/5/5
f 256/8/8 1/6/6 7/7/7
f 256/8/8 8/9/9 9/10/10
f 257/12/12 2/11/11 9/10/10
f 257/12/12 10/13/13 11/14/14
f 3/15/15 11/14/14 12/16/16
f 11/14/14 19/26/25 20/18/18
f 6/5/5 5/3/3 13/20/19
f 7/7/7 6/5/5 14/21/20
f 8/9/9 7/7/7 15/22/21
f 9/10/10 8/9/9 16/23/22
f 9/10/10 17/24/23 18/25/24
f 11/14/14 10/13/13 18/25/24
f 15/22/21 23/35/33 24/27/26
f 16/23/22 24/27/26 25/28/27
f 17/24/23 25/28/27 26/29/28
f 19/26/25 18/25/24 26/29/28
f 20/18/18 19/26/25 27/30/29
f 13/20/19 21/33/31 22/34/32
f 14/21/20 22/34/32 23/35/33
f 28/31/30 27/30/29 35/36/34
f 22/34/32 21/33/31 29/39/36
f 23/35/33 22/34/32 30/40/37
f 23/35/33 31/41/38 32/42/39
f 24/27/26 32/42/39 33/43/40
f 26/29/28 25/28/27 33/43/40
f 27/30/29 26/29/28 34/44/41
f 32/42/39 40/53/49 41/45/42
f 33/43/40 41/45/42 42/46/43
f 35/36/34 34/44/41 42/46/43
f 36/37/35 35/36/34 43/47/44
f 30/40/37 29/39/36 37/50/46
f 31/41/38 30/40/37 38/51/47
f 31/41/38 39/52/48 40/53/49
f 37/50/46 46/55/50 47/56/51
f 39/52/48 38/51/47 47/56/51
f 40/53/49 39/52/48 48/57/52
f 40/53/49 49/58/53 50/59/54
f 41/45/42 50/59/54 51/60/55
f 43/47/44 42/46/43 51/60/55
f 44/48/45 43/47/44 52/61/56
f 50/59/54 49/58/53 57/63/58
f 50/59/54 58/64/59 59/65/60
f 52/61/56 51/60/55 59/65/60
f 53/62/57 52/61/56 60/66/61
f 46/55/50 54/69/63 55/70/64
f 47/56/51 55/70/64 56/71/65
f 49/58/53 48/57/52 56/71/65
f 54/69/63 62/80/73 63/72/66
f 55/70/64 63/72/66 64/73/67
f 56/71/65 64/73/67 65/74/68
f 58/64/59 57/63/58 65/74/68
f 59/65/60 58/64/59 66/75/69
f 60/66/61 59/65/60 67/76/70
f 61/67/62 60/66/61 68/77/71
f 66/75/69 74/89/81 75/81/74
f 67/76/70 75/81/74 76/82/75
f 69/78/72 68/77/71 76/82/75
f 62/80/73 70/85/77 71/86/78
f 64/73/67 63/72/66 71/86/78
f 64/73/67 72/87/79 73/88/80
f 66/75/69 65/74/68 73/88/80
f 72/87/79 71/86/78 79/90/82
f 72/87/79 80/91/83 81/92/84
f 74/89/81 73/88/80 81/92/84
f 74/89/81 82/93/85 83/94/86
f 76/82/75 75/81/74 83/94/86
f 77/83/76 76/82/75 84/95/87
f 71/86/78 70/85/77 78/98/89
f 84/95/87 83/94/86 91/99/90
f 85/96/88 84/95/87 92/100/91
f 79/90/82 78/98/89 86/103/93
f 79/90/82 87/104/94 88/105/95
f 80/91/83 88/105/95 89/106/96
f 82/93/85 81/92/84 89/106/96
f 82/93/85 90/107/97 91/99/90
f 87/104/94 95/116/105 96/108/98
f 89/106/96 88/105/95 96/108/98
f 90/107/97 89/106/96 97/109/99
f 90/107/97 98/110/100 99/111/101
f 92/100/91 91/99/90 99/111/101
f 93/101/92 92/100/91 100/112/102
f 86/103/93 94/115/104 95/116/105
f 100/112/102 99/111/101 107/117/106
f 101/113/103 100/112/102 108/118/107
f 94/115/104 102/121/109 103/122/110
f 96/108/98 95/116/105 103/122/110
f 96/108/98 104/123/111 105/124/112
f 98/110/100 97/109/99 105/124/112
f 98/110/100 106/125/113 107/117/106
f 104/123/111 112/134/121 113/126/114
f 106/125/113 105/124/112 113/126/114
f 106/125/113 114/127/115 115/128/116
f 108/118/107 107/117/106 115/128/116
f 109/119/108 108/118/107 116/129/117
f 102/121/109 110/132/119 111/133/120
f 103/122/110 111/133/120 112/134/121
f 117/130/118 116/129/117 124/135/122
f 111/133/120 110/132/119 118/138/124
f 112/134/121 111/133/120 119/139/125
f 113/126/114 112/134/121 120/140/126
f 114/127/115 113/126/114 121/141/127
f 114/127/115 122/142/128 123/143/129
f 116/129/117 115/128/116 123/143/129
f 120/140/126 128/152/137 129/144/130
f 122/142/128 121/141/127 129/144/130
f 122/142/128 130/145/131 131/146/132
f 124/135/122 123/143/129 131/146/132
f 125/136/123 124/135/122 132/147/133
f 118/138/124 126/150/135 127/151/136
f 119/139/125 127/151/136 128/152/137
f 133/148/134 132/147/133 140/153/138
f 127/151/136 126/150/135 134/156/140
f 128/152/137 127/151/136 135/157/141
f 128/152/137 136/158/142 137/159/143
f 130/145/131 129/144/130 137/159/143
f 130/145/131 138/160/144 139/161/145
f 132/147/133 131/146/132 139/161/145
f 138/160/144 137/159/143 145/162/146
f 138/160/144 146/163/147 147/164/148
f 140/153/138 139/161/145 147/164/148
f 141/154/139 140/153/138 148/165/149
f 134/156/140 142/168/151 143/169/152
f 135/157/141 143/169/152 144/170/153
f 136/158/142 144/170/153 145/162/146
f 143/169/152 142/168/151 150/171/154
f 143/169/152 151/172/155 152/173/156
f 144/170/153 152/173/156 153/174/157
f 146/163/147 145/162/146 153/174/157
f 146/163/147 154/175/158 155/176/159
f 148/165/149 147/164/148 155/176/159
f 149/166/150 148/165/149 156/177/160
f 154/175/158 162/188/169 163/180/162
f 156/177/160 155/176/159 163/180/162
f 157/178/161 156/177/160 164/181/163
f 150/171/154 158/184/165 159/185/166
f 152/173/156 151/172/155 159/185/166
f 152/173/156 160/186/167 161/187/168
f 154/175/158 153/174/157 161/187/168
f 158/184/165 166/197/177 167/189/170
f 160/186/167 159/185/166 167/189/170
f 160/186/167 168/190/171 169/191/172
f 162/188/169 161/187/168 169/191/172
f 162/188/169 170/192/173 171/193/174
f 164/181/163 163/180/162 171/193/174
f 165/182/164 164/181/163 172/194/175
f 170/192/173 178/206/185 179/198/178
f 172/194/175 171/193/174 179/198/178
f 173/195/176 172/194/175 180/199/179
f 166/197/177 174/202/181 175/203/182
f 168/190/171 167/189/170 175/203/182
f 168/190/171 176/204/183 177/205/184
f 170/192/173 169/191/172 177/205/184
f 176/204/183 175/203/182 183/207/186
f 176/204/183 184/208/187 185/209/188
f 178/206/185 177/205/184 185/209/188
f 178/206/185 186/210/189 187/211/190
f 180/199/179 179/198/178 187/211/190
f 181/200/180 180/199/179 188/212/191
f 174/202/181 182/215/193 183/207/186
f 188/212/191 187/211/190 195/216/194
f 189/213/192 188/212/191 196/217/195
f 182/215/193 190/220/197 191/221/198
f 184/208/187 183/207/186 191/221/198
f 184/208/187 192/222/199 193/223/200
f 186/210/189 185/209/188 193/223/200
f 186/210/189 194/224/201 195/216/194
f 192/225/199 191/241/198 199/226/202
f 192/225/199 200/227/203 201/228/204
f 194/230/201 193/229/200 201/228/204
f 194/230/201 202/231/205 203/232/206
f 196/234/195 195/233/194 203/232/206
f 197/236/196 196/234/195 204/235/207
f 190/238/197 198/240/209 199/226/202
f 204/235/207 203/232/206 211/242/210
f 205/237/208 204/235/207 212/243/211
f 199/226/202 198/240/209 206/246/213
f 200/227/203 199/226/202 207/247/214
f 200/227/203 208/248/215 209/249/216
f 202/231/205 201/228/204 209/249/216
f 202/231/205 210/250/217 211/242/210
f 208/248/215 216/259/225 217/251/218
f 210/250/217 209/249/216 217/251/218
f 210/250/217 218/252/219 219/253/220
f 212/243/211 211/242/210 219/253/220
f 213/244/212 212/243/211 220/254/221
f 207/247/214 206/246/213 214/257/223
f 208/248/215 207/247/214 215/258/224
f 221/255/222 220/254/221 228/260/226
f 214/257/223 222/263/228 223/264/229
f 216/259/225 215/258/224 223/264/229
f 216/259/225 224/265/230 225/266/231
f 218/252/219 217/251/218 225/266/231
f 218/252/219 226/267/232 227/268/233
f 220/254/221 219/253/220 227/268/233
f 226/267/232 225/266/231 233/269/234
f 226/267/232 234/270/235 235/271/236
f 228/260/226 227/268/233 235/271/236
f 229/261/227 228/260/226 236/272/237
f 223/264/229 222/263/228 230/275/239
f 223/264/229 231/276/240 232/277/241
f 224/265/230 232/277/241 233/269/234
f 230/275/239 238/279/242 239/280/243
f 231/276/240 239/280/243 240/281/244
f 232/277/241 240/281/244 241/282/245
f 234/270/235 233/269/234 241/282/245
f 234/270/235 242/283/246 243/284/247
f 236/272/237 235/271/236 243/284/247
f 237/273/238 236/272/237 244/285/248
f 242/283/246 241/282/245 249/287/250
f 242/283/246 250/288/251 251/289/252
f 244/285/248 243/284/247 251/289/252
f 245/286/249 244/285/248 252/290/253
f 238/279/242 246/293/255 247/294/256
f 240/281/244 239/280/243 247/294/256
f 240/281/244 248/295/257 249/287/250
f 247/294/256 246/293/255 254/1/1
f 248/295/257 247/294/256 255/4/4
f 249/287/250 248/295/257 1/6/6
f 250/288/251 249/287/250 256/8/8
f 251/289/252 250/288/251 2/11/11
f 252/290/253 251/289/252 257/12/12
f 253/291/254 252/290/253 3/15/15
f 253/291/254 4/17/17 12/16/16
f 12/16/16 20/18/18 253/291/254
f 20/18/18 28/31/30 253/291/254
f 28/31/30 36/37/35 44/48/45
f 44/48/45 53/62/57 61/67/62
f 61/67/62 69/78/72 77/83/76
f 77/83/76 85/96/88 93/101/92
f 93/101/92 101/113/103 125/136/123
f 101/113/103 109/119/108 125/136/123
f 109/119/108 117/130/118 125/136/123
f 125/136/123 133/148/134 141/154/139
f 141/154/139 149/166/150 157/178/161
f 157/178/161 165/182/164 173/195/176
f 173/195/176 181/200/180 189/213/192
f 189/213/192 197/236/196 205/237/208
f 205/237/208 213/244/212 221/255/222
f 221/255/222 229/261/227 237/273/238
f 237/273/238 245/286/249 253/291/254
f 28/31/30 44/48/45 253/291/254
f 44/48/45 61/67/62 253/291/254
f 61/67/62 77/83/76 93/101/92
f 125/136/123 141/154/139 189/213/192
f 141/154/139 157/178/161 189/213/192
f 157/178/161 173/195/176 189/213/192
f 189/213/192 205/237/208 221/255/222
f 221/255/222 237/273/238 189/213/192
f 237/273/238 253/291/254 189/213/192
f 61/67/62 93/101/92 253/291/254
f 93/101/92 125/136/123 253/291/254
f 273/309/259 272/313/259 270/310/260
f 275/312/261 274/315/261 272/313/259
f 277/314/261 276/317/261 274/315/261
f 279/316/261 278/319/261 276/317/261
f 281/318/262 280/320/262 278/319/261
f 271/311/260 270/310/260 280/320/262
