# Blender 4.3.2
# www.blender.org
mtllib notouchBlackBlock.mtl
o Cube
v -1.000000 1.000000 1.000000
v 0.703420 0.845332 0.845332
v -1.000000 -1.000000 1.000000
v 0.703420 -0.845332 0.845332
v -1.000000 1.000000 -1.000000
v 0.703420 0.845332 -0.845332
v -1.000000 -1.000000 -1.000000
v 0.703420 -0.845332 -0.845332
v 1.000000 1.000000 1.000000
v -0.703420 0.845332 0.845332
v 1.000000 -1.000000 1.000000
v -0.703420 -0.845332 0.845332
v 1.000000 1.000000 -1.000000
v -0.703420 0.845332 -0.845332
v 1.000000 -1.000000 -1.000000
v -0.703420 -0.845332 -0.845332
v -1.000000 -0.845332 0.845332
v -1.000000 0.845332 -0.845332
v -1.000000 0.845332 0.845332
v -1.000000 -0.845332 -0.845332
v 0.845332 -0.845332 1.000000
v -0.845332 0.845332 1.000000
v 0.845332 0.845332 1.000000
v -0.845332 -0.845332 1.000000
v -0.703420 0.845332 0.845332
v -0.703420 -0.845332 0.845332
v -0.845332 0.845332 0.845332
v -0.845332 -0.845332 0.845332
v 1.000000 -0.845332 -0.845332
v 1.000000 0.845332 0.845332
v 1.000000 0.845332 -0.845332
v 1.000000 -0.845332 0.845332
v 0.703420 0.845332 0.845332
v 0.845332 0.845332 0.845332
v 0.845332 -0.845332 0.845332
v 0.703420 -0.845332 0.845332
v 0.845332 0.845332 -1.000000
v -0.845332 0.845332 -1.000000
v -0.845332 -0.845332 -1.000000
v 0.845332 -0.845332 -1.000000
v -0.845332 -0.845332 -0.845332
v -0.703420 -0.845332 -0.845332
v -0.703420 0.845332 -0.845332
v -0.845332 0.845332 -0.845332
v 0.845332 -0.845332 -0.845332
v 0.703420 -0.845332 -0.845332
v 0.703420 0.845332 -0.845332
v 0.845332 0.845332 -0.845332
v 0.845332 1.000000 -0.845332
v -0.845332 1.000000 0.845332
v 0.845332 1.000000 0.845332
v -0.845332 1.000000 -0.845332
v -0.845332 0.845332 0.845332
v -0.703420 0.845332 -0.845332
v -0.703420 0.845332 0.845332
v -0.845332 0.845332 -0.845332
v -0.703420 0.845332 -0.845332
v -0.703420 0.845332 0.845332
v 0.703420 0.845332 0.845332
v 0.845332 0.845332 0.845332
v 0.703420 0.845332 -0.845332
v 0.703420 0.845332 0.845332
v 0.845332 0.845332 -0.845332
v 0.703420 0.845332 -0.845332
v 0.845332 -1.000000 0.845332
v -0.845332 -1.000000 0.845332
v -0.845332 -1.000000 -0.845332
v 0.845332 -1.000000 -0.845332
v -0.703420 -0.845332 -0.845332
v -0.703420 -0.845332 0.845332
v -0.703420 -0.845332 -0.845332
v -0.703420 -0.845332 0.845332
v -0.845332 -0.845332 -0.845332
v -0.845332 -0.845332 0.845332
v 0.703420 -0.845332 0.845332
v 0.845332 -0.845332 -0.845332
v 0.703420 -0.845332 -0.845332
v 0.703420 -0.845332 0.845332
v 0.845332 -0.845332 0.845332
v 0.703420 -0.845332 -0.845332
vn -0.0000 1.0000 -0.0000
vn -0.0000 -0.0000 -1.0000
vn 1.0000 -0.0000 -0.0000
vn -0.0000 -1.0000 -0.0000
vn -1.0000 -0.0000 -0.0000
vn -0.0000 -0.0000 1.0000
vn -0.0000 -0.3195 0.9476
vn -0.0000 0.1662 0.9861
vn -0.0000 -0.1662 -0.9861
vn -0.0000 0.3195 -0.9476
vt 0.595953 0.595953
vt 0.417612 0.581005
vt 0.581005 0.581005
vt 0.402665 0.402665
vt 0.581005 0.417613
vt 0.417612 0.417613
vt 0.387717 0.610901
vt 0.402665 0.595953
vt 0.402665 0.789242
vt 0.209376 0.789242
vt 0.224324 0.610901
vt 0.224324 0.774294
vt 0.387717 0.194429
vt 0.402665 0.209376
vt 0.224324 0.194429
vt 0.224324 0.031036
vt 0.209376 0.016088
vt 0.387717 0.031036
vt 0.016088 0.402665
vt 0.209376 0.402665
vt 0.031036 0.417612
vt 0.016088 0.595953
vt 0.194429 0.581005
vt 0.209376 0.595953
vt 0.387717 0.417612
vt 0.224324 0.417613
vt 0.224324 0.581005
vt 0.387717 0.387717
vt 0.224324 0.387717
vt 0.224324 0.224324
vt 0.209376 0.209376
vt 0.387717 0.224324
vt 0.825453 0.036585
vt 0.944608 0.016088
vt 0.825453 0.016088
vt 0.804955 0.246027
vt 0.825453 0.365183
vt 0.825453 0.246027
vt 0.786148 0.516514
vt 0.786148 0.397359
vt 0.786148 0.397359
vt 0.699609 0.524885
vt 0.699609 0.524885
vt 0.628129 0.135243
vt 0.648626 0.016088
vt 0.628129 0.016088
vt 0.646936 0.524885
vt 0.667433 0.644040
vt 0.667433 0.524885
vt 0.646936 0.676216
vt 0.667433 0.795372
vt 0.667433 0.676216
vt 0.753972 0.254399
vt 0.733475 0.264400
vt 0.733475 0.363552
vt 0.786148 0.548690
vt 0.806646 0.667845
vt 0.806646 0.548690
vt 0.733475 0.026090
vt 0.733475 0.125242
vt 0.753972 0.135243
vt 0.804955 0.397359
vt 0.825453 0.516514
vt 0.825453 0.397359
vt 0.963415 0.055392
vt 0.983912 0.174547
vt 0.983912 0.055392
vt 0.944608 0.193354
vt 0.825453 0.213852
vt 0.944608 0.213852
vt 0.825453 0.055392
vt 0.648626 0.145245
vt 0.648626 0.244397
vt 0.648626 0.145245
vt 0.648626 0.373554
vt 0.628129 0.254398
vt 0.628129 0.373554
vt 0.944608 0.055392
vt 0.944608 0.055392
vt 0.753972 0.405730
vt 0.733475 0.415732
vt 0.733475 0.514883
vt 0.733475 0.654042
vt 0.733475 0.753194
vt 0.753972 0.763195
vt 0.680802 0.482707
vt 0.680802 0.383555
vt 0.680802 0.482707
vt 0.701299 0.373553
vt 0.806646 0.174547
vt 0.786148 0.055392
vt 0.786148 0.174547
vt 0.944608 0.174547
vt 0.944608 0.174547
vt 0.701299 0.254398
vt 0.680802 0.145245
vt 0.680802 0.244397
vt 0.680802 0.145245
vt 0.680802 0.244396
vt 0.648626 0.383555
vt 0.648626 0.482707
vt 0.648626 0.383555
vt 0.699609 0.557061
vt 0.648626 0.244397
vt 0.595953 0.402665
vt 0.387717 0.774294
vt 0.402665 0.016088
vt 0.031036 0.581005
vt 0.194429 0.417613
vt 0.387717 0.581005
vt 0.786148 0.365183
vt 0.804955 0.365183
vt 0.786148 0.246027
vt 0.628129 0.644040
vt 0.646936 0.644040
vt 0.628129 0.524885
vt 0.646936 0.795372
vt 0.628129 0.795372
vt 0.628129 0.676216
vt 0.804955 0.516514
vt 0.733475 0.373554
vt 0.753973 0.373554
vt 0.733475 0.254399
vt 0.733475 0.135243
vt 0.753972 0.016088
vt 0.733475 0.016088
vt 0.963415 0.174547
vt 0.825453 0.193354
vt 0.825453 0.174547
vt 0.825453 0.174547
vt 0.806646 0.055392
vt 0.944608 0.036585
vt 0.733475 0.524885
vt 0.753972 0.524885
vt 0.733475 0.405730
vt 0.786148 0.700021
vt 0.806646 0.819176
vt 0.806646 0.700021
vt 0.733475 0.644040
vt 0.753972 0.644040
vt 0.733475 0.763196
vt 0.680802 0.492709
vt 0.701299 0.492709
vt 0.680802 0.373553
vt 0.701299 0.016088
vt 0.680802 0.135243
vt 0.701299 0.135243
vt 0.680802 0.254398
vt 0.628129 0.492709
vt 0.648626 0.492709
vt 0.648626 0.135243
vt 0.648626 0.254398
vt 0.786148 0.667845
vt 0.733475 0.125242
vt 0.786148 0.819176
vt 0.680802 0.016088
s 0
usemtl マテリアル
f 13/1/1 52/2/1 49/3/1
f 1/4/1 51/5/1 50/6/1
f 38/7/2 5/8/2 13/9/2
f 15/10/2 39/11/2 40/12/2
f 30/13/3 9/14/3 32/15/3
f 29/16/3 15/17/3 31/18/3
f 11/19/4 3/20/4 65/21/4
f 15/22/4 67/23/4 7/24/4
f 19/25/5 1/4/5 5/8/5
f 7/24/5 17/26/5 20/27/5
f 22/28/6 1/4/6 24/29/6
f 21/30/6 11/31/6 23/32/6
f 35/33/2 30/34/2 32/35/2
f 56/36/4 19/37/4 18/38/4
f 70/39/5 12/39/5 26/39/5
f 55/40/5 25/41/5 10/40/5
f 57/42/5 14/43/5 43/43/5
f 65/44/5 76/45/5 68/46/5
f 41/47/6 18/48/6 20/49/6
f 74/50/1 20/51/1 17/52/1
f 22/53/4 25/54/4 33/55/4
f 34/56/5 21/57/5 23/58/5
f 75/59/1 26/60/1 36/59/1
f 26/60/1 24/61/1 36/59/1
f 27/62/2 17/63/2 19/64/2
f 60/65/4 31/66/4 30/67/4
f 48/68/6 29/69/6 31/70/6
f 78/71/3 36/71/3 4/71/3
f 78/72/2 70/73/2 75/74/2
f 73/75/3 66/76/3 67/77/3
f 59/78/3 2/79/3 33/78/3
f 37/80/4 47/81/4 43/82/4
f 69/83/1 46/84/1 42/83/1
f 46/84/1 40/85/1 42/83/1
f 61/86/6 57/87/6 64/88/6
f 52/89/6 54/87/6 61/86/6
f 76/90/1 32/91/1 29/92/1
f 43/82/4 64/81/4 57/82/4
f 6/93/3 64/94/3 47/94/3
f 50/95/2 62/96/2 55/97/2
f 55/97/2 59/98/2 58/99/2
f 71/100/6 67/77/6 77/101/6
f 71/100/6 80/101/6 69/102/6
f 16/103/5 69/103/5 42/103/5
f 65/44/2 72/104/2 78/72/2
f 49/3/1 51/5/1 9/105/1
f 13/1/1 5/8/1 52/2/1
f 49/3/1 9/105/1 13/1/1
f 50/6/1 52/2/1 5/8/1
f 1/4/1 9/105/1 51/5/1
f 50/6/1 5/8/1 1/4/1
f 38/7/2 39/11/2 7/24/2
f 13/9/2 15/10/2 40/12/2
f 13/9/2 40/12/2 37/106/2
f 38/7/2 7/24/2 5/8/2
f 13/9/2 37/106/2 38/7/2
f 15/10/2 7/24/2 39/11/2
f 30/13/3 31/18/3 13/107/3
f 9/14/3 11/31/3 32/15/3
f 30/13/3 13/107/3 9/14/3
f 29/16/3 32/15/3 11/31/3
f 15/17/3 13/107/3 31/18/3
f 29/16/3 11/31/3 15/17/3
f 65/21/4 68/108/4 15/22/4
f 3/20/4 7/24/4 67/23/4
f 3/20/4 67/23/4 66/109/4
f 65/21/4 15/22/4 11/19/4
f 3/20/4 66/109/4 65/21/4
f 15/22/4 68/108/4 67/23/4
f 19/25/5 17/26/5 3/20/5
f 5/8/5 7/24/5 20/27/5
f 5/8/5 20/27/5 18/110/5
f 19/25/5 3/20/5 1/4/5
f 5/8/5 18/110/5 19/25/5
f 7/24/5 3/20/5 17/26/5
f 22/28/6 23/32/6 9/14/6
f 1/4/6 3/20/6 24/29/6
f 22/28/6 9/14/6 1/4/6
f 21/30/6 24/29/6 3/20/6
f 11/31/6 9/14/6 23/32/6
f 21/30/6 3/20/6 11/31/6
f 55/111/4 10/111/4 53/112/4
f 10/111/4 19/37/4 53/112/4
f 18/38/4 14/113/4 56/36/4
f 14/113/4 54/113/4 56/36/4
f 43/114/6 14/114/6 44/115/6
f 14/114/7 18/48/7 44/115/7
f 20/49/8 16/116/8 41/47/8
f 16/116/6 42/116/6 41/47/6
f 73/117/1 71/118/1 16/118/1
f 17/52/1 12/119/1 74/50/1
f 12/119/1 72/119/1 74/50/1
f 73/117/1 16/118/1 20/51/1
f 28/120/2 26/39/2 12/39/2
f 19/64/9 10/40/9 27/62/9
f 10/40/2 25/41/2 27/62/2
f 28/120/2 12/39/2 17/63/2
f 34/121/4 23/122/4 33/55/4
f 23/122/4 22/53/4 33/55/4
f 22/53/4 27/123/4 25/54/4
f 24/61/3 27/123/3 22/53/3
f 26/60/1 28/124/1 24/61/1
f 24/61/1 21/125/1 36/59/1
f 21/125/1 35/126/1 36/59/1
f 61/94/4 6/93/4 63/127/4
f 6/93/4 31/66/4 63/127/4
f 30/67/4 2/79/4 60/65/4
f 2/79/4 62/78/4 60/65/4
f 45/128/6 46/129/6 8/130/6
f 31/70/7 6/93/7 48/68/7
f 6/93/6 47/94/6 48/68/6
f 45/128/6 8/130/6 29/69/6
f 79/131/1 78/71/1 4/71/1
f 29/92/1 8/130/1 76/90/1
f 8/130/1 77/129/1 76/90/1
f 79/131/1 4/71/1 32/91/1
f 34/132/2 33/78/2 2/79/2
f 32/35/10 4/71/10 35/33/10
f 4/71/2 36/71/2 35/33/2
f 34/132/2 2/79/2 30/34/2
f 44/133/4 38/134/4 43/82/4
f 38/134/4 37/80/4 43/82/4
f 37/80/4 48/135/4 47/81/4
f 45/136/5 37/137/5 40/138/5
f 38/134/3 41/139/3 39/140/3
f 46/84/1 45/141/1 40/85/1
f 40/85/1 39/140/1 42/83/1
f 39/140/1 41/139/1 42/83/1
f 63/142/6 49/143/6 61/86/6
f 49/143/6 52/89/6 61/86/6
f 52/89/6 56/144/6 54/87/6
f 49/145/5 60/146/5 51/147/5
f 55/97/2 53/148/2 50/95/2
f 50/95/2 51/147/2 62/96/2
f 51/147/2 60/146/2 62/96/2
f 50/95/3 56/144/3 52/89/3
f 71/100/6 73/75/6 67/77/6
f 67/77/6 68/149/6 77/101/6
f 68/149/6 76/150/6 77/101/6
f 33/55/4 58/54/4 59/55/4
f 78/72/2 79/151/2 65/44/2
f 65/44/2 66/76/2 72/104/2
f 66/76/2 74/152/2 72/104/2
f 80/129/3 8/130/3 46/129/3
f 35/33/2 34/132/2 30/34/2
f 56/36/4 53/112/4 19/37/4
f 70/39/5 72/39/5 12/39/5
f 55/40/5 58/40/5 25/41/5
f 57/42/5 54/42/5 14/43/5
f 65/44/5 79/151/5 76/45/5
f 41/47/6 44/115/6 18/48/6
f 74/50/1 73/117/1 20/51/1
f 34/56/5 35/153/5 21/57/5
f 75/59/1 70/154/1 26/60/1
f 27/62/2 28/120/2 17/63/2
f 60/65/4 63/127/4 31/66/4
f 48/68/6 45/128/6 29/69/6
f 78/71/3 75/71/3 36/71/3
f 78/72/2 72/104/2 70/73/2
f 73/75/3 74/152/3 66/76/3
f 59/78/3 62/78/3 2/79/3
f 69/83/1 80/84/1 46/84/1
f 61/86/6 54/87/6 57/87/6
f 76/90/1 79/131/1 32/91/1
f 43/82/4 47/81/4 64/81/4
f 6/93/3 61/94/3 64/94/3
f 55/97/2 62/96/2 59/98/2
f 71/100/6 77/101/6 80/101/6
f 16/103/5 71/103/5 69/103/5
f 24/61/3 28/124/3 27/123/3
f 45/136/5 48/155/5 37/137/5
f 38/134/3 44/133/3 41/139/3
f 49/145/5 63/156/5 60/146/5
f 50/95/3 53/148/3 56/144/3
f 33/55/4 25/54/4 58/54/4
f 80/129/3 77/129/3 8/130/3
