# Blender 4.3.2
# www.blender.org
mtllib openBook.mtl
o 立方体
v 4.870334 -0.176182 -3.109460
v 4.870334 0.176182 -3.109460
v 4.870334 -0.176182 3.109460
v 4.870334 0.176182 3.109460
v -4.870334 -0.176182 -3.109460
v -4.870334 0.176182 -3.109460
v -4.870334 -0.176182 3.109460
v -4.870334 0.176182 3.109460
v 4.558837 0.009676 -3.018074
v 4.558837 0.358877 -3.018074
v 4.558837 0.009676 3.018074
v 4.558837 0.358877 3.018074
v -4.558837 0.009676 -3.018074
v -4.558837 0.358877 -3.018074
v -4.558837 0.009676 3.018074
v -4.558837 0.358877 3.018074
v 4.412303 0.247512 -3.018074
v 4.412303 0.596712 -3.018074
v 4.412303 0.247512 3.018074
v 4.412303 0.596712 3.018074
v -4.412303 0.247512 -3.018074
v -4.412303 0.596712 -3.018074
v -4.412303 0.247512 3.018074
v -4.412303 0.596712 3.018074
v 4.273351 0.386939 -3.018074
v 4.273351 0.736139 -3.018074
v 4.273351 0.386939 3.018074
v 4.273351 0.736139 3.018074
v -4.273351 0.386939 -3.018074
v -4.273351 0.736139 -3.018074
v -4.273351 0.386939 3.018074
v -4.273351 0.736139 3.018074
v 0.061413 0.386939 3.018074
v -0.061413 0.386939 3.018074
v -0.061413 0.684334 3.018074
v 0.061413 0.684334 3.018074
v -0.061413 0.386939 -3.018074
v 0.061413 0.386939 -3.018074
v 0.061413 0.684334 -3.018074
v -0.061413 0.684334 -3.018074
v 0.903801 0.386939 3.018074
v 1.746188 0.386939 3.018074
v 2.588576 0.386939 3.018074
v 3.430963 0.386939 3.018074
v 3.430963 0.785843 3.018074
v 2.588576 0.812603 3.018074
v 1.746188 0.792110 3.018074
v 0.903801 0.724363 3.018074
v 0.903801 0.386939 -3.018074
v 1.746188 0.386939 -3.018074
v 2.588576 0.386939 -3.018074
v 3.430963 0.386939 -3.018074
v 3.430963 0.785843 -3.018074
v 2.588576 0.812603 -3.018074
v 1.746188 0.792110 -3.018074
v 0.903801 0.724363 -3.018074
v -0.903801 0.386939 3.018074
v -1.746188 0.386939 3.018074
v -2.588576 0.386939 3.018074
v -3.430963 0.386939 3.018074
v -3.430963 0.386939 -3.018074
v -2.588576 0.386939 -3.018074
v -1.746188 0.386939 -3.018074
v -0.903801 0.386939 -3.018074
v -0.903801 0.724363 3.018074
v -1.746188 0.792110 3.018074
v -2.588576 0.812603 3.018074
v -3.430963 0.785843 3.018074
v -0.903801 0.724363 -3.018074
v -1.746188 0.792110 -3.018074
v -2.588576 0.812603 -3.018074
v -3.430963 0.785843 -3.018074
vn 1.0000 -0.0000 -0.0000
vn -0.0000 -0.0000 1.0000
vn -1.0000 -0.0000 -0.0000
vn -0.0000 -0.0000 -1.0000
vn -0.0000 -1.0000 -0.0000
vn -0.0000 1.0000 -0.0000
vn 0.0237 0.9997 -0.0000
vn 0.0638 0.9980 -0.0000
vn 0.0589 0.9983 -0.0000
vn 0.0453 0.9990 -0.0000
vn -0.0237 0.9997 -0.0000
vn -0.0638 0.9980 -0.0000
vn -0.0523 0.9986 -0.0000
vn 0.0037 1.0000 -0.0000
vn -0.0453 0.9990 -0.0000
vn -0.0589 0.9983 -0.0000
vn -0.0037 1.0000 -0.0000
vn 0.0523 0.9986 -0.0000
vt 0.258826 0.016069
vt 0.137447 0.137447
vt 0.137447 0.016069
vt 0.258826 0.137447
vt 0.137447 0.258826
vt 0.258826 0.258826
vt 0.137447 0.380205
vt 0.258826 0.380205
vt 0.137447 0.501584
vt 0.016069 0.380205
vt 0.016069 0.258826
vt 0.380205 0.258826
vt 0.644082 0.016069
vt 0.528212 0.131939
vt 0.528212 0.016069
vt 0.644082 0.131939
vt 0.528212 0.247809
vt 0.644082 0.247809
vt 0.528212 0.363678
vt 0.644082 0.363678
vt 0.528212 0.479548
vt 0.412342 0.363678
vt 0.412342 0.247809
vt 0.759952 0.247809
vt 0.640460 0.511686
vt 0.526401 0.625744
vt 0.526401 0.511686
vt 0.640460 0.625744
vt 0.526401 0.739803
vt 0.640460 0.739803
vt 0.526401 0.853862
vt 0.640460 0.853862
vt 0.526401 0.967920
vt 0.412342 0.853862
vt 0.412342 0.739803
vt 0.754518 0.739803
vt 0.241174 0.533721
vt 0.128621 0.646274
vt 0.128621 0.533721
vt 0.296641 0.758826
vt 0.285548 0.871379
vt 0.285548 0.758826
vt 0.241174 0.758826
vt 0.128621 0.871379
vt 0.128621 0.758826
vt 0.071536 0.758826
vt 0.060443 0.871379
vt 0.060443 0.758826
vt 0.128621 0.915753
vt 0.241174 0.926846
vt 0.128621 0.926846
vt 0.353726 0.758826
vt 0.342633 0.871379
vt 0.342633 0.758826
vt 0.128621 0.747733
vt 0.128621 0.972838
vt 0.241174 0.983931
vt 0.128621 0.983931
vt 0.117528 0.871379
vt 0.117528 0.758826
vt 0.298259 0.871379
vt 0.298259 0.758826
vt 0.073154 0.871379
vt 0.073154 0.758826
vt 0.128621 0.928464
vt 0.241174 0.928464
vt 0.128621 0.703359
vt 0.241174 0.701741
vt 0.241174 0.703359
vt 0.128621 0.690648
vt 0.128621 0.701741
vt 0.241174 0.646274
vt 0.128621 0.657367
vt 0.241174 0.657367
vt 0.128621 0.668461
vt 0.241174 0.679554
vt 0.128621 0.679554
vt 0.241174 0.690648
vt 0.128621 0.939557
vt 0.241174 0.939557
vt 0.128621 0.950651
vt 0.241174 0.950651
vt 0.128621 0.961744
vt 0.241174 0.972838
vt 0.309352 0.758826
vt 0.320446 0.758826
vt 0.309352 0.871379
vt 0.331539 0.758826
vt 0.320446 0.871379
vt 0.331539 0.871379
vt 0.027162 0.758826
vt 0.016069 0.871379
vt 0.016069 0.758826
vt 0.038256 0.758826
vt 0.027162 0.871379
vt 0.049349 0.758826
vt 0.038256 0.871379
vt 0.049349 0.871379
vt 0.084247 0.758826
vt 0.095341 0.758826
vt 0.084247 0.871379
vt 0.106434 0.758826
vt 0.095341 0.871379
vt 0.106434 0.871379
vt 0.128621 0.714452
vt 0.241174 0.714452
vt 0.128621 0.725546
vt 0.241174 0.725546
vt 0.128621 0.736639
vt 0.241174 0.747733
vt 0.241174 0.871379
vt 0.128621 0.882472
vt 0.241174 0.882472
vt 0.128621 0.893566
vt 0.241174 0.904659
vt 0.128621 0.904659
vt 0.241174 0.915753
vt 0.252267 0.758826
vt 0.263361 0.758826
vt 0.252267 0.871379
vt 0.274454 0.758826
vt 0.263361 0.871379
vt 0.274454 0.871379
vt 0.258826 0.501584
vt 0.380205 0.380205
vt 0.644082 0.479548
vt 0.759952 0.363678
vt 0.640460 0.967920
vt 0.754518 0.853862
vt 0.296641 0.871379
vt 0.071536 0.871379
vt 0.353726 0.871379
vt 0.241174 0.668461
vt 0.241174 0.961744
vt 0.241174 0.736639
vt 0.241174 0.893566
s 1
usemtl マテリアル.001
f 2/1/1 3/2/1 1/3/1
f 4/4/2 7/5/2 3/2/2
f 8/6/3 5/7/3 7/5/3
f 6/8/4 1/9/4 5/7/4
f 7/5/5 1/10/5 3/11/5
f 4/12/6 6/8/6 8/6/6
f 10/13/1 11/14/1 9/15/1
f 12/16/2 15/17/2 11/14/2
f 16/18/3 13/19/3 15/17/3
f 14/20/4 9/21/4 13/19/4
f 15/17/5 9/22/5 11/23/5
f 12/24/6 14/20/6 16/18/6
f 18/25/1 19/26/1 17/27/1
f 20/28/2 23/29/2 19/26/2
f 24/30/3 21/31/3 23/29/3
f 22/32/4 17/33/4 21/31/4
f 23/29/5 17/34/5 19/35/5
f 20/36/6 22/32/6 24/30/6
f 26/37/1 27/38/1 25/39/1
f 35/40/7 69/41/8 65/42/8
f 32/43/3 29/44/3 31/45/3
f 33/46/5 49/47/5 41/48/5
f 64/49/4 40/50/4 37/51/4
f 28/52/9 53/53/10 45/54/10
f 60/55/2 32/43/2 31/45/2
f 52/56/4 26/57/4 25/58/4
f 31/45/5 61/59/5 60/60/5
f 39/61/11 35/40/7 36/62/11
f 37/63/5 33/46/5 34/64/5
f 38/65/4 40/50/4 39/66/4
f 34/67/2 36/68/2 35/69/2
f 41/70/2 36/68/2 33/71/2
f 28/72/2 44/73/2 27/38/2
f 45/74/2 43/75/2 44/73/2
f 43/75/2 47/76/2 42/77/2
f 42/77/2 48/78/2 41/70/2
f 39/66/4 49/79/4 38/65/4
f 56/80/4 50/81/4 49/79/4
f 55/82/4 51/83/4 50/81/4
f 51/83/4 53/84/4 52/56/4
f 48/85/12 39/61/11 36/62/11
f 47/86/13 56/87/12 48/85/12
f 46/88/14 55/89/13 47/86/13
f 45/54/10 54/90/14 46/88/14
f 44/91/5 25/92/5 27/93/5
f 43/94/5 52/95/5 44/91/5
f 42/96/5 51/97/5 43/94/5
f 41/48/5 50/98/5 42/96/5
f 57/99/5 37/63/5 34/64/5
f 58/100/5 64/101/5 57/99/5
f 59/102/5 63/103/5 58/100/5
f 60/60/5 62/104/5 59/102/5
f 35/69/2 57/105/2 34/67/2
f 65/106/2 58/107/2 57/105/2
f 66/108/2 59/109/2 58/107/2
f 59/109/2 68/110/2 60/55/2
f 30/111/4 61/112/4 29/44/4
f 72/113/4 62/114/4 61/112/4
f 62/114/4 70/115/4 63/116/4
f 63/116/4 69/117/4 64/49/4
f 68/118/15 30/111/16 32/43/16
f 67/119/17 72/120/15 68/118/15
f 66/121/18 71/122/17 67/119/17
f 65/42/8 70/123/18 66/121/18
f 2/1/1 4/4/1 3/2/1
f 4/4/2 8/6/2 7/5/2
f 8/6/3 6/8/3 5/7/3
f 6/8/4 2/124/4 1/9/4
f 7/5/5 5/7/5 1/10/5
f 4/12/6 2/125/6 6/8/6
f 10/13/1 12/16/1 11/14/1
f 12/16/2 16/18/2 15/17/2
f 16/18/3 14/20/3 13/19/3
f 14/20/4 10/126/4 9/21/4
f 15/17/5 13/19/5 9/22/5
f 12/24/6 10/127/6 14/20/6
f 18/25/1 20/28/1 19/26/1
f 20/28/2 24/30/2 23/29/2
f 24/30/3 22/32/3 21/31/3
f 22/32/4 18/128/4 17/33/4
f 23/29/5 21/31/5 17/34/5
f 20/36/6 18/129/6 22/32/6
f 26/37/1 28/72/1 27/38/1
f 35/40/7 40/130/7 69/41/8
f 32/43/3 30/111/3 29/44/3
f 33/46/5 38/131/5 49/47/5
f 64/49/4 69/117/4 40/50/4
f 28/52/9 26/132/9 53/53/10
f 60/55/2 68/110/2 32/43/2
f 52/56/4 53/84/4 26/57/4
f 31/45/5 29/44/5 61/59/5
f 39/61/11 40/130/7 35/40/7
f 37/63/5 38/131/5 33/46/5
f 38/65/4 37/51/4 40/50/4
f 34/67/2 33/71/2 36/68/2
f 41/70/2 48/78/2 36/68/2
f 28/72/2 45/74/2 44/73/2
f 45/74/2 46/133/2 43/75/2
f 43/75/2 46/133/2 47/76/2
f 42/77/2 47/76/2 48/78/2
f 39/66/4 56/80/4 49/79/4
f 56/80/4 55/82/4 50/81/4
f 55/82/4 54/134/4 51/83/4
f 51/83/4 54/134/4 53/84/4
f 48/85/12 56/87/12 39/61/11
f 47/86/13 55/89/13 56/87/12
f 46/88/14 54/90/14 55/89/13
f 45/54/10 53/53/10 54/90/14
f 44/91/5 52/95/5 25/92/5
f 43/94/5 51/97/5 52/95/5
f 42/96/5 50/98/5 51/97/5
f 41/48/5 49/47/5 50/98/5
f 57/99/5 64/101/5 37/63/5
f 58/100/5 63/103/5 64/101/5
f 59/102/5 62/104/5 63/103/5
f 60/60/5 61/59/5 62/104/5
f 35/69/2 65/106/2 57/105/2
f 65/106/2 66/108/2 58/107/2
f 66/108/2 67/135/2 59/109/2
f 59/109/2 67/135/2 68/110/2
f 30/111/4 72/113/4 61/112/4
f 72/113/4 71/136/4 62/114/4
f 62/114/4 71/136/4 70/115/4
f 63/116/4 70/115/4 69/117/4
f 68/118/15 72/120/15 30/111/16
f 67/119/17 71/122/17 72/120/15
f 66/121/18 70/123/18 71/122/17
f 65/42/8 69/41/8 70/123/18
