# Blender 4.3.2
# www.blender.org
mtllib playerSwitchBlockBlack.mtl
o Cube.002
v 0.740698 -0.168560 -0.027697
v 0.740698 -0.020741 -0.385396
v 0.688618 -0.168560 -0.027697
v 0.740698 -0.378440 -0.533214
v 0.688618 -0.378440 -0.533214
v 0.688618 -0.020741 -0.385396
v 0.737033 -0.143432 0.197963
v 0.737033 -0.214178 -0.174377
v 0.692284 -0.143432 0.197963
v 0.737033 -0.131349 0.441596
v 0.692285 -0.131349 0.441596
v 0.737033 -0.307712 -0.399664
v 0.692284 -0.307712 -0.399664
v 0.692284 -0.214178 -0.174377
v 0.737033 -0.236488 0.186510
v 0.737033 -0.307649 0.145910
v 0.737033 -0.344160 0.054780
v 0.737033 -0.351323 -0.040803
v 0.737033 -0.327071 -0.112888
v 0.737033 -0.283734 0.425823
v 0.737033 -0.492631 0.304921
v 0.737033 -0.580841 0.113814
v 0.737033 -0.579847 -0.126126
v 0.737033 -0.472700 -0.308580
v 0.692284 -0.283734 0.425823
v 0.692284 -0.492631 0.304921
v 0.692284 -0.580841 0.113814
v 0.692284 -0.579847 -0.126126
v 0.692284 -0.472700 -0.308580
v 0.692284 -0.236487 0.186510
v 0.692284 -0.307649 0.145910
v 0.692284 -0.344160 0.054780
v 0.692284 -0.351323 -0.040803
v 0.692284 -0.327071 -0.112888
v 0.740698 0.191747 0.007305
v 0.740698 0.062354 0.372074
v 0.688618 0.191747 0.007305
v 0.740698 0.427122 0.501467
v 0.688618 0.427122 0.501467
v 0.688618 0.062354 0.372074
v 0.737033 0.155150 -0.216780
v 0.737033 0.244783 0.151469
v 0.692284 0.155150 -0.216780
v 0.737033 0.130664 -0.459481
v 0.692284 0.130664 -0.459481
v 0.737033 0.349680 0.371696
v 0.692284 0.349680 0.371696
v 0.692284 0.244783 0.151469
v 0.737033 0.248668 -0.210086
v 0.737033 0.321806 -0.173166
v 0.737033 0.362915 -0.084015
v 0.737033 0.374941 0.011078
v 0.737033 0.354395 0.084306
v 0.737033 0.283654 -0.451496
v 0.737033 0.498443 -0.341400
v 0.737033 0.596280 -0.155037
v 0.737033 0.607517 0.084642
v 0.737033 0.509810 0.272320
v 0.692284 0.283654 -0.451496
v 0.692284 0.498443 -0.341400
v 0.692284 0.596280 -0.155037
v 0.692284 0.607517 0.084642
v 0.692284 0.509810 0.272320
v 0.692284 0.248668 -0.210086
v 0.692284 0.321806 -0.173166
v 0.692284 0.362915 -0.084015
v 0.692284 0.374941 0.011078
v 0.692284 0.354395 0.084306
v -1.000000 -1.000000 -1.000000
v 0.703420 -0.845332 -0.845332
v -1.000000 1.000000 -1.000000
v 0.703420 0.845332 -0.845332
v -1.000000 -1.000000 1.000000
v 0.703420 -0.845332 0.845332
v -1.000000 1.000000 1.000000
v 0.703420 0.845332 0.845332
v 1.000000 -1.000000 -1.000000
v -0.703420 -0.845332 -0.845332
v 1.000000 1.000000 -1.000000
v -0.703420 0.845332 -0.845332
v 1.000000 -1.000000 1.000000
v -0.703420 -0.845332 0.845332
v 1.000000 1.000000 1.000000
v -0.703420 0.845332 0.845332
v -1.000000 0.845332 -0.845332
v -1.000000 -0.845332 0.845332
v -1.000000 -0.845332 -0.845332
v -1.000000 0.845332 0.845332
v 0.845332 0.845332 -1.000000
v -0.845332 -0.845332 -1.000000
v 0.845332 -0.845332 -1.000000
v -0.845332 0.845332 -1.000000
v -0.703420 -0.845332 -0.845332
v -0.703420 0.845332 -0.845332
v -0.845332 -0.845332 -0.845332
v -0.845332 0.845332 -0.845332
v 1.000000 0.845332 0.845332
v 1.000000 -0.845332 -0.845332
v 1.000000 -0.845332 0.845332
v 1.000000 0.845332 -0.845332
v 0.703420 -0.845332 -0.845332
v 0.845332 -0.845332 -0.845332
v 0.845332 0.845332 -0.845332
v 0.703420 0.845332 -0.845332
v 0.845332 -0.845332 1.000000
v -0.845332 -0.845332 1.000000
v -0.845332 0.845332 1.000000
v 0.845332 0.845332 1.000000
v -0.845332 0.845332 0.845332
v -0.703420 0.845332 0.845332
v -0.703420 -0.845332 0.845332
v -0.845332 -0.845332 0.845332
v 0.845332 0.845332 0.845332
v 0.703420 0.845332 0.845332
v 0.703420 -0.845332 0.845332
v 0.845332 -0.845332 0.845332
v 0.845332 -1.000000 0.845332
v -0.845332 -1.000000 -0.845332
v 0.845332 -1.000000 -0.845332
v -0.845332 -1.000000 0.845332
v -0.845332 -0.845332 -0.845332
v -0.703420 -0.845332 0.845332
v -0.703420 -0.845332 -0.845332
v -0.845332 -0.845332 0.845332
v -0.703420 -0.845332 0.845332
v -0.703420 -0.845332 -0.845332
v 0.703420 -0.845332 -0.845332
v 0.845332 -0.845332 -0.845332
v 0.703420 -0.845332 0.845332
v 0.703420 -0.845332 -0.845332
v 0.845332 -0.845332 0.845332
v 0.703420 -0.845332 0.845332
v 0.845332 1.000000 -0.845332
v -0.845332 1.000000 -0.845332
v -0.845332 1.000000 0.845332
v 0.845332 1.000000 0.845332
v -0.703420 0.845332 0.845332
v -0.703420 0.845332 -0.845332
v -0.703420 0.845332 0.845332
v -0.703420 0.845332 -0.845332
v -0.845332 0.845332 0.845332
v -0.845332 0.845332 -0.845332
v 0.703420 0.845332 -0.845332
v 0.845332 0.845332 0.845332
v 0.703420 0.845332 0.845332
v 0.703420 0.845332 -0.845332
v 0.845332 0.845332 -0.845332
v 0.703420 0.845332 0.845332
v -0.703420 -0.703420 0.703420
v -0.703420 0.703420 0.703420
v -0.703420 -0.703420 -0.703420
v 0.703420 -0.703420 0.703420
v 0.703420 -0.703420 -0.703420
v 0.703420 0.703420 0.703420
v 0.703420 0.703420 -0.703420
v -0.703420 0.703420 -0.703420
v -0.027697 -0.168560 -0.740698
v -0.385396 -0.020741 -0.740698
v -0.027697 -0.168560 -0.688618
v -0.533214 -0.378440 -0.740698
v -0.533214 -0.378440 -0.688618
v -0.385396 -0.020741 -0.688618
v 0.197963 -0.143432 -0.737033
v -0.174377 -0.214178 -0.737033
v 0.197963 -0.143432 -0.692284
v 0.441596 -0.131349 -0.737033
v 0.441596 -0.131349 -0.692285
v -0.399664 -0.307712 -0.737033
v -0.399664 -0.307712 -0.692284
v -0.174377 -0.214178 -0.692284
v 0.186510 -0.236488 -0.737033
v 0.145910 -0.307649 -0.737033
v 0.054780 -0.344160 -0.737033
v -0.040803 -0.351323 -0.737033
v -0.112888 -0.327071 -0.737033
v 0.425823 -0.283734 -0.737033
v 0.304921 -0.492631 -0.737033
v 0.113814 -0.580841 -0.737033
v -0.126126 -0.579847 -0.737033
v -0.308580 -0.472700 -0.737033
v 0.425823 -0.283734 -0.692284
v 0.304921 -0.492631 -0.692284
v 0.113814 -0.580841 -0.692284
v -0.126126 -0.579847 -0.692284
v -0.308580 -0.472700 -0.692284
v 0.186510 -0.236487 -0.692284
v 0.145910 -0.307649 -0.692284
v 0.054780 -0.344160 -0.692284
v -0.040803 -0.351323 -0.692284
v -0.112888 -0.327071 -0.692284
v 0.007305 0.191747 -0.740698
v 0.372074 0.062354 -0.740698
v 0.007305 0.191747 -0.688618
v 0.501467 0.427122 -0.740698
v 0.501467 0.427122 -0.688618
v 0.372074 0.062354 -0.688618
v -0.216780 0.155150 -0.737033
v 0.151469 0.244783 -0.737033
v -0.216780 0.155150 -0.692284
v -0.459481 0.130664 -0.737033
v -0.459481 0.130664 -0.692284
v 0.371696 0.349680 -0.737033
v 0.371696 0.349680 -0.692284
v 0.151469 0.244783 -0.692284
v -0.210086 0.248668 -0.737033
v -0.173166 0.321806 -0.737033
v -0.084015 0.362915 -0.737033
v 0.011078 0.374941 -0.737033
v 0.084306 0.354395 -0.737033
v -0.451496 0.283654 -0.737033
v -0.341400 0.498443 -0.737033
v -0.155037 0.596280 -0.737033
v 0.084642 0.607517 -0.737033
v 0.272320 0.509810 -0.737033
v -0.451496 0.283654 -0.692284
v -0.341400 0.498443 -0.692284
v -0.155037 0.596280 -0.692284
v 0.084642 0.607517 -0.692284
v 0.272320 0.509810 -0.692284
v -0.210086 0.248668 -0.692284
v -0.173166 0.321806 -0.692284
v -0.084015 0.362915 -0.692284
v 0.011078 0.374941 -0.692284
v 0.084306 0.354395 -0.692284
v 0.027697 -0.168560 0.740698
v 0.385396 -0.020741 0.740698
v 0.027697 -0.168560 0.688618
v 0.533214 -0.378440 0.740698
v 0.533214 -0.378440 0.688618
v 0.385396 -0.020741 0.688618
v -0.197963 -0.143432 0.737033
v 0.174377 -0.214178 0.737033
v -0.197963 -0.143432 0.692284
v -0.441596 -0.131349 0.737033
v -0.441596 -0.131349 0.692285
v 0.399664 -0.307712 0.737033
v 0.399664 -0.307712 0.692284
v 0.174377 -0.214178 0.692284
v -0.186510 -0.236488 0.737033
v -0.145910 -0.307649 0.737033
v -0.054780 -0.344160 0.737033
v 0.040803 -0.351323 0.737033
v 0.112888 -0.327071 0.737033
v -0.425823 -0.283734 0.737033
v -0.304921 -0.492631 0.737033
v -0.113814 -0.580841 0.737033
v 0.126126 -0.579847 0.737033
v 0.308580 -0.472700 0.737033
v -0.425823 -0.283734 0.692284
v -0.304921 -0.492631 0.692284
v -0.113814 -0.580841 0.692284
v 0.126126 -0.579847 0.692284
v 0.308580 -0.472700 0.692284
v -0.186510 -0.236487 0.692284
v -0.145910 -0.307649 0.692284
v -0.054780 -0.344160 0.692284
v 0.040803 -0.351323 0.692284
v 0.112888 -0.327071 0.692284
v -0.007305 0.191747 0.740698
v -0.372074 0.062354 0.740698
v -0.007305 0.191747 0.688618
v -0.501467 0.427122 0.740698
v -0.501467 0.427122 0.688618
v -0.372074 0.062354 0.688618
v 0.216780 0.155150 0.737033
v -0.151469 0.244783 0.737033
v 0.216780 0.155150 0.692284
v 0.459481 0.130664 0.737033
v 0.459481 0.130664 0.692284
v -0.371696 0.349680 0.737033
v -0.371696 0.349680 0.692284
v -0.151469 0.244783 0.692284
v 0.210086 0.248668 0.737033
v 0.173166 0.321806 0.737033
v 0.084015 0.362915 0.737033
v -0.011078 0.374941 0.737033
v -0.084306 0.354395 0.737033
v 0.451496 0.283654 0.737033
v 0.341400 0.498443 0.737033
v 0.155037 0.596280 0.737033
v -0.084642 0.607517 0.737033
v -0.272320 0.509810 0.737033
v 0.451496 0.283654 0.692284
v 0.341400 0.498443 0.692284
v 0.155037 0.596280 0.692284
v -0.084642 0.607517 0.692284
v -0.272320 0.509810 0.692284
v 0.210086 0.248668 0.692284
v 0.173166 0.321806 0.692284
v 0.084015 0.362915 0.692284
v -0.011078 0.374941 0.692284
v -0.084306 0.354395 0.692284
v -0.740698 0.168560 -0.027697
v -0.740698 0.020741 -0.385396
v -0.688618 0.168560 -0.027697
v -0.740698 0.378440 -0.533214
v -0.688618 0.378440 -0.533214
v -0.688618 0.020741 -0.385396
v -0.737033 0.143432 0.197963
v -0.737033 0.214178 -0.174377
v -0.692284 0.143432 0.197963
v -0.737033 0.131349 0.441596
v -0.692285 0.131349 0.441596
v -0.737033 0.307712 -0.399664
v -0.692284 0.307712 -0.399664
v -0.692284 0.214178 -0.174377
v -0.737033 0.236488 0.186510
v -0.737033 0.307649 0.145910
v -0.737033 0.344160 0.054780
v -0.737033 0.351323 -0.040803
v -0.737033 0.327071 -0.112888
v -0.737033 0.283734 0.425823
v -0.737033 0.492631 0.304921
v -0.737033 0.580841 0.113814
v -0.737033 0.579847 -0.126126
v -0.737033 0.472700 -0.308580
v -0.692284 0.283734 0.425823
v -0.692284 0.492631 0.304921
v -0.692284 0.580841 0.113814
v -0.692284 0.579847 -0.126126
v -0.692284 0.472700 -0.308580
v -0.692284 0.236487 0.186510
v -0.692284 0.307649 0.145910
v -0.692284 0.344160 0.054780
v -0.692284 0.351323 -0.040803
v -0.692284 0.327071 -0.112888
v -0.740698 -0.191747 0.007305
v -0.740698 -0.062354 0.372074
v -0.688618 -0.191747 0.007305
v -0.740698 -0.427122 0.501467
v -0.688618 -0.427122 0.501467
v -0.688618 -0.062354 0.372074
v -0.737033 -0.155150 -0.216780
v -0.737033 -0.244783 0.151469
v -0.692284 -0.155150 -0.216780
v -0.737033 -0.130664 -0.459481
v -0.692284 -0.130664 -0.459481
v -0.737033 -0.349680 0.371696
v -0.692284 -0.349680 0.371696
v -0.692284 -0.244783 0.151469
v -0.737033 -0.248668 -0.210086
v -0.737033 -0.321806 -0.173166
v -0.737033 -0.362915 -0.084015
v -0.737033 -0.374941 0.011078
v -0.737033 -0.354395 0.084306
v -0.737033 -0.283654 -0.451496
v -0.737033 -0.498443 -0.341400
v -0.737033 -0.596280 -0.155037
v -0.737033 -0.607517 0.084642
v -0.737033 -0.509810 0.272320
v -0.692284 -0.283654 -0.451496
v -0.692284 -0.498443 -0.341400
v -0.692284 -0.596280 -0.155037
v -0.692284 -0.607517 0.084642
v -0.692284 -0.509810 0.272320
v -0.692284 -0.248668 -0.210086
v -0.692284 -0.321806 -0.173166
v -0.692284 -0.362915 -0.084015
v -0.692284 -0.374941 0.011078
v -0.692284 -0.354395 0.084306
vn -0.0000 0.9242 0.3819
vn 1.0000 -0.0000 -0.0000
vn -0.0000 -0.9236 0.3834
vn -0.0000 0.3819 -0.9242
vn -1.0000 -0.0000 -0.0000
vn -0.0000 0.3150 -0.9491
vn -0.0000 0.1222 -0.9925
vn -0.0000 0.9988 -0.0495
vn -0.0000 -0.3088 0.9511
vn -0.0000 -0.1030 0.9947
vn -0.0000 0.9236 -0.3834
vn -0.0000 -0.4833 -0.8755
vn -0.0000 -0.6977 -0.7164
vn -0.0000 -0.6976 -0.7164
vn -0.0000 -0.9644 -0.2644
vn -0.0000 -0.9772 0.2125
vn -0.0000 -0.7389 0.6738
vn -0.0000 -0.7390 0.6738
vn -0.0000 0.4783 0.8782
vn -0.0000 0.7659 0.6429
vn -0.0000 0.9922 0.1245
vn -0.0000 0.9741 -0.2260
vn -0.0000 0.7540 -0.6569
vn -0.0000 -0.9425 -0.3343
vn -0.0000 0.9028 -0.4300
vn -0.0000 -0.3343 0.9425
vn -0.0000 -0.2662 0.9639
vn -0.0000 -0.0714 0.9974
vn -0.0000 -0.9949 0.1004
vn -0.0000 0.2599 -0.9656
vn -0.0000 0.0521 -0.9986
vn -0.0000 -0.9028 0.4300
vn -0.0000 0.5273 0.8497
vn -0.0000 0.7333 0.6799
vn -0.0000 0.9766 0.2149
vn -0.0000 0.9651 -0.2620
vn -0.0000 0.7036 -0.7106
vn -0.0000 -0.5225 -0.8527
vn -0.0000 -0.7977 -0.6030
vn -0.0000 -0.9973 -0.0738
vn -0.0000 -0.9613 0.2753
vn -0.0000 -0.9614 0.2753
vn -0.0000 -0.7195 0.6945
vn -0.0000 -1.0000 -0.0000
vn -0.0000 -0.0000 1.0000
vn -0.0000 1.0000 -0.0000
vn -0.0000 -0.0000 -1.0000
vn -1.0000 -0.0000 0.0001
vn 1.0000 -0.0000 0.0001
vn -1.0000 -0.0000 -0.0001
vn 1.0000 -0.0000 -0.0001
vn 0.3819 0.9242 -0.0000
vn 0.3834 -0.9236 -0.0000
vn -0.9242 0.3819 -0.0000
vn -0.9491 0.3150 -0.0000
vn -0.9925 0.1222 -0.0000
vn -0.0495 0.9988 -0.0000
vn 0.9511 -0.3088 -0.0000
vn 0.9947 -0.1030 -0.0000
vn -0.3834 0.9236 -0.0000
vn -0.8755 -0.4833 -0.0000
vn -0.7164 -0.6977 -0.0000
vn -0.7164 -0.6976 -0.0000
vn -0.2644 -0.9644 -0.0000
vn 0.2125 -0.9772 -0.0000
vn 0.6738 -0.7389 -0.0000
vn 0.6738 -0.7390 -0.0000
vn 0.8782 0.4783 -0.0000
vn 0.6429 0.7659 -0.0000
vn 0.1245 0.9922 -0.0000
vn -0.2260 0.9741 -0.0000
vn -0.6569 0.7540 -0.0000
vn -0.3343 -0.9425 -0.0000
vn -0.4300 0.9028 -0.0000
vn 0.9425 -0.3343 -0.0000
vn 0.9639 -0.2662 -0.0000
vn 0.9974 -0.0714 -0.0000
vn 0.1004 -0.9949 -0.0000
vn -0.9656 0.2599 -0.0000
vn -0.9986 0.0521 -0.0000
vn 0.4300 -0.9028 -0.0000
vn 0.8497 0.5273 -0.0000
vn 0.6799 0.7333 -0.0000
vn 0.2149 0.9766 -0.0000
vn -0.2620 0.9651 -0.0000
vn -0.7106 0.7036 -0.0000
vn -0.8527 -0.5225 -0.0000
vn -0.6030 -0.7977 -0.0000
vn -0.0738 -0.9973 -0.0000
vn 0.2753 -0.9613 -0.0000
vn 0.2753 -0.9614 -0.0000
vn 0.6945 -0.7195 -0.0000
vn -0.3819 0.9242 -0.0000
vn -0.3834 -0.9236 -0.0000
vn 0.9242 0.3819 -0.0000
vn 0.9491 0.3150 -0.0000
vn 0.9925 0.1222 -0.0000
vn 0.0495 0.9988 -0.0000
vn -0.9511 -0.3088 -0.0000
vn -0.9947 -0.1030 -0.0000
vn 0.3834 0.9236 -0.0000
vn 0.8755 -0.4833 -0.0000
vn 0.7164 -0.6977 -0.0000
vn 0.7164 -0.6976 -0.0000
vn 0.2644 -0.9644 -0.0000
vn -0.2125 -0.9772 -0.0000
vn -0.6738 -0.7389 -0.0000
vn -0.6738 -0.7390 -0.0000
vn -0.8782 0.4783 -0.0000
vn -0.6429 0.7659 -0.0000
vn -0.1245 0.9922 -0.0000
vn 0.2260 0.9741 -0.0000
vn 0.6569 0.7540 -0.0000
vn 0.3343 -0.9425 -0.0000
vn 0.4300 0.9028 -0.0000
vn -0.9425 -0.3343 -0.0000
vn -0.9639 -0.2662 -0.0000
vn -0.9974 -0.0714 -0.0000
vn -0.1004 -0.9949 -0.0000
vn 0.9656 0.2599 -0.0000
vn 0.9986 0.0521 -0.0000
vn -0.4300 -0.9028 -0.0000
vn -0.8497 0.5273 -0.0000
vn -0.6799 0.7333 -0.0000
vn -0.2149 0.9766 -0.0000
vn 0.2620 0.9651 -0.0000
vn 0.7106 0.7036 -0.0000
vn 0.8527 -0.5225 -0.0000
vn 0.6030 -0.7977 -0.0000
vn 0.0738 -0.9973 -0.0000
vn -0.2753 -0.9613 -0.0000
vn -0.2753 -0.9614 -0.0000
vn -0.6945 -0.7195 -0.0000
vn -0.0000 -0.9242 0.3819
vn -0.0000 0.9236 0.3834
vn -0.0000 -0.3819 -0.9242
vn -0.0000 -0.3150 -0.9491
vn -0.0000 -0.1222 -0.9925
vn -0.0000 -0.9988 -0.0495
vn -0.0000 0.3088 0.9511
vn -0.0000 0.1030 0.9947
vn -0.0000 -0.9236 -0.3834
vn -0.0000 0.4833 -0.8755
vn -0.0000 0.6977 -0.7164
vn -0.0000 0.9644 -0.2644
vn -0.0000 0.9772 0.2125
vn -0.0000 0.7389 0.6738
vn -0.0000 0.7390 0.6738
vn -0.0000 -0.4783 0.8782
vn -0.0000 -0.7659 0.6429
vn -0.0000 -0.9922 0.1245
vn -0.0000 -0.9922 0.1246
vn -0.0000 -0.9741 -0.2260
vn -0.0000 -0.7540 -0.6569
vn -0.0000 0.9425 -0.3343
vn -0.0000 -0.9028 -0.4300
vn -0.0000 0.3343 0.9425
vn -0.0000 0.2662 0.9639
vn -0.0000 0.0714 0.9974
vn -0.0000 0.9949 0.1004
vn -0.0000 -0.2599 -0.9656
vn -0.0000 -0.0521 -0.9986
vn -0.0000 0.9028 0.4300
vn -0.0000 -0.5273 0.8497
vn -0.0000 -0.7333 0.6799
vn -0.0000 -0.9766 0.2149
vn -0.0000 -0.9651 -0.2620
vn -0.0000 -0.7036 -0.7106
vn -0.0000 0.5225 -0.8527
vn -0.0000 0.7977 -0.6030
vn -0.0000 0.9973 -0.0738
vn -0.0000 0.9613 0.2753
vn -0.0000 0.9614 0.2753
vn -0.0000 0.7195 0.6945
vt 0.716666 0.264285
vt 0.731892 0.267183
vt 0.716666 0.267183
vt 0.579700 0.895583
vt 0.560101 0.915183
vt 0.560101 0.895583
vt 0.762345 0.264285
vt 0.731892 0.264285
vt 0.701439 0.264285
vt 0.267706 0.895583
vt 0.287305 0.915183
vt 0.267706 0.915183
vt 0.113307 0.814406
vt 0.096778 0.808870
vt 0.113307 0.808870
vt 0.830658 0.568070
vt 0.826180 0.565617
vt 0.830658 0.565617
vt 0.708565 0.907936
vt 0.706299 0.895583
vt 0.708565 0.895583
vt 0.255194 0.722403
vt 0.258805 0.715810
vt 0.258805 0.722403
vt 0.764330 0.907936
vt 0.762064 0.895583
vt 0.764330 0.895583
vt 0.166806 0.814406
vt 0.183335 0.808870
vt 0.183335 0.814406
vt 0.166806 0.842083
vt 0.183335 0.836547
vt 0.183335 0.842083
vt 0.166806 0.831012
vt 0.183335 0.831012
vt 0.166806 0.825477
vt 0.183335 0.825477
vt 0.183335 0.819941
vt 0.255194 0.755371
vt 0.258805 0.748777
vt 0.258805 0.755371
vt 0.255194 0.748777
vt 0.258805 0.742184
vt 0.255194 0.735590
vt 0.258805 0.735590
vt 0.258805 0.728997
vt 0.255194 0.728997
vt 0.853049 0.565617
vt 0.848571 0.568070
vt 0.848571 0.565617
vt 0.844093 0.565617
vt 0.844093 0.568070
vt 0.839615 0.565617
vt 0.839615 0.568070
vt 0.835137 0.565617
vt 0.835137 0.568070
vt 0.113307 0.842084
vt 0.096778 0.836548
vt 0.113307 0.836548
vt 0.113307 0.831013
vt 0.096778 0.831013
vt 0.113307 0.825477
vt 0.096778 0.819941
vt 0.113307 0.819941
vt 0.716666 0.489874
vt 0.731892 0.492772
vt 0.716666 0.492772
vt 0.826180 0.094108
vt 0.853898 0.094108
vt 0.840039 0.107967
vt 0.762345 0.489874
vt 0.731892 0.489874
vt 0.701439 0.489874
vt 0.433502 0.915183
vt 0.413903 0.895583
vt 0.433502 0.895583
vt 0.526001 0.721346
vt 0.509472 0.715810
vt 0.526001 0.715810
vt 0.848571 0.624023
vt 0.853049 0.621570
vt 0.853049 0.624023
vt 0.820096 0.907936
vt 0.817830 0.895583
vt 0.820096 0.895583
vt 0.315917 0.722404
vt 0.312305 0.715810
vt 0.315917 0.715810
vt 0.907398 0.252078
vt 0.919751 0.249812
vt 0.919751 0.252078
vt 0.446921 0.814406
vt 0.463449 0.808870
vt 0.463449 0.814406
vt 0.446921 0.842083
vt 0.463449 0.836547
vt 0.463449 0.842083
vt 0.446921 0.831012
vt 0.463449 0.831012
vt 0.446921 0.825477
vt 0.463449 0.825477
vt 0.463449 0.819941
vt 0.315917 0.755371
vt 0.312305 0.748777
vt 0.315917 0.748777
vt 0.312305 0.742184
vt 0.315917 0.742184
vt 0.312305 0.735590
vt 0.315917 0.735590
vt 0.312305 0.728997
vt 0.315917 0.728997
vt 0.826180 0.624023
vt 0.830658 0.621570
vt 0.830658 0.624023
vt 0.835136 0.624023
vt 0.835136 0.621570
vt 0.839615 0.624023
vt 0.839615 0.621570
vt 0.844093 0.624023
vt 0.844093 0.621570
vt 0.526001 0.749023
vt 0.509472 0.743488
vt 0.526001 0.743488
vt 0.526001 0.737952
vt 0.509472 0.737952
vt 0.526001 0.732417
vt 0.509472 0.726881
vt 0.526001 0.726881
vt 0.026750 0.282802
vt 0.120195 0.290635
vt 0.034582 0.290635
vt 0.128027 0.384079
vt 0.034582 0.376247
vt 0.120194 0.376247
vt 0.120194 0.221470
vt 0.128026 0.229303
vt 0.026750 0.229303
vt 0.026750 0.128026
vt 0.120194 0.135859
vt 0.034582 0.135859
vt 0.376250 0.120197
vt 0.384082 0.128029
vt 0.290635 0.120197
vt 0.290635 0.034582
vt 0.282802 0.026750
vt 0.376250 0.034582
vt 0.026750 0.026750
vt 0.128026 0.026750
vt 0.034582 0.034582
vt 0.120194 0.120194
vt 0.128026 0.128026
vt 0.221470 0.221470
vt 0.229303 0.229303
vt 0.221470 0.135859
vt 0.135859 0.135859
vt 0.189359 0.376246
vt 0.181526 0.384079
vt 0.189359 0.290635
vt 0.274970 0.290635
vt 0.282803 0.282802
vt 0.274970 0.376246
vt 0.368419 0.189361
vt 0.282802 0.181529
vt 0.368419 0.181529
vt 0.701439 0.660493
vt 0.754939 0.660494
vt 0.240138 0.437579
vt 0.232305 0.523190
vt 0.232305 0.437579
vt 0.907398 0.751703
vt 0.907398 0.805203
vt 0.308009 0.523190
vt 0.315841 0.437579
vt 0.315841 0.523190
vt 0.088082 0.576694
vt 0.095914 0.583881
vt 0.095914 0.655120
vt 0.377173 0.437579
vt 0.369341 0.523195
vt 0.369341 0.437579
vt 0.402575 0.662306
vt 0.394742 0.576695
vt 0.402575 0.576695
vt 0.516012 0.463258
vt 0.523198 0.471090
vt 0.444768 0.463258
vt 0.437582 0.033936
vt 0.523194 0.041768
vt 0.437582 0.041768
vt 0.102455 0.523195
vt 0.110288 0.437579
vt 0.110288 0.523195
vt 0.033937 0.523195
vt 0.041769 0.437579
vt 0.041769 0.523195
vt 0.907398 0.858702
vt 0.907398 0.912202
vt 0.973250 0.026750
vt 0.344134 0.282802
vt 0.336302 0.368418
vt 0.336302 0.282802
vt 0.973250 0.080249
vt 0.456074 0.662306
vt 0.463907 0.576694
vt 0.463907 0.662306
vt 0.026750 0.576694
vt 0.034582 0.583881
vt 0.034582 0.655124
vt 0.523198 0.340595
vt 0.437582 0.348427
vt 0.437582 0.340595
vt 0.444769 0.225763
vt 0.437582 0.217931
vt 0.516011 0.225763
vt 0.523198 0.095268
vt 0.437582 0.103100
vt 0.437582 0.095268
vt 0.437582 0.287095
vt 0.444769 0.279263
vt 0.516011 0.279263
vt 0.437582 0.164432
vt 0.523198 0.156599
vt 0.523198 0.164432
vt 0.437582 0.401926
vt 0.516012 0.409758
vt 0.444768 0.409758
vt 0.149414 0.576694
vt 0.157246 0.662306
vt 0.149414 0.662306
vt 0.210746 0.583880
vt 0.218578 0.576694
vt 0.210746 0.655120
vt 0.279910 0.576694
vt 0.272078 0.662306
vt 0.272078 0.576694
vt 0.341242 0.576694
vt 0.333410 0.655120
vt 0.333410 0.583880
vt 0.026750 0.384079
vt 0.128027 0.282802
vt 0.034582 0.221470
vt 0.384082 0.026750
vt 0.282802 0.128029
vt 0.034582 0.120194
vt 0.120194 0.034582
vt 0.229303 0.128026
vt 0.135859 0.221470
vt 0.282803 0.384079
vt 0.181526 0.282802
vt 0.178805 0.523191
vt 0.171620 0.523191
vt 0.163787 0.523191
vt 0.163787 0.437579
vt 0.178805 0.437579
vt 0.171620 0.437579
vt 0.282802 0.196548
vt 0.282802 0.189361
vt 0.368419 0.196548
vt 0.240138 0.523190
vt 0.247323 0.523190
vt 0.247323 0.437579
vt 0.308009 0.437579
vt 0.300823 0.437579
vt 0.300823 0.523190
vt 0.095914 0.662306
vt 0.088082 0.662306
vt 0.095914 0.576694
vt 0.523198 0.463258
vt 0.437582 0.471090
vt 0.437582 0.463258
vt 0.523194 0.026750
vt 0.523194 0.033936
vt 0.437582 0.026750
vt 0.102455 0.437579
vt 0.095269 0.437579
vt 0.095269 0.523195
vt 0.033937 0.437579
vt 0.026750 0.437579
vt 0.026750 0.523195
vt 0.344134 0.368418
vt 0.351321 0.368418
vt 0.351321 0.282802
vt 0.034582 0.662310
vt 0.026750 0.662310
vt 0.034582 0.576694
vt 0.437582 0.225763
vt 0.523198 0.217931
vt 0.523198 0.225763
vt 0.523198 0.279263
vt 0.523198 0.287095
vt 0.437582 0.279263
vt 0.437582 0.409758
vt 0.523198 0.401926
vt 0.523198 0.409758
vt 0.516012 0.409758
vt 0.210746 0.576694
vt 0.218578 0.662306
vt 0.210746 0.662306
vt 0.333410 0.576694
vt 0.341242 0.662306
vt 0.333410 0.662306
vt 0.333410 0.583880
vt 0.576698 0.347472
vt 0.647939 0.276231
vt 0.647939 0.347472
vt 0.647939 0.400972
vt 0.576698 0.472213
vt 0.576698 0.400972
vt 0.701439 0.026750
vt 0.772681 0.097991
vt 0.701439 0.097991
vt 0.576698 0.596954
vt 0.647939 0.525713
vt 0.647939 0.596954
vt 0.647940 0.151490
vt 0.576698 0.222731
vt 0.576698 0.151490
vt 0.576698 0.026750
vt 0.647940 0.097991
vt 0.576698 0.097991
vt 0.716666 0.151491
vt 0.731892 0.154388
vt 0.716666 0.154388
vt 0.727035 0.836588
vt 0.727035 0.808870
vt 0.740894 0.822729
vt 0.762345 0.154388
vt 0.731892 0.151491
vt 0.762345 0.151491
vt 0.701439 0.151491
vt 0.853898 0.040609
vt 0.826180 0.040609
vt 0.840039 0.026750
vt 0.596029 0.721346
vt 0.579501 0.715810
vt 0.596029 0.715810
vt 0.830658 0.679975
vt 0.826180 0.677523
vt 0.830658 0.677522
vt 0.919750 0.138281
vt 0.907398 0.140547
vt 0.907398 0.138281
vt 0.734407 0.546271
vt 0.741000 0.549883
vt 0.734407 0.549883
vt 0.919750 0.305578
vt 0.907398 0.307844
vt 0.907398 0.305578
vt 0.586978 0.814406
vt 0.603507 0.808870
vt 0.603507 0.814406
vt 0.586978 0.842083
vt 0.603507 0.836547
vt 0.603507 0.842083
vt 0.586978 0.831012
vt 0.603507 0.831012
vt 0.586978 0.825476
vt 0.603507 0.825476
vt 0.603507 0.819941
vt 0.701439 0.546271
vt 0.708033 0.549883
vt 0.701439 0.549883
vt 0.708033 0.546271
vt 0.714626 0.549883
vt 0.721220 0.546271
vt 0.721220 0.549883
vt 0.727813 0.549883
vt 0.727813 0.546271
vt 0.853049 0.677523
vt 0.848571 0.679975
vt 0.848571 0.677522
vt 0.844093 0.677522
vt 0.844093 0.679975
vt 0.839615 0.677522
vt 0.839615 0.679975
vt 0.835137 0.677522
vt 0.835137 0.679975
vt 0.596029 0.749023
vt 0.579501 0.743488
vt 0.596029 0.743488
vt 0.596029 0.737952
vt 0.579501 0.737952
vt 0.596029 0.732417
vt 0.579501 0.726881
vt 0.596029 0.726881
vt 0.747118 0.436374
vt 0.731892 0.433477
vt 0.747118 0.433477
vt 0.826180 0.498259
vt 0.853898 0.498259
vt 0.840039 0.512118
vt 0.701439 0.436374
vt 0.731892 0.436374
vt 0.762345 0.436374
vt 0.506601 0.915183
vt 0.487002 0.895583
vt 0.506601 0.895583
vt 0.666057 0.721346
vt 0.649529 0.715810
vt 0.666057 0.715810
vt 0.830658 0.733475
vt 0.826180 0.735928
vt 0.826180 0.733475
vt 0.919750 0.640172
vt 0.907398 0.642438
vt 0.907398 0.640172
vt 0.030361 0.722403
vt 0.026750 0.715810
vt 0.030361 0.715810
vt 0.907398 0.530907
vt 0.919750 0.528641
vt 0.919750 0.530907
vt 0.657006 0.814406
vt 0.673535 0.808870
vt 0.673535 0.814406
vt 0.657006 0.842083
vt 0.673535 0.836547
vt 0.673535 0.842083
vt 0.657006 0.831012
vt 0.673535 0.831012
vt 0.657006 0.825477
vt 0.673535 0.825477
vt 0.673535 0.819941
vt 0.030361 0.755371
vt 0.026750 0.748777
vt 0.030361 0.748777
vt 0.026750 0.742184
vt 0.030361 0.742184
vt 0.026750 0.735590
vt 0.030361 0.735590
vt 0.026750 0.728997
vt 0.030361 0.728997
vt 0.853049 0.733475
vt 0.848571 0.735928
vt 0.848571 0.733475
vt 0.844093 0.733475
vt 0.844093 0.735928
vt 0.839615 0.733475
vt 0.839615 0.735928
vt 0.835137 0.733475
vt 0.835137 0.735928
vt 0.666057 0.749023
vt 0.649529 0.743488
vt 0.666057 0.743488
vt 0.666057 0.737952
vt 0.649529 0.737952
vt 0.666057 0.732417
vt 0.649529 0.726881
vt 0.666057 0.726881
vt 0.716666 0.320682
vt 0.731892 0.323580
vt 0.716666 0.323580
vt 0.853898 0.444759
vt 0.826180 0.444759
vt 0.840039 0.430900
vt 0.762345 0.323580
vt 0.731892 0.320682
vt 0.762345 0.320682
vt 0.701439 0.320682
vt 0.214206 0.915183
vt 0.194607 0.895584
vt 0.214206 0.895583
vt 0.385945 0.721346
vt 0.369416 0.715810
vt 0.385945 0.715810
vt 0.141108 0.917974
vt 0.138655 0.922452
vt 0.138655 0.917974
vt 0.907398 0.029016
vt 0.919750 0.026750
vt 0.919750 0.029016
vt 0.734407 0.603382
vt 0.741000 0.606994
vt 0.734407 0.606994
vt 0.919751 0.361344
vt 0.907398 0.363610
vt 0.907398 0.361344
vt 0.516949 0.814406
vt 0.533478 0.808870
vt 0.533478 0.814406
vt 0.516949 0.842083
vt 0.533478 0.836547
vt 0.533478 0.842083
vt 0.516949 0.831012
vt 0.533478 0.831012
vt 0.516949 0.825477
vt 0.533478 0.825477
vt 0.533478 0.819941
vt 0.701439 0.603382
vt 0.708033 0.606994
vt 0.701439 0.606994
vt 0.708033 0.603382
vt 0.714626 0.606994
vt 0.721220 0.603382
vt 0.721220 0.606994
vt 0.727813 0.606994
vt 0.727813 0.603382
vt 0.138655 0.895583
vt 0.141108 0.900061
vt 0.138655 0.900061
vt 0.138655 0.904539
vt 0.141108 0.904539
vt 0.138655 0.909018
vt 0.141108 0.909018
vt 0.138655 0.913496
vt 0.141108 0.913496
vt 0.385945 0.749023
vt 0.369416 0.743488
vt 0.385945 0.743488
vt 0.385945 0.737952
vt 0.369416 0.737952
vt 0.385945 0.732417
vt 0.369416 0.726881
vt 0.385945 0.726881
vt 0.716666 0.207888
vt 0.731892 0.210786
vt 0.716666 0.210786
vt 0.652799 0.915183
vt 0.633200 0.895583
vt 0.652799 0.895583
vt 0.762345 0.207888
vt 0.731892 0.207888
vt 0.701439 0.207888
vt 0.826180 0.363542
vt 0.853898 0.363542
vt 0.840040 0.377401
vt 0.736086 0.721346
vt 0.719557 0.715810
vt 0.736086 0.715810
vt 0.848571 0.791880
vt 0.853049 0.789428
vt 0.853049 0.791880
vt 0.919750 0.695938
vt 0.907398 0.698204
vt 0.907398 0.695938
vt 0.087472 0.722403
vt 0.083861 0.715810
vt 0.087472 0.715810
vt 0.919750 0.417109
vt 0.907398 0.419375
vt 0.907398 0.417109
vt 0.236835 0.814406
vt 0.253364 0.808870
vt 0.253364 0.814406
vt 0.236835 0.842083
vt 0.253364 0.836547
vt 0.253364 0.842083
vt 0.236835 0.831012
vt 0.253364 0.831012
vt 0.236835 0.825477
vt 0.253364 0.825477
vt 0.253364 0.819941
vt 0.087472 0.755371
vt 0.083861 0.748777
vt 0.087472 0.748777
vt 0.083861 0.742184
vt 0.087472 0.742184
vt 0.083861 0.735590
vt 0.087472 0.735590
vt 0.083861 0.728997
vt 0.087472 0.728997
vt 0.826180 0.791880
vt 0.830658 0.789428
vt 0.830658 0.791880
vt 0.835136 0.791880
vt 0.835136 0.789428
vt 0.839615 0.791880
vt 0.839615 0.789428
vt 0.844093 0.791880
vt 0.844093 0.789428
vt 0.736086 0.749023
vt 0.719557 0.743488
vt 0.736086 0.743488
vt 0.736086 0.737952
vt 0.719557 0.737952
vt 0.736086 0.732417
vt 0.719557 0.726881
vt 0.736086 0.726881
vt 0.716666 0.377080
vt 0.731892 0.379977
vt 0.716666 0.379977
vt 0.853898 0.242684
vt 0.826180 0.242684
vt 0.840039 0.228825
vt 0.762345 0.379977
vt 0.731892 0.377080
vt 0.762345 0.377080
vt 0.701439 0.377080
vt 0.360404 0.915183
vt 0.340805 0.895583
vt 0.360404 0.895583
vt 0.455973 0.721346
vt 0.439444 0.715810
vt 0.455973 0.715810
vt 0.029203 0.917974
vt 0.026750 0.922452
vt 0.026750 0.917974
vt 0.919750 0.194047
vt 0.907398 0.196313
vt 0.907398 0.194047
vt 0.140972 0.722404
vt 0.144583 0.715810
vt 0.144583 0.722404
vt 0.919750 0.082516
vt 0.907398 0.084782
vt 0.907398 0.082516
vt 0.306863 0.814406
vt 0.323392 0.808870
vt 0.323392 0.814406
vt 0.306863 0.842083
vt 0.323392 0.836547
vt 0.323392 0.842083
vt 0.306863 0.831012
vt 0.323392 0.831012
vt 0.306863 0.825477
vt 0.323392 0.825477
vt 0.323392 0.819941
vt 0.140972 0.755371
vt 0.144583 0.748777
vt 0.144583 0.755371
vt 0.140972 0.742184
vt 0.144583 0.742184
vt 0.140972 0.735590
vt 0.144583 0.735590
vt 0.144583 0.728997
vt 0.140972 0.728997
vt 0.026750 0.895583
vt 0.029203 0.900061
vt 0.026750 0.900061
vt 0.026750 0.904540
vt 0.029203 0.904540
vt 0.026750 0.909018
vt 0.029203 0.909018
vt 0.026750 0.913496
vt 0.029203 0.913496
vt 0.455973 0.749023
vt 0.439444 0.743488
vt 0.455973 0.743488
vt 0.455973 0.737952
vt 0.439444 0.737952
vt 0.455973 0.732417
vt 0.439444 0.726881
vt 0.455973 0.726881
vt 0.517406 0.622373
vt 0.520304 0.607147
vt 0.520304 0.622373
vt 0.826180 0.161467
vt 0.853898 0.161467
vt 0.840039 0.175326
vt 0.517406 0.576694
vt 0.517406 0.607147
vt 0.517406 0.637600
vt 0.853898 0.310043
vt 0.826180 0.310043
vt 0.840039 0.296184
vt 0.043278 0.814406
vt 0.026750 0.808870
vt 0.043278 0.808870
vt 0.085155 0.900061
vt 0.082702 0.895583
vt 0.085155 0.895583
vt 0.907398 0.586672
vt 0.919751 0.584406
vt 0.919751 0.586672
vt 0.201694 0.722403
vt 0.198083 0.715810
vt 0.201694 0.715810
vt 0.919750 0.472875
vt 0.907398 0.475141
vt 0.907398 0.472875
vt 0.376892 0.814406
vt 0.393421 0.808870
vt 0.393421 0.814406
vt 0.376892 0.842083
vt 0.393421 0.836547
vt 0.393421 0.842083
vt 0.376892 0.831012
vt 0.393421 0.831012
vt 0.376892 0.825477
vt 0.393421 0.825477
vt 0.393421 0.819941
vt 0.201694 0.755371
vt 0.198083 0.748777
vt 0.201694 0.748777
vt 0.198083 0.742184
vt 0.201694 0.742184
vt 0.201694 0.735590
vt 0.198083 0.728997
vt 0.201694 0.728997
vt 0.085155 0.922452
vt 0.082702 0.917974
vt 0.085155 0.917974
vt 0.085155 0.913496
vt 0.082702 0.913496
vt 0.085155 0.909018
vt 0.082702 0.909018
vt 0.085155 0.904540
vt 0.082702 0.904540
vt 0.043278 0.842084
vt 0.026750 0.836548
vt 0.043278 0.836548
vt 0.043278 0.831012
vt 0.026750 0.831012
vt 0.043278 0.825477
vt 0.026750 0.819941
vt 0.043278 0.819941
vt 0.762345 0.267183
vt 0.701439 0.267183
vt 0.096778 0.814406
vt 0.826180 0.568070
vt 0.706299 0.907936
vt 0.255194 0.715810
vt 0.762064 0.907936
vt 0.166806 0.808870
vt 0.166806 0.836547
vt 0.166806 0.819941
vt 0.255194 0.742184
vt 0.853049 0.568070
vt 0.096778 0.842084
vt 0.096778 0.825477
vt 0.762345 0.492772
vt 0.701439 0.492772
vt 0.509472 0.721346
vt 0.848571 0.621570
vt 0.817830 0.907936
vt 0.312305 0.722404
vt 0.907398 0.249813
vt 0.446921 0.808870
vt 0.446921 0.836547
vt 0.446921 0.819941
vt 0.312305 0.755371
vt 0.826180 0.621570
vt 0.509472 0.749023
vt 0.509472 0.732417
vt 0.377173 0.523195
vt 0.394742 0.662306
vt 0.456074 0.576694
vt 0.523198 0.348427
vt 0.523198 0.103100
vt 0.437582 0.156599
vt 0.157246 0.576694
vt 0.279910 0.662306
vt 0.576698 0.276231
vt 0.647939 0.472213
vt 0.772681 0.026750
vt 0.576698 0.525713
vt 0.647940 0.222731
vt 0.647940 0.026750
vt 0.701439 0.154388
vt 0.579501 0.721346
vt 0.826180 0.679975
vt 0.919750 0.140547
vt 0.741000 0.546271
vt 0.919750 0.307844
vt 0.586978 0.808870
vt 0.586978 0.836547
vt 0.586978 0.819941
vt 0.714626 0.546271
vt 0.853049 0.679975
vt 0.579501 0.749023
vt 0.579501 0.732417
vt 0.701439 0.433477
vt 0.762345 0.433477
vt 0.649529 0.721346
vt 0.830658 0.735928
vt 0.919750 0.642438
vt 0.026750 0.722403
vt 0.907398 0.528641
vt 0.657006 0.808870
vt 0.657006 0.836547
vt 0.657006 0.819941
vt 0.026750 0.755371
vt 0.853049 0.735928
vt 0.649529 0.749023
vt 0.649529 0.732417
vt 0.701439 0.323580
vt 0.369416 0.721346
vt 0.141108 0.922452
vt 0.907398 0.026750
vt 0.741000 0.603382
vt 0.919751 0.363610
vt 0.516949 0.808870
vt 0.516949 0.836547
vt 0.516949 0.819941
vt 0.714626 0.603382
vt 0.141108 0.895583
vt 0.369416 0.749023
vt 0.369416 0.732417
vt 0.762345 0.210786
vt 0.701439 0.210786
vt 0.719557 0.721346
vt 0.848571 0.789428
vt 0.919750 0.698204
vt 0.083861 0.722403
vt 0.919750 0.419375
vt 0.236835 0.808870
vt 0.236835 0.836547
vt 0.236835 0.819941
vt 0.083861 0.755371
vt 0.826180 0.789428
vt 0.719557 0.749023
vt 0.719557 0.732417
vt 0.701439 0.379977
vt 0.439444 0.721346
vt 0.029203 0.922452
vt 0.919750 0.196313
vt 0.140972 0.715810
vt 0.919750 0.084782
vt 0.306863 0.808870
vt 0.306863 0.836547
vt 0.306863 0.819941
vt 0.140972 0.748777
vt 0.029203 0.895583
vt 0.439444 0.749023
vt 0.439444 0.732417
vt 0.520304 0.576694
vt 0.520304 0.637600
vt 0.026750 0.814406
vt 0.082702 0.900061
vt 0.907398 0.584406
vt 0.198083 0.722403
vt 0.919750 0.475141
vt 0.376892 0.808870
vt 0.376892 0.836547
vt 0.376892 0.819941
vt 0.198083 0.755371
vt 0.198083 0.735590
vt 0.082702 0.922452
vt 0.026750 0.842084
vt 0.026750 0.825477
s 1
usemtl マテリアル.008
f 6/1/1 1/2/1 2/3/1
f 1/4/2 4/5/2 2/6/2
f 5/7/3 1/2/3 3/8/3
f 2/3/4 5/9/4 6/1/4
f 5/10/5 3/11/5 6/12/5
f 20/13/2 7/14/2 10/15/2
f 30/16/6 7/17/7 15/18/6
f 11/19/8 7/20/8 9/21/8
f 20/22/9 11/23/10 25/24/9
f 14/25/11 12/26/11 13/27/11
f 25/28/5 9/29/5 30/30/5
f 13/31/5 34/32/5 14/33/5
f 34/32/5 28/34/5 33/35/5
f 33/35/5 27/36/5 32/37/5
f 27/36/5 31/38/5 32/37/5
f 31/38/5 25/28/5 30/30/5
f 12/39/12 29/40/13 13/41/12
f 24/42/14 28/43/15 29/40/13
f 28/43/15 22/44/16 27/45/16
f 22/44/16 26/46/17 27/45/16
f 21/47/18 25/24/9 26/46/17
f 8/48/19 34/49/20 19/50/20
f 34/49/20 18/51/21 19/50/20
f 33/52/21 17/53/22 18/51/21
f 32/54/22 16/55/23 17/53/22
f 31/56/23 15/18/6 16/55/23
f 12/57/2 19/58/2 24/59/2
f 19/58/2 23/60/2 24/59/2
f 18/61/2 22/62/2 23/60/2
f 22/62/2 16/63/2 21/64/2
f 16/63/2 20/13/2 21/64/2
f 40/65/24 35/66/24 36/67/24
f 35/68/2 38/69/2 36/70/2
f 39/71/25 35/66/25 37/72/25
f 36/67/26 39/73/26 40/65/26
f 39/74/5 37/75/5 40/76/5
f 54/77/2 41/78/2 44/79/2
f 49/80/27 43/81/28 41/82/28
f 45/83/29 41/84/29 43/85/29
f 59/86/30 44/87/31 45/88/31
f 48/89/32 46/90/32 47/91/32
f 59/92/5 43/93/5 64/94/5
f 47/95/5 68/96/5 48/97/5
f 68/96/5 62/98/5 67/99/5
f 67/99/5 61/100/5 66/101/5
f 61/100/5 65/102/5 66/101/5
f 65/102/5 59/92/5 64/94/5
f 47/103/33 58/104/34 63/105/34
f 63/105/34 57/106/35 62/107/35
f 62/107/35 56/108/36 61/109/36
f 61/109/36 55/110/37 60/111/37
f 55/110/37 59/86/30 60/111/37
f 42/112/38 68/113/39 53/114/39
f 68/113/39 52/115/40 53/114/39
f 67/116/40 51/117/41 52/115/40
f 66/118/42 50/119/43 51/117/41
f 65/120/43 49/80/27 50/119/43
f 46/121/2 53/122/2 58/123/2
f 53/122/2 57/124/2 58/123/2
f 52/125/2 56/126/2 57/124/2
f 56/126/2 50/127/2 55/128/2
f 50/127/2 54/77/2 55/128/2
f 81/129/44 120/130/44 117/131/44
f 69/132/44 119/133/44 118/134/44
f 106/135/45 73/136/45 81/137/45
f 83/138/45 107/139/45 108/140/45
f 98/141/2 77/142/2 100/143/2
f 97/144/2 83/145/2 99/146/2
f 79/147/46 71/148/46 133/149/46
f 83/138/46 135/150/46 75/151/46
f 87/152/5 69/153/5 73/136/5
f 75/151/5 85/154/5 88/155/5
f 90/156/47 69/157/47 92/158/47
f 89/159/47 79/160/47 91/161/47
f 109/162/47 86/163/47 88/164/47
s 0
f 110/165/46 139/165/46 137/165/46
f 94/166/46 140/166/46 80/166/46
s 1
f 142/167/44 88/168/44 85/169/44
s 0
f 78/170/46 126/170/46 93/170/46
f 111/171/46 122/171/46 82/171/46
s 1
f 95/172/45 85/173/45 87/174/45
f 90/175/46 93/176/46 101/177/46
f 102/178/5 89/179/5 91/180/5
f 92/181/2 95/182/2 90/183/2
f 94/184/44 92/185/44 104/186/44
f 128/187/46 99/188/46 98/189/46
f 116/190/47 97/191/47 99/192/47
f 144/193/44 100/194/44 97/195/44
s 0
f 115/196/46 129/196/46 132/196/46
f 72/197/46 143/197/46 104/197/46
f 114/198/46 145/198/46 76/198/46
s 1
f 103/199/45 98/200/45 100/201/45
s 0
f 101/202/46 130/202/46 70/202/46
s 1
f 113/203/5 105/204/5 108/205/5
f 105/206/46 115/207/46 111/208/46
f 106/209/2 109/210/2 107/211/2
f 114/212/44 108/213/44 110/214/44
f 117/215/5 128/216/5 119/217/5
f 120/218/47 122/219/47 129/220/47
f 118/221/2 124/222/2 120/223/2
f 118/224/45 130/225/45 123/226/45
f 133/227/5 144/228/5 136/229/5
f 139/230/47 135/231/47 145/232/47
f 141/233/2 134/234/2 135/235/2
f 133/236/45 140/237/45 146/238/45
f 117/131/44 119/133/44 77/239/44
f 81/129/44 73/240/44 120/130/44
f 117/131/44 77/239/44 81/129/44
f 118/134/44 120/130/44 73/240/44
f 69/132/44 77/239/44 119/133/44
f 118/134/44 73/240/44 69/132/44
f 106/135/45 107/139/45 75/151/45
f 81/137/45 83/138/45 108/140/45
f 81/137/45 108/140/45 105/241/45
f 106/135/45 75/151/45 73/136/45
f 81/137/45 105/241/45 106/135/45
f 83/138/45 75/151/45 107/139/45
f 98/141/2 99/146/2 81/242/2
f 77/142/2 79/243/2 100/143/2
f 98/141/2 81/242/2 77/142/2
f 97/144/2 100/143/2 79/243/2
f 83/145/2 81/242/2 99/146/2
f 97/144/2 79/243/2 83/145/2
f 133/149/46 136/244/46 83/138/46
f 71/148/46 75/151/46 135/150/46
f 71/148/46 135/150/46 134/245/46
f 133/149/46 83/138/46 79/147/46
f 71/148/46 134/245/46 133/149/46
f 83/138/46 136/244/46 135/150/46
f 87/152/5 85/154/5 71/246/5
f 73/136/5 75/151/5 88/155/5
f 73/136/5 88/155/5 86/247/5
f 87/152/5 71/246/5 69/153/5
f 73/136/5 86/247/5 87/152/5
f 75/151/5 71/246/5 85/154/5
f 90/156/47 91/161/47 77/248/47
f 69/157/47 71/249/47 92/158/47
f 90/156/47 77/248/47 69/157/47
f 89/159/47 92/158/47 71/249/47
f 79/160/47 77/248/47 91/161/47
f 89/159/47 71/249/47 79/160/47
s 0
f 123/250/46 78/250/5 121/251/48
f 78/250/49 87/252/50 121/251/5
f 86/253/48 82/254/51 124/255/2
f 82/254/46 122/254/5 124/255/48
f 111/256/46 82/256/2 112/257/48
f 82/256/51 86/163/48 112/257/5
f 88/164/48 84/258/51 109/162/2
f 84/258/46 110/258/2 109/162/48
f 110/165/46 84/165/46 139/165/46
f 94/166/46 138/166/46 140/166/46
f 78/170/46 123/170/46 126/170/46
f 111/171/46 125/171/46 122/171/46
f 141/259/48 139/260/46 84/260/2
f 85/169/48 80/261/51 142/167/2
f 80/261/46 140/261/2 142/167/48
f 141/259/5 84/260/51 88/168/48
f 96/262/46 94/263/46 80/263/46
f 87/174/48 78/264/51 95/172/2
f 78/264/46 93/264/46 95/172/46
f 96/262/44 80/263/44 85/173/44
s 1
f 102/265/46 91/266/46 101/177/46
f 91/266/46 90/175/46 101/177/46
f 90/175/46 95/267/46 93/176/46
s 0
f 93/176/46 126/176/5 127/177/51
f 93/176/48 127/177/46 101/177/5
f 143/186/51 138/184/46 94/184/2
s 1
f 94/184/44 96/268/44 92/185/44
f 92/185/44 89/269/44 104/186/44
f 89/269/44 103/270/44 104/186/44
s 0
f 104/186/46 143/186/2 94/184/48
f 129/271/46 74/271/5 131/272/51
f 74/271/50 99/188/49 131/272/2
f 98/189/51 70/273/48 128/187/5
f 70/273/46 130/273/5 128/187/51
f 113/274/51 114/275/46 76/275/5
f 99/192/51 74/276/48 116/190/5
f 74/276/46 115/276/5 116/190/51
f 113/274/2 76/275/48 97/191/51
f 147/277/51 146/278/46 72/278/2
f 97/195/51 76/279/48 144/193/5
f 76/279/46 145/279/2 144/193/51
f 147/277/2 72/278/48 100/194/51
f 115/196/46 74/196/46 129/196/46
f 72/197/46 146/197/46 143/197/46
f 114/198/46 148/198/46 145/198/46
f 101/202/46 127/202/46 130/202/46
f 102/280/46 101/281/46 70/281/46
f 100/201/51 72/282/48 103/199/5
f 72/282/46 104/282/46 103/199/46
f 102/280/46 70/281/46 98/200/46
s 1
f 112/283/46 106/284/46 111/208/46
f 106/284/46 105/206/46 111/208/46
f 105/206/46 116/285/46 115/207/46
s 0
f 115/207/46 132/207/5 125/208/48
f 115/207/51 125/208/46 111/208/5
f 137/214/48 148/212/46 114/212/2
s 1
f 114/212/44 113/286/44 108/213/44
f 108/213/44 107/287/44 110/214/44
f 107/287/44 109/288/44 110/214/44
s 0
f 110/214/46 137/214/2 114/212/51
s 1
f 131/289/47 117/290/47 129/220/47
f 117/290/47 120/218/47 129/220/47
f 120/218/47 124/291/47 122/219/47
s 0
f 122/219/46 125/219/5 132/220/51
f 122/219/48 132/220/46 129/220/2
s 1
f 123/226/45 121/292/45 118/224/45
f 118/224/45 119/293/45 130/225/45
f 119/293/45 128/294/45 130/225/45
s 0
f 130/225/46 127/295/46 126/226/46
f 130/225/46 126/226/46 123/226/46
s 1
f 139/230/47 141/296/47 135/231/47
f 135/231/47 136/297/47 145/232/47
f 136/297/47 144/298/47 145/232/47
s 0
f 145/232/46 148/232/2 137/230/48
f 145/232/51 137/230/46 139/230/5
s 1
f 146/238/45 147/299/45 133/236/45
f 133/236/45 134/300/45 140/237/45
f 134/300/45 142/301/45 140/237/45
s 0
f 140/237/46 138/237/46 143/302/46
f 140/237/46 143/302/46 146/238/46
s 1
f 124/255/46 87/252/46 86/253/46
f 152/303/45 150/304/45 149/305/45
f 149/306/5 156/307/5 151/308/5
f 153/309/44 149/310/44 151/311/44
f 155/312/2 152/313/2 153/314/2
f 156/315/46 154/316/46 155/317/46
f 151/318/47 155/319/47 153/320/47
f 162/321/52 157/322/52 158/323/52
f 157/324/47 160/325/47 158/326/47
f 160/327/53 159/328/53 161/329/53
f 158/323/54 161/330/54 162/321/54
f 161/331/45 159/332/45 162/333/45
f 176/334/47 163/335/47 166/336/47
f 186/337/55 163/338/56 171/339/55
f 167/340/57 163/341/57 165/342/57
f 176/343/58 167/344/59 181/345/58
f 170/346/60 168/347/60 169/348/60
f 181/349/45 165/350/45 186/351/45
f 169/352/45 190/353/45 170/354/45
f 190/353/45 184/355/45 189/356/45
f 189/356/45 183/357/45 188/358/45
f 183/357/45 187/359/45 188/358/45
f 187/359/45 181/349/45 186/351/45
f 168/360/61 185/361/62 169/362/61
f 180/363/63 184/364/64 185/361/62
f 184/364/64 178/365/65 183/366/65
f 178/365/65 182/367/66 183/366/65
f 177/368/67 181/345/58 182/367/66
f 164/369/68 190/370/69 175/371/69
f 190/370/69 174/372/70 175/371/69
f 189/373/70 173/374/71 174/372/70
f 188/375/71 172/376/72 173/374/71
f 187/377/72 171/339/55 172/376/72
f 168/378/47 175/379/47 180/380/47
f 175/379/47 179/381/47 180/380/47
f 174/382/47 178/383/47 179/381/47
f 178/383/47 172/384/47 177/385/47
f 172/384/47 176/334/47 177/385/47
f 196/386/73 191/387/73 192/388/73
f 191/389/47 194/390/47 192/391/47
f 195/392/74 191/387/74 193/393/74
f 192/388/75 195/394/75 196/386/75
f 195/395/45 193/396/45 196/397/45
f 210/398/47 197/399/47 200/400/47
f 205/401/76 199/402/77 197/403/77
f 201/404/78 197/405/78 199/406/78
f 215/407/79 200/408/80 201/409/80
f 204/410/81 202/411/81 203/412/81
f 215/413/45 199/414/45 220/415/45
f 203/416/45 224/417/45 204/418/45
f 224/417/45 218/419/45 223/420/45
f 223/420/45 217/421/45 222/422/45
f 217/421/45 221/423/45 222/422/45
f 221/423/45 215/413/45 220/415/45
f 203/424/82 214/425/83 219/426/83
f 219/426/83 213/427/84 218/428/84
f 218/428/84 212/429/85 217/430/85
f 217/430/85 211/431/86 216/432/86
f 211/431/86 215/407/79 216/432/86
f 198/433/87 224/434/88 209/435/88
f 224/434/88 208/436/89 209/435/88
f 223/437/89 207/438/90 208/436/89
f 222/439/91 206/440/92 207/438/90
f 221/441/92 205/401/76 206/440/92
f 202/442/47 209/443/47 214/444/47
f 209/443/47 213/445/47 214/444/47
f 208/446/47 212/447/47 213/445/47
f 212/447/47 206/448/47 211/449/47
f 206/448/47 210/398/47 211/449/47
f 230/450/93 225/451/93 226/452/93
f 225/453/45 228/454/45 226/455/45
f 228/456/94 227/457/94 229/458/94
f 226/452/95 229/459/95 230/450/95
f 229/460/47 227/461/47 230/462/47
f 244/463/45 231/464/45 234/465/45
f 254/466/96 231/467/97 239/468/96
f 235/469/98 231/470/98 233/471/98
f 244/472/99 235/473/100 249/474/99
f 238/475/101 236/476/101 237/477/101
f 249/478/47 233/479/47 254/480/47
f 237/481/47 258/482/47 238/483/47
f 258/482/47 252/484/47 257/485/47
f 257/485/47 251/486/47 256/487/47
f 251/486/47 255/488/47 256/487/47
f 255/488/47 249/478/47 254/480/47
f 236/489/102 253/490/103 237/491/102
f 248/492/104 252/493/105 253/490/103
f 252/493/105 246/494/106 251/495/106
f 246/494/106 250/496/107 251/495/106
f 245/497/108 249/474/99 250/496/107
f 232/498/109 258/499/110 243/500/110
f 258/499/110 242/501/111 243/500/110
f 257/502/111 241/503/112 242/501/111
f 256/504/112 240/505/113 241/503/112
f 255/506/113 239/468/96 240/505/113
f 236/507/45 243/508/45 248/509/45
f 243/508/45 247/510/45 248/509/45
f 242/511/45 246/512/45 247/510/45
f 246/512/45 240/513/45 245/514/45
f 240/513/45 244/463/45 245/514/45
f 264/515/114 259/516/114 260/517/114
f 259/518/45 262/519/45 260/520/45
f 263/521/115 259/516/115 261/522/115
f 260/517/116 263/523/116 264/515/116
f 263/524/47 261/525/47 264/526/47
f 278/527/45 265/528/45 268/529/45
f 273/530/117 267/531/118 265/532/118
f 269/533/119 265/534/119 267/535/119
f 283/536/120 268/537/121 269/538/121
f 272/539/122 270/540/122 271/541/122
f 283/542/47 267/543/47 288/544/47
f 271/545/47 292/546/47 272/547/47
f 292/546/47 286/548/47 291/549/47
f 291/549/47 285/550/47 290/551/47
f 285/550/47 289/552/47 290/551/47
f 289/552/47 283/542/47 288/544/47
f 271/553/123 282/554/124 287/555/124
f 287/555/124 281/556/125 286/557/125
f 286/557/125 280/558/126 285/559/126
f 285/559/126 279/560/127 284/561/127
f 279/560/127 283/536/120 284/561/127
f 266/562/128 292/563/129 277/564/129
f 292/563/129 276/565/130 277/564/129
f 291/566/130 275/567/131 276/565/130
f 290/568/132 274/569/133 275/567/131
f 289/570/133 273/530/117 274/569/133
f 270/571/45 277/572/45 282/573/45
f 277/572/45 281/574/45 282/573/45
f 276/575/45 280/576/45 281/574/45
f 280/576/45 274/577/45 279/578/45
f 274/577/45 278/527/45 279/578/45
f 298/579/134 293/580/134 294/581/134
f 293/582/5 296/583/5 294/584/5
f 296/585/135 295/586/135 297/587/135
f 294/581/136 297/588/136 298/579/136
f 297/589/2 295/590/2 298/591/2
f 312/592/5 299/593/5 302/594/5
f 322/595/137 299/596/138 307/597/137
f 303/598/139 299/599/139 301/600/139
f 312/601/140 303/602/141 317/603/140
f 306/604/142 304/605/142 305/606/142
f 317/607/2 301/608/2 322/609/2
f 305/610/2 326/611/2 306/612/2
f 326/611/2 320/613/2 325/614/2
f 325/614/2 319/615/2 324/616/2
f 319/615/2 323/617/2 324/616/2
f 323/617/2 317/607/2 322/609/2
f 304/618/143 321/619/144 305/620/143
f 321/619/144 315/621/145 320/622/145
f 320/622/145 314/623/146 319/624/146
f 314/623/146 318/625/147 319/624/146
f 313/626/148 317/603/140 318/625/147
f 300/627/149 326/628/150 311/629/150
f 326/628/150 310/630/151 311/629/150
f 325/631/152 309/632/153 310/630/151
f 324/633/153 308/634/154 309/632/153
f 323/635/154 307/597/137 308/634/154
f 304/636/5 311/637/5 316/638/5
f 311/637/5 315/639/5 316/638/5
f 310/640/5 314/641/5 315/639/5
f 314/641/5 308/642/5 313/643/5
f 308/642/5 312/592/5 313/643/5
f 332/644/155 327/645/155 328/646/155
f 327/647/5 330/648/5 328/649/5
f 331/650/156 327/645/156 329/651/156
f 328/646/157 331/652/157 332/644/157
f 331/653/2 329/654/2 332/655/2
f 346/656/5 333/657/5 336/658/5
f 341/659/158 335/660/159 333/661/159
f 337/662/160 333/663/160 335/664/160
f 351/665/161 336/666/162 337/667/162
f 340/668/163 338/669/163 339/670/163
f 351/671/2 335/672/2 356/673/2
f 339/674/2 360/675/2 340/676/2
f 360/675/2 354/677/2 359/678/2
f 359/678/2 353/679/2 358/680/2
f 353/679/2 357/681/2 358/680/2
f 357/681/2 351/671/2 356/673/2
f 339/682/164 350/683/165 355/684/165
f 355/684/165 349/685/166 354/686/166
f 349/685/166 353/687/167 354/686/166
f 353/687/167 347/688/168 352/689/168
f 347/688/168 351/665/161 352/689/168
f 334/690/169 360/691/170 345/692/170
f 360/691/170 344/693/171 345/692/170
f 359/694/171 343/695/172 344/693/171
f 358/696/173 342/697/174 343/695/172
f 357/698/174 341/659/158 342/697/174
f 338/699/5 345/700/5 350/701/5
f 345/700/5 349/702/5 350/701/5
f 344/703/5 348/704/5 349/702/5
f 348/704/5 342/705/5 347/706/5
f 342/705/5 346/656/5 347/706/5
f 6/1/1 3/8/1 1/2/1
f 5/7/3 4/707/3 1/2/3
f 2/3/4 4/708/4 5/9/4
f 20/13/2 15/709/2 7/14/2
f 30/16/6 9/710/7 7/17/7
f 11/19/8 10/711/8 7/20/8
f 20/22/9 10/712/10 11/23/10
f 14/25/11 8/713/11 12/26/11
f 25/28/5 11/714/5 9/29/5
f 13/31/5 29/715/5 34/32/5
f 34/32/5 29/715/5 28/34/5
f 33/35/5 28/34/5 27/36/5
f 27/36/5 26/716/5 31/38/5
f 31/38/5 26/716/5 25/28/5
f 12/39/12 24/42/14 29/40/13
f 24/42/14 23/717/15 28/43/15
f 28/43/15 23/717/15 22/44/16
f 22/44/16 21/47/18 26/46/17
f 21/47/18 20/22/9 25/24/9
f 8/48/19 14/718/19 34/49/20
f 34/49/20 33/52/21 18/51/21
f 33/52/21 32/54/22 17/53/22
f 32/54/22 31/56/23 16/55/23
f 31/56/23 30/16/6 15/18/6
f 12/57/2 8/719/2 19/58/2
f 19/58/2 18/61/2 23/60/2
f 18/61/2 17/720/2 22/62/2
f 22/62/2 17/720/2 16/63/2
f 16/63/2 15/709/2 20/13/2
f 40/65/24 37/72/24 35/66/24
f 39/71/25 38/721/25 35/66/25
f 36/67/26 38/722/26 39/73/26
f 54/77/2 49/723/2 41/78/2
f 49/80/27 64/724/27 43/81/28
f 45/83/29 44/725/29 41/84/29
f 59/86/30 54/726/30 44/87/31
f 48/89/32 42/727/32 46/90/32
f 59/92/5 45/728/5 43/93/5
f 47/95/5 63/729/5 68/96/5
f 68/96/5 63/729/5 62/98/5
f 67/99/5 62/98/5 61/100/5
f 61/100/5 60/730/5 65/102/5
f 65/102/5 60/730/5 59/92/5
f 47/103/33 46/731/33 58/104/34
f 63/105/34 58/104/34 57/106/35
f 62/107/35 57/106/35 56/108/36
f 61/109/36 56/108/36 55/110/37
f 55/110/37 54/726/30 59/86/30
f 42/112/38 48/732/38 68/113/39
f 68/113/39 67/116/40 52/115/40
f 67/116/40 66/118/42 51/117/41
f 66/118/42 65/120/43 50/119/43
f 65/120/43 64/724/27 49/80/27
f 46/121/2 42/733/2 53/122/2
f 53/122/2 52/125/2 57/124/2
f 52/125/2 51/734/2 56/126/2
f 56/126/2 51/734/2 50/127/2
f 50/127/2 49/723/2 54/77/2
f 109/162/47 112/257/47 86/163/47
f 142/167/44 141/259/44 88/168/44
f 95/172/45 96/262/45 85/173/45
f 102/178/5 103/735/5 89/179/5
f 92/181/2 96/736/2 95/182/2
f 128/187/46 131/272/46 99/188/46
f 116/190/47 113/274/47 97/191/47
f 144/193/44 147/277/44 100/194/44
f 103/199/45 102/280/45 98/200/45
f 113/203/5 116/737/5 105/204/5
f 106/209/2 112/738/2 109/210/2
f 117/215/5 131/739/5 128/216/5
f 118/221/2 121/740/2 124/222/2
f 133/227/5 147/741/5 144/228/5
f 141/233/2 142/742/2 134/234/2
f 124/255/46 121/251/46 87/252/46
f 152/303/45 154/743/45 150/304/45
f 149/306/5 150/744/5 156/307/5
f 153/309/44 152/745/44 149/310/44
f 155/312/2 154/746/2 152/313/2
f 156/315/46 150/747/46 154/316/46
f 151/318/47 156/748/47 155/319/47
f 162/321/52 159/328/52 157/322/52
f 160/327/53 157/322/53 159/328/53
f 158/323/54 160/749/54 161/330/54
f 176/334/47 171/750/47 163/335/47
f 186/337/55 165/751/56 163/338/56
f 167/340/57 166/752/57 163/341/57
f 176/343/58 166/753/59 167/344/59
f 170/346/60 164/754/60 168/347/60
f 181/349/45 167/755/45 165/350/45
f 169/352/45 185/756/45 190/353/45
f 190/353/45 185/756/45 184/355/45
f 189/356/45 184/355/45 183/357/45
f 183/357/45 182/757/45 187/359/45
f 187/359/45 182/757/45 181/349/45
f 168/360/61 180/363/63 185/361/62
f 180/363/63 179/758/64 184/364/64
f 184/364/64 179/758/64 178/365/65
f 178/365/65 177/368/67 182/367/66
f 177/368/67 176/343/58 181/345/58
f 164/369/68 170/759/68 190/370/69
f 190/370/69 189/373/70 174/372/70
f 189/373/70 188/375/71 173/374/71
f 188/375/71 187/377/72 172/376/72
f 187/377/72 186/337/55 171/339/55
f 168/378/47 164/760/47 175/379/47
f 175/379/47 174/382/47 179/381/47
f 174/382/47 173/761/47 178/383/47
f 178/383/47 173/761/47 172/384/47
f 172/384/47 171/750/47 176/334/47
f 196/386/73 193/393/73 191/387/73
f 195/392/74 194/762/74 191/387/74
f 192/388/75 194/763/75 195/394/75
f 210/398/47 205/764/47 197/399/47
f 205/401/76 220/765/76 199/402/77
f 201/404/78 200/766/78 197/405/78
f 215/407/79 210/767/79 200/408/80
f 204/410/81 198/768/81 202/411/81
f 215/413/45 201/769/45 199/414/45
f 203/416/45 219/770/45 224/417/45
f 224/417/45 219/770/45 218/419/45
f 223/420/45 218/419/45 217/421/45
f 217/421/45 216/771/45 221/423/45
f 221/423/45 216/771/45 215/413/45
f 203/424/82 202/772/82 214/425/83
f 219/426/83 214/425/83 213/427/84
f 218/428/84 213/427/84 212/429/85
f 217/430/85 212/429/85 211/431/86
f 211/431/86 210/767/79 215/407/79
f 198/433/87 204/773/87 224/434/88
f 224/434/88 223/437/89 208/436/89
f 223/437/89 222/439/91 207/438/90
f 222/439/91 221/441/92 206/440/92
f 221/441/92 220/765/76 205/401/76
f 202/442/47 198/774/47 209/443/47
f 209/443/47 208/446/47 213/445/47
f 208/446/47 207/775/47 212/447/47
f 212/447/47 207/775/47 206/448/47
f 206/448/47 205/764/47 210/398/47
f 230/450/93 227/457/93 225/451/93
f 228/456/94 225/451/94 227/457/94
f 226/452/95 228/776/95 229/459/95
f 244/463/45 239/777/45 231/464/45
f 254/466/96 233/778/97 231/467/97
f 235/469/98 234/779/98 231/470/98
f 244/472/99 234/780/100 235/473/100
f 238/475/101 232/781/101 236/476/101
f 249/478/47 235/782/47 233/479/47
f 237/481/47 253/783/47 258/482/47
f 258/482/47 253/783/47 252/484/47
f 257/485/47 252/484/47 251/486/47
f 251/486/47 250/784/47 255/488/47
f 255/488/47 250/784/47 249/478/47
f 236/489/102 248/492/104 253/490/103
f 248/492/104 247/785/105 252/493/105
f 252/493/105 247/785/105 246/494/106
f 246/494/106 245/497/108 250/496/107
f 245/497/108 244/472/99 249/474/99
f 232/498/109 238/786/109 258/499/110
f 258/499/110 257/502/111 242/501/111
f 257/502/111 256/504/112 241/503/112
f 256/504/112 255/506/113 240/505/113
f 255/506/113 254/466/96 239/468/96
f 236/507/45 232/787/45 243/508/45
f 243/508/45 242/511/45 247/510/45
f 242/511/45 241/788/45 246/512/45
f 246/512/45 241/788/45 240/513/45
f 240/513/45 239/777/45 244/463/45
f 264/515/114 261/522/114 259/516/114
f 263/521/115 262/789/115 259/516/115
f 260/517/116 262/790/116 263/523/116
f 278/527/45 273/791/45 265/528/45
f 273/530/117 288/792/117 267/531/118
f 269/533/119 268/793/119 265/534/119
f 283/536/120 278/794/120 268/537/121
f 272/539/122 266/795/122 270/540/122
f 283/542/47 269/796/47 267/543/47
f 271/545/47 287/797/47 292/546/47
f 292/546/47 287/797/47 286/548/47
f 291/549/47 286/548/47 285/550/47
f 285/550/47 284/798/47 289/552/47
f 289/552/47 284/798/47 283/542/47
f 271/553/123 270/799/123 282/554/124
f 287/555/124 282/554/124 281/556/125
f 286/557/125 281/556/125 280/558/126
f 285/559/126 280/558/126 279/560/127
f 279/560/127 278/794/120 283/536/120
f 266/562/128 272/800/128 292/563/129
f 292/563/129 291/566/130 276/565/130
f 291/566/130 290/568/132 275/567/131
f 290/568/132 289/570/133 274/569/133
f 289/570/133 288/792/117 273/530/117
f 270/571/45 266/801/45 277/572/45
f 277/572/45 276/575/45 281/574/45
f 276/575/45 275/802/45 280/576/45
f 280/576/45 275/802/45 274/577/45
f 274/577/45 273/791/45 278/527/45
f 298/579/134 295/586/134 293/580/134
f 296/585/135 293/580/135 295/586/135
f 294/581/136 296/803/136 297/588/136
f 312/592/5 307/804/5 299/593/5
f 322/595/137 301/805/138 299/596/138
f 303/598/139 302/806/139 299/599/139
f 312/601/140 302/807/141 303/602/141
f 306/604/142 300/808/142 304/605/142
f 317/607/2 303/809/2 301/608/2
f 305/610/2 321/810/2 326/611/2
f 326/611/2 321/810/2 320/613/2
f 325/614/2 320/613/2 319/615/2
f 319/615/2 318/811/2 323/617/2
f 323/617/2 318/811/2 317/607/2
f 304/618/143 316/812/144 321/619/144
f 321/619/144 316/812/144 315/621/145
f 320/622/145 315/621/145 314/623/146
f 314/623/146 313/626/148 318/625/147
f 313/626/148 312/601/140 317/603/140
f 300/627/149 306/813/149 326/628/150
f 326/628/150 325/631/152 310/630/151
f 325/631/152 324/633/153 309/632/153
f 324/633/153 323/635/154 308/634/154
f 323/635/154 322/595/137 307/597/137
f 304/636/5 300/814/5 311/637/5
f 311/637/5 310/640/5 315/639/5
f 310/640/5 309/815/5 314/641/5
f 314/641/5 309/815/5 308/642/5
f 308/642/5 307/804/5 312/592/5
f 332/644/155 329/651/155 327/645/155
f 331/650/156 330/816/156 327/645/156
f 328/646/157 330/817/157 331/652/157
f 346/656/5 341/818/5 333/657/5
f 341/659/158 356/819/158 335/660/159
f 337/662/160 336/820/160 333/663/160
f 351/665/161 346/821/161 336/666/162
f 340/668/163 334/822/163 338/669/163
f 351/671/2 337/823/2 335/672/2
f 339/674/2 355/824/2 360/675/2
f 360/675/2 355/824/2 354/677/2
f 359/678/2 354/677/2 353/679/2
f 353/679/2 352/825/2 357/681/2
f 357/681/2 352/825/2 351/671/2
f 339/682/164 338/826/164 350/683/165
f 355/684/165 350/683/165 349/685/166
f 349/685/166 348/827/167 353/687/167
f 353/687/167 348/827/167 347/688/168
f 347/688/168 346/821/161 351/665/161
f 334/690/169 340/828/169 360/691/170
f 360/691/170 359/694/171 344/693/171
f 359/694/171 358/696/173 343/695/172
f 358/696/173 357/698/174 342/697/174
f 357/698/174 356/819/158 341/659/158
f 338/699/5 334/829/5 345/700/5
f 345/700/5 344/703/5 349/702/5
f 344/703/5 343/830/5 348/704/5
f 348/704/5 343/830/5 342/705/5
f 342/705/5 341/818/5 346/656/5
