{
	"asset":{
		"generator":"Khronos glTF Blender I/O v4.2.57",
		"version":"2.0"
	},
	"scene":0,
	"scenes":[
		{
			"name":"Scene",
			"nodes":[
				0
			]
		}
	],
	"nodes":[
		{
			"mesh":0,
			"name":"\u7403",
			"translation":[
				0,
				-0.8170559406280518,
				0
			]
		}
	],
	"materials":[
		{
			"doubleSided":true,
			"name":"\u30de\u30c6\u30ea\u30a2\u30eb.005",
			"pbrMetallicRoughness":{
				"baseColorTexture":{
					"index":0
				},
				"metallicFactor":0,
				"roughnessFactor":0.5
			}
		}
	],
	"meshes":[
		{
			"name":"\u7403.056",
			"primitives":[
				{
					"attributes":{
						"POSITION":0,
						"NORMAL":1,
						"TEXCOORD_0":2,
						"COLOR_0":3,
						"COLOR_1":4,
						"COLOR_2":5,
						"COLOR_3":6
					},
					"indices":7,
					"material":0
				}
			]
		}
	],
	"textures":[
		{
			"sampler":0,
			"source":0
		}
	],
	"images":[
		{
			"mimeType":"image/png",
			"name":"player.png",
			"uri":"game/player.png"
		}
	],
	"accessors":[
		{
			"bufferView":0,
			"componentType":5126,
			"count":3712,
			"max":[
				1.8642652034759521,
				4.033405303955078,
				1.1097005605697632
			],
			"min":[
				-1.8642656803131104,
				-0.002729224506765604,
				-0.8981236815452576
			],
			"type":"VEC3"
		},
		{
			"bufferView":1,
			"componentType":5126,
			"count":3712,
			"type":"VEC3"
		},
		{
			"bufferView":2,
			"componentType":5126,
			"count":3712,
			"type":"VEC2"
		},
		{
			"bufferView":3,
			"componentType":5121,
			"count":3712,
			"normalized":true,
			"type":"VEC4"
		},
		{
			"bufferView":4,
			"componentType":5126,
			"count":3712,
			"type":"VEC3"
		},
		{
			"bufferView":5,
			"componentType":5126,
			"count":3712,
			"type":"VEC3"
		},
		{
			"bufferView":6,
			"componentType":5126,
			"count":3712,
			"type":"VEC3"
		},
		{
			"bufferView":7,
			"componentType":5123,
			"count":17847,
			"type":"SCALAR"
		}
	],
	"bufferViews":[
		{
			"buffer":0,
			"byteLength":44544,
			"byteOffset":0,
			"target":34962
		},
		{
			"buffer":0,
			"byteLength":44544,
			"byteOffset":44544,
			"target":34962
		},
		{
			"buffer":0,
			"byteLength":29696,
			"byteOffset":89088,
			"target":34962
		},
		{
			"buffer":0,
			"byteLength":14848,
			"byteOffset":118784,
			"target":34962
		},
		{
			"buffer":0,
			"byteLength":44544,
			"byteOffset":133632,
			"target":34962
		},
		{
			"buffer":0,
			"byteLength":44544,
			"byteOffset":178176,
			"target":34962
		},
		{
			"buffer":0,
			"byteLength":44544,
			"byteOffset":222720,
			"target":34962
		},
		{
			"buffer":0,
			"byteLength":35694,
			"byteOffset":267264,
			"target":34963
		}
	],
	"samplers":[
		{
			"magFilter":9729,
			"minFilter":9987
		}
	],
	"buffers":[
		{
			"byteLength":302960,
			"uri":"player.bin"
		}
	]
}
