# Blender 4.3.2
# www.blender.org
mtllib R.mtl
o 立方体
v 0.771998 0.010616 -3.474709
v 0.771998 0.099014 -3.474709
v 0.771998 0.010616 -2.489548
v 0.771998 0.099014 -2.489548
v -0.771998 0.010616 -3.474709
v -0.771998 0.099014 -3.474709
v -0.620096 0.010616 -2.680117
v -0.621510 0.099014 -2.660628
v -0.465105 0.010616 -2.669376
v -0.238000 0.010616 -2.550309
v 0.000000 0.010616 -2.489548
v 0.257333 0.010616 -2.489548
v 0.514666 0.010616 -2.489548
v 0.514666 0.099014 -2.489548
v 0.257333 0.099014 -2.489548
v -0.000000 0.099014 -2.489548
v -0.266852 0.099014 -2.516418
v -0.514666 0.099014 -2.585762
v 0.514666 0.010616 -3.474709
v 0.257333 0.010616 -3.474709
v -0.000000 0.010616 -3.474709
v -0.257333 0.010616 -3.474709
v -0.514666 0.010616 -3.474709
v -0.514666 0.099014 -3.474709
v -0.257333 0.099014 -3.474709
v 0.000000 0.099014 -3.474709
v 0.257333 0.099014 -3.474709
v 0.514666 0.099014 -3.474709
v 0.771998 0.010616 -2.735838
v 0.771998 0.010616 -2.982128
v 0.771998 0.010616 -3.228419
v 0.771998 0.099014 -3.228419
v 0.771998 0.099014 -2.982128
v 0.771998 0.099014 -2.735838
v -0.771998 0.010616 -3.228419
v -0.712342 0.010616 -3.009968
v -0.722285 0.010616 -2.876693
v -0.679260 0.099014 -2.736527
v -0.739934 0.099014 -2.975227
v -0.771998 0.099014 -3.228419
v -0.514666 0.099014 -2.735838
v -0.514666 0.099014 -2.982128
v -0.514666 0.099014 -3.228419
v -0.257333 0.099014 -2.735838
v -0.257333 0.099014 -2.982128
v -0.257333 0.099014 -3.228419
v -0.000000 0.099014 -2.735838
v 0.000000 0.099014 -2.982128
v 0.000000 0.099014 -3.228419
v 0.257333 0.099014 -2.735838
v 0.257333 0.099014 -2.982128
v 0.257333 0.099014 -3.228419
v 0.514666 0.099014 -2.735838
v 0.514666 0.099014 -2.982128
v 0.514666 0.099014 -3.228419
v 0.514666 0.010616 -2.735838
v 0.514666 0.010616 -2.982128
v 0.514666 0.010616 -3.228419
v 0.257333 0.010616 -2.735838
v 0.257333 0.010616 -2.982128
v 0.257333 0.010616 -3.228419
v 0.000000 0.010616 -2.735838
v 0.000000 0.010616 -2.982128
v -0.000000 0.010616 -3.228419
v -0.257333 0.010616 -2.735838
v -0.257333 0.010616 -2.982128
v -0.257333 0.010616 -3.228419
v -0.514666 0.010616 -2.735838
v -0.514666 0.010616 -2.982128
v -0.514666 0.010616 -3.228419
v 0.737239 0.017954 -3.456982
v 0.737239 0.167450 -3.456982
v 0.737239 0.017954 -2.516178
v 0.737239 0.167450 -2.516178
v -0.737239 0.017954 -3.456982
v -0.737239 0.167450 -3.456982
v -0.592176 0.017954 -2.698166
v -0.593526 0.167450 -2.679555
v -0.444164 0.017954 -2.687909
v -0.227284 0.017954 -2.574203
v 0.000000 0.017954 -2.516178
v 0.245746 0.017954 -2.516178
v 0.491493 0.017954 -2.516178
v 0.491493 0.167450 -2.516178
v 0.245746 0.167450 -2.516178
v -0.000000 0.167450 -2.516178
v -0.254837 0.167450 -2.541838
v -0.491493 0.167450 -2.608060
v 0.491493 0.017954 -3.456982
v 0.245746 0.017954 -3.456982
v -0.000000 0.017954 -3.456982
v -0.245746 0.017954 -3.456982
v -0.491493 0.017954 -3.456982
v -0.491493 0.167450 -3.456982
v -0.245746 0.167450 -3.456982
v 0.000000 0.167450 -3.456982
v 0.245746 0.167450 -3.456982
v 0.491493 0.167450 -3.456982
v 0.737239 0.017954 -2.751379
v 0.737239 0.017954 -2.986580
v 0.737239 0.017954 -3.221781
v 0.737239 0.167450 -3.221781
v 0.737239 0.167450 -2.986580
v 0.737239 0.167450 -2.751379
v -0.737239 0.017954 -3.221781
v -0.680269 0.017954 -3.013166
v -0.689764 0.017954 -2.885892
v -0.648676 0.167450 -2.752037
v -0.706619 0.167450 -2.979989
v -0.737239 0.167450 -3.221781
v -0.491493 0.167450 -2.751379
v -0.491493 0.167450 -2.986580
v -0.491493 0.167450 -3.221781
v -0.245746 0.167450 -2.751379
v -0.245746 0.167450 -2.986580
v -0.245746 0.167450 -3.221781
v -0.000000 0.167450 -2.751379
v 0.000000 0.167450 -2.986580
v 0.000000 0.167450 -3.221781
v 0.245746 0.167450 -2.751379
v 0.245746 0.167450 -2.986580
v 0.245746 0.167450 -3.221781
v 0.491493 0.167450 -2.751379
v 0.491493 0.167450 -2.986580
v 0.491493 0.167450 -3.221781
v 0.491493 0.017954 -2.751379
v 0.491493 0.017954 -2.986580
v 0.491493 0.017954 -3.221781
v 0.245746 0.017954 -2.751379
v 0.245746 0.017954 -2.986580
v 0.245746 0.017954 -3.221781
v 0.000000 0.017954 -2.751379
v 0.000000 0.017954 -2.986580
v -0.000000 0.017954 -3.221781
v -0.245746 0.017954 -2.751379
v -0.245746 0.017954 -2.986580
v -0.245746 0.017954 -3.221781
v -0.491493 0.017954 -2.751379
v -0.491493 0.017954 -2.986580
v -0.491493 0.017954 -3.221781
v 0.093123 0.231072 -3.260493
v 0.252940 0.231072 -3.260493
v 0.093123 0.231072 -3.051501
v -0.104668 0.231072 -3.039558
v -0.139766 0.231072 -3.014883
v -0.092053 0.231072 -3.034817
v -0.098824 0.231072 -3.030426
v -0.196412 0.231072 -2.957197
v -0.114359 0.231072 -3.025772
v -0.126592 0.231072 -3.050622
v -0.193495 0.231072 -2.962460
v -0.128007 0.231072 -3.020591
v -0.118484 0.231072 -3.045881
v -0.190355 0.231072 -2.967559
v -0.108444 0.231072 -3.041139
v -0.187026 0.231072 -2.972494
v -0.096472 0.231072 -3.036397
v -0.183506 0.231072 -2.977267
v -0.093226 0.231072 -3.031860
v -0.179796 0.231072 -2.981876
v -0.100678 0.231072 -3.037978
v -0.109391 0.231072 -3.027382
v -0.175896 0.231072 -2.986321
v -0.123667 0.231072 -3.022377
v 0.079073 0.231072 -3.051501
v -0.121401 0.231072 -3.047461
v -0.171805 0.231072 -2.990603
v -0.136056 0.231072 -3.016844
v -0.112005 0.231072 -3.042719
v -0.167524 0.231072 -2.994722
v -0.163053 0.231072 -2.998677
v 0.026035 0.231072 -2.954205
v -0.087418 0.231072 -3.033236
v -0.158392 0.231072 -3.002469
v -0.104212 0.231072 -3.028933
v -0.153540 0.231072 -3.006097
v -0.119118 0.231072 -3.024103
v -0.124104 0.231072 -3.049042
v -0.148498 0.231072 -3.009562
v -0.132136 0.231072 -3.018747
v -0.115352 0.231072 -3.044300
v -0.143266 0.231072 -3.012864
v 0.093123 0.231072 -2.954205
v 0.024078 0.231072 -2.954157
v 0.021839 0.231072 -2.954010
v 0.019317 0.231072 -2.953766
v 0.016512 0.231072 -2.953425
v 0.013424 0.231072 -2.952986
v 0.010053 0.231072 -2.952449
v 0.006399 0.231072 -2.951815
v -0.199076 0.231072 -2.951771
v 0.002462 0.231072 -2.951083
v -0.001758 0.231072 -2.950254
v -0.006261 0.231072 -2.949327
v -0.011046 0.231072 -2.948302
v -0.016115 0.231072 -2.947180
v -0.018709 0.231072 -2.946585
v -0.201486 0.231072 -2.946182
v -0.021223 0.231072 -2.945853
v -0.023656 0.231072 -2.944985
v -0.026008 0.231072 -2.943980
v -0.028281 0.231072 -2.942838
v -0.030472 0.231072 -2.941560
v -0.032583 0.231072 -2.940145
v -0.203642 0.231072 -2.940428
v -0.205544 0.231072 -2.934512
v -0.034614 0.231072 -2.938594
v -0.036564 0.231072 -2.936906
v -0.038434 0.231072 -2.935082
v -0.040223 0.231072 -2.933121
v -0.041932 0.231072 -2.931023
v -0.043530 0.231072 -2.928830
v -0.044990 0.231072 -2.926584
v -0.207193 0.231072 -2.928432
v -0.208589 0.231072 -2.922189
v -0.046311 0.231072 -2.924284
v -0.047493 0.231072 -2.921930
v -0.048536 0.231072 -2.919522
v -0.049439 0.231072 -2.917061
v -0.209730 0.231072 -2.915783
v -0.050204 0.231072 -2.914546
v -0.050830 0.231072 -2.911978
v -0.051316 0.231072 -2.909355
v -0.210618 0.231072 -2.909213
v -0.051664 0.231072 -2.906680
v -0.051873 0.231072 -2.903950
v -0.051942 0.231072 -2.901167
v -0.211252 0.231072 -2.902479
v -0.211633 0.231072 -2.895582
v -0.051832 0.231072 -2.897091
v -0.051503 0.231072 -2.893176
v -0.050954 0.231072 -2.889422
v -0.050186 0.231072 -2.885829
v -0.211760 0.231072 -2.888522
v -0.211594 0.231072 -2.880430
v -0.049198 0.231072 -2.882397
v -0.047991 0.231072 -2.879126
v -0.046564 0.231072 -2.876016
v -0.044917 0.231072 -2.873067
v -0.211096 0.231072 -2.872545
v -0.043051 0.231072 -2.870280
v -0.040966 0.231072 -2.867652
v -0.038661 0.231072 -2.865186
v -0.210267 0.231072 -2.864868
v -0.036136 0.231072 -2.862881
v -0.033309 0.231072 -2.860749
v -0.030097 0.231072 -2.858803
v -0.026499 0.231072 -2.857042
v -0.209106 0.231072 -2.857398
v -0.207613 0.231072 -2.850135
v -0.022515 0.231072 -2.855466
v -0.018147 0.231072 -2.854076
v -0.013393 0.231072 -2.852870
v -0.008253 0.231072 -2.851851
v -0.002729 0.231072 -2.851017
v 0.003182 0.231072 -2.850368
v 0.009477 0.231072 -2.849904
v 0.016158 0.231072 -2.849626
v 0.023225 0.231072 -2.849534
v -0.205788 0.231072 -2.843080
v 0.093123 0.231072 -2.849534
v -0.179494 0.231072 -2.794285
v -0.131395 0.231072 -2.760467
v -0.165349 0.231072 -2.780313
v -0.149316 0.231072 -2.769040
v 0.252940 0.231072 -2.745564
v -0.012251 0.231072 -2.745564
v -0.203632 0.231072 -2.836232
v -0.024303 0.231072 -2.745652
v -0.195173 0.231072 -2.816931
v -0.035873 0.231072 -2.745916
v -0.183789 0.231072 -2.799543
v -0.170273 0.231072 -2.784670
v -0.046959 0.231072 -2.746355
v -0.154870 0.231072 -2.772497
v -0.057562 0.231072 -2.746970
v -0.137578 0.231072 -2.763025
v -0.067682 0.231072 -2.747760
v -0.077320 0.231072 -2.748726
v -0.198324 0.231072 -2.823158
v -0.086474 0.231072 -2.749867
v -0.187875 0.231072 -2.805101
v -0.174988 0.231072 -2.789328
v -0.095145 0.231072 -2.751185
v -0.160214 0.231072 -2.776255
v -0.103334 0.231072 -2.752678
v -0.143552 0.231072 -2.765882
v -0.111039 0.231072 -2.754346
v -0.118262 0.231072 -2.756190
v -0.201144 0.231072 -2.829591
v -0.125001 0.231072 -2.758209
v -0.191690 0.231072 -2.810912
v -0.128865 0.231072 -3.052203
v 0.075475 0.231072 -3.051584
v 0.071941 0.231072 -3.051832
v 0.068470 0.231072 -3.052247
v 0.065062 0.231072 -3.052828
v -0.130384 0.231072 -3.053357
v -0.132012 0.231072 -3.054711
v 0.061718 0.231072 -3.053574
v 0.058437 0.231072 -3.054486
v 0.055220 0.231072 -3.055565
v 0.052066 0.231072 -3.056809
v -0.133750 0.231072 -3.056265
v -0.135598 0.231072 -3.058018
v -0.137555 0.231072 -3.059972
v 0.048975 0.231072 -3.058218
v 0.045948 0.231072 -3.059794
v 0.042985 0.231072 -3.061536
v -0.139622 0.231072 -3.062126
v 0.040085 0.231072 -3.063443
v 0.037953 0.231072 -3.065114
v -0.141799 0.231072 -3.064480
v -0.144086 0.231072 -3.067034
v -0.146483 0.231072 -3.069788
v 0.035772 0.231072 -3.067083
v 0.033543 0.231072 -3.069349
v 0.031264 0.231072 -3.071912
v -0.148989 0.231072 -3.072742
v 0.028937 0.231072 -3.074773
v -0.151605 0.231072 -3.075895
v 0.026562 0.231072 -3.077932
v -0.154331 0.231072 -3.079249
v 0.024137 0.231072 -3.081388
v -0.157034 0.231072 -3.082637
v 0.021664 0.231072 -3.085142
v -0.159585 0.231072 -3.085894
v 0.019141 0.231072 -3.089194
v 0.016571 0.231072 -3.093543
v -0.161981 0.231072 -3.089018
v -0.164224 0.231072 -3.092011
v -0.166313 0.231072 -3.094872
v -0.168249 0.231072 -3.097602
v 0.013951 0.231072 -3.098190
v 0.011282 0.231072 -3.103134
v -0.170031 0.231072 -3.100199
v -0.171659 0.231072 -3.102666
v -0.173133 0.231072 -3.105000
v -0.174454 0.231072 -3.107203
v -0.073719 0.231072 -3.260493
v -0.253558 0.231072 -3.260493
v -0.175621 0.231072 -3.109274
v -0.176635 0.231072 -3.111213
vn 1.0000 -0.0000 -0.0000
vn -0.0493 -0.7008 0.7117
vn -1.0000 -0.0000 -0.0000
vn -0.0000 -0.0000 -1.0000
vn -0.0000 -1.0000 -0.0000
vn -0.0000 1.0000 -0.0000
vn -0.0000 -0.0000 1.0000
vn -0.2474 -0.0000 0.9689
vn -0.4168 -0.4408 0.7950
vn -0.8500 -0.2869 0.4419
vn -0.9598 -0.2714 -0.0716
vn -0.9647 -0.0000 0.2634
vn -0.0605 -0.4851 0.8724
vn -0.4474 -0.2672 0.8534
vn -0.8749 -0.1668 0.4548
vn -0.9848 -0.1573 -0.0735
vn -0.5638 -0.1864 0.8046
vn -0.0926 -0.3826 0.9192
vn -0.1847 -0.7280 0.6602
vn -0.7875 -0.1447 0.5992
vn -0.9660 0.0808 0.2455
vn -0.9337 -0.3379 0.1182
vn -0.5706 -0.1065 0.8143
vn -0.0976 -0.2277 0.9688
vn -0.2311 -0.5143 0.8259
vn -0.7931 -0.0823 0.6035
vn -0.9682 0.0457 0.2461
vn -0.9723 -0.1987 0.1231
vt 0.264466 0.107320
vt 0.138749 0.138749
vt 0.138749 0.107320
vt 0.264466 0.243513
vt 0.138749 0.264466
vt 0.138749 0.243513
vt 0.264466 0.358754
vt 0.138749 0.390183
vt 0.138749 0.358754
vt 0.264466 0.494947
vt 0.138749 0.515900
vt 0.138749 0.494947
vt 0.117796 0.390183
vt 0.117796 0.358754
vt 0.390183 0.358754
vt 0.369230 0.390183
vt 0.369230 0.358754
vt 0.285419 0.358754
vt 0.264466 0.390183
vt 0.306372 0.358754
vt 0.285419 0.390183
vt 0.327325 0.358754
vt 0.306372 0.390183
vt 0.348277 0.358754
vt 0.327325 0.390183
vt 0.348277 0.390183
vt 0.033985 0.358754
vt 0.013032 0.390183
vt 0.013032 0.358754
vt 0.054938 0.358754
vt 0.033985 0.390183
vt 0.075891 0.358754
vt 0.054938 0.390183
vt 0.096843 0.358754
vt 0.075891 0.390183
vt 0.096843 0.390183
vt 0.138749 0.411136
vt 0.264466 0.411136
vt 0.138749 0.432089
vt 0.264466 0.432089
vt 0.138749 0.453042
vt 0.264466 0.453042
vt 0.138749 0.473994
vt 0.264466 0.473994
vt 0.264466 0.138749
vt 0.138749 0.159702
vt 0.264466 0.159702
vt 0.138749 0.180655
vt 0.264466 0.180655
vt 0.138749 0.201608
vt 0.264466 0.201608
vt 0.138749 0.222560
vt 0.264466 0.222560
vt 0.117796 0.264466
vt 0.096843 0.295895
vt 0.096843 0.264466
vt 0.117796 0.295895
vt 0.096843 0.327325
vt 0.117796 0.327325
vt 0.075891 0.295895
vt 0.075891 0.264466
vt 0.075891 0.327325
vt 0.054938 0.295895
vt 0.054938 0.264466
vt 0.054938 0.327325
vt 0.033985 0.295895
vt 0.033985 0.264466
vt 0.033985 0.327325
vt 0.013032 0.295895
vt 0.013032 0.264466
vt 0.013032 0.327325
vt 0.369230 0.264466
vt 0.348277 0.295895
vt 0.348277 0.264466
vt 0.369230 0.295895
vt 0.348277 0.327325
vt 0.369230 0.327325
vt 0.327325 0.295895
vt 0.327325 0.264466
vt 0.327325 0.327325
vt 0.306372 0.264466
vt 0.306372 0.295895
vt 0.306372 0.327325
vt 0.285419 0.264466
vt 0.285419 0.295895
vt 0.285419 0.327325
vt 0.264466 0.264466
vt 0.264466 0.295895
vt 0.264466 0.327325
vt 0.390183 0.264466
vt 0.390183 0.295895
vt 0.390183 0.327325
vt 0.138749 0.295895
vt 0.138749 0.327325
vt 0.264466 0.013032
vt 0.138749 0.044461
vt 0.138749 0.013032
vt 0.264466 0.044461
vt 0.138749 0.075891
vt 0.264466 0.075891
vt 0.667681 0.107320
vt 0.541964 0.138749
vt 0.541964 0.107320
vt 0.667681 0.243513
vt 0.541964 0.264466
vt 0.541964 0.243513
vt 0.667681 0.358754
vt 0.541964 0.390183
vt 0.541964 0.358754
vt 0.667681 0.494947
vt 0.541964 0.515900
vt 0.541964 0.494947
vt 0.521011 0.390183
vt 0.521011 0.358754
vt 0.793398 0.358754
vt 0.772445 0.390183
vt 0.772445 0.358754
vt 0.688634 0.358754
vt 0.667681 0.390183
vt 0.709587 0.358754
vt 0.688634 0.390183
vt 0.730540 0.358754
vt 0.709587 0.390183
vt 0.751493 0.358754
vt 0.730540 0.390183
vt 0.751493 0.390183
vt 0.437200 0.358754
vt 0.416247 0.390183
vt 0.416247 0.358754
vt 0.458153 0.358754
vt 0.437200 0.390183
vt 0.479106 0.358754
vt 0.458153 0.390183
vt 0.500059 0.358754
vt 0.479106 0.390183
vt 0.500059 0.390183
vt 0.541964 0.411136
vt 0.667681 0.411136
vt 0.541964 0.432089
vt 0.667681 0.432089
vt 0.541964 0.453042
vt 0.667681 0.453042
vt 0.541964 0.473994
vt 0.667681 0.473994
vt 0.667681 0.138749
vt 0.541964 0.159702
vt 0.667681 0.159702
vt 0.541964 0.180655
vt 0.667681 0.180655
vt 0.541964 0.201608
vt 0.667681 0.201608
vt 0.541964 0.222560
vt 0.667681 0.222560
vt 0.521011 0.264466
vt 0.500059 0.295895
vt 0.500059 0.264466
vt 0.521011 0.295895
vt 0.500059 0.327325
vt 0.521011 0.327325
vt 0.479106 0.295895
vt 0.479106 0.264466
vt 0.479106 0.327325
vt 0.458153 0.295895
vt 0.458153 0.264466
vt 0.458153 0.327325
vt 0.437200 0.295895
vt 0.437200 0.264466
vt 0.437200 0.327325
vt 0.416247 0.295895
vt 0.416247 0.264466
vt 0.416247 0.327325
vt 0.772445 0.264466
vt 0.751493 0.295895
vt 0.751493 0.264466
vt 0.772445 0.295895
vt 0.751493 0.327325
vt 0.772445 0.327325
vt 0.730540 0.295895
vt 0.730540 0.264466
vt 0.730540 0.327325
vt 0.709587 0.264466
vt 0.709587 0.295895
vt 0.709587 0.327325
vt 0.688634 0.264466
vt 0.688634 0.295895
vt 0.688634 0.327325
vt 0.667681 0.264466
vt 0.667681 0.295895
vt 0.667681 0.327325
vt 0.793398 0.264466
vt 0.793398 0.295895
vt 0.793398 0.327325
vt 0.541964 0.295895
vt 0.541964 0.327325
vt 0.667681 0.013032
vt 0.541964 0.044461
vt 0.541964 0.013032
vt 0.667681 0.044461
vt 0.541964 0.075891
vt 0.667681 0.075891
vt 0.432828 0.949392
vt 0.306682 0.950355
vt 0.305424 0.785395
vt 0.141483 0.779560
vt 0.144914 0.778006
vt 0.148524 0.776456
vt 0.125711 0.756935
vt 0.123159 0.755215
vt 0.120774 0.753456
vt 0.152312 0.774912
vt 0.156279 0.773373
vt 0.160423 0.771842
vt 0.253493 0.709492
vt 0.156196 0.770543
vt 0.152138 0.769201
vt 0.148248 0.767816
vt 0.086098 0.712423
vt 0.084218 0.708247
vt 0.144526 0.766387
vt 0.140972 0.764916
vt 0.137586 0.763403
vt 0.294126 0.785786
vt 0.124660 0.788940
vt 0.127014 0.787373
vt 0.088153 0.716484
vt 0.134367 0.761848
vt 0.131315 0.760251
vt 0.128430 0.758614
vt 0.129549 0.785807
vt 0.132264 0.784242
vt 0.135157 0.782679
vt 0.090360 0.720430
vt 0.138231 0.781118
vt 0.092718 0.724260
vt 0.095228 0.727973
vt 0.097889 0.731570
vt 0.100702 0.735051
vt 0.103667 0.738414
vt 0.106784 0.741659
vt 0.110053 0.744786
vt 0.113474 0.747795
vt 0.117048 0.750685
vt 0.306944 0.708194
vt 0.250531 0.709353
vt 0.248610 0.709178
vt 0.246666 0.708947
vt 0.244504 0.708646
vt 0.242118 0.708249
vt 0.239518 0.707787
vt 0.236704 0.707259
vt 0.083144 0.703625
vt 0.233685 0.706658
vt 0.230454 0.705998
vt 0.227012 0.705278
vt 0.223363 0.704494
vt 0.219505 0.703647
vt 0.217526 0.703201
vt 0.082317 0.698937
vt 0.215613 0.702635
vt 0.213763 0.701968
vt 0.211974 0.701199
vt 0.210248 0.700330
vt 0.208583 0.699362
vt 0.081725 0.694194
vt 0.206987 0.698272
vt 0.202568 0.694411
vt 0.081360 0.689408
vt 0.205452 0.697085
vt 0.203979 0.695798
vt 0.201223 0.692910
vt 0.199940 0.691310
vt 0.198738 0.689644
vt 0.081215 0.684584
vt 0.197643 0.687927
vt 0.196652 0.686174
vt 0.081286 0.679724
vt 0.195765 0.684372
vt 0.194979 0.682535
vt 0.194296 0.680663
vt 0.081566 0.674840
vt 0.193715 0.678742
vt 0.193234 0.676786
vt 0.192854 0.674795
vt 0.082045 0.669934
vt 0.192572 0.672756
vt 0.192391 0.670681
vt 0.082719 0.665008
vt 0.192306 0.668558
vt 0.192364 0.665504
vt 0.083583 0.660062
vt 0.192567 0.662563
vt 0.192918 0.659740
vt 0.084627 0.655097
vt 0.193413 0.657026
vt 0.194056 0.654428
vt 0.085892 0.649537
vt 0.194840 0.651931
vt 0.195774 0.649547
vt 0.196858 0.647276
vt 0.087355 0.644212
vt 0.198083 0.645102
vt 0.199458 0.643036
vt 0.200987 0.641079
vt 0.089010 0.639104
vt 0.202657 0.639212
vt 0.204540 0.637458
vt 0.206697 0.635822
vt 0.090854 0.634197
vt 0.209114 0.634286
vt 0.229506 0.627289
vt 0.092865 0.629374
vt 0.211808 0.632860
vt 0.214781 0.631543
vt 0.218034 0.630330
vt 0.221570 0.629219
vt 0.225393 0.628207
vt 0.233891 0.626445
vt 0.238497 0.625690
vt 0.245541 0.625005
vt 0.095005 0.624605
vt 0.306773 0.623699
vt 0.107179 0.592128
vt 0.109786 0.588086
vt 0.112557 0.584241
vt 0.136582 0.562867
vt 0.140682 0.560615
vt 0.144950 0.558565
vt 0.115493 0.580592
vt 0.118593 0.577140
vt 0.121858 0.573886
vt 0.432828 0.541964
vt 0.125289 0.570832
vt 0.128887 0.567976
vt 0.132650 0.565321
vt 0.224849 0.542662
vt 0.215949 0.543455
vt 0.096012 0.619589
vt 0.097264 0.614696
vt 0.207491 0.544335
vt 0.098762 0.609926
vt 0.100506 0.605281
vt 0.102496 0.600760
vt 0.199459 0.545306
vt 0.104735 0.596364
vt 0.191842 0.546371
vt 0.184628 0.547534
vt 0.177812 0.548796
vt 0.171384 0.550161
vt 0.165342 0.551630
vt 0.159681 0.553204
vt 0.154397 0.554884
vt 0.149488 0.556670
vt 0.122465 0.790510
vt 0.291418 0.786012
vt 0.288761 0.786261
vt 0.286159 0.786647
vt 0.283604 0.787176
vt 0.120868 0.791722
vt 0.281105 0.787843
vt 0.119174 0.793109
vt 0.278653 0.788655
vt 0.276258 0.789606
vt 0.273911 0.790705
vt 0.117381 0.794676
vt 0.115497 0.796420
vt 0.271610 0.791950
vt 0.113522 0.798346
vt 0.269358 0.793343
vt 0.267164 0.794881
vt 0.111449 0.800455
vt 0.265018 0.796569
vt 0.263512 0.798043
vt 0.109286 0.802748
vt 0.107033 0.805228
vt 0.261963 0.799784
vt 0.104692 0.807896
vt 0.260372 0.801793
vt 0.258749 0.804067
vt 0.102254 0.810754
vt 0.257084 0.806615
vt 0.099728 0.813802
vt 0.255377 0.809438
vt 0.097113 0.817042
vt 0.253629 0.812539
vt 0.094520 0.820324
vt 0.251839 0.815919
vt 0.092058 0.823498
vt 0.250010 0.819580
vt 0.248135 0.823533
vt 0.087535 0.829510
vt 0.089727 0.826559
vt 0.085474 0.832346
vt 0.246222 0.827771
vt 0.083546 0.835066
vt 0.244269 0.832307
vt 0.081755 0.837670
vt 0.080097 0.840156
vt 0.078577 0.842525
vt 0.175261 0.977868
vt 0.077280 0.844597
vt 0.013032 0.986968
vt 0.075085 0.848379
vt 0.076116 0.846549
vt 0.264466 0.515900
vt 0.390183 0.390183
vt 0.667681 0.515900
vt 0.793398 0.390183
s 0
usemtl マテリアル.002
f 34/1/1 3/2/1 29/3/1
f 18/4/2 7/5/2 9/6/2
f 40/7/3 5/8/3 35/9/3
f 28/10/4 1/11/4 19/12/4
f 35/9/5 23/13/5 70/14/5
f 32/15/6 28/16/6 55/17/6
f 43/18/6 6/19/6 40/7/6
f 46/20/6 24/21/6 43/18/6
f 49/22/6 25/23/6 46/20/6
f 52/24/6 26/25/6 49/22/6
f 55/17/6 27/26/6 52/24/6
f 58/27/5 1/28/5 31/29/5
f 61/30/5 19/31/5 58/27/5
f 64/32/5 20/33/5 61/30/5
f 67/34/5 21/35/5 64/32/5
f 70/14/5 22/36/5 67/34/5
f 6/19/4 23/37/4 5/8/4
f 24/38/4 22/39/4 23/37/4
f 25/40/4 21/41/4 22/39/4
f 26/42/4 20/43/4 21/41/4
f 27/44/4 19/12/4 20/43/4
f 4/45/7 13/46/7 3/2/7
f 14/47/7 12/48/7 13/46/7
f 15/49/7 11/50/7 12/48/7
f 16/51/8 10/52/8 11/50/8
f 17/53/9 9/6/9 10/52/9
f 9/54/5 65/55/5 10/56/5
f 68/57/5 66/58/5 65/55/5
f 69/59/5 67/34/5 66/58/5
f 10/56/5 62/60/5 11/61/5
f 65/55/5 63/62/5 62/60/5
f 66/58/5 64/32/5 63/62/5
f 11/61/5 59/63/5 12/64/5
f 62/60/5 60/65/5 59/63/5
f 63/62/5 61/30/5 60/65/5
f 12/64/5 56/66/5 13/67/5
f 59/63/5 57/68/5 56/66/5
f 60/65/5 58/27/5 57/68/5
f 13/67/5 29/69/5 3/70/5
f 56/66/5 30/71/5 29/69/5
f 57/68/5 31/29/5 30/71/5
f 14/72/6 50/73/6 15/74/6
f 53/75/6 51/76/6 50/73/6
f 54/77/6 52/24/6 51/76/6
f 15/74/6 47/78/6 16/79/6
f 50/73/6 48/80/6 47/78/6
f 51/76/6 49/22/6 48/80/6
f 17/81/6 47/78/6 44/82/6
f 47/78/6 45/83/6 44/82/6
f 48/80/6 46/20/6 45/83/6
f 18/84/6 44/82/6 41/85/6
f 44/82/6 42/86/6 41/85/6
f 45/83/6 43/18/6 42/86/6
f 8/87/6 41/85/6 38/88/6
f 38/88/6 42/86/6 39/89/6
f 39/89/6 43/18/6 40/7/6
f 4/90/6 53/75/6 14/72/6
f 34/91/6 54/77/6 53/75/6
f 33/92/6 55/17/6 54/77/6
f 7/5/5 68/57/5 9/54/5
f 37/93/5 69/59/5 68/57/5
f 36/94/5 70/14/5 69/59/5
f 7/5/10 38/88/10 37/93/10
f 37/93/11 39/89/11 36/94/11
f 36/94/12 40/7/12 35/9/12
f 2/95/1 31/96/1 1/97/1
f 32/98/1 30/99/1 31/96/1
f 33/100/1 29/3/1 30/99/1
f 104/101/1 73/102/1 99/103/1
f 88/104/13 77/105/13 79/106/13
f 110/107/3 75/108/3 105/109/3
f 98/110/4 71/111/4 89/112/4
f 105/109/5 93/113/5 140/114/5
f 102/115/6 98/116/6 125/117/6
f 113/118/6 76/119/6 110/107/6
f 116/120/6 94/121/6 113/118/6
f 119/122/6 95/123/6 116/120/6
f 122/124/6 96/125/6 119/122/6
f 125/117/6 97/126/6 122/124/6
f 128/127/5 71/128/5 101/129/5
f 131/130/5 89/131/5 128/127/5
f 134/132/5 90/133/5 131/130/5
f 137/134/5 91/135/5 134/132/5
f 140/114/5 92/136/5 137/134/5
f 76/119/4 93/137/4 75/108/4
f 94/138/4 92/139/4 93/137/4
f 95/140/4 91/141/4 92/139/4
f 96/142/4 90/143/4 91/141/4
f 97/144/4 89/112/4 90/143/4
f 74/145/7 83/146/7 73/102/7
f 84/147/7 82/148/7 83/146/7
f 85/149/7 81/150/7 82/148/7
f 86/151/8 80/152/8 81/150/8
f 87/153/14 79/106/14 80/152/14
f 79/154/5 135/155/5 80/156/5
f 138/157/5 136/158/5 135/155/5
f 139/159/5 137/134/5 136/158/5
f 80/156/5 132/160/5 81/161/5
f 135/155/5 133/162/5 132/160/5
f 136/158/5 134/132/5 133/162/5
f 81/161/5 129/163/5 82/164/5
f 132/160/5 130/165/5 129/163/5
f 133/162/5 131/130/5 130/165/5
f 82/164/5 126/166/5 83/167/5
f 129/163/5 127/168/5 126/166/5
f 130/165/5 128/127/5 127/168/5
f 83/167/5 99/169/5 73/170/5
f 126/166/5 100/171/5 99/169/5
f 127/168/5 101/129/5 100/171/5
f 84/172/6 120/173/6 85/174/6
f 123/175/6 121/176/6 120/173/6
f 124/177/6 122/124/6 121/176/6
f 85/174/6 117/178/6 86/179/6
f 120/173/6 118/180/6 117/178/6
f 121/176/6 119/122/6 118/180/6
f 87/181/6 117/178/6 114/182/6
f 117/178/6 115/183/6 114/182/6
f 118/180/6 116/120/6 115/183/6
f 88/184/6 114/182/6 111/185/6
f 114/182/6 112/186/6 111/185/6
f 115/183/6 113/118/6 112/186/6
f 78/187/6 111/185/6 108/188/6
f 108/188/6 112/186/6 109/189/6
f 109/189/6 113/118/6 110/107/6
f 74/190/6 123/175/6 84/172/6
f 104/191/6 124/177/6 123/175/6
f 103/192/6 125/117/6 124/177/6
f 77/105/5 138/157/5 79/154/5
f 107/193/5 139/159/5 138/157/5
f 106/194/5 140/114/5 139/159/5
f 77/105/15 108/188/15 107/193/15
f 107/193/16 109/189/16 106/194/16
f 106/194/12 110/107/12 105/109/12
f 72/195/1 101/196/1 71/197/1
f 102/198/1 100/199/1 101/196/1
f 103/200/1 99/103/1 100/199/1
f 142/201/6 141/202/6 143/203/6
f 143/203/6 155/204/6 144/205/6
f 143/203/6 144/205/6 161/206/6
f 143/203/6 168/207/6 145/208/6
f 143/203/6 145/208/6 182/209/6
f 143/203/6 157/210/6 146/211/6
f 143/203/6 146/211/6 173/212/6
f 142/201/6 143/203/6 172/213/6
f 143/203/6 159/214/6 147/215/6
f 143/203/6 147/215/6 175/216/6
f 143/203/6 151/217/6 148/218/6
f 143/203/6 148/218/6 172/213/6
f 143/203/6 162/219/6 149/220/6
f 143/203/6 149/220/6 177/221/6
f 143/203/6 165/222/6 150/223/6
f 143/203/6 150/223/6 178/224/6
f 143/203/6 154/225/6 151/217/6
f 143/203/6 164/226/6 152/227/6
f 143/203/6 152/227/6 180/228/6
f 143/203/6 166/229/6 153/230/6
f 143/203/6 153/230/6 181/231/6
f 143/203/6 156/232/6 154/225/6
f 143/203/6 169/233/6 155/204/6
f 143/203/6 158/234/6 156/232/6
f 143/203/6 161/206/6 157/210/6
f 143/203/6 160/235/6 158/234/6
f 143/203/6 173/212/6 159/214/6
f 143/203/6 163/236/6 160/235/6
f 143/203/6 175/216/6 162/219/6
f 143/203/6 167/237/6 163/236/6
f 143/203/6 177/221/6 164/226/6
f 143/203/6 178/224/6 166/229/6
f 143/203/6 170/238/6 167/237/6
f 143/203/6 180/228/6 168/207/6
f 143/203/6 181/231/6 169/233/6
f 143/203/6 171/239/6 170/238/6
f 143/203/6 174/240/6 171/239/6
f 143/203/6 176/241/6 174/240/6
f 143/203/6 179/242/6 176/241/6
f 143/203/6 182/209/6 179/242/6
f 142/201/6 172/213/6 183/243/6
f 172/213/6 148/218/6 184/244/6
f 184/244/6 148/218/6 185/245/6
f 185/245/6 148/218/6 186/246/6
f 186/246/6 148/218/6 187/247/6
f 187/247/6 148/218/6 188/248/6
f 188/248/6 148/218/6 189/249/6
f 189/249/6 148/218/6 190/250/6
f 190/250/6 148/218/6 191/251/6
f 190/250/6 191/251/6 192/252/6
f 192/252/6 191/251/6 193/253/6
f 193/253/6 191/251/6 194/254/6
f 194/254/6 191/251/6 195/255/6
f 195/255/6 191/251/6 196/256/6
f 196/256/6 191/251/6 197/257/6
f 197/257/6 191/251/6 198/258/6
f 197/257/6 198/258/6 199/259/6
f 199/259/6 198/258/6 200/260/6
f 200/260/6 198/258/6 201/261/6
f 201/261/6 198/258/6 202/262/6
f 202/262/6 198/258/6 203/263/6
f 203/263/6 198/258/6 205/264/6
f 203/263/6 205/264/6 204/265/6
f 209/266/6 205/264/6 206/267/6
f 204/265/6 205/264/6 207/268/6
f 207/268/6 205/264/6 208/269/6
f 208/269/6 205/264/6 209/266/6
f 209/266/6 206/267/6 210/270/6
f 210/270/6 206/267/6 211/271/6
f 211/271/6 206/267/6 212/272/6
f 212/272/6 214/273/6 213/274/6
f 212/272/6 206/267/6 214/273/6
f 216/275/6 214/273/6 215/276/6
f 213/274/6 214/273/6 216/275/6
f 216/275/6 215/276/6 217/277/6
f 217/277/6 215/276/6 218/278/6
f 218/278/6 215/276/6 219/279/6
f 219/279/6 215/276/6 220/280/6
f 219/279/6 220/280/6 221/281/6
f 221/281/6 220/280/6 222/282/6
f 222/282/6 220/280/6 223/283/6
f 223/283/6 220/280/6 224/284/6
f 223/283/6 224/284/6 225/285/6
f 225/285/6 224/284/6 226/286/6
f 226/286/6 228/287/6 227/288/6
f 226/286/6 224/284/6 228/287/6
f 230/289/6 228/287/6 229/290/6
f 227/288/6 228/287/6 230/289/6
f 230/289/6 229/290/6 231/291/6
f 231/291/6 229/290/6 232/292/6
f 232/292/6 234/293/6 233/294/6
f 232/292/6 229/290/6 234/293/6
f 236/295/6 234/293/6 235/296/6
f 233/294/6 234/293/6 236/295/6
f 236/295/6 235/296/6 237/297/6
f 237/297/6 235/296/6 238/298/6
f 238/298/6 235/296/6 239/299/6
f 239/299/6 235/296/6 240/300/6
f 239/299/6 240/300/6 241/301/6
f 241/301/6 240/300/6 242/302/6
f 242/302/6 240/300/6 243/303/6
f 243/303/6 240/300/6 244/304/6
f 243/303/6 244/304/6 245/305/6
f 245/305/6 244/304/6 246/306/6
f 246/306/6 244/304/6 247/307/6
f 247/307/6 249/308/6 248/309/6
f 247/307/6 244/304/6 249/308/6
f 256/310/6 249/308/6 250/311/6
f 248/309/6 249/308/6 251/312/6
f 251/312/6 249/308/6 252/313/6
f 252/313/6 249/308/6 253/314/6
f 253/314/6 249/308/6 254/315/6
f 254/315/6 249/308/6 255/316/6
f 255/316/6 249/308/6 256/310/6
f 256/310/6 250/311/6 257/317/6
f 257/317/6 250/311/6 258/318/6
f 258/318/6 250/311/6 259/319/6
f 259/319/6 250/311/6 260/320/6
f 261/321/6 259/319/6 260/320/6
f 261/321/6 272/322/6 262/323/6
f 261/321/6 262/323/6 283/324/6
f 261/321/6 277/325/6 263/326/6
f 261/321/6 263/326/6 291/327/6
f 261/321/6 273/328/6 264/329/6
f 261/321/6 264/329/6 285/330/6
f 142/201/6 183/243/6 261/321/6
f 142/201/6 261/321/6 266/331/6
f 261/321/6 275/332/6 265/333/6
f 261/321/6 265/333/6 287/334/6
f 261/321/6 267/335/6 266/331/6
f 261/321/6 269/336/6 267/335/6
f 261/321/6 260/320/6 268/337/6
f 261/321/6 268/337/6 290/338/6
f 261/321/6 271/339/6 269/336/6
f 261/321/6 280/340/6 270/341/6
f 261/321/6 270/341/6 292/342/6
f 261/321/6 274/343/6 271/339/6
f 261/321/6 282/344/6 272/322/6
f 261/321/6 283/324/6 273/328/6
f 261/321/6 276/345/6 274/343/6
f 261/321/6 285/330/6 275/332/6
f 261/321/6 278/346/6 276/345/6
f 261/321/6 287/334/6 277/325/6
f 261/321/6 279/347/6 278/346/6
f 261/321/6 281/348/6 279/347/6
f 261/321/6 290/338/6 280/340/6
f 261/321/6 284/349/6 281/348/6
f 261/321/6 292/342/6 282/344/6
f 261/321/6 286/350/6 284/349/6
f 261/321/6 288/351/6 286/350/6
f 261/321/6 289/352/6 288/351/6
f 261/321/6 291/327/6 289/352/6
f 165/222/6 293/353/6 150/223/6
f 294/354/6 293/353/6 165/222/6
f 295/355/6 293/353/6 294/354/6
f 296/356/6 293/353/6 295/355/6
f 297/357/6 298/358/6 296/356/6
f 296/356/6 298/358/6 293/353/6
f 300/359/6 299/360/6 298/358/6
f 300/359/6 298/358/6 297/357/6
f 301/361/6 299/360/6 300/359/6
f 302/362/6 299/360/6 301/361/6
f 303/363/6 304/364/6 302/362/6
f 302/362/6 304/364/6 299/360/6
f 303/363/6 305/365/6 304/364/6
f 307/366/6 306/367/6 305/365/6
f 307/366/6 305/365/6 303/363/6
f 308/368/6 306/367/6 307/366/6
f 309/369/6 306/367/6 308/368/6
f 309/369/6 310/370/6 306/367/6
f 311/371/6 310/370/6 309/369/6
f 312/372/6 313/373/6 311/371/6
f 311/371/6 313/373/6 310/370/6
f 312/372/6 314/374/6 313/373/6
f 316/375/6 315/376/6 314/374/6
f 316/375/6 314/374/6 312/372/6
f 317/377/6 315/376/6 316/375/6
f 318/378/6 315/376/6 317/377/6
f 318/378/6 319/379/6 315/376/6
f 320/380/6 319/379/6 318/378/6
f 320/380/6 321/381/6 319/379/6
f 322/382/6 321/381/6 320/380/6
f 322/382/6 323/383/6 321/381/6
f 324/384/6 323/383/6 322/382/6
f 324/384/6 325/385/6 323/383/6
f 326/386/6 325/385/6 324/384/6
f 326/386/6 327/387/6 325/385/6
f 328/388/6 327/387/6 326/386/6
f 329/389/6 331/390/6 328/388/6
f 328/388/6 330/391/6 327/387/6
f 328/388/6 331/390/6 330/391/6
f 329/389/6 332/392/6 331/390/6
f 334/393/6 333/394/6 332/392/6
f 334/393/6 332/392/6 329/389/6
f 335/395/6 336/396/6 334/393/6
f 334/393/6 336/396/6 333/394/6
f 335/395/6 337/397/6 336/396/6
f 335/395/6 338/398/6 337/397/6
f 340/399/6 339/400/6 338/398/6
f 340/399/6 338/398/6 335/395/6
f 340/399/6 341/401/6 343/402/6
f 340/399/6 342/403/6 339/400/6
f 340/399/6 343/402/6 342/403/6
f 34/1/1 4/45/1 3/2/1
f 18/4/17 8/87/17 7/5/17
f 40/7/3 6/19/3 5/8/3
f 28/10/4 2/404/4 1/11/4
f 35/9/5 5/8/5 23/13/5
f 32/15/6 2/405/6 28/16/6
f 43/18/6 24/21/6 6/19/6
f 46/20/6 25/23/6 24/21/6
f 49/22/6 26/25/6 25/23/6
f 52/24/6 27/26/6 26/25/6
f 55/17/6 28/16/6 27/26/6
f 58/27/5 19/31/5 1/28/5
f 61/30/5 20/33/5 19/31/5
f 64/32/5 21/35/5 20/33/5
f 67/34/5 22/36/5 21/35/5
f 70/14/5 23/13/5 22/36/5
f 6/19/4 24/38/4 23/37/4
f 24/38/4 25/40/4 22/39/4
f 25/40/4 26/42/4 21/41/4
f 26/42/4 27/44/4 20/43/4
f 27/44/4 28/10/4 19/12/4
f 4/45/7 14/47/7 13/46/7
f 14/47/7 15/49/7 12/48/7
f 15/49/7 16/51/7 11/50/7
f 16/51/18 17/53/18 10/52/18
f 17/53/19 18/4/19 9/6/19
f 9/54/5 68/57/5 65/55/5
f 68/57/5 69/59/5 66/58/5
f 69/59/5 70/14/5 67/34/5
f 10/56/5 65/55/5 62/60/5
f 65/55/5 66/58/5 63/62/5
f 66/58/5 67/34/5 64/32/5
f 11/61/5 62/60/5 59/63/5
f 62/60/5 63/62/5 60/65/5
f 63/62/5 64/32/5 61/30/5
f 12/64/5 59/63/5 56/66/5
f 59/63/5 60/65/5 57/68/5
f 60/65/5 61/30/5 58/27/5
f 13/67/5 56/66/5 29/69/5
f 56/66/5 57/68/5 30/71/5
f 57/68/5 58/27/5 31/29/5
f 14/72/6 53/75/6 50/73/6
f 53/75/6 54/77/6 51/76/6
f 54/77/6 55/17/6 52/24/6
f 15/74/6 50/73/6 47/78/6
f 50/73/6 51/76/6 48/80/6
f 51/76/6 52/24/6 49/22/6
f 17/81/6 16/79/6 47/78/6
f 47/78/6 48/80/6 45/83/6
f 48/80/6 49/22/6 46/20/6
f 18/84/6 17/81/6 44/82/6
f 44/82/6 45/83/6 42/86/6
f 45/83/6 46/20/6 43/18/6
f 8/87/6 18/84/6 41/85/6
f 38/88/6 41/85/6 42/86/6
f 39/89/6 42/86/6 43/18/6
f 4/90/6 34/91/6 53/75/6
f 34/91/6 33/92/6 54/77/6
f 33/92/6 32/15/6 55/17/6
f 7/5/5 37/93/5 68/57/5
f 37/93/5 36/94/5 69/59/5
f 36/94/5 35/9/5 70/14/5
f 7/5/20 8/87/20 38/88/20
f 37/93/21 38/88/21 39/89/21
f 36/94/22 39/89/22 40/7/22
f 2/95/1 32/98/1 31/96/1
f 32/98/1 33/100/1 30/99/1
f 33/100/1 34/1/1 29/3/1
f 104/101/1 74/145/1 73/102/1
f 88/104/23 78/187/23 77/105/23
f 110/107/3 76/119/3 75/108/3
f 98/110/4 72/406/4 71/111/4
f 105/109/5 75/108/5 93/113/5
f 102/115/6 72/407/6 98/116/6
f 113/118/6 94/121/6 76/119/6
f 116/120/6 95/123/6 94/121/6
f 119/122/6 96/125/6 95/123/6
f 122/124/6 97/126/6 96/125/6
f 125/117/6 98/116/6 97/126/6
f 128/127/5 89/131/5 71/128/5
f 131/130/5 90/133/5 89/131/5
f 134/132/5 91/135/5 90/133/5
f 137/134/5 92/136/5 91/135/5
f 140/114/5 93/113/5 92/136/5
f 76/119/4 94/138/4 93/137/4
f 94/138/4 95/140/4 92/139/4
f 95/140/4 96/142/4 91/141/4
f 96/142/4 97/144/4 90/143/4
f 97/144/4 98/110/4 89/112/4
f 74/145/7 84/147/7 83/146/7
f 84/147/7 85/149/7 82/148/7
f 85/149/7 86/151/7 81/150/7
f 86/151/24 87/153/24 80/152/24
f 87/153/25 88/104/25 79/106/25
f 79/154/5 138/157/5 135/155/5
f 138/157/5 139/159/5 136/158/5
f 139/159/5 140/114/5 137/134/5
f 80/156/5 135/155/5 132/160/5
f 135/155/5 136/158/5 133/162/5
f 136/158/5 137/134/5 134/132/5
f 81/161/5 132/160/5 129/163/5
f 132/160/5 133/162/5 130/165/5
f 133/162/5 134/132/5 131/130/5
f 82/164/5 129/163/5 126/166/5
f 129/163/5 130/165/5 127/168/5
f 130/165/5 131/130/5 128/127/5
f 83/167/5 126/166/5 99/169/5
f 126/166/5 127/168/5 100/171/5
f 127/168/5 128/127/5 101/129/5
f 84/172/6 123/175/6 120/173/6
f 123/175/6 124/177/6 121/176/6
f 124/177/6 125/117/6 122/124/6
f 85/174/6 120/173/6 117/178/6
f 120/173/6 121/176/6 118/180/6
f 121/176/6 122/124/6 119/122/6
f 87/181/6 86/179/6 117/178/6
f 117/178/6 118/180/6 115/183/6
f 118/180/6 119/122/6 116/120/6
f 88/184/6 87/181/6 114/182/6
f 114/182/6 115/183/6 112/186/6
f 115/183/6 116/120/6 113/118/6
f 78/187/6 88/184/6 111/185/6
f 108/188/6 111/185/6 112/186/6
f 109/189/6 112/186/6 113/118/6
f 74/190/6 104/191/6 123/175/6
f 104/191/6 103/192/6 124/177/6
f 103/192/6 102/115/6 125/117/6
f 77/105/5 107/193/5 138/157/5
f 107/193/5 106/194/5 139/159/5
f 106/194/5 105/109/5 140/114/5
f 77/105/26 78/187/26 108/188/26
f 107/193/27 108/188/27 109/189/27
f 106/194/28 109/189/28 110/107/28
f 72/195/1 102/198/1 101/196/1
f 102/198/1 103/200/1 100/199/1
f 103/200/1 104/101/1 99/103/1
