# Blender 4.3.2
# www.blender.org
mtllib UI.mtl
o 円
v 0.000000 0.000000 1.996868
v 0.135608 0.000000 1.983512
v 0.266004 0.000000 1.943956
v 0.386178 0.000000 1.879722
v 0.491512 0.000000 1.793277
v 0.577957 0.000000 1.687944
v 0.642191 0.000000 1.567770
v 0.681746 0.000000 1.437373
v 0.695103 0.000000 1.301765
v 0.681746 0.000000 1.166158
v 0.642191 0.000000 1.035761
v 0.577957 0.000000 0.915587
v 0.491512 0.000000 0.810254
v 0.386178 0.000000 0.723809
v 0.266004 0.000000 0.659574
v 0.135608 0.000000 0.620019
v 0.000000 0.000000 0.606663
v -0.135608 0.000000 0.620019
v -0.266004 0.000000 0.659574
v -0.386178 0.000000 0.723809
v -0.491512 0.000000 0.810254
v -0.577957 0.000000 0.915587
v -0.642191 0.000000 1.035761
v -0.681746 0.000000 1.166158
v -0.695103 0.000000 1.301765
v -0.681746 0.000000 1.437373
v -0.642191 0.000000 1.567770
v -0.577957 0.000000 1.687944
v -0.491512 0.000000 1.793277
v -0.386178 0.000000 1.879722
v -0.266004 0.000000 1.943956
v -0.135608 0.000000 1.983512
v 0.135608 0.099134 1.983512
v 0.000000 0.099134 1.996868
v 0.266004 0.099134 1.943956
v 0.386178 0.099134 1.879722
v 0.491512 0.099134 1.793277
v 0.577957 0.099134 1.687944
v 0.642191 0.099134 1.567770
v 0.681746 0.099134 1.437373
v 0.695103 0.099134 1.301765
v 0.681746 0.099134 1.166158
v 0.642191 0.099134 1.035761
v 0.577957 0.099134 0.915587
v 0.491512 0.099134 0.810254
v 0.386178 0.099134 0.723809
v 0.266004 0.099134 0.659574
v 0.135608 0.099134 0.620019
v 0.000000 0.099134 0.606663
v -0.135608 0.099134 0.620019
v -0.266004 0.099134 0.659574
v -0.386178 0.099134 0.723809
v -0.491512 0.099134 0.810254
v -0.577957 0.099134 0.915587
v -0.642191 0.099134 1.035761
v -0.681746 0.099134 1.166158
v -0.695103 0.099134 1.301765
v -0.681746 0.099134 1.437373
v -0.642191 0.099134 1.567770
v -0.577957 0.099134 1.687944
v -0.491512 0.099134 1.793277
v -0.386178 0.099134 1.879722
v -0.266004 0.099134 1.943956
v -0.135608 0.099134 1.983512
v -1.574438 0.064249 3.800218
v -1.574438 -0.064249 3.800218
v -1.574438 0.064249 -3.800218
v -1.574438 -0.064249 -3.800218
v 1.574438 0.064249 3.800218
v 1.574438 -0.064249 3.800218
v 1.574438 0.064249 -3.800218
v 1.574438 -0.064249 -3.800218
v 0.205706 0.064249 3.260064
v 0.201753 0.064249 3.219933
v 0.201753 0.064249 3.300195
v 0.171038 0.064249 3.374348
v 0.171038 0.064249 3.145780
v 0.190047 0.064249 3.338784
v 0.190047 0.064249 3.181344
v 0.145456 0.064249 3.405520
v 0.145456 0.064249 3.114608
v 0.114284 0.064249 3.431102
v 0.114284 0.064249 3.089026
v 0.078720 0.064249 3.450111
v 0.078720 0.064249 3.070017
v 0.040131 0.064249 3.461817
v 0.040131 0.064249 3.058311
v 0.000000 0.064249 3.465770
v 0.000000 0.064249 3.054358
v -0.040131 0.064249 3.461817
v -0.040131 0.064249 3.058311
v -0.078720 0.064249 3.450111
v -0.078720 0.064249 3.070017
v -0.145456 0.064249 3.114608
v -0.114284 0.064249 3.431102
v -0.114284 0.064249 3.089026
v -0.171038 0.064249 3.145780
v -0.145456 0.064249 3.405520
v -0.171038 0.064249 3.374348
v -0.205706 0.064249 3.260064
v -0.201753 0.064249 3.300195
v -0.201753 0.064249 3.219933
v -0.190047 0.064249 3.338784
v -0.190047 0.064249 3.181344
v 0.205706 -0.064249 3.260064
v 0.201753 -0.064249 3.219933
v 0.201753 -0.064249 3.300195
v 0.171038 -0.064249 3.145780
v 0.171038 -0.064249 3.374348
v 0.190047 -0.064249 3.181344
v 0.190047 -0.064249 3.338784
v 0.145456 -0.064249 3.114608
v 0.145456 -0.064249 3.405520
v 0.114284 -0.064249 3.089026
v 0.114284 -0.064249 3.431102
v 0.078720 -0.064249 3.070017
v 0.078720 -0.064249 3.450111
v 0.040131 -0.064249 3.058311
v 0.040131 -0.064249 3.461817
v -0.040131 -0.064249 3.058311
v -0.040131 -0.064249 3.461817
v -0.145456 -0.064249 3.114608
v -0.145456 -0.064249 3.405520
v -0.114284 -0.064249 3.089026
v -0.114284 -0.064249 3.431102
v -0.078720 -0.064249 3.070017
v -0.078720 -0.064249 3.450111
v -0.171038 -0.064249 3.145780
v -0.171038 -0.064249 3.374348
v -0.205706 -0.064249 3.260064
v -0.201753 -0.064249 3.219933
v -0.201753 -0.064249 3.300195
v -0.190047 -0.064249 3.181344
v -0.190047 -0.064249 3.338784
v 0.000000 -0.064249 3.465770
v 0.000000 -0.064249 3.054358
v -1.574438 -0.064249 2.852420
v 1.574438 0.064249 2.853287
v 1.574438 -0.064249 2.848170
v -1.574438 0.064249 2.853287
v -1.574438 -0.064249 2.066343
v 1.574438 0.064249 2.066417
v 1.574438 -0.064249 2.065189
v -1.574438 0.064249 2.066417
v -1.574438 -0.064249 0.469436
v 1.574438 0.064249 0.469637
v 1.574438 -0.064249 0.478590
v -1.574438 0.064249 0.469637
v -1.574438 -0.064249 -0.439495
v 1.574438 0.064249 -0.437631
v 1.574438 -0.064249 -0.434234
v -1.574438 0.064249 -0.439862
v -1.574438 -0.064249 -1.656695
v 1.574438 0.064249 -1.654855
v 1.574438 -0.064249 -1.660126
v -1.574438 0.064249 -1.654855
v -1.574438 -0.064249 -2.436563
v 1.574438 0.064249 -2.438625
v 1.574438 -0.064249 -2.426438
v -1.574438 0.064249 -2.438626
v 0.116517 0.005730 3.290302
v 0.116517 0.121232 3.290302
v 0.155501 0.005730 3.473167
v 0.155501 0.121232 3.473167
v -0.116517 0.005730 3.290302
v -0.116517 0.121232 3.290302
v -0.155501 0.005730 3.473167
v -0.155501 0.121232 3.473167
v 0.140213 0.046688 3.390932
v 0.140213 0.142994 3.390932
v 0.719946 0.046688 4.300920
v 0.719946 0.142994 4.300920
v -0.056293 0.046688 3.448457
v -0.056293 0.142994 3.448457
v 0.612378 0.046688 4.475141
v 0.612378 0.142994 4.475141
v 0.554283 0.046688 4.179156
v 0.439563 0.046688 4.055250
v 0.323491 0.046688 3.889198
v 0.212480 0.046688 3.637800
v 0.212480 0.142994 3.637800
v 0.323491 0.142994 3.889198
v 0.439563 0.142994 4.055250
v 0.554283 0.142994 4.179156
v 0.015974 0.046688 3.695325
v 0.146811 0.046688 3.992676
v 0.273740 0.046688 4.175359
v 0.412776 0.046688 4.327140
v 0.412776 0.142994 4.327140
v 0.273740 0.142994 4.175359
v 0.146811 0.142994 3.992676
v 0.015974 0.142994 3.695325
v -0.140213 0.034820 3.390932
v -0.140213 0.131126 3.390932
v -0.719946 0.034820 4.300920
v -0.719946 0.131126 4.300920
v 0.056293 0.034820 3.448457
v 0.056293 0.131126 3.448457
v -0.612378 0.034820 4.475141
v -0.612378 0.131126 4.475141
v -0.554283 0.034820 4.179156
v -0.439563 0.034820 4.055250
v -0.323491 0.034820 3.889198
v -0.212480 0.034820 3.637800
v -0.212480 0.131126 3.637800
v -0.323491 0.131126 3.889198
v -0.439563 0.131126 4.055250
v -0.554283 0.131126 4.179156
v -0.015974 0.034820 3.695325
v -0.146811 0.034820 3.992676
v -0.273740 0.034820 4.175359
v -0.412776 0.034820 4.327140
v -0.412776 0.131126 4.327140
v -0.273740 0.131126 4.175359
v -0.146811 0.131126 3.992676
v -0.015974 0.131126 3.695325
vn -0.0000 -1.0000 -0.0000
vn -0.0000 1.0000 -0.0000
vn 0.9569 -0.0000 0.2903
vn -0.7730 -0.0000 -0.6344
vn 0.9952 -0.0000 0.0980
vn -0.8819 -0.0000 -0.4714
vn 0.9952 -0.0000 -0.0980
vn -0.9569 -0.0000 -0.2903
vn 0.9569 -0.0000 -0.2903
vn -0.9952 -0.0000 -0.0980
vn 0.8819 -0.0000 -0.4714
vn -0.9952 -0.0000 0.0980
vn 0.7730 -0.0000 -0.6344
vn -0.9569 -0.0000 0.2903
vn 0.6344 -0.0000 -0.7730
vn -0.8819 -0.0000 0.4714
vn 0.4714 -0.0000 -0.8819
vn 0.0980 -0.0000 0.9952
vn -0.7730 -0.0000 0.6344
vn 0.2903 -0.0000 -0.9569
vn 0.2903 -0.0000 0.9569
vn -0.6344 -0.0000 0.7730
vn 0.0980 -0.0000 -0.9952
vn 0.4714 -0.0000 0.8819
vn -0.4714 -0.0000 0.8819
vn -0.0980 -0.0000 -0.9952
vn 0.6344 -0.0000 0.7730
vn -0.2903 -0.0000 0.9569
vn -0.2903 -0.0000 -0.9569
vn 0.7730 -0.0000 0.6344
vn -0.0980 -0.0000 0.9952
vn -0.4714 -0.0000 -0.8819
vn 0.8819 -0.0000 0.4714
vn -0.6344 -0.0000 -0.7730
vn -0.0000 -0.0000 -1.0000
vn 1.0000 -0.0000 -0.0000
vn -1.0000 -0.0000 -0.0000
vn -0.0000 -0.0000 1.0000
vn 0.9780 -0.0000 -0.2085
vn -0.9780 -0.0000 -0.2085
vn 0.5922 -0.0000 -0.8058
vn 0.8509 -0.0000 0.5254
vn -0.9597 -0.0000 0.2809
vn -0.2809 -0.0000 -0.9597
vn -0.5956 -0.0000 0.8033
vn -0.7374 -0.0000 0.6755
vn -0.8212 -0.0000 0.5706
vn -0.9153 -0.0000 0.4027
vn 0.9597 -0.0000 -0.2809
vn 0.9148 -0.0000 -0.4039
vn 0.8196 -0.0000 -0.5729
vn 0.7338 -0.0000 -0.6794
vn 0.5922 -0.0000 0.8058
vn 0.8509 -0.0000 -0.5254
vn -0.9597 -0.0000 -0.2809
vn -0.2809 -0.0000 0.9597
vn -0.5956 -0.0000 -0.8033
vn -0.7374 -0.0000 -0.6755
vn -0.8212 -0.0000 -0.5706
vn -0.9153 -0.0000 -0.4027
vn 0.9597 -0.0000 0.2809
vn 0.9148 -0.0000 0.4039
vn 0.8196 -0.0000 0.5729
vn 0.7338 -0.0000 0.6794
vt 0.787400 0.835041
vt 0.871589 0.790041
vt 0.916589 0.874231
vt 0.070502 0.809418
vt 0.154691 0.854418
vt 0.109691 0.938607
vt 0.575524 0.818208
vt 0.565374 0.806836
vt 0.575524 0.806836
vt 0.912262 0.113241
vt 0.902108 0.101499
vt 0.912262 0.101499
vt 0.575524 0.830939
vt 0.565374 0.818208
vt 0.912262 0.123285
vt 0.902108 0.113241
vt 0.575524 0.844538
vt 0.565374 0.830939
vt 0.631517 0.818256
vt 0.621365 0.806836
vt 0.631517 0.806836
vt 0.575524 0.858484
vt 0.565374 0.844538
vt 0.631517 0.831020
vt 0.621365 0.818256
vt 0.575524 0.872240
vt 0.565374 0.858484
vt 0.631517 0.844640
vt 0.621365 0.831020
vt 0.575524 0.885278
vt 0.565374 0.872240
vt 0.631517 0.858590
vt 0.621365 0.844640
vt 0.575524 0.897096
vt 0.565374 0.885278
vt 0.631517 0.872336
vt 0.621365 0.858590
vt 0.575524 0.907241
vt 0.565374 0.897096
vt 0.912289 0.202832
vt 0.902108 0.190081
vt 0.912289 0.190081
vt 0.631517 0.885348
vt 0.621365 0.872336
vt 0.912262 0.034385
vt 0.902108 0.022921
vt 0.912262 0.022921
vt 0.912289 0.216463
vt 0.902108 0.202832
vt 0.631517 0.897128
vt 0.621365 0.885348
vt 0.912262 0.047183
vt 0.902108 0.034385
vt 0.912289 0.230449
vt 0.902108 0.216463
vt 0.631517 0.907221
vt 0.621365 0.897128
vt 0.912262 0.060821
vt 0.902108 0.047183
vt 0.912289 0.244255
vt 0.902108 0.230449
vt 0.912289 0.178700
vt 0.902108 0.169126
vt 0.912289 0.169126
vt 0.912262 0.074776
vt 0.902108 0.060821
vt 0.912289 0.257348
vt 0.902108 0.244255
vt 0.902108 0.178700
vt 0.912262 0.088511
vt 0.902108 0.074776
vt 0.912289 0.269226
vt 0.902108 0.257348
vt 0.902108 0.088511
vt 0.022921 0.669039
vt 0.328706 0.669039
vt 0.175813 0.688565
vt 0.328706 0.760995
vt 0.022921 0.760995
vt 0.175813 0.728517
vt 0.843475 0.321215
vt 0.856267 0.022921
vt 0.856267 0.321215
vt 0.797634 0.741618
vt 0.784819 0.612866
vt 0.797634 0.611714
vt 0.527440 0.728517
vt 0.531338 0.728133
vt 0.680333 0.760995
vt 0.374548 0.668955
vt 0.680333 0.668542
vt 0.527440 0.688565
vt 0.738977 0.742289
vt 0.726175 0.652663
vt 0.738977 0.652581
vt 0.843475 0.651684
vt 0.856881 0.367057
vt 0.856881 0.651684
vt 0.902722 0.654876
vt 0.915883 0.651090
vt 0.915883 0.654876
vt 0.902722 0.658269
vt 0.915882 0.658269
vt 0.958130 0.172128
vt 0.971286 0.169126
vt 0.971286 0.172128
vt 0.958130 0.175626
vt 0.971286 0.175626
vt 0.958130 0.179484
vt 0.971286 0.179484
vt 0.958130 0.183555
vt 0.971286 0.183555
vt 0.971286 0.187682
vt 0.958130 0.187682
vt 0.971286 0.191707
vt 0.958130 0.191707
vt 0.971286 0.195474
vt 0.958130 0.195474
vt 0.971286 0.198839
vt 0.958130 0.198839
vt 0.958130 0.244681
vt 0.971326 0.248196
vt 0.958130 0.248196
vt 0.971326 0.252071
vt 0.958130 0.252071
vt 0.971326 0.256156
vt 0.958130 0.256156
vt 0.971326 0.260295
vt 0.958130 0.260295
vt 0.971326 0.264329
vt 0.958130 0.264329
vt 0.971326 0.268102
vt 0.958130 0.268102
vt 0.971326 0.271470
vt 0.958130 0.271470
vt 0.971326 0.274304
vt 0.958130 0.274304
vt 0.902722 0.598860
vt 0.915883 0.601847
vt 0.902722 0.601847
vt 0.915883 0.605334
vt 0.902722 0.605334
vt 0.915883 0.609185
vt 0.902722 0.609185
vt 0.915882 0.613253
vt 0.902722 0.613253
vt 0.902722 0.617382
vt 0.915883 0.617382
vt 0.902722 0.621413
vt 0.915883 0.621413
vt 0.902722 0.625191
vt 0.915883 0.625191
vt 0.902722 0.628571
vt 0.915883 0.628571
vt 0.902722 0.631543
vt 0.915883 0.631543
vt 0.902722 0.635017
vt 0.915883 0.635017
vt 0.902722 0.638860
vt 0.915883 0.638860
vt 0.902722 0.642925
vt 0.915883 0.642925
vt 0.902722 0.647054
vt 0.915883 0.647054
vt 0.902722 0.651090
vt 0.726175 0.578187
vt 0.738977 0.578180
vt 0.328706 0.592626
vt 0.374548 0.592619
vt 0.680333 0.592507
vt 0.784819 0.112462
vt 0.797634 0.022921
vt 0.797634 0.112946
vt 0.022921 0.592626
vt 0.328706 0.437564
vt 0.680333 0.438433
vt 0.726175 0.427055
vt 0.738977 0.427036
vt 0.784819 0.186869
vt 0.797634 0.186985
vt 0.374548 0.437544
vt 0.680333 0.349790
vt 0.797634 0.337014
vt 0.738977 0.341007
vt 0.022921 0.349460
vt 0.328706 0.349243
vt 0.374548 0.349279
vt 0.680333 0.230744
vt 0.022921 0.231256
vt 0.328706 0.231256
vt 0.797634 0.423331
vt 0.784819 0.337861
vt 0.726175 0.225976
vt 0.738977 0.225801
vt 0.738977 0.151988
vt 0.022921 0.155144
vt 0.328706 0.155144
vt 0.374548 0.231077
vt 0.680333 0.156328
vt 0.784819 0.538753
vt 0.797634 0.539251
vt 0.022921 0.022921
vt 0.328706 0.022921
vt 0.374548 0.155344
vt 0.680333 0.022921
vt 0.726175 0.151793
vt 0.738977 0.022921
vt 0.965012 0.805558
vt 0.976265 0.787460
vt 0.976265 0.805558
vt 0.958395 0.395168
vt 0.970445 0.367057
vt 0.970445 0.395168
vt 0.965012 0.868276
vt 0.977079 0.851400
vt 0.977079 0.868276
vt 0.961724 0.620936
vt 0.973222 0.598860
vt 0.973222 0.620936
vt 0.924832 0.741618
vt 0.907074 0.715203
vt 0.924832 0.711417
vt 0.861233 0.741618
vt 0.843475 0.715203
vt 0.861233 0.711417
vt 0.519533 0.823636
vt 0.509907 0.806836
vt 0.519533 0.806836
vt 0.565374 0.971736
vt 0.575343 0.953083
vt 0.575343 0.971736
vt 0.735817 0.880956
vt 0.726175 0.906696
vt 0.726175 0.880956
vt 0.726175 0.972417
vt 0.735529 0.952538
vt 0.735529 0.972417
vt 0.380405 0.836367
vt 0.368272 0.806836
vt 0.387368 0.812378
vt 0.440171 0.836367
vt 0.452304 0.806836
vt 0.459267 0.830826
vt 0.451109 0.925812
vt 0.440423 0.898539
vt 0.459734 0.903276
vt 0.443354 0.882406
vt 0.463202 0.883590
vt 0.444196 0.862749
vt 0.464066 0.862006
vt 0.369467 0.925812
vt 0.380153 0.898539
vt 0.387368 0.917156
vt 0.360842 0.903276
vt 0.377222 0.882406
vt 0.357374 0.883590
vt 0.376380 0.862749
vt 0.356510 0.862006
vt 0.735817 0.788130
vt 0.726175 0.808450
vt 0.726175 0.788130
vt 0.735817 0.808450
vt 0.726175 0.827235
vt 0.735817 0.827235
vt 0.726175 0.848581
vt 0.735817 0.848581
vt 0.509907 0.911483
vt 0.519533 0.885793
vt 0.519533 0.911483
vt 0.509907 0.885793
vt 0.519533 0.858444
vt 0.509907 0.858444
vt 0.519533 0.839021
vt 0.509907 0.839021
vt 0.902722 0.424886
vt 0.912554 0.445747
vt 0.902722 0.445747
vt 0.621365 0.972682
vt 0.630843 0.953062
vt 0.630843 0.972682
vt 0.958103 0.046237
vt 0.968698 0.022921
vt 0.968698 0.046237
vt 0.965012 0.930649
vt 0.976261 0.914118
vt 0.976261 0.930649
vt 0.227009 0.836367
vt 0.214875 0.806836
vt 0.233971 0.812378
vt 0.286774 0.836367
vt 0.298908 0.806836
vt 0.305870 0.830826
vt 0.297713 0.925812
vt 0.287027 0.898539
vt 0.306338 0.903276
vt 0.289957 0.882406
vt 0.309806 0.883590
vt 0.290800 0.862749
vt 0.310669 0.862006
vt 0.216071 0.925812
vt 0.226756 0.898539
vt 0.233971 0.917156
vt 0.207445 0.903276
vt 0.223826 0.882406
vt 0.203978 0.883590
vt 0.222983 0.862749
vt 0.203114 0.862006
vt 0.912727 0.491588
vt 0.902722 0.516046
vt 0.902722 0.491588
vt 0.912727 0.516046
vt 0.902722 0.534638
vt 0.912727 0.534638
vt 0.902722 0.553019
vt 0.958103 0.072816
vt 0.968698 0.072816
vt 0.958569 0.514218
vt 0.968892 0.491588
vt 0.968892 0.514218
vt 0.912554 0.367057
vt 0.902722 0.389691
vt 0.902722 0.367057
vt 0.912554 0.389691
vt 0.902722 0.408423
vt 0.912554 0.408423
vt 0.911525 0.886456
vt 0.904174 0.897458
vt 0.894817 0.906815
vt 0.883814 0.914167
vt 0.871589 0.919230
vt 0.858611 0.921812
vt 0.845378 0.921812
vt 0.832400 0.919230
vt 0.820175 0.914166
vt 0.809172 0.906815
vt 0.799816 0.897458
vt 0.792464 0.886455
vt 0.787400 0.874230
vt 0.784819 0.861252
vt 0.784819 0.848019
vt 0.792464 0.822816
vt 0.799816 0.811814
vt 0.809173 0.802457
vt 0.820175 0.795105
vt 0.832400 0.790041
vt 0.845379 0.787460
vt 0.858611 0.787460
vt 0.883815 0.795105
vt 0.894817 0.802457
vt 0.904174 0.811814
vt 0.911525 0.822816
vt 0.916589 0.835042
vt 0.919171 0.848020
vt 0.919171 0.861252
vt 0.096713 0.941188
vt 0.083480 0.941188
vt 0.070502 0.938607
vt 0.058277 0.933543
vt 0.047274 0.926191
vt 0.037917 0.916834
vt 0.030566 0.905832
vt 0.025502 0.893606
vt 0.022921 0.880628
vt 0.022921 0.867396
vt 0.025502 0.854417
vt 0.030566 0.842192
vt 0.037918 0.831190
vt 0.047274 0.821833
vt 0.058277 0.814481
vt 0.083480 0.806836
vt 0.096713 0.806836
vt 0.109691 0.809418
vt 0.121916 0.814481
vt 0.132919 0.821833
vt 0.142276 0.831190
vt 0.149627 0.842192
vt 0.157273 0.867396
vt 0.157273 0.880628
vt 0.154691 0.893607
vt 0.149627 0.905832
vt 0.142276 0.916834
vt 0.132919 0.926191
vt 0.121916 0.933543
vt 0.902108 0.123285
vt 0.565374 0.907241
vt 0.621365 0.907221
vt 0.902108 0.269226
vt 0.156221 0.704644
vt 0.155837 0.708541
vt 0.195789 0.708541
vt 0.195406 0.704644
vt 0.157358 0.700896
vt 0.194269 0.700896
vt 0.192423 0.697443
vt 0.159204 0.697443
vt 0.161688 0.694416
vt 0.189939 0.694416
vt 0.186912 0.691931
vt 0.164715 0.691931
vt 0.168169 0.690085
vt 0.183458 0.690085
vt 0.179711 0.688949
vt 0.171916 0.688949
vt 0.195406 0.712438
vt 0.156221 0.712438
vt 0.157358 0.716185
vt 0.194269 0.716185
vt 0.192423 0.719639
vt 0.159204 0.719639
vt 0.161688 0.722666
vt 0.189939 0.722666
vt 0.186912 0.725150
vt 0.164715 0.725150
vt 0.168169 0.726996
vt 0.183458 0.726996
vt 0.179711 0.728133
vt 0.171916 0.728133
vt 0.843475 0.022921
vt 0.784819 0.741618
vt 0.374548 0.760995
vt 0.507465 0.708541
vt 0.507848 0.712438
vt 0.508985 0.716185
vt 0.547033 0.712438
vt 0.547416 0.708541
vt 0.545896 0.716185
vt 0.510831 0.719639
vt 0.513315 0.722666
vt 0.544050 0.719639
vt 0.541566 0.722666
vt 0.516342 0.725150
vt 0.519796 0.726996
vt 0.538538 0.725150
vt 0.535085 0.726996
vt 0.523543 0.728133
vt 0.547033 0.704644
vt 0.507848 0.704644
vt 0.508985 0.700896
vt 0.545896 0.700896
vt 0.544050 0.697443
vt 0.510831 0.697443
vt 0.513315 0.694416
vt 0.541566 0.694416
vt 0.538538 0.691931
vt 0.516342 0.691931
vt 0.519796 0.690085
vt 0.535085 0.690085
vt 0.531338 0.688949
vt 0.523543 0.688949
vt 0.726175 0.742289
vt 0.843475 0.367057
vt 0.958130 0.169126
vt 0.971326 0.244681
vt 0.915882 0.598860
vt 0.784819 0.022921
vt 0.022921 0.437564
vt 0.726175 0.340972
vt 0.784819 0.423652
vt 0.374548 0.022921
vt 0.726175 0.022921
vt 0.965012 0.787460
vt 0.958395 0.367057
vt 0.965012 0.851400
vt 0.961724 0.598860
vt 0.907074 0.737833
vt 0.843475 0.737833
vt 0.509907 0.823636
vt 0.565374 0.953083
vt 0.735817 0.906696
vt 0.726175 0.952538
vt 0.361310 0.830826
vt 0.433209 0.812378
vt 0.433209 0.917156
vt 0.912554 0.424886
vt 0.621365 0.953062
vt 0.958103 0.022921
vt 0.965012 0.914118
vt 0.207913 0.830826
vt 0.279812 0.812378
vt 0.279812 0.917156
vt 0.912727 0.553019
vt 0.958569 0.491588
s 0
usemtl Material
f 90/99/23 135/100/23 121/101/23
f 92/102/20 121/101/20 127/103/20
f 95/104/17 127/105/17 125/106/17
f 98/107/15 125/106/15 123/108/15
f 99/109/13 123/108/13 129/110/13
f 103/111/11 129/110/11 134/112/11
f 103/111/9 132/113/9 101/114/9
f 101/114/7 130/115/7 100/116/7
f 100/116/5 131/117/5 102/118/5
f 102/118/3 133/119/3 104/120/3
f 104/121/33 128/122/33 97/123/33
f 97/123/30 122/124/30 94/125/30
f 94/125/27 124/126/27 96/127/27
f 96/127/24 126/128/24 93/129/24
f 93/129/21 120/130/21 91/131/21
f 91/131/18 136/132/18 89/133/18
f 89/133/31 118/134/31 87/135/31
f 87/135/28 116/136/28 85/137/28
f 85/138/25 114/139/25 83/140/25
f 83/140/22 112/141/22 81/142/22
f 81/142/19 108/143/19 77/144/19
f 77/144/16 110/145/16 79/146/16
f 74/147/14 110/145/14 106/148/14
f 73/149/12 106/148/12 105/150/12
f 75/151/10 105/150/10 107/152/10
f 78/153/8 107/152/8 111/154/8
f 76/155/6 111/154/6 109/156/6
f 80/157/4 109/156/4 113/158/4
f 82/159/34 113/158/34 115/160/34
f 84/161/32 115/160/32 117/162/32
f 86/163/29 117/162/29 119/164/29
f 88/165/26 119/164/26 135/100/26
f 90/99/23 88/165/23 135/100/23
f 92/102/20 90/99/20 121/101/20
f 95/104/17 92/452/17 127/105/17
f 98/107/15 95/104/15 125/106/15
f 99/109/13 98/107/13 123/108/13
f 103/111/11 99/109/11 129/110/11
f 103/111/9 134/112/9 132/113/9
f 101/114/7 132/113/7 130/115/7
f 100/116/5 130/115/5 131/117/5
f 102/118/3 131/117/3 133/119/3
f 104/121/33 133/453/33 128/122/33
f 97/123/30 128/122/30 122/124/30
f 94/125/27 122/124/27 124/126/27
f 96/127/24 124/126/24 126/128/24
f 93/129/21 126/128/21 120/130/21
f 91/131/18 120/130/18 136/132/18
f 89/133/31 136/132/31 118/134/31
f 87/135/28 118/134/28 116/136/28
f 85/138/25 116/454/25 114/139/25
f 83/140/22 114/139/22 112/141/22
f 81/142/19 112/141/19 108/143/19
f 77/144/16 108/143/16 110/145/16
f 74/147/14 79/146/14 110/145/14
f 73/149/12 74/147/12 106/148/12
f 75/151/10 73/149/10 105/150/10
f 78/153/8 75/151/8 107/152/8
f 76/155/6 78/153/6 111/154/6
f 80/157/4 76/155/4 109/156/4
f 82/159/34 80/157/34 113/158/34
f 84/161/32 82/159/32 115/160/32
f 86/163/29 84/161/29 117/162/29
f 88/165/26 86/163/26 119/164/26
f 18/1/1 10/2/1 2/3/1
f 48/4/2 56/5/2 64/6/2
f 8/7/3 39/8/3 7/9/3
f 22/10/4 53/11/4 21/12/4
f 9/13/5 40/14/5 8/7/5
f 23/15/6 54/16/6 22/10/6
f 10/17/7 41/18/7 9/13/7
f 24/19/8 55/20/8 23/21/8
f 11/22/9 42/23/9 10/17/9
f 25/24/10 56/25/10 24/19/10
f 12/26/11 43/27/11 11/22/11
f 26/28/12 57/29/12 25/24/12
f 13/30/13 44/31/13 12/26/13
f 27/32/14 58/33/14 26/28/14
f 14/34/15 45/35/15 13/30/15
f 28/36/16 59/37/16 27/32/16
f 15/38/17 46/39/17 14/34/17
f 2/40/18 34/41/18 1/42/18
f 29/43/19 60/44/19 28/36/19
f 16/45/20 47/46/20 15/47/20
f 3/48/21 33/49/21 2/40/21
f 30/50/22 61/51/22 29/43/22
f 17/52/23 48/53/23 16/45/23
f 4/54/24 35/55/24 3/48/24
f 31/56/25 62/57/25 30/50/25
f 18/58/26 49/59/26 17/52/26
f 5/60/27 36/61/27 4/54/27
f 32/62/28 63/63/28 31/64/28
f 19/65/29 50/66/29 18/58/29
f 6/67/30 37/68/30 5/60/30
f 1/42/31 64/69/31 32/62/31
f 20/70/32 51/71/32 19/65/32
f 7/72/33 38/73/33 6/67/33
f 21/12/34 52/74/34 20/70/34
f 138/75/2 140/76/2 89/77/2
f 65/78/2 69/79/2 88/80/2
f 67/81/35 72/82/35 68/83/35
f 72/84/36 158/85/36 159/86/36
f 135/87/1 119/88/1 70/89/1
f 137/90/1 139/91/1 136/92/1
f 66/93/37 140/94/37 137/95/37
f 69/96/38 66/97/38 70/98/38
f 137/95/37 144/166/37 141/167/37
f 138/75/2 144/168/2 140/76/2
f 139/91/1 141/169/1 143/170/1
f 138/171/36 70/172/36 139/173/36
f 142/174/2 148/175/2 144/168/2
f 141/169/1 147/176/1 143/170/1
f 141/167/37 148/177/37 145/178/37
f 142/179/36 139/173/36 143/180/36
f 145/181/1 151/182/1 147/176/1
f 147/183/36 142/179/36 143/180/36
f 148/177/37 149/184/37 145/178/37
f 148/175/2 150/185/2 152/186/2
f 149/187/1 155/188/1 151/182/1
f 152/186/2 154/189/2 156/190/2
f 151/191/36 146/192/36 147/183/36
f 149/184/37 156/193/37 153/194/37
f 156/193/37 157/195/37 153/194/37
f 156/190/2 158/196/2 160/197/2
f 153/198/1 159/199/1 155/188/1
f 154/200/36 151/191/36 155/201/36
f 160/197/2 71/202/2 67/203/2
f 157/204/1 72/205/1 159/199/1
f 160/206/37 68/207/37 157/195/37
f 159/86/36 154/200/36 155/201/36
f 162/208/39 163/209/39 161/210/39
f 164/211/38 167/212/38 163/213/38
f 168/214/40 165/215/40 167/216/40
f 166/217/35 161/218/35 165/219/35
f 167/220/1 161/221/1 163/222/1
f 164/223/2 166/224/2 168/225/2
f 177/226/41 172/227/41 171/228/41
f 172/229/42 175/230/42 171/231/42
f 192/232/43 173/233/43 185/234/43
f 174/235/44 169/236/44 173/237/44
f 180/238/1 173/239/1 169/240/1
f 181/241/2 174/242/2 192/243/2
f 176/244/2 184/245/2 189/246/2
f 189/246/2 183/247/2 190/248/2
f 190/248/2 182/249/2 191/250/2
f 191/250/2 181/241/2 192/243/2
f 175/251/1 177/252/1 171/253/1
f 188/254/1 178/255/1 177/252/1
f 187/256/1 179/257/1 178/255/1
f 186/258/1 180/238/1 179/257/1
f 176/259/45 188/260/45 175/261/45
f 189/262/46 187/263/46 188/260/46
f 190/264/47 186/265/47 187/263/47
f 191/266/48 185/234/48 186/265/48
f 170/267/49 180/268/49 169/269/49
f 181/270/50 179/271/50 180/268/50
f 182/272/51 178/273/51 179/271/51
f 183/274/52 177/226/52 178/273/52
f 201/275/53 196/276/53 195/277/53
f 196/278/54 199/279/54 195/280/54
f 216/281/55 197/282/55 209/283/55
f 198/284/56 193/285/56 197/286/56
f 204/287/2 197/288/2 193/289/2
f 205/290/1 198/291/1 216/292/1
f 200/293/1 208/294/1 213/295/1
f 213/295/1 207/296/1 214/297/1
f 214/297/1 206/298/1 215/299/1
f 215/299/1 205/290/1 216/292/1
f 199/300/2 201/301/2 195/302/2
f 212/303/2 202/304/2 201/301/2
f 211/305/2 203/306/2 202/304/2
f 210/307/2 204/287/2 203/306/2
f 200/308/57 212/309/57 199/310/57
f 213/311/58 211/312/58 212/309/58
f 214/313/59 210/314/59 211/312/59
f 215/315/60 209/283/60 210/316/60
f 194/317/61 204/318/61 193/319/61
f 205/320/62 203/321/62 204/322/62
f 206/323/63 202/324/63 203/321/63
f 207/325/64 201/275/64 202/324/64
f 2/3/1 1/326/1 32/327/1
f 32/327/1 31/328/1 2/3/1
f 31/328/1 30/329/1 2/3/1
f 30/329/1 29/330/1 28/331/1
f 28/331/1 27/332/1 30/329/1
f 27/332/1 26/333/1 30/329/1
f 26/333/1 25/334/1 24/335/1
f 24/335/1 23/336/1 26/333/1
f 23/336/1 22/337/1 26/333/1
f 22/337/1 21/338/1 20/339/1
f 20/339/1 19/340/1 22/337/1
f 19/340/1 18/1/1 22/337/1
f 18/1/1 17/341/1 16/342/1
f 16/342/1 15/343/1 18/1/1
f 15/343/1 14/344/1 18/1/1
f 14/344/1 13/345/1 12/346/1
f 12/346/1 11/347/1 14/344/1
f 11/347/1 10/2/1 14/344/1
f 10/2/1 9/348/1 8/349/1
f 8/349/1 7/350/1 10/2/1
f 7/350/1 6/351/1 10/2/1
f 6/351/1 5/352/1 4/353/1
f 4/353/1 3/354/1 6/351/1
f 3/354/1 2/3/1 6/351/1
f 2/3/1 30/329/1 18/1/1
f 30/329/1 26/333/1 18/1/1
f 26/333/1 22/337/1 18/1/1
f 18/1/1 14/344/1 10/2/1
f 10/2/1 6/351/1 2/3/1
f 64/6/2 34/355/2 33/356/2
f 33/356/2 35/357/2 64/6/2
f 35/357/2 36/358/2 64/6/2
f 36/358/2 37/359/2 38/360/2
f 38/360/2 39/361/2 36/358/2
f 39/361/2 40/362/2 36/358/2
f 40/362/2 41/363/2 42/364/2
f 42/364/2 43/365/2 40/362/2
f 43/365/2 44/366/2 40/362/2
f 44/366/2 45/367/2 46/368/2
f 46/368/2 47/369/2 44/366/2
f 47/369/2 48/4/2 44/366/2
f 48/4/2 49/370/2 50/371/2
f 50/371/2 51/372/2 48/4/2
f 51/372/2 52/373/2 48/4/2
f 52/373/2 53/374/2 54/375/2
f 54/375/2 55/376/2 52/373/2
f 55/376/2 56/5/2 52/373/2
f 56/5/2 57/377/2 58/378/2
f 58/378/2 59/379/2 56/5/2
f 59/379/2 60/380/2 56/5/2
f 60/380/2 61/381/2 62/382/2
f 62/382/2 63/383/2 60/380/2
f 63/383/2 64/6/2 60/380/2
f 64/6/2 36/358/2 48/4/2
f 36/358/2 40/362/2 48/4/2
f 40/362/2 44/366/2 48/4/2
f 48/4/2 52/373/2 56/5/2
f 56/5/2 60/380/2 64/6/2
f 8/7/3 40/14/3 39/8/3
f 22/10/4 54/16/4 53/11/4
f 9/13/5 41/18/5 40/14/5
f 23/15/6 55/384/6 54/16/6
f 10/17/7 42/23/7 41/18/7
f 24/19/8 56/25/8 55/20/8
f 11/22/9 43/27/9 42/23/9
f 25/24/10 57/29/10 56/25/10
f 12/26/11 44/31/11 43/27/11
f 26/28/12 58/33/12 57/29/12
f 13/30/13 45/35/13 44/31/13
f 27/32/14 59/37/14 58/33/14
f 14/34/15 46/39/15 45/35/15
f 28/36/16 60/44/16 59/37/16
f 15/38/17 47/385/17 46/39/17
f 2/40/18 33/49/18 34/41/18
f 29/43/19 61/51/19 60/44/19
f 16/45/20 48/53/20 47/46/20
f 3/48/21 35/55/21 33/49/21
f 30/50/22 62/57/22 61/51/22
f 17/52/23 49/59/23 48/53/23
f 4/54/24 36/61/24 35/55/24
f 31/56/25 63/386/25 62/57/25
f 18/58/26 50/66/26 49/59/26
f 5/60/27 37/68/27 36/61/27
f 32/62/28 64/69/28 63/63/28
f 19/65/29 51/71/29 50/66/29
f 6/67/30 38/73/30 37/68/30
f 1/42/31 34/41/31 64/69/31
f 20/70/32 52/74/32 51/71/32
f 7/72/33 39/387/33 38/73/33
f 21/12/34 53/11/34 52/74/34
f 74/388/2 73/389/2 138/75/2
f 73/389/2 69/79/2 138/75/2
f 140/76/2 65/78/2 100/390/2
f 140/76/2 100/390/2 102/391/2
f 79/392/2 74/388/2 138/75/2
f 140/76/2 102/391/2 104/393/2
f 140/76/2 104/393/2 97/394/2
f 77/395/2 79/392/2 138/75/2
f 81/396/2 77/395/2 138/75/2
f 140/76/2 97/394/2 94/397/2
f 140/76/2 94/397/2 96/398/2
f 83/399/2 81/396/2 138/75/2
f 85/400/2 83/399/2 138/75/2
f 140/76/2 96/398/2 93/401/2
f 140/76/2 93/401/2 91/402/2
f 87/403/2 85/400/2 138/75/2
f 140/76/2 91/402/2 89/77/2
f 89/77/2 87/403/2 138/75/2
f 101/404/2 100/390/2 65/78/2
f 69/79/2 73/389/2 75/405/2
f 69/79/2 75/405/2 78/406/2
f 103/407/2 101/404/2 65/78/2
f 99/408/2 103/407/2 65/78/2
f 69/79/2 78/406/2 76/409/2
f 69/79/2 76/409/2 80/410/2
f 98/411/2 99/408/2 65/78/2
f 95/412/2 98/411/2 65/78/2
f 69/79/2 80/410/2 82/413/2
f 69/79/2 82/413/2 84/414/2
f 92/415/2 95/412/2 65/78/2
f 90/416/2 92/415/2 65/78/2
f 69/79/2 84/414/2 86/417/2
f 88/80/2 90/416/2 65/78/2
f 69/79/2 86/417/2 88/80/2
f 67/81/35 71/418/35 72/82/35
f 72/84/36 71/419/36 158/85/36
f 66/420/1 130/421/1 132/422/1
f 66/420/1 132/422/1 134/423/1
f 107/424/1 105/425/1 70/89/1
f 111/426/1 107/424/1 70/89/1
f 66/420/1 134/423/1 129/427/1
f 66/420/1 129/427/1 123/428/1
f 109/429/1 111/426/1 70/89/1
f 113/430/1 109/429/1 70/89/1
f 66/420/1 123/428/1 125/431/1
f 66/420/1 125/431/1 127/432/1
f 115/433/1 113/430/1 70/89/1
f 117/434/1 115/433/1 70/89/1
f 66/420/1 127/432/1 121/435/1
f 66/420/1 121/435/1 135/87/1
f 119/88/1 117/434/1 70/89/1
f 66/420/1 135/87/1 70/89/1
f 130/421/1 66/420/1 137/90/1
f 139/91/1 70/89/1 105/425/1
f 139/91/1 105/425/1 106/436/1
f 131/437/1 130/421/1 137/90/1
f 133/438/1 131/437/1 137/90/1
f 139/91/1 106/436/1 110/439/1
f 139/91/1 110/439/1 108/440/1
f 128/441/1 133/438/1 137/90/1
f 122/442/1 128/441/1 137/90/1
f 139/91/1 108/440/1 112/443/1
f 139/91/1 112/443/1 114/444/1
f 124/445/1 122/442/1 137/90/1
f 126/446/1 124/445/1 137/90/1
f 139/91/1 114/444/1 116/447/1
f 139/91/1 116/447/1 118/448/1
f 120/449/1 126/446/1 137/90/1
f 139/91/1 118/448/1 136/92/1
f 136/92/1 120/449/1 137/90/1
f 66/93/37 65/450/37 140/94/37
f 69/96/38 65/451/38 66/97/38
f 137/95/37 140/94/37 144/166/37
f 138/75/2 142/174/2 144/168/2
f 139/91/1 137/90/1 141/169/1
f 138/171/36 69/455/36 70/172/36
f 142/174/2 146/456/2 148/175/2
f 141/169/1 145/181/1 147/176/1
f 141/167/37 144/166/37 148/177/37
f 142/179/36 138/171/36 139/173/36
f 145/181/1 149/187/1 151/182/1
f 147/183/36 146/192/36 142/179/36
f 148/177/37 152/457/37 149/184/37
f 148/175/2 146/456/2 150/185/2
f 149/187/1 153/198/1 155/188/1
f 152/186/2 150/185/2 154/189/2
f 151/191/36 150/458/36 146/192/36
f 149/184/37 152/457/37 156/193/37
f 156/193/37 160/206/37 157/195/37
f 156/190/2 154/189/2 158/196/2
f 153/198/1 157/204/1 159/199/1
f 154/200/36 150/458/36 151/191/36
f 160/197/2 158/196/2 71/202/2
f 157/204/1 68/459/1 72/205/1
f 160/206/37 67/460/37 68/207/37
f 159/86/36 158/85/36 154/200/36
f 162/208/39 164/461/39 163/209/39
f 164/211/38 168/462/38 167/212/38
f 168/214/40 166/463/40 165/215/40
f 166/217/35 162/464/35 161/218/35
f 167/220/1 165/465/1 161/221/1
f 164/223/2 162/466/2 166/224/2
f 177/226/41 184/467/41 172/227/41
f 172/229/42 176/468/42 175/230/42
f 192/232/43 174/469/43 173/233/43
f 174/235/44 170/470/44 169/236/44
f 180/238/1 185/471/1 173/239/1
f 181/241/2 170/472/2 174/242/2
f 176/244/2 172/473/2 184/245/2
f 189/246/2 184/245/2 183/247/2
f 190/248/2 183/247/2 182/249/2
f 191/250/2 182/249/2 181/241/2
f 175/251/1 188/254/1 177/252/1
f 188/254/1 187/256/1 178/255/1
f 187/256/1 186/258/1 179/257/1
f 186/258/1 185/471/1 180/238/1
f 176/259/45 189/262/45 188/260/45
f 189/262/46 190/264/46 187/263/46
f 190/264/47 191/266/47 186/265/47
f 191/266/48 192/232/48 185/234/48
f 170/267/49 181/270/49 180/268/49
f 181/270/50 182/272/50 179/271/50
f 182/272/51 183/274/51 178/273/51
f 183/274/52 184/467/52 177/226/52
f 201/275/53 208/474/53 196/276/53
f 196/278/54 200/475/54 199/279/54
f 216/281/55 198/476/55 197/282/55
f 198/284/56 194/477/56 193/285/56
f 204/287/2 209/478/2 197/288/2
f 205/290/1 194/479/1 198/291/1
f 200/293/1 196/480/1 208/294/1
f 213/295/1 208/294/1 207/296/1
f 214/297/1 207/296/1 206/298/1
f 215/299/1 206/298/1 205/290/1
f 199/300/2 212/303/2 201/301/2
f 212/303/2 211/305/2 202/304/2
f 211/305/2 210/307/2 203/306/2
f 210/307/2 209/478/2 204/287/2
f 200/308/57 213/311/57 212/309/57
f 213/311/58 214/313/58 211/312/58
f 214/313/59 215/481/59 210/314/59
f 215/315/60 216/281/60 209/283/60
f 194/317/61 205/482/61 204/318/61
f 205/320/62 206/323/62 203/321/62
f 206/323/63 207/325/63 202/324/63
f 207/325/64 208/474/64 201/275/64
