# Blender 4.2.0
# www.blender.org
mtllib 0.mtl
o テキスト
v 0.004322 0.000000 0.315826
v 0.037705 0.000000 0.313385
v 0.069027 0.000000 0.306187
v 0.098165 0.000000 0.294421
v 0.124995 0.000000 0.278276
v 0.149393 0.000000 0.257941
v 0.171236 0.000000 0.233605
v 0.190401 0.000000 0.205457
v 0.206762 0.000000 0.173686
v 0.220198 0.000000 0.138480
v 0.230584 0.000000 0.100028
v 0.237796 0.000000 0.058520
v 0.241711 0.000000 0.014144
v 0.241938 0.000000 0.010189
v 0.242128 0.000000 0.006236
v 0.242283 0.000000 0.002290
v 0.242407 0.000000 -0.001645
v 0.242504 0.000000 -0.005566
v 0.242577 0.000000 -0.009471
v 0.242629 0.000000 -0.013355
v 0.242664 0.000000 -0.017214
v 0.242685 0.000000 -0.021047
v 0.242696 0.000000 -0.024848
v 0.242700 0.000000 -0.028615
v 0.242700 0.000000 -0.032344
v 0.241035 0.000000 -0.084304
v 0.236051 0.000000 -0.131421
v 0.227771 0.000000 -0.173757
v 0.216214 0.000000 -0.211375
v 0.201401 0.000000 -0.244335
v 0.183353 0.000000 -0.272700
v 0.162090 0.000000 -0.296532
v 0.137634 0.000000 -0.315892
v 0.110004 0.000000 -0.330842
v 0.079221 0.000000 -0.341444
v 0.045306 0.000000 -0.347760
v 0.008279 0.000000 -0.349852
v -0.030735 0.000000 -0.347340
v -0.066194 0.000000 -0.339901
v -0.098129 0.000000 -0.327674
v -0.126571 0.000000 -0.310800
v -0.151551 0.000000 -0.289420
v -0.173101 0.000000 -0.263675
v -0.191250 0.000000 -0.233705
v -0.206030 0.000000 -0.199652
v -0.217472 0.000000 -0.161656
v -0.225607 0.000000 -0.119858
v -0.230465 0.000000 -0.074400
v -0.232077 0.000000 -0.025420
v -0.232077 0.000000 -0.021938
v -0.232073 0.000000 -0.018414
v -0.232062 0.000000 -0.014849
v -0.232041 0.000000 -0.011243
v -0.232006 0.000000 -0.007596
v -0.231954 0.000000 -0.003907
v -0.231881 0.000000 -0.000177
v -0.231784 0.000000 0.003594
v -0.231660 0.000000 0.007406
v -0.231505 0.000000 0.011259
v -0.231315 0.000000 0.015154
v -0.231088 0.000000 0.019090
v -0.227212 0.000000 0.062330
v -0.220107 0.000000 0.102890
v -0.209884 0.000000 0.140566
v -0.196652 0.000000 0.175151
v -0.180522 0.000000 0.206439
v -0.161602 0.000000 0.234224
v -0.140004 0.000000 0.258299
v -0.115837 0.000000 0.278459
v -0.089211 0.000000 0.294498
v -0.060236 0.000000 0.306209
v -0.029021 0.000000 0.313387
v 0.009268 0.000000 0.145697
v -0.000431 0.000000 0.144628
v -0.010134 0.000000 0.141429
v -0.019679 0.000000 0.136115
v -0.028905 0.000000 0.128699
v -0.037649 0.000000 0.119195
v -0.045752 0.000000 0.107616
v -0.053051 0.000000 0.093977
v -0.059384 0.000000 0.078291
v -0.064591 0.000000 0.060571
v -0.068511 0.000000 0.040832
v -0.070981 0.000000 0.019088
v -0.071840 0.000000 -0.004649
v -0.071172 0.000000 -0.029613
v -0.069216 0.000000 -0.052117
v -0.066044 0.000000 -0.072218
v -0.061729 0.000000 -0.089970
v -0.056342 0.000000 -0.105427
v -0.049956 0.000000 -0.118645
v -0.042642 0.000000 -0.129679
v -0.034473 0.000000 -0.138583
v -0.025521 0.000000 -0.145413
v -0.015858 0.000000 -0.150223
v -0.005557 0.000000 -0.153069
v 0.005312 0.000000 -0.154006
v 0.017368 0.000000 -0.153033
v 0.028322 0.000000 -0.150095
v 0.038184 0.000000 -0.145166
v 0.046964 0.000000 -0.138217
v 0.054673 0.000000 -0.129221
v 0.061320 0.000000 -0.118150
v 0.066917 0.000000 -0.104978
v 0.071473 0.000000 -0.089676
v 0.074998 0.000000 -0.072218
v 0.077504 0.000000 -0.052575
v 0.078999 0.000000 -0.030721
v 0.079496 0.000000 -0.006627
v 0.079002 0.000000 0.017564
v 0.077522 0.000000 0.039688
v 0.075060 0.000000 0.059737
v 0.071619 0.000000 0.077705
v 0.067203 0.000000 0.093584
v 0.061815 0.000000 0.107369
v 0.055458 0.000000 0.119052
v 0.048137 0.000000 0.128626
v 0.039853 0.000000 0.136084
v 0.030612 0.000000 0.141420
v 0.020416 0.000000 0.144627
vn -0.0000 1.0000 -0.0000
vt 0.310924 0.000000
vt 0.294118 0.000000
vt 0.302521 0.000000
vt 0.285714 0.000000
vt 0.319328 0.000000
vt 0.277311 0.000000
vt 0.327731 0.000000
vt 0.268908 0.000000
vt 0.336134 0.000000
vt 0.260504 0.000000
vt 0.344538 0.000000
vt 0.252101 0.000000
vt 0.352941 0.000000
vt 0.243697 0.000000
vt 0.361345 0.000000
vt 0.235294 0.000000
vt 0.369748 0.000000
vt 0.226891 0.000000
vt 0.378151 0.000000
vt 0.806723 0.000000
vt 0.815126 0.000000
vt 0.218487 0.000000
vt 0.386555 0.000000
vt 0.798319 0.000000
vt 0.789916 0.000000
vt 0.823529 0.000000
vt 0.781513 0.000000
vt 0.831933 0.000000
vt 0.773109 0.000000
vt 0.840336 0.000000
vt 0.764706 0.000000
vt 0.848740 0.000000
vt 0.210084 0.000000
vt 0.756303 0.000000
vt 0.857143 0.000000
vt 0.394958 0.000000
vt 0.747899 0.000000
vt 0.865546 0.000000
vt 0.739496 0.000000
vt 0.873950 0.000000
vt 0.731092 0.000000
vt 0.882353 0.000000
vt 0.201681 0.000000
vt 0.403361 0.000000
vt 0.722689 0.000000
vt 0.890756 0.000000
vt 0.899160 0.000000
vt 0.714286 0.000000
vt 0.193277 0.000000
vt 0.907563 0.000000
vt 0.705882 0.000000
vt 0.184874 0.000000
vt 0.411765 0.000000
vt 0.176471 0.000000
vt 0.420168 0.000000
vt 0.168067 0.000000
vt 0.428571 0.000000
vt 0.159664 0.000000
vt 0.436975 0.000000
vt 0.151261 0.000000
vt 0.445378 0.000000
vt 0.142857 0.000000
vt 0.453782 0.000000
vt 0.915966 0.000000
vt 0.134454 0.000000
vt 0.697479 0.000000
vt 0.462185 0.000000
vt 0.126050 0.000000
vt 0.470588 0.000000
vt 0.117647 0.000000
vt 0.478992 0.000000
vt 0.109244 0.000000
vt 0.487395 0.000000
vt 0.100840 0.000000
vt 0.495798 0.000000
vt 0.092437 0.000000
vt 0.504202 0.000000
vt 0.924370 0.000000
vt 0.689076 0.000000
vt 0.512605 0.000000
vt 0.932773 0.000000
vt 0.680672 0.000000
vt 0.084034 0.000000
vt 0.941176 0.000000
vt 0.672269 0.000000
vt 0.521008 0.000000
vt 0.949580 0.000000
vt 0.663866 0.000000
vt 0.957983 0.000000
vt 0.655462 0.000000
vt 0.075630 0.000000
vt 0.529412 0.000000
vt 0.966387 0.000000
vt 0.647059 0.000000
vt 0.974790 0.000000
vt 0.638655 0.000000
vt 0.983193 0.000000
vt 0.630252 0.000000
vt 0.991597 0.000000
vt 0.621849 0.000000
vt 0.067227 0.000000
vt 0.537815 0.000000
vt 1.000000 0.000000
vt 0.613445 0.000000
vt 0.605042 0.000000
vt 0.058824 0.000000
vt 0.546219 0.000000
vt 0.050420 0.000000
vt 0.554622 0.000000
vt 0.042017 0.000000
vt 0.563025 0.000000
vt 0.033613 0.000000
vt 0.571429 0.000000
vt 0.025210 0.000000
vt 0.579832 0.000000
vt 0.016807 0.000000
vt 0.588235 0.000000
vt 0.008403 0.000000
vt 0.596639 0.000000
vt 0.000000 0.000000
s 0
usemtl マテリアル.006
f 38/1/1 36/2/1 37/3/1
f 38/1/1 35/4/1 36/2/1
f 39/5/1 35/4/1 38/1/1
f 39/5/1 34/6/1 35/4/1
f 40/7/1 34/6/1 39/5/1
f 40/7/1 33/8/1 34/6/1
f 41/9/1 33/8/1 40/7/1
f 41/9/1 32/10/1 33/8/1
f 42/11/1 32/10/1 41/9/1
f 42/11/1 31/12/1 32/10/1
f 43/13/1 31/12/1 42/11/1
f 43/13/1 30/14/1 31/12/1
f 44/15/1 30/14/1 43/13/1
f 44/15/1 29/16/1 30/14/1
f 45/17/1 29/16/1 44/15/1
f 45/17/1 28/18/1 29/16/1
f 46/19/1 28/18/1 45/17/1
f 46/19/1 97/20/1 28/18/1
f 97/20/1 98/21/1 28/18/1
f 98/21/1 27/22/1 28/18/1
f 47/23/1 96/24/1 46/19/1
f 96/24/1 97/20/1 46/19/1
f 47/23/1 95/25/1 96/24/1
f 99/26/1 27/22/1 98/21/1
f 47/23/1 94/27/1 95/25/1
f 100/28/1 27/22/1 99/26/1
f 47/23/1 93/29/1 94/27/1
f 101/30/1 27/22/1 100/28/1
f 47/23/1 92/31/1 93/29/1
f 102/32/1 27/22/1 101/30/1
f 102/32/1 26/33/1 27/22/1
f 47/23/1 91/34/1 92/31/1
f 103/35/1 26/33/1 102/32/1
f 48/36/1 91/34/1 47/23/1
f 48/36/1 90/37/1 91/34/1
f 104/38/1 26/33/1 103/35/1
f 48/36/1 89/39/1 90/37/1
f 105/40/1 26/33/1 104/38/1
f 48/36/1 88/41/1 89/39/1
f 106/42/1 26/33/1 105/40/1
f 106/42/1 25/43/1 26/33/1
f 49/44/1 88/41/1 48/36/1
f 49/44/1 87/45/1 88/41/1
f 107/46/1 25/43/1 106/42/1
f 108/47/1 25/43/1 107/46/1
f 49/44/1 86/48/1 87/45/1
f 108/47/1 24/49/1 25/43/1
f 109/50/1 24/49/1 108/47/1
f 49/44/1 85/51/1 86/48/1
f 109/50/1 23/52/1 24/49/1
f 50/53/1 85/51/1 49/44/1
f 109/50/1 22/54/1 23/52/1
f 51/55/1 85/51/1 50/53/1
f 109/50/1 21/56/1 22/54/1
f 52/57/1 85/51/1 51/55/1
f 109/50/1 20/58/1 21/56/1
f 53/59/1 85/51/1 52/57/1
f 109/50/1 19/60/1 20/58/1
f 54/61/1 85/51/1 53/59/1
f 109/50/1 18/62/1 19/60/1
f 55/63/1 85/51/1 54/61/1
f 110/64/1 18/62/1 109/50/1
f 110/64/1 17/65/1 18/62/1
f 55/63/1 84/66/1 85/51/1
f 56/67/1 84/66/1 55/63/1
f 110/64/1 16/68/1 17/65/1
f 57/69/1 84/66/1 56/67/1
f 110/64/1 15/70/1 16/68/1
f 58/71/1 84/66/1 57/69/1
f 110/64/1 14/72/1 15/70/1
f 59/73/1 84/66/1 58/71/1
f 110/64/1 13/74/1 14/72/1
f 60/75/1 84/66/1 59/73/1
f 110/64/1 12/76/1 13/74/1
f 61/77/1 84/66/1 60/75/1
f 111/78/1 12/76/1 110/64/1
f 61/77/1 83/79/1 84/66/1
f 62/80/1 83/79/1 61/77/1
f 112/81/1 12/76/1 111/78/1
f 62/80/1 82/82/1 83/79/1
f 112/81/1 11/83/1 12/76/1
f 113/84/1 11/83/1 112/81/1
f 62/80/1 81/85/1 82/82/1
f 63/86/1 81/85/1 62/80/1
f 114/87/1 11/83/1 113/84/1
f 63/86/1 80/88/1 81/85/1
f 115/89/1 11/83/1 114/87/1
f 63/86/1 79/90/1 80/88/1
f 115/89/1 10/91/1 11/83/1
f 64/92/1 79/90/1 63/86/1
f 116/93/1 10/91/1 115/89/1
f 64/92/1 78/94/1 79/90/1
f 117/95/1 10/91/1 116/93/1
f 64/92/1 77/96/1 78/94/1
f 118/97/1 10/91/1 117/95/1
f 64/92/1 76/98/1 77/96/1
f 119/99/1 10/91/1 118/97/1
f 64/92/1 75/100/1 76/98/1
f 119/99/1 9/101/1 10/91/1
f 65/102/1 75/100/1 64/92/1
f 120/103/1 9/101/1 119/99/1
f 65/102/1 74/104/1 75/100/1
f 73/105/1 9/101/1 120/103/1
f 65/102/1 73/105/1 74/104/1
f 65/102/1 9/101/1 73/105/1
f 65/102/1 8/106/1 9/101/1
f 66/107/1 8/106/1 65/102/1
f 66/107/1 7/108/1 8/106/1
f 67/109/1 7/108/1 66/107/1
f 67/109/1 6/110/1 7/108/1
f 68/111/1 6/110/1 67/109/1
f 68/111/1 5/112/1 6/110/1
f 69/113/1 5/112/1 68/111/1
f 69/113/1 4/114/1 5/112/1
f 70/115/1 4/114/1 69/113/1
f 70/115/1 3/116/1 4/114/1
f 71/117/1 3/116/1 70/115/1
f 71/117/1 2/118/1 3/116/1
f 72/119/1 2/118/1 71/117/1
f 72/119/1 1/120/1 2/118/1
