# Blender 4.2.0
# www.blender.org
mtllib 2.mtl
o テキスト
v 0.236766 0.000000 0.298022
v 0.240722 0.000000 0.165480
v 0.058724 0.000000 0.165480
v 0.073246 0.000000 0.153420
v 0.087610 0.000000 0.140962
v 0.101782 0.000000 0.128079
v 0.115727 0.000000 0.114742
v 0.129411 0.000000 0.100924
v 0.142799 0.000000 0.086597
v 0.155858 0.000000 0.071735
v 0.168553 0.000000 0.056310
v 0.180849 0.000000 0.040294
v 0.192713 0.000000 0.023660
v 0.204110 0.000000 0.006380
v 0.215005 0.000000 -0.011573
v 0.220238 0.000000 -0.021336
v 0.225052 0.000000 -0.031318
v 0.229440 0.000000 -0.041494
v 0.233395 0.000000 -0.051834
v 0.236911 0.000000 -0.062311
v 0.239980 0.000000 -0.072898
v 0.242596 0.000000 -0.083568
v 0.244752 0.000000 -0.094292
v 0.246440 0.000000 -0.105044
v 0.247655 0.000000 -0.115797
v 0.248389 0.000000 -0.126521
v 0.248635 0.000000 -0.137191
v 0.247123 0.000000 -0.164459
v 0.242558 0.000000 -0.191139
v 0.234895 0.000000 -0.216892
v 0.224090 0.000000 -0.241378
v 0.210098 0.000000 -0.264257
v 0.192873 0.000000 -0.285188
v 0.172373 0.000000 -0.303832
v 0.148551 0.000000 -0.319848
v 0.121363 0.000000 -0.332897
v 0.090765 0.000000 -0.342639
v 0.056712 0.000000 -0.348734
v 0.019159 0.000000 -0.350841
v -0.026755 0.000000 -0.347593
v -0.066830 0.000000 -0.338381
v -0.101452 0.000000 -0.323995
v -0.131004 0.000000 -0.305231
v -0.155871 0.000000 -0.282882
v -0.176439 0.000000 -0.257740
v -0.193092 0.000000 -0.230599
v -0.206213 0.000000 -0.202253
v -0.216189 0.000000 -0.173495
v -0.223404 0.000000 -0.145118
v -0.228242 0.000000 -0.117915
v -0.231088 0.000000 -0.092680
v -0.082720 0.000000 -0.079822
v -0.079824 0.000000 -0.096481
v -0.076034 0.000000 -0.112701
v -0.071283 0.000000 -0.128289
v -0.065502 0.000000 -0.143052
v -0.058622 0.000000 -0.156799
v -0.050574 0.000000 -0.169337
v -0.041289 0.000000 -0.180474
v -0.030700 0.000000 -0.190017
v -0.018736 0.000000 -0.197774
v -0.005331 0.000000 -0.203553
v 0.009586 0.000000 -0.207162
v 0.026083 0.000000 -0.208407
v 0.036737 0.000000 -0.207841
v 0.046447 0.000000 -0.206182
v 0.055216 0.000000 -0.203493
v 0.063047 0.000000 -0.199835
v 0.069944 0.000000 -0.195271
v 0.075910 0.000000 -0.189861
v 0.080949 0.000000 -0.183669
v 0.085064 0.000000 -0.176756
v 0.088258 0.000000 -0.169183
v 0.090536 0.000000 -0.161012
v 0.091900 0.000000 -0.152306
v 0.092354 0.000000 -0.143126
v 0.092046 0.000000 -0.135093
v 0.091122 0.000000 -0.126837
v 0.089588 0.000000 -0.118382
v 0.087445 0.000000 -0.109752
v 0.084698 0.000000 -0.100971
v 0.081350 0.000000 -0.092062
v 0.077404 0.000000 -0.083051
v 0.072865 0.000000 -0.073960
v 0.067734 0.000000 -0.064815
v 0.062016 0.000000 -0.055639
v 0.055715 0.000000 -0.046456
v 0.048833 0.000000 -0.037290
v 0.035290 0.000000 -0.020735
v 0.021270 0.000000 -0.004585
v 0.006625 0.000000 0.011332
v -0.008793 0.000000 0.027186
v -0.025131 0.000000 0.043151
v -0.042537 0.000000 0.059397
v -0.061159 0.000000 0.076096
v -0.081145 0.000000 0.093421
v -0.102642 0.000000 0.111542
v -0.125797 0.000000 0.130632
v -0.150759 0.000000 0.150862
v -0.177676 0.000000 0.172404
v -0.177676 0.000000 0.300000
vn -0.0000 1.0000 -0.0000
vt 0.390000 0.000000
vt 0.370000 0.000000
vt 0.380000 0.000000
vt 0.360000 0.000000
vt 0.400000 0.000000
vt 0.350000 0.000000
vt 0.410000 0.000000
vt 0.340000 0.000000
vt 0.420000 0.000000
vt 0.330000 0.000000
vt 0.430000 0.000000
vt 0.320000 0.000000
vt 0.310000 0.000000
vt 0.440000 0.000000
vt 0.300000 0.000000
vt 0.450000 0.000000
vt 0.290000 0.000000
vt 0.460000 0.000000
vt 0.630000 0.000000
vt 0.640000 0.000000
vt 0.280000 0.000000
vt 0.620000 0.000000
vt 0.650000 0.000000
vt 0.610000 0.000000
vt 0.660000 0.000000
vt 0.600000 0.000000
vt 0.670000 0.000000
vt 0.470000 0.000000
vt 0.680000 0.000000
vt 0.590000 0.000000
vt 0.690000 0.000000
vt 0.270000 0.000000
vt 0.580000 0.000000
vt 0.700000 0.000000
vt 0.710000 0.000000
vt 0.570000 0.000000
vt 0.720000 0.000000
vt 0.480000 0.000000
vt 0.560000 0.000000
vt 0.730000 0.000000
vt 0.260000 0.000000
vt 0.740000 0.000000
vt 0.550000 0.000000
vt 0.750000 0.000000
vt 0.490000 0.000000
vt 0.760000 0.000000
vt 0.540000 0.000000
vt 0.250000 0.000000
vt 0.770000 0.000000
vt 0.530000 0.000000
vt 0.780000 0.000000
vt 0.240000 0.000000
vt 0.790000 0.000000
vt 0.500000 0.000000
vt 0.230000 0.000000
vt 0.520000 0.000000
vt 0.800000 0.000000
vt 0.220000 0.000000
vt 0.810000 0.000000
vt 0.510000 0.000000
vt 0.210000 0.000000
vt 0.820000 0.000000
vt 0.200000 0.000000
vt 0.830000 0.000000
vt 0.840000 0.000000
vt 0.190000 0.000000
vt 0.850000 0.000000
vt 0.180000 0.000000
vt 0.860000 0.000000
vt 0.170000 0.000000
vt 0.870000 0.000000
vt 0.160000 0.000000
vt 0.880000 0.000000
vt 0.150000 0.000000
vt 0.140000 0.000000
vt 0.890000 0.000000
vt 0.130000 0.000000
vt 0.900000 0.000000
vt 0.120000 0.000000
vt 0.910000 0.000000
vt 0.110000 0.000000
vt 0.920000 0.000000
vt 0.100000 0.000000
vt 0.930000 0.000000
vt 0.090000 0.000000
vt 0.940000 0.000000
vt 0.080000 0.000000
vt 0.950000 0.000000
vt 0.070000 0.000000
vt 0.960000 0.000000
vt 0.060000 0.000000
vt 0.970000 0.000000
vt 0.050000 0.000000
vt 0.040000 0.000000
vt 0.980000 0.000000
vt 0.030000 0.000000
vt 0.990000 0.000000
vt 0.020000 0.000000
vt 0.010000 0.000000
vt 0.000000 0.000000
vt 1.000000 0.000000
s 0
usemtl マテリアル.006
f 40/1/1 38/2/1 39/3/1
f 40/1/1 37/4/1 38/2/1
f 41/5/1 37/4/1 40/1/1
f 41/5/1 36/6/1 37/4/1
f 42/7/1 36/6/1 41/5/1
f 42/7/1 35/8/1 36/6/1
f 43/9/1 35/8/1 42/7/1
f 43/9/1 34/10/1 35/8/1
f 44/11/1 34/10/1 43/9/1
f 44/11/1 33/12/1 34/10/1
f 44/11/1 32/13/1 33/12/1
f 45/14/1 32/13/1 44/11/1
f 45/14/1 31/15/1 32/13/1
f 46/16/1 31/15/1 45/14/1
f 46/16/1 30/17/1 31/15/1
f 47/18/1 30/17/1 46/16/1
f 47/18/1 64/19/1 30/17/1
f 64/19/1 65/20/1 30/17/1
f 65/20/1 29/21/1 30/17/1
f 47/18/1 63/22/1 64/19/1
f 66/23/1 29/21/1 65/20/1
f 47/18/1 62/24/1 63/22/1
f 67/25/1 29/21/1 66/23/1
f 47/18/1 61/26/1 62/24/1
f 68/27/1 29/21/1 67/25/1
f 48/28/1 61/26/1 47/18/1
f 69/29/1 29/21/1 68/27/1
f 48/28/1 60/30/1 61/26/1
f 70/31/1 29/21/1 69/29/1
f 70/31/1 28/32/1 29/21/1
f 48/28/1 59/33/1 60/30/1
f 71/34/1 28/32/1 70/31/1
f 72/35/1 28/32/1 71/34/1
f 48/28/1 58/36/1 59/33/1
f 73/37/1 28/32/1 72/35/1
f 49/38/1 58/36/1 48/28/1
f 49/38/1 57/39/1 58/36/1
f 74/40/1 28/32/1 73/37/1
f 74/40/1 27/41/1 28/32/1
f 75/42/1 27/41/1 74/40/1
f 49/38/1 56/43/1 57/39/1
f 76/44/1 27/41/1 75/42/1
f 50/45/1 56/43/1 49/38/1
f 77/46/1 27/41/1 76/44/1
f 50/45/1 55/47/1 56/43/1
f 77/46/1 26/48/1 27/41/1
f 78/49/1 26/48/1 77/46/1
f 50/45/1 54/50/1 55/47/1
f 79/51/1 26/48/1 78/49/1
f 79/51/1 25/52/1 26/48/1
f 80/53/1 25/52/1 79/51/1
f 51/54/1 54/50/1 50/45/1
f 80/53/1 24/55/1 25/52/1
f 51/54/1 53/56/1 54/50/1
f 81/57/1 24/55/1 80/53/1
f 81/57/1 23/58/1 24/55/1
f 82/59/1 23/58/1 81/57/1
f 51/54/1 52/60/1 53/56/1
f 82/59/1 22/61/1 23/58/1
f 83/62/1 22/61/1 82/59/1
f 83/62/1 21/63/1 22/61/1
f 84/64/1 21/63/1 83/62/1
f 85/65/1 21/63/1 84/64/1
f 85/65/1 20/66/1 21/63/1
f 86/67/1 20/66/1 85/65/1
f 86/67/1 19/68/1 20/66/1
f 87/69/1 19/68/1 86/67/1
f 87/69/1 18/70/1 19/68/1
f 88/71/1 18/70/1 87/69/1
f 88/71/1 17/72/1 18/70/1
f 89/73/1 17/72/1 88/71/1
f 89/73/1 16/74/1 17/72/1
f 89/73/1 15/75/1 16/74/1
f 90/76/1 15/75/1 89/73/1
f 90/76/1 14/77/1 15/75/1
f 91/78/1 14/77/1 90/76/1
f 91/78/1 13/79/1 14/77/1
f 92/80/1 13/79/1 91/78/1
f 92/80/1 12/81/1 13/79/1
f 93/82/1 12/81/1 92/80/1
f 93/82/1 11/83/1 12/81/1
f 94/84/1 11/83/1 93/82/1
f 94/84/1 10/85/1 11/83/1
f 95/86/1 10/85/1 94/84/1
f 95/86/1 9/87/1 10/85/1
f 96/88/1 9/87/1 95/86/1
f 96/88/1 8/89/1 9/87/1
f 97/90/1 8/89/1 96/88/1
f 97/90/1 7/91/1 8/89/1
f 98/92/1 7/91/1 97/90/1
f 98/92/1 6/93/1 7/91/1
f 98/92/1 5/94/1 6/93/1
f 99/95/1 5/94/1 98/92/1
f 99/95/1 4/96/1 5/94/1
f 100/97/1 4/96/1 99/95/1
f 100/97/1 3/98/1 4/96/1
f 100/97/1 2/99/1 3/98/1
f 100/97/1 1/100/1 2/99/1
f 101/101/1 1/100/1 100/97/1
