# Blender 4.2.0
# www.blender.org
mtllib 3.mtl
o テキスト
v 0.016192 0.000000 0.311869
v 0.046771 0.000000 0.309982
v 0.076024 0.000000 0.304520
v 0.103698 0.000000 0.295781
v 0.129538 0.000000 0.284064
v 0.153289 0.000000 0.269669
v 0.174698 0.000000 0.252893
v 0.193511 0.000000 0.234036
v 0.209473 0.000000 0.213397
v 0.222331 0.000000 0.191274
v 0.231829 0.000000 0.167966
v 0.237715 0.000000 0.143772
v 0.239733 0.000000 0.118991
v 0.239316 0.000000 0.107600
v 0.238048 0.000000 0.096191
v 0.235900 0.000000 0.084789
v 0.232846 0.000000 0.073418
v 0.228857 0.000000 0.062102
v 0.223907 0.000000 0.050866
v 0.217968 0.000000 0.039732
v 0.211012 0.000000 0.028725
v 0.203012 0.000000 0.017869
v 0.193940 0.000000 0.007189
v 0.183770 0.000000 -0.003293
v 0.172473 0.000000 -0.013551
v 0.183562 0.000000 -0.023435
v 0.193597 0.000000 -0.033768
v 0.202595 0.000000 -0.044507
v 0.210572 0.000000 -0.055607
v 0.217547 0.000000 -0.067022
v 0.223536 0.000000 -0.078709
v 0.228557 0.000000 -0.090623
v 0.232626 0.000000 -0.102718
v 0.235761 0.000000 -0.114951
v 0.237979 0.000000 -0.127277
v 0.239297 0.000000 -0.139650
v 0.239733 0.000000 -0.152028
v 0.237919 0.000000 -0.177172
v 0.232557 0.000000 -0.201932
v 0.223768 0.000000 -0.225964
v 0.211671 0.000000 -0.248925
v 0.196387 0.000000 -0.270470
v 0.178037 0.000000 -0.290257
v 0.156739 0.000000 -0.307942
v 0.132615 0.000000 -0.323182
v 0.105784 0.000000 -0.335633
v 0.076368 0.000000 -0.344952
v 0.044485 0.000000 -0.350795
v 0.010257 0.000000 -0.352819
v -0.032780 0.000000 -0.350196
v -0.070608 0.000000 -0.342713
v -0.103538 0.000000 -0.330950
v -0.131883 0.000000 -0.315489
v -0.155956 0.000000 -0.296909
v -0.176068 0.000000 -0.275791
v -0.192534 0.000000 -0.252716
v -0.205664 0.000000 -0.228263
v -0.215772 0.000000 -0.203014
v -0.223170 0.000000 -0.177548
v -0.228172 0.000000 -0.152446
v -0.231088 0.000000 -0.128289
v -0.098546 0.000000 -0.115430
v -0.095918 0.000000 -0.129694
v -0.092437 0.000000 -0.143240
v -0.088037 0.000000 -0.155969
v -0.082647 0.000000 -0.167780
v -0.076199 0.000000 -0.178575
v -0.068625 0.000000 -0.188254
v -0.059856 0.000000 -0.196717
v -0.049823 0.000000 -0.203865
v -0.038457 0.000000 -0.209597
v -0.025690 0.000000 -0.213816
v -0.011453 0.000000 -0.216419
v 0.004322 0.000000 -0.217310
v 0.018697 0.000000 -0.216509
v 0.032109 0.000000 -0.214205
v 0.044505 0.000000 -0.210540
v 0.055830 0.000000 -0.205660
v 0.066028 0.000000 -0.199708
v 0.075044 0.000000 -0.192829
v 0.082825 0.000000 -0.185167
v 0.089313 0.000000 -0.176866
v 0.094456 0.000000 -0.168070
v 0.098197 0.000000 -0.158924
v 0.100482 0.000000 -0.149572
v 0.101256 0.000000 -0.140158
v 0.100569 0.000000 -0.131523
v 0.098481 0.000000 -0.123009
v 0.094951 0.000000 -0.114735
v 0.089936 0.000000 -0.106821
v 0.083397 0.000000 -0.099389
v 0.075292 0.000000 -0.092557
v 0.065579 0.000000 -0.086446
v 0.054218 0.000000 -0.081177
v 0.041167 0.000000 -0.076870
v 0.026385 0.000000 -0.073645
v 0.009831 0.000000 -0.071621
v -0.008536 0.000000 -0.070920
v -0.010020 0.000000 -0.070939
v -0.011508 0.000000 -0.070993
v -0.013003 0.000000 -0.071074
v -0.014507 0.000000 -0.071176
v -0.016026 0.000000 -0.071292
v -0.017562 0.000000 -0.071414
v -0.019118 0.000000 -0.071537
v -0.020699 0.000000 -0.071653
v -0.022307 0.000000 -0.071754
v -0.023945 0.000000 -0.071836
v -0.025618 0.000000 -0.071890
v -0.027329 0.000000 -0.071909
v -0.027329 0.000000 0.041840
v -0.006443 0.000000 0.040972
v 0.012249 0.000000 0.041739
v 0.028819 0.000000 0.044003
v 0.043338 0.000000 0.047628
v 0.055879 0.000000 0.052475
v 0.066513 0.000000 0.058408
v 0.075314 0.000000 0.065288
v 0.082353 0.000000 0.072979
v 0.087702 0.000000 0.081343
v 0.091434 0.000000 0.090243
v 0.093620 0.000000 0.099541
v 0.094332 0.000000 0.109100
v 0.093644 0.000000 0.118514
v 0.091626 0.000000 0.127866
v 0.088351 0.000000 0.137012
v 0.083892 0.000000 0.145807
v 0.078319 0.000000 0.154108
v 0.071706 0.000000 0.161771
v 0.064125 0.000000 0.168650
v 0.055647 0.000000 0.174602
v 0.046345 0.000000 0.179482
v 0.036290 0.000000 0.183147
v 0.025556 0.000000 0.185451
v 0.014214 0.000000 0.186251
v -0.003437 0.000000 0.185453
v -0.018926 0.000000 0.183082
v -0.032445 0.000000 0.179173
v -0.044181 0.000000 0.173759
v -0.054324 0.000000 0.166875
v -0.063061 0.000000 0.158556
v -0.070583 0.000000 0.148835
v -0.077078 0.000000 0.137748
v -0.082736 0.000000 0.125328
v -0.087744 0.000000 0.111609
v -0.092291 0.000000 0.096627
v -0.096568 0.000000 0.080415
v -0.227132 0.000000 0.118002
v -0.219832 0.000000 0.144049
v -0.210687 0.000000 0.169111
v -0.199544 0.000000 0.192943
v -0.186248 0.000000 0.215302
v -0.170644 0.000000 0.235944
v -0.152577 0.000000 0.254624
v -0.131893 0.000000 0.271100
v -0.108437 0.000000 0.285127
v -0.082056 0.000000 0.296461
v -0.052593 0.000000 0.304859
v -0.019896 0.000000 0.310076
vn -0.0000 1.0000 -0.0000
vt 0.310127 0.000000
vt 0.297468 0.000000
vt 0.303797 0.000000
vt 0.291139 0.000000
vt 0.316456 0.000000
vt 0.284810 0.000000
vt 0.322785 0.000000
vt 0.278481 0.000000
vt 0.329114 0.000000
vt 0.272152 0.000000
vt 0.335443 0.000000
vt 0.265823 0.000000
vt 0.341772 0.000000
vt 0.259494 0.000000
vt 0.348101 0.000000
vt 0.253165 0.000000
vt 0.354430 0.000000
vt 0.246835 0.000000
vt 0.360759 0.000000
vt 0.455696 0.000000
vt 0.462025 0.000000
vt 0.468354 0.000000
vt 0.240506 0.000000
vt 0.474684 0.000000
vt 0.449367 0.000000
vt 0.481013 0.000000
vt 0.443038 0.000000
vt 0.487342 0.000000
vt 0.436709 0.000000
vt 0.493671 0.000000
vt 0.430380 0.000000
vt 0.367089 0.000000
vt 0.234177 0.000000
vt 0.500000 0.000000
vt 0.424051 0.000000
vt 0.506329 0.000000
vt 0.417722 0.000000
vt 0.512658 0.000000
vt 0.411392 0.000000
vt 0.373418 0.000000
vt 0.227848 0.000000
vt 0.518987 0.000000
vt 0.525316 0.000000
vt 0.405063 0.000000
vt 0.531646 0.000000
vt 0.398734 0.000000
vt 0.379747 0.000000
vt 0.221519 0.000000
vt 0.537975 0.000000
vt 0.392405 0.000000
vt 0.544304 0.000000
vt 0.215190 0.000000
vt 0.550633 0.000000
vt 0.386076 0.000000
vt 0.208861 0.000000
vt 0.556962 0.000000
vt 0.202532 0.000000
vt 0.563291 0.000000
vt 0.569620 0.000000
vt 0.196203 0.000000
vt 0.575949 0.000000
vt 0.582278 0.000000
vt 0.189873 0.000000
vt 0.588608 0.000000
vt 0.594937 0.000000
vt 0.183544 0.000000
vt 0.601266 0.000000
vt 0.607595 0.000000
vt 0.696203 0.000000
vt 0.683544 0.000000
vt 0.689873 0.000000
vt 0.677215 0.000000
vt 0.670886 0.000000
vt 0.664557 0.000000
vt 0.658228 0.000000
vt 0.613924 0.000000
vt 0.651899 0.000000
vt 0.645570 0.000000
vt 0.639241 0.000000
vt 0.632911 0.000000
vt 0.626582 0.000000
vt 0.620253 0.000000
vt 0.177215 0.000000
vt 0.170886 0.000000
vt 0.164557 0.000000
vt 0.158228 0.000000
vt 0.151899 0.000000
vt 0.145570 0.000000
vt 0.139241 0.000000
vt 0.132911 0.000000
vt 0.126582 0.000000
vt 0.702532 0.000000
vt 0.120253 0.000000
vt 0.708861 0.000000
vt 0.113924 0.000000
vt 0.715190 0.000000
vt 0.721519 0.000000
vt 0.727848 0.000000
vt 0.107595 0.000000
vt 0.734177 0.000000
vt 0.740506 0.000000
vt 0.101266 0.000000
vt 0.746835 0.000000
vt 0.753165 0.000000
vt 0.094937 0.000000
vt 0.930380 0.000000
vt 0.917722 0.000000
vt 0.924051 0.000000
vt 0.759494 0.000000
vt 0.088608 0.000000
vt 0.765823 0.000000
vt 0.082278 0.000000
vt 0.911392 0.000000
vt 0.772152 0.000000
vt 0.075949 0.000000
vt 0.778481 0.000000
vt 0.905063 0.000000
vt 0.936709 0.000000
vt 0.784810 0.000000
vt 0.069620 0.000000
vt 0.898734 0.000000
vt 0.791139 0.000000
vt 0.797468 0.000000
vt 0.892405 0.000000
vt 0.063291 0.000000
vt 0.943038 0.000000
vt 0.803797 0.000000
vt 0.886076 0.000000
vt 0.810127 0.000000
vt 0.879747 0.000000
vt 0.816456 0.000000
vt 0.873418 0.000000
vt 0.056962 0.000000
vt 0.822785 0.000000
vt 0.949367 0.000000
vt 0.867089 0.000000
vt 0.829114 0.000000
vt 0.860759 0.000000
vt 0.835443 0.000000
vt 0.854430 0.000000
vt 0.841772 0.000000
vt 0.848101 0.000000
vt 0.050633 0.000000
vt 0.955696 0.000000
vt 0.044304 0.000000
vt 0.962025 0.000000
vt 0.037975 0.000000
vt 0.968354 0.000000
vt 0.031646 0.000000
vt 0.974684 0.000000
vt 0.025316 0.000000
vt 0.981013 0.000000
vt 0.018987 0.000000
vt 0.987342 0.000000
vt 0.012658 0.000000
vt 0.993671 0.000000
vt 0.006329 0.000000
vt 1.000000 0.000000
vt 0.000000 0.000000
s 0
usemtl マテリアル.006
f 50/1/1 48/2/1 49/3/1
f 50/1/1 47/4/1 48/2/1
f 51/5/1 47/4/1 50/1/1
f 51/5/1 46/6/1 47/4/1
f 52/7/1 46/6/1 51/5/1
f 52/7/1 45/8/1 46/6/1
f 53/9/1 45/8/1 52/7/1
f 53/9/1 44/10/1 45/8/1
f 54/11/1 44/10/1 53/9/1
f 54/11/1 43/12/1 44/10/1
f 55/13/1 43/12/1 54/11/1
f 55/13/1 42/14/1 43/12/1
f 56/15/1 42/14/1 55/13/1
f 56/15/1 41/16/1 42/14/1
f 57/17/1 41/16/1 56/15/1
f 57/17/1 40/18/1 41/16/1
f 58/19/1 73/20/1 57/17/1
f 73/20/1 74/21/1 57/17/1
f 74/21/1 40/18/1 57/17/1
f 74/21/1 75/22/1 40/18/1
f 75/22/1 39/23/1 40/18/1
f 76/24/1 39/23/1 75/22/1
f 58/19/1 72/25/1 73/20/1
f 77/26/1 39/23/1 76/24/1
f 58/19/1 71/27/1 72/25/1
f 78/28/1 39/23/1 77/26/1
f 58/19/1 70/29/1 71/27/1
f 79/30/1 39/23/1 78/28/1
f 58/19/1 69/31/1 70/29/1
f 59/32/1 69/31/1 58/19/1
f 79/30/1 38/33/1 39/23/1
f 80/34/1 38/33/1 79/30/1
f 59/32/1 68/35/1 69/31/1
f 81/36/1 38/33/1 80/34/1
f 59/32/1 67/37/1 68/35/1
f 82/38/1 38/33/1 81/36/1
f 59/32/1 66/39/1 67/37/1
f 60/40/1 66/39/1 59/32/1
f 82/38/1 37/41/1 38/33/1
f 83/42/1 37/41/1 82/38/1
f 84/43/1 37/41/1 83/42/1
f 60/40/1 65/44/1 66/39/1
f 85/45/1 37/41/1 84/43/1
f 60/40/1 64/46/1 65/44/1
f 61/47/1 64/46/1 60/40/1
f 85/45/1 36/48/1 37/41/1
f 86/49/1 36/48/1 85/45/1
f 61/47/1 63/50/1 64/46/1
f 87/51/1 36/48/1 86/49/1
f 87/51/1 35/52/1 36/48/1
f 88/53/1 35/52/1 87/51/1
f 61/47/1 62/54/1 63/50/1
f 88/53/1 34/55/1 35/52/1
f 89/56/1 34/55/1 88/53/1
f 89/56/1 33/57/1 34/55/1
f 90/58/1 33/57/1 89/56/1
f 91/59/1 33/57/1 90/58/1
f 91/59/1 32/60/1 33/57/1
f 92/61/1 32/60/1 91/59/1
f 93/62/1 32/60/1 92/61/1
f 93/62/1 31/63/1 32/60/1
f 94/64/1 31/63/1 93/62/1
f 95/65/1 31/63/1 94/64/1
f 95/65/1 30/66/1 31/63/1
f 96/67/1 30/66/1 95/65/1
f 97/68/1 30/66/1 96/67/1
f 111/69/1 109/70/1 110/71/1
f 111/69/1 108/72/1 109/70/1
f 111/69/1 107/73/1 108/72/1
f 111/69/1 106/74/1 107/73/1
f 111/69/1 105/75/1 106/74/1
f 98/76/1 30/66/1 97/68/1
f 111/69/1 104/77/1 105/75/1
f 111/69/1 103/78/1 104/77/1
f 111/69/1 102/79/1 103/78/1
f 111/69/1 101/80/1 102/79/1
f 111/69/1 100/81/1 101/80/1
f 111/69/1 99/82/1 100/81/1
f 111/69/1 98/76/1 99/82/1
f 111/69/1 30/66/1 98/76/1
f 111/69/1 29/83/1 30/66/1
f 111/69/1 28/84/1 29/83/1
f 111/69/1 27/85/1 28/84/1
f 111/69/1 26/86/1 27/85/1
f 111/69/1 25/87/1 26/86/1
f 111/69/1 24/88/1 25/87/1
f 111/69/1 23/89/1 24/88/1
f 111/69/1 22/90/1 23/89/1
f 111/69/1 21/91/1 22/90/1
f 111/69/1 112/92/1 21/91/1
f 112/92/1 20/93/1 21/91/1
f 112/92/1 113/94/1 20/93/1
f 113/94/1 19/95/1 20/93/1
f 114/96/1 19/95/1 113/94/1
f 115/97/1 19/95/1 114/96/1
f 116/98/1 19/95/1 115/97/1
f 116/98/1 18/99/1 19/95/1
f 117/100/1 18/99/1 116/98/1
f 118/101/1 18/99/1 117/100/1
f 118/101/1 17/102/1 18/99/1
f 119/103/1 17/102/1 118/101/1
f 120/104/1 17/102/1 119/103/1
f 120/104/1 16/105/1 17/102/1
f 148/106/1 146/107/1 147/108/1
f 121/109/1 16/105/1 120/104/1
f 121/109/1 15/110/1 16/105/1
f 122/111/1 15/110/1 121/109/1
f 122/111/1 14/112/1 15/110/1
f 148/106/1 145/113/1 146/107/1
f 123/114/1 14/112/1 122/111/1
f 123/114/1 13/115/1 14/112/1
f 124/116/1 13/115/1 123/114/1
f 148/106/1 144/117/1 145/113/1
f 149/118/1 144/117/1 148/106/1
f 125/119/1 13/115/1 124/116/1
f 125/119/1 12/120/1 13/115/1
f 149/118/1 143/121/1 144/117/1
f 126/122/1 12/120/1 125/119/1
f 127/123/1 12/120/1 126/122/1
f 149/118/1 142/124/1 143/121/1
f 127/123/1 11/125/1 12/120/1
f 150/126/1 142/124/1 149/118/1
f 128/127/1 11/125/1 127/123/1
f 150/126/1 141/128/1 142/124/1
f 129/129/1 11/125/1 128/127/1
f 150/126/1 140/130/1 141/128/1
f 130/131/1 11/125/1 129/129/1
f 150/126/1 139/132/1 140/130/1
f 130/131/1 10/133/1 11/125/1
f 131/134/1 10/133/1 130/131/1
f 151/135/1 139/132/1 150/126/1
f 151/135/1 138/136/1 139/132/1
f 132/137/1 10/133/1 131/134/1
f 151/135/1 137/138/1 138/136/1
f 133/139/1 10/133/1 132/137/1
f 151/135/1 136/140/1 137/138/1
f 134/141/1 10/133/1 133/139/1
f 135/142/1 10/133/1 134/141/1
f 151/135/1 135/142/1 136/140/1
f 151/135/1 10/133/1 135/142/1
f 151/135/1 9/143/1 10/133/1
f 152/144/1 9/143/1 151/135/1
f 152/144/1 8/145/1 9/143/1
f 153/146/1 8/145/1 152/144/1
f 153/146/1 7/147/1 8/145/1
f 154/148/1 7/147/1 153/146/1
f 154/148/1 6/149/1 7/147/1
f 155/150/1 6/149/1 154/148/1
f 155/150/1 5/151/1 6/149/1
f 156/152/1 5/151/1 155/150/1
f 156/152/1 4/153/1 5/151/1
f 157/154/1 4/153/1 156/152/1
f 157/154/1 3/155/1 4/153/1
f 158/156/1 3/155/1 157/154/1
f 158/156/1 2/157/1 3/155/1
f 159/158/1 2/157/1 158/156/1
f 159/158/1 1/159/1 2/157/1
