# Blender 4.2.0
# www.blender.org
mtllib 4.mtl
o テキスト
v 0.166538 0.000000 0.045796
v 0.166538 0.000000 -0.347873
v 0.022127 0.000000 -0.346884
v -0.240979 0.000000 0.051731
v -0.240979 0.000000 0.188230
v 0.006301 0.000000 0.188230
v 0.006301 0.000000 0.300000
v 0.165549 0.000000 0.300000
v 0.165549 0.000000 0.188230
v 0.244678 0.000000 0.188230
v 0.244678 0.000000 0.045796
v 0.007290 0.000000 0.047774
v -0.078764 0.000000 0.047774
v 0.007290 0.000000 -0.085757
vn -0.0000 1.0000 -0.0000
vt 0.153846 0.000000
vt 0.000000 0.000000
vt 0.076923 0.000000
vt 0.230769 0.000000
vt 1.000000 0.000000
vt 0.923077 0.000000
vt 0.846154 0.000000
vt 0.769231 0.000000
vt 0.692308 0.000000
vt 0.307692 0.000000
vt 0.384615 0.000000
vt 0.461538 0.000000
vt 0.615385 0.000000
vt 0.538462 0.000000
s 0
usemtl マテリアル.006
f 3/1/1 1/2/1 2/3/1
f 4/4/1 14/5/1 3/1/1
f 14/5/1 1/2/1 3/1/1
f 4/4/1 13/6/1 14/5/1
f 12/7/1 1/2/1 14/5/1
f 12/7/1 11/8/1 1/2/1
f 12/7/1 10/9/1 11/8/1
f 4/4/1 12/7/1 13/6/1
f 4/4/1 10/9/1 12/7/1
f 5/10/1 10/9/1 4/4/1
f 6/11/1 10/9/1 5/10/1
f 7/12/1 9/13/1 6/11/1
f 9/13/1 10/9/1 6/11/1
f 7/12/1 8/14/1 9/13/1
