# Blender 4.2.0
# www.blender.org
mtllib 6.mtl
o テキスト
v 0.038942 0.000000 0.312859
v 0.075533 0.000000 0.311130
v 0.109123 0.000000 0.306035
v 0.139677 0.000000 0.297713
v 0.167161 0.000000 0.286299
v 0.191540 0.000000 0.271931
v 0.212779 0.000000 0.254748
v 0.230846 0.000000 0.234885
v 0.245704 0.000000 0.212481
v 0.257321 0.000000 0.187673
v 0.265661 0.000000 0.160598
v 0.270690 0.000000 0.131394
v 0.272374 0.000000 0.100198
v 0.271064 0.000000 0.073180
v 0.267167 0.000000 0.047587
v 0.260736 0.000000 0.023526
v 0.251822 0.000000 0.001103
v 0.240476 0.000000 -0.019575
v 0.226751 0.000000 -0.038403
v 0.210696 0.000000 -0.055272
v 0.192365 0.000000 -0.070077
v 0.171808 0.000000 -0.082712
v 0.149077 0.000000 -0.093070
v 0.124224 0.000000 -0.101044
v 0.097300 0.000000 -0.106528
v 0.093570 0.000000 -0.107022
v 0.089803 0.000000 -0.107508
v 0.086002 0.000000 -0.107981
v 0.082170 0.000000 -0.108433
v 0.078310 0.000000 -0.108858
v 0.074426 0.000000 -0.109248
v 0.070522 0.000000 -0.109597
v 0.066600 0.000000 -0.109898
v 0.062665 0.000000 -0.110145
v 0.058719 0.000000 -0.110329
v 0.054767 0.000000 -0.110445
v 0.050811 0.000000 -0.110485
v 0.039959 0.000000 -0.110255
v 0.029192 0.000000 -0.109550
v 0.018556 0.000000 -0.108352
v 0.008096 0.000000 -0.106638
v -0.002145 0.000000 -0.104388
v -0.012122 0.000000 -0.101583
v -0.021789 0.000000 -0.098200
v -0.031103 0.000000 -0.094219
v -0.040018 0.000000 -0.089620
v -0.048490 0.000000 -0.084383
v -0.056475 0.000000 -0.078486
v -0.063927 0.000000 -0.071909
v -0.062760 0.000000 -0.092971
v -0.059370 0.000000 -0.112147
v -0.053927 0.000000 -0.129448
v -0.046599 0.000000 -0.144884
v -0.037553 0.000000 -0.158466
v -0.026958 0.000000 -0.170203
v -0.014983 0.000000 -0.180106
v -0.001795 0.000000 -0.188185
v 0.012436 0.000000 -0.194452
v 0.027544 0.000000 -0.198915
v 0.043359 0.000000 -0.201585
v 0.059713 0.000000 -0.202473
v 0.069661 0.000000 -0.202165
v 0.079702 0.000000 -0.201246
v 0.089804 0.000000 -0.199722
v 0.099937 0.000000 -0.197600
v 0.110071 0.000000 -0.194888
v 0.120173 0.000000 -0.191592
v 0.130214 0.000000 -0.187720
v 0.140162 0.000000 -0.183277
v 0.149986 0.000000 -0.178270
v 0.159655 0.000000 -0.172708
v 0.169140 0.000000 -0.166595
v 0.178407 0.000000 -0.159941
v 0.264461 0.000000 -0.264787
v 0.252274 0.000000 -0.278084
v 0.238922 0.000000 -0.290710
v 0.224355 0.000000 -0.302575
v 0.208521 0.000000 -0.313584
v 0.191367 0.000000 -0.323645
v 0.172844 0.000000 -0.332666
v 0.152898 0.000000 -0.340553
v 0.131479 0.000000 -0.347214
v 0.108535 0.000000 -0.352556
v 0.084015 0.000000 -0.356487
v 0.057867 0.000000 -0.358913
v 0.030040 0.000000 -0.359743
v -0.005435 0.000000 -0.357016
v -0.039446 0.000000 -0.348972
v -0.071685 0.000000 -0.335818
v -0.101843 0.000000 -0.317760
v -0.129611 0.000000 -0.295004
v -0.154679 0.000000 -0.267755
v -0.176738 0.000000 -0.236220
v -0.195480 0.000000 -0.200604
v -0.210595 0.000000 -0.161115
v -0.221774 0.000000 -0.117958
v -0.228708 0.000000 -0.071339
v -0.231088 0.000000 -0.021464
v -0.229496 0.000000 0.026671
v -0.224618 0.000000 0.071990
v -0.216298 0.000000 0.114231
v -0.204382 0.000000 0.153134
v -0.188716 0.000000 0.188438
v -0.169144 0.000000 0.219881
v -0.145514 0.000000 0.247203
v -0.117669 0.000000 0.270143
v -0.085456 0.000000 0.288440
v -0.048719 0.000000 0.301832
v -0.007305 0.000000 0.310058
v 0.039931 0.000000 0.179327
v 0.027335 0.000000 0.178620
v 0.015331 0.000000 0.176557
v 0.004013 0.000000 0.173223
v -0.006521 0.000000 0.168704
v -0.016177 0.000000 0.163085
v -0.024857 0.000000 0.156454
v -0.032465 0.000000 0.148895
v -0.038906 0.000000 0.140495
v -0.044083 0.000000 0.131340
v -0.047899 0.000000 0.121514
v -0.050260 0.000000 0.111105
v -0.051068 0.000000 0.100198
v -0.050260 0.000000 0.089518
v -0.047899 0.000000 0.079298
v -0.044083 0.000000 0.069628
v -0.038906 0.000000 0.060596
v -0.032465 0.000000 0.052293
v -0.024857 0.000000 0.044807
v -0.016177 0.000000 0.038228
v -0.006521 0.000000 0.032645
v 0.004013 0.000000 0.028147
v 0.015331 0.000000 0.024823
v 0.027335 0.000000 0.022764
v 0.039931 0.000000 0.022057
v 0.051883 0.000000 0.022764
v 0.063427 0.000000 0.024823
v 0.074442 0.000000 0.028147
v 0.084807 0.000000 0.032645
v 0.094404 0.000000 0.038228
v 0.103111 0.000000 0.044807
v 0.110808 0.000000 0.052293
v 0.117375 0.000000 0.060596
v 0.122692 0.000000 0.069628
v 0.126639 0.000000 0.079298
v 0.129095 0.000000 0.089518
v 0.129941 0.000000 0.100198
v 0.129095 0.000000 0.111105
v 0.126639 0.000000 0.121514
v 0.122692 0.000000 0.131340
v 0.117375 0.000000 0.140495
v 0.110808 0.000000 0.148895
v 0.103111 0.000000 0.156454
v 0.094404 0.000000 0.163085
v 0.084807 0.000000 0.168704
v 0.074442 0.000000 0.173223
v 0.063427 0.000000 0.176557
v 0.051883 0.000000 0.178620
vn -0.0000 1.0000 -0.0000
vt 0.551282 0.000000
vt 0.538462 0.000000
vt 0.544872 0.000000
vt 0.532051 0.000000
vt 0.557692 0.000000
vt 0.525641 0.000000
vt 0.519231 0.000000
vt 0.564103 0.000000
vt 0.512821 0.000000
vt 0.506410 0.000000
vt 0.570513 0.000000
vt 0.500000 0.000000
vt 0.493590 0.000000
vt 0.576923 0.000000
vt 0.487179 0.000000
vt 0.480769 0.000000
vt 0.583333 0.000000
vt 0.474359 0.000000
vt 0.467949 0.000000
vt 0.589744 0.000000
vt 0.397436 0.000000
vt 0.403846 0.000000
vt 0.410256 0.000000
vt 0.416667 0.000000
vt 0.423077 0.000000
vt 0.429487 0.000000
vt 0.435897 0.000000
vt 0.442308 0.000000
vt 0.448718 0.000000
vt 0.455128 0.000000
vt 0.461538 0.000000
vt 0.596154 0.000000
vt 0.384615 0.000000
vt 0.391026 0.000000
vt 0.378205 0.000000
vt 0.371795 0.000000
vt 0.602564 0.000000
vt 0.365385 0.000000
vt 0.358974 0.000000
vt 0.352564 0.000000
vt 0.346154 0.000000
vt 0.339744 0.000000
vt 0.608974 0.000000
vt 0.333333 0.000000
vt 0.326923 0.000000
vt 0.320513 0.000000
vt 0.615385 0.000000
vt 0.314103 0.000000
vt 0.237179 0.000000
vt 0.224359 0.000000
vt 0.230769 0.000000
vt 0.217949 0.000000
vt 0.211538 0.000000
vt 0.243590 0.000000
vt 0.205128 0.000000
vt 0.198718 0.000000
vt 0.192308 0.000000
vt 0.250000 0.000000
vt 0.185897 0.000000
vt 0.179487 0.000000
vt 0.173077 0.000000
vt 0.256410 0.000000
vt 0.166667 0.000000
vt 0.160256 0.000000
vt 0.153846 0.000000
vt 0.262821 0.000000
vt 0.147436 0.000000
vt 0.269231 0.000000
vt 0.275641 0.000000
vt 0.141026 0.000000
vt 0.282051 0.000000
vt 0.288462 0.000000
vt 0.134615 0.000000
vt 0.307692 0.000000
vt 0.294872 0.000000
vt 0.301282 0.000000
vt 0.128205 0.000000
vt 0.621795 0.000000
vt 0.121795 0.000000
vt 0.115385 0.000000
vt 0.108974 0.000000
vt 0.628205 0.000000
vt 0.102564 0.000000
vt 0.852564 0.000000
vt 0.096154 0.000000
vt 0.846154 0.000000
vt 0.858974 0.000000
vt 0.839744 0.000000
vt 0.865385 0.000000
vt 0.089744 0.000000
vt 0.833333 0.000000
vt 0.871795 0.000000
vt 0.634615 0.000000
vt 0.826923 0.000000
vt 0.878205 0.000000
vt 0.820513 0.000000
vt 0.884615 0.000000
vt 0.814103 0.000000
vt 0.891026 0.000000
vt 0.807692 0.000000
vt 0.897436 0.000000
vt 0.083333 0.000000
vt 0.801282 0.000000
vt 0.903846 0.000000
vt 0.794872 0.000000
vt 0.910256 0.000000
vt 0.788462 0.000000
vt 0.916667 0.000000
vt 0.641026 0.000000
vt 0.076923 0.000000
vt 0.782051 0.000000
vt 0.923077 0.000000
vt 0.775641 0.000000
vt 0.929487 0.000000
vt 0.769231 0.000000
vt 0.935897 0.000000
vt 0.070513 0.000000
vt 0.942308 0.000000
vt 0.762821 0.000000
vt 0.647436 0.000000
vt 0.948718 0.000000
vt 0.756410 0.000000
vt 0.955128 0.000000
vt 0.750000 0.000000
vt 0.064103 0.000000
vt 0.961538 0.000000
vt 0.743590 0.000000
vt 0.967949 0.000000
vt 0.737179 0.000000
vt 0.653846 0.000000
vt 0.974359 0.000000
vt 0.730769 0.000000
vt 0.057692 0.000000
vt 0.724359 0.000000
vt 0.980769 0.000000
vt 0.717949 0.000000
vt 0.987179 0.000000
vt 0.711538 0.000000
vt 0.993590 0.000000
vt 0.705128 0.000000
vt 1.000000 0.000000
vt 0.698718 0.000000
vt 0.051282 0.000000
vt 0.660256 0.000000
vt 0.044872 0.000000
vt 0.666667 0.000000
vt 0.038462 0.000000
vt 0.673077 0.000000
vt 0.032051 0.000000
vt 0.679487 0.000000
vt 0.025641 0.000000
vt 0.019231 0.000000
vt 0.685897 0.000000
vt 0.012821 0.000000
vt 0.692308 0.000000
vt 0.006410 0.000000
vt 0.000000 0.000000
s 0
usemtl マテリアル.006
f 87/1/1 85/2/1 86/3/1
f 87/1/1 84/4/1 85/2/1
f 88/5/1 84/4/1 87/1/1
f 88/5/1 83/6/1 84/4/1
f 88/5/1 82/7/1 83/6/1
f 89/8/1 82/7/1 88/5/1
f 89/8/1 81/9/1 82/7/1
f 89/8/1 80/10/1 81/9/1
f 90/11/1 80/10/1 89/8/1
f 90/11/1 79/12/1 80/10/1
f 90/11/1 78/13/1 79/12/1
f 91/14/1 78/13/1 90/11/1
f 91/14/1 77/15/1 78/13/1
f 91/14/1 76/16/1 77/15/1
f 92/17/1 76/16/1 91/14/1
f 92/17/1 75/18/1 76/16/1
f 92/17/1 74/19/1 75/18/1
f 93/20/1 74/19/1 92/17/1
f 93/20/1 63/21/1 74/19/1
f 63/21/1 64/22/1 74/19/1
f 64/22/1 65/23/1 74/19/1
f 65/23/1 66/24/1 74/19/1
f 66/24/1 67/25/1 74/19/1
f 67/25/1 68/26/1 74/19/1
f 68/26/1 69/27/1 74/19/1
f 69/27/1 70/28/1 74/19/1
f 70/28/1 71/29/1 74/19/1
f 71/29/1 72/30/1 74/19/1
f 72/30/1 73/31/1 74/19/1
f 94/32/1 61/33/1 93/20/1
f 61/33/1 62/34/1 93/20/1
f 62/34/1 63/21/1 93/20/1
f 94/32/1 60/35/1 61/33/1
f 94/32/1 59/36/1 60/35/1
f 95/37/1 59/36/1 94/32/1
f 95/37/1 58/38/1 59/36/1
f 95/37/1 57/39/1 58/38/1
f 95/37/1 56/40/1 57/39/1
f 95/37/1 55/41/1 56/40/1
f 95/37/1 54/42/1 55/41/1
f 96/43/1 54/42/1 95/37/1
f 96/43/1 53/44/1 54/42/1
f 96/43/1 52/45/1 53/44/1
f 96/43/1 51/46/1 52/45/1
f 97/47/1 51/46/1 96/43/1
f 97/47/1 50/48/1 51/46/1
f 38/49/1 36/50/1 37/51/1
f 38/49/1 35/52/1 36/50/1
f 38/49/1 34/53/1 35/52/1
f 39/54/1 34/53/1 38/49/1
f 39/54/1 33/55/1 34/53/1
f 39/54/1 32/56/1 33/55/1
f 39/54/1 31/57/1 32/56/1
f 40/58/1 31/57/1 39/54/1
f 40/58/1 30/59/1 31/57/1
f 40/58/1 29/60/1 30/59/1
f 40/58/1 28/61/1 29/60/1
f 41/62/1 28/61/1 40/58/1
f 41/62/1 27/63/1 28/61/1
f 41/62/1 26/64/1 27/63/1
f 41/62/1 25/65/1 26/64/1
f 42/66/1 25/65/1 41/62/1
f 42/66/1 24/67/1 25/65/1
f 43/68/1 24/67/1 42/66/1
f 44/69/1 24/67/1 43/68/1
f 44/69/1 23/70/1 24/67/1
f 45/71/1 23/70/1 44/69/1
f 46/72/1 23/70/1 45/71/1
f 46/72/1 22/73/1 23/70/1
f 97/47/1 49/74/1 50/48/1
f 47/75/1 22/73/1 46/72/1
f 48/76/1 22/73/1 47/75/1
f 48/76/1 21/77/1 22/73/1
f 49/74/1 21/77/1 48/76/1
f 97/47/1 21/77/1 49/74/1
f 98/78/1 21/77/1 97/47/1
f 98/78/1 20/79/1 21/77/1
f 98/78/1 19/80/1 20/79/1
f 98/78/1 18/81/1 19/80/1
f 99/82/1 18/81/1 98/78/1
f 99/82/1 17/83/1 18/81/1
f 99/82/1 134/84/1 17/83/1
f 134/84/1 16/85/1 17/83/1
f 99/82/1 133/86/1 134/84/1
f 135/87/1 16/85/1 134/84/1
f 99/82/1 132/88/1 133/86/1
f 136/89/1 16/85/1 135/87/1
f 136/89/1 15/90/1 16/85/1
f 99/82/1 131/91/1 132/88/1
f 137/92/1 15/90/1 136/89/1
f 100/93/1 131/91/1 99/82/1
f 100/93/1 130/94/1 131/91/1
f 138/95/1 15/90/1 137/92/1
f 100/93/1 129/96/1 130/94/1
f 139/97/1 15/90/1 138/95/1
f 100/93/1 128/98/1 129/96/1
f 140/99/1 15/90/1 139/97/1
f 100/93/1 127/100/1 128/98/1
f 141/101/1 15/90/1 140/99/1
f 141/101/1 14/102/1 15/90/1
f 100/93/1 126/103/1 127/100/1
f 142/104/1 14/102/1 141/101/1
f 100/93/1 125/105/1 126/103/1
f 143/106/1 14/102/1 142/104/1
f 100/93/1 124/107/1 125/105/1
f 144/108/1 14/102/1 143/106/1
f 101/109/1 124/107/1 100/93/1
f 144/108/1 13/110/1 14/102/1
f 101/109/1 123/111/1 124/107/1
f 145/112/1 13/110/1 144/108/1
f 101/109/1 122/113/1 123/111/1
f 146/114/1 13/110/1 145/112/1
f 101/109/1 121/115/1 122/113/1
f 147/116/1 13/110/1 146/114/1
f 147/116/1 12/117/1 13/110/1
f 148/118/1 12/117/1 147/116/1
f 101/109/1 120/119/1 121/115/1
f 102/120/1 120/119/1 101/109/1
f 149/121/1 12/117/1 148/118/1
f 102/120/1 119/122/1 120/119/1
f 150/123/1 12/117/1 149/121/1
f 102/120/1 118/124/1 119/122/1
f 150/123/1 11/125/1 12/117/1
f 151/126/1 11/125/1 150/123/1
f 102/120/1 117/127/1 118/124/1
f 152/128/1 11/125/1 151/126/1
f 102/120/1 116/129/1 117/127/1
f 103/130/1 116/129/1 102/120/1
f 153/131/1 11/125/1 152/128/1
f 103/130/1 115/132/1 116/129/1
f 153/131/1 10/133/1 11/125/1
f 103/130/1 114/134/1 115/132/1
f 154/135/1 10/133/1 153/131/1
f 103/130/1 113/136/1 114/134/1
f 155/137/1 10/133/1 154/135/1
f 103/130/1 112/138/1 113/136/1
f 156/139/1 10/133/1 155/137/1
f 103/130/1 111/140/1 112/138/1
f 157/141/1 10/133/1 156/139/1
f 103/130/1 110/142/1 111/140/1
f 110/142/1 10/133/1 157/141/1
f 103/130/1 10/133/1 110/142/1
f 103/130/1 9/143/1 10/133/1
f 104/144/1 9/143/1 103/130/1
f 104/144/1 8/145/1 9/143/1
f 105/146/1 8/145/1 104/144/1
f 105/146/1 7/147/1 8/145/1
f 106/148/1 7/147/1 105/146/1
f 106/148/1 6/149/1 7/147/1
f 107/150/1 6/149/1 106/148/1
f 107/150/1 5/151/1 6/149/1
f 107/150/1 4/152/1 5/151/1
f 108/153/1 4/152/1 107/150/1
f 108/153/1 3/154/1 4/152/1
f 109/155/1 3/154/1 108/153/1
f 109/155/1 2/156/1 3/154/1
f 1/157/1 2/156/1 109/155/1
