# Blender 4.2.0
# www.blender.org
mtllib 7.mtl
o テキスト
v 0.268417 0.000000 -0.154995
v 0.268417 0.000000 -0.345895
v -0.231088 0.000000 -0.347873
v -0.231088 0.000000 -0.056083
v -0.067883 0.000000 -0.056083
v -0.068872 0.000000 -0.184669
v 0.098289 0.000000 -0.184669
v -0.042166 0.000000 0.280218
v 0.107191 0.000000 0.318793
vn -0.0000 1.0000 -0.0000
vt 0.375000 0.000000
vt 0.625000 0.000000
vt 0.250000 0.000000
vt 0.125000 0.000000
vt 0.750000 0.000000
vt 0.000000 0.000000
vt 0.500000 0.000000
vt 0.875000 0.000000
vt 1.000000 0.000000
s 0
usemtl マテリアル.006
f 4/1/1 6/2/1 3/3/1
f 6/2/1 2/4/1 3/3/1
f 6/2/1 7/5/1 2/4/1
f 7/5/1 1/6/1 2/4/1
f 4/1/1 5/7/1 6/2/1
f 8/8/1 1/6/1 7/5/1
f 8/8/1 9/9/1 1/6/1
