# Blender 4.2.0
# www.blender.org
mtllib 8.mtl
o テキスト
v 0.196212 0.000000 -0.027399
v 0.205769 0.000000 -0.036338
v 0.214639 0.000000 -0.045835
v 0.222794 0.000000 -0.055867
v 0.230208 0.000000 -0.066414
v 0.236853 0.000000 -0.077456
v 0.242700 0.000000 -0.088971
v 0.247724 0.000000 -0.100940
v 0.251895 0.000000 -0.113342
v 0.255188 0.000000 -0.126156
v 0.257574 0.000000 -0.139361
v 0.259025 0.000000 -0.152938
v 0.259515 0.000000 -0.166864
v 0.257378 0.000000 -0.195574
v 0.251154 0.000000 -0.222292
v 0.241124 0.000000 -0.246921
v 0.227570 0.000000 -0.269367
v 0.210775 0.000000 -0.289531
v 0.191019 0.000000 -0.307319
v 0.168584 0.000000 -0.322635
v 0.143752 0.000000 -0.335381
v 0.116804 0.000000 -0.345462
v 0.088022 0.000000 -0.352782
v 0.057688 0.000000 -0.357245
v 0.026083 0.000000 -0.358754
v -0.005976 0.000000 -0.357245
v -0.036689 0.000000 -0.352782
v -0.065781 0.000000 -0.345462
v -0.092978 0.000000 -0.335381
v -0.118003 0.000000 -0.322635
v -0.140584 0.000000 -0.307319
v -0.160444 0.000000 -0.289531
v -0.177309 0.000000 -0.269367
v -0.190905 0.000000 -0.246921
v -0.200957 0.000000 -0.222292
v -0.207189 0.000000 -0.195574
v -0.209327 0.000000 -0.166864
v -0.208837 0.000000 -0.152938
v -0.207386 0.000000 -0.139361
v -0.205000 0.000000 -0.126156
v -0.201708 0.000000 -0.113342
v -0.197536 0.000000 -0.100940
v -0.192512 0.000000 -0.088971
v -0.186665 0.000000 -0.077456
v -0.180020 0.000000 -0.066414
v -0.172606 0.000000 -0.055867
v -0.164451 0.000000 -0.045835
v -0.155581 0.000000 -0.036338
v -0.146024 0.000000 -0.027399
v -0.158710 0.000000 -0.018416
v -0.170527 0.000000 -0.008784
v -0.181431 0.000000 0.001487
v -0.191377 0.000000 0.012386
v -0.200319 0.000000 0.023903
v -0.208215 0.000000 0.036029
v -0.215018 0.000000 0.048752
v -0.220684 0.000000 0.062062
v -0.225169 0.000000 0.075949
v -0.228428 0.000000 0.090403
v -0.230415 0.000000 0.105413
v -0.231088 0.000000 0.120969
v -0.228748 0.000000 0.149965
v -0.221930 0.000000 0.177033
v -0.210935 0.000000 0.202062
v -0.196066 0.000000 0.224937
v -0.177625 0.000000 0.245545
v -0.155915 0.000000 0.263774
v -0.131237 0.000000 0.279508
v -0.103895 0.000000 0.292637
v -0.074189 0.000000 0.303045
v -0.042423 0.000000 0.310619
v -0.008898 0.000000 0.315247
v 0.026083 0.000000 0.316815
v 0.060610 0.000000 0.315247
v 0.093755 0.000000 0.310619
v 0.125211 0.000000 0.303045
v 0.154669 0.000000 0.292637
v 0.181818 0.000000 0.279508
v 0.206350 0.000000 0.263774
v 0.227956 0.000000 0.245545
v 0.246327 0.000000 0.224937
v 0.261154 0.000000 0.202062
v 0.272127 0.000000 0.177033
v 0.278937 0.000000 0.149965
v 0.281276 0.000000 0.120969
v 0.280603 0.000000 0.105413
v 0.278615 0.000000 0.090403
v 0.275357 0.000000 0.075949
v 0.270872 0.000000 0.062062
v 0.265206 0.000000 0.048752
v 0.258403 0.000000 0.036029
v 0.250507 0.000000 0.023903
v 0.241565 0.000000 0.012386
v 0.231619 0.000000 0.001487
v 0.220715 0.000000 -0.008784
v 0.208898 0.000000 -0.018416
v 0.027072 0.000000 -0.223244
v 0.039460 0.000000 -0.222597
v 0.051329 0.000000 -0.220703
v 0.062572 0.000000 -0.217634
v 0.073085 0.000000 -0.213463
v 0.082759 0.000000 -0.208262
v 0.091489 0.000000 -0.202102
v 0.099167 0.000000 -0.195056
v 0.105689 0.000000 -0.187196
v 0.110946 0.000000 -0.178595
v 0.114834 0.000000 -0.169324
v 0.117244 0.000000 -0.159455
v 0.118071 0.000000 -0.149060
v 0.117244 0.000000 -0.139952
v 0.114834 0.000000 -0.131004
v 0.110946 0.000000 -0.122339
v 0.105689 0.000000 -0.114075
v 0.099167 0.000000 -0.106333
v 0.091489 0.000000 -0.099233
v 0.082759 0.000000 -0.092896
v 0.073085 0.000000 -0.087442
v 0.062572 0.000000 -0.082990
v 0.051328 0.000000 -0.079662
v 0.039460 0.000000 -0.077576
v 0.027072 0.000000 -0.076855
v 0.014685 0.000000 -0.077576
v 0.002816 0.000000 -0.079662
v -0.008428 0.000000 -0.082990
v -0.018940 0.000000 -0.087442
v -0.028614 0.000000 -0.092896
v -0.037344 0.000000 -0.099233
v -0.045023 0.000000 -0.106333
v -0.051545 0.000000 -0.114075
v -0.056802 0.000000 -0.122339
v -0.060689 0.000000 -0.131004
v -0.063100 0.000000 -0.139952
v -0.063927 0.000000 -0.149060
v -0.063100 0.000000 -0.159455
v -0.060689 0.000000 -0.169324
v -0.056802 0.000000 -0.178595
v -0.051545 0.000000 -0.187196
v -0.045023 0.000000 -0.195056
v -0.037344 0.000000 -0.202102
v -0.028614 0.000000 -0.208262
v -0.018940 0.000000 -0.213463
v -0.008428 0.000000 -0.217634
v 0.002816 0.000000 -0.220703
v 0.014685 0.000000 -0.222597
v 0.027072 0.000000 0.183284
v 0.012977 0.000000 0.182521
v -0.000541 0.000000 0.180312
v -0.013358 0.000000 0.176777
v -0.025351 0.000000 0.172037
v -0.036396 0.000000 0.166212
v -0.046370 0.000000 0.159421
v -0.055148 0.000000 0.151786
v -0.062608 0.000000 0.143426
v -0.068625 0.000000 0.134462
v -0.073076 0.000000 0.125013
v -0.075837 0.000000 0.115200
v -0.076785 0.000000 0.105143
v -0.075837 0.000000 0.095411
v -0.073076 0.000000 0.086057
v -0.068625 0.000000 0.077170
v -0.062608 0.000000 0.068839
v -0.055148 0.000000 0.061154
v -0.046370 0.000000 0.054204
v -0.036396 0.000000 0.048078
v -0.025351 0.000000 0.042866
v -0.013358 0.000000 0.038656
v -0.000541 0.000000 0.035539
v 0.012977 0.000000 0.033603
v 0.027072 0.000000 0.032938
v 0.041167 0.000000 0.033603
v 0.054685 0.000000 0.035539
v 0.067502 0.000000 0.038656
v 0.079496 0.000000 0.042866
v 0.090541 0.000000 0.048078
v 0.100514 0.000000 0.054204
v 0.109293 0.000000 0.061154
v 0.116752 0.000000 0.068839
v 0.122770 0.000000 0.077170
v 0.127221 0.000000 0.086057
v 0.129982 0.000000 0.095411
v 0.130930 0.000000 0.105143
v 0.129982 0.000000 0.115200
v 0.127221 0.000000 0.125013
v 0.122770 0.000000 0.134462
v 0.116752 0.000000 0.143426
v 0.109293 0.000000 0.151786
v 0.100514 0.000000 0.159421
v 0.090541 0.000000 0.166212
v 0.079496 0.000000 0.172037
v 0.067502 0.000000 0.176777
v 0.054685 0.000000 0.180312
v 0.041167 0.000000 0.182521
vn -0.0000 1.0000 -0.0000
vt 0.130890 0.000000
vt 0.120419 0.000000
vt 0.125654 0.000000
vt 0.136126 0.000000
vt 0.115183 0.000000
vt 0.141361 0.000000
vt 0.109948 0.000000
vt 0.146597 0.000000
vt 0.104712 0.000000
vt 0.151832 0.000000
vt 0.099476 0.000000
vt 0.157068 0.000000
vt 0.094241 0.000000
vt 0.162304 0.000000
vt 0.089005 0.000000
vt 0.167539 0.000000
vt 0.083770 0.000000
vt 0.172775 0.000000
vt 0.078534 0.000000
vt 0.178010 0.000000
vt 0.502618 0.000000
vt 0.073298 0.000000
vt 0.748691 0.000000
vt 0.507853 0.000000
vt 0.743455 0.000000
vt 0.513089 0.000000
vt 0.183246 0.000000
vt 0.068063 0.000000
vt 0.738220 0.000000
vt 0.518325 0.000000
vt 0.732984 0.000000
vt 0.523560 0.000000
vt 0.727749 0.000000
vt 0.528796 0.000000
vt 0.722513 0.000000
vt 0.534031 0.000000
vt 0.717277 0.000000
vt 0.539267 0.000000
vt 0.188482 0.000000
vt 0.062827 0.000000
vt 0.712042 0.000000
vt 0.544503 0.000000
vt 0.706806 0.000000
vt 0.549738 0.000000
vt 0.701571 0.000000
vt 0.554974 0.000000
vt 0.696335 0.000000
vt 0.560209 0.000000
vt 0.193717 0.000000
vt 0.057592 0.000000
vt 0.691099 0.000000
vt 0.565445 0.000000
vt 0.198953 0.000000
vt 0.052356 0.000000
vt 0.685864 0.000000
vt 0.570681 0.000000
vt 0.680628 0.000000
vt 0.575916 0.000000
vt 0.204188 0.000000
vt 0.047120 0.000000
vt 0.675393 0.000000
vt 0.581152 0.000000
vt 0.209424 0.000000
vt 0.041885 0.000000
vt 0.670157 0.000000
vt 0.586387 0.000000
vt 0.591623 0.000000
vt 0.664921 0.000000
vt 0.214660 0.000000
vt 0.036649 0.000000
vt 0.596859 0.000000
vt 0.659686 0.000000
vt 0.219895 0.000000
vt 0.031414 0.000000
vt 0.602094 0.000000
vt 0.654450 0.000000
vt 0.607330 0.000000
vt 0.649215 0.000000
vt 0.026178 0.000000
vt 0.225131 0.000000
vt 0.612565 0.000000
vt 0.643979 0.000000
vt 0.617801 0.000000
vt 0.638743 0.000000
vt 0.623037 0.000000
vt 0.633508 0.000000
vt 0.628272 0.000000
vt 0.020942 0.000000
vt 0.230366 0.000000
vt 0.015707 0.000000
vt 0.235602 0.000000
vt 0.010471 0.000000
vt 0.240838 0.000000
vt 0.005236 0.000000
vt 0.246073 0.000000
vt 0.000000 0.000000
vt 0.251309 0.000000
vt 0.256545 0.000000
vt 0.497382 0.000000
vt 0.261780 0.000000
vt 0.492147 0.000000
vt 0.267016 0.000000
vt 0.486911 0.000000
vt 0.272251 0.000000
vt 0.481675 0.000000
vt 0.277487 0.000000
vt 0.476440 0.000000
vt 0.282723 0.000000
vt 0.879581 0.000000
vt 0.471204 0.000000
vt 0.874346 0.000000
vt 0.884817 0.000000
vt 0.869110 0.000000
vt 0.890052 0.000000
vt 0.863874 0.000000
vt 0.895288 0.000000
vt 0.287958 0.000000
vt 0.465969 0.000000
vt 0.858639 0.000000
vt 0.900524 0.000000
vt 0.853403 0.000000
vt 0.905759 0.000000
vt 0.848168 0.000000
vt 0.910995 0.000000
vt 0.293194 0.000000
vt 0.460733 0.000000
vt 0.842932 0.000000
vt 0.916230 0.000000
vt 0.837696 0.000000
vt 0.921466 0.000000
vt 0.298429 0.000000
vt 0.455497 0.000000
vt 0.832461 0.000000
vt 0.926702 0.000000
vt 0.303665 0.000000
vt 0.450262 0.000000
vt 0.827225 0.000000
vt 0.931937 0.000000
vt 0.821990 0.000000
vt 0.937173 0.000000
vt 0.308901 0.000000
vt 0.445026 0.000000
vt 0.816754 0.000000
vt 0.942408 0.000000
vt 0.811518 0.000000
vt 0.947644 0.000000
vt 0.314136 0.000000
vt 0.439791 0.000000
vt 0.806283 0.000000
vt 0.952880 0.000000
vt 0.319372 0.000000
vt 0.434555 0.000000
vt 0.801047 0.000000
vt 0.958115 0.000000
vt 0.795812 0.000000
vt 0.963351 0.000000
vt 0.790576 0.000000
vt 0.968586 0.000000
vt 0.429319 0.000000
vt 0.324607 0.000000
vt 0.785340 0.000000
vt 0.973822 0.000000
vt 0.780105 0.000000
vt 0.979058 0.000000
vt 0.984293 0.000000
vt 0.774869 0.000000
vt 0.989529 0.000000
vt 0.769634 0.000000
vt 0.994764 0.000000
vt 0.764398 0.000000
vt 0.424084 0.000000
vt 0.329843 0.000000
vt 1.000000 0.000000
vt 0.759162 0.000000
vt 0.753927 0.000000
vt 0.418848 0.000000
vt 0.335079 0.000000
vt 0.413613 0.000000
vt 0.340314 0.000000
vt 0.408377 0.000000
vt 0.345550 0.000000
vt 0.403141 0.000000
vt 0.350785 0.000000
vt 0.397906 0.000000
vt 0.356021 0.000000
vt 0.392670 0.000000
vt 0.361257 0.000000
vt 0.387435 0.000000
vt 0.366492 0.000000
vt 0.382199 0.000000
vt 0.371728 0.000000
vt 0.376963 0.000000
s 0
usemtl マテリアル.006
f 26/1/1 24/2/1 25/3/1
f 27/4/1 24/2/1 26/1/1
f 27/4/1 23/5/1 24/2/1
f 28/6/1 23/5/1 27/4/1
f 28/6/1 22/7/1 23/5/1
f 29/8/1 22/7/1 28/6/1
f 29/8/1 21/9/1 22/7/1
f 30/10/1 21/9/1 29/8/1
f 30/10/1 20/11/1 21/9/1
f 31/12/1 20/11/1 30/10/1
f 31/12/1 19/13/1 20/11/1
f 32/14/1 19/13/1 31/12/1
f 32/14/1 18/15/1 19/13/1
f 33/16/1 18/15/1 32/14/1
f 33/16/1 17/17/1 18/15/1
f 34/18/1 17/17/1 33/16/1
f 34/18/1 16/19/1 17/17/1
f 35/20/1 16/19/1 34/18/1
f 35/20/1 97/21/1 16/19/1
f 97/21/1 15/22/1 16/19/1
f 35/20/1 144/23/1 97/21/1
f 98/24/1 15/22/1 97/21/1
f 35/20/1 143/25/1 144/23/1
f 99/26/1 15/22/1 98/24/1
f 36/27/1 143/25/1 35/20/1
f 99/26/1 14/28/1 15/22/1
f 36/27/1 142/29/1 143/25/1
f 100/30/1 14/28/1 99/26/1
f 36/27/1 141/31/1 142/29/1
f 101/32/1 14/28/1 100/30/1
f 36/27/1 140/33/1 141/31/1
f 102/34/1 14/28/1 101/32/1
f 36/27/1 139/35/1 140/33/1
f 103/36/1 14/28/1 102/34/1
f 36/27/1 138/37/1 139/35/1
f 104/38/1 14/28/1 103/36/1
f 37/39/1 138/37/1 36/27/1
f 104/38/1 13/40/1 14/28/1
f 37/39/1 137/41/1 138/37/1
f 105/42/1 13/40/1 104/38/1
f 37/39/1 136/43/1 137/41/1
f 106/44/1 13/40/1 105/42/1
f 37/39/1 135/45/1 136/43/1
f 107/46/1 13/40/1 106/44/1
f 37/39/1 134/47/1 135/45/1
f 108/48/1 13/40/1 107/46/1
f 38/49/1 134/47/1 37/39/1
f 108/48/1 12/50/1 13/40/1
f 38/49/1 133/51/1 134/47/1
f 109/52/1 12/50/1 108/48/1
f 39/53/1 133/51/1 38/49/1
f 109/52/1 11/54/1 12/50/1
f 39/53/1 132/55/1 133/51/1
f 110/56/1 11/54/1 109/52/1
f 39/53/1 131/57/1 132/55/1
f 111/58/1 11/54/1 110/56/1
f 40/59/1 131/57/1 39/53/1
f 111/58/1 10/60/1 11/54/1
f 40/59/1 130/61/1 131/57/1
f 112/62/1 10/60/1 111/58/1
f 41/63/1 130/61/1 40/59/1
f 112/62/1 9/64/1 10/60/1
f 41/63/1 129/65/1 130/61/1
f 113/66/1 9/64/1 112/62/1
f 114/67/1 9/64/1 113/66/1
f 41/63/1 128/68/1 129/65/1
f 42/69/1 128/68/1 41/63/1
f 114/67/1 8/70/1 9/64/1
f 115/71/1 8/70/1 114/67/1
f 42/69/1 127/72/1 128/68/1
f 43/73/1 127/72/1 42/69/1
f 115/71/1 7/74/1 8/70/1
f 116/75/1 7/74/1 115/71/1
f 43/73/1 126/76/1 127/72/1
f 117/77/1 7/74/1 116/75/1
f 43/73/1 125/78/1 126/76/1
f 117/77/1 6/79/1 7/74/1
f 44/80/1 125/78/1 43/73/1
f 118/81/1 6/79/1 117/77/1
f 44/80/1 124/82/1 125/78/1
f 119/83/1 6/79/1 118/81/1
f 44/80/1 123/84/1 124/82/1
f 120/85/1 6/79/1 119/83/1
f 44/80/1 122/86/1 123/84/1
f 121/87/1 6/79/1 120/85/1
f 44/80/1 121/87/1 122/86/1
f 121/87/1 5/88/1 6/79/1
f 45/89/1 121/87/1 44/80/1
f 45/89/1 5/88/1 121/87/1
f 45/89/1 4/90/1 5/88/1
f 46/91/1 4/90/1 45/89/1
f 46/91/1 3/92/1 4/90/1
f 47/93/1 3/92/1 46/91/1
f 47/93/1 2/94/1 3/92/1
f 48/95/1 2/94/1 47/93/1
f 48/95/1 1/96/1 2/94/1
f 49/97/1 1/96/1 48/95/1
f 50/98/1 1/96/1 49/97/1
f 50/98/1 96/99/1 1/96/1
f 51/100/1 96/99/1 50/98/1
f 51/100/1 95/101/1 96/99/1
f 52/102/1 95/101/1 51/100/1
f 52/102/1 94/103/1 95/101/1
f 53/104/1 94/103/1 52/102/1
f 53/104/1 93/105/1 94/103/1
f 54/106/1 93/105/1 53/104/1
f 54/106/1 92/107/1 93/105/1
f 55/108/1 92/107/1 54/106/1
f 55/108/1 169/109/1 92/107/1
f 169/109/1 91/110/1 92/107/1
f 55/108/1 168/111/1 169/109/1
f 170/112/1 91/110/1 169/109/1
f 55/108/1 167/113/1 168/111/1
f 171/114/1 91/110/1 170/112/1
f 55/108/1 166/115/1 167/113/1
f 172/116/1 91/110/1 171/114/1
f 56/117/1 166/115/1 55/108/1
f 172/116/1 90/118/1 91/110/1
f 56/117/1 165/119/1 166/115/1
f 173/120/1 90/118/1 172/116/1
f 56/117/1 164/121/1 165/119/1
f 174/122/1 90/118/1 173/120/1
f 56/117/1 163/123/1 164/121/1
f 175/124/1 90/118/1 174/122/1
f 57/125/1 163/123/1 56/117/1
f 175/124/1 89/126/1 90/118/1
f 57/125/1 162/127/1 163/123/1
f 176/128/1 89/126/1 175/124/1
f 57/125/1 161/129/1 162/127/1
f 177/130/1 89/126/1 176/128/1
f 58/131/1 161/129/1 57/125/1
f 177/130/1 88/132/1 89/126/1
f 58/131/1 160/133/1 161/129/1
f 178/134/1 88/132/1 177/130/1
f 59/135/1 160/133/1 58/131/1
f 178/134/1 87/136/1 88/132/1
f 59/135/1 159/137/1 160/133/1
f 179/138/1 87/136/1 178/134/1
f 59/135/1 158/139/1 159/137/1
f 180/140/1 87/136/1 179/138/1
f 60/141/1 158/139/1 59/135/1
f 180/140/1 86/142/1 87/136/1
f 60/141/1 157/143/1 158/139/1
f 181/144/1 86/142/1 180/140/1
f 60/141/1 156/145/1 157/143/1
f 182/146/1 86/142/1 181/144/1
f 61/147/1 156/145/1 60/141/1
f 182/146/1 85/148/1 86/142/1
f 61/147/1 155/149/1 156/145/1
f 183/150/1 85/148/1 182/146/1
f 62/151/1 155/149/1 61/147/1
f 183/150/1 84/152/1 85/148/1
f 62/151/1 154/153/1 155/149/1
f 184/154/1 84/152/1 183/150/1
f 62/151/1 153/155/1 154/153/1
f 185/156/1 84/152/1 184/154/1
f 62/151/1 152/157/1 153/155/1
f 186/158/1 84/152/1 185/156/1
f 186/158/1 83/159/1 84/152/1
f 63/160/1 152/157/1 62/151/1
f 63/160/1 151/161/1 152/157/1
f 187/162/1 83/159/1 186/158/1
f 63/160/1 150/163/1 151/161/1
f 188/164/1 83/159/1 187/162/1
f 189/165/1 83/159/1 188/164/1
f 63/160/1 149/166/1 150/163/1
f 190/167/1 83/159/1 189/165/1
f 63/160/1 148/168/1 149/166/1
f 191/169/1 83/159/1 190/167/1
f 63/160/1 147/170/1 148/168/1
f 191/169/1 82/171/1 83/159/1
f 64/172/1 147/170/1 63/160/1
f 192/173/1 82/171/1 191/169/1
f 64/172/1 146/174/1 147/170/1
f 145/175/1 82/171/1 192/173/1
f 64/172/1 145/175/1 146/174/1
f 64/172/1 82/171/1 145/175/1
f 64/172/1 81/176/1 82/171/1
f 65/177/1 81/176/1 64/172/1
f 65/177/1 80/178/1 81/176/1
f 66/179/1 80/178/1 65/177/1
f 66/179/1 79/180/1 80/178/1
f 67/181/1 79/180/1 66/179/1
f 67/181/1 78/182/1 79/180/1
f 68/183/1 78/182/1 67/181/1
f 68/183/1 77/184/1 78/182/1
f 69/185/1 77/184/1 68/183/1
f 69/185/1 76/186/1 77/184/1
f 70/187/1 76/186/1 69/185/1
f 70/187/1 75/188/1 76/186/1
f 71/189/1 75/188/1 70/187/1
f 71/189/1 74/190/1 75/188/1
f 72/191/1 74/190/1 71/189/1
f 72/191/1 73/192/1 74/190/1
