# Blender 4.2.0
# www.blender.org
mtllib 9.mtl
o テキスト
v 0.023116 0.000000 0.316815
v 0.058193 0.000000 0.314297
v 0.091159 0.000000 0.306809
v 0.121919 0.000000 0.294452
v 0.150382 0.000000 0.277324
v 0.176455 0.000000 0.255525
v 0.200044 0.000000 0.229154
v 0.221058 0.000000 0.198312
v 0.239403 0.000000 0.163098
v 0.254987 0.000000 0.123612
v 0.267717 0.000000 0.079953
v 0.277500 0.000000 0.032220
v 0.284243 0.000000 -0.019486
v 0.284717 0.000000 -0.023937
v 0.285150 0.000000 -0.028388
v 0.285542 0.000000 -0.032839
v 0.285892 0.000000 -0.037290
v 0.286201 0.000000 -0.041741
v 0.286469 0.000000 -0.046192
v 0.286696 0.000000 -0.050643
v 0.286881 0.000000 -0.055094
v 0.287025 0.000000 -0.059545
v 0.287128 0.000000 -0.063996
v 0.287190 0.000000 -0.068447
v 0.287211 0.000000 -0.072898
v 0.285588 0.000000 -0.112541
v 0.280658 0.000000 -0.150178
v 0.272327 0.000000 -0.185534
v 0.260504 0.000000 -0.218335
v 0.245096 0.000000 -0.248307
v 0.226009 0.000000 -0.275173
v 0.203151 0.000000 -0.298660
v 0.176429 0.000000 -0.318493
v 0.145751 0.000000 -0.334397
v 0.111024 0.000000 -0.346097
v 0.072154 0.000000 -0.353318
v 0.029050 0.000000 -0.355786
v -0.005988 0.000000 -0.354140
v -0.039258 0.000000 -0.349293
v -0.070557 0.000000 -0.341382
v -0.099682 0.000000 -0.330545
v -0.126430 0.000000 -0.316920
v -0.150598 0.000000 -0.300643
v -0.171985 0.000000 -0.281852
v -0.190388 0.000000 -0.260684
v -0.205603 0.000000 -0.237277
v -0.217428 0.000000 -0.211769
v -0.225661 0.000000 -0.184295
v -0.230099 0.000000 -0.154995
v -0.230326 0.000000 -0.152542
v -0.230516 0.000000 -0.150127
v -0.230671 0.000000 -0.147747
v -0.230795 0.000000 -0.145397
v -0.230892 0.000000 -0.143075
v -0.230964 0.000000 -0.140776
v -0.231017 0.000000 -0.138499
v -0.231051 0.000000 -0.136238
v -0.231073 0.000000 -0.133992
v -0.231083 0.000000 -0.131755
v -0.231087 0.000000 -0.129526
v -0.231088 0.000000 -0.127300
v -0.229343 0.000000 -0.095650
v -0.224302 0.000000 -0.066895
v -0.216251 0.000000 -0.040922
v -0.205481 0.000000 -0.017617
v -0.192279 0.000000 0.003132
v -0.176934 0.000000 0.021439
v -0.159734 0.000000 0.037418
v -0.140968 0.000000 0.051181
v -0.120925 0.000000 0.062843
v -0.099892 0.000000 0.072516
v -0.078159 0.000000 0.080314
v -0.056014 0.000000 0.086350
v -0.051296 0.000000 0.087318
v -0.046539 0.000000 0.088237
v -0.041749 0.000000 0.089101
v -0.036928 0.000000 0.089904
v -0.032079 0.000000 0.090638
v -0.027206 0.000000 0.091296
v -0.022312 0.000000 0.091872
v -0.017402 0.000000 0.092358
v -0.012477 0.000000 0.092749
v -0.007542 0.000000 0.093036
v -0.002601 0.000000 0.093213
v 0.002344 0.000000 0.093274
v 0.012951 0.000000 0.093048
v 0.023482 0.000000 0.092376
v 0.033903 0.000000 0.091265
v 0.044180 0.000000 0.089721
v 0.054279 0.000000 0.087750
v 0.064164 0.000000 0.085361
v 0.073802 0.000000 0.082560
v 0.083159 0.000000 0.079353
v 0.092200 0.000000 0.075748
v 0.100890 0.000000 0.071751
v 0.109195 0.000000 0.067370
v 0.117082 0.000000 0.062611
v 0.113837 0.000000 0.080115
v 0.109087 0.000000 0.096475
v 0.102894 0.000000 0.111619
v 0.095321 0.000000 0.125475
v 0.086430 0.000000 0.137972
v 0.076281 0.000000 0.149036
v 0.064937 0.000000 0.158595
v 0.052460 0.000000 0.166579
v 0.038911 0.000000 0.172914
v 0.024352 0.000000 0.177528
v 0.008846 0.000000 0.180349
v -0.007547 0.000000 0.181306
v -0.015581 0.000000 0.181077
v -0.023845 0.000000 0.180385
v -0.032321 0.000000 0.179219
v -0.040994 0.000000 0.177569
v -0.049845 0.000000 0.175424
v -0.058858 0.000000 0.172775
v -0.068014 0.000000 0.169610
v -0.077298 0.000000 0.165919
v -0.086692 0.000000 0.161693
v -0.096179 0.000000 0.156921
v -0.105741 0.000000 0.151593
v -0.115361 0.000000 0.145697
v -0.181632 0.000000 0.250544
v -0.169557 0.000000 0.260159
v -0.156987 0.000000 0.269191
v -0.143798 0.000000 0.277590
v -0.129868 0.000000 0.285310
v -0.115073 0.000000 0.292301
v -0.099288 0.000000 0.298516
v -0.082390 0.000000 0.303907
v -0.064257 0.000000 0.308426
v -0.044763 0.000000 0.312024
v -0.023785 0.000000 0.314654
v -0.001200 0.000000 0.316267
v 0.023116 0.000000 -0.047181
v 0.010215 0.000000 -0.047887
v -0.002194 0.000000 -0.049947
v -0.013992 0.000000 -0.053270
v -0.025058 0.000000 -0.057768
v -0.035273 0.000000 -0.063351
v -0.044515 0.000000 -0.069931
v -0.052666 0.000000 -0.077417
v -0.059604 0.000000 -0.085720
v -0.065210 0.000000 -0.094751
v -0.069362 0.000000 -0.104422
v -0.071942 0.000000 -0.114641
v -0.072829 0.000000 -0.125321
v -0.071942 0.000000 -0.136229
v -0.069362 0.000000 -0.146638
v -0.065210 0.000000 -0.156463
v -0.059604 0.000000 -0.165619
v -0.052666 0.000000 -0.174019
v -0.044515 0.000000 -0.181578
v -0.035273 0.000000 -0.188209
v -0.025058 0.000000 -0.193827
v -0.013992 0.000000 -0.198346
v -0.002194 0.000000 -0.201681
v 0.010215 0.000000 -0.203744
v 0.023116 0.000000 -0.204451
v 0.036451 0.000000 -0.203725
v 0.049185 0.000000 -0.201607
v 0.061212 0.000000 -0.198192
v 0.072425 0.000000 -0.193571
v 0.082718 0.000000 -0.187837
v 0.091983 0.000000 -0.181083
v 0.100115 0.000000 -0.173402
v 0.107008 0.000000 -0.164886
v 0.112554 0.000000 -0.155629
v 0.116647 0.000000 -0.145722
v 0.119181 0.000000 -0.135259
v 0.120049 0.000000 -0.124332
v 0.119162 0.000000 -0.113672
v 0.116578 0.000000 -0.103506
v 0.112415 0.000000 -0.093917
v 0.106788 0.000000 -0.084987
v 0.099815 0.000000 -0.076800
v 0.091612 0.000000 -0.069436
v 0.082297 0.000000 -0.062979
v 0.071986 0.000000 -0.057512
v 0.060795 0.000000 -0.053116
v 0.048842 0.000000 -0.049874
v 0.036243 0.000000 -0.047868
vn -0.0000 1.0000 -0.0000
vt 0.205556 0.000000
vt 0.194444 0.000000
vt 0.200000 0.000000
vt 0.211111 0.000000
vt 0.188889 0.000000
vt 0.216667 0.000000
vt 0.183333 0.000000
vt 0.222222 0.000000
vt 0.177778 0.000000
vt 0.227778 0.000000
vt 0.172222 0.000000
vt 0.233333 0.000000
vt 0.238889 0.000000
vt 0.166667 0.000000
vt 0.244444 0.000000
vt 0.161111 0.000000
vt 0.250000 0.000000
vt 0.155556 0.000000
vt 0.255556 0.000000
vt 0.872222 0.000000
vt 0.877778 0.000000
vt 0.150000 0.000000
vt 0.261111 0.000000
vt 0.866667 0.000000
vt 0.861111 0.000000
vt 0.883333 0.000000
vt 0.855556 0.000000
vt 0.888889 0.000000
vt 0.850000 0.000000
vt 0.894444 0.000000
vt 0.844444 0.000000
vt 0.900000 0.000000
vt 0.838889 0.000000
vt 0.905556 0.000000
vt 0.144444 0.000000
vt 0.266667 0.000000
vt 0.833333 0.000000
vt 0.911111 0.000000
vt 0.827778 0.000000
vt 0.916667 0.000000
vt 0.822222 0.000000
vt 0.922222 0.000000
vt 0.816667 0.000000
vt 0.927778 0.000000
vt 0.272222 0.000000
vt 0.277778 0.000000
vt 0.138889 0.000000
vt 0.283333 0.000000
vt 0.288889 0.000000
vt 0.811111 0.000000
vt 0.933333 0.000000
vt 0.294444 0.000000
vt 0.300000 0.000000
vt 0.305556 0.000000
vt 0.311111 0.000000
vt 0.316667 0.000000
vt 0.805556 0.000000
vt 0.938889 0.000000
vt 0.322222 0.000000
vt 0.327778 0.000000
vt 0.333333 0.000000
vt 0.338889 0.000000
vt 0.800000 0.000000
vt 0.944444 0.000000
vt 0.794444 0.000000
vt 0.950000 0.000000
vt 0.133333 0.000000
vt 0.788889 0.000000
vt 0.955556 0.000000
vt 0.344444 0.000000
vt 0.783333 0.000000
vt 0.961111 0.000000
vt 0.777778 0.000000
vt 0.966667 0.000000
vt 0.772222 0.000000
vt 0.972222 0.000000
vt 0.127778 0.000000
vt 0.766667 0.000000
vt 0.977778 0.000000
vt 0.122222 0.000000
vt 0.350000 0.000000
vt 0.116667 0.000000
vt 0.761111 0.000000
vt 0.983333 0.000000
vt 0.111111 0.000000
vt 0.755556 0.000000
vt 0.988889 0.000000
vt 0.105556 0.000000
vt 0.750000 0.000000
vt 0.994444 0.000000
vt 0.100000 0.000000
vt 0.744444 0.000000
vt 1.000000 0.000000
vt 0.738889 0.000000
vt 0.094444 0.000000
vt 0.088889 0.000000
vt 0.355556 0.000000
vt 0.083333 0.000000
vt 0.077778 0.000000
vt 0.072222 0.000000
vt 0.066667 0.000000
vt 0.061111 0.000000
vt 0.361111 0.000000
vt 0.366667 0.000000
vt 0.372222 0.000000
vt 0.533333 0.000000
vt 0.055556 0.000000
vt 0.377778 0.000000
vt 0.383333 0.000000
vt 0.527778 0.000000
vt 0.538889 0.000000
vt 0.388889 0.000000
vt 0.522222 0.000000
vt 0.516667 0.000000
vt 0.394444 0.000000
vt 0.511111 0.000000
vt 0.505556 0.000000
vt 0.050000 0.000000
vt 0.544444 0.000000
vt 0.400000 0.000000
vt 0.500000 0.000000
vt 0.494444 0.000000
vt 0.405556 0.000000
vt 0.411111 0.000000
vt 0.488889 0.000000
vt 0.416667 0.000000
vt 0.422222 0.000000
vt 0.483333 0.000000
vt 0.427778 0.000000
vt 0.433333 0.000000
vt 0.477778 0.000000
vt 0.438889 0.000000
vt 0.444444 0.000000
vt 0.450000 0.000000
vt 0.472222 0.000000
vt 0.455556 0.000000
vt 0.461111 0.000000
vt 0.466667 0.000000
vt 0.550000 0.000000
vt 0.555556 0.000000
vt 0.044444 0.000000
vt 0.561111 0.000000
vt 0.566667 0.000000
vt 0.672222 0.000000
vt 0.661111 0.000000
vt 0.666667 0.000000
vt 0.572222 0.000000
vt 0.655556 0.000000
vt 0.650000 0.000000
vt 0.577778 0.000000
vt 0.644444 0.000000
vt 0.038889 0.000000
vt 0.638889 0.000000
vt 0.583333 0.000000
vt 0.633333 0.000000
vt 0.627778 0.000000
vt 0.588889 0.000000
vt 0.622222 0.000000
vt 0.594444 0.000000
vt 0.616667 0.000000
vt 0.611111 0.000000
vt 0.600000 0.000000
vt 0.605556 0.000000
vt 0.033333 0.000000
vt 0.027778 0.000000
vt 0.677778 0.000000
vt 0.022222 0.000000
vt 0.683333 0.000000
vt 0.688889 0.000000
vt 0.016667 0.000000
vt 0.694444 0.000000
vt 0.700000 0.000000
vt 0.705556 0.000000
vt 0.011111 0.000000
vt 0.711111 0.000000
vt 0.716667 0.000000
vt 0.005556 0.000000
vt 0.722222 0.000000
vt 0.727778 0.000000
vt 0.000000 0.000000
vt 0.733333 0.000000
s 0
usemtl マテリアル.006
f 38/1/1 36/2/1 37/3/1
f 39/4/1 36/2/1 38/1/1
f 39/4/1 35/5/1 36/2/1
f 40/6/1 35/5/1 39/4/1
f 40/6/1 34/7/1 35/5/1
f 41/8/1 34/7/1 40/6/1
f 41/8/1 33/9/1 34/7/1
f 42/10/1 33/9/1 41/8/1
f 42/10/1 32/11/1 33/9/1
f 43/12/1 32/11/1 42/10/1
f 44/13/1 32/11/1 43/12/1
f 44/13/1 31/14/1 32/11/1
f 45/15/1 31/14/1 44/13/1
f 45/15/1 30/16/1 31/14/1
f 46/17/1 30/16/1 45/15/1
f 46/17/1 29/18/1 30/16/1
f 47/19/1 29/18/1 46/17/1
f 47/19/1 158/20/1 29/18/1
f 158/20/1 159/21/1 29/18/1
f 159/21/1 28/22/1 29/18/1
f 48/23/1 157/24/1 47/19/1
f 157/24/1 158/20/1 47/19/1
f 48/23/1 156/25/1 157/24/1
f 160/26/1 28/22/1 159/21/1
f 48/23/1 155/27/1 156/25/1
f 161/28/1 28/22/1 160/26/1
f 48/23/1 154/29/1 155/27/1
f 162/30/1 28/22/1 161/28/1
f 48/23/1 153/31/1 154/29/1
f 163/32/1 28/22/1 162/30/1
f 48/23/1 152/33/1 153/31/1
f 164/34/1 28/22/1 163/32/1
f 164/34/1 27/35/1 28/22/1
f 49/36/1 152/33/1 48/23/1
f 49/36/1 151/37/1 152/33/1
f 165/38/1 27/35/1 164/34/1
f 49/36/1 150/39/1 151/37/1
f 166/40/1 27/35/1 165/38/1
f 49/36/1 149/41/1 150/39/1
f 167/42/1 27/35/1 166/40/1
f 49/36/1 148/43/1 149/41/1
f 168/44/1 27/35/1 167/42/1
f 50/45/1 148/43/1 49/36/1
f 51/46/1 148/43/1 50/45/1
f 168/44/1 26/47/1 27/35/1
f 52/48/1 148/43/1 51/46/1
f 53/49/1 148/43/1 52/48/1
f 53/49/1 147/50/1 148/43/1
f 169/51/1 26/47/1 168/44/1
f 54/52/1 147/50/1 53/49/1
f 55/53/1 147/50/1 54/52/1
f 56/54/1 147/50/1 55/53/1
f 57/55/1 147/50/1 56/54/1
f 58/56/1 147/50/1 57/55/1
f 58/56/1 146/57/1 147/50/1
f 170/58/1 26/47/1 169/51/1
f 59/59/1 146/57/1 58/56/1
f 60/60/1 146/57/1 59/59/1
f 61/61/1 146/57/1 60/60/1
f 62/62/1 146/57/1 61/61/1
f 62/62/1 145/63/1 146/57/1
f 171/64/1 26/47/1 170/58/1
f 62/62/1 144/65/1 145/63/1
f 172/66/1 26/47/1 171/64/1
f 172/66/1 25/67/1 26/47/1
f 62/62/1 143/68/1 144/65/1
f 173/69/1 25/67/1 172/66/1
f 63/70/1 143/68/1 62/62/1
f 63/70/1 142/71/1 143/68/1
f 174/72/1 25/67/1 173/69/1
f 63/70/1 141/73/1 142/71/1
f 175/74/1 25/67/1 174/72/1
f 63/70/1 140/75/1 141/73/1
f 176/76/1 25/67/1 175/74/1
f 176/76/1 24/77/1 25/67/1
f 63/70/1 139/78/1 140/75/1
f 177/79/1 24/77/1 176/76/1
f 177/79/1 23/80/1 24/77/1
f 64/81/1 139/78/1 63/70/1
f 177/79/1 22/82/1 23/80/1
f 64/81/1 138/83/1 139/78/1
f 178/84/1 22/82/1 177/79/1
f 178/84/1 21/85/1 22/82/1
f 64/81/1 137/86/1 138/83/1
f 179/87/1 21/85/1 178/84/1
f 179/87/1 20/88/1 21/85/1
f 64/81/1 136/89/1 137/86/1
f 180/90/1 20/88/1 179/87/1
f 180/90/1 19/91/1 20/88/1
f 64/81/1 135/92/1 136/89/1
f 181/93/1 19/91/1 180/90/1
f 64/81/1 134/94/1 135/92/1
f 134/94/1 19/91/1 181/93/1
f 64/81/1 19/91/1 134/94/1
f 64/81/1 18/95/1 19/91/1
f 64/81/1 17/96/1 18/95/1
f 65/97/1 17/96/1 64/81/1
f 65/97/1 16/98/1 17/96/1
f 65/97/1 15/99/1 16/98/1
f 65/97/1 14/100/1 15/99/1
f 65/97/1 13/101/1 14/100/1
f 65/97/1 12/102/1 13/101/1
f 66/103/1 12/102/1 65/97/1
f 67/104/1 12/102/1 66/103/1
f 68/105/1 12/102/1 67/104/1
f 68/105/1 97/106/1 12/102/1
f 97/106/1 11/107/1 12/102/1
f 69/108/1 97/106/1 68/105/1
f 70/109/1 97/106/1 69/108/1
f 70/109/1 96/110/1 97/106/1
f 98/111/1 11/107/1 97/106/1
f 71/112/1 96/110/1 70/109/1
f 71/112/1 95/113/1 96/110/1
f 71/112/1 94/114/1 95/113/1
f 72/115/1 94/114/1 71/112/1
f 72/115/1 93/116/1 94/114/1
f 72/115/1 92/117/1 93/116/1
f 98/111/1 10/118/1 11/107/1
f 99/119/1 10/118/1 98/111/1
f 73/120/1 92/117/1 72/115/1
f 73/120/1 91/121/1 92/117/1
f 73/120/1 90/122/1 91/121/1
f 74/123/1 90/122/1 73/120/1
f 75/124/1 90/122/1 74/123/1
f 75/124/1 89/125/1 90/122/1
f 76/126/1 89/125/1 75/124/1
f 77/127/1 89/125/1 76/126/1
f 77/127/1 88/128/1 89/125/1
f 78/129/1 88/128/1 77/127/1
f 79/130/1 88/128/1 78/129/1
f 79/130/1 87/131/1 88/128/1
f 80/132/1 87/131/1 79/130/1
f 81/133/1 87/131/1 80/132/1
f 82/134/1 87/131/1 81/133/1
f 82/134/1 86/135/1 87/131/1
f 83/136/1 86/135/1 82/134/1
f 84/137/1 86/135/1 83/136/1
f 84/137/1 85/138/1 86/135/1
f 100/139/1 10/118/1 99/119/1
f 101/140/1 10/118/1 100/139/1
f 101/140/1 9/141/1 10/118/1
f 102/142/1 9/141/1 101/140/1
f 103/143/1 9/141/1 102/142/1
f 122/144/1 120/145/1 121/146/1
f 104/147/1 9/141/1 103/143/1
f 122/144/1 119/148/1 120/145/1
f 122/144/1 118/149/1 119/148/1
f 105/150/1 9/141/1 104/147/1
f 122/144/1 117/151/1 118/149/1
f 105/150/1 8/152/1 9/141/1
f 122/144/1 116/153/1 117/151/1
f 106/154/1 8/152/1 105/150/1
f 122/144/1 115/155/1 116/153/1
f 122/144/1 114/156/1 115/155/1
f 107/157/1 8/152/1 106/154/1
f 122/144/1 113/158/1 114/156/1
f 108/159/1 8/152/1 107/157/1
f 122/144/1 112/160/1 113/158/1
f 122/144/1 111/161/1 112/160/1
f 109/162/1 8/152/1 108/159/1
f 122/144/1 110/163/1 111/161/1
f 122/144/1 109/162/1 110/163/1
f 122/144/1 8/152/1 109/162/1
f 122/144/1 7/164/1 8/152/1
f 122/144/1 6/165/1 7/164/1
f 123/166/1 6/165/1 122/144/1
f 123/166/1 5/167/1 6/165/1
f 124/168/1 5/167/1 123/166/1
f 125/169/1 5/167/1 124/168/1
f 125/169/1 4/170/1 5/167/1
f 126/171/1 4/170/1 125/169/1
f 127/172/1 4/170/1 126/171/1
f 128/173/1 4/170/1 127/172/1
f 128/173/1 3/174/1 4/170/1
f 129/175/1 3/174/1 128/173/1
f 130/176/1 3/174/1 129/175/1
f 130/176/1 2/177/1 3/174/1
f 131/178/1 2/177/1 130/176/1
f 132/179/1 2/177/1 131/178/1
f 132/179/1 1/180/1 2/177/1
f 133/181/1 1/180/1 132/179/1
