# Blender 4.2.0
# www.blender.org
mtllib backSelect.mtl
o テキスト
v 1.707715 0.000614 0.108111
v 1.347675 0.000614 -0.137191
v 1.130069 0.000614 0.099209
v 1.246785 0.000614 0.194164
v 1.383284 0.000614 0.047774
v 1.623640 0.000614 0.217903
v 0.721563 0.000614 -0.240059
v 0.594955 0.000614 -0.240059
v 0.594955 0.000614 0.304946
v 0.721563 0.000614 0.304946
v 0.721563 0.000614 0.104154
v 0.735144 0.000614 0.105329
v 0.748690 0.000614 0.106384
v 0.762209 0.000614 0.107323
v 0.775708 0.000614 0.108147
v 0.789193 0.000614 0.108862
v 0.802670 0.000614 0.109471
v 0.816148 0.000614 0.109976
v 0.829633 0.000614 0.110382
v 0.843132 0.000614 0.110692
v 0.856651 0.000614 0.110909
v 0.870197 0.000614 0.111036
v 0.883778 0.000614 0.111078
v 0.888971 0.000614 0.111078
v 0.894164 0.000614 0.111074
v 0.899357 0.000614 0.111063
v 0.904550 0.000614 0.111042
v 0.909742 0.000614 0.111007
v 0.914935 0.000614 0.110955
v 0.920128 0.000614 0.110882
v 0.925321 0.000614 0.110785
v 0.930513 0.000614 0.110661
v 0.935706 0.000614 0.110506
v 0.940899 0.000614 0.110316
v 0.946093 0.000614 0.110089
v 0.952028 0.000614 -0.005638
v 0.934100 0.000614 -0.006936
v 0.915929 0.000614 -0.008358
v 0.897518 0.000614 -0.009904
v 0.878870 0.000614 -0.011573
v 0.859987 0.000614 -0.013365
v 0.840875 0.000614 -0.015282
v 0.821537 0.000614 -0.017322
v 0.801975 0.000614 -0.019486
v 0.782193 0.000614 -0.021773
v 0.762194 0.000614 -0.024184
v 0.741983 0.000614 -0.026719
v 0.721563 0.000614 -0.029377
v 0.109298 0.000614 -0.238081
v -0.051929 0.000614 -0.247972
v -0.081602 0.000614 0.115035
v 0.046983 0.000614 0.125915
v 0.083581 0.000614 -0.085757
v 0.240851 0.000614 -0.086746
v 0.239049 0.000614 -0.054624
v 0.237068 0.000614 -0.022980
v 0.234854 0.000614 0.008287
v 0.232352 0.000614 0.039275
v 0.229506 0.000614 0.070085
v 0.226261 0.000614 0.100816
v 0.222563 0.000614 0.131567
v 0.218357 0.000614 0.162439
v 0.213588 0.000614 0.193531
v 0.208200 0.000614 0.224941
v 0.202140 0.000614 0.256771
v 0.195351 0.000614 0.289120
v 0.312067 0.000614 0.314837
v 0.323035 0.000614 0.280535
v 0.333205 0.000614 0.245667
v 0.342606 0.000614 0.209913
v 0.351266 0.000614 0.172953
v 0.359211 0.000614 0.134468
v 0.366469 0.000614 0.094140
v 0.373068 0.000614 0.051647
v 0.379035 0.000614 0.006671
v 0.384397 0.000614 -0.041107
v 0.389182 0.000614 -0.092007
v 0.393418 0.000614 -0.146349
v 0.397132 0.000614 -0.204451
v 0.103363 0.000614 -0.203462
v -0.672107 0.000614 0.311869
v -0.636273 0.000614 0.306940
v -0.601394 0.000614 0.301035
v -0.567353 0.000614 0.294127
v -0.534033 0.000614 0.286189
v -0.501318 0.000614 0.277193
v -0.469090 0.000614 0.267112
v -0.437233 0.000614 0.255918
v -0.405631 0.000614 0.243584
v -0.374165 0.000614 0.230082
v -0.342721 0.000614 0.215384
v -0.311180 0.000614 0.199465
v -0.279426 0.000614 0.182295
v -0.332839 0.000614 0.076459
v -0.355100 0.000614 0.086059
v -0.375586 0.000614 0.094657
v -0.394581 0.000614 0.102362
v -0.412371 0.000614 0.109283
v -0.429241 0.000614 0.115531
v -0.445475 0.000614 0.121217
v -0.461358 0.000614 0.126448
v -0.477177 0.000614 0.131337
v -0.493215 0.000614 0.135992
v -0.509758 0.000614 0.140523
v -0.527091 0.000614 0.145040
v -0.545500 0.000614 0.149654
v -0.545500 0.000614 -0.240059
v -0.672107 0.000614 -0.240059
v -0.904550 0.000614 0.115035
v -0.900148 0.000614 0.094062
v -0.895872 0.000614 0.072296
v -0.891769 0.000614 0.049892
v -0.887881 0.000614 0.027003
v -0.884255 0.000614 0.003784
v -0.880935 0.000614 -0.019609
v -0.877964 0.000614 -0.043024
v -0.875389 0.000614 -0.066304
v -0.873254 0.000614 -0.089296
v -0.871602 0.000614 -0.111845
v -0.870480 0.000614 -0.133796
v -0.869931 0.000614 -0.154995
v -1.152819 0.000614 -0.154006
v -1.152571 0.000614 -0.161672
v -1.152320 0.000614 -0.169337
v -1.152062 0.000614 -0.177003
v -1.151793 0.000614 -0.184669
v -1.151511 0.000614 -0.192334
v -1.151212 0.000614 -0.200000
v -1.150892 0.000614 -0.207666
v -1.150548 0.000614 -0.215331
v -1.150176 0.000614 -0.222997
v -1.149774 0.000614 -0.230663
v -1.149337 0.000614 -0.238328
v -1.148863 0.000614 -0.245994
v -1.299209 0.000614 -0.240059
v -1.298981 0.000614 -0.232662
v -1.298787 0.000614 -0.225305
v -1.298621 0.000614 -0.217990
v -1.298476 0.000614 -0.210715
v -1.298344 0.000614 -0.203483
v -1.298220 0.000614 -0.196291
v -1.298095 0.000614 -0.189140
v -1.297963 0.000614 -0.182031
v -1.297818 0.000614 -0.174963
v -1.297652 0.000614 -0.167936
v -1.297458 0.000614 -0.160950
v -1.297230 0.000614 -0.154006
v -1.401088 0.000614 -0.154006
v -1.399110 0.000614 -0.036301
v -1.291296 0.000614 -0.036301
v -1.290245 0.000614 -0.017469
v -1.289075 0.000614 0.000933
v -1.287787 0.000614 0.018889
v -1.286387 0.000614 0.036381
v -1.284876 0.000614 0.053393
v -1.283259 0.000614 0.069906
v -1.281539 0.000614 0.085904
v -1.279719 0.000614 0.101370
v -1.277804 0.000614 0.116287
v -1.275795 0.000614 0.130636
v -1.273697 0.000614 0.144402
v -1.271513 0.000614 0.157567
v -1.265893 0.000614 0.182005
v -1.257959 0.000614 0.204371
v -1.247744 0.000614 0.224657
v -1.235282 0.000614 0.242851
v -1.220609 0.000614 0.258943
v -1.203759 0.000614 0.272923
v -1.184765 0.000614 0.284780
v -1.163663 0.000614 0.294505
v -1.140486 0.000614 0.302086
v -1.115269 0.000614 0.307515
v -1.088047 0.000614 0.310779
v -1.058853 0.000614 0.311869
v -1.050383 0.000614 0.311787
v -1.041790 0.000614 0.311540
v -1.033074 0.000614 0.311128
v -1.024233 0.000614 0.310551
v -1.015270 0.000614 0.309809
v -1.006182 0.000614 0.308902
v -0.996971 0.000614 0.307831
v -0.987636 0.000614 0.306594
v -0.978177 0.000614 0.305193
v -0.968595 0.000614 0.303627
v -0.958890 0.000614 0.301896
v -0.949060 0.000614 0.300000
v -0.968843 0.000614 0.178338
v -0.976406 0.000614 0.179306
v -0.983767 0.000614 0.180225
v -0.990928 0.000614 0.181089
v -0.997894 0.000614 0.181892
v -1.004667 0.000614 0.182626
v -1.011251 0.000614 0.183284
v -1.017650 0.000614 0.183860
v -1.023867 0.000614 0.184346
v -1.029905 0.000614 0.184737
v -1.035769 0.000614 0.185024
v -1.041460 0.000614 0.185201
v -1.046983 0.000614 0.185262
v -1.062115 0.000614 0.184849
v -1.075887 0.000614 0.183604
v -1.088341 0.000614 0.181522
v -1.099516 0.000614 0.178595
v -1.109456 0.000614 0.174816
v -1.118200 0.000614 0.170178
v -1.125790 0.000614 0.164675
v -1.132267 0.000614 0.158299
v -1.137673 0.000614 0.151045
v -1.142049 0.000614 0.142904
v -1.145435 0.000614 0.133870
v -1.147873 0.000614 0.123937
v -1.148841 0.000614 0.117667
v -1.149760 0.000614 0.109796
v -1.150624 0.000614 0.100414
v -1.151427 0.000614 0.089611
v -1.152161 0.000614 0.077474
v -1.152819 0.000614 0.064095
v -1.153395 0.000614 0.049562
v -1.153881 0.000614 0.033963
v -1.154272 0.000614 0.017390
v -1.154559 0.000614 -0.000070
v -1.154737 0.000614 -0.018326
v -1.154797 0.000614 -0.037290
v -1.026212 0.000614 -0.037290
v -1.026105 0.000614 -0.027219
v -1.026262 0.000614 -0.016816
v -1.026660 0.000614 -0.006117
v -1.027274 0.000614 0.004839
v -1.028081 0.000614 0.016016
v -1.029055 0.000614 0.027374
v -1.030174 0.000614 0.038876
v -1.031414 0.000614 0.050485
v -1.032749 0.000614 0.062163
v -1.034157 0.000614 0.073872
v -1.035612 0.000614 0.085573
v -1.037092 0.000614 0.097230
vn -0.0000 1.0000 -0.0000
vt 0.400000 0.000000
vt 0.800000 0.000000
vt 0.200000 0.000000
vt 0.000000 0.000000
vt 0.600000 0.000000
vt 1.000000 0.000000
vt 0.048780 0.000000
vt 0.024390 0.000000
vt 0.975610 0.000000
vt 0.951219 0.000000
vt 0.926829 0.000000
vt 0.097561 0.000000
vt 0.902439 0.000000
vt 0.878049 0.000000
vt 0.853659 0.000000
vt 0.829268 0.000000
vt 0.804878 0.000000
vt 0.780488 0.000000
vt 0.756098 0.000000
vt 0.731707 0.000000
vt 0.707317 0.000000
vt 0.682927 0.000000
vt 0.073171 0.000000
vt 0.121951 0.000000
vt 0.146341 0.000000
vt 0.170732 0.000000
vt 0.195122 0.000000
vt 0.219512 0.000000
vt 0.243902 0.000000
vt 0.268293 0.000000
vt 0.292683 0.000000
vt 0.658537 0.000000
vt 0.634146 0.000000
vt 0.317073 0.000000
vt 0.609756 0.000000
vt 0.585366 0.000000
vt 0.341463 0.000000
vt 0.560976 0.000000
vt 0.536585 0.000000
vt 0.365854 0.000000
vt 0.512195 0.000000
vt 0.487805 0.000000
vt 0.390244 0.000000
vt 0.463415 0.000000
vt 0.439024 0.000000
vt 0.414634 0.000000
vt 0.064516 0.000000
vt 0.032258 0.000000
vt 0.935484 0.000000
vt 0.967742 0.000000
vt 0.129032 0.000000
vt 0.903226 0.000000
vt 0.161290 0.000000
vt 0.870968 0.000000
vt 0.193548 0.000000
vt 0.096774 0.000000
vt 0.225806 0.000000
vt 0.838710 0.000000
vt 0.258065 0.000000
vt 0.806452 0.000000
vt 0.290323 0.000000
vt 0.322581 0.000000
vt 0.774194 0.000000
vt 0.354839 0.000000
vt 0.741935 0.000000
vt 0.387097 0.000000
vt 0.419355 0.000000
vt 0.709677 0.000000
vt 0.451613 0.000000
vt 0.677419 0.000000
vt 0.483871 0.000000
vt 0.645161 0.000000
vt 0.516129 0.000000
vt 0.612903 0.000000
vt 0.548387 0.000000
vt 0.580645 0.000000
vt 0.962963 0.000000
vt 0.925926 0.000000
vt 0.518519 0.000000
vt 0.444444 0.000000
vt 0.481481 0.000000
vt 0.555556 0.000000
vt 0.592593 0.000000
vt 0.629630 0.000000
vt 0.666667 0.000000
vt 0.703704 0.000000
vt 0.740741 0.000000
vt 0.777778 0.000000
vt 0.814815 0.000000
vt 0.851852 0.000000
vt 0.888889 0.000000
vt 0.407407 0.000000
vt 0.370370 0.000000
vt 0.333333 0.000000
vt 0.296296 0.000000
vt 0.259259 0.000000
vt 0.222222 0.000000
vt 0.185185 0.000000
vt 0.148148 0.000000
vt 0.111111 0.000000
vt 0.074074 0.000000
vt 0.037037 0.000000
vt 0.204724 0.000000
vt 0.188976 0.000000
vt 0.196850 0.000000
vt 0.212598 0.000000
vt 0.181102 0.000000
vt 0.220472 0.000000
vt 0.173228 0.000000
vt 0.228346 0.000000
vt 0.165354 0.000000
vt 0.236220 0.000000
vt 0.157480 0.000000
vt 0.244094 0.000000
vt 0.149606 0.000000
vt 0.251969 0.000000
vt 0.141732 0.000000
vt 0.259843 0.000000
vt 0.133858 0.000000
vt 0.267717 0.000000
vt 0.125984 0.000000
vt 0.275591 0.000000
vt 0.118110 0.000000
vt 0.283465 0.000000
vt 0.110236 0.000000
vt 0.291339 0.000000
vt 0.102362 0.000000
vt 0.299213 0.000000
vt 0.086614 0.000000
vt 0.094488 0.000000
vt 0.314961 0.000000
vt 0.307087 0.000000
vt 0.078740 0.000000
vt 0.070866 0.000000
vt 0.062992 0.000000
vt 0.055118 0.000000
vt 0.897638 0.000000
vt 0.905512 0.000000
vt 0.047244 0.000000
vt 0.322835 0.000000
vt 0.889764 0.000000
vt 0.913386 0.000000
vt 0.330709 0.000000
vt 0.921260 0.000000
vt 0.039370 0.000000
vt 0.881890 0.000000
vt 0.338583 0.000000
vt 0.929134 0.000000
vt 0.937008 0.000000
vt 0.874016 0.000000
vt 0.346457 0.000000
vt 0.031496 0.000000
vt 0.944882 0.000000
vt 0.952756 0.000000
vt 0.866142 0.000000
vt 0.354331 0.000000
vt 0.023622 0.000000
vt 0.960630 0.000000
vt 0.858268 0.000000
vt 0.362205 0.000000
vt 0.968504 0.000000
vt 0.850394 0.000000
vt 0.015748 0.000000
vt 0.976378 0.000000
vt 0.370079 0.000000
vt 0.984252 0.000000
vt 0.842520 0.000000
vt 0.377953 0.000000
vt 0.007874 0.000000
vt 0.992126 0.000000
vt 0.834646 0.000000
vt 0.385827 0.000000
vt 0.826772 0.000000
vt 0.818898 0.000000
vt 0.393701 0.000000
vt 0.811024 0.000000
vt 0.401575 0.000000
vt 0.803150 0.000000
vt 0.795276 0.000000
vt 0.409449 0.000000
vt 0.787402 0.000000
vt 0.779528 0.000000
vt 0.417323 0.000000
vt 0.771654 0.000000
vt 0.425197 0.000000
vt 0.763780 0.000000
vt 0.755906 0.000000
vt 0.748031 0.000000
vt 0.740157 0.000000
vt 0.622047 0.000000
vt 0.606299 0.000000
vt 0.614173 0.000000
vt 0.732283 0.000000
vt 0.629921 0.000000
vt 0.637795 0.000000
vt 0.645669 0.000000
vt 0.724409 0.000000
vt 0.653543 0.000000
vt 0.433071 0.000000
vt 0.661417 0.000000
vt 0.669291 0.000000
vt 0.716535 0.000000
vt 0.677165 0.000000
vt 0.685039 0.000000
vt 0.692913 0.000000
vt 0.708661 0.000000
vt 0.700787 0.000000
vt 0.440945 0.000000
vt 0.448819 0.000000
vt 0.456693 0.000000
vt 0.464567 0.000000
vt 0.472441 0.000000
vt 0.480315 0.000000
vt 0.488189 0.000000
vt 0.598425 0.000000
vt 0.590551 0.000000
vt 0.496063 0.000000
vt 0.582677 0.000000
vt 0.574803 0.000000
vt 0.566929 0.000000
vt 0.503937 0.000000
vt 0.559055 0.000000
vt 0.551181 0.000000
vt 0.543307 0.000000
vt 0.535433 0.000000
vt 0.511811 0.000000
vt 0.527559 0.000000
vt 0.519685 0.000000
s 0
usemtl マテリアル.005
f 3/1/1 5/2/1 2/3/1
f 5/2/1 1/4/1 2/3/1
f 3/1/1 4/5/1 5/2/1
f 6/6/1 1/4/1 5/2/1
f 9/7/1 7/4/1 8/8/1
f 9/7/1 48/6/1 7/4/1
f 9/7/1 47/9/1 48/6/1
f 9/7/1 46/10/1 47/9/1
f 9/7/1 45/11/1 46/10/1
f 9/7/1 11/12/1 45/11/1
f 11/12/1 44/13/1 45/11/1
f 11/12/1 43/14/1 44/13/1
f 11/12/1 42/15/1 43/14/1
f 11/12/1 41/16/1 42/15/1
f 11/12/1 40/17/1 41/16/1
f 11/12/1 39/18/1 40/17/1
f 11/12/1 38/19/1 39/18/1
f 11/12/1 37/20/1 38/19/1
f 11/12/1 36/21/1 37/20/1
f 11/12/1 35/22/1 36/21/1
f 9/7/1 10/23/1 11/12/1
f 12/24/1 35/22/1 11/12/1
f 13/25/1 35/22/1 12/24/1
f 14/26/1 35/22/1 13/25/1
f 15/27/1 35/22/1 14/26/1
f 16/28/1 35/22/1 15/27/1
f 17/29/1 35/22/1 16/28/1
f 18/30/1 35/22/1 17/29/1
f 19/31/1 35/22/1 18/30/1
f 19/31/1 34/32/1 35/22/1
f 19/31/1 33/33/1 34/32/1
f 20/34/1 33/33/1 19/31/1
f 20/34/1 32/35/1 33/33/1
f 20/34/1 31/36/1 32/35/1
f 21/37/1 31/36/1 20/34/1
f 21/37/1 30/38/1 31/36/1
f 21/37/1 29/39/1 30/38/1
f 22/40/1 29/39/1 21/37/1
f 22/40/1 28/41/1 29/39/1
f 22/40/1 27/42/1 28/41/1
f 23/43/1 27/42/1 22/40/1
f 23/43/1 26/44/1 27/42/1
f 23/43/1 25/45/1 26/44/1
f 23/43/1 24/46/1 25/45/1
f 51/47/1 49/4/1 50/48/1
f 51/47/1 80/6/1 49/4/1
f 80/6/1 78/49/1 79/50/1
f 51/47/1 53/51/1 80/6/1
f 53/51/1 78/49/1 80/6/1
f 53/51/1 77/52/1 78/49/1
f 53/51/1 54/53/1 77/52/1
f 54/53/1 76/54/1 77/52/1
f 55/55/1 76/54/1 54/53/1
f 51/47/1 52/56/1 53/51/1
f 56/57/1 76/54/1 55/55/1
f 56/57/1 75/58/1 76/54/1
f 57/59/1 75/58/1 56/57/1
f 57/59/1 74/60/1 75/58/1
f 58/61/1 74/60/1 57/59/1
f 59/62/1 74/60/1 58/61/1
f 59/62/1 73/63/1 74/60/1
f 60/64/1 73/63/1 59/62/1
f 60/64/1 72/65/1 73/63/1
f 61/66/1 72/65/1 60/64/1
f 62/67/1 72/65/1 61/66/1
f 62/67/1 71/68/1 72/65/1
f 63/69/1 71/68/1 62/67/1
f 63/69/1 70/70/1 71/68/1
f 64/71/1 70/70/1 63/69/1
f 64/71/1 69/72/1 70/70/1
f 65/73/1 69/72/1 64/71/1
f 65/73/1 68/74/1 69/72/1
f 66/75/1 68/74/1 65/73/1
f 66/75/1 67/76/1 68/74/1
f 81/4/1 107/77/1 108/6/1
f 81/4/1 106/78/1 107/77/1
f 95/79/1 93/80/1 94/81/1
f 96/82/1 93/80/1 95/79/1
f 97/83/1 93/80/1 96/82/1
f 98/84/1 93/80/1 97/83/1
f 99/85/1 93/80/1 98/84/1
f 100/86/1 93/80/1 99/85/1
f 101/87/1 93/80/1 100/86/1
f 102/88/1 93/80/1 101/87/1
f 103/89/1 93/80/1 102/88/1
f 104/90/1 93/80/1 103/89/1
f 105/91/1 93/80/1 104/90/1
f 106/78/1 93/80/1 105/91/1
f 81/4/1 93/80/1 106/78/1
f 81/4/1 92/92/1 93/80/1
f 81/4/1 91/93/1 92/92/1
f 81/4/1 90/94/1 91/93/1
f 81/4/1 89/95/1 90/94/1
f 81/4/1 88/96/1 89/95/1
f 81/4/1 87/97/1 88/96/1
f 81/4/1 86/98/1 87/97/1
f 81/4/1 85/99/1 86/98/1
f 81/4/1 84/100/1 85/99/1
f 81/4/1 83/101/1 84/100/1
f 81/4/1 82/102/1 83/101/1
f 135/103/1 133/104/1 134/105/1
f 136/106/1 133/104/1 135/103/1
f 136/106/1 132/107/1 133/104/1
f 137/108/1 132/107/1 136/106/1
f 137/108/1 131/109/1 132/107/1
f 138/110/1 131/109/1 137/108/1
f 138/110/1 130/111/1 131/109/1
f 139/112/1 130/111/1 138/110/1
f 139/112/1 129/113/1 130/111/1
f 140/114/1 129/113/1 139/112/1
f 140/114/1 128/115/1 129/113/1
f 141/116/1 128/115/1 140/114/1
f 141/116/1 127/117/1 128/115/1
f 142/118/1 127/117/1 141/116/1
f 142/118/1 126/119/1 127/117/1
f 143/120/1 126/119/1 142/118/1
f 143/120/1 125/121/1 126/119/1
f 144/122/1 125/121/1 143/120/1
f 144/122/1 124/123/1 125/121/1
f 145/124/1 124/123/1 144/122/1
f 145/124/1 123/125/1 124/123/1
f 146/126/1 123/125/1 145/124/1
f 146/126/1 122/127/1 123/125/1
f 147/128/1 122/127/1 146/126/1
f 122/127/1 120/129/1 121/130/1
f 149/131/1 147/128/1 148/132/1
f 149/131/1 122/127/1 147/128/1
f 149/131/1 120/129/1 122/127/1
f 149/131/1 119/133/1 120/129/1
f 149/131/1 118/134/1 119/133/1
f 149/131/1 117/135/1 118/134/1
f 149/131/1 116/136/1 117/135/1
f 149/131/1 223/137/1 116/136/1
f 223/137/1 224/138/1 116/136/1
f 224/138/1 115/139/1 116/136/1
f 149/131/1 150/140/1 223/137/1
f 150/140/1 222/141/1 223/137/1
f 225/142/1 115/139/1 224/138/1
f 151/143/1 222/141/1 150/140/1
f 226/144/1 115/139/1 225/142/1
f 226/144/1 114/145/1 115/139/1
f 151/143/1 221/146/1 222/141/1
f 152/147/1 221/146/1 151/143/1
f 227/148/1 114/145/1 226/144/1
f 228/149/1 114/145/1 227/148/1
f 152/147/1 220/150/1 221/146/1
f 153/151/1 220/150/1 152/147/1
f 228/149/1 113/152/1 114/145/1
f 229/153/1 113/152/1 228/149/1
f 230/154/1 113/152/1 229/153/1
f 153/151/1 219/155/1 220/150/1
f 154/156/1 219/155/1 153/151/1
f 230/154/1 112/157/1 113/152/1
f 231/158/1 112/157/1 230/154/1
f 154/156/1 218/159/1 219/155/1
f 155/160/1 218/159/1 154/156/1
f 232/161/1 112/157/1 231/158/1
f 155/160/1 217/162/1 218/159/1
f 232/161/1 111/163/1 112/157/1
f 233/164/1 111/163/1 232/161/1
f 156/165/1 217/162/1 155/160/1
f 234/166/1 111/163/1 233/164/1
f 156/165/1 216/167/1 217/162/1
f 157/168/1 216/167/1 156/165/1
f 234/166/1 110/169/1 111/163/1
f 235/170/1 110/169/1 234/166/1
f 157/168/1 215/171/1 216/167/1
f 236/6/1 110/169/1 235/170/1
f 158/172/1 215/171/1 157/168/1
f 158/172/1 214/173/1 215/171/1
f 236/6/1 109/4/1 110/169/1
f 158/172/1 213/174/1 214/173/1
f 159/175/1 213/174/1 158/172/1
f 159/175/1 212/176/1 213/174/1
f 160/177/1 212/176/1 159/175/1
f 160/177/1 211/178/1 212/176/1
f 160/177/1 210/179/1 211/178/1
f 161/180/1 210/179/1 160/177/1
f 161/180/1 209/181/1 210/179/1
f 161/180/1 208/182/1 209/181/1
f 162/183/1 208/182/1 161/180/1
f 162/183/1 207/184/1 208/182/1
f 163/185/1 207/184/1 162/183/1
f 163/185/1 206/186/1 207/184/1
f 163/185/1 205/187/1 206/186/1
f 163/185/1 204/188/1 205/187/1
f 163/185/1 203/189/1 204/188/1
f 188/190/1 186/191/1 187/192/1
f 163/185/1 202/193/1 203/189/1
f 189/194/1 186/191/1 188/190/1
f 190/195/1 186/191/1 189/194/1
f 191/196/1 186/191/1 190/195/1
f 163/185/1 201/197/1 202/193/1
f 192/198/1 186/191/1 191/196/1
f 164/199/1 201/197/1 163/185/1
f 193/200/1 186/191/1 192/198/1
f 194/201/1 186/191/1 193/200/1
f 164/199/1 200/202/1 201/197/1
f 195/203/1 186/191/1 194/201/1
f 196/204/1 186/191/1 195/203/1
f 197/205/1 186/191/1 196/204/1
f 164/199/1 199/206/1 200/202/1
f 198/207/1 186/191/1 197/205/1
f 199/206/1 186/191/1 198/207/1
f 164/199/1 186/191/1 199/206/1
f 165/208/1 186/191/1 164/199/1
f 166/209/1 186/191/1 165/208/1
f 167/210/1 186/191/1 166/209/1
f 168/211/1 186/191/1 167/210/1
f 169/212/1 186/191/1 168/211/1
f 170/213/1 186/191/1 169/212/1
f 171/214/1 186/191/1 170/213/1
f 171/214/1 185/215/1 186/191/1
f 171/214/1 184/216/1 185/215/1
f 172/217/1 184/216/1 171/214/1
f 172/217/1 183/218/1 184/216/1
f 172/217/1 182/219/1 183/218/1
f 172/217/1 181/220/1 182/219/1
f 173/221/1 181/220/1 172/217/1
f 173/221/1 180/222/1 181/220/1
f 173/221/1 179/223/1 180/222/1
f 173/221/1 178/224/1 179/223/1
f 173/221/1 177/225/1 178/224/1
f 174/226/1 177/225/1 173/221/1
f 174/226/1 176/227/1 177/225/1
f 174/226/1 175/228/1 176/227/1
