# Blender 4.2.0
# www.blender.org
mtllib nextStage.mtl
o テキスト
v 2.368237 0.000705 0.086111
v 2.008198 0.000705 -0.159191
v 1.790592 0.000705 0.077209
v 1.907308 0.000705 0.172164
v 2.043807 0.000705 0.025775
v 2.284163 0.000705 0.195903
v 1.266358 0.000705 -0.103800
v 1.265369 0.000705 -0.221505
v 1.035894 0.000705 -0.220516
v 1.036883 0.000705 -0.102811
v 1.223826 0.000705 0.298772
v 1.260929 0.000705 0.272173
v 1.296201 0.000705 0.245643
v 1.329832 0.000705 0.218962
v 1.362010 0.000705 0.191910
v 1.392924 0.000705 0.164267
v 1.422763 0.000705 0.135814
v 1.451716 0.000705 0.106331
v 1.479972 0.000705 0.075597
v 1.507719 0.000705 0.043393
v 1.535147 0.000705 0.009500
v 1.562445 0.000705 -0.026303
v 1.589800 0.000705 -0.064235
v 1.491878 0.000705 -0.136441
v 1.463624 0.000705 -0.100041
v 1.436056 0.000705 -0.066305
v 1.408915 0.000705 -0.034933
v 1.381939 0.000705 -0.005621
v 1.354866 0.000705 0.021933
v 1.327437 0.000705 0.048030
v 1.299389 0.000705 0.072973
v 1.270461 0.000705 0.097064
v 1.240394 0.000705 0.120606
v 1.208925 0.000705 0.143901
v 1.175794 0.000705 0.167251
v 1.140740 0.000705 0.190957
v 1.246576 0.000705 0.051492
v 1.245587 0.000705 -0.066214
v 1.035894 0.000705 -0.065225
v 1.036883 0.000705 0.052481
v 1.612550 0.000705 -0.209636
v 1.603648 0.000705 -0.340200
v 1.524519 0.000705 -0.333276
v 1.538366 0.000705 -0.201723
v 1.513638 0.000705 -0.199745
v 1.499791 0.000705 -0.329319
v 1.414726 0.000705 -0.317450
v 1.437476 0.000705 -0.188864
v 0.847961 0.000705 0.084133
v 0.847961 0.000705 -0.038518
v 0.438465 0.000705 -0.038518
v 0.438465 0.000705 0.084133
v 0.248554 0.000705 -0.051377
v -0.270734 0.000705 -0.050388
v -0.268755 0.000705 0.067318
v -0.083790 0.000705 0.067318
v -0.085604 0.000705 0.084342
v -0.087591 0.000705 0.101300
v -0.089756 0.000705 0.118211
v -0.092106 0.000705 0.135091
v -0.094648 0.000705 0.151957
v -0.097390 0.000705 0.168826
v -0.100338 0.000705 0.185716
v -0.103499 0.000705 0.202644
v -0.106880 0.000705 0.219627
v -0.110487 0.000705 0.236681
v -0.114328 0.000705 0.253826
v -0.118409 0.000705 0.271076
v 0.009187 0.000705 0.292837
v 0.015534 0.000705 0.275970
v 0.021712 0.000705 0.258955
v 0.027718 0.000705 0.241727
v 0.033549 0.000705 0.224221
v 0.039202 0.000705 0.206372
v 0.044672 0.000705 0.188114
v 0.049957 0.000705 0.169382
v 0.055053 0.000705 0.150110
v 0.059957 0.000705 0.130235
v 0.064665 0.000705 0.109689
v 0.069174 0.000705 0.088409
v 0.073480 0.000705 0.066328
v 0.250533 0.000705 0.066328
v 0.221848 0.000705 -0.228429
v -0.244027 0.000705 -0.227440
v -0.242049 0.000705 -0.109735
v 0.223826 0.000705 -0.110724
v -0.468557 0.000705 0.190957
v -0.488251 0.000705 0.179079
v -0.506835 0.000705 0.167640
v -0.524396 0.000705 0.156586
v -0.541020 0.000705 0.145861
v -0.556791 0.000705 0.135411
v -0.571797 0.000705 0.125181
v -0.586122 0.000705 0.115116
v -0.599854 0.000705 0.105161
v -0.613077 0.000705 0.095260
v -0.625878 0.000705 0.085360
v -0.638342 0.000705 0.075405
v -0.650555 0.000705 0.065339
v -0.637845 0.000705 0.052196
v -0.625443 0.000705 0.038995
v -0.613371 0.000705 0.025759
v -0.601649 0.000705 0.012513
v -0.590298 0.000705 -0.000719
v -0.579339 0.000705 -0.013914
v -0.568792 0.000705 -0.027047
v -0.558677 0.000705 -0.040094
v -0.549016 0.000705 -0.053030
v -0.539829 0.000705 -0.065834
v -0.531136 0.000705 -0.078479
v -0.522959 0.000705 -0.090942
v -0.522959 0.000705 -0.226451
v -0.987845 0.000705 -0.225462
v -0.985867 0.000705 -0.107757
v -0.694077 0.000705 -0.108746
v -0.713466 0.000705 -0.082760
v -0.734044 0.000705 -0.056730
v -0.755804 0.000705 -0.030652
v -0.778738 0.000705 -0.004522
v -0.802840 0.000705 0.021663
v -0.828102 0.000705 0.047906
v -0.854519 0.000705 0.074211
v -0.882083 0.000705 0.100581
v -0.910787 0.000705 0.127020
v -0.940624 0.000705 0.153531
v -0.971588 0.000705 0.180118
v -1.003671 0.000705 0.206783
v -0.925531 0.000705 0.292837
v -0.910121 0.000705 0.282931
v -0.894570 0.000705 0.272523
v -0.878903 0.000705 0.261649
v -0.863143 0.000705 0.250341
v -0.847314 0.000705 0.238636
v -0.831441 0.000705 0.226566
v -0.815547 0.000705 0.214166
v -0.799656 0.000705 0.201471
v -0.783793 0.000705 0.188516
v -0.767981 0.000705 0.175333
v -0.752245 0.000705 0.161958
v -0.736609 0.000705 0.148425
v -0.721967 0.000705 0.162258
v -0.707673 0.000705 0.175585
v -0.693659 0.000705 0.188438
v -0.679863 0.000705 0.200849
v -0.666217 0.000705 0.212847
v -0.652657 0.000705 0.224464
v -0.639118 0.000705 0.235731
v -0.625534 0.000705 0.246678
v -0.611841 0.000705 0.257337
v -0.597972 0.000705 0.267738
v -0.583863 0.000705 0.277912
v -0.569448 0.000705 0.287891
v -1.463612 0.000705 -0.216560
v -1.511189 0.000705 -0.213963
v -1.554089 0.000705 -0.206504
v -1.592414 0.000705 -0.194676
v -1.626267 0.000705 -0.178973
v -1.655752 0.000705 -0.159892
v -1.680971 0.000705 -0.137925
v -1.702027 0.000705 -0.113568
v -1.719025 0.000705 -0.087315
v -1.732065 0.000705 -0.059661
v -1.741252 0.000705 -0.031100
v -1.746689 0.000705 -0.002127
v -1.748478 0.000705 0.026764
v -1.747414 0.000705 0.048835
v -1.744252 0.000705 0.070381
v -1.739035 0.000705 0.091165
v -1.731810 0.000705 0.110949
v -1.722620 0.000705 0.129496
v -1.711510 0.000705 0.146571
v -1.698525 0.000705 0.161935
v -1.683709 0.000705 0.175351
v -1.667108 0.000705 0.186584
v -1.648765 0.000705 0.195395
v -1.628726 0.000705 0.201548
v -1.607034 0.000705 0.204805
v -1.570958 0.000705 0.204635
v -1.539660 0.000705 0.198495
v -1.512805 0.000705 0.186846
v -1.490062 0.000705 0.170149
v -1.471096 0.000705 0.148864
v -1.455575 0.000705 0.123450
v -1.443166 0.000705 0.094368
v -1.433535 0.000705 0.062079
v -1.426350 0.000705 0.027042
v -1.421276 0.000705 -0.010283
v -1.417982 0.000705 -0.049434
v -1.416134 0.000705 -0.089952
v -1.401993 0.000705 -0.085282
v -1.389226 0.000705 -0.079704
v -1.377806 0.000705 -0.073261
v -1.367704 0.000705 -0.065994
v -1.358893 0.000705 -0.057943
v -1.351347 0.000705 -0.049151
v -1.345037 0.000705 -0.039659
v -1.339935 0.000705 -0.029506
v -1.336015 0.000705 -0.018736
v -1.333249 0.000705 -0.007388
v -1.331610 0.000705 0.004495
v -1.331070 0.000705 0.016872
v -1.331824 0.000705 0.032274
v -1.334056 0.000705 0.048263
v -1.337716 0.000705 0.064767
v -1.342756 0.000705 0.081715
v -1.349129 0.000705 0.099033
v -1.356787 0.000705 0.116650
v -1.365681 0.000705 0.134493
v -1.375763 0.000705 0.152492
v -1.386986 0.000705 0.170572
v -1.399301 0.000705 0.188663
v -1.412660 0.000705 0.206692
v -1.427014 0.000705 0.224588
v -1.331070 0.000705 0.284924
v -1.310443 0.000705 0.262435
v -1.291592 0.000705 0.239534
v -1.274520 0.000705 0.216304
v -1.259230 0.000705 0.192826
v -1.245727 0.000705 0.169183
v -1.234012 0.000705 0.145458
v -1.224091 0.000705 0.121733
v -1.215966 0.000705 0.098090
v -1.209640 0.000705 0.074612
v -1.205117 0.000705 0.051382
v -1.202401 0.000705 0.028481
v -1.201495 0.000705 0.005992
v -1.203309 0.000705 -0.024568
v -1.208753 0.000705 -0.053767
v -1.217831 0.000705 -0.081360
v -1.230546 0.000705 -0.107097
v -1.246901 0.000705 -0.130733
v -1.266901 0.000705 -0.152020
v -1.290547 0.000705 -0.170710
v -1.317845 0.000705 -0.186557
v -1.348797 0.000705 -0.199312
v -1.383406 0.000705 -0.208729
v -1.421677 0.000705 -0.214561
v -1.593186 0.000705 0.093035
v -1.599426 0.000705 0.092450
v -1.605266 0.000705 0.090745
v -1.610681 0.000705 0.087996
v -1.615643 0.000705 0.084279
v -1.620124 0.000705 0.079669
v -1.624096 0.000705 0.074241
v -1.627533 0.000705 0.068072
v -1.630407 0.000705 0.061236
v -1.632689 0.000705 0.053810
v -1.634354 0.000705 0.045868
v -1.635373 0.000705 0.037487
v -1.635719 0.000705 0.028742
v -1.635132 0.000705 0.016942
v -1.633333 0.000705 0.004898
v -1.630263 0.000705 -0.007222
v -1.625864 0.000705 -0.019249
v -1.620078 0.000705 -0.031015
v -1.612845 0.000705 -0.042351
v -1.604109 0.000705 -0.053090
v -1.593809 0.000705 -0.063063
v -1.581889 0.000705 -0.072102
v -1.568289 0.000705 -0.080038
v -1.552951 0.000705 -0.086704
v -1.535818 0.000705 -0.091931
v -1.536909 0.000705 -0.065851
v -1.538281 0.000705 -0.041138
v -1.540052 0.000705 -0.017963
v -1.542338 0.000705 0.003501
v -1.545257 0.000705 0.023083
v -1.548923 0.000705 0.040611
v -1.553456 0.000705 0.055914
v -1.558970 0.000705 0.068820
v -1.565584 0.000705 0.079156
v -1.573413 0.000705 0.086752
v -1.582575 0.000705 0.091435
v -2.621871 0.000705 0.216675
v -2.442840 0.000705 0.174142
v -2.458666 0.000705 0.057426
v -2.644620 0.000705 0.083143
v -2.246006 0.000705 -0.401525
v -2.423058 0.000705 -0.424275
v -2.467568 0.000705 -0.067203
v -2.330081 0.000705 -0.054344
v -2.294472 0.000705 -0.200734
v -2.074888 0.000705 -0.200734
v -2.075982 0.000705 -0.185690
v -2.077292 0.000705 -0.170721
v -2.078829 0.000705 -0.155822
v -2.080603 0.000705 -0.140984
v -2.082624 0.000705 -0.126201
v -2.084903 0.000705 -0.111466
v -2.087449 0.000705 -0.096772
v -2.090274 0.000705 -0.082113
v -2.093387 0.000705 -0.067481
v -2.096799 0.000705 -0.052870
v -2.100521 0.000705 -0.038272
v -2.104561 0.000705 -0.023681
v -1.977954 0.000705 -0.009834
v -1.972082 0.000705 -0.022755
v -1.966336 0.000705 -0.035803
v -1.960721 0.000705 -0.048981
v -1.955241 0.000705 -0.062294
v -1.949897 0.000705 -0.075744
v -1.944695 0.000705 -0.089334
v -1.939636 0.000705 -0.103069
v -1.934726 0.000705 -0.116952
v -1.929966 0.000705 -0.130985
v -1.925361 0.000705 -0.145174
v -1.920914 0.000705 -0.159520
v -1.916628 0.000705 -0.174028
v -1.916628 0.000705 -0.323385
v -2.264799 0.000705 -0.323385
v -2.651545 0.000705 -0.325363
v -2.667370 0.000705 -0.169082
v -2.483394 0.000705 -0.158202
v -2.462623 0.000705 -0.297668
v -2.271722 0.000705 -0.176006
v -2.280887 0.000705 -0.132713
v -2.290145 0.000705 -0.091615
v -2.299588 0.000705 -0.052351
v -2.309309 0.000705 -0.014560
v -2.319401 0.000705 0.022119
v -2.329957 0.000705 0.058045
v -2.341069 0.000705 0.093579
v -2.352830 0.000705 0.129083
v -2.365334 0.000705 0.164916
v -2.378671 0.000705 0.201439
v -2.392936 0.000705 0.239014
v -2.408221 0.000705 0.278000
v -2.282603 0.000705 0.300750
v -2.276957 0.000705 0.290156
v -2.271393 0.000705 0.279635
v -2.265912 0.000705 0.269175
v -2.260512 0.000705 0.258767
v -2.255196 0.000705 0.248400
v -2.249962 0.000705 0.238064
v -2.244810 0.000705 0.227749
v -2.239741 0.000705 0.217444
v -2.234754 0.000705 0.207139
v -2.229850 0.000705 0.196824
v -2.225028 0.000705 0.186488
v -2.220288 0.000705 0.176121
v -2.213778 0.000705 0.187494
v -2.207114 0.000705 0.198861
v -2.200305 0.000705 0.210214
v -2.193362 0.000705 0.221547
v -2.186296 0.000705 0.232852
v -2.179116 0.000705 0.244123
v -2.171834 0.000705 0.255352
v -2.164458 0.000705 0.266534
v -2.157000 0.000705 0.277660
v -2.149470 0.000705 0.288725
v -2.141878 0.000705 0.299721
v -2.134235 0.000705 0.310641
v -1.993780 0.000705 0.240413
v -2.009747 0.000705 0.223845
v -2.025491 0.000705 0.207273
v -2.040995 0.000705 0.190695
v -2.056241 0.000705 0.174106
v -2.071212 0.000705 0.157503
v -2.085892 0.000705 0.140883
v -2.100262 0.000705 0.124243
v -2.114306 0.000705 0.107578
v -2.128006 0.000705 0.090886
v -2.141346 0.000705 0.074164
v -2.154309 0.000705 0.057406
v -2.166876 0.000705 0.040611
v -2.162239 0.000705 0.026453
v -2.157722 0.000705 0.012160
v -2.153322 0.000705 -0.002276
v -2.149035 0.000705 -0.016868
v -2.144858 0.000705 -0.031624
v -2.140788 0.000705 -0.046555
v -2.136820 0.000705 -0.061672
v -2.132953 0.000705 -0.076984
v -2.129181 0.000705 -0.092503
v -2.125502 0.000705 -0.108237
v -2.121913 0.000705 -0.124199
v -2.118409 0.000705 -0.140398
vn -0.0000 1.0000 -0.0000
vt 0.400000 0.000000
vt 0.800000 0.000000
vt 0.200000 0.000000
vt 0.000000 0.000000
vt 0.600000 0.000000
vt 1.000000 0.000000
vt 0.878049 0.000000
vt 0.829268 0.000000
vt 0.853659 0.000000
vt 0.902439 0.000000
vt 0.975610 0.000000
vt 0.926829 0.000000
vt 0.951219 0.000000
vt 0.048780 0.000000
vt 0.024390 0.000000
vt 0.073171 0.000000
vt 0.439024 0.000000
vt 0.390244 0.000000
vt 0.414634 0.000000
vt 0.463415 0.000000
vt 0.487805 0.000000
vt 0.780488 0.000000
vt 0.731707 0.000000
vt 0.756098 0.000000
vt 0.804878 0.000000
vt 0.365854 0.000000
vt 0.512195 0.000000
vt 0.341463 0.000000
vt 0.536585 0.000000
vt 0.317073 0.000000
vt 0.560976 0.000000
vt 0.292683 0.000000
vt 0.585366 0.000000
vt 0.609756 0.000000
vt 0.268293 0.000000
vt 0.634146 0.000000
vt 0.243902 0.000000
vt 0.658537 0.000000
vt 0.219512 0.000000
vt 0.682927 0.000000
vt 0.195122 0.000000
vt 0.707317 0.000000
vt 0.097561 0.000000
vt 0.170732 0.000000
vt 0.146341 0.000000
vt 0.121951 0.000000
vt 0.333333 0.000000
vt 0.666667 0.000000
vt 0.939394 0.000000
vt 0.909091 0.000000
vt 0.969697 0.000000
vt 0.030303 0.000000
vt 0.878788 0.000000
vt 0.060606 0.000000
vt 0.848485 0.000000
vt 0.090909 0.000000
vt 0.818182 0.000000
vt 0.121212 0.000000
vt 0.151515 0.000000
vt 0.787879 0.000000
vt 0.181818 0.000000
vt 0.757576 0.000000
vt 0.212121 0.000000
vt 0.727273 0.000000
vt 0.242424 0.000000
vt 0.696970 0.000000
vt 0.272727 0.000000
vt 0.303030 0.000000
vt 0.636364 0.000000
vt 0.363636 0.000000
vt 0.606061 0.000000
vt 0.393939 0.000000
vt 0.575758 0.000000
vt 0.424242 0.000000
vt 0.545455 0.000000
vt 0.454545 0.000000
vt 0.515152 0.000000
vt 0.484848 0.000000
vt 0.369231 0.000000
vt 0.384615 0.000000
vt 0.415385 0.000000
vt 0.430769 0.000000
vt 0.446154 0.000000
vt 0.353846 0.000000
vt 0.461538 0.000000
vt 0.338462 0.000000
vt 0.323077 0.000000
vt 0.476923 0.000000
vt 0.307692 0.000000
vt 0.292308 0.000000
vt 0.492308 0.000000
vt 0.276923 0.000000
vt 0.261538 0.000000
vt 0.507692 0.000000
vt 0.246154 0.000000
vt 0.230769 0.000000
vt 0.523077 0.000000
vt 0.215385 0.000000
vt 0.538462 0.000000
vt 0.184615 0.000000
vt 0.169231 0.000000
vt 0.553846 0.000000
vt 0.153846 0.000000
vt 0.138462 0.000000
vt 0.123077 0.000000
vt 0.569231 0.000000
vt 0.107692 0.000000
vt 0.092308 0.000000
vt 0.076923 0.000000
vt 0.584615 0.000000
vt 0.815385 0.000000
vt 0.061538 0.000000
vt 0.046154 0.000000
vt 0.830769 0.000000
vt 0.030769 0.000000
vt 0.784615 0.000000
vt 0.846154 0.000000
vt 0.015385 0.000000
vt 0.769231 0.000000
vt 0.861538 0.000000
vt 0.615385 0.000000
vt 0.876923 0.000000
vt 0.753846 0.000000
vt 0.892308 0.000000
vt 0.738462 0.000000
vt 0.630769 0.000000
vt 0.907692 0.000000
vt 0.723077 0.000000
vt 0.923077 0.000000
vt 0.707692 0.000000
vt 0.938462 0.000000
vt 0.692308 0.000000
vt 0.953846 0.000000
vt 0.676923 0.000000
vt 0.969231 0.000000
vt 0.661538 0.000000
vt 0.984615 0.000000
vt 0.646154 0.000000
vt 0.008333 0.000000
vt 0.700000 0.000000
vt 0.691667 0.000000
vt 0.016667 0.000000
vt 0.683333 0.000000
vt 0.025000 0.000000
vt 0.675000 0.000000
vt 0.033333 0.000000
vt 0.041667 0.000000
vt 0.658333 0.000000
vt 0.050000 0.000000
vt 0.650000 0.000000
vt 0.058333 0.000000
vt 0.641667 0.000000
vt 0.066667 0.000000
vt 0.908333 0.000000
vt 0.300000 0.000000
vt 0.633333 0.000000
vt 0.900000 0.000000
vt 0.916667 0.000000
vt 0.291667 0.000000
vt 0.308333 0.000000
vt 0.075000 0.000000
vt 0.891667 0.000000
vt 0.316667 0.000000
vt 0.625000 0.000000
vt 0.883333 0.000000
vt 0.325000 0.000000
vt 0.875000 0.000000
vt 0.341667 0.000000
vt 0.925000 0.000000
vt 0.866667 0.000000
vt 0.083333 0.000000
vt 0.350000 0.000000
vt 0.616667 0.000000
vt 0.858333 0.000000
vt 0.283333 0.000000
vt 0.358333 0.000000
vt 0.850000 0.000000
vt 0.933333 0.000000
vt 0.366667 0.000000
vt 0.091667 0.000000
vt 0.841667 0.000000
vt 0.375000 0.000000
vt 0.608333 0.000000
vt 0.833333 0.000000
vt 0.383333 0.000000
vt 0.941667 0.000000
vt 0.275000 0.000000
vt 0.391667 0.000000
vt 0.825000 0.000000
vt 0.100000 0.000000
vt 0.950000 0.000000
vt 0.816667 0.000000
vt 0.408333 0.000000
vt 0.808333 0.000000
vt 0.958333 0.000000
vt 0.108333 0.000000
vt 0.266667 0.000000
vt 0.591667 0.000000
vt 0.416667 0.000000
vt 0.791667 0.000000
vt 0.966667 0.000000
vt 0.783333 0.000000
vt 0.425000 0.000000
vt 0.116667 0.000000
vt 0.583333 0.000000
vt 0.775000 0.000000
vt 0.975000 0.000000
vt 0.766667 0.000000
vt 0.258333 0.000000
vt 0.433333 0.000000
vt 0.758333 0.000000
vt 0.983333 0.000000
vt 0.125000 0.000000
vt 0.750000 0.000000
vt 0.575000 0.000000
vt 0.991667 0.000000
vt 0.741667 0.000000
vt 0.441667 0.000000
vt 0.733333 0.000000
vt 0.725000 0.000000
vt 0.716667 0.000000
vt 0.133333 0.000000
vt 0.708333 0.000000
vt 0.250000 0.000000
vt 0.566667 0.000000
vt 0.450000 0.000000
vt 0.141667 0.000000
vt 0.458333 0.000000
vt 0.558333 0.000000
vt 0.241667 0.000000
vt 0.150000 0.000000
vt 0.466667 0.000000
vt 0.550000 0.000000
vt 0.158333 0.000000
vt 0.233333 0.000000
vt 0.475000 0.000000
vt 0.166667 0.000000
vt 0.541667 0.000000
vt 0.225000 0.000000
vt 0.483333 0.000000
vt 0.175000 0.000000
vt 0.183333 0.000000
vt 0.216667 0.000000
vt 0.491667 0.000000
vt 0.533333 0.000000
vt 0.191667 0.000000
vt 0.208333 0.000000
vt 0.500000 0.000000
vt 0.525000 0.000000
vt 0.508333 0.000000
vt 0.516667 0.000000
vt 0.058252 0.000000
vt 0.038835 0.000000
vt 0.048544 0.000000
vt 0.349515 0.000000
vt 0.368932 0.000000
vt 0.388350 0.000000
vt 0.359223 0.000000
vt 0.077670 0.000000
vt 0.339806 0.000000
vt 0.087379 0.000000
vt 0.330097 0.000000
vt 0.378641 0.000000
vt 0.067961 0.000000
vt 0.097087 0.000000
vt 0.106796 0.000000
vt 0.407767 0.000000
vt 0.398058 0.000000
vt 0.320388 0.000000
vt 0.116505 0.000000
vt 0.310680 0.000000
vt 0.126214 0.000000
vt 0.300971 0.000000
vt 0.135922 0.000000
vt 0.990291 0.000000
vt 0.417476 0.000000
vt 0.291262 0.000000
vt 0.145631 0.000000
vt 0.980583 0.000000
vt 0.281553 0.000000
vt 0.155340 0.000000
vt 0.970874 0.000000
vt 0.271845 0.000000
vt 0.165049 0.000000
vt 0.961165 0.000000
vt 0.427184 0.000000
vt 0.262136 0.000000
vt 0.174757 0.000000
vt 0.951456 0.000000
vt 0.252427 0.000000
vt 0.184466 0.000000
vt 0.242718 0.000000
vt 0.941748 0.000000
vt 0.194175 0.000000
vt 0.436893 0.000000
vt 0.233010 0.000000
vt 0.932039 0.000000
vt 0.203883 0.000000
vt 0.223301 0.000000
vt 0.922330 0.000000
vt 0.213592 0.000000
vt 0.912621 0.000000
vt 0.446602 0.000000
vt 0.902913 0.000000
vt 0.893204 0.000000
vt 0.456311 0.000000
vt 0.883495 0.000000
vt 0.873786 0.000000
vt 0.864078 0.000000
vt 0.466019 0.000000
vt 0.854369 0.000000
vt 0.844660 0.000000
vt 0.475728 0.000000
vt 0.834951 0.000000
vt 0.825243 0.000000
vt 0.485437 0.000000
vt 0.815534 0.000000
vt 0.805825 0.000000
vt 0.495146 0.000000
vt 0.640777 0.000000
vt 0.796117 0.000000
vt 0.631068 0.000000
vt 0.650485 0.000000
vt 0.621359 0.000000
vt 0.660194 0.000000
vt 0.786408 0.000000
vt 0.611650 0.000000
vt 0.669903 0.000000
vt 0.504854 0.000000
vt 0.601942 0.000000
vt 0.776699 0.000000
vt 0.679612 0.000000
vt 0.592233 0.000000
vt 0.689320 0.000000
vt 0.766990 0.000000
vt 0.582524 0.000000
vt 0.699029 0.000000
vt 0.572816 0.000000
vt 0.514563 0.000000
vt 0.757282 0.000000
vt 0.708738 0.000000
vt 0.563107 0.000000
vt 0.718447 0.000000
vt 0.553398 0.000000
vt 0.728155 0.000000
vt 0.543689 0.000000
vt 0.737864 0.000000
vt 0.524272 0.000000
vt 0.533981 0.000000
vt 0.747573 0.000000
vt 0.029126 0.000000
vt 0.009709 0.000000
vt 0.019417 0.000000
s 0
usemtl マテリアル.004
f 3/1/1 5/2/1 2/3/1
f 5/2/1 1/4/1 2/3/1
f 3/1/1 4/5/1 5/2/1
f 6/6/1 1/4/1 5/2/1
f 43/7/1 41/8/1 42/9/1
f 44/10/1 41/8/1 43/7/1
f 47/11/1 45/12/1 46/13/1
f 48/6/1 45/12/1 47/11/1
f 9/14/1 7/4/1 8/15/1
f 10/16/1 7/4/1 9/14/1
f 25/17/1 23/18/1 24/19/1
f 26/20/1 23/18/1 25/17/1
f 27/21/1 23/18/1 26/20/1
f 39/22/1 37/23/1 38/24/1
f 40/25/1 37/23/1 39/22/1
f 27/21/1 22/26/1 23/18/1
f 28/27/1 22/26/1 27/21/1
f 28/27/1 21/28/1 22/26/1
f 29/29/1 21/28/1 28/27/1
f 29/29/1 20/30/1 21/28/1
f 30/31/1 20/30/1 29/29/1
f 30/31/1 19/32/1 20/30/1
f 31/33/1 19/32/1 30/31/1
f 32/34/1 19/32/1 31/33/1
f 32/34/1 18/35/1 19/32/1
f 33/36/1 18/35/1 32/34/1
f 33/36/1 17/37/1 18/35/1
f 34/38/1 17/37/1 33/36/1
f 34/38/1 16/39/1 17/37/1
f 35/40/1 16/39/1 34/38/1
f 35/40/1 15/41/1 16/39/1
f 36/42/1 15/41/1 35/40/1
f 11/43/1 15/41/1 36/42/1
f 11/43/1 14/44/1 15/41/1
f 11/43/1 13/45/1 14/44/1
f 11/43/1 12/46/1 13/45/1
f 52/6/1 50/47/1 51/48/1
f 52/6/1 49/4/1 50/47/1
f 84/49/1 86/6/1 83/50/1
f 85/51/1 86/6/1 84/49/1
f 54/52/1 82/53/1 53/4/1
f 55/54/1 81/55/1 54/52/1
f 81/55/1 82/53/1 54/52/1
f 55/54/1 56/56/1 81/55/1
f 56/56/1 80/57/1 81/55/1
f 57/58/1 80/57/1 56/56/1
f 58/59/1 80/57/1 57/58/1
f 58/59/1 79/60/1 80/57/1
f 59/61/1 79/60/1 58/59/1
f 59/61/1 78/62/1 79/60/1
f 60/63/1 78/62/1 59/61/1
f 60/63/1 77/64/1 78/62/1
f 61/65/1 77/64/1 60/63/1
f 61/65/1 76/66/1 77/64/1
f 62/67/1 76/66/1 61/65/1
f 63/68/1 76/66/1 62/67/1
f 63/68/1 75/48/1 76/66/1
f 64/47/1 75/48/1 63/68/1
f 64/47/1 74/69/1 75/48/1
f 65/70/1 74/69/1 64/47/1
f 65/70/1 73/71/1 74/69/1
f 66/72/1 73/71/1 65/70/1
f 66/72/1 72/73/1 73/71/1
f 67/74/1 72/73/1 66/72/1
f 67/74/1 71/75/1 72/73/1
f 68/76/1 71/75/1 67/74/1
f 68/76/1 70/77/1 71/75/1
f 69/78/1 70/77/1 68/76/1
f 113/1/1 111/79/1 112/80/1
f 114/81/1 115/82/1 113/1/1
f 115/82/1 111/79/1 113/1/1
f 116/83/1 111/79/1 115/82/1
f 116/83/1 110/84/1 111/79/1
f 117/85/1 110/84/1 116/83/1
f 117/85/1 109/86/1 110/84/1
f 117/85/1 108/87/1 109/86/1
f 118/88/1 108/87/1 117/85/1
f 118/88/1 107/89/1 108/87/1
f 118/88/1 106/90/1 107/89/1
f 119/91/1 106/90/1 118/88/1
f 119/91/1 105/92/1 106/90/1
f 119/91/1 104/93/1 105/92/1
f 120/94/1 104/93/1 119/91/1
f 120/94/1 103/95/1 104/93/1
f 120/94/1 102/96/1 103/95/1
f 121/97/1 102/96/1 120/94/1
f 121/97/1 101/98/1 102/96/1
f 121/97/1 100/3/1 101/98/1
f 122/99/1 100/3/1 121/97/1
f 122/99/1 99/100/1 100/3/1
f 122/99/1 98/101/1 99/100/1
f 123/102/1 98/101/1 122/99/1
f 123/102/1 97/103/1 98/101/1
f 123/102/1 96/104/1 97/103/1
f 123/102/1 95/105/1 96/104/1
f 124/106/1 95/105/1 123/102/1
f 124/106/1 94/107/1 95/105/1
f 124/106/1 93/108/1 94/107/1
f 124/106/1 92/109/1 93/108/1
f 125/110/1 92/109/1 124/106/1
f 125/110/1 140/111/1 92/109/1
f 140/111/1 91/112/1 92/109/1
f 140/111/1 90/113/1 91/112/1
f 125/110/1 139/2/1 140/111/1
f 141/114/1 90/113/1 140/111/1
f 126/5/1 139/2/1 125/110/1
f 141/114/1 89/115/1 90/113/1
f 126/5/1 138/116/1 139/2/1
f 142/117/1 89/115/1 141/114/1
f 142/117/1 88/118/1 89/115/1
f 126/5/1 137/119/1 138/116/1
f 143/120/1 88/118/1 142/117/1
f 143/120/1 87/4/1 88/118/1
f 127/121/1 137/119/1 126/5/1
f 144/122/1 87/4/1 143/120/1
f 127/121/1 136/123/1 137/119/1
f 144/122/1 152/6/1 87/4/1
f 145/124/1 152/6/1 144/122/1
f 127/121/1 135/125/1 136/123/1
f 128/126/1 135/125/1 127/121/1
f 146/127/1 152/6/1 145/124/1
f 128/126/1 134/128/1 135/125/1
f 147/129/1 152/6/1 146/127/1
f 128/126/1 133/130/1 134/128/1
f 148/131/1 152/6/1 147/129/1
f 128/126/1 132/132/1 133/130/1
f 149/133/1 152/6/1 148/131/1
f 128/126/1 131/134/1 132/132/1
f 150/135/1 152/6/1 149/133/1
f 128/126/1 130/136/1 131/134/1
f 151/137/1 152/6/1 150/135/1
f 128/126/1 129/138/1 130/136/1
f 154/139/1 237/140/1 153/4/1
f 154/139/1 236/141/1 237/140/1
f 155/142/1 236/141/1 154/139/1
f 155/142/1 235/143/1 236/141/1
f 156/144/1 235/143/1 155/142/1
f 156/144/1 234/145/1 235/143/1
f 157/146/1 234/145/1 156/144/1
f 157/146/1 233/48/1 234/145/1
f 158/147/1 233/48/1 157/146/1
f 158/147/1 232/148/1 233/48/1
f 159/149/1 232/148/1 158/147/1
f 159/149/1 231/150/1 232/148/1
f 160/151/1 231/150/1 159/149/1
f 160/151/1 230/152/1 231/150/1
f 161/153/1 230/152/1 160/151/1
f 161/153/1 262/154/1 230/152/1
f 262/154/1 189/155/1 230/152/1
f 189/155/1 229/156/1 230/152/1
f 161/153/1 261/157/1 262/154/1
f 263/158/1 189/155/1 262/154/1
f 263/158/1 188/159/1 189/155/1
f 190/160/1 229/156/1 189/155/1
f 162/161/1 261/157/1 161/153/1
f 162/161/1 260/162/1 261/157/1
f 191/163/1 229/156/1 190/160/1
f 191/163/1 228/164/1 229/156/1
f 162/161/1 259/165/1 260/162/1
f 192/166/1 228/164/1 191/163/1
f 193/47/1 228/164/1 192/166/1
f 162/161/1 258/167/1 259/165/1
f 194/168/1 228/164/1 193/47/1
f 264/169/1 188/159/1 263/158/1
f 162/161/1 257/170/1 258/167/1
f 163/171/1 257/170/1 162/161/1
f 195/172/1 228/164/1 194/168/1
f 195/172/1 227/173/1 228/164/1
f 163/171/1 256/174/1 257/170/1
f 264/169/1 187/175/1 188/159/1
f 196/176/1 227/173/1 195/172/1
f 163/171/1 255/177/1 256/174/1
f 265/178/1 187/175/1 264/169/1
f 197/179/1 227/173/1 196/176/1
f 164/180/1 255/177/1 163/171/1
f 164/180/1 254/181/1 255/177/1
f 198/182/1 227/173/1 197/179/1
f 198/182/1 226/183/1 227/173/1
f 164/180/1 253/184/1 254/181/1
f 199/185/1 226/183/1 198/182/1
f 266/186/1 187/175/1 265/178/1
f 266/186/1 186/187/1 187/175/1
f 200/188/1 226/183/1 199/185/1
f 164/180/1 252/189/1 253/184/1
f 165/190/1 252/189/1 164/180/1
f 267/191/1 186/187/1 266/186/1
f 201/1/1 226/183/1 200/188/1
f 165/190/1 251/192/1 252/189/1
f 201/1/1 225/5/1 226/183/1
f 202/193/1 225/5/1 201/1/1
f 165/190/1 250/194/1 251/192/1
f 268/195/1 186/187/1 267/191/1
f 166/196/1 250/194/1 165/190/1
f 268/195/1 185/197/1 186/187/1
f 202/193/1 224/198/1 225/5/1
f 166/196/1 249/2/1 250/194/1
f 203/199/1 224/198/1 202/193/1
f 166/196/1 248/200/1 249/2/1
f 269/201/1 185/197/1 268/195/1
f 166/196/1 247/202/1 248/200/1
f 204/203/1 224/198/1 203/199/1
f 167/204/1 247/202/1 166/196/1
f 204/203/1 223/205/1 224/198/1
f 167/204/1 246/206/1 247/202/1
f 270/207/1 185/197/1 269/201/1
f 167/204/1 245/208/1 246/206/1
f 270/207/1 184/209/1 185/197/1
f 205/210/1 223/205/1 204/203/1
f 167/204/1 244/211/1 245/208/1
f 271/212/1 184/209/1 270/207/1
f 168/213/1 244/211/1 167/204/1
f 168/213/1 243/214/1 244/211/1
f 205/210/1 222/215/1 223/205/1
f 272/216/1 184/209/1 271/212/1
f 168/213/1 242/217/1 243/214/1
f 206/218/1 222/215/1 205/210/1
f 168/213/1 241/219/1 242/217/1
f 273/6/1 184/209/1 272/216/1
f 168/213/1 240/220/1 241/219/1
f 168/213/1 239/221/1 240/220/1
f 169/222/1 239/221/1 168/213/1
f 238/223/1 184/209/1 273/6/1
f 169/222/1 238/223/1 239/221/1
f 169/222/1 184/209/1 238/223/1
f 169/222/1 183/224/1 184/209/1
f 206/218/1 221/225/1 222/215/1
f 207/226/1 221/225/1 206/218/1
f 170/227/1 183/224/1 169/222/1
f 208/228/1 221/225/1 207/226/1
f 208/228/1 220/229/1 221/225/1
f 170/227/1 182/230/1 183/224/1
f 171/231/1 182/230/1 170/227/1
f 209/232/1 220/229/1 208/228/1
f 209/232/1 219/233/1 220/229/1
f 172/234/1 182/230/1 171/231/1
f 172/234/1 181/235/1 182/230/1
f 210/236/1 219/233/1 209/232/1
f 173/237/1 181/235/1 172/234/1
f 210/236/1 218/238/1 219/233/1
f 173/237/1 180/239/1 181/235/1
f 211/240/1 218/238/1 210/236/1
f 174/241/1 180/239/1 173/237/1
f 175/242/1 180/239/1 174/241/1
f 175/242/1 179/243/1 180/239/1
f 212/244/1 218/238/1 211/240/1
f 212/244/1 217/245/1 218/238/1
f 176/246/1 179/243/1 175/242/1
f 176/246/1 178/247/1 179/243/1
f 177/3/1 178/247/1 176/246/1
f 213/248/1 217/245/1 212/244/1
f 213/248/1 216/249/1 217/245/1
f 214/250/1 216/249/1 213/248/1
f 214/250/1 215/251/1 216/249/1
f 280/252/1 278/253/1 279/254/1
f 280/252/1 310/255/1 278/253/1
f 312/256/1 314/257/1 311/258/1
f 280/252/1 282/259/1 310/255/1
f 282/259/1 309/260/1 310/255/1
f 282/259/1 283/261/1 309/260/1
f 283/261/1 308/262/1 309/260/1
f 312/256/1 313/263/1 314/257/1
f 280/252/1 281/264/1 282/259/1
f 284/265/1 308/262/1 283/261/1
f 285/266/1 308/262/1 284/265/1
f 316/267/1 377/6/1 315/268/1
f 285/266/1 307/269/1 308/262/1
f 286/270/1 307/269/1 285/266/1
f 286/270/1 306/271/1 307/269/1
f 287/272/1 306/271/1 286/270/1
f 287/272/1 305/273/1 306/271/1
f 288/274/1 305/273/1 287/272/1
f 316/267/1 376/275/1 377/6/1
f 317/276/1 376/275/1 316/267/1
f 288/274/1 304/277/1 305/273/1
f 289/278/1 304/277/1 288/274/1
f 317/276/1 375/279/1 376/275/1
f 289/278/1 303/280/1 304/277/1
f 290/281/1 303/280/1 289/278/1
f 317/276/1 374/282/1 375/279/1
f 290/281/1 302/283/1 303/280/1
f 291/284/1 302/283/1 290/281/1
f 317/276/1 373/285/1 374/282/1
f 318/286/1 373/285/1 317/276/1
f 291/284/1 301/287/1 302/283/1
f 292/288/1 301/287/1 291/284/1
f 318/286/1 372/289/1 373/285/1
f 292/288/1 300/290/1 301/287/1
f 293/291/1 300/290/1 292/288/1
f 293/291/1 299/292/1 300/290/1
f 318/286/1 371/293/1 372/289/1
f 294/294/1 299/292/1 293/291/1
f 319/295/1 371/293/1 318/286/1
f 294/294/1 298/296/1 299/292/1
f 319/295/1 370/297/1 371/293/1
f 295/298/1 298/296/1 294/294/1
f 295/298/1 297/299/1 298/296/1
f 319/295/1 369/300/1 370/297/1
f 296/301/1 297/299/1 295/298/1
f 319/295/1 368/302/1 369/300/1
f 320/303/1 368/302/1 319/295/1
f 320/303/1 367/304/1 368/302/1
f 320/303/1 366/305/1 367/304/1
f 321/306/1 366/305/1 320/303/1
f 321/306/1 365/307/1 366/305/1
f 321/306/1 364/308/1 365/307/1
f 321/306/1 363/309/1 364/308/1
f 322/310/1 363/309/1 321/306/1
f 322/310/1 362/311/1 363/309/1
f 322/310/1 361/312/1 362/311/1
f 323/313/1 361/312/1 322/310/1
f 323/313/1 360/314/1 361/312/1
f 323/313/1 359/315/1 360/314/1
f 324/316/1 359/315/1 323/313/1
f 324/316/1 358/317/1 359/315/1
f 324/316/1 357/318/1 358/317/1
f 325/319/1 340/320/1 324/316/1
f 340/320/1 357/318/1 324/316/1
f 340/320/1 356/321/1 357/318/1
f 325/319/1 339/322/1 340/320/1
f 341/323/1 356/321/1 340/320/1
f 325/319/1 338/324/1 339/322/1
f 342/325/1 356/321/1 341/323/1
f 342/325/1 355/326/1 356/321/1
f 325/319/1 337/327/1 338/324/1
f 343/328/1 355/326/1 342/325/1
f 326/329/1 337/327/1 325/319/1
f 326/329/1 336/330/1 337/327/1
f 343/328/1 354/331/1 355/326/1
f 344/332/1 354/331/1 343/328/1
f 326/329/1 335/333/1 336/330/1
f 345/334/1 354/331/1 344/332/1
f 345/334/1 353/335/1 354/331/1
f 326/329/1 334/336/1 335/333/1
f 346/337/1 353/335/1 345/334/1
f 326/329/1 333/338/1 334/336/1
f 327/339/1 333/338/1 326/329/1
f 346/337/1 352/340/1 353/335/1
f 347/341/1 352/340/1 346/337/1
f 327/339/1 332/342/1 333/338/1
f 348/343/1 352/340/1 347/341/1
f 327/339/1 331/344/1 332/342/1
f 349/345/1 352/340/1 348/343/1
f 327/339/1 330/346/1 331/344/1
f 350/347/1 352/340/1 349/345/1
f 328/348/1 330/346/1 327/339/1
f 328/348/1 329/349/1 330/346/1
f 351/350/1 352/340/1 350/347/1
f 277/351/1 275/352/1 276/353/1
f 274/4/1 275/352/1 277/351/1
