# Blender 4.2.0
# www.blender.org
mtllib Retry.mtl
o テキスト
v 1.835457 0.000000 0.102501
v 1.835457 0.000000 -0.011247
v 1.476406 0.000000 -0.011247
v 1.476406 0.000000 0.102501
v 1.189562 0.000000 -0.252593
v 1.156159 0.000000 -0.229403
v 1.123130 0.000000 -0.206786
v 1.090356 0.000000 -0.184699
v 1.057716 0.000000 -0.163096
v 1.025089 0.000000 -0.141932
v 0.992356 0.000000 -0.121163
v 0.959396 0.000000 -0.100745
v 0.926090 0.000000 -0.080632
v 0.892316 0.000000 -0.060781
v 0.857955 0.000000 -0.041145
v 0.822886 0.000000 -0.021682
v 0.786990 0.000000 -0.002345
v 0.842381 0.000000 0.096567
v 0.854884 0.000000 0.091293
v 0.867649 0.000000 0.085865
v 0.880647 0.000000 0.080292
v 0.893852 0.000000 0.074586
v 0.907234 0.000000 0.068756
v 0.920768 0.000000 0.062813
v 0.934426 0.000000 0.056767
v 0.948180 0.000000 0.050627
v 0.962002 0.000000 0.044406
v 0.975866 0.000000 0.038112
v 0.989743 0.000000 0.031757
v 1.003607 0.000000 0.025350
v 1.003607 0.000000 0.304282
v 1.125269 0.000000 0.304282
v 1.125269 0.000000 -0.014215
v 1.086693 0.000000 -0.014215
v 1.106279 0.000000 -0.024083
v 1.125429 0.000000 -0.033892
v 1.144078 0.000000 -0.043626
v 1.162159 0.000000 -0.053267
v 1.179609 0.000000 -0.062798
v 1.196362 0.000000 -0.072202
v 1.212352 0.000000 -0.081462
v 1.227515 0.000000 -0.090560
v 1.241784 0.000000 -0.099480
v 1.255095 0.000000 -0.108204
v 1.267383 0.000000 -0.116715
v 1.278582 0.000000 -0.124996
v 0.357712 0.000000 0.315162
v 0.375319 0.000000 0.302496
v 0.392647 0.000000 0.289587
v 0.409873 0.000000 0.276231
v 0.427170 0.000000 0.262226
v 0.444715 0.000000 0.247369
v 0.462682 0.000000 0.231458
v 0.481247 0.000000 0.214290
v 0.500585 0.000000 0.195662
v 0.520870 0.000000 0.175372
v 0.542279 0.000000 0.153217
v 0.564986 0.000000 0.128994
v 0.589166 0.000000 0.102501
v 0.589166 0.000000 -0.053780
v 0.088671 0.000000 -0.052791
v 0.090650 0.000000 0.062936
v 0.431896 0.000000 0.061947
v 0.422401 0.000000 0.077709
v 0.412649 0.000000 0.092921
v 0.402547 0.000000 0.107694
v 0.392001 0.000000 0.122137
v 0.380920 0.000000 0.136360
v 0.369211 0.000000 0.150474
v 0.356780 0.000000 0.164587
v 0.343535 0.000000 0.178810
v 0.329383 0.000000 0.193253
v 0.314232 0.000000 0.208026
v 0.297989 0.000000 0.223238
v 0.280561 0.000000 0.239000
v 0.560482 0.000000 -0.107192
v 0.558503 0.000000 -0.224897
v 0.124280 0.000000 -0.223908
v 0.126258 0.000000 -0.106203
v -0.339617 0.000000 -0.240723
v -0.466225 0.000000 -0.240723
v -0.466225 0.000000 0.304282
v -0.339617 0.000000 0.304282
v -0.339617 0.000000 0.103490
v -0.326036 0.000000 0.104666
v -0.312490 0.000000 0.105720
v -0.298971 0.000000 0.106659
v -0.285472 0.000000 0.107483
v -0.271987 0.000000 0.108198
v -0.258510 0.000000 0.108807
v -0.245032 0.000000 0.109312
v -0.231547 0.000000 0.109718
v -0.218048 0.000000 0.110028
v -0.204529 0.000000 0.110245
v -0.190983 0.000000 0.110372
v -0.177402 0.000000 0.110414
v -0.172209 0.000000 0.110414
v -0.167016 0.000000 0.110410
v -0.161823 0.000000 0.110399
v -0.156630 0.000000 0.110378
v -0.151437 0.000000 0.110343
v -0.146244 0.000000 0.110291
v -0.141052 0.000000 0.110218
v -0.135859 0.000000 0.110121
v -0.130666 0.000000 0.109997
v -0.125473 0.000000 0.109842
v -0.120280 0.000000 0.109652
v -0.115087 0.000000 0.109425
v -0.109152 0.000000 -0.006302
v -0.127080 0.000000 -0.007600
v -0.145251 0.000000 -0.009022
v -0.163662 0.000000 -0.010567
v -0.182311 0.000000 -0.012237
v -0.201193 0.000000 -0.014029
v -0.220305 0.000000 -0.015946
v -0.239644 0.000000 -0.017986
v -0.259206 0.000000 -0.020150
v -0.278987 0.000000 -0.022437
v -0.298986 0.000000 -0.024848
v -0.319197 0.000000 -0.027383
v -0.339617 0.000000 -0.030041
v -0.809449 0.000000 0.316151
v -0.785810 0.000000 0.290345
v -0.764334 0.000000 0.264337
v -0.745002 0.000000 0.238088
v -0.727792 0.000000 0.211561
v -0.712684 0.000000 0.184718
v -0.699657 0.000000 0.157521
v -0.688691 0.000000 0.129933
v -0.679765 0.000000 0.101915
v -0.672858 0.000000 0.073430
v -0.667950 0.000000 0.044441
v -0.665021 0.000000 0.014909
v -0.664049 0.000000 -0.015204
v -0.664049 0.000000 -0.211050
v -0.790656 0.000000 -0.211050
v -0.790656 0.000000 -0.054769
v -0.791395 0.000000 -0.025459
v -0.793600 0.000000 0.003154
v -0.797255 0.000000 0.031115
v -0.802342 0.000000 0.058467
v -0.808844 0.000000 0.085256
v -0.816744 0.000000 0.111527
v -0.826024 0.000000 0.137324
v -0.836668 0.000000 0.162691
v -0.848659 0.000000 0.187674
v -0.861978 0.000000 0.212316
v -0.876609 0.000000 0.236664
v -0.892535 0.000000 0.260760
v -0.974632 0.000000 0.098545
v -0.974632 0.000000 -0.211050
v -1.101239 0.000000 -0.211050
v -1.101239 0.000000 0.098545
v -1.299063 0.000000 0.102501
v -1.299063 0.000000 -0.011247
v -1.658114 0.000000 -0.011247
v -1.658114 0.000000 0.102501
vn -0.0000 1.0000 -0.0000
vt 1.000000 0.000000
vt 0.333333 0.000000
vt 0.666667 0.000000
vt 0.000000 0.000000
vt 0.024390 0.000000
vt 0.048780 0.000000
vt 0.073171 0.000000
vt 0.097561 0.000000
vt 0.121951 0.000000
vt 0.146341 0.000000
vt 0.975610 0.000000
vt 0.170732 0.000000
vt 0.951219 0.000000
vt 0.926829 0.000000
vt 0.195122 0.000000
vt 0.902439 0.000000
vt 0.878049 0.000000
vt 0.853659 0.000000
vt 0.219512 0.000000
vt 0.829268 0.000000
vt 0.804878 0.000000
vt 0.243902 0.000000
vt 0.780488 0.000000
vt 0.756098 0.000000
vt 0.268293 0.000000
vt 0.731707 0.000000
vt 0.707317 0.000000
vt 0.292683 0.000000
vt 0.682927 0.000000
vt 0.609756 0.000000
vt 0.658537 0.000000
vt 0.317073 0.000000
vt 0.585366 0.000000
vt 0.634146 0.000000
vt 0.560976 0.000000
vt 0.536585 0.000000
vt 0.512195 0.000000
vt 0.487805 0.000000
vt 0.463415 0.000000
vt 0.439024 0.000000
vt 0.414634 0.000000
vt 0.390244 0.000000
vt 0.365854 0.000000
vt 0.341463 0.000000
vt 0.968750 0.000000
vt 0.906250 0.000000
vt 0.937500 0.000000
vt 0.437500 0.000000
vt 0.375000 0.000000
vt 0.406250 0.000000
vt 0.468750 0.000000
vt 0.500000 0.000000
vt 0.531250 0.000000
vt 0.562500 0.000000
vt 0.593750 0.000000
vt 0.343750 0.000000
vt 0.625000 0.000000
vt 0.656250 0.000000
vt 0.312500 0.000000
vt 0.687500 0.000000
vt 0.718750 0.000000
vt 0.281250 0.000000
vt 0.750000 0.000000
vt 0.250000 0.000000
vt 0.781250 0.000000
vt 0.812500 0.000000
vt 0.218750 0.000000
vt 0.843750 0.000000
vt 0.187500 0.000000
vt 0.875000 0.000000
vt 0.156250 0.000000
vt 0.125000 0.000000
vt 0.093750 0.000000
vt 0.062500 0.000000
vt 0.031250 0.000000
vt 0.935484 0.000000
vt 0.967742 0.000000
vt 0.903226 0.000000
vt 0.483871 0.000000
vt 0.419355 0.000000
vt 0.451613 0.000000
vt 0.387097 0.000000
vt 0.516129 0.000000
vt 0.548387 0.000000
vt 0.354839 0.000000
vt 0.580645 0.000000
vt 0.322581 0.000000
vt 0.612903 0.000000
vt 0.290323 0.000000
vt 0.645161 0.000000
vt 0.258065 0.000000
vt 0.677419 0.000000
vt 0.225806 0.000000
vt 0.709677 0.000000
vt 0.193548 0.000000
vt 0.741935 0.000000
vt 0.161290 0.000000
vt 0.774194 0.000000
vt 0.129032 0.000000
vt 0.806452 0.000000
vt 0.096774 0.000000
vt 0.838710 0.000000
vt 0.870968 0.000000
vt 0.064516 0.000000
vt 0.032258 0.000000
s 0
usemtl マテリアル.003
f 4/1/1 2/2/1 3/3/1
f 4/1/1 1/4/1 2/2/1
f 6/5/1 46/1/1 5/4/1
f 7/6/1 46/1/1 6/5/1
f 8/7/1 46/1/1 7/6/1
f 9/8/1 46/1/1 8/7/1
f 10/9/1 46/1/1 9/8/1
f 11/10/1 46/1/1 10/9/1
f 11/10/1 45/11/1 46/1/1
f 12/12/1 45/11/1 11/10/1
f 12/12/1 44/13/1 45/11/1
f 12/12/1 43/14/1 44/13/1
f 13/15/1 43/14/1 12/12/1
f 13/15/1 42/16/1 43/14/1
f 13/15/1 41/17/1 42/16/1
f 13/15/1 40/18/1 41/17/1
f 14/19/1 40/18/1 13/15/1
f 14/19/1 39/20/1 40/18/1
f 14/19/1 38/21/1 39/20/1
f 15/22/1 38/21/1 14/19/1
f 15/22/1 37/23/1 38/21/1
f 15/22/1 36/24/1 37/23/1
f 16/25/1 36/24/1 15/22/1
f 16/25/1 35/26/1 36/24/1
f 16/25/1 34/27/1 35/26/1
f 17/28/1 34/27/1 16/25/1
f 17/28/1 33/29/1 34/27/1
f 17/28/1 30/30/1 33/29/1
f 30/30/1 32/31/1 33/29/1
f 18/32/1 30/30/1 17/28/1
f 18/32/1 29/33/1 30/30/1
f 31/34/1 32/31/1 30/30/1
f 18/32/1 28/35/1 29/33/1
f 18/32/1 27/36/1 28/35/1
f 18/32/1 26/37/1 27/36/1
f 18/32/1 25/38/1 26/37/1
f 18/32/1 24/39/1 25/38/1
f 18/32/1 23/40/1 24/39/1
f 18/32/1 22/41/1 23/40/1
f 18/32/1 21/42/1 22/41/1
f 18/32/1 20/43/1 21/42/1
f 18/32/1 19/44/1 20/43/1
f 78/45/1 76/46/1 77/47/1
f 79/1/1 76/46/1 78/45/1
f 61/48/1 59/49/1 60/50/1
f 62/51/1 63/52/1 61/48/1
f 63/52/1 59/49/1 61/48/1
f 64/53/1 59/49/1 63/52/1
f 65/54/1 59/49/1 64/53/1
f 66/55/1 59/49/1 65/54/1
f 66/55/1 58/56/1 59/49/1
f 67/57/1 58/56/1 66/55/1
f 68/58/1 58/56/1 67/57/1
f 68/58/1 57/59/1 58/56/1
f 69/60/1 57/59/1 68/58/1
f 70/61/1 57/59/1 69/60/1
f 70/61/1 56/62/1 57/59/1
f 71/63/1 56/62/1 70/61/1
f 71/63/1 55/64/1 56/62/1
f 72/65/1 55/64/1 71/63/1
f 73/66/1 55/64/1 72/65/1
f 73/66/1 54/67/1 55/64/1
f 74/68/1 54/67/1 73/66/1
f 74/68/1 53/69/1 54/67/1
f 75/70/1 53/69/1 74/68/1
f 75/70/1 52/71/1 53/69/1
f 47/4/1 52/71/1 75/70/1
f 47/4/1 51/72/1 52/71/1
f 47/4/1 50/73/1 51/72/1
f 47/4/1 49/74/1 50/73/1
f 47/4/1 48/75/1 49/74/1
f 82/6/1 80/4/1 81/5/1
f 82/6/1 121/1/1 80/4/1
f 82/6/1 120/11/1 121/1/1
f 82/6/1 119/13/1 120/11/1
f 82/6/1 118/14/1 119/13/1
f 82/6/1 84/8/1 118/14/1
f 84/8/1 117/16/1 118/14/1
f 84/8/1 116/17/1 117/16/1
f 84/8/1 115/18/1 116/17/1
f 84/8/1 114/20/1 115/18/1
f 84/8/1 113/21/1 114/20/1
f 84/8/1 112/23/1 113/21/1
f 84/8/1 111/24/1 112/23/1
f 84/8/1 110/26/1 111/24/1
f 84/8/1 109/27/1 110/26/1
f 84/8/1 108/29/1 109/27/1
f 82/6/1 83/7/1 84/8/1
f 85/9/1 108/29/1 84/8/1
f 86/10/1 108/29/1 85/9/1
f 87/12/1 108/29/1 86/10/1
f 88/15/1 108/29/1 87/12/1
f 89/19/1 108/29/1 88/15/1
f 90/22/1 108/29/1 89/19/1
f 91/25/1 108/29/1 90/22/1
f 92/28/1 108/29/1 91/25/1
f 92/28/1 107/31/1 108/29/1
f 92/28/1 106/34/1 107/31/1
f 93/32/1 106/34/1 92/28/1
f 93/32/1 105/30/1 106/34/1
f 93/32/1 104/33/1 105/30/1
f 94/44/1 104/33/1 93/32/1
f 94/44/1 103/35/1 104/33/1
f 94/44/1 102/36/1 103/35/1
f 95/43/1 102/36/1 94/44/1
f 95/43/1 101/37/1 102/36/1
f 95/43/1 100/38/1 101/37/1
f 96/42/1 100/38/1 95/43/1
f 96/42/1 99/39/1 100/38/1
f 96/42/1 98/40/1 99/39/1
f 96/42/1 97/41/1 98/40/1
f 153/1/1 151/76/1 152/77/1
f 153/1/1 150/78/1 151/76/1
f 137/79/1 135/80/1 136/81/1
f 137/79/1 134/82/1 135/80/1
f 138/83/1 134/82/1 137/79/1
f 139/84/1 134/82/1 138/83/1
f 139/84/1 133/85/1 134/82/1
f 140/86/1 133/85/1 139/84/1
f 140/86/1 132/87/1 133/85/1
f 141/88/1 132/87/1 140/86/1
f 141/88/1 131/89/1 132/87/1
f 142/90/1 131/89/1 141/88/1
f 142/90/1 130/91/1 131/89/1
f 143/92/1 130/91/1 142/90/1
f 143/92/1 129/93/1 130/91/1
f 144/94/1 129/93/1 143/92/1
f 144/94/1 128/95/1 129/93/1
f 145/96/1 128/95/1 144/94/1
f 145/96/1 127/97/1 128/95/1
f 146/98/1 127/97/1 145/96/1
f 146/98/1 126/99/1 127/97/1
f 147/100/1 126/99/1 146/98/1
f 147/100/1 125/101/1 126/99/1
f 148/102/1 125/101/1 147/100/1
f 149/103/1 125/101/1 148/102/1
f 149/103/1 124/104/1 125/101/1
f 122/4/1 124/104/1 149/103/1
f 122/4/1 123/105/1 124/104/1
f 157/1/1 155/2/1 156/3/1
f 157/1/1 154/4/1 155/2/1
