# Blender 4.2.0
# www.blender.org
mtllib stage.mtl
o テキスト
v 0.868942 0.000000 -0.081800
v 0.867952 0.000000 -0.199505
v 0.638477 0.000000 -0.198516
v 0.639466 0.000000 -0.080811
v 0.826409 0.000000 0.320772
v 0.863512 0.000000 0.294173
v 0.898785 0.000000 0.267643
v 0.932415 0.000000 0.240962
v 0.964593 0.000000 0.213910
v 0.995507 0.000000 0.186267
v 1.025346 0.000000 0.157814
v 1.054299 0.000000 0.128331
v 1.082555 0.000000 0.097597
v 1.110302 0.000000 0.065393
v 1.137730 0.000000 0.031500
v 1.165028 0.000000 -0.004303
v 1.192384 0.000000 -0.042235
v 1.094461 0.000000 -0.114441
v 1.066207 0.000000 -0.078041
v 1.038640 0.000000 -0.044305
v 1.011498 0.000000 -0.012933
v 0.984522 0.000000 0.016379
v 0.957449 0.000000 0.043933
v 0.930019 0.000000 0.070030
v 0.901971 0.000000 0.094973
v 0.873044 0.000000 0.119064
v 0.842977 0.000000 0.142606
v 0.811508 0.000000 0.165901
v 0.778377 0.000000 0.189251
v 0.743323 0.000000 0.212957
v 0.849159 0.000000 0.073492
v 0.848170 0.000000 -0.044214
v 0.638477 0.000000 -0.043225
v 0.639466 0.000000 0.074481
v 1.215133 0.000000 -0.187636
v 1.206231 0.000000 -0.318200
v 1.127102 0.000000 -0.311276
v 1.140949 0.000000 -0.179723
v 1.116221 0.000000 -0.177745
v 1.102374 0.000000 -0.307319
v 1.017309 0.000000 -0.295450
v 1.040059 0.000000 -0.166864
v 0.450544 0.000000 0.106133
v 0.450544 0.000000 -0.016518
v 0.041048 0.000000 -0.016518
v 0.041048 0.000000 0.106133
v -0.148863 0.000000 -0.029377
v -0.668150 0.000000 -0.028388
v -0.666172 0.000000 0.089318
v -0.481207 0.000000 0.089318
v -0.483021 0.000000 0.106341
v -0.485008 0.000000 0.123300
v -0.487172 0.000000 0.140211
v -0.489523 0.000000 0.157091
v -0.492065 0.000000 0.173957
v -0.494807 0.000000 0.190826
v -0.497755 0.000000 0.207716
v -0.500916 0.000000 0.224644
v -0.504297 0.000000 0.241627
v -0.507904 0.000000 0.258681
v -0.511745 0.000000 0.275826
v -0.515826 0.000000 0.293076
v -0.388230 0.000000 0.314837
v -0.381883 0.000000 0.297970
v -0.375705 0.000000 0.280955
v -0.369699 0.000000 0.263727
v -0.363868 0.000000 0.246221
v -0.358215 0.000000 0.228372
v -0.352745 0.000000 0.210114
v -0.347460 0.000000 0.191382
v -0.342364 0.000000 0.172111
v -0.337460 0.000000 0.152235
v -0.332752 0.000000 0.131689
v -0.328243 0.000000 0.110409
v -0.323937 0.000000 0.088328
v -0.146884 0.000000 0.088328
v -0.175569 0.000000 -0.206429
v -0.641444 0.000000 -0.205440
v -0.639466 0.000000 -0.087735
v -0.173591 0.000000 -0.088724
v -0.865974 0.000000 0.212957
v -0.885668 0.000000 0.201079
v -0.904252 0.000000 0.189640
v -0.921813 0.000000 0.178586
v -0.938437 0.000000 0.167861
v -0.954208 0.000000 0.157411
v -0.969214 0.000000 0.147181
v -0.983539 0.000000 0.137116
v -0.997271 0.000000 0.127161
v -1.010494 0.000000 0.117260
v -1.023295 0.000000 0.107360
v -1.035759 0.000000 0.097404
v -1.047972 0.000000 0.087339
v -1.035261 0.000000 0.074196
v -1.022860 0.000000 0.060995
v -1.010788 0.000000 0.047759
v -0.999066 0.000000 0.034513
v -0.987715 0.000000 0.021281
v -0.976756 0.000000 0.008086
v -0.966209 0.000000 -0.005047
v -0.956094 0.000000 -0.018094
v -0.946433 0.000000 -0.031031
v -0.937246 0.000000 -0.043834
v -0.928553 0.000000 -0.056479
v -0.920376 0.000000 -0.068942
v -0.920376 0.000000 -0.204451
v -1.385262 0.000000 -0.203462
v -1.383284 0.000000 -0.085757
v -1.091494 0.000000 -0.086746
v -1.110883 0.000000 -0.060760
v -1.131461 0.000000 -0.034730
v -1.153221 0.000000 -0.008652
v -1.176155 0.000000 0.017478
v -1.200257 0.000000 0.043663
v -1.225519 0.000000 0.069906
v -1.251936 0.000000 0.096211
v -1.279500 0.000000 0.122581
v -1.308203 0.000000 0.149020
v -1.338041 0.000000 0.175531
v -1.369005 0.000000 0.202118
v -1.401088 0.000000 0.228783
v -1.322948 0.000000 0.314837
v -1.307538 0.000000 0.304931
v -1.291987 0.000000 0.294523
v -1.276320 0.000000 0.283649
v -1.260560 0.000000 0.272341
v -1.244731 0.000000 0.260636
v -1.228858 0.000000 0.248566
v -1.212964 0.000000 0.236166
v -1.197073 0.000000 0.223471
v -1.181210 0.000000 0.210516
v -1.165398 0.000000 0.197333
v -1.149662 0.000000 0.183958
v -1.134026 0.000000 0.170425
v -1.119384 0.000000 0.184258
v -1.105089 0.000000 0.197585
v -1.091076 0.000000 0.210438
v -1.077280 0.000000 0.222849
v -1.063634 0.000000 0.234847
v -1.050074 0.000000 0.246464
v -1.036535 0.000000 0.257731
v -1.022951 0.000000 0.268678
v -1.009258 0.000000 0.279337
v -0.995389 0.000000 0.289738
v -0.981279 0.000000 0.299912
v -0.966865 0.000000 0.309891
vn -0.0000 1.0000 -0.0000
vt 0.878049 0.000000
vt 0.829268 0.000000
vt 0.853659 0.000000
vt 0.902439 0.000000
vt 0.975610 0.000000
vt 0.926829 0.000000
vt 0.951219 0.000000
vt 1.000000 0.000000
vt 0.048780 0.000000
vt 0.000000 0.000000
vt 0.024390 0.000000
vt 0.073171 0.000000
vt 0.439024 0.000000
vt 0.390244 0.000000
vt 0.414634 0.000000
vt 0.463415 0.000000
vt 0.487805 0.000000
vt 0.780488 0.000000
vt 0.731707 0.000000
vt 0.756098 0.000000
vt 0.804878 0.000000
vt 0.365854 0.000000
vt 0.512195 0.000000
vt 0.341463 0.000000
vt 0.536585 0.000000
vt 0.317073 0.000000
vt 0.560976 0.000000
vt 0.292683 0.000000
vt 0.585366 0.000000
vt 0.609756 0.000000
vt 0.268293 0.000000
vt 0.634146 0.000000
vt 0.243902 0.000000
vt 0.658537 0.000000
vt 0.219512 0.000000
vt 0.682927 0.000000
vt 0.195122 0.000000
vt 0.707317 0.000000
vt 0.097561 0.000000
vt 0.170732 0.000000
vt 0.146341 0.000000
vt 0.121951 0.000000
vt 0.333333 0.000000
vt 0.666667 0.000000
vt 0.939394 0.000000
vt 0.909091 0.000000
vt 0.969697 0.000000
vt 0.030303 0.000000
vt 0.878788 0.000000
vt 0.060606 0.000000
vt 0.848485 0.000000
vt 0.090909 0.000000
vt 0.818182 0.000000
vt 0.121212 0.000000
vt 0.151515 0.000000
vt 0.787879 0.000000
vt 0.181818 0.000000
vt 0.757576 0.000000
vt 0.212121 0.000000
vt 0.727273 0.000000
vt 0.242424 0.000000
vt 0.696970 0.000000
vt 0.272727 0.000000
vt 0.303030 0.000000
vt 0.636364 0.000000
vt 0.363636 0.000000
vt 0.606061 0.000000
vt 0.393939 0.000000
vt 0.575758 0.000000
vt 0.424242 0.000000
vt 0.545455 0.000000
vt 0.454545 0.000000
vt 0.515152 0.000000
vt 0.484848 0.000000
vt 0.400000 0.000000
vt 0.369231 0.000000
vt 0.384615 0.000000
vt 0.415385 0.000000
vt 0.430769 0.000000
vt 0.446154 0.000000
vt 0.353846 0.000000
vt 0.461538 0.000000
vt 0.338462 0.000000
vt 0.323077 0.000000
vt 0.476923 0.000000
vt 0.307692 0.000000
vt 0.292308 0.000000
vt 0.492308 0.000000
vt 0.276923 0.000000
vt 0.261538 0.000000
vt 0.507692 0.000000
vt 0.246154 0.000000
vt 0.230769 0.000000
vt 0.523077 0.000000
vt 0.215385 0.000000
vt 0.200000 0.000000
vt 0.538462 0.000000
vt 0.184615 0.000000
vt 0.169231 0.000000
vt 0.553846 0.000000
vt 0.153846 0.000000
vt 0.138462 0.000000
vt 0.123077 0.000000
vt 0.569231 0.000000
vt 0.107692 0.000000
vt 0.092308 0.000000
vt 0.076923 0.000000
vt 0.584615 0.000000
vt 0.815385 0.000000
vt 0.061538 0.000000
vt 0.046154 0.000000
vt 0.800000 0.000000
vt 0.830769 0.000000
vt 0.600000 0.000000
vt 0.030769 0.000000
vt 0.784615 0.000000
vt 0.846154 0.000000
vt 0.015385 0.000000
vt 0.769231 0.000000
vt 0.861538 0.000000
vt 0.615385 0.000000
vt 0.876923 0.000000
vt 0.753846 0.000000
vt 0.892308 0.000000
vt 0.738462 0.000000
vt 0.630769 0.000000
vt 0.907692 0.000000
vt 0.723077 0.000000
vt 0.923077 0.000000
vt 0.707692 0.000000
vt 0.938462 0.000000
vt 0.692308 0.000000
vt 0.953846 0.000000
vt 0.676923 0.000000
vt 0.969231 0.000000
vt 0.661538 0.000000
vt 0.984615 0.000000
vt 0.646154 0.000000
s 0
usemtl マテリアル
f 37/1/1 35/2/1 36/3/1
f 38/4/1 35/2/1 37/1/1
f 41/5/1 39/6/1 40/7/1
f 42/8/1 39/6/1 41/5/1
f 3/9/1 1/10/1 2/11/1
f 4/12/1 1/10/1 3/9/1
f 19/13/1 17/14/1 18/15/1
f 20/16/1 17/14/1 19/13/1
f 21/17/1 17/14/1 20/16/1
f 33/18/1 31/19/1 32/20/1
f 34/21/1 31/19/1 33/18/1
f 21/17/1 16/22/1 17/14/1
f 22/23/1 16/22/1 21/17/1
f 22/23/1 15/24/1 16/22/1
f 23/25/1 15/24/1 22/23/1
f 23/25/1 14/26/1 15/24/1
f 24/27/1 14/26/1 23/25/1
f 24/27/1 13/28/1 14/26/1
f 25/29/1 13/28/1 24/27/1
f 26/30/1 13/28/1 25/29/1
f 26/30/1 12/31/1 13/28/1
f 27/32/1 12/31/1 26/30/1
f 27/32/1 11/33/1 12/31/1
f 28/34/1 11/33/1 27/32/1
f 28/34/1 10/35/1 11/33/1
f 29/36/1 10/35/1 28/34/1
f 29/36/1 9/37/1 10/35/1
f 30/38/1 9/37/1 29/36/1
f 5/39/1 9/37/1 30/38/1
f 5/39/1 8/40/1 9/37/1
f 5/39/1 7/41/1 8/40/1
f 5/39/1 6/42/1 7/41/1
f 46/8/1 44/43/1 45/44/1
f 46/8/1 43/10/1 44/43/1
f 78/45/1 80/8/1 77/46/1
f 79/47/1 80/8/1 78/45/1
f 48/48/1 76/49/1 47/10/1
f 49/50/1 75/51/1 48/48/1
f 75/51/1 76/49/1 48/48/1
f 49/50/1 50/52/1 75/51/1
f 50/52/1 74/53/1 75/51/1
f 51/54/1 74/53/1 50/52/1
f 52/55/1 74/53/1 51/54/1
f 52/55/1 73/56/1 74/53/1
f 53/57/1 73/56/1 52/55/1
f 53/57/1 72/58/1 73/56/1
f 54/59/1 72/58/1 53/57/1
f 54/59/1 71/60/1 72/58/1
f 55/61/1 71/60/1 54/59/1
f 55/61/1 70/62/1 71/60/1
f 56/63/1 70/62/1 55/61/1
f 57/64/1 70/62/1 56/63/1
f 57/64/1 69/44/1 70/62/1
f 58/43/1 69/44/1 57/64/1
f 58/43/1 68/65/1 69/44/1
f 59/66/1 68/65/1 58/43/1
f 59/66/1 67/67/1 68/65/1
f 60/68/1 67/67/1 59/66/1
f 60/68/1 66/69/1 67/67/1
f 61/70/1 66/69/1 60/68/1
f 61/70/1 65/71/1 66/69/1
f 62/72/1 65/71/1 61/70/1
f 62/72/1 64/73/1 65/71/1
f 63/74/1 64/73/1 62/72/1
f 107/75/1 105/76/1 106/77/1
f 108/78/1 109/79/1 107/75/1
f 109/79/1 105/76/1 107/75/1
f 110/80/1 105/76/1 109/79/1
f 110/80/1 104/81/1 105/76/1
f 111/82/1 104/81/1 110/80/1
f 111/82/1 103/83/1 104/81/1
f 111/82/1 102/84/1 103/83/1
f 112/85/1 102/84/1 111/82/1
f 112/85/1 101/86/1 102/84/1
f 112/85/1 100/87/1 101/86/1
f 113/88/1 100/87/1 112/85/1
f 113/88/1 99/89/1 100/87/1
f 113/88/1 98/90/1 99/89/1
f 114/91/1 98/90/1 113/88/1
f 114/91/1 97/92/1 98/90/1
f 114/91/1 96/93/1 97/92/1
f 115/94/1 96/93/1 114/91/1
f 115/94/1 95/95/1 96/93/1
f 115/94/1 94/96/1 95/95/1
f 116/97/1 94/96/1 115/94/1
f 116/97/1 93/98/1 94/96/1
f 116/97/1 92/99/1 93/98/1
f 117/100/1 92/99/1 116/97/1
f 117/100/1 91/101/1 92/99/1
f 117/100/1 90/102/1 91/101/1
f 117/100/1 89/103/1 90/102/1
f 118/104/1 89/103/1 117/100/1
f 118/104/1 88/105/1 89/103/1
f 118/104/1 87/106/1 88/105/1
f 118/104/1 86/107/1 87/106/1
f 119/108/1 86/107/1 118/104/1
f 119/108/1 134/109/1 86/107/1
f 134/109/1 85/110/1 86/107/1
f 134/109/1 84/111/1 85/110/1
f 119/108/1 133/112/1 134/109/1
f 135/113/1 84/111/1 134/109/1
f 120/114/1 133/112/1 119/108/1
f 135/113/1 83/115/1 84/111/1
f 120/114/1 132/116/1 133/112/1
f 136/117/1 83/115/1 135/113/1
f 136/117/1 82/118/1 83/115/1
f 120/114/1 131/119/1 132/116/1
f 137/120/1 82/118/1 136/117/1
f 137/120/1 81/10/1 82/118/1
f 121/121/1 131/119/1 120/114/1
f 138/122/1 81/10/1 137/120/1
f 121/121/1 130/123/1 131/119/1
f 138/122/1 146/8/1 81/10/1
f 139/124/1 146/8/1 138/122/1
f 121/121/1 129/125/1 130/123/1
f 122/126/1 129/125/1 121/121/1
f 140/127/1 146/8/1 139/124/1
f 122/126/1 128/128/1 129/125/1
f 141/129/1 146/8/1 140/127/1
f 122/126/1 127/130/1 128/128/1
f 142/131/1 146/8/1 141/129/1
f 122/126/1 126/132/1 127/130/1
f 143/133/1 146/8/1 142/131/1
f 122/126/1 125/134/1 126/132/1
f 144/135/1 146/8/1 143/133/1
f 122/126/1 124/136/1 125/134/1
f 145/137/1 146/8/1 144/135/1
f 122/126/1 123/138/1 124/136/1
